<?xml version="1.0" encoding="utf-8"?>
<!-- Generator: Adobe Illustrator 26.0.1, SVG Export Plug-In . SVG Version: 6.00 Build 0)  -->
<svg version="1.1" id="Слой_1" xmlns="http://www.w3.org/2000/svg" xmlns:xlink="http://www.w3.org/1999/xlink" x="0px" y="0px"
	 viewBox="0 0 1920 2167.3" style="enable-background:new 0 0 1920 2167.3;" xml:space="preserve">
<style type="text/css">
	.st0{fill:#3C3B6F;}
	.st1{opacity:5.000000e-02;}
	.st2{fill:#FFFFFF;}
</style>
<rect x="-5.7" y="-5.8" class="st0" width="1931.3" height="2173.1"/>
<g class="st1">
	<polygon class="st2" points="1583.5,45.4 1561.2,45.4 1572.4,26.1 1583.5,6.8 1594.7,26.1 1605.8,45.4 	"/>
	<polygon class="st2" points="1583.5,201.6 1561.2,201.6 1572.4,182.3 1583.5,163 1594.7,182.3 1605.8,201.6 	"/>
	<polygon class="st2" points="1583.5,357.8 1561.2,357.8 1572.4,338.5 1583.5,319.1 1594.7,338.5 1605.8,357.8 	"/>
	<polygon class="st2" points="1583.5,513.9 1561.2,513.9 1572.4,494.6 1583.5,475.3 1594.7,494.6 1605.8,513.9 	"/>
	<polygon class="st2" points="1583.5,670.1 1561.2,670.1 1572.4,650.8 1583.5,631.5 1594.7,650.8 1605.8,670.1 	"/>
	<polygon class="st2" points="1583.5,826.3 1561.2,826.3 1572.4,807 1583.5,787.7 1594.7,807 1605.8,826.3 	"/>
	<polygon class="st2" points="1506.8,116.4 1484.5,116.4 1495.7,97 1506.8,77.7 1518,97 1529.1,116.4 	"/>
	<polygon class="st2" points="1506.8,272.5 1484.5,272.5 1495.7,253.2 1506.8,233.9 1518,253.2 1529.1,272.5 	"/>
	<polygon class="st2" points="1506.8,428.7 1484.5,428.7 1495.7,409.4 1506.8,390.1 1518,409.4 1529.1,428.7 	"/>
	<polygon class="st2" points="1506.8,584.9 1484.5,584.9 1495.7,565.6 1506.8,546.3 1518,565.6 1529.1,584.9 	"/>
	<polygon class="st2" points="1506.8,741.1 1484.5,741.1 1495.7,721.8 1506.8,702.4 1518,721.8 1529.1,741.1 	"/>
	<polygon class="st2" points="1506.8,897.2 1484.5,897.2 1495.7,877.9 1506.8,858.6 1518,877.9 1529.1,897.2 	"/>
	<polygon class="st2" points="1660,116.4 1637.7,116.4 1648.8,97 1660,77.7 1671.1,97 1682.3,116.4 	"/>
	<polygon class="st2" points="1660,272.5 1637.7,272.5 1648.8,253.2 1660,233.9 1671.1,253.2 1682.3,272.5 	"/>
	<polygon class="st2" points="1660,428.7 1637.7,428.7 1648.8,409.4 1660,390.1 1671.1,409.4 1682.3,428.7 	"/>
	<polygon class="st2" points="1660,584.9 1637.7,584.9 1648.8,565.6 1660,546.3 1671.1,565.6 1682.3,584.9 	"/>
	<polygon class="st2" points="1660,741.1 1637.7,741.1 1648.8,721.8 1660,702.4 1671.1,721.8 1682.3,741.1 	"/>
	<polygon class="st2" points="1660,897.2 1637.7,897.2 1648.8,877.9 1660,858.6 1671.1,877.9 1682.3,897.2 	"/>
	<polygon class="st2" points="1815.9,116.4 1793.6,116.4 1804.7,97 1815.9,77.7 1827,97 1838.2,116.4 	"/>
	<polygon class="st2" points="1815.9,272.3 1793.6,272.3 1804.7,253 1815.9,233.7 1827,253 1838.2,272.3 	"/>
	<polygon class="st2" points="1815.9,428.5 1793.6,428.5 1804.7,409.2 1815.9,389.9 1827,409.2 1838.2,428.5 	"/>
	<polygon class="st2" points="1815.9,584.9 1793.6,584.9 1804.7,565.6 1815.9,546.3 1827,565.6 1838.2,584.9 	"/>
	<polygon class="st2" points="1815.9,741.1 1793.6,741.1 1804.7,721.8 1815.9,702.4 1827,721.8 1838.2,741.1 	"/>
	<polygon class="st2" points="1815.9,897.2 1793.6,897.2 1804.7,877.9 1815.9,858.6 1827,877.9 1838.2,897.2 	"/>
	<polygon class="st2" points="1739.2,45.4 1716.9,45.4 1728.1,26.1 1739.2,6.8 1750.3,26.1 1761.5,45.4 	"/>
	<polygon class="st2" points="1739.2,201.6 1716.9,201.6 1728.1,182.3 1739.2,163 1750.3,182.3 1761.5,201.6 	"/>
	<polygon class="st2" points="1739.2,357.8 1716.9,357.8 1728.1,338.5 1739.2,319.1 1750.3,338.5 1761.5,357.8 	"/>
	<polygon class="st2" points="1739.2,513.9 1716.9,513.9 1728.1,494.6 1739.2,475.3 1750.3,494.6 1761.5,513.9 	"/>
	<polygon class="st2" points="1739.2,670.1 1716.9,670.1 1728.1,650.8 1739.2,631.5 1750.3,650.8 1761.5,670.1 	"/>
	<polygon class="st2" points="1739.2,826.3 1716.9,826.3 1728.1,807 1739.2,787.7 1750.3,807 1761.5,826.3 	"/>
	<polygon class="st2" points="1892.4,45.4 1870.1,45.4 1881.2,26.1 1892.4,6.8 1903.5,26.1 1914.7,45.4 	"/>
	<polygon class="st2" points="1892.4,201.6 1870.1,201.6 1881.2,182.3 1892.4,163 1903.5,182.3 1914.7,201.6 	"/>
	<polygon class="st2" points="1892.4,357.8 1870.1,357.8 1881.2,338.5 1892.4,319.1 1903.5,338.5 1914.7,357.8 	"/>
	<polygon class="st2" points="1892.4,513.9 1870.1,513.9 1881.2,494.6 1892.4,475.3 1903.5,494.6 1914.7,513.9 	"/>
	<polygon class="st2" points="1892.4,670.1 1870.1,670.1 1881.2,650.8 1892.4,631.5 1903.5,650.8 1914.7,670.1 	"/>
	<polygon class="st2" points="1892.4,826.3 1870.1,826.3 1881.2,807 1892.4,787.7 1903.5,807 1914.7,826.3 	"/>
</g>
<g class="st1">
	<polygon class="st2" points="1583.5,982.5 1561.2,982.5 1572.4,963.2 1583.5,943.8 1594.7,963.2 1605.8,982.5 	"/>
	<polygon class="st2" points="1506.8,1053.4 1484.5,1053.4 1495.7,1034.1 1506.8,1014.8 1518,1034.1 1529.1,1053.4 	"/>
	<polygon class="st2" points="1660,1053.4 1637.7,1053.4 1648.8,1034.1 1660,1014.8 1671.1,1034.1 1682.3,1053.4 	"/>
	<polygon class="st2" points="1815.9,1053.4 1793.6,1053.4 1804.7,1034.1 1815.9,1014.8 1827,1034.1 1838.2,1053.4 	"/>
	<polygon class="st2" points="1739.2,982.5 1716.9,982.5 1728.1,963.2 1739.2,943.8 1750.3,963.2 1761.5,982.5 	"/>
	<polygon class="st2" points="1892.4,982.5 1870.1,982.5 1881.2,963.2 1892.4,943.8 1903.5,963.2 1914.7,982.5 	"/>
</g>
<g class="st1">
	<polygon class="st2" points="103.1,95 82.4,95 92.7,77.1 103.1,59.2 113.4,77.1 123.7,95 	"/>
	<polygon class="st2" points="103.1,259 82.4,259 92.7,241.1 103.1,223.2 113.4,241.1 123.7,259 	"/>
	<polygon class="st2" points="103.1,403.9 82.4,403.9 92.7,386 103.1,368 113.4,386 123.7,403.9 	"/>
	<polygon class="st2" points="103.1,548.8 82.4,548.8 92.7,530.8 103.1,512.9 113.4,530.8 123.7,548.8 	"/>
	<polygon class="st2" points="31.9,179.9 11.2,179.9 21.6,162 31.9,144.1 42.3,162 52.6,179.9 	"/>
	<polygon class="st2" points="31.9,324.8 11.2,324.8 21.6,306.9 31.9,289 42.3,306.9 52.6,324.8 	"/>
	<polygon class="st2" points="31.9,469.7 11.2,469.7 21.6,451.8 31.9,433.9 42.3,451.8 52.6,469.7 	"/>
	<polygon class="st2" points="31.9,614.5 11.2,614.5 21.6,596.6 31.9,578.7 42.3,596.6 52.6,614.5 	"/>
	<polygon class="st2" points="174,179.9 153.3,179.9 163.6,162 174,144.1 184.3,162 194.7,179.9 	"/>
	<polygon class="st2" points="174,324.8 153.3,324.8 163.6,306.9 174,289 184.3,306.9 194.7,324.8 	"/>
	<polygon class="st2" points="174,469.7 153.3,469.7 163.6,451.8 174,433.9 184.3,451.8 194.7,469.7 	"/>
	<polygon class="st2" points="174,614.5 153.3,614.5 163.6,596.6 174,578.7 184.3,596.6 194.7,614.5 	"/>
	<polygon class="st2" points="318.6,179.9 297.9,179.9 308.3,162 318.6,144.1 329,162 339.3,179.9 	"/>
	<polygon class="st2" points="318.6,324.8 297.9,324.8 308.3,306.9 318.6,289 329,306.9 339.3,324.8 	"/>
	<polygon class="st2" points="318.6,469.5 297.9,469.5 308.3,451.5 318.6,433.6 329,451.5 339.3,469.5 	"/>
	<polygon class="st2" points="318.6,614.4 297.9,614.4 308.3,596.5 318.6,578.6 329,596.5 339.3,614.4 	"/>
	<polygon class="st2" points="247.5,259 226.8,259 237.1,241.1 247.5,223.2 257.8,241.1 268.2,259 	"/>
	<polygon class="st2" points="247.5,403.9 226.8,403.9 237.1,386 247.5,368 257.8,386 268.2,403.9 	"/>
	<polygon class="st2" points="247.5,548.8 226.8,548.8 237.1,530.8 247.5,512.9 257.8,530.8 268.2,548.8 	"/>
	<polygon class="st2" points="247.5,693.6 226.8,693.6 237.1,675.7 247.5,657.8 257.8,675.7 268.2,693.6 	"/>
	<polygon class="st2" points="389.5,259 368.9,259 379.2,241.1 389.5,223.2 399.9,241.1 410.2,259 	"/>
	<polygon class="st2" points="389.5,403.9 368.9,403.9 379.2,386 389.5,368 399.9,386 410.2,403.9 	"/>
	<polygon class="st2" points="389.5,548.8 368.9,548.8 379.2,530.8 389.5,512.9 399.9,530.8 410.2,548.8 	"/>
	<polygon class="st2" points="389.5,693.6 368.9,693.6 379.2,675.7 389.5,657.8 399.9,675.7 410.2,693.6 	"/>
</g>
<g class="st1">
	<polygon class="st2" points="1583.5,1136.9 1561.2,1136.9 1572.4,1117.6 1583.5,1098.3 1594.7,1117.6 1605.8,1136.9 	"/>
	<polygon class="st2" points="1583.5,1293.1 1561.2,1293.1 1572.4,1273.8 1583.5,1254.5 1594.7,1273.8 1605.8,1293.1 	"/>
	<polygon class="st2" points="1583.5,1449.3 1561.2,1449.3 1572.4,1430 1583.5,1410.7 1594.7,1430 1605.8,1449.3 	"/>
	<polygon class="st2" points="1583.5,1605.5 1561.2,1605.5 1572.4,1586.1 1583.5,1566.8 1594.7,1586.1 1605.8,1605.5 	"/>
	<polygon class="st2" points="1583.5,1761.6 1561.2,1761.6 1572.4,1742.3 1583.5,1723 1594.7,1742.3 1605.8,1761.6 	"/>
	<polygon class="st2" points="1583.5,1917.8 1561.2,1917.8 1572.4,1898.5 1583.5,1879.2 1594.7,1898.5 1605.8,1917.8 	"/>
	<polygon class="st2" points="1506.8,1207.9 1484.5,1207.9 1495.7,1188.6 1506.8,1169.2 1518,1188.6 1529.1,1207.9 	"/>
	<polygon class="st2" points="1506.8,1364 1484.5,1364 1495.7,1344.7 1506.8,1325.4 1518,1344.7 1529.1,1364 	"/>
	<polygon class="st2" points="1506.8,1520.2 1484.5,1520.2 1495.7,1500.9 1506.8,1481.6 1518,1500.9 1529.1,1520.2 	"/>
	<polygon class="st2" points="1506.8,1676.4 1484.5,1676.4 1495.7,1657.1 1506.8,1637.8 1518,1657.1 1529.1,1676.4 	"/>
	<polygon class="st2" points="1506.8,1832.6 1484.5,1832.6 1495.7,1813.3 1506.8,1793.9 1518,1813.3 1529.1,1832.6 	"/>
	<polygon class="st2" points="1506.8,1988.7 1484.5,1988.7 1495.7,1969.4 1506.8,1950.1 1518,1969.4 1529.1,1988.7 	"/>
	<polygon class="st2" points="1660,1207.9 1637.7,1207.9 1648.8,1188.6 1660,1169.2 1671.1,1188.6 1682.3,1207.9 	"/>
	<polygon class="st2" points="1660,1364 1637.7,1364 1648.8,1344.7 1660,1325.4 1671.1,1344.7 1682.3,1364 	"/>
	<polygon class="st2" points="1660,1520.2 1637.7,1520.2 1648.8,1500.9 1660,1481.6 1671.1,1500.9 1682.3,1520.2 	"/>
	<polygon class="st2" points="1660,1676.4 1637.7,1676.4 1648.8,1657.1 1660,1637.8 1671.1,1657.1 1682.3,1676.4 	"/>
	<polygon class="st2" points="1660,1832.6 1637.7,1832.6 1648.8,1813.3 1660,1793.9 1671.1,1813.3 1682.3,1832.6 	"/>
	<polygon class="st2" points="1660,1988.7 1637.7,1988.7 1648.8,1969.4 1660,1950.1 1671.1,1969.4 1682.3,1988.7 	"/>
	<polygon class="st2" points="1815.9,1207.9 1793.6,1207.9 1804.7,1188.6 1815.9,1169.2 1827,1188.6 1838.2,1207.9 	"/>
	<polygon class="st2" points="1815.9,1363.8 1793.6,1363.8 1804.7,1344.5 1815.9,1325.2 1827,1344.5 1838.2,1363.8 	"/>
	<polygon class="st2" points="1815.9,1520.1 1793.6,1520.1 1804.7,1500.7 1815.9,1481.4 1827,1500.7 1838.2,1520.1 	"/>
	<polygon class="st2" points="1815.9,1676.4 1793.6,1676.4 1804.7,1657.1 1815.9,1637.8 1827,1657.1 1838.2,1676.4 	"/>
	<polygon class="st2" points="1815.9,1832.6 1793.6,1832.6 1804.7,1813.3 1815.9,1793.9 1827,1813.3 1838.2,1832.6 	"/>
	<polygon class="st2" points="1815.9,1988.7 1793.6,1988.7 1804.7,1969.4 1815.9,1950.1 1827,1969.4 1838.2,1988.7 	"/>
	<polygon class="st2" points="1739.2,1136.9 1716.9,1136.9 1728.1,1117.6 1739.2,1098.3 1750.3,1117.6 1761.5,1136.9 	"/>
	<polygon class="st2" points="1739.2,1293.1 1716.9,1293.1 1728.1,1273.8 1739.2,1254.5 1750.3,1273.8 1761.5,1293.1 	"/>
	<polygon class="st2" points="1739.2,1449.3 1716.9,1449.3 1728.1,1430 1739.2,1410.7 1750.3,1430 1761.5,1449.3 	"/>
	<polygon class="st2" points="1739.2,1605.5 1716.9,1605.5 1728.1,1586.1 1739.2,1566.8 1750.3,1586.1 1761.5,1605.5 	"/>
	<polygon class="st2" points="1739.2,1761.6 1716.9,1761.6 1728.1,1742.3 1739.2,1723 1750.3,1742.3 1761.5,1761.6 	"/>
	<polygon class="st2" points="1739.2,1917.8 1716.9,1917.8 1728.1,1898.5 1739.2,1879.2 1750.3,1898.5 1761.5,1917.8 	"/>
	<polygon class="st2" points="1892.4,1136.9 1870.1,1136.9 1881.2,1117.6 1892.4,1098.3 1903.5,1117.6 1914.7,1136.9 	"/>
	<polygon class="st2" points="1892.4,1293.1 1870.1,1293.1 1881.2,1273.8 1892.4,1254.5 1903.5,1273.8 1914.7,1293.1 	"/>
	<polygon class="st2" points="1892.4,1449.3 1870.1,1449.3 1881.2,1430 1892.4,1410.7 1903.5,1430 1914.7,1449.3 	"/>
	<polygon class="st2" points="1892.4,1605.5 1870.1,1605.5 1881.2,1586.1 1892.4,1566.8 1903.5,1586.1 1914.7,1605.5 	"/>
	<polygon class="st2" points="1892.4,1761.6 1870.1,1761.6 1881.2,1742.3 1892.4,1723 1903.5,1742.3 1914.7,1761.6 	"/>
	<polygon class="st2" points="1892.4,1917.8 1870.1,1917.8 1881.2,1898.5 1892.4,1879.2 1903.5,1898.5 1914.7,1917.8 	"/>
</g>
<g class="st1">
	<polygon class="st2" points="1583.5,2074 1561.2,2074 1572.4,2054.7 1583.5,2035.4 1594.7,2054.7 1605.8,2074 	"/>
	<polygon class="st2" points="1506.8,2144.9 1484.5,2144.9 1495.7,2125.6 1506.8,2106.3 1518,2125.6 1529.1,2144.9 	"/>
	<polygon class="st2" points="1660,2144.9 1637.7,2144.9 1648.8,2125.6 1660,2106.3 1671.1,2125.6 1682.3,2144.9 	"/>
	<polygon class="st2" points="1815.9,2144.9 1793.6,2144.9 1804.7,2125.6 1815.9,2106.3 1827,2125.6 1838.2,2144.9 	"/>
	<polygon class="st2" points="1739.2,2074 1716.9,2074 1728.1,2054.7 1739.2,2035.4 1750.3,2054.7 1761.5,2074 	"/>
	<polygon class="st2" points="1892.4,2074 1870.1,2074 1881.2,2054.7 1892.4,2035.4 1903.5,2054.7 1914.7,2074 	"/>
</g>
<g class="st1">
	<polygon class="st2" points="103.1,1186.5 82.4,1186.5 92.7,1168.6 103.1,1150.7 113.4,1168.6 123.7,1186.5 	"/>
	<polygon class="st2" points="103.1,1350.5 82.4,1350.5 92.7,1332.6 103.1,1314.7 113.4,1332.6 123.7,1350.5 	"/>
	<polygon class="st2" points="103.1,1495.4 82.4,1495.4 92.7,1477.5 103.1,1459.6 113.4,1477.5 123.7,1495.4 	"/>
	<polygon class="st2" points="103.1,1640.3 82.4,1640.3 92.7,1622.3 103.1,1604.4 113.4,1622.3 123.7,1640.3 	"/>
	<polygon class="st2" points="31.9,1271.5 11.2,1271.5 21.6,1253.5 31.9,1235.6 42.3,1253.5 52.6,1271.5 	"/>
	<polygon class="st2" points="31.9,1416.3 11.2,1416.3 21.6,1398.4 31.9,1380.5 42.3,1398.4 52.6,1416.3 	"/>
	<polygon class="st2" points="31.9,1561.2 11.2,1561.2 21.6,1543.3 31.9,1525.4 42.3,1543.3 52.6,1561.2 	"/>
	<polygon class="st2" points="31.9,1706.1 11.2,1706.1 21.6,1688.2 31.9,1670.2 42.3,1688.2 52.6,1706.1 	"/>
	<polygon class="st2" points="174,1271.5 153.3,1271.5 163.7,1253.5 174,1235.6 184.3,1253.5 194.7,1271.5 	"/>
	<polygon class="st2" points="174,1416.3 153.3,1416.3 163.7,1398.4 174,1380.5 184.3,1398.4 194.7,1416.3 	"/>
	<polygon class="st2" points="174,1561.2 153.3,1561.2 163.7,1543.3 174,1525.4 184.3,1543.3 194.7,1561.2 	"/>
	<polygon class="st2" points="174,1706.1 153.3,1706.1 163.7,1688.2 174,1670.2 184.3,1688.2 194.7,1706.1 	"/>
	<polygon class="st2" points="318.6,1271.5 297.9,1271.5 308.3,1253.5 318.6,1235.6 329,1253.5 339.3,1271.5 	"/>
	<polygon class="st2" points="318.6,1416.3 297.9,1416.3 308.3,1398.4 318.6,1380.5 329,1398.4 339.3,1416.3 	"/>
	<polygon class="st2" points="318.6,1561 297.9,1561 308.3,1543.1 318.6,1525.2 329,1543.1 339.3,1561 	"/>
	<polygon class="st2" points="318.6,1705.9 297.9,1705.9 308.3,1688 318.6,1670.1 329,1688 339.3,1705.9 	"/>
	<polygon class="st2" points="247.5,1350.5 226.8,1350.5 237.1,1332.6 247.5,1314.7 257.8,1332.6 268.2,1350.5 	"/>
	<polygon class="st2" points="247.5,1495.4 226.8,1495.4 237.1,1477.5 247.5,1459.6 257.8,1477.5 268.2,1495.4 	"/>
	<polygon class="st2" points="247.5,1640.3 226.8,1640.3 237.1,1622.4 247.5,1604.4 257.8,1622.4 268.2,1640.3 	"/>
	<polygon class="st2" points="247.5,1785.1 226.8,1785.1 237.1,1767.2 247.5,1749.3 257.8,1767.2 268.2,1785.1 	"/>
	<polygon class="st2" points="389.6,1350.5 368.9,1350.5 379.2,1332.6 389.6,1314.7 399.9,1332.6 410.2,1350.5 	"/>
	<polygon class="st2" points="389.6,1495.4 368.9,1495.4 379.2,1477.5 389.6,1459.6 399.9,1477.5 410.2,1495.4 	"/>
	<polygon class="st2" points="389.6,1640.3 368.9,1640.3 379.2,1622.4 389.6,1604.4 399.9,1622.4 410.2,1640.3 	"/>
	<polygon class="st2" points="389.6,1785.1 368.9,1785.1 379.2,1767.2 389.6,1749.3 399.9,1767.2 410.2,1785.1 	"/>
</g>
</svg>
