<?xml version="1.0" encoding="utf-8"?>
<!-- Generator: Adobe Illustrator 26.0.1, SVG Export Plug-In . SVG Version: 6.00 Build 0)  -->
<svg version="1.1" id="Слой_1" xmlns="http://www.w3.org/2000/svg" xmlns:xlink="http://www.w3.org/1999/xlink" x="0px" y="0px"
	 viewBox="0 0 1920 1080" style="enable-background:new 0 0 1920 1080;" xml:space="preserve">
<style type="text/css">
	.st0{fill:#3C3B6F;}
	.st1{opacity:0.05;}
	.st2{fill:#FFFFFF;}
</style>
<rect x="-5.67" y="-5.84" class="st0" width="1931.34" height="1091.51"/>
<g class="st1">
	<polygon class="st2" points="1583.51,45.42 1561.21,45.42 1572.36,26.1 1583.51,6.79 1594.66,26.1 1605.81,45.42 	"/>
	<polygon class="st2" points="1583.51,201.59 1561.21,201.59 1572.36,182.28 1583.51,162.96 1594.66,182.28 1605.81,201.59 	"/>
	<polygon class="st2" points="1583.51,357.77 1561.21,357.77 1572.36,338.45 1583.51,319.14 1594.66,338.45 1605.81,357.77 	"/>
	<polygon class="st2" points="1583.51,513.94 1561.21,513.94 1572.36,494.63 1583.51,475.31 1594.66,494.63 1605.81,513.94 	"/>
	<polygon class="st2" points="1583.51,670.11 1561.21,670.11 1572.36,650.8 1583.51,631.49 1594.66,650.8 1605.81,670.11 	"/>
	<polygon class="st2" points="1583.51,826.29 1561.21,826.29 1572.36,806.98 1583.51,787.66 1594.66,806.98 1605.81,826.29 	"/>
	<polygon class="st2" points="1506.83,116.36 1484.53,116.36 1495.68,97.05 1506.83,77.73 1517.98,97.05 1529.13,116.36 	"/>
	<polygon class="st2" points="1506.83,272.53 1484.53,272.53 1495.68,253.22 1506.83,233.91 1517.98,253.22 1529.13,272.53 	"/>
	<polygon class="st2" points="1506.83,428.71 1484.53,428.71 1495.68,409.4 1506.83,390.08 1517.98,409.4 1529.13,428.71 	"/>
	<polygon class="st2" points="1506.83,584.88 1484.53,584.88 1495.68,565.57 1506.83,546.26 1517.98,565.57 1529.13,584.88 	"/>
	<polygon class="st2" points="1506.83,741.06 1484.53,741.06 1495.68,721.75 1506.83,702.43 1517.98,721.75 1529.13,741.06 	"/>
	<polygon class="st2" points="1506.83,897.23 1484.53,897.23 1495.68,877.92 1506.83,858.61 1517.98,877.92 1529.13,897.23 	"/>
	<polygon class="st2" points="1659.99,116.36 1637.69,116.36 1648.84,97.05 1659.99,77.73 1671.14,97.05 1682.29,116.36 	"/>
	<polygon class="st2" points="1659.99,272.53 1637.69,272.53 1648.84,253.22 1659.99,233.91 1671.14,253.22 1682.29,272.53 	"/>
	<polygon class="st2" points="1659.99,428.71 1637.69,428.71 1648.84,409.4 1659.99,390.08 1671.14,409.4 1682.29,428.71 	"/>
	<polygon class="st2" points="1659.99,584.88 1637.69,584.88 1648.84,565.57 1659.99,546.26 1671.14,565.57 1682.29,584.88 	"/>
	<polygon class="st2" points="1659.99,741.06 1637.69,741.06 1648.84,721.75 1659.99,702.43 1671.14,721.75 1682.29,741.06 	"/>
	<polygon class="st2" points="1659.99,897.23 1637.69,897.23 1648.84,877.92 1659.99,858.61 1671.14,877.92 1682.29,897.23 	"/>
	<polygon class="st2" points="1815.88,116.36 1793.58,116.36 1804.73,97.05 1815.88,77.73 1827.03,97.05 1838.18,116.36 	"/>
	<polygon class="st2" points="1815.88,272.3 1793.58,272.3 1804.73,252.99 1815.88,233.68 1827.03,252.99 1838.18,272.3 	"/>
	<polygon class="st2" points="1815.88,428.54 1793.58,428.54 1804.73,409.23 1815.88,389.91 1827.03,409.23 1838.18,428.54 	"/>
	<polygon class="st2" points="1815.88,584.88 1793.58,584.88 1804.73,565.57 1815.88,546.26 1827.03,565.57 1838.18,584.88 	"/>
	<polygon class="st2" points="1815.88,741.06 1793.58,741.06 1804.73,721.75 1815.88,702.43 1827.03,721.75 1838.18,741.06 	"/>
	<polygon class="st2" points="1815.88,897.23 1793.58,897.23 1804.73,877.92 1815.88,858.61 1827.03,877.92 1838.18,897.23 	"/>
	<polygon class="st2" points="1739.2,45.42 1716.9,45.42 1728.05,26.11 1739.2,6.79 1750.35,26.11 1761.5,45.42 	"/>
	<polygon class="st2" points="1739.2,201.6 1716.9,201.6 1728.05,182.28 1739.2,162.97 1750.35,182.28 1761.5,201.6 	"/>
	<polygon class="st2" points="1739.2,357.77 1716.9,357.77 1728.05,338.46 1739.2,319.14 1750.35,338.46 1761.5,357.77 	"/>
	<polygon class="st2" points="1739.2,513.94 1716.9,513.94 1728.05,494.63 1739.2,475.32 1750.35,494.63 1761.5,513.94 	"/>
	<polygon class="st2" points="1739.2,670.12 1716.9,670.12 1728.05,650.81 1739.2,631.49 1750.35,650.81 1761.5,670.12 	"/>
	<polygon class="st2" points="1739.2,826.29 1716.9,826.29 1728.05,806.98 1739.2,787.67 1750.35,806.98 1761.5,826.29 	"/>
	<polygon class="st2" points="1892.36,45.42 1870.06,45.42 1881.21,26.11 1892.36,6.79 1903.51,26.11 1914.66,45.42 	"/>
	<polygon class="st2" points="1892.36,201.6 1870.06,201.6 1881.21,182.28 1892.36,162.97 1903.51,182.28 1914.66,201.6 	"/>
	<polygon class="st2" points="1892.36,357.77 1870.06,357.77 1881.21,338.46 1892.36,319.14 1903.51,338.46 1914.66,357.77 	"/>
	<polygon class="st2" points="1892.36,513.94 1870.06,513.94 1881.21,494.63 1892.36,475.32 1903.51,494.63 1914.66,513.94 	"/>
	<polygon class="st2" points="1892.36,670.12 1870.06,670.12 1881.21,650.81 1892.36,631.49 1903.51,650.81 1914.66,670.12 	"/>
	<polygon class="st2" points="1892.36,826.29 1870.06,826.29 1881.21,806.98 1892.36,787.67 1903.51,806.98 1914.66,826.29 	"/>
</g>
<g class="st1">
	<polygon class="st2" points="1583.51,982.46 1561.21,982.46 1572.36,963.15 1583.51,943.84 1594.66,963.15 1605.81,982.46 	"/>
	<polygon class="st2" points="1506.83,1053.41 1484.53,1053.41 1495.68,1034.1 1506.83,1014.78 1517.98,1034.1 1529.13,1053.41 	"/>
	<polygon class="st2" points="1659.99,1053.41 1637.69,1053.41 1648.84,1034.1 1659.99,1014.78 1671.14,1034.1 1682.29,1053.41 	"/>
	<polygon class="st2" points="1815.88,1053.41 1793.58,1053.41 1804.73,1034.1 1815.88,1014.78 1827.03,1034.1 1838.18,1053.41 	"/>
	<polygon class="st2" points="1739.2,982.47 1716.9,982.47 1728.05,963.16 1739.2,943.84 1750.35,963.16 1761.5,982.47 	"/>
	<polygon class="st2" points="1892.36,982.47 1870.06,982.47 1881.21,963.16 1892.36,943.84 1903.51,963.16 1914.66,982.47 	"/>
</g>
<g class="st1">
	<polygon class="st2" points="103.05,95.03 82.36,95.03 92.71,77.12 103.05,59.2 113.39,77.12 123.74,95.03 	"/>
	<polygon class="st2" points="103.05,259 82.36,259 92.71,241.09 103.05,223.17 113.39,241.09 123.74,259 	"/>
	<polygon class="st2" points="103.05,403.88 82.36,403.88 92.71,385.96 103.05,368.05 113.39,385.96 123.74,403.88 	"/>
	<polygon class="st2" points="103.05,548.75 82.36,548.75 92.71,530.83 103.05,512.92 113.39,530.83 123.74,548.75 	"/>
	<polygon class="st2" points="31.92,179.94 11.23,179.94 21.57,162.03 31.92,144.11 42.26,162.03 52.6,179.94 	"/>
	<polygon class="st2" points="31.92,324.81 11.23,324.81 21.57,306.9 31.92,288.98 42.26,306.9 52.6,324.81 	"/>
	<polygon class="st2" points="31.92,469.68 11.23,469.68 21.57,451.77 31.92,433.85 42.26,451.77 52.6,469.68 	"/>
	<polygon class="st2" points="31.92,614.55 11.23,614.55 21.57,596.64 31.92,578.72 42.26,596.64 52.6,614.55 	"/>
	<polygon class="st2" points="173.99,179.94 153.31,179.94 163.65,162.03 173.99,144.11 184.34,162.03 194.68,179.94 	"/>
	<polygon class="st2" points="173.99,324.81 153.31,324.81 163.65,306.9 173.99,288.98 184.34,306.9 194.68,324.81 	"/>
	<polygon class="st2" points="173.99,469.68 153.31,469.68 163.65,451.77 173.99,433.85 184.34,451.77 194.68,469.68 	"/>
	<polygon class="st2" points="173.99,614.55 153.31,614.55 163.65,596.64 173.99,578.72 184.34,596.64 194.68,614.55 	"/>
	<polygon class="st2" points="318.6,179.95 297.92,179.95 308.26,162.03 318.6,144.12 328.95,162.03 339.29,179.95 	"/>
	<polygon class="st2" points="318.6,324.81 297.92,324.81 308.26,306.9 318.6,288.98 328.95,306.9 339.29,324.81 	"/>
	<polygon class="st2" points="318.6,469.47 297.92,469.47 308.26,451.55 318.6,433.64 328.95,451.55 339.29,469.47 	"/>
	<polygon class="st2" points="318.6,614.4 297.92,614.4 308.26,596.48 318.6,578.57 328.95,596.48 339.29,614.4 	"/>
	<polygon class="st2" points="247.47,259.01 226.78,259.01 237.13,241.09 247.47,223.18 257.81,241.09 268.16,259.01 	"/>
	<polygon class="st2" points="247.47,403.88 226.78,403.88 237.13,385.96 247.47,368.05 257.81,385.96 268.16,403.88 	"/>
	<polygon class="st2" points="247.47,548.75 226.78,548.75 237.13,530.84 247.47,512.92 257.81,530.84 268.16,548.75 	"/>
	<polygon class="st2" points="247.47,693.62 226.78,693.62 237.13,675.71 247.47,657.79 257.81,675.71 268.16,693.62 	"/>
	<polygon class="st2" points="389.55,259.01 368.86,259.01 379.2,241.09 389.55,223.18 399.89,241.09 410.23,259.01 	"/>
	<polygon class="st2" points="389.55,403.88 368.86,403.88 379.2,385.96 389.55,368.05 399.89,385.96 410.23,403.88 	"/>
	<polygon class="st2" points="389.55,548.75 368.86,548.75 379.2,530.84 389.55,512.92 399.89,530.84 410.23,548.75 	"/>
	<polygon class="st2" points="389.55,693.62 368.86,693.62 379.2,675.71 389.55,657.79 399.89,675.71 410.23,693.62 	"/>
</g>
</svg>
