<?xml version="1.0" encoding="utf-8"?>
<!-- Generator: Adobe Illustrator 26.0.1, SVG Export Plug-In . SVG Version: 6.00 Build 0)  -->
<svg version="1.1" id="Слой_1" xmlns="http://www.w3.org/2000/svg" xmlns:xlink="http://www.w3.org/1999/xlink" x="0px" y="0px"
	 viewBox="0 0 505.5 1161.17" style="enable-background:new 0 0 505.5 1161.17;" xml:space="preserve">
<style type="text/css">
	.st0{opacity:0.05;}
	.st1{fill:#FFFFFF;}
</style>
<g class="st0">
	<polygon class="st1" points="156.24,70.09 135.55,70.09 145.9,52.17 156.24,34.26 166.58,52.17 176.93,70.09 	"/>
	<polygon class="st1" points="156.24,234.06 135.55,234.06 145.9,216.14 156.24,198.23 166.58,216.14 176.93,234.06 	"/>
	<polygon class="st1" points="156.24,378.93 135.55,378.93 145.9,361.01 156.24,343.1 166.58,361.01 176.93,378.93 	"/>
	<polygon class="st1" points="156.24,523.8 135.55,523.8 145.9,505.88 156.24,487.97 166.58,505.88 176.93,523.8 	"/>
	<polygon class="st1" points="156.24,668.67 135.55,668.67 145.9,650.75 156.24,632.84 166.58,650.75 176.93,668.67 	"/>
	<polygon class="st1" points="156.24,813.54 135.55,813.54 145.9,795.62 156.24,777.71 166.58,795.62 176.93,813.54 	"/>
	<polygon class="st1" points="156.24,958.41 135.55,958.41 145.9,940.5 156.24,922.58 166.58,940.5 176.93,958.41 	"/>
	<polygon class="st1" points="85.11,154.99 64.42,154.99 74.76,137.08 85.11,119.16 95.45,137.08 105.79,154.99 	"/>
	<polygon class="st1" points="85.11,299.87 64.42,299.87 74.76,281.95 85.11,264.04 95.45,281.95 105.79,299.87 	"/>
	<polygon class="st1" points="85.11,444.74 64.42,444.74 74.76,426.82 85.11,408.91 95.45,426.82 105.79,444.74 	"/>
	<polygon class="st1" points="85.11,589.61 64.42,589.61 74.76,571.69 85.11,553.78 95.45,571.69 105.79,589.61 	"/>
	<polygon class="st1" points="85.11,734.48 64.42,734.48 74.76,716.56 85.11,698.65 95.45,716.56 105.79,734.48 	"/>
	<polygon class="st1" points="85.11,879.35 64.42,879.35 74.76,861.43 85.11,843.52 95.45,861.43 105.79,879.35 	"/>
	<polygon class="st1" points="85.11,1024.22 64.42,1024.22 74.76,1006.3 85.11,988.39 95.45,1006.3 105.79,1024.22 	"/>
	<polygon class="st1" points="227.18,154.99 206.5,154.99 216.84,137.08 227.18,119.16 237.53,137.08 247.87,154.99 	"/>
	<polygon class="st1" points="227.18,299.87 206.5,299.87 216.84,281.95 227.18,264.04 237.53,281.95 247.87,299.87 	"/>
	<polygon class="st1" points="227.18,444.74 206.5,444.74 216.84,426.82 227.18,408.91 237.53,426.82 247.87,444.74 	"/>
	<polygon class="st1" points="227.18,589.61 206.5,589.61 216.84,571.69 227.18,553.78 237.53,571.69 247.87,589.61 	"/>
	<polygon class="st1" points="227.18,734.48 206.5,734.48 216.84,716.56 227.18,698.65 237.53,716.56 247.87,734.48 	"/>
	<polygon class="st1" points="227.18,879.35 206.5,879.35 216.84,861.43 227.18,843.52 237.53,861.43 247.87,879.35 	"/>
	<polygon class="st1" points="227.18,1024.22 206.5,1024.22 216.84,1006.3 227.18,988.39 237.53,1006.3 247.87,1024.22 	"/>
	<polygon class="st1" points="371.79,155 351.11,155 361.45,137.08 371.79,119.17 382.14,137.08 392.48,155 	"/>
	<polygon class="st1" points="371.79,299.87 351.11,299.87 361.45,281.95 371.79,264.04 382.14,281.95 392.48,299.87 	"/>
	<polygon class="st1" points="371.79,444.52 351.11,444.52 361.45,426.61 371.79,408.69 382.14,426.61 392.48,444.52 	"/>
	<polygon class="st1" points="371.79,589.45 351.11,589.45 361.45,571.54 371.79,553.62 382.14,571.54 392.48,589.45 	"/>
	<polygon class="st1" points="371.79,734.48 351.11,734.48 361.45,716.56 371.79,698.65 382.14,716.56 392.48,734.48 	"/>
	<polygon class="st1" points="371.79,879.35 351.11,879.35 361.45,861.43 371.79,843.52 382.14,861.43 392.48,879.35 	"/>
	<polygon class="st1" points="371.79,1024.22 351.11,1024.22 361.45,1006.3 371.79,988.39 382.14,1006.3 392.48,1024.22 	"/>
	<polygon class="st1" points="300.66,234.06 279.97,234.06 290.32,216.15 300.66,198.23 311,216.15 321.35,234.06 	"/>
	<polygon class="st1" points="300.66,378.93 279.97,378.93 290.32,361.02 300.66,343.1 311,361.02 321.35,378.93 	"/>
	<polygon class="st1" points="300.66,523.8 279.97,523.8 290.32,505.89 300.66,487.97 311,505.89 321.35,523.8 	"/>
	<polygon class="st1" points="300.66,668.67 279.97,668.67 290.32,650.76 300.66,632.84 311,650.76 321.35,668.67 	"/>
	<polygon class="st1" points="300.66,813.54 279.97,813.54 290.32,795.63 300.66,777.71 311,795.63 321.35,813.54 	"/>
	<polygon class="st1" points="300.66,958.42 279.97,958.42 290.32,940.5 300.66,922.58 311,940.5 321.35,958.42 	"/>
	<polygon class="st1" points="300.66,1103.29 279.97,1103.29 290.32,1085.37 300.66,1067.46 311,1085.37 321.35,1103.29 	"/>
	<polygon class="st1" points="442.73,234.06 422.05,234.06 432.39,216.15 442.73,198.23 453.08,216.15 463.42,234.06 	"/>
	<polygon class="st1" points="442.73,378.93 422.05,378.93 432.39,361.02 442.73,343.1 453.08,361.02 463.42,378.93 	"/>
	<polygon class="st1" points="442.73,523.8 422.05,523.8 432.39,505.89 442.73,487.97 453.08,505.89 463.42,523.8 	"/>
	<polygon class="st1" points="442.73,668.67 422.05,668.67 432.39,650.76 442.73,632.84 453.08,650.76 463.42,668.67 	"/>
	<polygon class="st1" points="442.73,813.54 422.05,813.54 432.39,795.63 442.73,777.71 453.08,795.63 463.42,813.54 	"/>
	<polygon class="st1" points="442.73,958.42 422.05,958.42 432.39,940.5 442.73,922.58 453.08,940.5 463.42,958.42 	"/>
	<polygon class="st1" points="442.73,1103.29 422.05,1103.29 432.39,1085.37 442.73,1067.46 453.08,1085.37 463.42,1103.29 	"/>
</g>
</svg>
