<?xml version="1.0" encoding="utf-8"?>
<!-- Generator: Adobe Illustrator 26.0.1, SVG Export Plug-In . SVG Version: 6.00 Build 0)  -->
<svg version="1.1" id="Слой_1" xmlns="http://www.w3.org/2000/svg" xmlns:xlink="http://www.w3.org/1999/xlink" x="0px" y="0px"
	 viewBox="0 0 1920 1080" style="enable-background:new 0 0 1920 1080;" xml:space="preserve">
<style type="text/css">
	.st0{fill:#3C3B6F;}
	.st1{opacity:0.05;}
	.st2{fill:#FFFFFF;}
</style>
<rect x="-5.67" y="-5.84" class="st0" width="1931.34" height="1091.51"/>
<g class="st1">
	<polygon class="st2" points="1607.48,16.98 1586.79,16.98 1597.14,-0.93 1607.48,-18.85 1617.82,-0.93 1628.17,16.98 	"/>
	<polygon class="st2" points="1607.48,180.95 1586.79,180.95 1597.14,163.04 1607.48,145.12 1617.82,163.04 1628.17,180.95 	"/>
	<polygon class="st2" points="1607.48,325.82 1586.79,325.82 1597.14,307.91 1607.48,289.99 1617.82,307.91 1628.17,325.82 	"/>
	<polygon class="st2" points="1607.48,470.69 1586.79,470.69 1597.14,452.78 1607.48,434.86 1617.82,452.78 1628.17,470.69 	"/>
	<polygon class="st2" points="1607.48,615.56 1586.79,615.56 1597.14,597.65 1607.48,579.73 1617.82,597.65 1628.17,615.56 	"/>
	<polygon class="st2" points="1607.48,760.43 1586.79,760.43 1597.14,742.52 1607.48,724.6 1617.82,742.52 1628.17,760.43 	"/>
	<polygon class="st2" points="1607.48,905.31 1586.79,905.31 1597.14,887.39 1607.48,869.47 1617.82,887.39 1628.17,905.31 	"/>
	<polygon class="st2" points="1536.35,101.89 1515.66,101.89 1526.01,83.97 1536.35,66.06 1546.69,83.97 1557.03,101.89 	"/>
	<polygon class="st2" points="1536.35,246.76 1515.66,246.76 1526.01,228.84 1536.35,210.93 1546.69,228.84 1557.03,246.76 	"/>
	<polygon class="st2" points="1536.35,391.63 1515.66,391.63 1526.01,373.72 1536.35,355.8 1546.69,373.72 1557.03,391.63 	"/>
	<polygon class="st2" points="1536.35,536.5 1515.66,536.5 1526.01,518.59 1536.35,500.67 1546.69,518.59 1557.03,536.5 	"/>
	<polygon class="st2" points="1536.35,681.37 1515.66,681.37 1526.01,663.46 1536.35,645.54 1546.69,663.46 1557.03,681.37 	"/>
	<polygon class="st2" points="1536.35,826.24 1515.66,826.24 1526.01,808.33 1536.35,790.41 1546.69,808.33 1557.03,826.24 	"/>
	<polygon class="st2" points="1536.35,971.11 1515.66,971.11 1526.01,953.2 1536.35,935.28 1546.69,953.2 1557.03,971.11 	"/>
	<polygon class="st2" points="1678.42,101.89 1657.74,101.89 1668.08,83.97 1678.42,66.06 1688.77,83.97 1699.11,101.89 	"/>
	<polygon class="st2" points="1678.42,246.76 1657.74,246.76 1668.08,228.84 1678.42,210.93 1688.77,228.84 1699.11,246.76 	"/>
	<polygon class="st2" points="1678.42,391.63 1657.74,391.63 1668.08,373.72 1678.42,355.8 1688.77,373.72 1699.11,391.63 	"/>
	<polygon class="st2" points="1678.42,536.5 1657.74,536.5 1668.08,518.59 1678.42,500.67 1688.77,518.59 1699.11,536.5 	"/>
	<polygon class="st2" points="1678.42,681.37 1657.74,681.37 1668.08,663.46 1678.42,645.54 1688.77,663.46 1699.11,681.37 	"/>
	<polygon class="st2" points="1678.42,826.24 1657.74,826.24 1668.08,808.33 1678.42,790.41 1688.77,808.33 1699.11,826.24 	"/>
	<polygon class="st2" points="1678.42,971.11 1657.74,971.11 1668.08,953.2 1678.42,935.28 1688.77,953.2 1699.11,971.11 	"/>
	<polygon class="st2" points="1823.03,101.89 1802.35,101.89 1812.69,83.98 1823.03,66.06 1833.38,83.98 1843.72,101.89 	"/>
	<polygon class="st2" points="1823.03,246.76 1802.35,246.76 1812.69,228.84 1823.03,210.93 1833.38,228.84 1843.72,246.76 	"/>
	<polygon class="st2" points="1823.03,391.42 1802.35,391.42 1812.69,373.5 1823.03,355.59 1833.38,373.5 1843.72,391.42 	"/>
	<polygon class="st2" points="1823.03,536.35 1802.35,536.35 1812.69,518.43 1823.03,500.52 1833.38,518.43 1843.72,536.35 	"/>
	<polygon class="st2" points="1823.03,681.37 1802.35,681.37 1812.69,663.46 1823.03,645.54 1833.38,663.46 1843.72,681.37 	"/>
	<polygon class="st2" points="1823.03,826.24 1802.35,826.24 1812.69,808.33 1823.03,790.41 1833.38,808.33 1843.72,826.24 	"/>
	<polygon class="st2" points="1823.03,971.11 1802.35,971.11 1812.69,953.2 1823.03,935.28 1833.38,953.2 1843.72,971.11 	"/>
	<polygon class="st2" points="1751.9,180.96 1731.21,180.96 1741.56,163.04 1751.9,145.13 1762.24,163.04 1772.59,180.96 	"/>
	<polygon class="st2" points="1751.9,325.83 1731.21,325.83 1741.56,307.91 1751.9,290 1762.24,307.91 1772.59,325.83 	"/>
	<polygon class="st2" points="1751.9,470.7 1731.21,470.7 1741.56,452.78 1751.9,434.87 1762.24,452.78 1772.59,470.7 	"/>
	<polygon class="st2" points="1751.9,615.57 1731.21,615.57 1741.56,597.65 1751.9,579.74 1762.24,597.65 1772.59,615.57 	"/>
	<polygon class="st2" points="1751.9,760.44 1731.21,760.44 1741.56,742.52 1751.9,724.61 1762.24,742.52 1772.59,760.44 	"/>
	<polygon class="st2" points="1751.9,905.31 1731.21,905.31 1741.56,887.39 1751.9,869.48 1762.24,887.39 1772.59,905.31 	"/>
	<polygon class="st2" points="1751.9,1050.18 1731.21,1050.18 1741.56,1032.27 1751.9,1014.35 1762.24,1032.27 1772.59,1050.18 	"/>
	<polygon class="st2" points="1893.98,180.96 1873.29,180.96 1883.63,163.04 1893.98,145.13 1904.32,163.04 1914.66,180.96 	"/>
	<polygon class="st2" points="1893.98,325.83 1873.29,325.83 1883.63,307.91 1893.98,290 1904.32,307.91 1914.66,325.83 	"/>
	<polygon class="st2" points="1893.98,470.7 1873.29,470.7 1883.63,452.78 1893.98,434.87 1904.32,452.78 1914.66,470.7 	"/>
	<polygon class="st2" points="1893.98,615.57 1873.29,615.57 1883.63,597.65 1893.98,579.74 1904.32,597.65 1914.66,615.57 	"/>
	<polygon class="st2" points="1893.98,760.44 1873.29,760.44 1883.63,742.52 1893.98,724.61 1904.32,742.52 1914.66,760.44 	"/>
	<polygon class="st2" points="1893.98,905.31 1873.29,905.31 1883.63,887.39 1893.98,869.48 1904.32,887.39 1914.66,905.31 	"/>
	<polygon class="st2" points="1893.98,1050.18 1873.29,1050.18 1883.63,1032.27 1893.98,1014.35 1904.32,1032.27 1914.66,1050.18 	
		"/>
</g>
<g class="st1">
	<polygon class="st2" points="103.05,95.03 82.36,95.03 92.71,77.12 103.05,59.2 113.39,77.12 123.74,95.03 	"/>
	<polygon class="st2" points="103.05,259 82.36,259 92.71,241.09 103.05,223.17 113.39,241.09 123.74,259 	"/>
	<polygon class="st2" points="103.05,403.88 82.36,403.88 92.71,385.96 103.05,368.05 113.39,385.96 123.74,403.88 	"/>
	<polygon class="st2" points="103.05,548.75 82.36,548.75 92.71,530.83 103.05,512.92 113.39,530.83 123.74,548.75 	"/>
	<polygon class="st2" points="31.92,179.94 11.23,179.94 21.57,162.03 31.92,144.11 42.26,162.03 52.6,179.94 	"/>
	<polygon class="st2" points="31.92,324.81 11.23,324.81 21.57,306.9 31.92,288.98 42.26,306.9 52.6,324.81 	"/>
	<polygon class="st2" points="31.92,469.68 11.23,469.68 21.57,451.77 31.92,433.85 42.26,451.77 52.6,469.68 	"/>
	<polygon class="st2" points="31.92,614.55 11.23,614.55 21.57,596.64 31.92,578.72 42.26,596.64 52.6,614.55 	"/>
	<polygon class="st2" points="173.99,179.94 153.31,179.94 163.65,162.03 173.99,144.11 184.34,162.03 194.68,179.94 	"/>
	<polygon class="st2" points="173.99,324.81 153.31,324.81 163.65,306.9 173.99,288.98 184.34,306.9 194.68,324.81 	"/>
	<polygon class="st2" points="173.99,469.68 153.31,469.68 163.65,451.77 173.99,433.85 184.34,451.77 194.68,469.68 	"/>
	<polygon class="st2" points="173.99,614.55 153.31,614.55 163.65,596.64 173.99,578.72 184.34,596.64 194.68,614.55 	"/>
	<polygon class="st2" points="318.6,179.95 297.92,179.95 308.26,162.03 318.6,144.12 328.95,162.03 339.29,179.95 	"/>
	<polygon class="st2" points="318.6,324.81 297.92,324.81 308.26,306.9 318.6,288.98 328.95,306.9 339.29,324.81 	"/>
	<polygon class="st2" points="318.6,469.47 297.92,469.47 308.26,451.55 318.6,433.64 328.95,451.55 339.29,469.47 	"/>
	<polygon class="st2" points="318.6,614.4 297.92,614.4 308.26,596.48 318.6,578.57 328.95,596.48 339.29,614.4 	"/>
	<polygon class="st2" points="247.47,259.01 226.78,259.01 237.13,241.09 247.47,223.18 257.81,241.09 268.16,259.01 	"/>
	<polygon class="st2" points="247.47,403.88 226.78,403.88 237.13,385.96 247.47,368.05 257.81,385.96 268.16,403.88 	"/>
	<polygon class="st2" points="247.47,548.75 226.78,548.75 237.13,530.84 247.47,512.92 257.81,530.84 268.16,548.75 	"/>
	<polygon class="st2" points="247.47,693.62 226.78,693.62 237.13,675.71 247.47,657.79 257.81,675.71 268.16,693.62 	"/>
	<polygon class="st2" points="389.55,259.01 368.86,259.01 379.2,241.09 389.55,223.18 399.89,241.09 410.23,259.01 	"/>
	<polygon class="st2" points="389.55,403.88 368.86,403.88 379.2,385.96 389.55,368.05 399.89,385.96 410.23,403.88 	"/>
	<polygon class="st2" points="389.55,548.75 368.86,548.75 379.2,530.84 389.55,512.92 399.89,530.84 410.23,548.75 	"/>
	<polygon class="st2" points="389.55,693.62 368.86,693.62 379.2,675.71 389.55,657.79 399.89,675.71 410.23,693.62 	"/>
</g>
</svg>
