<?xml version="1.0" encoding="utf-8"?>
<!-- Generator: Adobe Illustrator 26.0.1, SVG Export Plug-In . SVG Version: 6.00 Build 0)  -->
<svg version="1.1" id="Слой_1" xmlns="http://www.w3.org/2000/svg" xmlns:xlink="http://www.w3.org/1999/xlink" x="0px" y="0px"
	 viewBox="0 0 1920 3063.68" style="enable-background:new 0 0 1920 3063.68;" xml:space="preserve">
<style type="text/css">
	.st0{fill:#3C3B6F;}
	.st1{opacity:0.05;}
	.st2{fill:#FFFFFF;}
</style>
<rect x="-5.67" y="-5.67" class="st0" width="1931.34" height="3075.02"/>
<g class="st1">
	<polygon class="st2" points="1607.48,17.15 1586.79,17.15 1597.14,-0.77 1607.48,-18.68 1617.82,-0.77 1628.17,17.15 	"/>
	<polygon class="st2" points="1607.48,181.12 1586.79,181.12 1597.14,163.21 1607.48,145.29 1617.82,163.21 1628.17,181.12 	"/>
	<polygon class="st2" points="1607.48,325.99 1586.79,325.99 1597.14,308.08 1607.48,290.16 1617.82,308.08 1628.17,325.99 	"/>
	<polygon class="st2" points="1607.48,470.86 1586.79,470.86 1597.14,452.95 1607.48,435.03 1617.82,452.95 1628.17,470.86 	"/>
	<polygon class="st2" points="1607.48,615.73 1586.79,615.73 1597.14,597.82 1607.48,579.9 1617.82,597.82 1628.17,615.73 	"/>
	<polygon class="st2" points="1607.48,760.6 1586.79,760.6 1597.14,742.69 1607.48,724.77 1617.82,742.69 1628.17,760.6 	"/>
	<polygon class="st2" points="1607.48,905.47 1586.79,905.47 1597.14,887.56 1607.48,869.64 1617.82,887.56 1628.17,905.47 	"/>
	<polygon class="st2" points="1536.35,102.06 1515.66,102.06 1526.01,84.14 1536.35,66.23 1546.69,84.14 1557.03,102.06 	"/>
	<polygon class="st2" points="1536.35,246.93 1515.66,246.93 1526.01,229.01 1536.35,211.1 1546.69,229.01 1557.03,246.93 	"/>
	<polygon class="st2" points="1536.35,391.8 1515.66,391.8 1526.01,373.88 1536.35,355.97 1546.69,373.88 1557.03,391.8 	"/>
	<polygon class="st2" points="1536.35,536.67 1515.66,536.67 1526.01,518.76 1536.35,500.84 1546.69,518.76 1557.03,536.67 	"/>
	<polygon class="st2" points="1536.35,681.54 1515.66,681.54 1526.01,663.63 1536.35,645.71 1546.69,663.63 1557.03,681.54 	"/>
	<polygon class="st2" points="1536.35,826.41 1515.66,826.41 1526.01,808.5 1536.35,790.58 1546.69,808.5 1557.03,826.41 	"/>
	<polygon class="st2" points="1536.35,971.28 1515.66,971.28 1526.01,953.37 1536.35,935.45 1546.69,953.37 1557.03,971.28 	"/>
	<polygon class="st2" points="1678.42,102.06 1657.74,102.06 1668.08,84.14 1678.42,66.23 1688.77,84.14 1699.11,102.06 	"/>
	<polygon class="st2" points="1678.42,246.93 1657.74,246.93 1668.08,229.01 1678.42,211.1 1688.77,229.01 1699.11,246.93 	"/>
	<polygon class="st2" points="1678.42,391.8 1657.74,391.8 1668.08,373.88 1678.42,355.97 1688.77,373.88 1699.11,391.8 	"/>
	<polygon class="st2" points="1678.42,536.67 1657.74,536.67 1668.08,518.76 1678.42,500.84 1688.77,518.76 1699.11,536.67 	"/>
	<polygon class="st2" points="1678.42,681.54 1657.74,681.54 1668.08,663.63 1678.42,645.71 1688.77,663.63 1699.11,681.54 	"/>
	<polygon class="st2" points="1678.42,826.41 1657.74,826.41 1668.08,808.5 1678.42,790.58 1688.77,808.5 1699.11,826.41 	"/>
	<polygon class="st2" points="1678.42,971.28 1657.74,971.28 1668.08,953.37 1678.42,935.45 1688.77,953.37 1699.11,971.28 	"/>
	<polygon class="st2" points="1823.03,102.06 1802.35,102.06 1812.69,84.15 1823.03,66.23 1833.38,84.15 1843.72,102.06 	"/>
	<polygon class="st2" points="1823.03,246.93 1802.35,246.93 1812.69,229.01 1823.03,211.1 1833.38,229.01 1843.72,246.93 	"/>
	<polygon class="st2" points="1823.03,391.59 1802.35,391.59 1812.69,373.67 1823.03,355.76 1833.38,373.67 1843.72,391.59 	"/>
	<polygon class="st2" points="1823.03,536.51 1802.35,536.51 1812.69,518.6 1823.03,500.68 1833.38,518.6 1843.72,536.51 	"/>
	<polygon class="st2" points="1823.03,681.54 1802.35,681.54 1812.69,663.63 1823.03,645.71 1833.38,663.63 1843.72,681.54 	"/>
	<polygon class="st2" points="1823.03,826.41 1802.35,826.41 1812.69,808.5 1823.03,790.58 1833.38,808.5 1843.72,826.41 	"/>
	<polygon class="st2" points="1823.03,971.28 1802.35,971.28 1812.69,953.37 1823.03,935.45 1833.38,953.37 1843.72,971.28 	"/>
	<polygon class="st2" points="1751.9,181.12 1731.21,181.12 1741.56,163.21 1751.9,145.29 1762.24,163.21 1772.59,181.12 	"/>
	<polygon class="st2" points="1751.9,17.92 1731.21,17.92 1741.56,0 1751.9,-17.92 1762.24,0 1772.59,17.92 	"/>
	<polygon class="st2" points="1751.9,326 1731.21,326 1741.56,308.08 1751.9,290.17 1762.24,308.08 1772.59,326 	"/>
	<polygon class="st2" points="1751.9,470.87 1731.21,470.87 1741.56,452.95 1751.9,435.04 1762.24,452.95 1772.59,470.87 	"/>
	<polygon class="st2" points="1751.9,615.74 1731.21,615.74 1741.56,597.82 1751.9,579.91 1762.24,597.82 1772.59,615.74 	"/>
	<polygon class="st2" points="1751.9,760.61 1731.21,760.61 1741.56,742.69 1751.9,724.78 1762.24,742.69 1772.59,760.61 	"/>
	<polygon class="st2" points="1751.9,905.48 1731.21,905.48 1741.56,887.56 1751.9,869.65 1762.24,887.56 1772.59,905.48 	"/>
	<polygon class="st2" points="1751.9,1050.35 1731.21,1050.35 1741.56,1032.43 1751.9,1014.52 1762.24,1032.43 1772.59,1050.35 	"/>
	<polygon class="st2" points="1893.98,181.12 1873.29,181.12 1883.63,163.21 1893.98,145.29 1904.32,163.21 1914.66,181.12 	"/>
	<polygon class="st2" points="1893.98,17.15 1873.29,17.15 1883.63,-0.77 1893.98,-18.68 1904.32,-0.77 1914.66,17.15 	"/>
	<polygon class="st2" points="1893.98,326 1873.29,326 1883.63,308.08 1893.98,290.17 1904.32,308.08 1914.66,326 	"/>
	<polygon class="st2" points="1893.98,470.87 1873.29,470.87 1883.63,452.95 1893.98,435.04 1904.32,452.95 1914.66,470.87 	"/>
	<polygon class="st2" points="1893.98,615.74 1873.29,615.74 1883.63,597.82 1893.98,579.91 1904.32,597.82 1914.66,615.74 	"/>
	<polygon class="st2" points="1893.98,760.61 1873.29,760.61 1883.63,742.69 1893.98,724.78 1904.32,742.69 1914.66,760.61 	"/>
	<polygon class="st2" points="1893.98,905.48 1873.29,905.48 1883.63,887.56 1893.98,869.65 1904.32,887.56 1914.66,905.48 	"/>
	<polygon class="st2" points="1893.98,1050.35 1873.29,1050.35 1883.63,1032.43 1893.98,1014.52 1904.32,1032.43 1914.66,1050.35 	
		"/>
</g>
<g class="st1">
	<polygon class="st2" points="100.76,81.44 80.07,81.44 90.41,63.53 100.76,45.61 111.1,63.53 121.44,81.44 	"/>
	<polygon class="st2" points="100.76,245.42 80.07,245.42 90.41,227.5 100.76,209.59 111.1,227.5 121.44,245.42 	"/>
	<polygon class="st2" points="100.76,390.29 80.07,390.29 90.41,372.37 100.76,354.46 111.1,372.37 121.44,390.29 	"/>
	<polygon class="st2" points="100.76,535.16 80.07,535.16 90.41,517.24 100.76,499.33 111.1,517.24 121.44,535.16 	"/>
	<polygon class="st2" points="29.62,166.35 8.94,166.35 19.28,148.44 29.62,130.52 39.97,148.44 50.31,166.35 	"/>
	<polygon class="st2" points="29.62,311.22 8.94,311.22 19.28,293.31 29.62,275.39 39.97,293.31 50.31,311.22 	"/>
	<polygon class="st2" points="29.62,456.1 8.94,456.1 19.28,438.18 29.62,420.27 39.97,438.18 50.31,456.1 	"/>
	<polygon class="st2" points="29.62,600.97 8.94,600.97 19.28,583.05 29.62,565.14 39.97,583.05 50.31,600.97 	"/>
	<polygon class="st2" points="171.7,166.35 151.01,166.35 161.36,148.44 171.7,130.52 182.04,148.44 192.39,166.35 	"/>
	<polygon class="st2" points="171.7,311.22 151.01,311.22 161.36,293.31 171.7,275.39 182.04,293.31 192.39,311.22 	"/>
	<polygon class="st2" points="171.7,456.1 151.01,456.1 161.36,438.18 171.7,420.27 182.04,438.18 192.39,456.1 	"/>
	<polygon class="st2" points="171.7,600.97 151.01,600.97 161.36,583.05 171.7,565.14 182.04,583.05 192.39,600.97 	"/>
	<polygon class="st2" points="316.31,166.36 295.62,166.36 305.97,148.44 316.31,130.53 326.65,148.44 337,166.36 	"/>
	<polygon class="st2" points="316.31,311.22 295.62,311.22 305.97,293.31 316.31,275.39 326.65,293.31 337,311.22 	"/>
	<polygon class="st2" points="316.31,455.88 295.62,455.88 305.97,437.97 316.31,420.05 326.65,437.97 337,455.88 	"/>
	<polygon class="st2" points="316.31,600.81 295.62,600.81 305.97,582.89 316.31,564.98 326.65,582.89 337,600.81 	"/>
	<polygon class="st2" points="245.18,245.42 224.49,245.42 234.83,227.51 245.18,209.59 255.52,227.51 265.86,245.42 	"/>
	<polygon class="st2" points="245.18,390.29 224.49,390.29 234.83,372.38 245.18,354.46 255.52,372.38 265.86,390.29 	"/>
	<polygon class="st2" points="245.18,535.16 224.49,535.16 234.83,517.25 245.18,499.33 255.52,517.25 265.86,535.16 	"/>
	<polygon class="st2" points="245.18,680.03 224.49,680.03 234.83,662.12 245.18,644.2 255.52,662.12 265.86,680.03 	"/>
	<polygon class="st2" points="387.25,245.42 366.57,245.42 376.91,227.51 387.25,209.59 397.6,227.51 407.94,245.42 	"/>
	<polygon class="st2" points="387.25,390.29 366.57,390.29 376.91,372.38 387.25,354.46 397.6,372.38 407.94,390.29 	"/>
	<polygon class="st2" points="387.25,535.16 366.57,535.16 376.91,517.25 387.25,499.33 397.6,517.25 407.94,535.16 	"/>
	<polygon class="st2" points="387.25,680.03 366.57,680.03 376.91,662.12 387.25,644.2 397.6,662.12 407.94,680.03 	"/>
</g>
<g class="st1">
	<polygon class="st2" points="100.76,2438.22 80.07,2438.22 90.41,2420.31 100.76,2402.39 111.1,2420.31 121.44,2438.22 	"/>
	<polygon class="st2" points="100.76,2602.19 80.07,2602.19 90.41,2584.28 100.76,2566.36 111.1,2584.28 121.44,2602.19 	"/>
	<polygon class="st2" points="100.76,2747.07 80.07,2747.07 90.41,2729.15 100.76,2711.24 111.1,2729.15 121.44,2747.07 	"/>
	<polygon class="st2" points="100.76,2891.94 80.07,2891.94 90.41,2874.02 100.76,2856.11 111.1,2874.02 121.44,2891.94 	"/>
	<polygon class="st2" points="29.62,2523.13 8.94,2523.13 19.28,2505.22 29.62,2487.3 39.97,2505.22 50.31,2523.13 	"/>
	<polygon class="st2" points="29.62,2668 8.94,2668 19.28,2650.09 29.62,2632.17 39.97,2650.09 50.31,2668 	"/>
	<polygon class="st2" points="29.62,2812.87 8.94,2812.87 19.28,2794.96 29.62,2777.04 39.97,2794.96 50.31,2812.87 	"/>
	<polygon class="st2" points="29.62,2957.74 8.94,2957.74 19.28,2939.83 29.62,2921.91 39.97,2939.83 50.31,2957.74 	"/>
	<polygon class="st2" points="171.7,2523.13 151.01,2523.13 161.36,2505.22 171.7,2487.3 182.04,2505.22 192.39,2523.13 	"/>
	<polygon class="st2" points="171.7,2668 151.01,2668 161.36,2650.09 171.7,2632.17 182.04,2650.09 192.39,2668 	"/>
	<polygon class="st2" points="171.7,2812.87 151.01,2812.87 161.36,2794.96 171.7,2777.04 182.04,2794.96 192.39,2812.87 	"/>
	<polygon class="st2" points="171.7,2957.74 151.01,2957.74 161.36,2939.83 171.7,2921.91 182.04,2939.83 192.39,2957.74 	"/>
	<polygon class="st2" points="316.31,2523.14 295.62,2523.14 305.97,2505.22 316.31,2487.31 326.65,2505.22 337,2523.14 	"/>
	<polygon class="st2" points="316.31,2668 295.62,2668 305.97,2650.09 316.31,2632.17 326.65,2650.09 337,2668 	"/>
	<polygon class="st2" points="316.31,2812.66 295.62,2812.66 305.97,2794.74 316.31,2776.83 326.65,2794.74 337,2812.66 	"/>
	<polygon class="st2" points="316.31,2957.59 295.62,2957.59 305.97,2939.67 316.31,2921.76 326.65,2939.67 337,2957.59 	"/>
	<polygon class="st2" points="245.18,2602.2 224.49,2602.2 234.83,2584.28 245.18,2566.37 255.52,2584.28 265.86,2602.2 	"/>
	<polygon class="st2" points="245.18,2747.07 224.49,2747.07 234.83,2729.15 245.18,2711.24 255.52,2729.15 265.86,2747.07 	"/>
	<polygon class="st2" points="245.18,2891.94 224.49,2891.94 234.83,2874.03 245.18,2856.11 255.52,2874.03 265.86,2891.94 	"/>
	<polygon class="st2" points="245.18,3036.81 224.49,3036.81 234.83,3018.9 245.18,3000.98 255.52,3018.9 265.86,3036.81 	"/>
	<polygon class="st2" points="387.25,2602.2 366.57,2602.2 376.91,2584.28 387.25,2566.37 397.6,2584.28 407.94,2602.2 	"/>
	<polygon class="st2" points="387.25,2747.07 366.57,2747.07 376.91,2729.15 387.25,2711.24 397.6,2729.15 407.94,2747.07 	"/>
	<polygon class="st2" points="387.25,2891.94 366.57,2891.94 376.91,2874.03 387.25,2856.11 397.6,2874.03 407.94,2891.94 	"/>
	<polygon class="st2" points="387.25,3036.81 366.57,3036.81 376.91,3018.9 387.25,3000.98 397.6,3018.9 407.94,3036.81 	"/>
</g>
<g class="st1">
	<polygon class="st2" points="433.3,1261.3 412.62,1261.3 422.96,1243.39 433.3,1225.47 443.65,1243.39 453.99,1261.3 	"/>
	<polygon class="st2" points="433.3,1425.27 412.62,1425.27 422.96,1407.36 433.3,1389.44 443.65,1407.36 453.99,1425.27 	"/>
	<polygon class="st2" points="433.3,1570.14 412.62,1570.14 422.96,1552.23 433.3,1534.31 443.65,1552.23 453.99,1570.14 	"/>
	<polygon class="st2" points="433.3,1715.02 412.62,1715.02 422.96,1697.1 433.3,1679.19 443.65,1697.1 453.99,1715.02 	"/>
	<polygon class="st2" points="362.17,1346.21 341.48,1346.21 351.83,1328.3 362.17,1310.38 372.51,1328.3 382.86,1346.21 	"/>
	<polygon class="st2" points="362.17,1491.08 341.48,1491.08 351.83,1473.17 362.17,1455.25 372.51,1473.17 382.86,1491.08 	"/>
	<polygon class="st2" points="362.17,1635.95 341.48,1635.95 351.83,1618.04 362.17,1600.12 372.51,1618.04 382.86,1635.95 	"/>
	<polygon class="st2" points="362.17,1780.82 341.48,1780.82 351.83,1762.91 362.17,1744.99 372.51,1762.91 382.86,1780.82 	"/>
	<polygon class="st2" points="504.25,1346.21 483.56,1346.21 493.9,1328.3 504.25,1310.38 514.59,1328.3 524.93,1346.21 	"/>
	<polygon class="st2" points="504.25,1491.08 483.56,1491.08 493.9,1473.17 504.25,1455.25 514.59,1473.17 524.93,1491.08 	"/>
	<polygon class="st2" points="504.25,1635.95 483.56,1635.95 493.9,1618.04 504.25,1600.12 514.59,1618.04 524.93,1635.95 	"/>
	<polygon class="st2" points="504.25,1780.82 483.56,1780.82 493.9,1762.91 504.25,1744.99 514.59,1762.91 524.93,1780.82 	"/>
	<polygon class="st2" points="648.85,1346.22 628.17,1346.22 638.51,1328.3 648.85,1310.39 659.2,1328.3 669.54,1346.22 	"/>
	<polygon class="st2" points="648.85,1491.08 628.17,1491.08 638.51,1473.17 648.85,1455.25 659.2,1473.17 669.54,1491.08 	"/>
	<polygon class="st2" points="648.85,1635.74 628.17,1635.74 638.51,1617.82 648.85,1599.91 659.2,1617.82 669.54,1635.74 	"/>
	<polygon class="st2" points="648.85,1780.67 628.17,1780.67 638.51,1762.75 648.85,1744.84 659.2,1762.75 669.54,1780.67 	"/>
	<polygon class="st2" points="577.72,1425.28 557.04,1425.28 567.38,1407.36 577.72,1389.45 588.07,1407.36 598.41,1425.28 	"/>
	<polygon class="st2" points="577.72,1570.15 557.04,1570.15 567.38,1552.23 577.72,1534.32 588.07,1552.23 598.41,1570.15 	"/>
	<polygon class="st2" points="577.72,1715.02 557.04,1715.02 567.38,1697.1 577.72,1679.19 588.07,1697.1 598.41,1715.02 	"/>
	<polygon class="st2" points="577.72,1859.89 557.04,1859.89 567.38,1841.98 577.72,1824.06 588.07,1841.98 598.41,1859.89 	"/>
	<polygon class="st2" points="719.8,1425.28 699.11,1425.28 709.45,1407.36 719.8,1389.45 730.14,1407.36 740.48,1425.28 	"/>
	<polygon class="st2" points="719.8,1570.15 699.11,1570.15 709.45,1552.23 719.8,1534.32 730.14,1552.23 740.48,1570.15 	"/>
	<polygon class="st2" points="719.8,1715.02 699.11,1715.02 709.45,1697.1 719.8,1679.19 730.14,1697.1 740.48,1715.02 	"/>
	<polygon class="st2" points="719.8,1859.89 699.11,1859.89 709.45,1841.98 719.8,1824.06 730.14,1841.98 740.48,1859.89 	"/>
</g>
<g class="st1">
	<polygon class="st2" points="1607.48,1050.35 1586.79,1050.35 1597.14,1032.43 1607.48,1014.52 1617.82,1032.43 1628.17,1050.35 	
		"/>
	<polygon class="st2" points="1607.48,1214.32 1586.79,1214.32 1597.14,1196.41 1607.48,1178.49 1617.82,1196.41 1628.17,1214.32 	
		"/>
	<polygon class="st2" points="1607.48,1359.19 1586.79,1359.19 1597.14,1341.28 1607.48,1323.36 1617.82,1341.28 1628.17,1359.19 	
		"/>
	<polygon class="st2" points="1607.48,1504.06 1586.79,1504.06 1597.14,1486.15 1607.48,1468.23 1617.82,1486.15 1628.17,1504.06 	
		"/>
	<polygon class="st2" points="1607.48,1648.93 1586.79,1648.93 1597.14,1631.02 1607.48,1613.1 1617.82,1631.02 1628.17,1648.93 	
		"/>
	<polygon class="st2" points="1607.48,1793.8 1586.79,1793.8 1597.14,1775.89 1607.48,1757.97 1617.82,1775.89 1628.17,1793.8 	"/>
	<polygon class="st2" points="1607.48,1938.67 1586.79,1938.67 1597.14,1920.76 1607.48,1902.84 1617.82,1920.76 1628.17,1938.67 	
		"/>
	<polygon class="st2" points="1536.35,1135.26 1515.66,1135.26 1526.01,1117.34 1536.35,1099.43 1546.69,1117.34 1557.03,1135.26 	
		"/>
	<polygon class="st2" points="1536.35,1280.13 1515.66,1280.13 1526.01,1262.21 1536.35,1244.3 1546.69,1262.21 1557.03,1280.13 	
		"/>
	<polygon class="st2" points="1536.35,1425 1515.66,1425 1526.01,1407.09 1536.35,1389.17 1546.69,1407.09 1557.03,1425 	"/>
	<polygon class="st2" points="1536.35,1569.87 1515.66,1569.87 1526.01,1551.96 1536.35,1534.04 1546.69,1551.96 1557.03,1569.87 	
		"/>
	<polygon class="st2" points="1536.35,1714.74 1515.66,1714.74 1526.01,1696.83 1536.35,1678.91 1546.69,1696.83 1557.03,1714.74 	
		"/>
	<polygon class="st2" points="1536.35,1859.61 1515.66,1859.61 1526.01,1841.7 1536.35,1823.78 1546.69,1841.7 1557.03,1859.61 	"/>
	<polygon class="st2" points="1536.35,2004.48 1515.66,2004.48 1526.01,1986.57 1536.35,1968.65 1546.69,1986.57 1557.03,2004.48 	
		"/>
	<polygon class="st2" points="1678.42,1135.26 1657.74,1135.26 1668.08,1117.34 1678.42,1099.43 1688.77,1117.34 1699.11,1135.26 	
		"/>
	<polygon class="st2" points="1678.42,1280.13 1657.74,1280.13 1668.08,1262.21 1678.42,1244.3 1688.77,1262.21 1699.11,1280.13 	
		"/>
	<polygon class="st2" points="1678.42,1425 1657.74,1425 1668.08,1407.09 1678.42,1389.17 1688.77,1407.09 1699.11,1425 	"/>
	<polygon class="st2" points="1678.42,1569.87 1657.74,1569.87 1668.08,1551.96 1678.42,1534.04 1688.77,1551.96 1699.11,1569.87 	
		"/>
	<polygon class="st2" points="1678.42,1714.74 1657.74,1714.74 1668.08,1696.83 1678.42,1678.91 1688.77,1696.83 1699.11,1714.74 	
		"/>
	<polygon class="st2" points="1678.42,1859.61 1657.74,1859.61 1668.08,1841.7 1678.42,1823.78 1688.77,1841.7 1699.11,1859.61 	"/>
	<polygon class="st2" points="1678.42,2004.48 1657.74,2004.48 1668.08,1986.57 1678.42,1968.65 1688.77,1986.57 1699.11,2004.48 	
		"/>
	<polygon class="st2" points="1823.03,1135.26 1802.35,1135.26 1812.69,1117.35 1823.03,1099.43 1833.38,1117.35 1843.72,1135.26 	
		"/>
	<polygon class="st2" points="1823.03,1280.13 1802.35,1280.13 1812.69,1262.21 1823.03,1244.3 1833.38,1262.21 1843.72,1280.13 	
		"/>
	<polygon class="st2" points="1823.03,1424.79 1802.35,1424.79 1812.69,1406.87 1823.03,1388.96 1833.38,1406.87 1843.72,1424.79 	
		"/>
	<polygon class="st2" points="1823.03,1569.71 1802.35,1569.71 1812.69,1551.8 1823.03,1533.88 1833.38,1551.8 1843.72,1569.71 	"/>
	<polygon class="st2" points="1823.03,1714.74 1802.35,1714.74 1812.69,1696.83 1823.03,1678.91 1833.38,1696.83 1843.72,1714.74 	
		"/>
	<polygon class="st2" points="1823.03,1859.61 1802.35,1859.61 1812.69,1841.7 1823.03,1823.78 1833.38,1841.7 1843.72,1859.61 	"/>
	<polygon class="st2" points="1823.03,2004.48 1802.35,2004.48 1812.69,1986.57 1823.03,1968.65 1833.38,1986.57 1843.72,2004.48 	
		"/>
	<polygon class="st2" points="1751.9,1214.33 1731.21,1214.33 1741.56,1196.41 1751.9,1178.49 1762.24,1196.41 1772.59,1214.33 	"/>
	<polygon class="st2" points="1751.9,1359.2 1731.21,1359.2 1741.56,1341.28 1751.9,1323.37 1762.24,1341.28 1772.59,1359.2 	"/>
	<polygon class="st2" points="1751.9,1504.07 1731.21,1504.07 1741.56,1486.15 1751.9,1468.24 1762.24,1486.15 1772.59,1504.07 	"/>
	<polygon class="st2" points="1751.9,1648.94 1731.21,1648.94 1741.56,1631.02 1751.9,1613.11 1762.24,1631.02 1772.59,1648.94 	"/>
	<polygon class="st2" points="1751.9,1793.81 1731.21,1793.81 1741.56,1775.89 1751.9,1757.98 1762.24,1775.89 1772.59,1793.81 	"/>
	<polygon class="st2" points="1751.9,1938.68 1731.21,1938.68 1741.56,1920.76 1751.9,1902.85 1762.24,1920.76 1772.59,1938.68 	"/>
	<polygon class="st2" points="1751.9,2083.55 1731.21,2083.55 1741.56,2065.63 1751.9,2047.72 1762.24,2065.63 1772.59,2083.55 	"/>
	<polygon class="st2" points="1893.98,1214.33 1873.29,1214.33 1883.63,1196.41 1893.98,1178.49 1904.32,1196.41 1914.66,1214.33 	
		"/>
	<polygon class="st2" points="1893.98,1359.2 1873.29,1359.2 1883.63,1341.28 1893.98,1323.37 1904.32,1341.28 1914.66,1359.2 	"/>
	<polygon class="st2" points="1893.98,1504.07 1873.29,1504.07 1883.63,1486.15 1893.98,1468.24 1904.32,1486.15 1914.66,1504.07 	
		"/>
	<polygon class="st2" points="1893.98,1648.94 1873.29,1648.94 1883.63,1631.02 1893.98,1613.11 1904.32,1631.02 1914.66,1648.94 	
		"/>
	<polygon class="st2" points="1893.98,1793.81 1873.29,1793.81 1883.63,1775.89 1893.98,1757.98 1904.32,1775.89 1914.66,1793.81 	
		"/>
	<polygon class="st2" points="1893.98,1938.68 1873.29,1938.68 1883.63,1920.76 1893.98,1902.85 1904.32,1920.76 1914.66,1938.68 	
		"/>
	<polygon class="st2" points="1893.98,2083.55 1873.29,2083.55 1883.63,2065.63 1893.98,2047.72 1904.32,2065.63 1914.66,2083.55 	
		"/>
</g>
<g class="st1">
	<polygon class="st2" points="1607.48,2083.55 1586.79,2083.55 1597.14,2065.63 1607.48,2047.72 1617.82,2065.63 1628.17,2083.55 	
		"/>
	<polygon class="st2" points="1607.48,2247.52 1586.79,2247.52 1597.14,2229.61 1607.48,2211.69 1617.82,2229.61 1628.17,2247.52 	
		"/>
	<polygon class="st2" points="1607.48,2392.39 1586.79,2392.39 1597.14,2374.48 1607.48,2356.56 1617.82,2374.48 1628.17,2392.39 	
		"/>
	<polygon class="st2" points="1607.48,2537.26 1586.79,2537.26 1597.14,2519.35 1607.48,2501.43 1617.82,2519.35 1628.17,2537.26 	
		"/>
	<polygon class="st2" points="1607.48,2682.13 1586.79,2682.13 1597.14,2664.22 1607.48,2646.3 1617.82,2664.22 1628.17,2682.13 	
		"/>
	<polygon class="st2" points="1607.48,2827 1586.79,2827 1597.14,2809.09 1607.48,2791.17 1617.82,2809.09 1628.17,2827 	"/>
	<polygon class="st2" points="1607.48,2971.87 1586.79,2971.87 1597.14,2953.96 1607.48,2936.04 1617.82,2953.96 1628.17,2971.87 	
		"/>
	<polygon class="st2" points="1536.35,2168.46 1515.66,2168.46 1526.01,2150.54 1536.35,2132.63 1546.69,2150.54 1557.03,2168.46 	
		"/>
	<polygon class="st2" points="1536.35,2313.33 1515.66,2313.33 1526.01,2295.41 1536.35,2277.5 1546.69,2295.41 1557.03,2313.33 	
		"/>
	<polygon class="st2" points="1536.35,2458.2 1515.66,2458.2 1526.01,2440.29 1536.35,2422.37 1546.69,2440.29 1557.03,2458.2 	"/>
	<polygon class="st2" points="1536.35,2603.07 1515.66,2603.07 1526.01,2585.16 1536.35,2567.24 1546.69,2585.16 1557.03,2603.07 	
		"/>
	<polygon class="st2" points="1536.35,2747.94 1515.66,2747.94 1526.01,2730.03 1536.35,2712.11 1546.69,2730.03 1557.03,2747.94 	
		"/>
	<polygon class="st2" points="1536.35,2892.81 1515.66,2892.81 1526.01,2874.9 1536.35,2856.98 1546.69,2874.9 1557.03,2892.81 	"/>
	<polygon class="st2" points="1536.35,3037.68 1515.66,3037.68 1526.01,3019.77 1536.35,3001.85 1546.69,3019.77 1557.03,3037.68 	
		"/>
	<polygon class="st2" points="1678.42,2168.46 1657.74,2168.46 1668.08,2150.54 1678.42,2132.63 1688.77,2150.54 1699.11,2168.46 	
		"/>
	<polygon class="st2" points="1678.42,2313.33 1657.74,2313.33 1668.08,2295.41 1678.42,2277.5 1688.77,2295.41 1699.11,2313.33 	
		"/>
	<polygon class="st2" points="1678.42,2458.2 1657.74,2458.2 1668.08,2440.29 1678.42,2422.37 1688.77,2440.29 1699.11,2458.2 	"/>
	<polygon class="st2" points="1678.42,2603.07 1657.74,2603.07 1668.08,2585.16 1678.42,2567.24 1688.77,2585.16 1699.11,2603.07 	
		"/>
	<polygon class="st2" points="1678.42,2747.94 1657.74,2747.94 1668.08,2730.03 1678.42,2712.11 1688.77,2730.03 1699.11,2747.94 	
		"/>
	<polygon class="st2" points="1678.42,2892.81 1657.74,2892.81 1668.08,2874.9 1678.42,2856.98 1688.77,2874.9 1699.11,2892.81 	"/>
	<polygon class="st2" points="1678.42,3037.68 1657.74,3037.68 1668.08,3019.77 1678.42,3001.85 1688.77,3019.77 1699.11,3037.68 	
		"/>
	<polygon class="st2" points="1823.03,2168.46 1802.35,2168.46 1812.69,2150.55 1823.03,2132.63 1833.38,2150.55 1843.72,2168.46 	
		"/>
	<polygon class="st2" points="1823.03,2313.33 1802.35,2313.33 1812.69,2295.41 1823.03,2277.5 1833.38,2295.41 1843.72,2313.33 	
		"/>
	<polygon class="st2" points="1823.03,2457.99 1802.35,2457.99 1812.69,2440.07 1823.03,2422.16 1833.38,2440.07 1843.72,2457.99 	
		"/>
	<polygon class="st2" points="1823.03,2602.92 1802.35,2602.92 1812.69,2585 1823.03,2567.08 1833.38,2585 1843.72,2602.92 	"/>
	<polygon class="st2" points="1823.03,2747.94 1802.35,2747.94 1812.69,2730.03 1823.03,2712.11 1833.38,2730.03 1843.72,2747.94 	
		"/>
	<polygon class="st2" points="1823.03,2892.81 1802.35,2892.81 1812.69,2874.9 1823.03,2856.98 1833.38,2874.9 1843.72,2892.81 	"/>
	<polygon class="st2" points="1823.03,3037.68 1802.35,3037.68 1812.69,3019.77 1823.03,3001.85 1833.38,3019.77 1843.72,3037.68 	
		"/>
	<polygon class="st2" points="1751.9,2247.53 1731.21,2247.53 1741.56,2229.61 1751.9,2211.7 1762.24,2229.61 1772.59,2247.53 	"/>
	<polygon class="st2" points="1751.9,2392.4 1731.21,2392.4 1741.56,2374.48 1751.9,2356.57 1762.24,2374.48 1772.59,2392.4 	"/>
	<polygon class="st2" points="1751.9,2537.27 1731.21,2537.27 1741.56,2519.35 1751.9,2501.44 1762.24,2519.35 1772.59,2537.27 	"/>
	<polygon class="st2" points="1751.9,2682.14 1731.21,2682.14 1741.56,2664.22 1751.9,2646.31 1762.24,2664.22 1772.59,2682.14 	"/>
	<polygon class="st2" points="1751.9,2827.01 1731.21,2827.01 1741.56,2809.09 1751.9,2791.18 1762.24,2809.09 1772.59,2827.01 	"/>
	<polygon class="st2" points="1751.9,2971.88 1731.21,2971.88 1741.56,2953.96 1751.9,2936.05 1762.24,2953.96 1772.59,2971.88 	"/>
	<polygon class="st2" points="1751.9,3116.75 1731.21,3116.75 1741.56,3098.84 1751.9,3080.92 1762.24,3098.84 1772.59,3116.75 	"/>
	<polygon class="st2" points="1893.98,2247.53 1873.29,2247.53 1883.63,2229.61 1893.98,2211.7 1904.32,2229.61 1914.66,2247.53 	
		"/>
	<polygon class="st2" points="1893.98,2392.4 1873.29,2392.4 1883.63,2374.48 1893.98,2356.57 1904.32,2374.48 1914.66,2392.4 	"/>
	<polygon class="st2" points="1893.98,2537.27 1873.29,2537.27 1883.63,2519.35 1893.98,2501.44 1904.32,2519.35 1914.66,2537.27 	
		"/>
	<polygon class="st2" points="1893.98,2682.14 1873.29,2682.14 1883.63,2664.22 1893.98,2646.31 1904.32,2664.22 1914.66,2682.14 	
		"/>
	<polygon class="st2" points="1893.98,2827.01 1873.29,2827.01 1883.63,2809.09 1893.98,2791.18 1904.32,2809.09 1914.66,2827.01 	
		"/>
	<polygon class="st2" points="1893.98,2971.88 1873.29,2971.88 1883.63,2953.96 1893.98,2936.05 1904.32,2953.96 1914.66,2971.88 	
		"/>
	<polygon class="st2" points="1893.98,3116.75 1873.29,3116.75 1883.63,3098.84 1893.98,3080.92 1904.32,3098.84 1914.66,3116.75 	
		"/>
</g>
</svg>
