<?xml version="1.0" encoding="utf-8"?>
<!-- Generator: Adobe Illustrator 26.0.1, SVG Export Plug-In . SVG Version: 6.00 Build 0)  -->
<svg version="1.1" id="Слой_1" xmlns="http://www.w3.org/2000/svg" xmlns:xlink="http://www.w3.org/1999/xlink" x="0px" y="0px"
	 viewBox="0 0 484.3 713.67" style="enable-background:new 0 0 484.3 713.67;" xml:space="preserve">
<style type="text/css">
	.st0{opacity:0.05;}
	.st1{fill:#FFFFFF;}
</style>
<g class="st0">
	<polygon class="st1" points="137.5,63.53 116.81,63.53 127.15,45.61 137.5,27.7 147.84,45.61 158.18,63.53 	"/>
	<polygon class="st1" points="137.5,227.5 116.81,227.5 127.15,209.59 137.5,191.67 147.84,209.59 158.18,227.5 	"/>
	<polygon class="st1" points="137.5,372.37 116.81,372.37 127.15,354.46 137.5,336.54 147.84,354.46 158.18,372.37 	"/>
	<polygon class="st1" points="137.5,517.24 116.81,517.24 127.15,499.33 137.5,481.41 147.84,499.33 158.18,517.24 	"/>
	<polygon class="st1" points="66.36,148.44 45.68,148.44 56.02,130.52 66.36,112.61 76.71,130.52 87.05,148.44 	"/>
	<polygon class="st1" points="66.36,293.31 45.68,293.31 56.02,275.39 66.36,257.48 76.71,275.39 87.05,293.31 	"/>
	<polygon class="st1" points="66.36,438.18 45.68,438.18 56.02,420.27 66.36,402.35 76.71,420.27 87.05,438.18 	"/>
	<polygon class="st1" points="66.36,583.05 45.68,583.05 56.02,565.14 66.36,547.22 76.71,565.14 87.05,583.05 	"/>
	<polygon class="st1" points="208.44,148.44 187.75,148.44 198.1,130.52 208.44,112.61 218.78,130.52 229.13,148.44 	"/>
	<polygon class="st1" points="208.44,293.31 187.75,293.31 198.1,275.39 208.44,257.48 218.78,275.39 229.13,293.31 	"/>
	<polygon class="st1" points="208.44,438.18 187.75,438.18 198.1,420.27 208.44,402.35 218.78,420.27 229.13,438.18 	"/>
	<polygon class="st1" points="208.44,583.05 187.75,583.05 198.1,565.14 208.44,547.22 218.78,565.14 229.13,583.05 	"/>
	<polygon class="st1" points="353.05,148.44 332.36,148.44 342.71,130.53 353.05,112.61 363.39,130.53 373.73,148.44 	"/>
	<polygon class="st1" points="353.05,293.31 332.36,293.31 342.71,275.39 353.05,257.48 363.39,275.39 373.73,293.31 	"/>
	<polygon class="st1" points="353.05,437.97 332.36,437.97 342.71,420.05 353.05,402.14 363.39,420.05 373.73,437.97 	"/>
	<polygon class="st1" points="353.05,582.89 332.36,582.89 342.71,564.98 353.05,547.06 363.39,564.98 373.73,582.89 	"/>
	<polygon class="st1" points="281.92,227.51 261.23,227.51 271.57,209.59 281.92,191.67 292.26,209.59 302.6,227.51 	"/>
	<polygon class="st1" points="281.92,372.38 261.23,372.38 271.57,354.46 281.92,336.55 292.26,354.46 302.6,372.38 	"/>
	<polygon class="st1" points="281.92,517.25 261.23,517.25 271.57,499.33 281.92,481.42 292.26,499.33 302.6,517.25 	"/>
	<polygon class="st1" points="281.92,662.12 261.23,662.12 271.57,644.2 281.92,626.29 292.26,644.2 302.6,662.12 	"/>
	<polygon class="st1" points="423.99,227.51 403.3,227.51 413.65,209.59 423.99,191.67 434.33,209.59 444.68,227.51 	"/>
	<polygon class="st1" points="423.99,372.38 403.3,372.38 413.65,354.46 423.99,336.55 434.33,354.46 444.68,372.38 	"/>
	<polygon class="st1" points="423.99,517.25 403.3,517.25 413.65,499.33 423.99,481.42 434.33,499.33 444.68,517.25 	"/>
	<polygon class="st1" points="423.99,662.12 403.3,662.12 413.65,644.2 423.99,626.29 434.33,644.2 444.68,662.12 	"/>
</g>
</svg>
