<?xml version="1.0" encoding="utf-8"?>
<!-- Generator: Adobe Illustrator 26.0.1, SVG Export Plug-In . SVG Version: 6.00 Build 0)  -->
<svg version="1.1" id="Слой_1" xmlns="http://www.w3.org/2000/svg" xmlns:xlink="http://www.w3.org/1999/xlink" x="0px" y="0px"
	 viewBox="0 0 1482.65 145" style="enable-background:new 0 0 1482.65 145;" xml:space="preserve">
<g>
	<g>
		<path d="M201.85,111.24c-3.32,1.74-10.68,4.06-20.06,4.06c-21.07,0-34.77-14.36-34.77-35.83c0-21.61,14.72-37.28,37.51-37.28
			c7.5,0,14.14,1.89,17.6,3.63l-2.89,9.86c-3.03-1.74-7.79-3.34-14.72-3.34c-16.02,0-24.67,11.89-24.67,26.54
			c0,16.25,10.39,26.25,24.24,26.25c7.21,0,11.98-1.89,15.58-3.48L201.85,111.24z"/>
		<path d="M222.92,81.07c0.29,17.26,11.25,24.37,23.95,24.37c9.09,0,14.57-1.6,19.33-3.63l2.16,9.14
			c-4.47,2.03-12.12,4.35-23.23,4.35c-21.5,0-34.34-14.21-34.34-35.39s12.41-37.86,32.75-37.86c22.8,0,28.86,20.16,28.86,33.07
			c0,2.61-0.29,4.64-0.43,5.95H222.92z M260.14,71.93c0.14-8.12-3.32-20.74-17.6-20.74c-12.84,0-18.47,11.89-19.48,20.74H260.14z"/>
		<path d="M293.62,43.65l9.96,15.08c2.6,3.92,4.76,7.54,7.07,11.46h0.43c2.31-4.21,4.62-7.83,6.93-11.6l9.81-14.94h13.71
			l-23.81,33.94l24.53,36.26h-14.43l-10.24-15.81c-2.74-4.06-5.05-7.98-7.5-12.18h-0.29c-2.31,4.21-4.76,7.98-7.36,12.18
			l-10.1,15.81h-14l24.82-35.83l-23.66-34.38H293.62z"/>
		<path d="M351.48,106.31c0-5.37,3.61-9.14,8.66-9.14s8.51,3.77,8.51,9.14c0,5.22-3.32,9.14-8.66,9.14
			C354.94,115.45,351.48,111.53,351.48,106.31z"/>
		<path d="M382.64,100.8c3.75,2.47,10.39,5.08,16.74,5.08c9.23,0,13.56-4.64,13.56-10.44c0-6.09-3.61-9.43-12.99-12.91
			c-12.55-4.5-18.47-11.46-18.47-19.87c0-11.31,9.09-20.6,24.1-20.6c7.07,0,13.27,2.03,17.17,4.35l-3.17,9.28
			c-2.74-1.74-7.79-4.06-14.28-4.06c-7.5,0-11.69,4.35-11.69,9.57c0,5.8,4.18,8.41,13.27,11.89c12.12,4.64,18.32,10.73,18.32,21.18
			c0,12.33-9.52,21.03-26.12,21.03c-7.65,0-14.72-1.89-19.62-4.79L382.64,100.8z"/>
		<path d="M448.58,81.07c0.29,17.26,11.25,24.37,23.95,24.37c9.09,0,14.57-1.6,19.33-3.63l2.16,9.14
			c-4.47,2.03-12.12,4.35-23.23,4.35c-21.5,0-34.34-14.21-34.34-35.39s12.41-37.86,32.75-37.86c22.8,0,28.86,20.16,28.86,33.07
			c0,2.61-0.29,4.64-0.43,5.95H448.58z M485.81,71.93c0.14-8.12-3.32-20.74-17.6-20.74c-12.84,0-18.47,11.89-19.48,20.74H485.81z"/>
		<path d="M561.42,102.97h-0.29c-3.75,6.96-11.54,12.47-22.8,12.47c-16.3,0-29.58-14.21-29.58-35.54c0-26.25,16.88-37.86,31.6-37.86
			c10.82,0,18.04,5.37,21.5,12.18h0.29l0.43-10.59h11.98c-0.29,5.95-0.43,12.04-0.43,19.29v79.63h-12.7V102.97z M561.42,72.08
			c0-1.74-0.14-3.77-0.58-5.37c-1.88-7.83-8.66-14.51-18.18-14.51c-13.13,0-21.07,11.17-21.07,26.98c0,13.92,6.64,26.11,20.63,26.11
			c8.22,0,15.29-5.08,18.18-13.92c0.58-1.74,1.01-4.21,1.01-6.09V72.08z"/>
		<path d="M653.47,94.7c0,7.25,0.14,13.63,0.58,19.15h-11.25l-0.72-11.46h-0.29c-3.32,5.66-10.68,13.05-23.09,13.05
			c-10.97,0-24.1-6.09-24.1-30.75V43.65h12.7v38.87c0,13.34,4.04,22.34,15.58,22.34c8.51,0,14.43-5.95,16.74-11.6
			c0.72-1.89,1.15-4.21,1.15-6.53V43.65h12.7V94.7z"/>
		<path d="M737.73,78.17c0,25.96-17.89,37.28-34.77,37.28c-18.9,0-33.47-13.92-33.47-36.12c0-23.5,15.29-37.28,34.63-37.28
			C724.17,42.05,737.73,56.7,737.73,78.17z M682.33,78.89c0,15.38,8.8,26.98,21.21,26.98c12.12,0,21.21-11.46,21.21-27.27
			c0-11.89-5.92-26.98-20.92-26.98S682.33,65.55,682.33,78.89z"/>
		<path d="M767.89,23.92c0.14,4.35-3.03,7.83-8.08,7.83c-4.47,0-7.65-3.48-7.65-7.83c0-4.5,3.32-7.98,7.94-7.98
			C764.86,15.94,767.89,19.42,767.89,23.92z M753.75,113.85v-70.2h12.7v70.2H753.75z"/>
		<path d="M826.18,113.85l-1.01-8.85h-0.43c-3.9,5.51-11.4,10.44-21.35,10.44c-14.14,0-21.35-10.01-21.35-20.16
			c0-16.97,15.01-26.25,41.99-26.11v-1.45c0-5.8-1.59-16.25-15.87-16.25c-6.49,0-13.27,2.03-18.18,5.22l-2.88-8.41
			c5.77-3.77,14.14-6.24,22.94-6.24c21.35,0,26.55,14.65,26.55,28.72v26.25c0,6.09,0.29,12.04,1.15,16.83H826.18z M824.3,78.02
			c-13.85-0.29-29.58,2.18-29.58,15.81c0,8.27,5.48,12.18,11.98,12.18c9.09,0,14.86-5.8,16.88-11.75c0.43-1.3,0.72-2.76,0.72-4.06
			V78.02z"/>
		<path d="M854.03,106.31c0-5.37,3.61-9.14,8.66-9.14s8.51,3.77,8.51,9.14c0,5.22-3.32,9.14-8.66,9.14
			C857.49,115.45,854.03,111.53,854.03,106.31z"/>
		<path d="M893.99,81.07c0.29,17.26,11.25,24.37,23.95,24.37c9.09,0,14.57-1.6,19.33-3.63l2.16,9.14
			c-4.47,2.03-12.12,4.35-23.23,4.35c-21.5,0-34.34-14.21-34.34-35.39s12.41-37.86,32.75-37.86c22.8,0,28.86,20.16,28.86,33.07
			c0,2.61-0.29,4.64-0.43,5.95H893.99z M931.22,71.93c0.14-8.12-3.32-20.74-17.6-20.74c-12.84,0-18.47,11.89-19.48,20.74H931.22z"/>
		<path d="M964.69,43.65l9.96,15.08c2.6,3.92,4.76,7.54,7.07,11.46h0.43c2.31-4.21,4.62-7.83,6.93-11.6l9.81-14.94h13.71
			l-23.81,33.94l24.53,36.26h-14.43l-10.24-15.81c-2.74-4.06-5.05-7.98-7.5-12.18h-0.29c-2.31,4.21-4.76,7.98-7.36,12.18
			l-10.1,15.81h-14l24.82-35.83l-23.66-34.38H964.69z"/>
		<path d="M1073.2,111.24c-3.32,1.74-10.68,4.06-20.06,4.06c-21.07,0-34.77-14.36-34.77-35.83c0-21.61,14.72-37.28,37.52-37.28
			c7.5,0,14.14,1.89,17.6,3.63l-2.89,9.86c-3.03-1.74-7.79-3.34-14.72-3.34c-16.02,0-24.67,11.89-24.67,26.54
			c0,16.25,10.39,26.25,24.24,26.25c7.21,0,11.98-1.89,15.58-3.48L1073.2,111.24z"/>
		<path d="M1088.06,10.87h12.7v43.8h0.29c2.02-3.63,5.19-6.82,9.09-8.99c3.75-2.18,8.22-3.63,12.99-3.63
			c9.38,0,24.38,5.8,24.38,30.03v41.77h-12.7V73.53c0-11.31-4.18-20.89-16.16-20.89c-8.22,0-14.72,5.8-17.03,12.76
			c-0.72,1.74-0.87,3.63-0.87,6.09v42.35h-12.7V10.87z"/>
		<path d="M1206.81,113.85l-1.01-8.85h-0.43c-3.9,5.51-11.4,10.44-21.35,10.44c-14.14,0-21.35-10.01-21.35-20.16
			c0-16.97,15.01-26.25,41.99-26.11v-1.45c0-5.8-1.59-16.25-15.87-16.25c-6.49,0-13.27,2.03-18.18,5.22l-2.89-8.41
			c5.77-3.77,14.14-6.24,22.94-6.24c21.35,0,26.55,14.65,26.55,28.72v26.25c0,6.09,0.29,12.04,1.15,16.83H1206.81z M1204.93,78.02
			c-13.85-0.29-29.58,2.18-29.58,15.81c0,8.27,5.48,12.18,11.98,12.18c9.09,0,14.86-5.8,16.88-11.75c0.43-1.3,0.72-2.76,0.72-4.06
			V78.02z"/>
		<path d="M1237.69,62.65c0-7.25-0.14-13.2-0.58-19h11.25l0.72,11.6h0.29c3.46-6.67,11.54-13.2,23.09-13.2
			c9.67,0,24.67,5.8,24.67,29.88v41.92h-12.7V73.38c0-11.31-4.18-20.74-16.16-20.74c-8.37,0-14.86,5.95-17.03,13.05
			c-0.58,1.6-0.87,3.77-0.87,5.95v42.21h-12.7V62.65z"/>
		<path d="M1377.93,43.65c-0.29,5.08-0.58,10.73-0.58,19.29v40.76c0,16.1-3.17,25.96-9.96,32.06c-6.78,6.38-16.59,8.41-25.39,8.41
			c-8.37,0-17.6-2.03-23.23-5.8l3.17-9.72c4.62,2.9,11.83,5.51,20.49,5.51c12.99,0,22.51-6.82,22.51-24.51v-7.83h-0.29
			c-3.9,6.53-11.4,11.75-22.22,11.75c-17.31,0-29.72-14.79-29.72-34.23c0-23.79,15.44-37.28,31.45-37.28
			c12.12,0,18.76,6.38,21.79,12.18h0.29l0.58-10.59H1377.93z M1364.8,71.35c0-2.18-0.14-4.06-0.72-5.8
			c-2.31-7.4-8.51-13.49-17.75-13.49c-12.12,0-20.78,10.3-20.78,26.54c0,13.78,6.93,25.24,20.63,25.24c7.79,0,14.86-4.93,17.6-13.05
			c0.72-2.18,1.01-4.64,1.01-6.82V71.35z"/>
		<path d="M1405.49,81.07c0.29,17.26,11.25,24.37,23.95,24.37c9.09,0,14.57-1.6,19.33-3.63l2.16,9.14
			c-4.47,2.03-12.12,4.35-23.23,4.35c-21.5,0-34.34-14.21-34.34-35.39s12.41-37.86,32.75-37.86c22.8,0,28.86,20.16,28.86,33.07
			c0,2.61-0.29,4.64-0.43,5.95H1405.49z M1442.72,71.93c0.14-8.12-3.32-20.74-17.6-20.74c-12.84,0-18.47,11.89-19.48,20.74H1442.72z
			"/>
	</g>
	<g>
		<g>
			<polygon points="68.16,75.67 68.16,43.4 60.09,43.4 60.09,75.69 60.09,77.88 52.01,85.96 52.01,43.4 43.94,43.4 43.94,91.84 
				43.94,94.03 35.86,102.11 35.86,43.4 27.79,43.4 27.79,110.18 19.69,118.28 19.69,124.15 25.24,124.15 33.32,116.07 
				100.46,116.07 100.46,107.99 41.4,107.99 49.47,99.92 52.01,99.92 100.46,99.92 100.46,91.84 57.54,91.84 65.62,83.77 
				68.16,83.77 100.46,83.77 100.46,75.69 68.18,75.69 			"/>
			<rect x="76.27" y="43.4" width="24.19" height="24.22"/>
		</g>
	</g>
</g>
</svg>
