<?xml version="1.0" encoding="utf-8"?>
<!-- Generator: Adobe Illustrator 26.0.1, SVG Export Plug-In . SVG Version: 6.00 Build 0)  -->
<svg version="1.1" id="Слой_1" xmlns="http://www.w3.org/2000/svg" xmlns:xlink="http://www.w3.org/1999/xlink" x="0px" y="0px"
	 viewBox="0 0 1510.73 145" style="enable-background:new 0 0 1510.73 145;" xml:space="preserve">
<g>
	<g>
		<path d="M224.55,9.45v84.73c0,6.23,0.14,13.33,0.58,18.1h-11.38l-0.58-12.17h-0.29c-3.89,7.82-12.39,13.76-23.77,13.76
			c-16.86,0-29.83-14.34-29.83-35.63c-0.14-23.32,14.26-37.66,31.27-37.66c10.66,0,17.87,5.07,21.04,10.72h0.29V9.45H224.55z
			 M211.87,70.72c0-1.59-0.14-3.77-0.58-5.36c-1.87-8.11-8.79-14.77-18.3-14.77c-13.11,0-20.89,11.59-20.89,27.08
			c0,14.19,6.92,25.92,20.6,25.92c8.5,0,16.28-5.65,18.59-15.21c0.43-1.74,0.58-3.48,0.58-5.5V70.72z"/>
		<path d="M252.64,79.55c0.29,17.24,11.24,24.33,23.92,24.33c9.08,0,14.55-1.59,19.31-3.62l2.16,9.12
			c-4.47,2.03-12.1,4.34-23.2,4.34c-21.47,0-34.29-14.19-34.29-35.34c0-21.15,12.39-37.8,32.71-37.8
			c22.77,0,28.82,20.13,28.82,33.02c0,2.61-0.29,4.63-0.43,5.94H252.64z M289.82,70.43c0.14-8.11-3.31-20.71-17.58-20.71
			c-12.82,0-18.44,11.88-19.45,20.71H289.82z"/>
		<path d="M323.25,42.18l9.94,15.06c2.59,3.91,4.75,7.53,7.06,11.44h0.43c2.31-4.2,4.61-7.82,6.92-11.59l9.8-14.92h13.69
			l-23.77,33.89l24.5,36.21H357.4L347.16,96.5c-2.74-4.06-5.04-7.97-7.49-12.17h-0.29c-2.31,4.2-4.75,7.97-7.35,12.17l-10.09,15.79
			h-13.98l24.78-35.77l-23.63-34.33H323.25z"/>
		<path d="M381.03,104.75c0-5.36,3.6-9.12,8.65-9.12c5.04,0,8.5,3.77,8.5,9.12c0,5.21-3.31,9.12-8.65,9.12
			C384.48,113.88,381.03,109.97,381.03,104.75z"/>
		<path d="M412.15,99.25c3.75,2.46,10.37,5.07,16.71,5.07c9.22,0,13.54-4.63,13.54-10.43c0-6.08-3.6-9.41-12.97-12.89
			c-12.54-4.49-18.44-11.44-18.44-19.84c0-11.3,9.08-20.57,24.06-20.57c7.06,0,13.26,2.03,17.15,4.34l-3.17,9.27
			c-2.74-1.74-7.78-4.06-14.27-4.06c-7.49,0-11.67,4.35-11.67,9.56c0,5.79,4.18,8.4,13.26,11.88c12.1,4.63,18.3,10.72,18.3,21.15
			c0,12.31-9.51,21-26.08,21c-7.64,0-14.7-1.88-19.6-4.78L412.15,99.25z"/>
		<path d="M477.99,79.55c0.29,17.24,11.24,24.33,23.92,24.33c9.08,0,14.55-1.59,19.31-3.62l2.16,9.12
			c-4.47,2.03-12.1,4.34-23.2,4.34c-21.47,0-34.29-14.19-34.29-35.34c0-21.15,12.39-37.8,32.71-37.8
			c22.77,0,28.82,20.13,28.82,33.02c0,2.61-0.29,4.63-0.43,5.94H477.99z M515.17,70.43c0.14-8.11-3.31-20.71-17.58-20.71
			c-12.82,0-18.44,11.88-19.45,20.71H515.17z"/>
		<path d="M590.67,101.42h-0.29c-3.75,6.95-11.53,12.46-22.77,12.46c-16.28,0-29.54-14.19-29.54-35.48
			c0-26.22,16.86-37.8,31.56-37.8c10.81,0,18.01,5.36,21.47,12.17h0.29l0.43-10.57h11.96c-0.29,5.94-0.43,12.02-0.43,19.26v79.51
			h-12.68V101.42z M590.67,70.57c0-1.74-0.14-3.77-0.58-5.36c-1.87-7.82-8.65-14.48-18.15-14.48c-13.11,0-21.04,11.15-21.04,26.94
			c0,13.9,6.63,26.07,20.6,26.07c8.21,0,15.27-5.07,18.16-13.9c0.58-1.74,1.01-4.2,1.01-6.08V70.57z"/>
		<path d="M682.6,93.16c0,7.24,0.14,13.61,0.58,19.12h-11.24l-0.72-11.44h-0.29c-3.31,5.65-10.66,13.04-23.05,13.04
			c-10.95,0-24.06-6.08-24.06-30.71V42.18h12.68V81c0,13.32,4.03,22.3,15.56,22.3c8.5,0,14.41-5.94,16.71-11.59
			c0.72-1.88,1.15-4.2,1.15-6.52V42.18h12.68V93.16z"/>
		<path d="M766.74,76.65c0,25.93-17.87,37.22-34.73,37.22c-18.88,0-33.43-13.9-33.43-36.06c0-23.46,15.27-37.22,34.58-37.22
			C753.2,40.59,766.74,55.22,766.74,76.65z M711.41,77.38c0,15.35,8.79,26.94,21.18,26.94c12.1,0,21.18-11.44,21.18-27.23
			c0-11.88-5.91-26.94-20.89-26.94C717.9,50.15,711.41,64.05,711.41,77.38z"/>
		<path d="M796.86,22.48c0.14,4.35-3.03,7.82-8.07,7.82c-4.47,0-7.64-3.48-7.64-7.82c0-4.49,3.31-7.97,7.92-7.97
			C793.83,14.52,796.86,17.99,796.86,22.48z M782.74,112.28v-70.1h12.68v70.1H782.74z"/>
		<path d="M855.07,112.28l-1.01-8.83h-0.43c-3.89,5.5-11.38,10.43-21.33,10.43c-14.12,0-21.33-9.99-21.33-20.13
			c0-16.95,14.99-26.21,41.93-26.07v-1.45c0-5.79-1.58-16.22-15.85-16.22c-6.48,0-13.26,2.03-18.16,5.21l-2.88-8.4
			c5.76-3.77,14.12-6.23,22.91-6.23c21.33,0,26.51,14.63,26.51,28.68v26.22c0,6.08,0.29,12.02,1.15,16.8H855.07z M853.19,76.51
			c-13.83-0.29-29.54,2.17-29.54,15.79c0,8.26,5.48,12.17,11.96,12.17c9.08,0,14.84-5.79,16.86-11.73c0.43-1.3,0.72-2.75,0.72-4.06
			V76.51z"/>
		<path d="M882.87,104.75c0-5.36,3.6-9.12,8.65-9.12s8.5,3.77,8.5,9.12c0,5.21-3.31,9.12-8.65,9.12
			C886.33,113.88,882.87,109.97,882.87,104.75z"/>
		<path d="M922.79,79.55c0.29,17.24,11.24,24.33,23.92,24.33c9.08,0,14.55-1.59,19.31-3.62l2.16,9.12
			c-4.47,2.03-12.1,4.34-23.2,4.34c-21.47,0-34.29-14.19-34.29-35.34c0-21.15,12.39-37.8,32.71-37.8
			c22.77,0,28.82,20.13,28.82,33.02c0,2.61-0.29,4.63-0.43,5.94H922.79z M959.96,70.43c0.14-8.11-3.31-20.71-17.58-20.71
			c-12.82,0-18.44,11.88-19.45,20.71H959.96z"/>
		<path d="M993.39,42.18l9.94,15.06c2.59,3.91,4.75,7.53,7.06,11.44h0.43c2.3-4.2,4.61-7.82,6.92-11.59l9.8-14.92h13.69
			l-23.77,33.89l24.5,36.21h-14.41l-10.23-15.79c-2.74-4.06-5.04-7.97-7.49-12.17h-0.29c-2.31,4.2-4.75,7.97-7.35,12.17
			l-10.09,15.79h-13.98l24.78-35.77l-23.63-34.33H993.39z"/>
		<path d="M1101.74,109.68c-3.31,1.74-10.66,4.06-20.03,4.06c-21.04,0-34.73-14.34-34.73-35.77c0-21.58,14.7-37.22,37.46-37.22
			c7.49,0,14.12,1.88,17.58,3.62l-2.88,9.85c-3.03-1.74-7.78-3.33-14.7-3.33c-15.99,0-24.64,11.88-24.64,26.5
			c0,16.22,10.38,26.21,24.21,26.21c7.21,0,11.96-1.88,15.56-3.48L1101.74,109.68z"/>
		<path d="M1116.58,9.45h12.68v43.74h0.29c2.02-3.62,5.19-6.81,9.08-8.98c3.75-2.17,8.21-3.62,12.97-3.62
			c9.37,0,24.35,5.79,24.35,29.98v41.71h-12.68V72.02c0-11.3-4.18-20.86-16.14-20.86c-8.21,0-14.7,5.79-17,12.75
			c-0.72,1.74-0.86,3.62-0.86,6.08v42.29h-12.68V9.45z"/>
		<path d="M1235.16,112.28l-1.01-8.83h-0.43c-3.89,5.5-11.38,10.43-21.33,10.43c-14.12,0-21.33-9.99-21.33-20.13
			c0-16.95,14.99-26.21,41.93-26.07v-1.45c0-5.79-1.58-16.22-15.85-16.22c-6.48,0-13.26,2.03-18.16,5.21l-2.88-8.4
			c5.76-3.77,14.12-6.23,22.91-6.23c21.33,0,26.51,14.63,26.51,28.68v26.22c0,6.08,0.29,12.02,1.15,16.8H1235.16z M1233.29,76.51
			c-13.83-0.29-29.54,2.17-29.54,15.79c0,8.26,5.48,12.17,11.96,12.17c9.08,0,14.84-5.79,16.86-11.73c0.43-1.3,0.72-2.75,0.72-4.06
			V76.51z"/>
		<path d="M1266,61.16c0-7.24-0.14-13.18-0.58-18.97h11.24l0.72,11.59h0.29c3.46-6.66,11.53-13.18,23.05-13.18
			c9.65,0,24.64,5.79,24.64,29.84v41.86h-12.68V71.87c0-11.3-4.18-20.71-16.14-20.71c-8.36,0-14.84,5.94-17,13.04
			c-0.58,1.59-0.86,3.77-0.86,5.94v42.15H1266V61.16z"/>
		<path d="M1406.05,42.18c-0.29,5.07-0.58,10.72-0.58,19.26v40.7c0,16.08-3.17,25.93-9.94,32.01c-6.77,6.37-16.57,8.4-25.36,8.4
			c-8.36,0-17.58-2.03-23.2-5.79l3.17-9.7c4.61,2.9,11.82,5.5,20.46,5.5c12.97,0,22.48-6.81,22.48-24.48v-7.82h-0.29
			c-3.89,6.52-11.38,11.73-22.19,11.73c-17.29,0-29.68-14.77-29.68-34.18c0-23.75,15.42-37.22,31.41-37.22
			c12.1,0,18.73,6.37,21.76,12.17h0.29l0.58-10.57H1406.05z M1392.94,69.85c0-2.17-0.14-4.06-0.72-5.79
			c-2.3-7.39-8.5-13.47-17.72-13.47c-12.1,0-20.75,10.28-20.75,26.5c0,13.76,6.92,25.2,20.61,25.2c7.78,0,14.84-4.92,17.58-13.04
			c0.72-2.17,1.01-4.63,1.01-6.81V69.85z"/>
		<path d="M1433.57,79.55c0.29,17.24,11.24,24.33,23.92,24.33c9.08,0,14.55-1.59,19.31-3.62l2.16,9.12
			c-4.47,2.03-12.1,4.34-23.2,4.34c-21.47,0-34.29-14.19-34.29-35.34c0-21.15,12.39-37.8,32.71-37.8
			c22.77,0,28.82,20.13,28.82,33.02c0,2.61-0.29,4.63-0.43,5.94H1433.57z M1470.74,70.43c0.14-8.11-3.31-20.71-17.58-20.71
			c-12.82,0-18.44,11.88-19.45,20.71H1470.74z"/>
	</g>
	<g>
		<g>
			<polygon points="79.67,72.99 79.67,40.72 71.6,40.72 71.6,73.02 71.6,75.2 63.53,83.28 63.53,40.72 55.45,40.72 55.45,89.16 
				55.45,91.35 47.38,99.43 47.38,40.72 39.3,40.72 39.3,107.5 31.2,115.6 31.2,121.47 36.76,121.47 44.84,113.39 111.97,113.39 
				111.97,105.31 52.91,105.31 60.98,97.24 63.53,97.24 111.97,97.24 111.97,89.16 69.06,89.16 77.13,81.09 79.67,81.09 
				111.97,81.09 111.97,73.02 79.69,73.02 			"/>
			<rect x="87.78" y="40.72" width="24.19" height="24.22"/>
		</g>
	</g>
</g>
</svg>
