<?xml version="1.0" encoding="utf-8"?>
<!-- Generator: Adobe Illustrator 26.0.1, SVG Export Plug-In . SVG Version: 6.00 Build 0)  -->
<svg version="1.1" id="Слой_1" xmlns="http://www.w3.org/2000/svg" xmlns:xlink="http://www.w3.org/1999/xlink" x="0px" y="0px"
	 viewBox="0 0 357.04 87.69" style="enable-background:new 0 0 357.04 87.69;" xml:space="preserve">
<style type="text/css">
	.st0{fill:#358531;}
</style>
<g>
	<g>
		<polygon class="st0" points="50.08,37.61 50.08,9.19 42.97,9.19 42.97,37.63 42.97,39.55 35.86,46.66 35.86,9.19 28.75,9.19 
			28.75,51.85 28.75,53.77 21.64,60.88 21.64,9.19 14.53,9.19 14.53,67.99 7.4,75.12 7.4,80.29 12.29,80.29 19.4,73.17 78.51,73.17 
			78.51,66.07 26.51,66.07 33.62,58.96 35.86,58.96 78.51,58.96 78.51,51.85 40.73,51.85 47.84,44.74 50.08,44.74 78.51,44.74 
			78.51,37.63 50.1,37.63 		"/>
		<rect x="57.21" y="9.19" class="st0" width="21.3" height="21.33"/>
	</g>
	<g>
		<path d="M93.53,28.08c0.89,0.59,2.47,1.21,3.97,1.21c2.19,0,3.22-1.1,3.22-2.48c0-1.45-0.86-2.24-3.08-3.07
			c-2.98-1.07-4.39-2.72-4.39-4.72c0-2.69,2.16-4.89,5.72-4.89c1.68,0,3.15,0.48,4.08,1.03l-0.75,2.2
			c-0.65-0.41-1.85-0.96-3.39-0.96c-1.78,0-2.78,1.03-2.78,2.27c0,1.38,0.99,2,3.15,2.82c2.88,1.1,4.35,2.55,4.35,5.03
			c0,2.93-2.26,4.99-6.2,4.99c-1.82,0-3.49-0.45-4.66-1.14L93.53,28.08z"/>
		<path d="M109.19,23.4c0.07,4.1,2.67,5.79,5.69,5.79c2.16,0,3.46-0.38,4.59-0.86l0.51,2.17c-1.06,0.48-2.88,1.03-5.52,1.03
			c-5.11,0-8.15-3.38-8.15-8.4c0-5.03,2.95-8.99,7.78-8.99c5.41,0,6.85,4.79,6.85,7.85c0,0.62-0.07,1.1-0.1,1.41H109.19z
			 M118.03,21.23c0.03-1.93-0.79-4.93-4.18-4.93c-3.05,0-4.39,2.82-4.63,4.93H118.03z"/>
		<path d="M135.98,28.6h-0.07c-0.89,1.65-2.74,2.96-5.41,2.96c-3.87,0-7.02-3.38-7.02-8.44c0-6.23,4.01-8.99,7.5-8.99
			c2.57,0,4.28,1.27,5.11,2.89h0.07l0.1-2.51h2.84c-0.07,1.41-0.1,2.86-0.1,4.58V38h-3.02V28.6z M135.98,21.26
			c0-0.41-0.03-0.9-0.14-1.27c-0.45-1.86-2.06-3.44-4.32-3.44c-3.12,0-5,2.65-5,6.41c0,3.31,1.58,6.2,4.9,6.2
			c1.95,0,3.63-1.21,4.32-3.31c0.14-0.41,0.24-1,0.24-1.45V21.26z"/>
		<path d="M157.84,26.64c0,1.72,0.03,3.24,0.14,4.55h-2.67l-0.17-2.72h-0.07c-0.79,1.34-2.54,3.1-5.48,3.1
			c-2.6,0-5.72-1.45-5.72-7.3v-9.75h3.02v9.23c0,3.17,0.96,5.3,3.7,5.3c2.02,0,3.43-1.41,3.97-2.76c0.17-0.45,0.27-1,0.27-1.55
			V14.51h3.02V26.64z"/>
		<path d="M177.85,22.71c0,6.17-4.25,8.85-8.26,8.85c-4.49,0-7.95-3.31-7.95-8.58c0-5.58,3.63-8.85,8.22-8.85
			C174.63,14.13,177.85,17.61,177.85,22.71z M164.69,22.88c0,3.65,2.09,6.41,5.04,6.41c2.88,0,5.04-2.72,5.04-6.48
			c0-2.82-1.4-6.41-4.97-6.41C166.23,16.41,164.69,19.71,164.69,22.88z"/>
		<path d="M185.01,9.83c0.03,1.03-0.72,1.86-1.92,1.86c-1.06,0-1.82-0.83-1.82-1.86c0-1.07,0.79-1.89,1.88-1.89
			C184.29,7.93,185.01,8.76,185.01,9.83z M181.65,31.18V14.51h3.02v16.67H181.65z"/>
		<path d="M198.85,31.18l-0.24-2.1h-0.1c-0.93,1.31-2.71,2.48-5.07,2.48c-3.36,0-5.07-2.38-5.07-4.79c0-4.03,3.56-6.23,9.97-6.2
			v-0.34c0-1.38-0.38-3.86-3.77-3.86c-1.54,0-3.15,0.48-4.32,1.24l-0.69-2c1.37-0.9,3.36-1.48,5.45-1.48c5.07,0,6.3,3.48,6.3,6.82
			v6.23c0,1.45,0.07,2.86,0.27,4H198.85z M198.4,22.68c-3.29-0.07-7.02,0.52-7.02,3.75c0,1.96,1.3,2.89,2.84,2.89
			c2.16,0,3.53-1.38,4.01-2.79c0.1-0.31,0.17-0.65,0.17-0.96V22.68z"/>
		<path d="M205.46,29.39c0-1.27,0.86-2.17,2.06-2.17c1.2,0,2.02,0.9,2.02,2.17c0,1.24-0.79,2.17-2.06,2.17
			C206.28,31.56,205.46,30.63,205.46,29.39z"/>
		<path class="st0" d="M214.95,23.4c0.07,4.1,2.67,5.79,5.69,5.79c2.16,0,3.46-0.38,4.59-0.86l0.51,2.17
			c-1.06,0.48-2.88,1.03-5.52,1.03c-5.11,0-8.15-3.38-8.15-8.4c0-5.03,2.95-8.99,7.78-8.99c5.41,0,6.85,4.79,6.85,7.85
			c0,0.62-0.07,1.1-0.1,1.41H214.95z M223.79,21.23c0.03-1.93-0.79-4.93-4.18-4.93c-3.05,0-4.39,2.82-4.63,4.93H223.79z"/>
		<path class="st0" d="M231.74,14.51l2.36,3.58c0.62,0.93,1.13,1.79,1.68,2.72h0.1c0.55-1,1.1-1.86,1.64-2.76l2.33-3.55h3.26
			l-5.65,8.06l5.82,8.61h-3.43l-2.43-3.75c-0.65-0.96-1.2-1.89-1.78-2.89h-0.07c-0.55,1-1.13,1.89-1.75,2.89l-2.4,3.75h-3.32
			l5.89-8.51l-5.62-8.16H231.74z"/>
		<path class="st0" d="M257.51,30.56c-0.79,0.41-2.54,0.96-4.76,0.96c-5,0-8.26-3.41-8.26-8.51c0-5.13,3.49-8.85,8.91-8.85
			c1.78,0,3.36,0.45,4.18,0.86l-0.69,2.34c-0.72-0.41-1.85-0.79-3.49-0.79c-3.8,0-5.86,2.82-5.86,6.3c0,3.86,2.47,6.23,5.76,6.23
			c1.71,0,2.84-0.45,3.7-0.83L257.51,30.56z"/>
		<path class="st0" d="M261.03,6.73h3.02v10.4h0.07c0.48-0.86,1.23-1.62,2.16-2.14c0.89-0.52,1.95-0.86,3.08-0.86
			c2.23,0,5.79,1.38,5.79,7.13v9.92h-3.02v-9.58c0-2.69-0.99-4.96-3.84-4.96c-1.95,0-3.49,1.38-4.04,3.03
			c-0.17,0.41-0.21,0.86-0.21,1.45v10.06h-3.02V6.73z"/>
		<path class="st0" d="M289.23,31.18l-0.24-2.1h-0.1c-0.93,1.31-2.71,2.48-5.07,2.48c-3.36,0-5.07-2.38-5.07-4.79
			c0-4.03,3.56-6.23,9.97-6.2v-0.34c0-1.38-0.38-3.86-3.77-3.86c-1.54,0-3.15,0.48-4.32,1.24l-0.69-2c1.37-0.9,3.36-1.48,5.45-1.48
			c5.07,0,6.3,3.48,6.3,6.82v6.23c0,1.45,0.07,2.86,0.27,4H289.23z M288.79,22.68c-3.29-0.07-7.02,0.52-7.02,3.75
			c0,1.96,1.3,2.89,2.84,2.89c2.16,0,3.53-1.38,4.01-2.79c0.1-0.31,0.17-0.65,0.17-0.96V22.68z"/>
		<path class="st0" d="M296.56,19.02c0-1.72-0.03-3.13-0.14-4.51h2.67l0.17,2.76h0.07c0.82-1.58,2.74-3.13,5.48-3.13
			c2.3,0,5.86,1.38,5.86,7.1v9.95h-3.02v-9.61c0-2.69-0.99-4.93-3.84-4.93c-1.99,0-3.53,1.41-4.04,3.1
			c-0.14,0.38-0.21,0.9-0.21,1.41v10.02h-3.02V19.02z"/>
		<path class="st0" d="M329.87,14.51c-0.07,1.21-0.14,2.55-0.14,4.58v9.68c0,3.82-0.75,6.17-2.36,7.61c-1.61,1.52-3.94,2-6.03,2
			c-1.99,0-4.18-0.48-5.52-1.38l0.75-2.31c1.1,0.69,2.81,1.31,4.87,1.31c3.08,0,5.34-1.62,5.34-5.82v-1.86h-0.07
			c-0.93,1.55-2.71,2.79-5.28,2.79c-4.11,0-7.06-3.51-7.06-8.13c0-5.65,3.67-8.85,7.47-8.85c2.88,0,4.45,1.52,5.17,2.89h0.07
			l0.14-2.51H329.87z M326.75,21.09c0-0.52-0.03-0.96-0.17-1.38c-0.55-1.76-2.02-3.2-4.21-3.2c-2.88,0-4.93,2.45-4.93,6.3
			c0,3.27,1.64,5.99,4.9,5.99c1.85,0,3.53-1.17,4.18-3.1c0.17-0.52,0.24-1.1,0.24-1.62V21.09z"/>
		<path class="st0" d="M336.41,23.4c0.07,4.1,2.67,5.79,5.69,5.79c2.16,0,3.46-0.38,4.59-0.86l0.51,2.17
			c-1.06,0.48-2.88,1.03-5.52,1.03c-5.11,0-8.15-3.38-8.15-8.4c0-5.03,2.95-8.99,7.78-8.99c5.41,0,6.85,4.79,6.85,7.85
			c0,0.62-0.07,1.1-0.1,1.41H336.41z M345.25,21.23c0.03-1.93-0.79-4.93-4.18-4.93c-3.05,0-4.39,2.82-4.63,4.93H345.25z"/>
	</g>
	<g>
		<path d="M92.81,48.27c1.29-0.26,3.15-0.41,4.91-0.41c2.74,0,4.5,0.5,5.74,1.62c1,0.88,1.56,2.24,1.56,3.77
			c0,2.62-1.65,4.36-3.74,5.06v0.09c1.53,0.53,2.44,1.94,2.91,4c0.65,2.77,1.12,4.68,1.53,5.44h-2.65
			c-0.32-0.56-0.76-2.27-1.32-4.74c-0.59-2.74-1.65-3.77-3.97-3.85h-2.41v8.59h-2.56V48.27z M95.37,57.3h2.62
			c2.74,0,4.47-1.5,4.47-3.77c0-2.56-1.85-3.68-4.56-3.71c-1.24,0-2.12,0.12-2.53,0.24V57.3z"/>
		<path d="M118.96,58.54h-7.71v7.15h8.59v2.15h-11.15V48.01h10.71v2.15h-8.15v6.27h7.71V58.54z"/>
		<path d="M127.46,50.18h-6.03v-2.18h14.68v2.18h-6.06v17.65h-2.59V50.18z"/>
		<path d="M140.93,48.01v19.83h-2.56V48.01H140.93z"/>
		<path d="M145.46,48.27c1.29-0.26,3.15-0.41,4.91-0.41c2.74,0,4.5,0.5,5.74,1.62c1,0.88,1.56,2.24,1.56,3.77
			c0,2.62-1.65,4.36-3.74,5.06v0.09c1.53,0.53,2.44,1.94,2.91,4c0.65,2.77,1.12,4.68,1.53,5.44h-2.65
			c-0.32-0.56-0.76-2.27-1.32-4.74c-0.59-2.74-1.65-3.77-3.97-3.85h-2.41v8.59h-2.56V48.27z M148.02,57.3h2.62
			c2.74,0,4.47-1.5,4.47-3.77c0-2.56-1.85-3.68-4.56-3.71c-1.24,0-2.12,0.12-2.53,0.24V57.3z"/>
		<path d="M171.61,58.54h-7.71v7.15h8.59v2.15h-11.15V48.01h10.71v2.15h-8.15v6.27h7.71V58.54z"/>
		<path d="M192.59,59.13c-0.15-2.77-0.32-6.09-0.29-8.56h-0.09c-0.68,2.32-1.5,4.8-2.5,7.53l-3.5,9.62h-1.94l-3.21-9.44
			c-0.94-2.8-1.74-5.35-2.29-7.71h-0.06c-0.06,2.47-0.21,5.8-0.38,8.77l-0.53,8.5h-2.44l1.38-19.83h3.27l3.38,9.59
			c0.82,2.44,1.5,4.62,2,6.68h0.09c0.5-2,1.21-4.18,2.09-6.68l3.53-9.59h3.27l1.24,19.83h-2.5L192.59,59.13z"/>
		<path d="M209.85,58.54h-7.71v7.15h8.59v2.15h-11.15V48.01h10.71v2.15h-8.15v6.27h7.71V58.54z"/>
		<path d="M214.11,67.84V48.01h2.8l6.35,10.03c1.47,2.32,2.62,4.41,3.56,6.44l0.06-0.03c-0.24-2.65-0.29-5.06-0.29-8.15v-8.3H229
			v19.83h-2.59l-6.3-10.06c-1.38-2.21-2.71-4.47-3.71-6.62l-0.09,0.03c0.15,2.5,0.21,4.88,0.21,8.18v8.47H214.11z"/>
		<path d="M237.29,50.18h-6.03v-2.18h14.68v2.18h-6.06v17.65h-2.59V50.18z"/>
		<path d="M254.14,64.72c1.15,0.71,2.82,1.29,4.59,1.29c2.62,0,4.15-1.38,4.15-3.38c0-1.85-1.06-2.91-3.74-3.94
			c-3.24-1.15-5.24-2.82-5.24-5.62c0-3.09,2.56-5.38,6.41-5.38c2.03,0,3.5,0.47,4.38,0.97L264,50.74c-0.65-0.35-1.97-0.94-3.77-0.94
			c-2.71,0-3.74,1.62-3.74,2.97c0,1.85,1.21,2.77,3.94,3.82c3.35,1.29,5.06,2.91,5.06,5.83c0,3.06-2.27,5.71-6.94,5.71
			c-1.91,0-4-0.56-5.06-1.27L254.14,64.72z"/>
		<path d="M273.47,67.84v-8.41l-6.27-11.41h2.91l2.79,5.47c0.76,1.5,1.35,2.71,1.97,4.09h0.06c0.56-1.29,1.24-2.59,2-4.09l2.85-5.47
			h2.91l-6.65,11.39v8.44H273.47z"/>
		<path d="M284.3,64.72c1.15,0.71,2.82,1.29,4.59,1.29c2.62,0,4.15-1.38,4.15-3.38c0-1.85-1.06-2.91-3.74-3.94
			c-3.24-1.15-5.24-2.82-5.24-5.62c0-3.09,2.56-5.38,6.41-5.38c2.03,0,3.5,0.47,4.38,0.97l-0.71,2.09
			c-0.65-0.35-1.97-0.94-3.77-0.94c-2.71,0-3.74,1.62-3.74,2.97c0,1.85,1.21,2.77,3.94,3.82c3.35,1.29,5.06,2.91,5.06,5.83
			c0,3.06-2.27,5.71-6.94,5.71c-1.91,0-4-0.56-5.06-1.27L284.3,64.72z"/>
		<path d="M302.98,50.18h-6.03v-2.18h14.68v2.18h-6.06v17.65h-2.59V50.18z"/>
		<path d="M324.15,58.54h-7.71v7.15h8.59v2.15h-11.15V48.01h10.71v2.15h-8.15v6.27h7.71V58.54z"/>
		<path d="M345.13,59.13c-0.15-2.77-0.32-6.09-0.29-8.56h-0.09c-0.68,2.32-1.5,4.8-2.5,7.53l-3.5,9.62h-1.94l-3.21-9.44
			c-0.94-2.8-1.74-5.35-2.29-7.71h-0.06c-0.06,2.47-0.21,5.8-0.38,8.77l-0.53,8.5h-2.44l1.38-19.83h3.27l3.38,9.59
			c0.82,2.44,1.5,4.62,2,6.68h0.09c0.5-2,1.21-4.18,2.09-6.68l3.53-9.59h3.27l1.24,19.83h-2.5L345.13,59.13z"/>
	</g>
</g>
</svg>
