<?xml version="1.0" encoding="utf-8"?>
<!-- Generator: Adobe Illustrator 26.0.1, SVG Export Plug-In . SVG Version: 6.00 Build 0)  -->
<svg version="1.1" id="Слой_1" xmlns="http://www.w3.org/2000/svg" xmlns:xlink="http://www.w3.org/1999/xlink" x="0px" y="0px"
	 viewBox="0 0 282.73 277.59" style="enable-background:new 0 0 282.73 277.59;" xml:space="preserve">
<style type="text/css">
	.st0{fill:#074C01;}
	.st1{fill:#358531;}
	.st2{fill:#111111;}
	.st3{fill:#2D2D2D;}
	.st4{fill:none;}
</style>
<g>
	<path class="st0" d="M50.35,248.16c-2.3,0-4.44-0.28-6.43-0.84c-1.99-0.56-3.77-1.35-5.33-2.37c-1.56-1.02-2.85-2.15-3.87-3.41
		c-1.02-1.26-1.68-2.58-1.98-3.96l8.7-2.6c0.56,1.47,1.56,2.74,2.99,3.8c1.43,1.06,3.23,1.61,5.39,1.66
		c2.29,0.04,4.17-0.45,5.62-1.49c1.45-1.04,2.18-2.38,2.18-4.03c0-1.43-0.57-2.63-1.72-3.61c-1.15-0.97-2.72-1.72-4.71-2.24
		l-5.91-1.56c-2.21-0.56-4.16-1.42-5.85-2.57c-1.69-1.15-3.01-2.57-3.96-4.25c-0.95-1.69-1.43-3.66-1.43-5.91
		c0-4.29,1.42-7.63,4.25-10.04c2.84-2.4,6.85-3.61,12.05-3.61c2.9,0,5.45,0.42,7.63,1.27c2.19,0.84,4.02,2.05,5.49,3.61
		c1.47,1.56,2.6,3.4,3.38,5.52l-8.64,2.66c-0.52-1.47-1.47-2.73-2.86-3.77c-1.39-1.04-3.14-1.56-5.26-1.56
		c-2.17,0-3.87,0.5-5.1,1.49c-1.23,1-1.85,2.4-1.85,4.22c0,1.43,0.49,2.56,1.46,3.38c0.97,0.82,2.31,1.45,4,1.88l5.98,1.49
		c3.9,0.95,6.93,2.66,9.09,5.13c2.17,2.47,3.25,5.22,3.25,8.25c0,2.69-0.65,5.03-1.95,7.05c-1.3,2.01-3.18,3.58-5.65,4.71
		C56.85,247.6,53.86,248.16,50.35,248.16z"/>
	<polygon class="st0" points="134.79,239.25 134.79,228.27 151.94,228.27 151.94,220.35 134.79,220.35 134.79,210.02 154.67,210.02 
		154.67,201.9 134.79,201.9 132.64,201.9 125.89,201.9 125.89,247.37 132.64,247.37 134.79,247.37 154.7,247.37 154.7,239.25 	"/>
	<polygon class="st1" points="204.42,247.39 187.96,224.07 204.09,201.91 193.51,201.91 183.03,217.01 172.52,201.91 161.94,201.91 
		178.09,224.1 161.61,247.39 172.33,247.39 183.01,231.36 193.7,247.39 	"/>
	<path class="st0" d="M229.68,248.16c-4.42,0-8.34-1.01-11.76-3.02c-3.42-2.01-6.11-4.78-8.06-8.31c-1.95-3.53-2.92-7.59-2.92-12.18
		c0-4.59,0.97-8.65,2.92-12.18c1.95-3.53,4.62-6.3,8.02-8.32c3.4-2.01,7.31-3.02,11.73-3.02c3.12,0,6.02,0.55,8.7,1.66
		c2.68,1.1,5.03,2.64,7.05,4.61c2.01,1.97,3.56,4.23,4.64,6.79l-8.25,3.05c-0.74-1.6-1.71-3-2.92-4.19
		c-1.21-1.19-2.6-2.12-4.16-2.79c-1.56-0.67-3.25-1.01-5.07-1.01c-2.64,0-4.99,0.66-7.05,1.98c-2.06,1.32-3.66,3.13-4.81,5.42
		c-1.15,2.3-1.72,4.96-1.72,7.99c0,3.03,0.58,5.71,1.75,8.02c1.17,2.32,2.79,4.14,4.87,5.46c2.08,1.32,4.46,1.98,7.15,1.98
		c1.86,0,3.56-0.36,5.1-1.07c1.54-0.71,2.9-1.7,4.09-2.96c1.19-1.26,2.15-2.71,2.89-4.35l8.25,2.99c-1.08,2.64-2.63,4.98-4.64,7.02
		c-2.01,2.04-4.36,3.62-7.05,4.74C235.76,247.6,232.84,248.16,229.68,248.16z"/>
	<path class="st1" d="M116.12,236.79c1.97-3.53,2.95-7.56,2.95-12.1c0-4.63-1-8.71-2.98-12.23c-1.99-3.53-4.73-6.29-8.21-8.31
		c-3.48-2.01-7.52-3.02-12.1-3.02c-3.42,0-6.54,0.57-9.38,1.72c-2.83,1.15-5.28,2.77-7.33,4.87c-2.05,2.1-3.66,4.59-4.8,7.46
		c-1.15,2.88-1.72,6.02-1.72,9.44c0,4.59,0.99,8.64,2.98,12.17c1.99,3.53,4.75,6.29,8.27,8.31c3.53,2.01,7.58,3.02,12.17,3.02
		c4.5,0,8.49-1.01,11.97-3.02c0.01,0,0.01-0.01,0.02-0.01l5.68,5.82h5.43v-5.89l-5.03-5.16
		C114.81,238.91,115.51,237.89,116.12,236.79z M101.87,238.78c-1.76,0.81-3.72,1.22-5.89,1.22c-2.81,0-5.3-0.66-7.46-1.98
		c-2.16-1.32-3.85-3.12-5.06-5.42c-1.21-2.29-1.82-4.95-1.82-7.98c0-2.99,0.6-5.63,1.82-7.95c1.21-2.31,2.89-4.13,5.03-5.45
		c2.14-1.32,4.57-1.98,7.3-1.98c2.81,0,5.28,0.66,7.4,1.98c2.12,1.32,3.79,3.14,5,5.45c1.21,2.31,1.82,4.96,1.82,7.95
		c0,3.03-0.59,5.69-1.78,7.98c-0.16,0.31-0.33,0.61-0.51,0.91l-5.75-5.84l-5.71,5.39L101.87,238.78z"/>
</g>
<g>
	<path class="st2" d="M148.67,194.18c-0.47-0.18-0.6-0.29-0.6-0.51c0-0.23,0.2-0.38,0.49-0.38c0.33,0,0.57,0.13,0.66,0.19l0.1,0.06
		l0.22-0.64l-0.06-0.04c-0.24-0.14-0.58-0.23-0.9-0.23c-0.76,0-1.29,0.46-1.29,1.11c0,0.33,0.17,0.78,0.98,1.07
		c0.49,0.18,0.59,0.34,0.59,0.56c0,0.27-0.22,0.43-0.59,0.43c-0.29,0-0.6-0.12-0.78-0.24l-0.1-0.06l-0.22,0.66l0.06,0.04
		c0.27,0.16,0.64,0.25,1.02,0.25c0.84,0,1.39-0.44,1.39-1.13C149.64,194.79,149.34,194.44,148.67,194.18z"/>
	<path class="st2" d="M152.77,193.07c-0.23-0.28-0.59-0.43-1.01-0.43c-0.83,0-1.66,0.67-1.66,1.96c0,1.07,0.66,1.85,1.56,1.85
		c0.43,0,0.81-0.16,1.06-0.44v1.79h0.81v-4.03c0-0.35,0.01-0.66,0.02-0.95l0-0.09h-0.78L152.77,193.07z M152.69,193.98
		c0.02,0.06,0.03,0.15,0.03,0.24v0.65c0,0.08-0.02,0.19-0.05,0.27c-0.13,0.39-0.44,0.63-0.82,0.63c-0.69,0-0.94-0.65-0.94-1.2
		c0-0.76,0.38-1.25,0.96-1.25C152.33,193.32,152.62,193.65,152.69,193.98z"/>
	<path class="st2" d="M155.94,192.64c-1.01,0-1.72,0.81-1.72,1.96c0,1.12,0.71,1.84,1.8,1.84c0.58,0,0.97-0.12,1.19-0.22l0.07-0.03
		l-0.15-0.63l-0.1,0.04c-0.21,0.09-0.47,0.17-0.93,0.17c-0.32,0-1.04-0.1-1.1-1.03h2.43l0.01-0.11c0.01-0.07,0.02-0.16,0.02-0.27
		C157.46,193.57,157.06,192.64,155.94,192.64z M156.67,194.12h-1.65c0.07-0.35,0.31-0.85,0.86-0.85c0.23,0,0.41,0.07,0.54,0.2
		C156.62,193.67,156.66,193.96,156.67,194.12z"/>
	<path class="st2" d="M161.06,192.72h-0.9l-0.52,0.78l-0.06,0.1c-0.07,0.12-0.15,0.24-0.22,0.36c-0.09-0.15-0.18-0.3-0.29-0.46
		l-0.52-0.79h-0.92l1.24,1.79l-1.3,1.86h0.92l0.62-0.97c0.07-0.11,0.14-0.22,0.21-0.34c0.1,0.17,0.2,0.33,0.3,0.49l0.54,0.82h0.94
		l-1.28-1.89L161.06,192.72z"/>
	<path class="st2" d="M163.12,193.33c0.35,0,0.57,0.08,0.69,0.15l0.1,0.06l0.2-0.67l-0.07-0.03c-0.17-0.09-0.52-0.19-0.92-0.19
		c-1.15,0-1.96,0.8-1.96,1.94c0,1.12,0.73,1.86,1.82,1.86c0.47,0,0.85-0.11,1.04-0.21l0.06-0.03l-0.15-0.65l-0.1,0.04
		c-0.18,0.08-0.41,0.16-0.74,0.16c-0.67,0-1.12-0.49-1.12-1.21C161.98,193.81,162.43,193.33,163.12,193.33z"/>
	<path class="st2" d="M165,195.37c-0.3,0-0.52,0.23-0.52,0.54c0,0.31,0.22,0.54,0.51,0.54c0.31,0,0.52-0.22,0.52-0.54
		C165.51,195.59,165.3,195.37,165,195.37z"/>
	<path class="st2" d="M167.9,193.33c0.35,0,0.57,0.08,0.69,0.15l0.1,0.06l0.2-0.67l-0.07-0.03c-0.17-0.09-0.52-0.19-0.92-0.19
		c-1.15,0-1.96,0.8-1.96,1.94c0,1.12,0.73,1.86,1.82,1.86c0.47,0,0.85-0.11,1.04-0.21l0.06-0.03l-0.15-0.65l-0.1,0.04
		c-0.18,0.08-0.41,0.16-0.74,0.16c-0.67,0-1.12-0.49-1.12-1.21C166.76,193.81,167.21,193.33,167.9,193.33z"/>
	<path class="st2" d="M171,192.64c-1.07,0-1.81,0.8-1.81,1.94c0,1.11,0.72,1.88,1.76,1.88c0.91,0,1.82-0.6,1.82-1.94
		C172.77,193.41,172.04,192.64,171,192.64z M171.94,194.54c0,0.73-0.41,1.26-0.97,1.26s-0.97-0.52-0.97-1.25
		c0-0.63,0.3-1.26,0.98-1.26C171.74,193.3,171.94,194.11,171.94,194.54z"/>
	<path class="st2" d="M177.37,192.64c-0.33,0-0.58,0.08-0.82,0.26c-0.12,0.09-0.24,0.21-0.33,0.35c-0.2-0.38-0.57-0.61-1-0.61
		c-0.43,0-0.78,0.16-1.04,0.49l-0.02-0.41h-0.74l0.01,0.1c0.02,0.26,0.03,0.54,0.03,0.93v2.63h0.8v-2.19c0-0.11,0.01-0.2,0.05-0.28
		c0.09-0.27,0.34-0.57,0.7-0.57c0.4,0,0.64,0.32,0.64,0.87v2.17h0.8v-2.24c0-0.1,0.02-0.2,0.04-0.29c0.09-0.26,0.33-0.51,0.66-0.51
		c0.55,0,0.66,0.53,0.66,0.98v2.06h0.8v-2.14C178.6,192.72,177.58,192.64,177.37,192.64z"/>
</g>
<rect x="187.89" y="139.12" class="st3" width="7.19" height="48.73"/>
<g>
	
		<rect x="141.58" y="139.37" transform="matrix(0.9289 0.3702 -0.3702 0.9289 70.9363 -42.1132)" class="st3" width="7.19" height="48.73"/>
	
		<rect x="145.11" y="140.05" transform="matrix(0.9289 0.3702 -0.3702 0.9289 71.3076 -42.6937)" class="st2" width="3.54" height="48.73"/>
</g>
<g>
	
		<rect x="127" y="141.47" transform="matrix(0.8174 0.5761 -0.5761 0.8174 119.3968 -44.9522)" class="st3" width="7.19" height="48.73"/>
	
		<rect x="130.22" y="142.49" transform="matrix(0.8174 0.5761 -0.5761 0.8174 120.2486 -45.6)" class="st2" width="3.65" height="48.73"/>
</g>
<g>
	
		<rect x="111.51" y="143.76" transform="matrix(0.7071 0.7071 -0.7071 0.7071 152.5985 -32.1483)" class="st3" width="7.19" height="48.73"/>
	
		<rect x="114.51" y="145" transform="matrix(0.7071 0.7071 -0.7071 0.7071 153.8407 -32.6621)" class="st2" width="3.68" height="48.73"/>
</g>
<g>
	
		<rect x="86.51" y="148.86" transform="matrix(0.4718 0.8817 -0.8817 0.4718 200.3407 12.0545)" class="st3" width="7.19" height="48.73"/>
	
		<rect x="88.99" y="150.35" transform="matrix(0.4718 0.8817 -0.8817 0.4718 202.0688 12.139)" class="st2" width="3.82" height="48.73"/>
</g>
<g>
	
		<rect x="55.49" y="152.57" transform="matrix(0.3113 0.9503 -0.9503 0.3113 208.8358 65.7042)" class="st3" width="7.19" height="48.73"/>
	
		<rect x="57.8" y="154.25" transform="matrix(0.3113 0.9503 -0.9503 0.3113 210.8072 66.3372)" class="st2" width="3.66" height="48.73"/>
</g>
<rect x="205.92" y="139.12" class="st3" width="7.19" height="48.73"/>
<rect x="223.96" y="139.12" class="st3" width="7.19" height="48.73"/>
<rect x="227.56" y="139.12" class="st2" width="3.6" height="48.73"/>
<rect x="241.99" y="139.12" class="st3" width="7.19" height="48.73"/>
<g>
	<rect x="34.62" y="194.39" class="st2" width="108.78" height="0.49"/>
	<rect x="182.99" y="194.39" class="st2" width="66.2" height="0.49"/>
</g>
<rect x="245.59" y="139.12" class="st2" width="3.6" height="48.73"/>
<rect x="209.52" y="139.12" class="st2" width="3.6" height="48.73"/>
<rect x="191.49" y="139.12" class="st2" width="3.6" height="48.73"/>
<path class="st4" d="M160.06,75.66c0.06-0.67,0.03-1.34,0.04-1.84c-0.51-0.24-0.95-0.42-1.36-0.65c-0.35-0.2-0.74-0.45-0.95,0.02
	c-0.34,0.79-0.85,0.67-1.25,0.44c-0.72,0.12-1.25,0.21-1.88,0.32c-0.02,0.74-0.55,1.06-1.45,0.96c-0.13-0.01-0.33,0.02-0.4,0.1
	c-0.5,0.59-1.08,0.36-1.65,0.11c-0.18,0.19-0.33,0.35-0.47,0.5c0.03,0.07,0.06,0.14,0.08,0.2c0.67-0.13,1.34-0.26,2-0.4
	c0.27-0.06,0.55-0.14,0.82-0.19c3.9-0.68,5.18,0.23,5.73,0.67C159.71,76.24,160.03,76.1,160.06,75.66z"/>
<path class="st4" d="M148.21,49.17c-0.2,0.09-0.19,0.56-0.27,0.86c0.07,0.02,0.14,0.03,0.21,0.05c0.17-0.14,0.39-0.25,0.51-0.42
	C149,49.16,148.5,49.04,148.21,49.17z"/>
<path class="st4" d="M155.89,63.04c-0.41-0.08-0.73-0.19-1.05-0.19c-0.52-0.01-0.53,0.36-0.59,0.73c-0.09,0.57-0.53,0.86-1.12,0.94
	c-0.32,0.04-0.66-0.01-0.79-0.01c-0.42,0.48-0.77,0.84-1.05,1.24c-0.12,0.16-0.1,0.41-0.15,0.62c0.09,0.04,0.17,0.09,0.26,0.13
	c0.16-0.21,0.32-0.42,0.49-0.65c0.18,0.15,0.31,0.25,0.53,0.44c0.06-0.37,0.1-0.64,0.11-0.71c0.79-0.42,1.44-0.82,2.13-1.11
	c0.25-0.11,0.88-0.03,0.92,0.09c0.22,0.57,0.61,0.37,0.98,0.28c0.29-0.07,0.58-0.19,0.88-0.29c-0.58-0.82-0.12-1.6,0.2-2.46
	C156.84,62.28,155.99,62.23,155.89,63.04z"/>
<path class="st4" d="M158.24,60.64c0.79,0.35,2.11-0.59,2.12-1.67c0.01-2.12-2.63-0.06-2.63-0.06S157.74,60.41,158.24,60.64z"/>
<path class="st4" d="M153.3,49.33c1.07-0.1,2.06-0.2,3.08-0.3c-0.09-0.12-0.2-0.27-0.31-0.43c0.22-0.1,0.4-0.18,0.61-0.27
	C155.2,47.52,154.03,47.85,153.3,49.33z"/>
<path class="st4" d="M162.13,43.9c0.24,0.15,0.44,0.26,0.63,0.38c0.19,0.13,0.36,0.28,0.48,0.38c0.27-0.33,0.47-0.58,0.72-0.88
	c-0.45-0.56-0.82-2.17-1.51-1.88C161.91,42.12,162.22,43.27,162.13,43.9z"/>
<path class="st4" d="M177.91,67.44c-0.04,0.06,0.24,1.42,0.27,1.48c0.18,0.38,0.74-0.81,1.08-0.77c0.07,0.01,0.28-0.24,0.25-0.31
	c-0.1-0.21-0.13-1.45-0.33-1.5C178.83,66.26,178.08,67.18,177.91,67.44z"/>
<path class="st4" d="M158.9,45.17c-0.39,0.15-0.78,0.3-1.16,0.45c0.03,0.08,0.06,0.15,0.1,0.23c0.61,0.3,0.74-0.4,1.17-0.46
	C158.97,45.32,158.94,45.24,158.9,45.17z"/>
<path class="st4" d="M159.13,44.46c-0.13,0.61,1.34,2.24,2.03,2.24c0.07,0,0.13-0.03,0.18-0.04c0.67-1.36-0.67-2.1-1.09-3.14
	c0.33,0.33,0.66,0.66,1,0.99c0.77-0.33,0.92-1.05,0.68-1.56c-0.53-1.13-1.23-1.2-0.73-2c0.06-0.1,0.07-0.23,0.08-0.35
	c0.01-0.32,0.01-0.64,0.02-0.95c0.08-0.01,0.16-0.03,0.24-0.04c-0.31-0.27-0.61-0.53-1.01-0.87c0.13,0.81,0.69,1.59,0.36,2.23
	c-0.73,1.42-2.51,0.56-3.82,0.86c0.3,0.21,0.63,0.51,1.02,0.71C159.23,43.09,159.38,43.34,159.13,44.46z"/>
<path class="st4" d="M158.77,77.78c-0.24-0.27-0.57-0.48-0.82-0.74c-0.58-0.61-1.22-0.97-2.17-0.9c-0.58,0.04-1.18-0.17-1.77-0.25
	c-0.26-0.03-0.52-0.05-0.78-0.03c-1.16,0.07-2.33,0.11-3.48,0.24c-0.61,0.07-1.19,0.31-1.78,0.47c-0.02,0-0.03,0.04-0.05,0.07
	c0.07,0.1,0.13,0.2,0.23,0.34c-0.7,0.33-1.28-0.14-1.96,0.18c-0.2,0.21-0.66,0.98-1.24,0.85c-0.35-0.08-0.18,1.01-0.49,1
	c-1.21-0.06-1.05,1.25-1.92,1.49c-0.04,0.95-1.15,0.22-1.67,0.82c-0.1,0.11-1.02,0.94-1.81,1.55c0.03,0.18,0.06,0.36,0.1,0.54
	c0.36-0.07,0.69-0.13,0.86-0.14c0.11-0.01,0.23-0.05,0.31-0.11c0.69-0.5,1.1,0.25,1.73,0.82c0.51,0.47,1.23-0.32,1.56-0.93
	c0.27-0.51,0.54-0.53,0.93-0.06c0.12,0.14-0.01,0.68,0.12,0.8c0.2,0.2,0.63,0.01,0.85,0.19c0.14-0.25,0.34-0.49,0.41-0.76
	c0.06-0.24,0.08-0.58-0.06-0.77c-0.47-0.61-0.01-0.83,0.48-1.28c-0.11-0.24,0.55-0.76,0.56-0.98c0.01-0.24-1-0.6-0.81-0.67
	c0.66-0.26,1.37-0.41,2.13-0.62c0.15-1.01,1.37-0.88,2.25-0.28c0.6,0.41,0.67-0.29,1.25-0.36c0.63-0.08,1.25-0.24,1.88-0.32
	c0.14-0.02,0.39,0.08,0.46,0.19c0.29,0.43,0.52,0.89,0.76,1.31c0.24,0.04,0.48,0.09,0.75,0.13c0.15-0.14,0.31-0.28,0.48-0.44
	c0.15,0.09,0.28,0.15,0.39,0.22c0.4,0.27,0.72,0.51,1.19,0.01c0.33-0.36,0.9-0.53,1.52-0.87C159.08,78.3,158.97,78.01,158.77,77.78z
	"/>
<path class="st4" d="M162.47,47.18c0.43-1.09,0.4-1.2-0.48-1.36C162.13,46.28,161.35,46.91,162.47,47.18z"/>
<path class="st4" d="M169.29,76.13c-0.05-0.05-0.09-0.1-0.14-0.15c-0.22,0.15-0.52,0.26-0.65,0.46c-0.51,0.84-1.32,1.02-2.16,0.42
	c0.48-0.97,0.44-1.27-0.14-1.71c-0.01,0.7-0.07,1.49,0,2.26c0.02,0.24,0.41,0.68,0.56,0.66c1.11-0.16,2.19-0.41,3.29-0.63
	c0-0.07,0.01-0.13,0.01-0.2c-0.38-0.24-0.77-0.49-1.2-0.77C168.98,76.38,169.14,76.25,169.29,76.13z"/>
<path class="st4" d="M178.54,75.19c-1.1,0.1-1.69-0.33-1.22-1.26c0.03-0.06-0.02-0.16-0.06-0.47c-0.72,0.46-1.3,0.83-1.88,1.2
	c0.11,0.44,0.21,0.86,0.31,1.24c1.49,0.09,2.95,1.02,4.58,0.56c-0.05-0.53-0.09-1.02-0.13-1.52
	C179.57,75.03,179.06,75.14,178.54,75.19z"/>
<path class="st4" d="M166.93,58.71c0.24,0.08,0.44-0.16,0.63-0.24c0.53-0.23,0.62-0.83,0.08-1.03c-0.81-0.31-1.72-1.04-2.58-1.21
	c-0.64-0.12-0.41,0.74-0.41,0.86c-0.02,0.57,0.03,1.15,0.06,1.73c0.07,0.04,0.14,0.08,0.21,0.12c0.24-0.21,0.55-0.38,0.72-0.63
	c0.32-0.46,0.49-0.5,0.9-0.07C166.67,58.37,166.72,58.65,166.93,58.71z"/>
<path class="st4" d="M157.45,88.87c-0.04,0.04-0.08,0.08-0.11,0.12c0.4,0.36,0.79,0.73,1.3,1.2c0.01-0.39,0.01-4.47,0.01-4.69
	C158.21,85.32,157.83,89.02,157.45,88.87z"/>
<path class="st4" d="M155.69,46.36c-0.35,0.07-0.43,0.89-0.36,0.94c0.47,0.31,1,0.52,1.56,0.78c0.11-0.38,0.17-0.57,0.23-0.77
	c0.24,0.02,0.53,0.3,0.66,0.05c0.13-0.24-0.16-0.48-0.25-0.72C156.56,47.42,156.81,46.13,155.69,46.36z"/>
<path class="st4" d="M148.47,46.05c-0.23-0.24-0.46-0.47-0.82-0.84c-0.14,0.42-0.24,0.75-0.37,1.07c-0.1,0.27-0.23,0.53-0.34,0.79
	c0.46,0.16,0.91,0.31,1.42,0.48C148.4,47,148.44,46.51,148.47,46.05z"/>
<path class="st1" d="M198.76,85.29c0.12-0.06,0.22-0.16,0.32-0.23c-0.36-0.79-0.24-1.61-0.58-2.42c-0.49-1.14-0.73-2.39-1.12-3.59
	c-0.16-0.5-0.37-0.95-1.07-1.01c-0.53-0.05-1.04-0.18-1.45-0.25c0.2-0.77,0.46-1.39,0.51-2.02c0.05-0.7-0.49-1.03-1.24-0.87
	c-0.42,0.09-0.83,0.25-1.26,0.38c-0.03-0.21-0.04-0.42-0.07-0.6c0.1-0.14,0.19-0.27,0.29-0.35c0.31-0.24,0.7-0.66,0.58-0.88
	c-0.12-0.22-0.49-0.28-0.87-0.53c-0.37-0.26-0.08-0.11,0.29-1.06c0.37-0.95,0.37,0.12,1.11,0c0.74-0.12,0.25-0.58-0.16-0.82
	c-0.41-0.25-0.25-0.21-0.66-0.33c-0.41-0.12-0.66-0.74-0.37-1.24c0.29-0.49,0.91,0,1.19,0c0.29,0,0.91-0.58,0.66-1.19
	c-0.25-0.62-0.58,0.29-1.73,0.21c-1.15-0.08-1.61,0.08-2.23-0.82c-0.62-0.9-0.25,0.04-1.07-0.25c-0.09-0.03-0.21-0.05-0.36-0.06
	c0.05-0.3-0.13-0.64-0.18-0.87c-0.08-0.44,0.04-0.51,0.33-0.88c0.29-0.37,0.49-0.21,0.91-0.91c0.41-0.7-0.25-0.49-0.36-0.42
	c-0.12,0.08-0.75,1.24-1.37,1.12s-0.49,0.21-0.86,0.21c-0.37,0-0.45,0-0.78-0.16c-0.33-0.16-0.21-0.45,0.08-0.74
	c0.29-0.28,0.54,0,0.54,0s0.78,0.08,0.99-0.42c0.21-0.5-0.54-0.45-0.54-0.45s-0.62,0.08-1.4,0c0,0,0,0,0,0
	c0.04-0.22-0.14-0.53-0.04-0.74c0.17-0.09,0.45-0.15,0.48-0.27c0.09-0.36,0.27-0.91,0.08-1.09c-0.32-0.31-0.77-0.51-1.21-0.72
	c-0.04-0.22-0.17-0.26-0.21-0.39c0.07-0.07,0.14-0.13,0.18-0.17c-0.02-0.15-0.03-0.27-0.05-0.39c0.32-0.75,0.32-0.19,0.69-0.07
	c0.37,0.12,0.58,0.04,0.75,0c0.17-0.04,0.32-0.62,0-1.06c-0.32-0.44-0.38-0.05-0.46-0.26c-0.08-0.21-0.04-0.16-0.74-0.45
	c-0.55-0.23-0.55-0.02-0.83,0.02c-0.14-0.3-0.17-0.61,0.09-0.98c0.06-0.09-0.08-0.28-0.11-0.43c0,0,0.97-0.01,1.13,0.24
	c0.16,0.25,0.87-0.29,0.91-0.41c0.04-0.12-0.08-0.74-0.62-0.91c-0.54-0.16-0.87-0.41-0.95-0.66c-0.03-0.09-0.17-0.18-0.36-0.26
	c0.57-0.07,0.41-0.51,0.2-0.62c-0.42-0.23-0.59-0.72-0.95-1.01c0,0,0,0,0-0.01c0.13-0.34,1.27-0.28,1.31-0.65
	c0.04-0.37-0.08-0.21-0.7-0.31c-0.62-0.1-0.95,0.1-1.32-0.23c-0.18-0.16-0.47-0.04-0.73,0.12c-0.03,0-0.06-0.02-0.09-0.01
	c-0.17,0.02-0.8-0.53-2.26-0.29c-0.1-0.24-0.25-0.47-0.21-0.6c0.08-0.25,0.29-0.66,0.04-0.95c-0.14-0.16-0.54-0.28-0.84-0.38
	c0.01-0.09,0.01-0.17,0-0.25c0.23,0,0.54,0.03,0.8,0.06c0.45,0.04,1.03-0.08,1.32-0.37c0.29-0.29,0.49-0.33,0.37-0.49
	c-0.13-0.16-1.07-0.08-1.89-0.58c-0.82-0.49,0.12-0.18,0.12-0.18s0.33-0.52-0.16-0.87c-0.49-0.35-0.49-0.14-0.66-0.45
	c-0.16-0.31-0.37-0.56-0.25-0.83c0.12-0.27,0.82,0.31,1.07,0.4s0.49,0.2,1.24,0.37c0.74,0.17,0.49-0.04,0.49-0.2
	s-0.16-0.59-1.03-0.68c-0.87-0.09-0.25-0.03-0.91-0.27c-0.66-0.24-0.33-0.38-0.25-0.67c0.08-0.29-0.04-0.21-0.21-0.63
	c-0.16-0.43-0.16-0.15-0.59,0c-0.42,0.15-0.16,0.22-0.8,0.76c-0.65,0.54-0.22,0.04-0.63-0.46c-0.41-0.5,0.16-0.69-0.17-0.64
	s-0.57-0.05-1.27,0.53c-0.14,0.12-0.43,0.14-0.78,0.1c0.08-0.31,0.16-0.6,0.25-0.95c-0.03,0-0.05-0.01-0.07-0.01
	c-0.02-0.13,0-0.24,0.44-0.58c0.69-0.54,0.54-0.04,0.7-0.39c0.16-0.35,0.13-0.39,0.29-0.73c0.16-0.34,0.37,0.01,0.66,0.42
	c0.29,0.41,0.58,0.33,1.2,0.21c0.62-0.12,0.49-0.49,0.33-0.99c-0.16-0.49-0.49,0.25-0.95,0c-0.45-0.25,0,0-0.19-0.37
	c-0.19-0.37-0.22-0.08-0.8-0.41c-0.58-0.33-0.45,0.16-0.54,0c-0.09-0.16-0.49-0.82-0.41-1.11c0.08-0.29,1.07,0.45,1.57,0.25
	c0.49-0.21-0.12-0.58-0.62-0.95c-0.49-0.37-0.21,0.12-0.54,0c-0.33-0.12-0.57-0.41-0.57-0.7c0-0.29,0.29-0.21,0.57-0.29
	c0.29-0.08,0.13-0.45-0.49-0.7s-0.49,0.13-0.82,0c-0.33-0.13-0.49-0.2-0.49-0.78c0-0.58,0.25-0.7,0-0.99
	c-0.25-0.29-0.78,0.16-0.91,0.16c-0.12,0-0.82-0.33-0.74-0.52s0.41-0.76,0-1.07c-0.41-0.31-0.12,0.23-0.74,0.97
	c-0.62,0.74-0.49,0.41-1.19,0.33c-0.7-0.08-0.25,0.08-0.69,0.75c-0.25-0.21-0.49-0.41-0.74-0.63c0.03-0.07,0.1-0.24,0.17-0.42
	c-0.17-0.09-0.43-0.15-0.44-0.24c-0.04-0.25-0.03-0.52,0.06-0.75c0.03-0.07,0.44-0.05,0.64,0.02c0.37,0.13,0.71,0.34,1.07,0.51
	c0.18-0.34,0.39-0.68,0.52-1.03c0.1-0.26-0.02-0.68,0.15-0.81c0.84-0.61,0.21-0.81-0.3-1.09c-0.07-0.04-0.1-0.14-0.15-0.2
	c0.19-0.29,0.32-0.59,0.23-0.84c-0.04-0.12-0.58-0.25-0.73-0.16c-0.52,0.32-0.88,0.15-1.25-0.19c-0.09-0.08-0.25-0.1-0.54-0.2
	c0.12,0.38,0.19,0.63,0.28,0.92c-0.22-0.15-0.38-0.26-0.51-0.35c-0.52,0.11-0.14,1.02-0.99,0.8c0.06-0.19,0.12-0.34,0.17-0.48
	c-0.81-0.45-1.43-0.24-1.93,0.39c-0.55-0.67-1.61-0.81-1.66-1.89c-0.01,0.03-0.02,0.05-0.03,0.06c0-0.01,0-0.01,0.01-0.01
	c0.09-0.22,0.32-0.51,0.24-0.63c-0.22-0.31-0.55-0.58-0.89-0.79c-0.05-0.03-0.36,0.32-0.58,0.46c-0.22,0.13-0.47,0.21-0.71,0.31
	c-0.03-0.07-0.06-0.13-0.09-0.2c0.12-0.06,0.27-0.1,0.35-0.19c0.11-0.12,0.17-0.27,0.24-0.41c-0.18-0.06-0.36-0.15-0.55-0.17
	c-0.33-0.03-0.66,0-0.99,0c0.1-0.29,0.2-0.58,0.29-0.88c0.01-0.04-0.01-0.08-0.02-0.12c-0.73-0.17-2.09,0.54-2.35,1.17
	c0.21,0.36,0.39,0.66,0.58,0.97c-0.31-0.05-0.85,0.33-0.89,0.57c-0.46,0.16-0.97,0.33-1.47,0.51c-0.3,0.11-0.3,0.48-0.03,0.56
	c0.12,0.03,0.3,0.09,0.33,0.17c0.03,0.09-0.11,0.32-0.14,0.31c-0.4-0.06-0.79-0.15-1.18-0.22c-0.2-0.04-0.43-0.11-0.64-0.16l0,0
	c-0.44-0.46-0.63-0.76-0.77-1.04c-0.14-0.27-0.85-0.55-0.71-0.16c0.14,0.38,0.18,0.71,0.21,0.78c0.03,0.07,0.16,0.45-0.23,0.23
	c-0.39-0.22-1.03-0.8-1.03-0.8s-0.71-0.11-0.38,0.29c0.33,0.4,0.44,0.59,0.52,0.81c0.08,0.22-0.25,0.55-0.33,0.55
	c-0.08,0-0.74-0.03-0.82-0.22c-0.08-0.19-0.33-0.45-0.47-0.44c-0.14,0-0.47-0.16-0.63-0.16c-0.16,0-0.44-0.19-0.44,0
	c0,0.19,0.05,0.38-0.16,0.6c-0.22,0.22-0.21-0.08-0.44,0.22c-0.15,0.2-0.34,0.18-0.44,0.23c-0.32-0.06-0.64,0.09-0.77,0.45
	c-0.08,0.21-0.08,0.5,0.01,0.7c0.03,0.06,0.03,0.11,0.05,0.17c-0.27-0.05-0.55-0.12-0.83-0.23c-1.07-0.41-1.91-0.07-1.21,0.16
	c0.69,0.23,1.78,0.22,2.09,0.65c-0.06,0.2-0.21,0.39-0.45,0.57c-0.21,0.16-0.47,0.37-0.41,0.57c0,0,0,0,0,0
	c-0.73,0.14-2.16,0.31-1.11,0.64c1.04,0.33,1.13,0.38,1.26,0.38c0.09,0,0.31-0.11,0.57-0.16c0.13,0.17,0.42,0.2,0.67,0.29
	c0.18,0.07,0.21,0.51,0.2,0.7c-0.04,0.01-0.08,0.01-0.12,0.01c-0.32-0.22-0.49-0.2-0.59-0.06c-0.03,0-0.06-0.01-0.09-0.01
	c-0.36-0.05-0.52-0.39-0.8,0.08c-0.27,0.47-1.09,0.53-1.47,0.39c-0.37-0.14-0.92,0.08-0.51,0.33c0.41,0.25,1.27,0.16,1.53,0.27
	c0.26,0.11,0.38,0.58,0.3,0.71c-0.07,0.14-0.27,0.25-0.68,0c-0.41-0.25-0.77-0.38-0.74,0c0.03,0.38,0.99,0.37,1,0.51
	c0.01,0.14,0.52,0.39,0.42,0.56c-0.1,0.16-0.23,0.3-0.3,0.3c-0.07,0-1.06-0.36-1.06-0.36s-0.58,0.05-0.96-0.11
	c-0.38-0.16-0.47-0.51-0.77-0.39c-0.3,0.12-0.05,0.56,0,0.67c0.05,0.11-0.16,0.3-0.15,0.33c0.01,0.03-0.54-0.49-0.62,0
	c-0.08,0.49-0.14,0.38-0.19,0.71c-0.04,0.22,0.1,0.42,0.31,0.55c-0.19,0.34-0.02,0.68,0.53,0.96c0.65,0.33,0.47,0.69,0.14,1.24
	c-0.13-0.32-0.16-0.55-0.3-0.7c-0.14-0.16-0.39-0.24-0.59-0.35c-0.12,0.18-0.32,0.35-0.35,0.55c-0.03,0.2,0.16,0.43,0.14,0.63
	c-0.02,0.26-0.16,0.51-0.25,0.76c-0.29-0.09-0.6-0.15-0.87-0.27c-0.21-0.09-0.94,0.42-0.81,0.73c0.25,0.62,0.6,1.23,1.01,1.78
	c0.17,0.23,0.63,0.45,0.89,0.4c0.46-0.09,0.87-0.38,1.3-0.59c0.02,0.21-0.08,0.28-0.11,0.37c-0.09,0.22-0.15,0.46-0.22,0.68
	c0.23,0.06,0.46,0.17,0.68,0.15c0.24-0.02,0.46-0.15,0.69-0.24c-0.39,0.51-0.37,1,0.04,1.54c0.15,0.19,0.13,0.5,0.15,0.76
	c0.04,0.38,0.04,0.77,0.06,1.21c-0.93-0.18-0.38,0.7-0.93,1.09c-0.05-0.17-0.1-0.34-0.14-0.46c-0.29,0.23-0.54,0.4-0.75,0.57l0,0
	c-0.02-0.66-0.52-0.99-0.52-0.99s-0.66-1.03-0.66,0s0.82,0.96,0,1.28c-0.82,0.33-1.4,0.33-1.61,0.2c-0.21-0.12-0.66-0.91-0.82-0.54
	c-0.16,0.37,0.12,0.56,0.49,0.96c0.37,0.4,0.54,0.4,0.21,0.73c-0.33,0.33-1.07,0.33-1.07,0.33s-0.45,0.04-0.33,0.58
	c0.12,0.54-0.12,0.87-0.49,0.78c-0.37-0.08-0.9-0.29-0.9-0.29s-0.38-0.49-0.5,0.08c-0.12,0.58-0.66,0.78-0.99,0.99
	c-0.33,0.21-1.28,0.02-1.36,0.3c-0.08,0.28,0.25,1.33-0.29,1.36c-0.54,0.03-0.7-0.38-1.15,0.2c-0.45,0.58-0.45,1.11-0.49,1.4
	c-0.04,0.29-0.7,0.49-0.78,0.91c-0.08,0.41,0.49-0.29,0.78,0.29c0.29,0.58,0.04,0.82-0.12,0.99c-0.16,0.16-0.8,0.2-0.67,0.72
	c0.13,0.52,0.13,0.31,0.5,0.6c0.37,0.29,1.36-0.59,1.48-0.6c0.12-0.02,0.58-0.23,0.78,0c0.21,0.23,0.21,0.85,0.21,0.85
	s0.04-0.21,0.29,0c0.25,0.21,1.19-0.62,1.19-0.62s-0.12-0.62,0.29-0.7c0.41-0.08,0.63-0.37,0.83-0.12c0.2,0.25,0.41,0.62,0.49,0.95
	c0.08,0.33,0.62,0.64,0.78,0.53c0.16-0.12,0.58-0.03,0.58-0.57c0-0.54-0.33-0.95-0.08-1.32c0.2-0.31,0.78-0.7,0.97-0.84
	c0,0.03,0.08,0.08,0.39,0.14c0.13,0.03,0.26,0.05,0.39,0.06c0.02,0.05,0.05,0.11,0.06,0.16c0.02,0.15-0.11,0.31-0.18,0.5
	c0.42,0.04,0.77,0.08,1.22,0.12c0,0.22-0.02,0.43-0.04,0.65c-0.09,0.09-0.19,0.17-0.3,0.22c-0.6,0.29-1.36,0.33-1.5,0.77
	c-0.14,0.43,0.19,0.41,0.66,0.25c0.47-0.16,0.87-0.61,0.82-0.11c-0.04,0.5-0.43,0.58-0.62,0.6c-0.19,0.02-0.6-0.12-0.6,0.23
	s0.31,0.4-0.08,0.47c-0.39,0.07-0.35-0.01-0.66,0c-0.31,0.01-0.78-0.27-0.93,0c-0.14,0.27-0.6,0.64-0.8,0.62
	c-0.21-0.02-0.52-0.19-0.84-0.08c-0.33,0.1-0.74,0.1-0.56,0.41c0.19,0.31,0.29,0.19,0.87,0.19c0.58,0,0.82-0.41,1.06-0.12
	c0.24,0.29,0.17,0.58,0,0.84c-0.17,0.27-0.54,0.27-0.25,0.54c0.29,0.27,0.39,0.29,0.43,0.43c0.04,0.14-0.18,1.48-0.18,1.48
	s-0.15,0.35-0.71,0c-0.56-0.35-0.27-0.66-0.93-0.37c-0.66,0.29-0.58,0.27-0.76,0.41c-0.19,0.14-0.56-0.14-0.66,0.11
	s-0.02,0.59,0.52,0.5c0.54-0.08,0.25-0.21,0.82-0.21c0.58,0,0.76-0.31,1.03,0.06c0.27,0.37,0.21,0.52,0.37,0.54
	c0.16,0.02,0.49-0.19,0.23,0.19c-0.27,0.37-0.39,0.68-0.78,0.72c-0.39,0.04-0.95-0.41-1.03,0s0.04,0.62,0.29,0.68
	c0.25,0.06,0.4-0.41,0.54,0c0.14,0.41-0.46,1.13-0.46,1.13s-0.78,0.12-0.99,0.25c-0.21,0.12-0.7,0.21-0.74,0.32
	c-0.04,0.11-0.58-0.4-0.89,0c-0.31,0.4-0.52,0.15-0.31,0.4s1.4,0.23,1.61,0.29s0.08,0.27-0.19,0.7c-0.27,0.43-0.56,0.39-0.56,0.39
	s-0.68-0.25-0.82,0c-0.14,0.25-0.21,0.23-0.41,0.29c-0.21,0.06-0.54,0.04-0.62,0.16c-0.08,0.12-0.35,0.31,0.16,0.37
	s1.09-0.14,1.26-0.12c0.16,0.02,0.27-0.22,0.29,0.14c0.02,0.36-0.33,0.22-0.29,0.55c0.04,0.33-0.08,0.26,0.23,0.43
	c0.31,0.16,0.23,0.45,0.31,0.62c0.08,0.16,0.41,0,0.7,0.14c0.04,0.02,0.07,0.03,0.1,0.04c-0.08,0.3-0.27,0.67-0.45,0.87
	c-0.27,0.03-0.49,0.05-0.49,0.05s-0.39-0.13-0.68,0c-0.29,0.13-0.54,0.09-0.78,0.19c-0.25,0.1-0.66-0.12-0.76,0.08
	c-0.1,0.21-0.34,0.29,0.28,0.39s0.62-0.27,0.62,0.1c0,0.37-0.06,0.39-0.19,0.43c-0.12,0.04-0.6,0.1-0.72,0.23
	c-0.12,0.12-0.37,0.25-0.04,0.35c0.33,0.1,0.47,0.08,0.7,0.1c0.23,0.02,0.21-0.16,0.35,0c0.14,0.16,0.19,0.1,0.19,0.29
	c0,0.19-0.62,0.35-0.68,0.39c-0.06,0.04-0.37-0.14-0.52,0c-0.14,0.14-0.33-0.04-0.33,0.21c0,0.25,0.3,0.29,0.61,0.31
	c0.31,0.02,0.32-0.05,0.54,0.1c0.22,0.16,0.14,0.91-0.14,1.07c-0.29,0.16-0.54,0.08-0.56,0.31c-0.02,0.23,0.08,0.25,0.43,0.27
	c0.35,0.02,0.35-0.6,0.52,0c0.16,0.6-0.02,0.66,0.16,0.72c0.19,0.06,0.35-0.35,0.43,0c0.08,0.35-0.49,0.68-0.78,0.8
	c-0.29,0.12-0.84,0.16-0.91,0.21c-0.06,0.04-0.45,0.35-0.47,0.56c-0.02,0.21-0.58,0.6-0.58,0.6s0.74,0.02,0.43,0.72
	s-0.47,0.49-0.58,0.78c-0.1,0.29,0.02,0.29,0.29,0.45c0.27,0.16,0.33,0.41,0.21,0.64c-0.12,0.23-0.6,0.33-0.16,0.49
	c0.43,0.16,0.58-0.1,0.64,0.25c0.06,0.35-0.02,0.29-0.08,0.6c-0.06,0.31,0.82,0.06,0.89,0.58c0.06,0.52-0.01,0.76-0.27,0.97
	s-0.49,0.23-0.63,0.35c-0.14,0.12-0.33,0.37-0.33,0.37h0.19c0,0,0.68,0.04,0.89,0c0.21-0.04,0.33,0.04,0.6,0.49s1.22,0.35,1.19,0.87
	c-0.02,0.52-0.35,0.27-0.14,0.8s0.35,0.49,0.45,1.01c0.1,0.52-0.16,0.19,0.04,0.64s0.27,0.54,0.47,0.35
	c0.21-0.19,0.37-0.58,0.37-0.82c0-0.25,0.33-0.97,0.33-0.97s0.44-0.84,0.64-0.87c0.2-0.02,0.76-0.8,0.53,0.27
	c-0.23,1.07-0.04,1.3,0.33,1.19s0.56-0.39,0.76-0.95c0.21-0.56-0.41-1.32,0.35-0.64c0.76,0.68,0.76,0.8,0.74,0.93
	c-0.02,0.12-0.16,0.39-0.19,0.6c-0.02,0.21,0.45,0.14,0.49,0.68c0.04,0.54-0.29,0.76-0.39,0.91c-0.1,0.14-0.31,0.33-0.27,0.62
	c0.04,0.29,0.68,0.52,0.87,0.74c0.19,0.23,0.31,0.25,0.62,0.35c0.31,0.1,0.31,0.21,0.64,0c0.33-0.21,0.51-0.62,0.58-0.68
	c0.07-0.06,0.91-0.74,1.11-1.17c0,0,0,0,0,0c-0.04,0.3-0.05,0.62-0.23,0.78c-0.51,0.45-0.69,0.83-0.3,1.42
	c0.31,0.47,0.49,1.01,0.78,1.5c0.1,0.16,0.35,0.39,0.5,0.37c0.65-0.09,1.23-0.05,1.82,0.28c0.11,0.06,0.5-0.1,0.58-0.25
	c0.17-0.29,0.2-0.65,0.35-0.95c0.06-0.13,0.35-0.33,0.39-0.3c0.46,0.32,0.6-0.14,0.88-0.26c0.32-0.13,0.66-0.23,1-0.31
	c0.21-0.05,0.45-0.1,0.64-0.04c0.56,0.17,1.02-0.92,1.61-0.07c0.01,0.02,0.21-0.02,0.25-0.07c0.25-0.4,0.47-0.82,0.7-1.23
	c0.06-0.11,0.15-0.2,0.26-0.24c0.55-0.21,0.18-0.46-0.08-0.65c-0.62-0.45-1.28-0.87-1.91-1.3c-0.44-0.31-0.81-0.64-0.37-1.17
	c-0.56-0.43-0.54-0.57-0.05-1.03c0.29-0.27,0.65-0.53,0.51-1.04c-0.05-0.17,0.23-0.6,0.3-0.59c0.73,0.13,1.54,0.18,2.14,0.52
	c0.99,0.57,0.93,0.66,1.75,0.23c0.64,0.14,1.17,0.26,1.77,0.39c0,0.34-0.01,0.73-0.02,1.13c0,0.26,0,1.52,0.01,2.53
	c-0.37,0.89-0.78,2.01-0.66,2.41c0.21,0.7,0.21,1.73,0.21,2.14c0,0.25,0.31,0.58,0.66,0.91c0.03,0.78,0.06,1.48,0.06,1.9
	c0.01,1.22,0.02,2.44,0.02,3.67c-0.99-0.83-2.21-1.59-3.67-1.97c-4.3-1.12-16.82,1.21-16.82,1.21s5.79,0.28,8.5,0.09
	s3.22,0.09,3.22,0.09l-5.28,1.68c0,0,4.02-0.75,6.17-1.21c2.15-0.47,1.96-1.12,4.02-0.09c2.06,1.03,2.46,4.3,2.82,5.23
	c0.17,0.44,0.63,0.81,1.07,1.09c0,1.2,0.01,2.39,0.01,3.59c-0.21,0.31-0.41,0.61-0.61,0.88c-1.42,0.53-2.95,1.07-3.55,1.15
	c-1.24,0.16-2.84,0.29-2.84,0.29v0.21c0,0,3.92,0.08,4.89,0.49c0.29,0.12,0.66,0.19,1.03,0.22c0.22,0.19,0.43,0.4,0.59,0.61
	c0.45,0.6,0.48,5.6,0.05,7.69c-0.42,2.09,0.06,10.29-0.55,11.54c-0.61,1.24-0.99,10.16-1.15,11.54s-1.15,10.44-2.09,12.36
	c-0.93,1.92-1.48,5.55-2.8,7.8c-1.32,2.25-2.64,4.62-3.24,7.36c-0.6,2.75-1.98,3.19-4.83,5.49c-2.86,2.31-1.98,1.87-2.75,2.69
	c-0.77,0.82,5.16,0.44,6.18,0.47s2.17-0.25,5.08-0.47c2.91-0.22,3.41,0,5.16-0.28c1.76-0.28,3.79-0.33,5.55-0.82
	c1.76-0.49,2.2,0.05,3.75,0.38c1.55,0.33,4.44,0.82,6.12,1.04s2.71,0.16,4.31,0c1.59-0.16,3.52-0.22,5.55-0.27
	c2.03-0.06,2.64-0.22,2.97-0.33c0.33-0.11-0.16-0.55-1.26-1.04c-1.1-0.49-2.14-1.37-4.08-1.83c-0.56-0.49-1.16-1.05-1.78-1.69
	c-0.19-0.52-0.35-1.09-0.71-1.65c-0.91-1.37-3.32-5.22-4.92-7.14c-0.41-0.5-0.73-0.96-0.97-1.39c-0.38-0.91-0.73-1.86-1.05-2.87
	c-0.28-0.92,0.31-2.14-0.01-4.12c-0.33-2.01-0.49-2.33-1.15-4.09c-0.66-1.76,0.16-4.23,0-5.16c-0.16-0.93-0.38-2.25-0.44-3.41
	c-0.05-1.15,0.44-3.96,0-5.93c-0.44-1.98-0.59-4.82-0.59-4.82s-0.5-1.77-0.45-5.4c0.02-1.65-0.27-3.51-0.57-5.24
	c0.22-0.35,0.3-0.71,0.2-1.35c-0.12-0.82,0-1.36-0.17-2.55c-0.16-1.2,0.04-1.48,0.16-2.55c0.05-0.4-0.24-0.95-0.62-1.49
	c0.06-0.36,0.11-0.69,0.17-1.04c0.16-1.04,0.22-2.91,0.11-4.18c-0.11-1.26-0.22-3.46-0.11-4.72c0.07-0.76-0.43-2.02-0.87-2.96
	c-0.11-2.36-0.21-4.71-0.32-7.07c0.63-0.08,1.47-0.17,2.2-0.15c1.36,0.04,2.84-0.54,2.84-0.54s-0.37,0-1.65,0
	c-0.65,0-2.14-0.19-3.44-0.38c-0.05-1.15-0.1-2.29-0.15-3.44c-0.01-0.22-0.03-1.43-0.05-3.05c0.07-0.1,0.15-0.2,0.23-0.31
	c0.8-1.04,1.75-0.71,1.75-0.71l0.48-0.55l-2.48-0.92c-0.03-2.73-0.05-5.74-0.03-7.22c0.08,0.03,0.21,0.06,0.33,0.13
	c0.67,0.35,1.25,0.34,1.8-0.22c0.41-0.42,0.91-0.76,1.38-1.13c0.64-0.51,2.02-0.6,2.71-0.18c0.09,0.06,0.11,0.21,0.14,0.25
	c-0.56,0.11-1.2,0.08-1.57,0.36c-0.5,0.38-0.69,0.28-0.99-0.36c-0.27,0.43-0.52,0.82-0.76,1.2c-0.23,0.05-0.45,0.13-0.53,0.22
	c-0.19,0.22,0.27,0.27-0.41,0.58c-0.69,0.3-1.18,0.77-0.71,0.77c0.47,0,0.52-0.41,0.82,0c0.3,0.41-0.63,0.82-0.11,0.96
	c0.52,0.14,0.77-0.03,1.15,0c0.38,0.03,0.74-0.49,0.99,0.06c0.25,0.55,0.25,0.74-0.16,0.91c-0.41,0.16-0.8-0.3-0.74,0.22
	c0.05,0.52,0.41,0.44,0.82,0.45c0.41,0.01,0.55-0.51,0.41,0.01c-0.14,0.52-0.3,0.6-0.8,0.69c-0.49,0.08-0.9-0.38-0.86,0.11
	c0.04,0.49,0.97,0.74,1.27,0.74c0.3,0,0.63-0.05,0.55,0.49c-0.08,0.55-0.47,0.99-0.47,0.99s-0.66-0.63-0.69,0
	c-0.03,0.63,1.07,0.55,1.17,0.66c0.1,0.11,0.18,0.19,0.18,0.52c0,0.33-0.41,0.99-0.6,1.51c-0.19,0.52,0.49,0.52,0.74,0.47
	c0.25-0.05,0.25-1.26,0.96-0.82c0.71,0.44,0.82,0.27,0.82,0.6s-0.52,0.8,0.33,0.58c0.85-0.22,0.55-0.58,1.24-0.66
	s0.6-0.68,1.13-0.38s-0.16,0.49-0.36,0.91c-0.19,0.41,0.55-0.19,0.55,0.6c0,0.8-0.25,0.8-0.41,1.26c-0.16,0.47-0.03,0.08,0.63,0.63
	c0.66,0.55,0.58,0.66,0.55,1.18c-0.03,0.52-0.19,0.74,0.44,0.88c0.63,0.14,1.13-0.41,1.81,0c0.69,0.41,0.74,0.66,1.02,0.66
	c0.27,0,0.58-0.36,1.4-0.47c0.82-0.11,0.82-0.27,1.68-0.11c0.85,0.16,1.35,0.6,1.46,0.14c0.11-0.47-0.41-0.66,0-1.18
	c0.41-0.52,0.49-0.08,0.77-0.82c0.27-0.74,0.11-0.77,0-1.35c-0.11-0.58-0.14-0.49,0.15-0.93c0.29-0.44,0.98-0.55,0.51-0.99
	c-0.47-0.44,0.05-0.77-1.04-0.47c-1.1,0.3-1.29,0.41-1.62,0.19c-0.33-0.22-0.91-0.16-1.13-0.74c-0.22-0.58-0.6-1.07-0.82-1.22
	c-0.22-0.15-1.18-0.4-0.6-0.45c0.58-0.05,1.37,0.16,1.7,0.19c0.33,0.03-0.11-0.16,0.22-0.63c0.33-0.47,0.27-0.49,0.47-0.66
	c0.19-0.16,0.11-0.14,0-0.6c-0.11-0.47,0.03-0.69-0.05-1.1c-0.08-0.41-0.38-0.8-0.44-0.91c-0.05-0.11-0.05-0.25-0.08-0.85
	c-0.03-0.6,0.22-1.07-0.22-0.66s-0.93,0.58-1.13,0.58c-0.11,0-0.39,0-0.6-0.08c0.07-0.56,0.21-1.12,0.02-1.73
	c-0.03-0.54-0.16-1.11-0.38-1.46c-0.22-0.35-0.33-0.51-0.49-0.24c-0.13,0.21-0.2,0.46-0.41,0.68c-0.18,0.08-0.39,0.19-0.56,0.25
	l-0.04,0.1c-0.13,0.04-0.25,0.06-0.33,0.01c0.08-0.06,0.17-0.12,0.31-0.16c0.03-0.29,0.2-0.66,0.07-0.87
	c-0.25-0.42-0.34-0.92-0.57-1.36c0,0,0,0,0-0.01c-0.03-0.37,0-0.75-0.39-1.28c-0.38-0.52-0.47-0.82-0.88-0.63
	c-0.41,0.19-0.71,0.33-1.15,0.33s-0.38-0.47-0.8-0.05c-0.41,0.41-1.07,0.71-1.1,1.15c-0.03,0.44-0.16,0.74-0.44,1.02
	c-0.02,0.02-0.04,0.04-0.06,0.06c-0.1,0.01-0.19,0.01-0.29,0.02c-0.14-0.79-1.07-0.77-1.71-1.09c-0.71-0.36-1.47-0.34-2.2,0.04
	c-0.6,0.32-1.21,0.62-1.83,0.89c-0.68,0.3-1.14,0.05-1.16-0.64c-0.02-0.57-0.01-1.14,0.05-1.71c0.1-0.94,1.12-1.43,1.37-2.31
	c0.01-0.03,0.08-0.04,0.13-0.05c2.58-1.08,5.34-1.65,8.11-2.18c0.06-0.01,0.13-0.01,0.2-0.01c1.36,0.16,2.71,0.33,4,0.49
	c-0.08,0.15-0.23,0.39-0.34,0.65c-0.25,0.57-0.28,1.07,0.46,1.43c0.25,0.12,0.41,0.43,0.63,0.68c0.33,0.01,0.73,0.02,1.09,0.03
	c0.09,0.39,0.15,0.74,0.25,1.07c0.22,0.73,0.05,1.21-0.63,1.61c-0.61,0.36-0.6,0.57-0.01,0.98c0.17,0.12,0.39,0.3,0.4,0.47
	c0.07,0.65,0.41,0.68,0.99,0.52c0.39-0.11,0.83-0.07,1.05-0.08c0.45,0.89,0.79,1.56,1.14,2.23c0.22,0.42,0.44,0.83,0.67,1.24
	c-0.05,0.02-0.11,0.04-0.16,0.06c0.47,0.25,0.93,0.51,1.39,0.76c0.52-0.71,0.48-2.27-0.09-2.85c-0.38-0.39-0.35-0.66,0.09-0.93
	c0.08,0.05,0.14,0.07,0.15,0.1c0.16,0.4,0.31,0.75,0.91,0.45c0.56-0.28,0.62-0.58,0.24-1.03c-0.1-0.12-0.21-0.29-0.18-0.42
	c0.05-0.23,0.14-0.55,0.33-0.64c0.28-0.14,1.09,1.1,0.8,1.36c-0.25,0.22-0.42,0.56-0.71,0.71c-0.43,0.22-0.43,0.48-0.13,0.71
	c0.39,0.3,0.86,0.52,1.27,0.79c0.45,0.3,0.89,0.39,1.39,0.1c0.1-0.06,0.31-0.04,0.43,0.02c0.5,0.27,0.92,0.31,1.14-0.23
	c0.36,0.46,0.7,0.9,1.04,1.34c0.22,0.36,0.25,0.82,0.37,1.26c0.2,0.72,0.86,1.23,1.45,1.18c0.5-0.04,1.16-0.77,1.22-1.34
	c0.02-0.14,0.06-0.28,0.09-0.42c1.19,0.23,1.92-0.34,1.68-1.3c-0.12-0.47-0.18-0.86,0.18-1.28c0.12-0.14,0.07-0.54-0.07-0.72
	C198.02,85.9,198.19,85.56,198.76,85.29z M179.48,67.85c0.03,0.07-0.18,0.32-0.25,0.31c-0.34-0.04-0.9,1.15-1.08,0.77
	c-0.03-0.06-0.31-1.43-0.27-1.48c0.17-0.26,0.92-1.18,1.27-1.09C179.36,66.4,179.39,67.63,179.48,67.85z M166.73,33.03
	c-0.15,0.44-0.28,0.83-0.47,1.39C165.88,32.87,165.89,32.83,166.73,33.03z M165.37,32.72c-0.15-0.24-0.31-0.49-0.47-0.74
	c0.92,0.31,0.96,0.7,0.35,1.21c-0.25,0.21-0.36,0.56-0.52,0.83C164.28,33.58,164.35,33.4,165.37,32.72z M162.41,41.9
	c0.7-0.29,1.06,1.32,1.51,1.88c-0.25,0.31-0.45,0.56-0.72,0.88c-0.12-0.09-0.29-0.24-0.48-0.38c-0.18-0.13-0.38-0.23-0.63-0.38
	C162.2,43.27,161.89,42.12,162.41,41.9z M159.3,75.93c-0.55-0.44-1.83-1.35-5.73-0.67c-0.27,0.05-0.54,0.13-0.82,0.19
	c-0.67,0.14-1.33,0.26-2,0.4c-0.03-0.07-0.06-0.14-0.08-0.2c0.15-0.16,0.3-0.32,0.47-0.5c0.57,0.25,1.15,0.48,1.65-0.11
	c0.07-0.08,0.27-0.12,0.4-0.1c0.91,0.1,1.44-0.23,1.45-0.96c0.63-0.11,1.16-0.19,1.88-0.32c0.4,0.23,0.91,0.35,1.25-0.44
	c0.21-0.48,0.6-0.22,0.95-0.02c0.41,0.23,0.86,0.41,1.36,0.65c-0.01,0.5,0.02,1.17-0.04,1.84C160,76.1,159.68,76.24,159.3,75.93z
	 M148.63,49.67c-0.11,0.17-0.33,0.28-0.51,0.42c-0.07-0.02-0.14-0.03-0.21-0.05c0.08-0.3,0.07-0.77,0.27-0.86
	C148.48,49.04,148.97,49.16,148.63,49.67z M157.43,64.54c-0.31,0.1-0.59,0.22-0.88,0.29c-0.37,0.09-0.76,0.29-0.98-0.28
	c-0.05-0.12-0.67-0.19-0.92-0.09c-0.7,0.29-1.34,0.69-2.13,1.11c-0.01,0.07-0.05,0.34-0.11,0.71c-0.22-0.18-0.35-0.29-0.53-0.44
	c-0.17,0.22-0.33,0.43-0.49,0.65c-0.09-0.04-0.17-0.09-0.26-0.13c0.05-0.21,0.03-0.46,0.15-0.62c0.29-0.4,0.64-0.76,1.05-1.24
	c0.13,0,0.47,0.05,0.79,0.01c0.59-0.08,1.03-0.37,1.12-0.94c0.05-0.36,0.07-0.73,0.59-0.73c0.32,0,0.64,0.11,1.05,0.19
	c0.1-0.81,0.95-0.75,1.76-0.96C157.31,62.94,156.84,63.72,157.43,64.54z M156.35,49.03c-1.02,0.1-2.01,0.19-3.08,0.3
	c0.73-1.48,1.91-1.8,3.38-1c-0.21,0.09-0.39,0.17-0.61,0.27C156.15,48.76,156.26,48.91,156.35,49.03z M160.34,58.97
	c0,1.08-1.33,2.02-2.12,1.67c-0.51-0.23-0.52-1.73-0.52-1.73S160.34,56.85,160.34,58.97z M157.81,45.85
	c-0.03-0.08-0.06-0.15-0.1-0.23c0.39-0.15,0.78-0.3,1.16-0.45c0.03,0.07,0.07,0.15,0.1,0.22C158.54,45.45,158.42,46.15,157.81,45.85
	z M162.45,47.18c-1.12-0.27-0.34-0.9-0.48-1.36C162.84,45.98,162.88,46.09,162.45,47.18z M159.97,29.87
	c0.48,0.05,0.95,0.1,1.48,0.16c-0.44,0.63-0.44,0.63-1.66,0.69C159.86,30.41,159.91,30.15,159.97,29.87z M160.86,40.96
	c0.33-0.63-0.23-1.41-0.36-2.23c0.39,0.34,0.7,0.61,1.01,0.87c-0.08,0.01-0.16,0.03-0.24,0.04c0,0.32,0,0.64-0.02,0.95
	c-0.01,0.12-0.02,0.25-0.08,0.35c-0.5,0.8,0.19,0.87,0.73,2c0.24,0.51,0.09,1.23-0.68,1.56c-0.33-0.33-0.67-0.66-1-0.99
	c0.42,1.04,1.76,1.79,1.09,3.14c-0.04,0.01-0.11,0.04-0.18,0.04c-0.69,0-2.16-1.63-2.03-2.24c0.25-1.11,0.09-1.36-1.05-1.94
	c-0.39-0.2-0.72-0.5-1.02-0.71C158.35,41.52,160.12,42.38,160.86,40.96z M157.53,46.64c0.08,0.24,0.37,0.48,0.25,0.72
	c-0.13,0.25-0.42-0.03-0.66-0.05c-0.06,0.19-0.12,0.39-0.23,0.77c-0.56-0.26-1.1-0.48-1.56-0.78c-0.07-0.05,0.01-0.87,0.36-0.94
	C156.79,46.13,156.54,47.42,157.53,46.64z M146.92,47.08c0.11-0.26,0.24-0.53,0.34-0.79c0.12-0.33,0.23-0.66,0.37-1.07
	c0.36,0.37,0.59,0.6,0.82,0.84c-0.03,0.46-0.07,0.94-0.11,1.51C147.83,47.39,147.37,47.24,146.92,47.08z M158.61,90.18
	c-0.51-0.47-0.9-0.83-1.3-1.2c0.04-0.04,0.08-0.08,0.11-0.12c0.38,0.15,0.76-3.55,1.2-3.37C158.62,85.71,158.62,89.79,158.61,90.18z
	 M157.65,79.36c-0.47,0.5-0.79,0.26-1.19-0.01c-0.11-0.08-0.24-0.14-0.39-0.22c-0.17,0.16-0.33,0.31-0.48,0.44
	c-0.27-0.05-0.51-0.09-0.75-0.13c-0.24-0.42-0.47-0.88-0.76-1.31c-0.07-0.11-0.32-0.21-0.46-0.19c-0.63,0.09-1.25,0.25-1.88,0.32
	c-0.58,0.07-0.65,0.77-1.25,0.36c-0.88-0.6-2.1-0.73-2.25,0.28c-0.77,0.21-1.48,0.36-2.13,0.62c-0.19,0.07,0.82,0.43,0.81,0.67
	c-0.01,0.22-0.67,0.73-0.56,0.98c-0.49,0.46-0.95,0.67-0.48,1.28c0.14,0.18,0.12,0.52,0.06,0.77c-0.07,0.27-0.27,0.51-0.41,0.76
	c-0.23-0.18-0.65,0.01-0.85-0.19c-0.13-0.13-0.01-0.66-0.12-0.8c-0.39-0.47-0.65-0.45-0.93,0.06c-0.32,0.6-1.04,1.39-1.56,0.93
	c-0.63-0.57-1.04-1.32-1.73-0.82c-0.08,0.06-0.2,0.1-0.31,0.11c-0.16,0.01-0.5,0.07-0.86,0.14c-0.03-0.18-0.06-0.36-0.1-0.54
	c0.79-0.61,1.71-1.44,1.81-1.55c0.52-0.6,1.63,0.13,1.67-0.82c0.86-0.24,0.71-1.55,1.92-1.49c0.31,0.01,0.14-1.08,0.49-1
	c0.58,0.12,1.04-0.65,1.24-0.85c0.67-0.32,1.26,0.15,1.96-0.18c-0.1-0.15-0.17-0.25-0.23-0.34c0.02-0.03,0.03-0.06,0.05-0.07
	c0.59-0.16,1.17-0.4,1.78-0.47c1.15-0.13,2.32-0.17,3.48-0.24c0.26-0.01,0.52,0,0.78,0.03c0.59,0.08,1.19,0.29,1.77,0.25
	c0.95-0.07,1.59,0.29,2.17,0.9c0.25,0.27,0.58,0.47,0.82,0.74c0.2,0.23,0.31,0.52,0.42,0.72C158.55,78.84,157.99,79.01,157.65,79.36
	z M165.62,58.31c-0.17,0.25-0.48,0.42-0.72,0.63c-0.07-0.04-0.14-0.08-0.21-0.12c-0.03-0.58-0.08-1.15-0.06-1.73
	c0-0.12-0.23-0.99,0.41-0.86c0.86,0.17,1.77,0.9,2.58,1.21c0.54,0.2,0.45,0.81-0.08,1.03c-0.19,0.08-0.39,0.32-0.63,0.24
	c-0.21-0.07-0.26-0.35-0.39-0.48C166.12,57.8,165.95,57.84,165.62,58.31z M170.02,77.45c-1.09,0.22-2.18,0.47-3.29,0.63
	c-0.15,0.02-0.54-0.42-0.56-0.66c-0.06-0.78-0.01-1.56,0-2.26c0.58,0.44,0.62,0.73,0.14,1.71c0.84,0.59,1.65,0.42,2.16-0.42
	c0.12-0.2,0.43-0.31,0.65-0.46c0.05,0.05,0.09,0.1,0.14,0.15c-0.15,0.12-0.31,0.25-0.44,0.35c0.44,0.28,0.82,0.52,1.2,0.77
	C170.03,77.31,170.02,77.38,170.02,77.45z M175.66,75.9c-0.09-0.38-0.2-0.8-0.31-1.24c0.58-0.37,1.16-0.74,1.88-1.2
	c0.04,0.31,0.09,0.4,0.06,0.47c-0.47,0.93,0.12,1.37,1.22,1.26c0.52-0.05,1.03-0.16,1.59-0.26c0.04,0.5,0.09,0.99,0.13,1.52
	C178.62,76.92,177.15,75.99,175.66,75.9z"/>
<path class="st2" d="M263.59,264.13H19.14V13.46h244.45V264.13z M21.3,261.97h240.13V15.62H21.3V261.97z"/>
</svg>
