<?xml version="1.0" encoding="utf-8"?>
<!-- Generator: Adobe Illustrator 26.0.1, SVG Export Plug-In . SVG Version: 6.00 Build 0)  -->
<svg version="1.1" id="Слой_1" xmlns="http://www.w3.org/2000/svg" xmlns:xlink="http://www.w3.org/1999/xlink" x="0px" y="0px"
	 viewBox="0 0 623.62 113.39" style="enable-background:new 0 0 623.62 113.39;" xml:space="preserve">
<style type="text/css">
	.st0{fill:#3C3B6F;}
	.st1{fill:#C51D26;}
</style>
<g>
	<g>
		<path class="st0" d="M108.16,56.78c-1.09-0.76-2.33-1.35-3.74-1.78c-1.4-0.43-2.88-0.8-4.42-1.13c-0.98-0.2-1.9-0.42-2.77-0.65
			c-0.87-0.23-1.64-0.55-2.31-0.94c-0.67-0.39-1.2-0.88-1.59-1.48c-0.39-0.6-0.58-1.36-0.58-2.28c0-1.59,0.59-2.79,1.78-3.59
			c1.19-0.8,2.88-1.2,5.07-1.2c1.52,0,3.15,0.17,4.88,0.5c1.73,0.34,3.54,0.87,5.42,1.62v-5.71c-1.41-0.6-3.1-1.09-5.05-1.47
			c-1.96-0.38-3.9-0.57-5.84-0.57c-1.94,0-3.68,0.23-5.23,0.69c-1.55,0.46-2.9,1.16-4.05,2.09c-1.15,0.93-2.06,2.11-2.73,3.53
			c-0.67,1.42-1.01,3.1-1.01,5.02c0,1.74,0.29,3.19,0.87,4.35c0.58,1.16,1.36,2.12,2.34,2.87c0.98,0.75,2.11,1.34,3.4,1.77
			c1.29,0.43,2.64,0.79,4.05,1.1c1.07,0.22,2.09,0.44,3.06,0.67c0.97,0.23,1.84,0.52,2.62,0.88c0.78,0.36,1.39,0.83,1.85,1.4
			c0.45,0.57,0.68,1.32,0.68,2.24c0,1.05-0.24,1.94-0.73,2.65c-0.49,0.72-1.14,1.28-1.94,1.7c-0.81,0.42-1.72,0.71-2.73,0.88
			c-1.02,0.17-2.05,0.26-3.1,0.26c-1.81,0-3.57-0.18-5.27-0.53c-1.7-0.35-3.45-0.92-5.24-1.7v5.63c1.27,0.71,2.86,1.26,4.77,1.65
			c1.91,0.39,3.85,0.58,5.83,0.58c2.26,0,4.35-0.23,6.25-0.68c1.9-0.45,3.52-1.15,4.85-2.08c1.33-0.93,2.36-2.12,3.08-3.55
			c0.72-1.43,1.09-3.13,1.09-5.08c0-1.9-0.32-3.47-0.95-4.69C110.11,58.53,109.25,57.54,108.16,56.78z"/>
		<polygon class="st0" points="125.74,59.33 140.25,59.33 140.25,53.76 125.74,53.76 125.74,44.35 142.64,44.35 142.64,38.78 
			119.08,38.78 119.08,75.16 143.62,75.16 143.62,69.59 125.74,69.59 		"/>
		<path class="st0" d="M216.75,59.61c0,2.57-0.31,4.59-0.92,6.04c-0.69,1.61-1.69,2.78-3.02,3.5c-1.32,0.72-2.88,1.07-4.67,1.07
			c-1.79,0-3.35-0.36-4.67-1.07c-1.32-0.72-2.33-1.88-3.02-3.5c-0.62-1.45-0.92-3.46-0.92-6.04V38.78h-6.66V60.2
			c0,1.52,0.09,2.9,0.26,4.13c0.17,1.23,0.46,2.36,0.86,3.37c0.49,1.27,1.14,2.41,1.96,3.41c0.82,1.01,1.8,1.86,2.96,2.56
			c1.16,0.7,2.5,1.23,4.02,1.6c1.52,0.37,3.23,0.56,5.14,0.56c1.9,0,3.62-0.19,5.16-0.56c1.54-0.37,2.9-0.91,4.09-1.6
			c1.19-0.7,2.19-1.55,3.02-2.56c0.82-1.01,1.48-2.14,1.97-3.41c0.4-1.02,0.68-2.14,0.86-3.37c0.17-1.23,0.26-2.61,0.26-4.13V38.78
			h-6.66V59.61z"/>
		<path class="st0" d="M261.13,43.37c-1.51-1.67-3.37-2.96-5.57-3.89c-2.2-0.92-4.71-1.39-7.51-1.39c-2.81,0-5.31,0.46-7.51,1.39
			c-2.2,0.92-4.06,2.22-5.57,3.89c-1.51,1.67-2.66,3.66-3.45,5.97c-0.79,2.31-1.18,4.85-1.18,7.63s0.39,5.32,1.18,7.63
			c0.79,2.31,1.94,4.3,3.45,5.97c1.51,1.67,3.37,2.96,5.57,3.89c2.2,0.92,4.7,1.39,7.51,1.39c2.81,0,5.31-0.46,7.51-1.39
			c2.2-0.92,4.06-2.22,5.57-3.89c1.51-1.67,2.66-3.66,3.45-5.97c0.79-2.31,1.18-4.85,1.18-7.63s-0.39-5.32-1.18-7.63
			S262.65,45.04,261.13,43.37z M258.08,62.77c-0.54,1.66-1.3,3.04-2.26,4.13c-0.96,1.1-2.1,1.92-3.42,2.47
			c-1.32,0.55-2.77,0.83-4.35,0.83c-1.58,0-3.03-0.28-4.35-0.83c-1.32-0.55-2.46-1.38-3.42-2.47c-0.96-1.1-1.71-2.47-2.26-4.13
			c-0.54-1.66-0.82-3.59-0.82-5.81c0-2.21,0.27-4.15,0.82-5.81c0.54-1.66,1.29-3.04,2.26-4.15c0.96-1.1,2.1-1.93,3.42-2.47
			c1.32-0.54,2.77-0.82,4.35-0.82c1.58,0,3.03,0.27,4.35,0.82c1.32,0.54,2.46,1.37,3.42,2.47c0.96,1.11,1.71,2.49,2.26,4.15
			c0.54,1.66,0.82,3.59,0.82,5.81C258.89,59.18,258.62,61.12,258.08,62.77z"/>
		<path class="st0" d="M182.9,64.58c0.79-2.31,1.18-4.85,1.18-7.63s-0.39-5.32-1.18-7.63c-0.79-2.31-1.94-4.3-3.45-5.97
			c-1.51-1.67-3.37-2.96-5.57-3.89c-2.2-0.92-4.71-1.39-7.51-1.39c-2.81,0-5.31,0.46-7.51,1.39c-2.2,0.92-4.06,2.22-5.57,3.89
			c-1.51,1.67-2.66,3.66-3.45,5.97c-0.79,2.31-1.18,4.85-1.18,7.63s0.39,5.32,1.18,7.63c0.79,2.31,1.94,4.3,3.45,5.97
			c1.51,1.67,3.37,2.96,5.57,3.89c2.2,0.92,4.7,1.39,7.51,1.39l22.35,0.01l-7.73-7.4C181.74,67.26,182.42,66,182.9,64.58z
			 M162.02,69.37c-1.32-0.55-2.46-1.38-3.42-2.47c-0.96-1.1-1.71-2.47-2.26-4.13c-0.54-1.66-0.82-3.59-0.82-5.81
			c0-2.21,0.27-4.15,0.82-5.8c0.54-1.66,1.29-3.04,2.26-4.15c0.96-1.1,2.1-1.93,3.42-2.47c1.32-0.54,2.77-0.82,4.35-0.82
			c1.58,0,3.03,0.27,4.35,0.82c1.32,0.54,2.46,1.37,3.42,2.47c0.96,1.11,1.71,2.49,2.26,4.15c0.54,1.66,0.82,3.59,0.82,5.8
			c0,2.21-0.27,4.15-0.82,5.81c-0.54,1.66-1.3,3.04-2.26,4.13c-0.96,1.1-2.1,1.92-3.42,2.47c-1.32,0.55-2.77,0.83-4.35,0.83
			C164.79,70.2,163.34,69.92,162.02,69.37z"/>
		<rect x="271.61" y="38.69" class="st0" width="6.66" height="36.38"/>
		<rect x="324.9" y="67.9" class="st0" width="7.31" height="7.26"/>
		<path class="st0" d="M354.05,56.86c-0.96,2.61-1.59,4.34-1.89,5.18c-0.3,0.84-0.78,2.25-1.45,4.23h-0.11
			c-0.67-1.98-1.15-3.38-1.45-4.23c-0.3-0.84-0.93-2.57-1.89-5.18l-6.74-18.08h-7.09l14.21,36.38h5.98l14.21-36.38h-7.04
			L354.05,56.86z"/>
		<polygon class="st0" points="379.38,59.33 393.89,59.33 393.89,53.76 379.38,53.76 379.38,44.35 396.28,44.35 396.28,38.78 
			372.72,38.78 372.72,75.16 397.26,75.16 397.26,69.59 379.38,69.59 		"/>
		<path class="st0" d="M429.46,55.25c0,2.16,0.11,5.6,0.33,10.33h-0.16c-1.63-2.88-3.75-6.18-6.36-9.9l-11.96-16.91h-6.98v36.38
			h6.66V58.68c0-2.45-0.11-5.9-0.33-10.36h0.16c2.23,3.83,4.38,7.19,6.47,10.09l11.85,16.75h6.98V38.78h-6.66V55.25z"/>
		<polygon class="st0" points="441.28,44.35 453.02,44.35 453.02,75.16 459.68,75.16 459.68,44.35 471.39,44.35 471.39,38.78 
			441.28,38.78 		"/>
		<path class="st0" d="M500.3,59.61c0,2.57-0.31,4.59-0.92,6.04c-0.69,1.61-1.69,2.78-3.02,3.5c-1.32,0.72-2.88,1.07-4.67,1.07
			c-1.79,0-3.35-0.36-4.67-1.07c-1.32-0.72-2.33-1.88-3.02-3.5c-0.62-1.45-0.92-3.46-0.92-6.04V38.78h-6.66V60.2
			c0,1.52,0.09,2.9,0.26,4.13c0.17,1.23,0.46,2.36,0.86,3.37c0.49,1.27,1.14,2.41,1.96,3.41c0.81,1.01,1.8,1.86,2.96,2.56
			c1.16,0.7,2.5,1.23,4.02,1.6c1.52,0.37,3.23,0.56,5.14,0.56c1.9,0,3.62-0.19,5.16-0.56c1.54-0.37,2.9-0.91,4.09-1.6
			c1.19-0.7,2.19-1.55,3.02-2.56c0.82-1.01,1.48-2.14,1.97-3.41c0.4-1.02,0.68-2.14,0.86-3.37c0.17-1.23,0.26-2.61,0.26-4.13V38.78
			h-6.66V59.61z"/>
		<path class="st0" d="M533.81,60.1c2.93-0.85,5.1-2.16,6.51-3.93c1.4-1.77,2.11-3.92,2.11-6.46c0-2.43-0.58-4.45-1.74-6.05
			c-1.16-1.6-2.81-2.82-4.95-3.63c-1.12-0.42-2.47-0.73-4.05-0.94c-1.58-0.21-3.28-0.31-5.11-0.31h-11.06v36.38h6.66V61.07h4.57
			l9.89,14.09h7.99L533.81,60.2V60.1z M532.02,54.68c-0.72,0.27-1.62,0.48-2.68,0.61c-1.06,0.14-2.35,0.2-3.87,0.2h-3.29V44.35h4.76
			c1.41,0,2.6,0.07,3.56,0.2c0.96,0.14,1.76,0.35,2.39,0.64c0.98,0.44,1.67,1.03,2.08,1.78c0.41,0.75,0.61,1.62,0.61,2.6
			c0,1.14-0.26,2.15-0.77,3.03C534.28,53.48,533.36,54.18,532.02,54.68z"/>
		<polygon class="st0" points="557.12,59.33 571.64,59.33 571.64,53.76 557.12,53.76 557.12,44.35 574.03,44.35 574.03,38.78 
			550.47,38.78 550.47,75.16 575,75.16 575,69.59 557.12,69.59 		"/>
		<path class="st0" d="M605.85,59.76c-0.63-1.22-1.49-2.22-2.58-2.98c-1.09-0.76-2.33-1.35-3.74-1.78c-1.4-0.43-2.88-0.8-4.42-1.13
			c-0.98-0.2-1.9-0.42-2.77-0.65c-0.87-0.23-1.64-0.55-2.31-0.94c-0.67-0.39-1.2-0.88-1.59-1.48c-0.39-0.6-0.58-1.36-0.58-2.28
			c0-1.59,0.59-2.79,1.78-3.59c1.19-0.8,2.88-1.2,5.07-1.2c1.52,0,3.15,0.17,4.88,0.5c1.73,0.34,3.54,0.87,5.42,1.62v-5.71
			c-1.41-0.6-3.1-1.09-5.05-1.47s-3.9-0.57-5.84-0.57c-1.94,0-3.68,0.23-5.23,0.69c-1.55,0.46-2.9,1.16-4.05,2.09
			c-1.15,0.93-2.06,2.11-2.73,3.53c-0.67,1.42-1.01,3.1-1.01,5.02c0,1.74,0.29,3.19,0.87,4.35c0.58,1.16,1.36,2.12,2.34,2.87
			c0.98,0.75,2.11,1.34,3.4,1.77c1.29,0.43,2.64,0.79,4.05,1.1c1.07,0.22,2.09,0.44,3.06,0.67c0.97,0.23,1.84,0.52,2.62,0.88
			c0.78,0.36,1.39,0.83,1.85,1.4c0.45,0.57,0.68,1.32,0.68,2.24c0,1.05-0.24,1.94-0.73,2.65c-0.49,0.72-1.14,1.28-1.94,1.7
			c-0.81,0.42-1.72,0.71-2.73,0.88c-1.02,0.17-2.05,0.26-3.1,0.26c-1.81,0-3.57-0.18-5.27-0.53c-1.7-0.35-3.45-0.92-5.24-1.7v5.63
			c1.27,0.71,2.86,1.26,4.77,1.65c1.91,0.39,3.85,0.58,5.83,0.58c2.26,0,4.35-0.23,6.25-0.68c1.9-0.45,3.52-1.15,4.85-2.08
			c1.33-0.93,2.36-2.12,3.08-3.55c0.72-1.43,1.09-3.13,1.09-5.08C606.8,62.54,606.48,60.98,605.85,59.76z"/>
		<path class="st0" d="M312.7,41.51c-1.07-0.82-2.23-1.55-3.55-2.11c-2.2-0.92-4.71-1.39-7.51-1.39c-2.81,0-5.31,0.46-7.51,1.39
			c-2.2,0.92-4.06,2.22-5.57,3.89c-1.51,1.67-2.66,3.66-3.45,5.97c-0.79,2.31-1.18,4.85-1.18,7.63c0,2.77,0.39,5.32,1.18,7.63
			c0.79,2.31,1.94,4.3,3.45,5.97c1.51,1.67,3.37,2.96,5.57,3.89c2.2,0.92,4.7,1.39,7.51,1.39c2.81,0,5.31-0.46,7.51-1.39
			c1.32-0.55,2.47-1.29,3.55-2.11v2.81h6.66V38.69h-6.66V41.51z M311.66,62.69c-0.54,1.66-1.3,3.04-2.26,4.13
			c-0.96,1.1-2.1,1.92-3.42,2.47c-1.32,0.55-2.77,0.83-4.35,0.83c-1.58,0-3.03-0.28-4.35-0.83c-1.32-0.55-2.46-1.38-3.42-2.47
			c-0.96-1.1-1.71-2.47-2.26-4.13c-0.54-1.66-0.82-3.59-0.82-5.81c0-2.21,0.27-4.15,0.82-5.81c0.54-1.66,1.29-3.04,2.26-4.15
			c0.96-1.1,2.1-1.93,3.42-2.47c1.32-0.54,2.77-0.82,4.35-0.82c1.58,0,3.03,0.27,4.35,0.82c1.32,0.54,2.46,1.37,3.42,2.47
			c0.96,1.11,1.71,2.49,2.26,4.15c0.54,1.66,0.82,3.59,0.82,5.81C312.48,59.1,312.21,61.03,311.66,62.69z"/>
	</g>
	<polygon class="st0" points="63.83,28.64 64.32,30.16 65.92,30.16 64.63,31.1 65.12,32.62 63.83,31.68 62.53,32.62 63.03,31.1 
		61.73,30.16 63.33,30.16 	"/>
	<polygon class="st0" points="56.5,28.64 57,30.16 58.6,30.16 57.3,31.1 57.8,32.62 56.5,31.68 55.21,32.62 55.7,31.1 54.41,30.16 
		56.01,30.16 	"/>
	<polygon class="st0" points="56.5,21.34 57,22.86 58.6,22.86 57.3,23.8 57.8,25.32 56.5,24.38 55.21,25.32 55.7,23.8 54.41,22.86 
		56.01,22.86 	"/>
	<polygon class="st0" points="63.83,21.35 64.32,22.87 65.92,22.87 64.63,23.81 65.12,25.33 63.83,24.39 62.54,25.33 63.03,23.81 
		61.74,22.87 63.33,22.87 	"/>
	<polygon class="st0" points="49.18,35.91 49.68,37.43 51.28,37.43 49.98,38.37 50.48,39.89 49.18,38.96 47.89,39.89 48.38,38.37 
		47.09,37.43 48.69,37.43 	"/>
	<polygon class="st0" points="49.18,28.64 49.68,30.16 51.28,30.16 49.98,31.1 50.48,32.62 49.18,31.68 47.89,32.62 48.38,31.1 
		47.09,30.16 48.69,30.16 	"/>
	<polygon class="st0" points="49.18,21.33 49.68,22.85 51.28,22.85 49.98,23.79 50.48,25.31 49.18,24.37 47.89,25.31 48.38,23.79 
		47.09,22.85 48.69,22.85 	"/>
	<polygon class="st0" points="41.85,43.19 42.35,44.71 43.95,44.71 42.65,45.65 43.15,47.17 41.85,46.23 40.56,47.17 41.05,45.65 
		39.76,44.71 41.36,44.71 	"/>
	<polygon class="st0" points="41.85,35.92 42.35,37.44 43.95,37.44 42.65,38.38 43.15,39.9 41.85,38.96 40.56,39.9 41.05,38.38 
		39.76,37.44 41.36,37.44 	"/>
	<polygon class="st0" points="41.87,28.65 42.36,30.17 43.96,30.17 42.67,31.11 43.16,32.63 41.87,31.69 40.57,32.63 41.07,31.11 
		39.77,30.17 41.37,30.17 	"/>
	<polygon class="st0" points="41.87,21.34 42.36,22.86 43.96,22.86 42.66,23.8 43.16,25.32 41.87,24.38 40.57,25.32 41.07,23.8 
		39.77,22.86 41.37,22.86 	"/>
	<polygon class="st0" points="34.54,28.65 35.03,30.17 36.63,30.17 35.34,31.11 35.83,32.63 34.54,31.69 33.25,32.63 33.74,31.11 
		32.45,30.17 34.05,30.17 	"/>
	<polygon class="st0" points="34.54,21.34 35.03,22.86 36.63,22.86 35.34,23.8 35.83,25.32 34.54,24.38 33.25,25.32 33.74,23.8 
		32.45,22.86 34.05,22.86 	"/>
	<polygon class="st0" points="34.54,50.53 35.03,52.05 36.63,52.05 35.34,52.99 35.83,54.51 34.54,53.57 33.25,54.51 33.74,52.99 
		32.45,52.05 34.05,52.05 	"/>
	<polygon class="st0" points="34.54,43.19 35.03,44.71 36.63,44.71 35.34,45.65 35.83,47.17 34.54,46.23 33.25,47.17 33.74,45.65 
		32.45,44.71 34.05,44.71 	"/>
	<polygon class="st0" points="34.54,35.92 35.03,37.45 36.63,37.45 35.34,38.38 35.83,39.91 34.54,38.97 33.25,39.91 33.74,38.38 
		32.45,37.45 34.05,37.45 	"/>
	<polygon class="st0" points="56.5,35.91 57,37.43 58.6,37.43 57.3,38.37 57.8,39.89 56.5,38.96 55.21,39.89 55.7,38.37 
		54.41,37.43 56.01,37.43 	"/>
	<polygon class="st0" points="49.18,43.19 49.67,44.71 51.27,44.71 49.98,45.65 50.47,47.17 49.18,46.23 47.88,47.17 48.38,45.65 
		47.08,44.71 48.68,44.71 	"/>
	<polygon class="st0" points="41.86,50.52 42.35,52.04 43.95,52.04 42.66,52.98 43.15,54.5 41.86,53.56 40.57,54.5 41.06,52.98 
		39.77,52.04 41.37,52.04 	"/>
	<polygon class="st0" points="34.54,57.82 35.03,59.34 36.63,59.34 35.34,60.28 35.83,61.8 34.54,60.86 33.25,61.8 33.74,60.28 
		32.45,59.34 34.05,59.34 	"/>
	<polygon class="st1" points="43.16,65.33 42.08,65.33 43.21,63.5 42.06,63.5 43.77,60.72 44.18,60.05 43.58,59.08 41.86,56.29 
		40.14,59.08 38.43,61.86 39.58,61.86 39.58,67.49 39.9,68.01 41.62,70.79 40.48,70.79 41.61,72.63 40.53,72.63 41.61,74.37 
		39.58,74.37 39.58,76.25 31.12,90.73 31.12,92.43 39.51,92.43 39.51,90.73 44.14,76.25 44.14,67.08 42.08,67.08 	"/>
	<polygon class="st1" points="35.82,72.63 34.74,72.63 35.87,70.79 34.76,70.79 36.47,68.01 36.87,67.37 36.25,66.37 34.54,63.59 
		32.82,66.37 31.11,69.16 32.26,69.16 32.26,76.24 17.65,90.73 17.65,92.43 26.04,92.43 26.04,90.73 36.82,76.24 36.82,74.37 
		34.74,74.37 	"/>
	<polygon class="st1" points="50.47,57.97 49.4,57.97 50.53,56.14 49.4,56.14 51.11,53.35 51.49,52.74 50.9,51.78 49.18,49 
		47.47,51.78 45.75,54.56 46.9,54.56 46.9,60.23 47.2,60.72 48.92,63.5 47.82,63.5 48.95,65.33 47.87,65.33 48.95,67.08 46.9,67.08 
		46.9,76.25 44.59,90.73 44.59,92.43 52.98,92.43 52.98,90.73 51.46,76.25 51.46,59.72 49.4,59.72 	"/>
	<polygon class="st1" points="57.8,50.77 56.73,50.77 57.86,48.93 56.73,48.93 58.44,46.15 58.85,45.49 58.22,44.46 56.5,41.67 
		54.79,44.46 53.07,47.24 54.22,47.24 54.22,52.83 54.55,53.35 56.26,56.14 55.13,56.14 56.26,57.97 55.19,57.97 56.26,59.72 
		54.22,59.72 54.22,76.25 58.06,90.73 58.06,92.43 66.45,92.43 66.45,90.73 58.79,76.25 58.79,52.51 56.73,52.51 	"/>
	<polygon class="st1" points="66.11,76.25 66.11,39.97 67.26,39.97 65.54,37.19 63.83,34.41 62.11,37.19 60.39,39.97 61.55,39.97 
		61.55,45.62 61.88,46.15 63.59,48.93 62.46,48.93 63.59,50.77 62.52,50.77 63.59,52.51 61.55,52.51 61.55,76.25 71.53,90.73 
		71.53,92.43 79.92,92.43 79.92,90.73 	"/>
</g>
</svg>
