<?xml version="1.0" encoding="utf-8"?>
<!-- Generator: Adobe Illustrator 26.0.1, SVG Export Plug-In . SVG Version: 6.00 Build 0)  -->
<svg version="1.1" id="Слой_1" xmlns="http://www.w3.org/2000/svg" xmlns:xlink="http://www.w3.org/1999/xlink" x="0px" y="0px"
	 viewBox="0 0 283.46 283.46" style="enable-background:new 0 0 283.46 283.46;" xml:space="preserve">
<style type="text/css">
	.st0{opacity:0.45;fill:#AFFF7B;}
	.st1{opacity:0.45;fill:#FBB03B;}
	.st2{opacity:0.4;fill:#14527E;}
	.st3{fill:#358531;}
	.st4{fill:#FBB03B;}
	.st5{fill:#14527E;}
	.st6{fill:none;}
</style>
<g>
	<path class="st0" d="M220.65,101.78c-0.31,0.05-0.61,0.08-0.92,0.12c0-0.06,0.01-0.12,0.01-0.17c0.04-2.13-0.06-9.91-3.56-9.87
		c-22.52,0.25-45.04,0.41-67.56,0.37c-3.98-0.01-4.94,8.01-5.08,10.74c-0.06,1.19-0.17,4.4,0.36,7.11
		c-0.21,1.28-0.32,2.47-0.36,3.34c-0.13,2.41-0.44,11.08,3.54,11.35c12.04,0.8,24.09,0.03,36.13-0.39
		c5.88-0.21,11.75-0.32,17.63-0.13c6.11,0.2,12.2,0.55,18.26-0.38C225.93,122.82,225.67,101.01,220.65,101.78z"/>
	<path class="st1" d="M252.58,156.82c-0.67,0-1.34,0.01-2.01,0.01c0.04-0.45,0.07-0.86,0.09-1.22c0.13-2.41,0.44-11.09-3.54-11.35
		c-40.13-2.61-80.38-1.81-120.55-0.71c-4,0.11-4.93,7.92-5.08,10.74c-0.03,0.59-0.07,1.74-0.03,3.09c-1.38,2.47-1.79,6.12-1.9,8.22
		c-0.16,3-0.48,10.37,3.54,11.35c5.12,1.24,10.39,1.24,15.63,1.37c5.18,0.13,10.35,0.24,15.53,0.33c10.75,0.19,21.5,0.3,32.26,0.35
		c21.51,0.11,43.02,0.01,64.52-0.1c3.98-0.02,4.94-7.99,5.08-10.74C256.23,165.99,256.5,156.8,252.58,156.82z"/>
	<path class="st2" d="M229.17,207.55c-1.16-0.02-2.32-0.03-3.48-0.04c0.02-3.45-0.39-9.33-3.59-9.43
		c-46.48-1.36-93-1.58-139.49-0.64c-3.99,0.08-4.93,7.94-5.08,10.74c-0.01,0.15-0.02,0.35-0.02,0.57c-1.41,2.58-1.85,6.61-1.94,8.42
		c-0.12,2.2-0.39,11.34,3.54,11.35c49.51,0.08,99.03,0.46,148.53,1.13c3.97,0.05,4.94-8.05,5.08-10.74
		C232.83,216.66,233.11,207.6,229.17,207.55z"/>
	<path class="st0" d="M98.85,98.27c-0.55-1.53-1.82-5.28-4.04-4.94c-4.04,0.62-8.09,1.24-12.13,1.86
		c-5.79,0.89-7.04,10.79-7.28,15.39c-0.19,3.71-0.25,7.78,1.02,11.31c0.55,1.53,1.82,5.28,4.04,4.94c4.04-0.62,8.09-1.24,12.13-1.86
		c5.79-0.89,7.04-10.79,7.28-15.39C100.07,105.88,100.13,101.8,98.85,98.27z"/>
	<path class="st3" d="M60.08,114.28c0,1.07-0.2,2.01-0.6,2.82c-0.4,0.81-0.96,1.49-1.69,2.04s-1.59,0.96-2.59,1.23
		c-1,0.27-2.08,0.41-3.24,0.41c-0.7,0-1.37-0.05-2.01-0.16c-0.64-0.11-1.21-0.24-1.71-0.4c-0.5-0.16-0.93-0.33-1.26-0.49
		c-0.34-0.17-0.58-0.33-0.74-0.47c-0.15-0.15-0.27-0.38-0.36-0.69c-0.08-0.32-0.13-0.78-0.13-1.4c0-0.41,0.01-0.73,0.04-0.98
		c0.03-0.24,0.07-0.44,0.13-0.59c0.06-0.15,0.13-0.24,0.21-0.29c0.08-0.05,0.19-0.07,0.32-0.07c0.15,0,0.38,0.09,0.68,0.26
		c0.3,0.18,0.68,0.37,1.13,0.58c0.45,0.21,0.97,0.41,1.57,0.59c0.6,0.18,1.27,0.27,2.03,0.27c0.48,0,0.9-0.05,1.27-0.15
		c0.37-0.1,0.69-0.24,0.97-0.42c0.27-0.18,0.48-0.41,0.62-0.69c0.14-0.28,0.21-0.6,0.21-0.97c0-0.42-0.13-0.78-0.39-1.08
		c-0.26-0.3-0.6-0.56-1.03-0.79c-0.43-0.22-0.91-0.43-1.45-0.63c-0.54-0.2-1.09-0.41-1.66-0.65c-0.57-0.24-1.12-0.51-1.66-0.82
		c-0.54-0.31-1.02-0.69-1.45-1.14c-0.43-0.45-0.77-0.99-1.03-1.62c-0.26-0.63-0.39-1.39-0.39-2.27c0-0.9,0.18-1.72,0.53-2.47
		c0.35-0.75,0.86-1.39,1.51-1.93c0.66-0.53,1.46-0.95,2.41-1.24c0.95-0.29,2.01-0.44,3.19-0.44c0.59,0,1.16,0.04,1.71,0.13
		c0.55,0.08,1.06,0.19,1.5,0.32c0.45,0.13,0.83,0.26,1.14,0.41s0.53,0.27,0.66,0.38c0.13,0.11,0.23,0.21,0.28,0.32
		c0.06,0.11,0.1,0.23,0.13,0.38c0.03,0.15,0.05,0.33,0.07,0.55c0.02,0.22,0.03,0.49,0.03,0.81c0,0.38-0.01,0.69-0.03,0.93
		c-0.02,0.24-0.06,0.43-0.11,0.57c-0.05,0.14-0.12,0.23-0.2,0.28c-0.08,0.05-0.18,0.07-0.29,0.07c-0.13,0-0.32-0.07-0.59-0.22
		c-0.27-0.15-0.6-0.31-1-0.47c-0.4-0.17-0.86-0.33-1.39-0.47c-0.53-0.15-1.13-0.22-1.8-0.22c-0.48,0-0.89,0.05-1.24,0.15
		c-0.35,0.1-0.64,0.24-0.86,0.42c-0.22,0.18-0.39,0.4-0.5,0.64c-0.11,0.25-0.17,0.51-0.17,0.79c0,0.43,0.13,0.8,0.4,1.09
		c0.27,0.29,0.62,0.55,1.05,0.78c0.43,0.22,0.93,0.43,1.48,0.63c0.55,0.2,1.12,0.41,1.68,0.64s1.13,0.5,1.68,0.81
		c0.55,0.31,1.05,0.69,1.48,1.14c0.43,0.45,0.79,0.99,1.05,1.61C59.95,112.69,60.08,113.43,60.08,114.28z"/>
	<g>
		<path class="st3" d="M39.52,93.55c0.39,0,0.72-0.18,0.92-0.5c0.15-0.25,0.23-0.58,0.23-1.02c0-0.21-0.01-0.38-0.04-0.54
			c-0.03-0.19-0.09-0.36-0.18-0.5c-0.11-0.19-0.25-0.32-0.43-0.41c-0.15-0.08-0.32-0.11-0.5-0.11h-4.76c-0.19,0-0.38,0.03-0.57,0.09
			c-0.2,0.06-0.4,0.17-0.58,0.32c-0.2,0.16-0.35,0.38-0.46,0.65c-0.1,0.25-0.15,0.53-0.15,0.86v33.14c0,0.33,0.05,0.61,0.15,0.86
			c0.11,0.27,0.26,0.49,0.46,0.65c0.18,0.15,0.37,0.25,0.58,0.32c0.19,0.06,0.38,0.09,0.57,0.09h4.76c0.39,0,0.72-0.18,0.92-0.5
			c0.15-0.25,0.23-0.58,0.23-1.02c0-0.21-0.01-0.38-0.04-0.54c-0.03-0.19-0.09-0.36-0.18-0.5c-0.11-0.19-0.26-0.33-0.43-0.41
			c-0.15-0.08-0.32-0.12-0.5-0.12h-2.94V93.55H39.52z"/>
		<path class="st3" d="M72.56,91.5c-0.11-0.26-0.26-0.46-0.44-0.62c-0.18-0.15-0.38-0.27-0.6-0.33c-0.2-0.06-0.39-0.09-0.57-0.09
			H66.2c-0.17,0-0.34,0.04-0.5,0.12c-0.18,0.09-0.32,0.23-0.43,0.41c-0.08,0.14-0.14,0.31-0.18,0.5c-0.03,0.15-0.04,0.33-0.04,0.54
			c0,0.44,0.07,0.77,0.23,1.02c0.2,0.33,0.53,0.5,0.92,0.5h2.96v30.81H66.2c-0.18,0-0.35,0.04-0.5,0.11
			c-0.18,0.09-0.32,0.23-0.43,0.41c-0.08,0.14-0.14,0.31-0.18,0.5c-0.03,0.15-0.04,0.33-0.04,0.54c0,0.44,0.07,0.77,0.23,1.02
			c0.2,0.33,0.53,0.5,0.92,0.5h4.76c0.18,0,0.38-0.03,0.57-0.09c0.22-0.07,0.42-0.18,0.6-0.33c0.18-0.16,0.33-0.36,0.44-0.62
			c0.11-0.25,0.17-0.55,0.17-0.88V92.38C72.73,92.05,72.67,91.75,72.56,91.5z"/>
	</g>
	<path d="M96.3,109.38c0,0.5-0.13,0.85-0.4,1.04s-0.53,0.28-0.78,0.28H82.14c0,1.18,0.12,2.24,0.35,3.2
		c0.23,0.95,0.61,1.77,1.15,2.45c0.53,0.68,1.23,1.2,2.08,1.57c0.86,0.37,1.91,0.55,3.16,0.55c0.88,0,1.68-0.08,2.38-0.23
		c0.7-0.15,1.31-0.33,1.82-0.52c0.51-0.19,0.93-0.36,1.26-0.52c0.33-0.15,0.56-0.23,0.7-0.23c0.08,0,0.16,0.02,0.23,0.06
		s0.13,0.11,0.17,0.2c0.04,0.09,0.07,0.21,0.09,0.35c0.02,0.14,0.03,0.32,0.03,0.53c0,0.1-0.01,0.19-0.02,0.28
		c-0.01,0.09-0.03,0.18-0.05,0.25c-0.02,0.08-0.05,0.15-0.09,0.22c-0.04,0.07-0.1,0.14-0.17,0.21c-0.07,0.07-0.29,0.19-0.65,0.37
		c-0.36,0.18-0.84,0.35-1.43,0.53c-0.59,0.18-1.27,0.33-2.05,0.47c-0.78,0.14-1.62,0.21-2.51,0.21c-1.47,0-2.78-0.22-3.91-0.66
		c-1.14-0.44-2.09-1.09-2.86-1.96s-1.36-1.93-1.76-3.21c-0.4-1.28-0.6-2.76-0.6-4.44c0-1.61,0.21-3.06,0.62-4.33
		c0.41-1.28,1.01-2.36,1.78-3.25c0.77-0.89,1.7-1.57,2.79-2.04c1.09-0.47,2.3-0.7,3.63-0.7c1.43,0,2.65,0.24,3.66,0.72
		c1.01,0.48,1.84,1.12,2.49,1.93c0.65,0.81,1.13,1.74,1.43,2.81c0.3,1.07,0.45,2.19,0.45,3.37V109.38z M93.71,108.64
		c0.04-2.02-0.42-3.6-1.39-4.73c-0.97-1.14-2.38-1.7-4.23-1.7c-0.95,0-1.79,0.18-2.51,0.54c-0.72,0.36-1.33,0.83-1.83,1.42
		s-0.88,1.27-1.15,2.05s-0.42,1.59-0.46,2.43H93.71z"/>
	<path class="st3" d="M109.33,126.48c0,0.33-0.05,0.58-0.14,0.73c-0.09,0.15-0.23,0.23-0.41,0.23h-4.76c-0.13,0-0.26-0.02-0.39-0.07
		s-0.26-0.12-0.38-0.22c-0.12-0.1-0.21-0.24-0.28-0.42c-0.07-0.18-0.11-0.4-0.11-0.66v-34.3c0-0.26,0.04-0.48,0.11-0.66
		c0.07-0.18,0.16-0.32,0.28-0.42c0.12-0.1,0.25-0.17,0.38-0.22s0.26-0.07,0.39-0.07h4.76c0.08,0,0.16,0.02,0.23,0.05
		c0.07,0.04,0.13,0.1,0.18,0.19c0.05,0.09,0.08,0.19,0.11,0.32c0.02,0.12,0.03,0.27,0.03,0.45c0,0.33-0.05,0.58-0.14,0.73
		s-0.23,0.23-0.41,0.23h-3.53v33.12h3.53c0.08,0,0.16,0.02,0.23,0.05c0.07,0.04,0.13,0.1,0.18,0.19c0.05,0.09,0.08,0.19,0.11,0.32
		C109.32,126.16,109.33,126.31,109.33,126.48z"/>
	<path class="st3" d="M129.52,127.43c0,0.08-0.02,0.16-0.06,0.23c-0.04,0.07-0.11,0.13-0.2,0.18c-0.09,0.05-0.22,0.08-0.38,0.11
		s-0.36,0.03-0.6,0.03c-0.25,0-0.46-0.01-0.62-0.03s-0.29-0.06-0.39-0.11c-0.1-0.05-0.16-0.11-0.2-0.18
		c-0.04-0.07-0.05-0.15-0.05-0.23v-10.14c-0.62,0.63-1.2,1.16-1.75,1.6c-0.55,0.43-1.08,0.78-1.6,1.04
		c-0.52,0.26-1.03,0.44-1.55,0.56c-0.51,0.11-1.04,0.17-1.59,0.17c-1.37,0-2.55-0.27-3.51-0.8c-0.97-0.53-1.76-1.25-2.37-2.17
		c-0.61-0.91-1.06-1.98-1.34-3.21c-0.28-1.23-0.42-2.53-0.42-3.9c0-1.61,0.18-3.07,0.53-4.37c0.35-1.3,0.87-2.4,1.56-3.31
		c0.69-0.91,1.54-1.61,2.55-2.1c1.01-0.49,2.18-0.74,3.51-0.74c0.59,0,1.13,0.06,1.63,0.18c0.5,0.12,0.99,0.31,1.47,0.57
		c0.48,0.26,0.97,0.6,1.46,1.01c0.49,0.41,1.02,0.91,1.6,1.48v-2.46c0-0.1,0.02-0.18,0.07-0.25c0.05-0.07,0.12-0.13,0.21-0.17
		s0.21-0.07,0.36-0.09c0.15-0.02,0.33-0.03,0.56-0.03c0.21,0,0.39,0.01,0.53,0.03c0.14,0.02,0.26,0.05,0.35,0.09
		c0.09,0.04,0.15,0.1,0.19,0.17c0.04,0.07,0.05,0.15,0.05,0.25V127.43z M127.02,106.14c-1.05-1.28-2.07-2.25-3.04-2.92
		c-0.97-0.67-2-1.01-3.06-1.01c-0.97,0-1.8,0.23-2.48,0.69c-0.69,0.46-1.25,1.07-1.68,1.83c-0.43,0.76-0.75,1.61-0.95,2.57
		c-0.2,0.95-0.29,1.92-0.29,2.9c0,1.07,0.08,2.1,0.25,3.09c0.17,1,0.46,1.88,0.86,2.65c0.41,0.77,0.95,1.39,1.62,1.86
		c0.67,0.47,1.51,0.7,2.52,0.7c0.5,0,1-0.07,1.47-0.21c0.48-0.14,0.97-0.37,1.47-0.69c0.5-0.32,1.03-0.74,1.57-1.25
		c0.54-0.51,1.12-1.15,1.74-1.9V106.14z"/>
	<path class="st3" d="M139.7,126.07c0,0.26-0.04,0.48-0.12,0.66c-0.08,0.18-0.17,0.32-0.28,0.42c-0.11,0.1-0.24,0.17-0.38,0.22
		s-0.27,0.07-0.4,0.07h-4.76c-0.18,0-0.32-0.08-0.41-0.23c-0.09-0.15-0.14-0.4-0.14-0.73c0-0.17,0.01-0.32,0.03-0.45
		c0.02-0.12,0.06-0.23,0.11-0.32c0.05-0.09,0.11-0.15,0.18-0.19c0.07-0.04,0.15-0.05,0.23-0.05h3.56V92.36h-3.56
		c-0.18,0-0.32-0.08-0.41-0.23c-0.09-0.15-0.14-0.4-0.14-0.73c0-0.17,0.01-0.32,0.03-0.45c0.02-0.12,0.06-0.23,0.11-0.32
		c0.05-0.09,0.11-0.15,0.18-0.19c0.07-0.04,0.15-0.05,0.23-0.05h4.76c0.13,0,0.26,0.02,0.4,0.07s0.27,0.12,0.38,0.22
		c0.11,0.1,0.21,0.24,0.28,0.42c0.08,0.18,0.12,0.4,0.12,0.66V126.07z"/>
	<path d="M161.82,119.85c0,0.08-0.02,0.16-0.05,0.23c-0.04,0.07-0.1,0.13-0.2,0.17c-0.1,0.04-0.22,0.08-0.38,0.11
		c-0.15,0.03-0.34,0.04-0.57,0.04c-0.25,0-0.46-0.01-0.61-0.04c-0.15-0.03-0.27-0.06-0.36-0.11s-0.14-0.1-0.18-0.17
		c-0.04-0.07-0.05-0.15-0.05-0.23v-2.69c-1.09,1.22-2.16,2.1-3.21,2.65c-1.05,0.55-2.09,0.82-3.12,0.82c-1.25,0-2.3-0.21-3.16-0.63
		c-0.86-0.42-1.55-0.99-2.07-1.71c-0.53-0.72-0.9-1.56-1.14-2.51c-0.23-0.95-0.35-2.1-0.35-3.45v-11.51c0-0.08,0.02-0.16,0.05-0.23
		c0.04-0.07,0.1-0.13,0.2-0.18c0.1-0.05,0.23-0.08,0.39-0.11s0.36-0.03,0.6-0.03c0.25,0,0.46,0.01,0.62,0.03s0.29,0.06,0.38,0.11
		c0.09,0.05,0.16,0.11,0.2,0.18c0.04,0.07,0.06,0.15,0.06,0.23v11.28c0,1.18,0.09,2.14,0.27,2.88c0.18,0.74,0.46,1.38,0.82,1.9
		s0.83,0.93,1.4,1.22c0.57,0.29,1.23,0.43,1.99,0.43c0.97,0,1.93-0.34,2.89-1.03c0.96-0.69,1.98-1.7,3.06-3.03v-13.66
		c0-0.08,0.02-0.16,0.05-0.23c0.04-0.07,0.1-0.13,0.2-0.18c0.1-0.05,0.23-0.08,0.39-0.11s0.37-0.03,0.62-0.03
		c0.24,0,0.44,0.01,0.6,0.03s0.29,0.06,0.38,0.11c0.09,0.05,0.16,0.11,0.2,0.18c0.04,0.07,0.06,0.15,0.06,0.23V119.85z"/>
	<path d="M185.71,110.13c0,1.51-0.2,2.91-0.59,4.19c-0.39,1.28-0.98,2.39-1.76,3.32c-0.78,0.94-1.75,1.67-2.91,2.2
		c-1.16,0.53-2.52,0.79-4.06,0.79c-1.49,0-2.79-0.23-3.9-0.7c-1.12-0.47-2.05-1.14-2.8-2.02c-0.75-0.88-1.31-1.94-1.68-3.19
		c-0.37-1.25-0.56-2.66-0.56-4.23c0-1.51,0.19-2.91,0.58-4.19c0.39-1.28,0.97-2.38,1.75-3.31c0.78-0.93,1.75-1.66,2.91-2.18
		c1.16-0.52,2.52-0.78,4.08-0.78c1.49,0,2.79,0.23,3.9,0.69c1.12,0.46,2.04,1.13,2.79,2.01c0.74,0.88,1.3,1.94,1.68,3.19
		C185.52,107.17,185.71,108.57,185.71,110.13z M183.06,110.36c0-1.08-0.11-2.11-0.32-3.09c-0.21-0.98-0.56-1.85-1.05-2.6
		c-0.49-0.75-1.15-1.35-1.98-1.79c-0.83-0.44-1.86-0.66-3.09-0.66c-1.14,0-2.12,0.2-2.95,0.61c-0.83,0.41-1.5,0.97-2.03,1.69
		c-0.53,0.72-0.92,1.58-1.17,2.56c-0.25,0.98-0.38,2.04-0.38,3.18c0,1.09,0.11,2.14,0.32,3.12c0.21,0.99,0.56,1.86,1.05,2.6
		c0.49,0.74,1.15,1.33,1.98,1.77c0.83,0.43,1.86,0.65,3.09,0.65c1.14,0,2.12-0.2,2.95-0.61c0.83-0.41,1.5-0.97,2.03-1.68
		s0.92-1.56,1.17-2.55C182.93,112.58,183.06,111.51,183.06,110.36z"/>
	<path d="M194.21,94.39c0,0.67-0.12,1.13-0.36,1.37c-0.24,0.24-0.67,0.36-1.3,0.36c-0.62,0-1.04-0.12-1.27-0.35
		c-0.23-0.23-0.35-0.68-0.35-1.36c0-0.67,0.12-1.13,0.36-1.37c0.24-0.24,0.67-0.36,1.3-0.36c0.62,0,1.04,0.12,1.27,0.35
		C194.09,93.27,194.21,93.72,194.21,94.39z M193.83,119.85c0,0.08-0.02,0.16-0.06,0.23c-0.04,0.07-0.11,0.13-0.2,0.17
		c-0.09,0.04-0.22,0.08-0.38,0.11c-0.16,0.03-0.37,0.04-0.62,0.04c-0.24,0-0.44-0.01-0.6-0.04c-0.16-0.03-0.29-0.06-0.39-0.11
		c-0.1-0.04-0.16-0.1-0.2-0.17c-0.04-0.07-0.05-0.15-0.05-0.23v-19.04c0-0.08,0.02-0.16,0.05-0.23c0.04-0.07,0.1-0.13,0.2-0.18
		c0.1-0.05,0.23-0.08,0.39-0.11s0.36-0.03,0.6-0.03c0.25,0,0.46,0.01,0.62,0.03s0.29,0.06,0.38,0.11c0.09,0.05,0.16,0.11,0.2,0.18
		c0.04,0.07,0.06,0.15,0.06,0.23V119.85z"/>
	<path d="M214.18,119.85c0,0.14-0.05,0.25-0.14,0.33c-0.09,0.08-0.21,0.13-0.36,0.17c-0.15,0.03-0.35,0.05-0.6,0.05
		c-0.24,0-0.44-0.02-0.61-0.05c-0.17-0.04-0.3-0.09-0.39-0.17c-0.09-0.08-0.14-0.19-0.14-0.33v-2.13c-0.86,0.93-1.8,1.64-2.83,2.15
		c-1.03,0.5-2.1,0.76-3.21,0.76c-1,0-1.89-0.13-2.68-0.39c-0.79-0.26-1.46-0.63-2.01-1.12s-0.97-1.07-1.26-1.76
		c-0.29-0.69-0.44-1.46-0.44-2.31c0-1.05,0.22-1.97,0.65-2.75c0.43-0.78,1.05-1.43,1.85-1.95c0.8-0.52,1.76-0.91,2.88-1.17
		c1.12-0.26,2.37-0.39,3.75-0.39h3.03v-1.64c0-0.81-0.08-1.53-0.25-2.16c-0.17-0.62-0.44-1.15-0.82-1.57
		c-0.38-0.42-0.87-0.74-1.47-0.95s-1.34-0.32-2.21-0.32c-0.84,0-1.6,0.1-2.27,0.31c-0.67,0.2-1.26,0.43-1.77,0.68
		s-0.92,0.48-1.25,0.68c-0.33,0.2-0.56,0.31-0.7,0.31c-0.08,0-0.16-0.01-0.23-0.04c-0.07-0.03-0.13-0.08-0.18-0.16
		c-0.05-0.08-0.08-0.18-0.11-0.29c-0.02-0.12-0.03-0.26-0.03-0.43c0-0.29,0.02-0.53,0.06-0.7c0.04-0.18,0.15-0.35,0.33-0.53
		c0.18-0.18,0.49-0.38,0.94-0.62c0.45-0.24,0.96-0.46,1.55-0.66c0.58-0.2,1.21-0.37,1.88-0.49c0.67-0.13,1.35-0.19,2.02-0.19
		c1.3,0,2.41,0.16,3.3,0.47c0.9,0.32,1.62,0.77,2.18,1.36s0.95,1.32,1.19,2.18c0.24,0.86,0.36,1.84,0.36,2.94V119.85z
		 M211.67,110.87h-3.47c-1.01,0-1.89,0.09-2.65,0.27c-0.76,0.18-1.39,0.45-1.89,0.8c-0.5,0.35-0.88,0.77-1.13,1.26
		c-0.25,0.49-0.37,1.05-0.37,1.68c0,1.09,0.35,1.97,1.04,2.62s1.67,0.98,2.94,0.98c1,0,1.93-0.26,2.79-0.77
		c0.86-0.51,1.78-1.3,2.75-2.37V110.87z"/>
	<path class="st4" d="M62.06,161.36c0,0.65-0.14,1.12-0.43,1.43c-0.29,0.31-0.68,0.46-1.19,0.46H49.02c0,0.8,0.09,1.53,0.28,2.18
		c0.19,0.65,0.49,1.21,0.9,1.66c0.41,0.46,0.95,0.8,1.6,1.04c0.65,0.24,1.43,0.36,2.35,0.36c0.93,0,1.74-0.07,2.44-0.2
		c0.7-0.13,1.31-0.28,1.82-0.44c0.51-0.16,0.94-0.31,1.27-0.44c0.34-0.13,0.61-0.2,0.82-0.2c0.13,0,0.23,0.02,0.32,0.07
		c0.08,0.05,0.15,0.14,0.21,0.26c0.06,0.13,0.09,0.31,0.12,0.54s0.03,0.52,0.03,0.87c0,0.31-0.01,0.57-0.02,0.79
		c-0.01,0.22-0.04,0.4-0.06,0.56c-0.03,0.15-0.07,0.28-0.13,0.39c-0.06,0.11-0.13,0.21-0.22,0.31c-0.09,0.1-0.34,0.23-0.75,0.4
		c-0.41,0.17-0.93,0.33-1.56,0.49c-0.63,0.16-1.35,0.3-2.17,0.42c-0.81,0.12-1.68,0.18-2.61,0.18c-1.67,0-3.13-0.21-4.39-0.63
		c-1.26-0.42-2.3-1.06-3.15-1.91s-1.47-1.94-1.88-3.24c-0.41-1.3-0.62-2.83-0.62-4.59c0-1.67,0.22-3.17,0.65-4.51
		c0.43-1.34,1.07-2.48,1.89-3.41c0.83-0.93,1.83-1.64,3.02-2.14c1.19-0.49,2.52-0.74,4.01-0.74c1.57,0,2.91,0.23,4.03,0.69
		c1.12,0.46,2.03,1.1,2.75,1.93c0.72,0.82,1.24,1.79,1.58,2.91c0.34,1.12,0.5,2.34,0.5,3.66V161.36z M56.93,159.85
		c0.04-1.49-0.26-2.65-0.89-3.5c-0.64-0.85-1.62-1.27-2.96-1.27c-0.67,0-1.26,0.13-1.76,0.38c-0.5,0.25-0.91,0.59-1.24,1.02
		c-0.33,0.43-0.58,0.93-0.76,1.51c-0.18,0.58-0.28,1.2-0.31,1.86H56.93z"/>
	<g>
		<path class="st4" d="M39.52,145.26c0.39,0,0.72-0.18,0.92-0.5c0.15-0.25,0.23-0.58,0.23-1.02c0-0.21-0.01-0.38-0.04-0.54
			c-0.03-0.19-0.09-0.36-0.18-0.5c-0.11-0.18-0.25-0.32-0.43-0.41c-0.15-0.08-0.32-0.11-0.49-0.11h-4.76
			c-0.19,0-0.38,0.03-0.57,0.09c-0.21,0.06-0.4,0.17-0.58,0.32c-0.2,0.16-0.35,0.38-0.46,0.65c-0.1,0.25-0.15,0.53-0.15,0.87v33.14
			c0,0.33,0.05,0.62,0.15,0.86c0.11,0.27,0.26,0.49,0.46,0.65c0.18,0.15,0.37,0.25,0.58,0.32c0.19,0.06,0.38,0.09,0.57,0.09h4.76
			c0.39,0,0.72-0.18,0.92-0.5c0.15-0.25,0.23-0.58,0.23-1.02c0-0.21-0.01-0.38-0.04-0.54c-0.03-0.19-0.09-0.36-0.18-0.51
			c-0.11-0.18-0.25-0.32-0.43-0.41c-0.15-0.08-0.32-0.12-0.5-0.12h-2.94v-30.81H39.52z"/>
		<path class="st4" d="M72.58,143.21c-0.11-0.26-0.26-0.46-0.44-0.62c-0.18-0.15-0.38-0.27-0.6-0.33c-0.2-0.06-0.39-0.09-0.57-0.09
			h-4.76c-0.17,0-0.34,0.04-0.5,0.12c-0.18,0.09-0.32,0.23-0.43,0.41c-0.08,0.14-0.14,0.31-0.18,0.51
			c-0.03,0.15-0.04,0.33-0.04,0.54c0,0.45,0.07,0.77,0.23,1.02c0.2,0.33,0.53,0.5,0.92,0.5h2.96v30.81h-2.96
			c-0.18,0-0.35,0.04-0.5,0.12c-0.18,0.09-0.32,0.23-0.43,0.41c-0.09,0.14-0.15,0.31-0.18,0.51c-0.03,0.15-0.04,0.33-0.04,0.54
			c0,0.45,0.07,0.77,0.23,1.02c0.2,0.33,0.53,0.5,0.92,0.5h4.76c0.18,0,0.38-0.03,0.57-0.09c0.22-0.07,0.42-0.18,0.6-0.33
			c0.18-0.16,0.33-0.36,0.44-0.62c0.11-0.25,0.17-0.55,0.17-0.88v-33.14C72.74,143.76,72.69,143.46,72.58,143.21z"/>
	</g>
	<path class="st4" d="M85.9,178.21c0,0.33-0.05,0.58-0.14,0.73c-0.09,0.15-0.23,0.23-0.41,0.23H80.6c-0.13,0-0.26-0.02-0.39-0.07
		c-0.13-0.04-0.26-0.12-0.38-0.22c-0.12-0.1-0.21-0.24-0.28-0.42c-0.07-0.18-0.11-0.4-0.11-0.66v-34.27c0-0.26,0.03-0.48,0.11-0.66
		c0.07-0.18,0.16-0.32,0.28-0.42c0.12-0.1,0.24-0.17,0.38-0.22c0.13-0.04,0.26-0.07,0.39-0.07h4.76c0.08,0,0.16,0.02,0.23,0.05
		c0.07,0.04,0.13,0.1,0.18,0.18c0.05,0.09,0.08,0.19,0.11,0.32c0.02,0.12,0.03,0.27,0.03,0.45c0,0.33-0.05,0.58-0.14,0.73
		c-0.09,0.15-0.23,0.23-0.41,0.23h-3.53v33.09h3.53c0.08,0,0.16,0.02,0.23,0.05c0.07,0.04,0.13,0.1,0.18,0.18
		c0.05,0.09,0.08,0.19,0.11,0.32S85.9,178.04,85.9,178.21z"/>
	<path class="st4" d="M105.67,171.19c0.11,0.17,0.17,0.31,0.18,0.43c0.01,0.12-0.04,0.22-0.14,0.29c-0.1,0.08-0.25,0.13-0.45,0.17
		c-0.2,0.04-0.46,0.05-0.77,0.05c-0.29,0-0.53-0.01-0.7-0.03c-0.18-0.02-0.32-0.05-0.42-0.09c-0.11-0.04-0.19-0.1-0.25-0.17
		c-0.06-0.07-0.12-0.15-0.18-0.23l-5.13-7.95l-5.11,7.95c-0.06,0.08-0.12,0.16-0.18,0.23c-0.06,0.07-0.15,0.13-0.26,0.17
		c-0.11,0.04-0.26,0.07-0.43,0.09c-0.18,0.02-0.4,0.03-0.68,0.03c-0.29,0-0.54-0.02-0.74-0.05c-0.2-0.04-0.34-0.09-0.43-0.17
		c-0.09-0.08-0.13-0.18-0.13-0.29c0.01-0.12,0.07-0.26,0.2-0.43l6.27-9.24l-5.98-9.03c-0.11-0.17-0.17-0.31-0.18-0.43
		c-0.01-0.12,0.04-0.22,0.15-0.29c0.11-0.08,0.26-0.13,0.47-0.16c0.21-0.03,0.47-0.04,0.78-0.04c0.29,0,0.53,0.01,0.7,0.03
		c0.18,0.02,0.31,0.05,0.41,0.09c0.1,0.04,0.18,0.09,0.23,0.16c0.06,0.06,0.11,0.14,0.17,0.22l4.84,7.45l4.97-7.45
		c0.06-0.08,0.11-0.16,0.17-0.22c0.06-0.06,0.13-0.12,0.22-0.16c0.09-0.04,0.22-0.07,0.38-0.09c0.16-0.02,0.38-0.03,0.66-0.03
		c0.29,0,0.54,0.01,0.75,0.04c0.2,0.03,0.35,0.08,0.45,0.15c0.1,0.07,0.14,0.17,0.14,0.28c-0.01,0.12-0.07,0.27-0.2,0.45l-6.02,8.94
		L105.67,171.19z"/>
	<path class="st4" d="M116.27,177.8c0,0.26-0.04,0.48-0.12,0.66c-0.08,0.18-0.17,0.32-0.28,0.42c-0.11,0.1-0.24,0.17-0.38,0.22
		c-0.14,0.04-0.27,0.07-0.4,0.07h-4.76c-0.18,0-0.32-0.08-0.41-0.23c-0.09-0.15-0.14-0.4-0.14-0.73c0-0.17,0.01-0.32,0.03-0.45
		s0.06-0.23,0.11-0.32c0.05-0.09,0.11-0.15,0.18-0.18c0.07-0.04,0.15-0.05,0.23-0.05h3.56v-33.09h-3.56c-0.18,0-0.32-0.08-0.41-0.23
		c-0.09-0.15-0.14-0.39-0.14-0.73c0-0.17,0.01-0.32,0.03-0.45c0.02-0.12,0.06-0.23,0.11-0.32c0.05-0.09,0.11-0.15,0.18-0.18
		c0.07-0.04,0.15-0.05,0.23-0.05h4.76c0.13,0,0.26,0.02,0.4,0.07c0.14,0.04,0.27,0.12,0.38,0.22c0.11,0.1,0.21,0.24,0.28,0.42
		c0.08,0.18,0.12,0.4,0.12,0.66V177.8z"/>
	<path d="M137.66,168.76c0,0.17-0.01,0.32-0.02,0.45c-0.01,0.13-0.04,0.25-0.06,0.35c-0.03,0.1-0.07,0.19-0.12,0.26
		c-0.05,0.08-0.17,0.21-0.35,0.39c-0.18,0.18-0.49,0.41-0.92,0.69c-0.43,0.28-0.91,0.53-1.44,0.74c-0.53,0.21-1.11,0.38-1.73,0.52
		c-0.62,0.13-1.26,0.2-1.91,0.2c-1.32,0-2.49-0.22-3.5-0.66c-1.02-0.44-1.87-1.09-2.56-1.96c-0.69-0.86-1.21-1.92-1.57-3.18
		c-0.36-1.25-0.54-2.7-0.54-4.35c0-1.85,0.22-3.44,0.66-4.76c0.44-1.32,1.05-2.4,1.82-3.24c0.77-0.84,1.67-1.46,2.7-1.86
		c1.03-0.4,2.14-0.6,3.31-0.6c0.63,0,1.23,0.06,1.81,0.18c0.58,0.12,1.1,0.28,1.59,0.47c0.48,0.2,0.92,0.42,1.29,0.67
		c0.38,0.25,0.66,0.47,0.83,0.64c0.18,0.18,0.29,0.31,0.36,0.4c0.06,0.09,0.11,0.19,0.15,0.31c0.03,0.11,0.06,0.23,0.07,0.37
		c0.01,0.13,0.02,0.29,0.02,0.47c0,0.41-0.06,0.69-0.18,0.85c-0.12,0.16-0.25,0.24-0.39,0.24c-0.2,0-0.44-0.13-0.73-0.38
		c-0.29-0.25-0.66-0.53-1.1-0.83c-0.45-0.3-0.99-0.58-1.63-0.83c-0.64-0.25-1.4-0.38-2.28-0.38c-1.82,0-3.23,0.7-4.22,2.1
		c-0.99,1.4-1.48,3.43-1.48,6.08c0,1.33,0.13,2.5,0.4,3.5c0.27,1,0.65,1.84,1.15,2.5c0.5,0.67,1.1,1.16,1.82,1.49
		c0.72,0.33,1.52,0.49,2.42,0.49c0.84,0,1.59-0.13,2.23-0.4c0.64-0.27,1.21-0.56,1.68-0.88c0.48-0.32,0.87-0.62,1.19-0.88
		c0.32-0.27,0.55-0.4,0.7-0.4c0.08,0,0.16,0.02,0.22,0.07c0.06,0.05,0.12,0.13,0.16,0.23s0.07,0.23,0.09,0.38
		S137.66,168.56,137.66,168.76z"/>
	<path d="M158.13,171.58c0,0.08-0.02,0.16-0.06,0.23c-0.04,0.07-0.11,0.13-0.2,0.17c-0.09,0.04-0.22,0.08-0.38,0.11
		c-0.16,0.03-0.36,0.04-0.6,0.04c-0.25,0-0.46-0.01-0.62-0.04c-0.16-0.03-0.29-0.06-0.38-0.11c-0.09-0.04-0.16-0.1-0.2-0.17
		c-0.04-0.07-0.06-0.15-0.06-0.23v-11.3c0-1.18-0.09-2.14-0.27-2.87c-0.18-0.74-0.46-1.37-0.82-1.89c-0.37-0.53-0.83-0.93-1.4-1.22
		c-0.57-0.29-1.23-0.43-1.99-0.43c-0.97,0-1.94,0.34-2.9,1.03c-0.97,0.69-1.99,1.7-3.05,3.03v13.66c0,0.08-0.02,0.16-0.06,0.23
		c-0.04,0.07-0.11,0.13-0.2,0.17c-0.09,0.04-0.22,0.08-0.38,0.11c-0.16,0.03-0.37,0.04-0.62,0.04c-0.24,0-0.44-0.01-0.6-0.04
		c-0.16-0.03-0.29-0.06-0.39-0.11c-0.1-0.04-0.17-0.1-0.2-0.17c-0.04-0.07-0.05-0.15-0.05-0.23v-28.36c0-0.08,0.02-0.16,0.05-0.23
		c0.03-0.07,0.1-0.13,0.2-0.18c0.1-0.05,0.23-0.08,0.39-0.11c0.16-0.02,0.36-0.03,0.6-0.03c0.25,0,0.46,0.01,0.62,0.03
		c0.16,0.02,0.29,0.06,0.38,0.11c0.09,0.05,0.16,0.11,0.2,0.18c0.04,0.07,0.06,0.15,0.06,0.23v11.89c1.04-1.15,2.08-2,3.11-2.54
		c1.04-0.54,2.08-0.81,3.11-0.81c1.25,0,2.3,0.21,3.16,0.63c0.86,0.42,1.55,0.99,2.07,1.7c0.53,0.72,0.9,1.55,1.14,2.5
		c0.23,0.95,0.35,2.1,0.35,3.45V171.58z"/>
	<path d="M178.42,171.58c0,0.14-0.05,0.25-0.14,0.33c-0.09,0.08-0.21,0.13-0.36,0.17c-0.15,0.04-0.35,0.05-0.6,0.05
		c-0.24,0-0.44-0.02-0.61-0.05c-0.17-0.04-0.3-0.09-0.39-0.17c-0.09-0.08-0.14-0.19-0.14-0.33v-2.13c-0.86,0.93-1.8,1.64-2.83,2.15
		s-2.1,0.76-3.21,0.76c-1,0-1.89-0.13-2.68-0.39c-0.79-0.26-1.46-0.63-2.01-1.12c-0.55-0.48-0.97-1.07-1.26-1.76
		c-0.29-0.69-0.44-1.46-0.44-2.31c0-1.05,0.22-1.97,0.65-2.75c0.43-0.78,1.05-1.43,1.85-1.95c0.8-0.52,1.76-0.91,2.88-1.17
		c1.12-0.26,2.37-0.39,3.75-0.39h3.03v-1.64c0-0.81-0.08-1.53-0.25-2.16c-0.17-0.62-0.44-1.15-0.82-1.57
		c-0.38-0.42-0.87-0.74-1.47-0.95c-0.6-0.21-1.34-0.32-2.21-0.32c-0.84,0-1.6,0.1-2.27,0.31c-0.67,0.2-1.26,0.43-1.77,0.68
		c-0.5,0.25-0.92,0.48-1.25,0.68c-0.33,0.2-0.57,0.31-0.7,0.31c-0.08,0-0.16-0.01-0.23-0.04c-0.07-0.03-0.13-0.08-0.18-0.16
		c-0.05-0.08-0.08-0.18-0.11-0.29c-0.02-0.12-0.03-0.26-0.03-0.43c0-0.29,0.02-0.53,0.06-0.7c0.04-0.18,0.15-0.35,0.33-0.53
		c0.18-0.18,0.49-0.38,0.94-0.62c0.45-0.24,0.96-0.46,1.55-0.66c0.58-0.2,1.21-0.37,1.88-0.49s1.35-0.19,2.02-0.19
		c1.3,0,2.41,0.16,3.3,0.47c0.9,0.32,1.62,0.77,2.18,1.36c0.55,0.59,0.95,1.32,1.19,2.18c0.24,0.86,0.36,1.84,0.36,2.94V171.58z
		 M175.91,162.59h-3.47c-1.01,0-1.89,0.09-2.65,0.27c-0.76,0.18-1.39,0.45-1.89,0.8c-0.5,0.35-0.88,0.77-1.13,1.26
		c-0.25,0.49-0.37,1.05-0.37,1.68c0,1.09,0.35,1.97,1.04,2.62c0.69,0.65,1.67,0.98,2.94,0.98c1,0,1.93-0.26,2.79-0.77
		c0.86-0.51,1.78-1.3,2.75-2.37V162.59z"/>
	<path d="M200.8,171.58c0,0.08-0.02,0.16-0.06,0.23c-0.04,0.07-0.11,0.13-0.2,0.17c-0.09,0.04-0.22,0.08-0.38,0.11
		c-0.16,0.03-0.36,0.04-0.6,0.04c-0.25,0-0.46-0.01-0.62-0.04c-0.16-0.03-0.29-0.06-0.38-0.11c-0.09-0.04-0.16-0.1-0.2-0.17
		c-0.04-0.07-0.06-0.15-0.06-0.23v-11.3c0-1.18-0.09-2.14-0.27-2.87c-0.18-0.74-0.46-1.37-0.82-1.89c-0.37-0.53-0.83-0.93-1.4-1.22
		c-0.57-0.29-1.23-0.43-1.99-0.43c-0.97,0-1.94,0.34-2.9,1.03c-0.97,0.69-1.99,1.7-3.05,3.03v13.66c0,0.08-0.02,0.16-0.06,0.23
		c-0.04,0.07-0.11,0.13-0.2,0.17c-0.09,0.04-0.22,0.08-0.38,0.11c-0.16,0.03-0.37,0.04-0.62,0.04c-0.24,0-0.44-0.01-0.6-0.04
		c-0.16-0.03-0.29-0.06-0.39-0.11c-0.1-0.04-0.17-0.1-0.2-0.17c-0.04-0.07-0.05-0.15-0.05-0.23v-19.04c0-0.08,0.02-0.16,0.05-0.23
		c0.03-0.07,0.1-0.13,0.2-0.18c0.1-0.05,0.22-0.08,0.37-0.11c0.15-0.02,0.34-0.03,0.58-0.03c0.24,0,0.43,0.01,0.59,0.03
		c0.15,0.02,0.27,0.06,0.36,0.11c0.08,0.05,0.14,0.11,0.18,0.18c0.03,0.07,0.05,0.15,0.05,0.23v2.69c1.09-1.22,2.17-2.1,3.22-2.65
		s2.1-0.82,3.14-0.82c1.25,0,2.3,0.21,3.16,0.63c0.86,0.42,1.55,0.99,2.07,1.7c0.53,0.72,0.9,1.55,1.14,2.5
		c0.23,0.95,0.35,2.1,0.35,3.45V171.58z"/>
	<path d="M223,153.17c0,0.39-0.06,0.67-0.19,0.82c-0.13,0.15-0.29,0.23-0.48,0.23h-3.01c0.59,0.6,1,1.26,1.23,1.97
		c0.23,0.71,0.35,1.46,0.35,2.24c0,1.08-0.17,2.04-0.52,2.88c-0.34,0.84-0.83,1.55-1.46,2.14c-0.63,0.58-1.38,1.03-2.25,1.34
		c-0.87,0.31-1.83,0.46-2.88,0.46c-0.86,0-1.67-0.12-2.44-0.36c-0.77-0.24-1.38-0.53-1.81-0.88c-0.28,0.28-0.51,0.6-0.69,0.97
		c-0.18,0.37-0.27,0.79-0.27,1.26c0,0.53,0.26,0.98,0.77,1.35c0.51,0.36,1.17,0.56,1.99,0.59l5.16,0.21
		c0.87,0.03,1.69,0.15,2.45,0.36c0.76,0.21,1.43,0.52,2.01,0.94c0.58,0.41,1.03,0.92,1.37,1.53c0.34,0.6,0.5,1.31,0.5,2.13
		c0,0.84-0.17,1.65-0.52,2.42c-0.34,0.77-0.88,1.45-1.6,2.03c-0.72,0.58-1.64,1.05-2.77,1.39c-1.12,0.34-2.46,0.52-4.02,0.52
		c-1.49,0-2.75-0.13-3.8-0.39c-1.05-0.26-1.9-0.62-2.57-1.07c-0.67-0.46-1.15-0.99-1.45-1.61c-0.3-0.62-0.45-1.28-0.45-2
		c0-0.49,0.06-0.95,0.17-1.39c0.11-0.43,0.28-0.85,0.52-1.24c0.23-0.39,0.52-0.77,0.86-1.14c0.34-0.36,0.74-0.74,1.19-1.12
		c-0.72-0.36-1.24-0.81-1.58-1.33c-0.34-0.52-0.5-1.07-0.5-1.66c0-0.87,0.17-1.64,0.5-2.3c0.34-0.67,0.74-1.27,1.22-1.8
		c-0.41-0.53-0.72-1.12-0.95-1.75c-0.22-0.63-0.34-1.39-0.34-2.27c0-1.07,0.18-2.02,0.53-2.87c0.35-0.85,0.84-1.57,1.46-2.16
		c0.62-0.59,1.37-1.04,2.24-1.36c0.87-0.32,1.82-0.47,2.86-0.47c0.55,0,1.06,0.03,1.55,0.09s0.93,0.14,1.34,0.24h5.62
		c0.24,0,0.41,0.09,0.52,0.27C222.95,152.55,223,152.82,223,153.17z M220.31,173.47c0-0.93-0.38-1.63-1.13-2.13
		c-0.75-0.49-1.76-0.76-3.02-0.8l-5.53-0.19c-0.5,0.39-0.92,0.76-1.24,1.12c-0.32,0.35-0.58,0.69-0.77,1.02
		c-0.19,0.33-0.32,0.65-0.39,0.97c-0.07,0.32-0.11,0.63-0.11,0.96c0,1.04,0.52,1.82,1.57,2.36c1.04,0.53,2.5,0.8,4.37,0.8
		c1.18,0,2.16-0.12,2.96-0.35c0.79-0.23,1.43-0.54,1.93-0.92c0.49-0.38,0.84-0.81,1.05-1.3
		C220.2,174.52,220.31,174.01,220.31,173.47z M218.31,158.47c0-1.44-0.4-2.57-1.19-3.39c-0.79-0.81-1.92-1.22-3.38-1.22
		c-0.74,0-1.4,0.13-1.96,0.38c-0.56,0.25-1.02,0.6-1.39,1.03c-0.37,0.43-0.64,0.94-0.82,1.51c-0.18,0.58-0.27,1.19-0.27,1.83
		c0,1.4,0.4,2.51,1.19,3.31c0.79,0.81,1.9,1.21,3.34,1.21c0.76,0,1.42-0.13,1.99-0.38c0.57-0.25,1.03-0.59,1.4-1.02
		c0.36-0.43,0.64-0.93,0.82-1.49C218.22,159.68,218.31,159.09,218.31,158.47z"/>
	<path d="M243.16,161.08c0,0.5-0.13,0.85-0.4,1.04c-0.27,0.19-0.53,0.28-0.78,0.28H229c0,1.18,0.12,2.24,0.35,3.2
		c0.23,0.95,0.61,1.77,1.15,2.45c0.53,0.68,1.23,1.2,2.08,1.57c0.86,0.36,1.91,0.55,3.16,0.55c0.88,0,1.68-0.08,2.38-0.23
		c0.7-0.15,1.31-0.33,1.82-0.52c0.51-0.19,0.93-0.36,1.26-0.52c0.33-0.15,0.56-0.23,0.7-0.23c0.08,0,0.16,0.02,0.23,0.06
		c0.07,0.04,0.13,0.11,0.17,0.2c0.04,0.09,0.07,0.21,0.09,0.35s0.03,0.32,0.03,0.53c0,0.1-0.01,0.19-0.02,0.28
		c-0.01,0.09-0.03,0.18-0.05,0.25c-0.02,0.08-0.05,0.15-0.09,0.22c-0.04,0.07-0.1,0.14-0.17,0.21c-0.07,0.07-0.29,0.19-0.65,0.37
		c-0.37,0.18-0.84,0.35-1.43,0.53s-1.27,0.33-2.05,0.47c-0.78,0.14-1.62,0.21-2.51,0.21c-1.47,0-2.78-0.22-3.91-0.66
		s-2.09-1.09-2.86-1.96c-0.77-0.86-1.36-1.93-1.76-3.21c-0.4-1.28-0.6-2.76-0.6-4.44c0-1.61,0.21-3.06,0.62-4.33
		c0.41-1.28,1.01-2.36,1.78-3.25c0.77-0.89,1.7-1.57,2.79-2.04c1.09-0.47,2.3-0.7,3.63-0.7c1.43,0,2.65,0.24,3.66,0.72
		c1.01,0.48,1.84,1.12,2.49,1.93c0.65,0.81,1.13,1.74,1.43,2.81c0.3,1.07,0.45,2.19,0.45,3.37V161.08z M240.57,160.34
		c0.04-2.02-0.42-3.6-1.39-4.73c-0.97-1.14-2.38-1.7-4.23-1.7c-0.95,0-1.79,0.18-2.51,0.54c-0.72,0.36-1.33,0.83-1.83,1.42
		c-0.5,0.59-0.88,1.27-1.15,2.05c-0.27,0.78-0.42,1.59-0.46,2.43H240.57z"/>
	<path class="st5" d="M60.55,220.02c0,0.36-0.01,0.67-0.03,0.92c-0.02,0.25-0.05,0.45-0.08,0.62c-0.04,0.17-0.08,0.31-0.13,0.41
		c-0.05,0.11-0.16,0.24-0.33,0.4s-0.46,0.36-0.86,0.59c-0.41,0.23-0.87,0.44-1.39,0.62c-0.52,0.18-1.08,0.33-1.69,0.44
		c-0.61,0.11-1.24,0.17-1.88,0.17c-1.44,0-2.72-0.22-3.84-0.67s-2.05-1.11-2.81-1.99c-0.76-0.88-1.33-1.95-1.71-3.21
		c-0.39-1.26-0.58-2.71-0.58-4.33c0-1.88,0.23-3.5,0.7-4.87c0.47-1.37,1.13-2.5,1.97-3.4c0.84-0.9,1.84-1.56,2.99-2
		c1.15-0.43,2.41-0.65,3.79-0.65c0.56,0,1.11,0.05,1.65,0.15c0.54,0.1,1.04,0.23,1.51,0.4c0.47,0.17,0.89,0.36,1.26,0.57
		c0.37,0.21,0.63,0.39,0.79,0.55c0.15,0.15,0.26,0.28,0.33,0.39c0.06,0.11,0.11,0.24,0.15,0.41c0.03,0.17,0.06,0.38,0.08,0.62
		s0.03,0.54,0.03,0.89c0,0.81-0.07,1.39-0.21,1.71c-0.14,0.33-0.32,0.49-0.55,0.49c-0.24,0-0.49-0.1-0.76-0.29
		c-0.27-0.2-0.58-0.41-0.95-0.65c-0.37-0.24-0.8-0.46-1.3-0.65c-0.5-0.2-1.11-0.29-1.81-0.29c-1.38,0-2.43,0.53-3.16,1.59
		c-0.73,1.06-1.09,2.61-1.09,4.66c0,1.01,0.09,1.9,0.27,2.67c0.18,0.77,0.45,1.42,0.81,1.94c0.36,0.52,0.81,0.91,1.35,1.17
		c0.54,0.26,1.17,0.39,1.88,0.39c0.73,0,1.36-0.11,1.88-0.33c0.53-0.22,0.99-0.46,1.38-0.73c0.39-0.27,0.72-0.51,0.99-0.73
		c0.27-0.22,0.49-0.33,0.67-0.33c0.13,0,0.23,0.04,0.32,0.11c0.08,0.07,0.15,0.2,0.2,0.39c0.05,0.19,0.09,0.43,0.12,0.73
		C60.53,219.18,60.55,219.56,60.55,220.02z"/>
	<g>
		<path class="st5" d="M39.52,196.97c0.39,0,0.72-0.18,0.92-0.5c0.15-0.25,0.23-0.58,0.23-1.02c0-0.21-0.01-0.38-0.04-0.54
			c-0.03-0.19-0.09-0.36-0.18-0.51c-0.11-0.18-0.25-0.32-0.43-0.41c-0.15-0.08-0.32-0.12-0.5-0.12h-4.76
			c-0.19,0-0.38,0.03-0.57,0.09c-0.21,0.07-0.4,0.17-0.58,0.32c-0.2,0.16-0.35,0.38-0.46,0.65c-0.1,0.25-0.15,0.53-0.15,0.87v33.14
			c0,0.33,0.05,0.62,0.15,0.86c0.11,0.27,0.26,0.49,0.46,0.65c0.18,0.15,0.37,0.25,0.58,0.32c0.19,0.06,0.38,0.09,0.57,0.09h4.76
			c0.39,0,0.72-0.18,0.92-0.5c0.15-0.25,0.23-0.58,0.23-1.02c0-0.21-0.01-0.38-0.04-0.54c-0.03-0.19-0.09-0.36-0.18-0.51
			c-0.11-0.18-0.25-0.32-0.43-0.41c-0.15-0.08-0.32-0.12-0.5-0.12h-2.94v-30.81H39.52z"/>
		<path class="st5" d="M72.54,194.92c-0.11-0.26-0.26-0.46-0.44-0.62c-0.18-0.15-0.38-0.27-0.6-0.33c-0.2-0.06-0.39-0.09-0.57-0.09
			h-4.76c-0.18,0-0.35,0.04-0.5,0.12c-0.18,0.09-0.32,0.23-0.43,0.41c-0.09,0.14-0.15,0.31-0.18,0.51
			c-0.03,0.15-0.04,0.33-0.04,0.54c0,0.45,0.07,0.77,0.23,1.02c0.2,0.33,0.53,0.5,0.92,0.5h2.96v30.81h-2.96
			c-0.18,0-0.35,0.04-0.5,0.12c-0.18,0.09-0.32,0.23-0.43,0.41c-0.09,0.14-0.15,0.31-0.18,0.51c-0.03,0.15-0.04,0.33-0.04,0.54
			c0,0.45,0.07,0.77,0.23,1.02c0.2,0.33,0.53,0.5,0.92,0.5h4.76c0.18,0,0.38-0.03,0.57-0.09c0.22-0.07,0.42-0.18,0.6-0.33
			c0.18-0.16,0.33-0.36,0.44-0.62c0.11-0.25,0.17-0.55,0.17-0.88V195.8C72.71,195.47,72.65,195.17,72.54,194.92z"/>
	</g>
	<path d="M97.52,213.63c0,1.51-0.2,2.91-0.59,4.19c-0.39,1.28-0.98,2.38-1.76,3.32c-0.78,0.94-1.75,1.67-2.91,2.2
		c-1.16,0.53-2.52,0.79-4.06,0.79c-1.49,0-2.79-0.23-3.9-0.7s-2.05-1.14-2.8-2.02c-0.75-0.88-1.31-1.94-1.68-3.19
		c-0.37-1.25-0.56-2.66-0.56-4.23c0-1.51,0.19-2.91,0.58-4.19c0.39-1.28,0.97-2.38,1.75-3.31s1.75-1.66,2.91-2.18
		c1.16-0.52,2.52-0.78,4.08-0.78c1.49,0,2.79,0.23,3.9,0.69s2.04,1.13,2.79,2.01c0.74,0.88,1.3,1.94,1.68,3.19
		C97.33,210.67,97.52,212.07,97.52,213.63z M94.87,213.86c0-1.08-0.11-2.11-0.32-3.09c-0.21-0.98-0.56-1.85-1.05-2.6
		c-0.49-0.75-1.15-1.35-1.98-1.79c-0.83-0.44-1.86-0.66-3.09-0.66c-1.14,0-2.12,0.2-2.95,0.61c-0.83,0.41-1.5,0.97-2.03,1.69
		c-0.53,0.72-0.92,1.57-1.17,2.56c-0.25,0.98-0.38,2.04-0.38,3.18c0,1.09,0.11,2.14,0.32,3.12s0.56,1.86,1.05,2.6
		c0.49,0.74,1.15,1.33,1.98,1.77c0.83,0.43,1.86,0.65,3.09,0.65c1.14,0,2.12-0.2,2.95-0.61c0.83-0.41,1.5-0.97,2.03-1.68
		c0.53-0.72,0.92-1.56,1.17-2.55S94.87,215.01,94.87,213.86z"/>
	<path d="M130.28,223.35c0,0.08-0.02,0.16-0.06,0.23c-0.04,0.07-0.11,0.13-0.2,0.17c-0.09,0.04-0.22,0.08-0.38,0.11
		c-0.16,0.03-0.36,0.04-0.6,0.04c-0.25,0-0.46-0.01-0.62-0.04c-0.16-0.03-0.29-0.06-0.39-0.11c-0.1-0.04-0.17-0.1-0.2-0.17
		c-0.04-0.07-0.05-0.15-0.05-0.23v-11.72c0-0.9-0.08-1.71-0.24-2.45c-0.16-0.74-0.41-1.37-0.76-1.89c-0.34-0.53-0.78-0.93-1.3-1.22
		c-0.53-0.29-1.15-0.43-1.86-0.43c-0.88,0-1.78,0.34-2.68,1.03c-0.9,0.69-1.9,1.7-2.98,3.03v13.66c0,0.08-0.02,0.16-0.06,0.23
		c-0.04,0.07-0.11,0.13-0.2,0.17c-0.09,0.04-0.22,0.08-0.38,0.11c-0.16,0.03-0.36,0.04-0.6,0.04c-0.24,0-0.44-0.01-0.6-0.04
		c-0.16-0.03-0.29-0.06-0.39-0.11c-0.1-0.04-0.17-0.1-0.2-0.17c-0.04-0.07-0.05-0.15-0.05-0.23v-11.72c0-0.9-0.08-1.71-0.25-2.45
		c-0.17-0.74-0.42-1.37-0.77-1.89c-0.34-0.53-0.78-0.93-1.3-1.22c-0.53-0.29-1.15-0.43-1.86-0.43c-0.88,0-1.78,0.34-2.68,1.03
		s-1.89,1.7-2.96,3.03v13.66c0,0.08-0.02,0.16-0.06,0.23c-0.04,0.07-0.11,0.13-0.2,0.17c-0.09,0.04-0.22,0.08-0.38,0.11
		c-0.16,0.03-0.37,0.04-0.62,0.04c-0.24,0-0.44-0.01-0.6-0.04c-0.16-0.03-0.29-0.06-0.39-0.11c-0.1-0.04-0.17-0.1-0.2-0.17
		c-0.04-0.07-0.05-0.15-0.05-0.23v-19.04c0-0.08,0.02-0.16,0.05-0.23c0.03-0.07,0.1-0.13,0.2-0.18c0.1-0.05,0.22-0.08,0.37-0.11
		c0.15-0.02,0.34-0.03,0.58-0.03c0.24,0,0.43,0.01,0.59,0.03c0.15,0.02,0.27,0.06,0.36,0.11c0.08,0.05,0.14,0.11,0.18,0.18
		c0.03,0.07,0.05,0.15,0.05,0.23V207c1.09-1.22,2.13-2.1,3.11-2.65c0.98-0.55,1.96-0.82,2.92-0.82c0.8,0,1.51,0.09,2.14,0.28
		c0.62,0.19,1.17,0.46,1.65,0.8c0.48,0.34,0.88,0.75,1.22,1.23c0.34,0.48,0.61,1,0.82,1.58c0.66-0.73,1.28-1.34,1.86-1.84
		c0.58-0.5,1.14-0.9,1.66-1.2c0.53-0.3,1.03-0.52,1.53-0.65c0.49-0.13,0.97-0.2,1.45-0.2c1.19,0,2.2,0.21,3.02,0.63
		c0.82,0.42,1.48,0.99,1.98,1.7c0.5,0.72,0.86,1.55,1.07,2.5c0.22,0.95,0.33,1.96,0.33,3.03V223.35z"/>
	<path d="M153.84,213.54c0,1.63-0.18,3.09-0.54,4.4c-0.36,1.3-0.88,2.41-1.58,3.32c-0.69,0.91-1.55,1.62-2.58,2.11
		c-1.02,0.5-2.2,0.75-3.51,0.75c-0.56,0-1.09-0.06-1.58-0.18c-0.49-0.12-0.97-0.31-1.44-0.56c-0.47-0.25-0.94-0.57-1.41-0.95
		c-0.47-0.38-0.96-0.83-1.48-1.37v9.83c0,0.08-0.02,0.16-0.06,0.23c-0.04,0.07-0.11,0.13-0.2,0.18c-0.09,0.05-0.22,0.08-0.38,0.11
		c-0.16,0.02-0.37,0.03-0.62,0.03c-0.24,0-0.44-0.01-0.6-0.03c-0.16-0.02-0.29-0.06-0.39-0.11c-0.1-0.05-0.17-0.11-0.2-0.18
		c-0.04-0.07-0.05-0.15-0.05-0.23v-26.6c0-0.1,0.02-0.18,0.05-0.25c0.03-0.07,0.1-0.13,0.19-0.17c0.09-0.04,0.21-0.07,0.36-0.09
		c0.15-0.02,0.33-0.03,0.54-0.03c0.21,0,0.39,0.01,0.53,0.03c0.14,0.02,0.26,0.05,0.36,0.09c0.1,0.04,0.17,0.1,0.21,0.17
		c0.04,0.07,0.06,0.15,0.06,0.25v2.76c0.59-0.6,1.15-1.13,1.68-1.57c0.53-0.44,1.07-0.81,1.6-1.1c0.53-0.29,1.08-0.51,1.64-0.65
		c0.56-0.14,1.16-0.21,1.79-0.21c1.37,0,2.55,0.26,3.51,0.79c0.97,0.53,1.76,1.24,2.37,2.16c0.61,0.91,1.05,1.97,1.33,3.19
		C153.71,210.87,153.84,212.17,153.84,213.54z M151.21,213.94c0-1.07-0.08-2.09-0.25-3.08s-0.45-1.87-0.85-2.64s-0.93-1.39-1.6-1.85
		c-0.67-0.46-1.5-0.69-2.51-0.69c-0.5,0-1,0.07-1.48,0.21s-0.98,0.37-1.48,0.69s-1.03,0.74-1.58,1.25s-1.12,1.15-1.73,1.9v8.29
		c1.05,1.28,2.06,2.25,3.02,2.94c0.96,0.68,1.97,1.02,3.02,1.02c0.97,0,1.8-0.23,2.49-0.7c0.69-0.47,1.26-1.09,1.69-1.85
		c0.43-0.76,0.75-1.63,0.96-2.59C151.11,215.87,151.21,214.91,151.21,213.94z"/>
	<path d="M172.95,223.35c0,0.14-0.05,0.25-0.14,0.33c-0.09,0.08-0.21,0.13-0.36,0.17c-0.15,0.04-0.35,0.05-0.6,0.05
		c-0.24,0-0.44-0.02-0.61-0.05c-0.17-0.04-0.3-0.09-0.39-0.17c-0.09-0.08-0.14-0.19-0.14-0.33v-2.13c-0.86,0.93-1.8,1.64-2.83,2.15
		s-2.1,0.76-3.21,0.76c-1,0-1.89-0.13-2.68-0.39c-0.79-0.26-1.46-0.63-2.01-1.12c-0.55-0.48-0.97-1.07-1.26-1.76
		s-0.44-1.46-0.44-2.31c0-1.05,0.22-1.97,0.65-2.75c0.43-0.78,1.05-1.43,1.85-1.95c0.8-0.52,1.76-0.91,2.88-1.17
		c1.12-0.26,2.37-0.39,3.75-0.39h3.03v-1.64c0-0.81-0.08-1.53-0.25-2.16c-0.17-0.62-0.44-1.15-0.82-1.57
		c-0.38-0.42-0.87-0.74-1.47-0.95c-0.6-0.21-1.34-0.32-2.21-0.32c-0.84,0-1.6,0.1-2.27,0.31c-0.67,0.2-1.26,0.43-1.77,0.68
		c-0.5,0.25-0.92,0.48-1.25,0.68c-0.33,0.2-0.57,0.31-0.7,0.31c-0.08,0-0.16-0.01-0.23-0.04c-0.07-0.03-0.13-0.08-0.18-0.16
		c-0.05-0.08-0.08-0.18-0.11-0.29c-0.02-0.12-0.03-0.26-0.03-0.43c0-0.29,0.02-0.53,0.06-0.7c0.04-0.18,0.15-0.35,0.33-0.53
		c0.18-0.18,0.49-0.38,0.94-0.62c0.45-0.24,0.96-0.46,1.55-0.66c0.58-0.2,1.21-0.37,1.88-0.49c0.67-0.13,1.35-0.19,2.02-0.19
		c1.3,0,2.41,0.16,3.3,0.47c0.9,0.32,1.62,0.77,2.18,1.36c0.55,0.59,0.95,1.32,1.19,2.18c0.24,0.86,0.36,1.84,0.36,2.94V223.35z
		 M170.45,214.36h-3.47c-1.01,0-1.89,0.09-2.65,0.27s-1.39,0.45-1.89,0.8s-0.88,0.77-1.13,1.26c-0.25,0.49-0.37,1.05-0.37,1.68
		c0,1.09,0.35,1.97,1.04,2.62c0.69,0.65,1.67,0.98,2.94,0.98c1,0,1.93-0.26,2.79-0.77c0.86-0.51,1.78-1.3,2.75-2.37V214.36z"/>
	<path d="M195.34,223.35c0,0.08-0.02,0.16-0.06,0.23c-0.04,0.07-0.11,0.13-0.2,0.17c-0.09,0.04-0.22,0.08-0.38,0.11
		c-0.16,0.03-0.36,0.04-0.6,0.04c-0.25,0-0.46-0.01-0.62-0.04c-0.16-0.03-0.29-0.06-0.38-0.11c-0.09-0.04-0.16-0.1-0.2-0.17
		c-0.04-0.07-0.06-0.15-0.06-0.23v-11.3c0-1.18-0.09-2.14-0.27-2.87c-0.18-0.74-0.46-1.37-0.82-1.89c-0.37-0.53-0.83-0.93-1.4-1.22
		c-0.57-0.29-1.23-0.43-1.99-0.43c-0.97,0-1.94,0.34-2.9,1.03s-1.99,1.7-3.05,3.03v13.66c0,0.08-0.02,0.16-0.06,0.23
		c-0.04,0.07-0.11,0.13-0.2,0.17c-0.09,0.04-0.22,0.08-0.38,0.11c-0.16,0.03-0.37,0.04-0.62,0.04c-0.24,0-0.44-0.01-0.6-0.04
		c-0.16-0.03-0.29-0.06-0.39-0.11c-0.1-0.04-0.17-0.1-0.2-0.17c-0.04-0.07-0.05-0.15-0.05-0.23v-19.04c0-0.08,0.02-0.16,0.05-0.23
		c0.03-0.07,0.1-0.13,0.2-0.18c0.1-0.05,0.22-0.08,0.37-0.11c0.15-0.02,0.34-0.03,0.58-0.03c0.24,0,0.43,0.01,0.59,0.03
		c0.15,0.02,0.27,0.06,0.36,0.11c0.08,0.05,0.14,0.11,0.18,0.18c0.03,0.07,0.05,0.15,0.05,0.23V207c1.09-1.22,2.17-2.1,3.22-2.65
		s2.1-0.82,3.14-0.82c1.25,0,2.3,0.21,3.16,0.63c0.86,0.42,1.55,0.99,2.07,1.7c0.53,0.72,0.9,1.55,1.14,2.5
		c0.23,0.95,0.35,2.1,0.35,3.45V223.35z"/>
	<path d="M208.85,223.77l-2.65,7.13c-0.07,0.15-0.22,0.28-0.44,0.39c-0.22,0.11-0.58,0.16-1.07,0.16c-0.25,0-0.46-0.01-0.63-0.04
		c-0.17-0.03-0.3-0.08-0.39-0.16c-0.09-0.08-0.14-0.18-0.16-0.29c-0.01-0.12,0.01-0.26,0.08-0.43l2.69-6.75
		c-0.11-0.04-0.21-0.11-0.29-0.21c-0.08-0.1-0.14-0.2-0.17-0.29l-6.92-18.58c-0.07-0.2-0.11-0.35-0.11-0.47s0.04-0.21,0.12-0.28
		c0.08-0.07,0.2-0.12,0.38-0.14c0.18-0.02,0.41-0.03,0.7-0.03c0.31,0,0.55,0.01,0.74,0.03c0.18,0.02,0.33,0.05,0.43,0.09
		s0.18,0.1,0.23,0.17c0.05,0.07,0.09,0.15,0.14,0.25l5.95,16.62h0.08l5.85-16.62c0.07-0.2,0.16-0.33,0.28-0.39
		c0.12-0.06,0.28-0.11,0.47-0.13c0.2-0.02,0.43-0.03,0.72-0.03c0.27,0,0.49,0.01,0.66,0.04c0.18,0.03,0.31,0.08,0.39,0.15
		c0.08,0.07,0.13,0.16,0.13,0.28s-0.04,0.27-0.11,0.45L208.85,223.77z"/>
	<g>
		<path class="st6" d="M158.26,53.25c-1.58,0-2.9,0.57-4.04,1.74c-1.14,1.18-1.7,2.56-1.7,4.23c0,1.06,0.26,2.07,0.78,2.99
			c0.51,0.91,1.21,1.63,2.08,2.12c0.87,0.5,1.84,0.75,2.89,0.75c1.05,0,2.02-0.25,2.89-0.75c0.87-0.49,1.57-1.21,2.08-2.12
			c0.51-0.92,0.78-1.92,0.78-2.99c0-1.67-0.56-3.06-1.71-4.23C161.15,53.82,159.83,53.25,158.26,53.25z"/>
		<path class="st6" d="M52.73,54c-0.88,0.51-1.6,1.25-2.12,2.18c-0.53,0.94-0.79,1.94-0.79,2.98c0,1.03,0.27,2.03,0.8,2.98
			c0.53,0.94,1.25,1.69,2.14,2.21c1.79,1.05,3.99,1.04,5.83,0c0.92-0.52,1.64-1.23,2.13-2.11c0.5-0.89,0.75-1.91,0.75-3.03
			c0-1.73-0.55-3.13-1.68-4.29c-1.13-1.15-2.48-1.71-4.14-1.71C54.59,53.22,53.61,53.48,52.73,54z"/>
		<path class="st6" d="M78.98,54.91c-0.79-0.57-1.71-0.85-2.75-0.85c-1.13,0-2.13,0.32-2.99,0.95c-0.54,0.4-1.04,1.1-1.49,2.1h8.82
			C80.3,56.21,79.77,55.47,78.98,54.91z"/>
		<path class="st3" d="M40.25,57.41l-1.49-0.75c-0.65-0.32-1.05-0.57-1.21-0.75c-0.16-0.18-0.25-0.38-0.25-0.6
			c0-0.29,0.13-0.53,0.39-0.72c0.26-0.19,0.62-0.29,1.07-0.29c0.83,0,1.76,0.51,2.79,1.52l2.52-2.52c-0.65-0.86-1.43-1.53-2.36-1.99
			c-0.93-0.46-1.92-0.69-2.97-0.69c-1.54,0-2.8,0.45-3.79,1.36c-0.99,0.91-1.48,2-1.48,3.29c0,1.99,1.31,3.64,3.93,4.96l1.37,0.69
			c1.18,0.6,1.77,1.21,1.77,1.83c0,0.34-0.16,0.64-0.49,0.89c-0.33,0.26-0.76,0.39-1.3,0.39c-0.5,0-1.07-0.17-1.71-0.51
			c-0.64-0.34-1.2-0.79-1.68-1.35l-2.5,2.73c1.41,1.85,3.3,2.77,5.66,2.77c1.78,0,3.2-0.48,4.26-1.45c1.06-0.96,1.59-2.17,1.59-3.61
			c0-1.08-0.29-2.03-0.88-2.83C42.9,58.97,41.82,58.18,40.25,57.41z"/>
		<path d="M61.33,52.38c-0.6-0.6-1.26-1.08-1.96-1.45c-1.16-0.61-2.47-0.92-3.89-0.92c-2.46,0-4.59,0.9-6.34,2.67
			c-1.75,1.77-2.63,3.93-2.63,6.41c0,2.53,0.88,4.72,2.61,6.49c1.73,1.78,3.86,2.68,6.31,2.68c1.38,0,2.67-0.29,3.83-0.87
			c0.74-0.36,1.43-0.84,2.08-1.43l-0.02,9.7h3.27V50.43h-3.25V52.38z M59.78,54.93c1.13,1.16,1.68,2.56,1.68,4.29
			c0,1.12-0.25,2.14-0.75,3.03c-0.49,0.88-1.21,1.59-2.13,2.11c-1.84,1.04-4.04,1.05-5.83,0c-0.89-0.52-1.61-1.27-2.14-2.21
			c-0.53-0.95-0.8-1.95-0.8-2.98c0-1.04,0.27-2.04,0.79-2.98c0.53-0.93,1.24-1.67,2.12-2.18c0.89-0.51,1.87-0.78,2.92-0.78
			C57.3,53.22,58.65,53.78,59.78,54.93z"/>
		<path class="st4" d="M76.22,64.09c-1.27,0-2.32-0.34-3.14-1.02c-0.82-0.68-1.32-1.6-1.51-2.75h13.07l0.02-0.78
			c0-2.68-0.8-4.84-2.4-6.48c-1.6-1.63-3.68-2.45-6.23-2.45c-2.41,0-4.4,0.82-6,2.45c-1.59,1.63-2.39,3.69-2.39,6.16
			c0,2.41,0.8,4.42,2.4,6.03c1.6,1.6,3.67,2.41,6.22,2.41c1.64,0,3.06-0.29,4.25-0.87c1.19-0.58,2.22-1.48,3.07-2.69l-3.43-1.61
			C79.04,63.56,77.74,64.09,76.22,64.09z M73.24,55.01c0.86-0.64,1.85-0.95,2.99-0.95c1.05,0,1.96,0.28,2.75,0.85
			c0.79,0.57,1.32,1.3,1.59,2.21h-8.82C72.2,56.11,72.7,55.41,73.24,55.01z"/>
		<polygon points="101.11,50.43 97.13,50.43 93.17,55.94 89.16,50.43 85.18,50.43 91.18,58.71 84.6,67.84 88.57,67.84 93.17,61.46 
			97.8,67.84 101.82,67.84 95.16,58.69 		"/>
		<path class="st5" d="M111,54.4c0.84,0,1.56,0.13,2.19,0.39c0.62,0.26,1.25,0.72,1.89,1.39l3.39-1.86
			c-0.81-1.18-1.86-2.09-3.15-2.73c-1.28-0.64-2.73-0.96-4.34-0.96c-1.74,0-3.31,0.38-4.72,1.13c-1.41,0.76-2.5,1.79-3.29,3.11
			c-0.78,1.32-1.18,2.77-1.18,4.34c0,2.27,0.81,4.24,2.42,5.93c1.61,1.69,3.85,2.53,6.7,2.53c3.17,0,5.62-1.13,7.36-3.39l-3.21-2.2
			c-1.01,1.24-2.43,1.86-4.25,1.86c-1.47,0-2.66-0.44-3.57-1.31c-0.91-0.87-1.36-2-1.36-3.38c0-1.42,0.47-2.58,1.41-3.49
			C108.24,54.85,109.47,54.4,111,54.4z"/>
		<path d="M124.69,63.37c-0.67,0-1.25,0.24-1.72,0.71c-0.47,0.47-0.71,1.06-0.71,1.73c0,0.67,0.24,1.25,0.71,1.72
			c0.47,0.48,1.05,0.72,1.72,0.72c0.67,0,1.25-0.24,1.72-0.72c0.47-0.48,0.71-1.06,0.71-1.72c0-0.68-0.24-1.26-0.71-1.73
			C125.93,63.61,125.36,63.37,124.69,63.37z"/>
		<path d="M144.46,62.52c-1.4,1.76-3.16,2.62-5.37,2.62c-1.19,0-2.28-0.27-3.23-0.79c-0.95-0.52-1.7-1.26-2.24-2.2
			c-0.54-0.94-0.82-1.97-0.82-3.04c0-1.66,0.58-3.04,1.78-4.2c1.2-1.17,2.67-1.74,4.5-1.74c2.29,0,4.05,0.85,5.37,2.61l0.33,0.44
			l2.62-1.63l-0.3-0.5c-0.52-0.88-1.17-1.61-1.93-2.18c-0.74-0.56-1.66-1.03-2.72-1.37c-1.05-0.35-2.16-0.52-3.29-0.52
			c-1.8,0-3.46,0.41-4.92,1.21c-1.47,0.8-2.64,1.94-3.49,3.37c-0.84,1.43-1.27,3.01-1.27,4.68c0,2.49,0.91,4.64,2.72,6.38
			c1.8,1.73,4.08,2.61,6.79,2.61c1.75,0,3.34-0.35,4.73-1.03c1.4-0.69,2.53-1.67,3.36-2.92l0.33-0.5l-2.61-1.72L144.46,62.52z"/>
		<path d="M158.27,50.01c-2.67,0-4.92,0.98-6.67,2.92c-1.59,1.75-2.39,3.86-2.39,6.24c0,2.41,0.85,4.55,2.53,6.35
			c1.69,1.81,3.89,2.73,6.54,2.73c2.64,0,4.83-0.92,6.52-2.73c1.68-1.8,2.53-3.94,2.53-6.35c0-2.4-0.81-4.5-2.4-6.26
			C163.17,50.99,160.93,50.01,158.27,50.01z M164,59.23c0,1.06-0.26,2.07-0.78,2.99c-0.51,0.91-1.21,1.63-2.08,2.12
			c-0.87,0.5-1.84,0.75-2.89,0.75c-1.05,0-2.02-0.25-2.89-0.75c-0.87-0.49-1.57-1.21-2.08-2.12c-0.51-0.92-0.78-1.92-0.78-2.99
			c0-1.67,0.56-3.06,1.7-4.23c1.14-1.17,2.46-1.74,4.04-1.74c1.57,0,2.89,0.57,4.04,1.74C163.44,56.17,164,57.56,164,59.23z"/>
		<path d="M194.74,53.6c-0.46-1.12-1.18-2.01-2.13-2.64c-0.95-0.63-2.06-0.95-3.3-0.95c-1.31,0-2.55,0.36-3.68,1.08
			c-0.82,0.52-1.55,1.23-2.17,2.1c-0.25-0.51-0.52-0.94-0.82-1.28c-0.5-0.58-1.16-1.04-1.94-1.38c-0.78-0.34-1.61-0.51-2.48-0.51
			c-1.27,0-2.49,0.35-3.64,1.04c-0.45,0.28-0.89,0.64-1.32,1.09v-1.72h-3.28v17.41h3.28v-7.47c0-1.94,0.19-3.38,0.56-4.29
			c0.36-0.88,0.9-1.56,1.65-2.08c0.74-0.52,1.52-0.77,2.36-0.77c0.72,0,1.31,0.17,1.82,0.53c0.5,0.35,0.85,0.81,1.05,1.39
			c0.15,0.44,0.33,1.45,0.33,3.79v8.9h3.28V60.9c0-2.24,0.18-3.84,0.54-4.76c0.35-0.89,0.88-1.58,1.62-2.11
			c0.74-0.53,1.53-0.78,2.42-0.78c0.72,0,1.31,0.16,1.82,0.5c0.5,0.33,0.84,0.75,1.04,1.29c0.15,0.4,0.33,1.31,0.33,3.37v9.45h3.33
			v-9.45C195.41,56.27,195.19,54.7,194.74,53.6z"/>
	</g>
</g>
</svg>
