<?xml version="1.0" encoding="utf-8"?>
<!-- Generator: Adobe Illustrator 26.0.1, SVG Export Plug-In . SVG Version: 6.00 Build 0)  -->
<svg version="1.1" id="Слой_1" xmlns="http://www.w3.org/2000/svg" xmlns:xlink="http://www.w3.org/1999/xlink" x="0px" y="0px"
	 viewBox="0 0 283.46 283.46" style="enable-background:new 0 0 283.46 283.46;" xml:space="preserve">
<style type="text/css">
	.st0{fill:none;}
	.st1{fill:#3C3B6F;}
	.st2{fill:#C51D26;}
</style>
<g>
	<g>
		<path class="st0" d="M105.45,257.69c-0.39-0.44-0.84-0.78-1.37-0.99c-0.53-0.22-1.11-0.33-1.75-0.33c-0.63,0-1.21,0.11-1.75,0.33
			c-0.53,0.22-0.99,0.55-1.37,0.99c-0.39,0.44-0.69,1-0.91,1.67c-0.22,0.67-0.33,1.44-0.33,2.33c0,0.89,0.11,1.66,0.33,2.33
			c0.22,0.67,0.52,1.22,0.91,1.66c0.39,0.44,0.84,0.77,1.37,0.99c0.53,0.22,1.11,0.33,1.75,0.33c0.63,0,1.21-0.11,1.75-0.33
			c0.53-0.22,0.99-0.55,1.37-0.99c0.39-0.44,0.69-0.99,0.91-1.66c0.22-0.67,0.33-1.44,0.33-2.33c0-0.89-0.11-1.66-0.33-2.33
			C106.14,258.69,105.83,258.14,105.45,257.69z"/>
		<path class="st0" d="M217.44,259.94c0.21-0.35,0.31-0.76,0.31-1.22c0-0.39-0.08-0.74-0.25-1.04c-0.16-0.3-0.44-0.54-0.83-0.72
			c-0.25-0.12-0.57-0.2-0.96-0.26c-0.39-0.05-0.86-0.08-1.43-0.08h-1.91v4.48h1.32c0.61,0,1.13-0.03,1.55-0.08
			c0.43-0.05,0.78-0.14,1.07-0.25C216.86,260.57,217.24,260.29,217.44,259.94z"/>
		<path class="st0" d="M72.66,257.69c-0.39-0.44-0.84-0.78-1.37-0.99c-0.53-0.22-1.11-0.33-1.75-0.33c-0.63,0-1.21,0.11-1.75,0.33
			c-0.53,0.22-0.99,0.55-1.37,0.99c-0.39,0.44-0.69,1-0.91,1.67c-0.22,0.67-0.33,1.44-0.33,2.33c0,0.89,0.11,1.67,0.33,2.33
			c0.22,0.67,0.52,1.22,0.91,1.66c0.39,0.44,0.84,0.77,1.37,0.99c0.53,0.22,1.11,0.33,1.75,0.33c0.63,0,1.21-0.11,1.75-0.33
			c0.53-0.22,0.99-0.55,1.37-0.99c0.39-0.44,0.69-0.99,0.91-1.66c0.22-0.67,0.33-1.44,0.33-2.33c0-0.89-0.11-1.66-0.33-2.33
			C73.35,258.69,73.04,258.13,72.66,257.69z"/>
		<path class="st0" d="M126.96,257.66c-0.39-0.44-0.84-0.78-1.37-0.99c-0.53-0.22-1.11-0.33-1.75-0.33c-0.63,0-1.21,0.11-1.75,0.33
			c-0.53,0.22-0.99,0.55-1.37,0.99c-0.39,0.44-0.69,1-0.91,1.66c-0.22,0.67-0.33,1.44-0.33,2.33c0,0.89,0.11,1.67,0.33,2.33
			c0.22,0.67,0.52,1.22,0.91,1.66c0.39,0.44,0.84,0.77,1.37,0.99c0.53,0.22,1.11,0.33,1.75,0.33c0.63,0,1.21-0.11,1.75-0.33
			c0.53-0.22,0.99-0.55,1.37-0.99c0.39-0.44,0.69-0.99,0.91-1.66c0.22-0.67,0.33-1.44,0.33-2.33c0-0.89-0.11-1.66-0.33-2.33
			C127.65,258.66,127.35,258.1,126.96,257.66z"/>
		<path class="st1" d="M46.17,261.61c-0.44-0.31-0.94-0.54-1.5-0.71c-0.56-0.17-1.15-0.32-1.77-0.45c-0.39-0.08-0.76-0.17-1.11-0.26
			c-0.35-0.09-0.66-0.22-0.93-0.38c-0.27-0.16-0.48-0.36-0.64-0.6c-0.16-0.24-0.23-0.55-0.23-0.92c0-0.64,0.24-1.12,0.71-1.44
			c0.48-0.32,1.15-0.48,2.03-0.48c0.61,0,1.26,0.07,1.96,0.2c0.69,0.13,1.42,0.35,2.18,0.65v-2.29c-0.57-0.24-1.24-0.44-2.03-0.59
			c-0.79-0.15-1.57-0.23-2.35-0.23c-0.78,0-1.48,0.09-2.1,0.28c-0.62,0.19-1.16,0.47-1.63,0.84c-0.46,0.37-0.83,0.85-1.1,1.42
			c-0.27,0.57-0.4,1.24-0.4,2.01c0,0.7,0.12,1.28,0.35,1.75c0.23,0.47,0.55,0.85,0.94,1.15c0.39,0.3,0.85,0.54,1.36,0.71
			c0.52,0.17,1.06,0.32,1.63,0.44c0.43,0.09,0.84,0.18,1.23,0.27s0.74,0.21,1.05,0.35c0.31,0.15,0.56,0.33,0.74,0.56
			c0.18,0.23,0.27,0.53,0.27,0.9c0,0.42-0.1,0.78-0.29,1.06c-0.2,0.29-0.46,0.51-0.78,0.68c-0.32,0.17-0.69,0.29-1.1,0.36
			c-0.41,0.07-0.82,0.1-1.24,0.1c-0.73,0-1.43-0.07-2.12-0.21c-0.68-0.14-1.39-0.37-2.11-0.68v2.26c0.51,0.28,1.15,0.5,1.91,0.66
			c0.77,0.16,1.55,0.23,2.34,0.23c0.91,0,1.75-0.09,2.51-0.27c0.76-0.18,1.41-0.46,1.95-0.83c0.53-0.37,0.95-0.85,1.24-1.42
			c0.29-0.57,0.44-1.26,0.44-2.04c0-0.76-0.13-1.39-0.38-1.88C46.95,262.32,46.61,261.92,46.17,261.61z"/>
		<polygon class="st1" points="53.23,262.64 59.06,262.64 59.06,260.4 53.23,260.4 53.23,256.62 60.02,256.62 60.02,254.38 
			50.56,254.38 50.56,268.99 60.41,268.99 60.41,266.75 53.23,266.75 		"/>
		<path class="st1" d="M89.76,262.75c0,1.03-0.12,1.84-0.37,2.42c-0.28,0.65-0.68,1.12-1.21,1.4c-0.53,0.29-1.16,0.43-1.88,0.43
			c-0.72,0-1.35-0.14-1.88-0.43c-0.53-0.29-0.93-0.76-1.21-1.4c-0.25-0.58-0.37-1.39-0.37-2.42v-8.36h-2.67v8.6
			c0,0.61,0.03,1.16,0.1,1.66c0.07,0.5,0.18,0.95,0.34,1.35c0.2,0.51,0.46,0.97,0.79,1.37c0.33,0.4,0.72,0.75,1.19,1.03
			c0.46,0.28,1,0.49,1.61,0.64c0.61,0.15,1.3,0.22,2.06,0.22c0.76,0,1.45-0.07,2.07-0.22c0.62-0.15,1.17-0.36,1.64-0.64
			c0.48-0.28,0.88-0.62,1.21-1.03c0.33-0.4,0.59-0.86,0.79-1.37c0.16-0.41,0.27-0.86,0.34-1.35c0.07-0.49,0.1-1.05,0.1-1.66v-8.6
			h-2.67V262.75z"/>
		<path class="st1" d="M107.58,256.23c-0.61-0.67-1.35-1.19-2.24-1.56c-0.88-0.37-1.89-0.56-3.02-0.56c-1.13,0-2.13,0.19-3.02,0.56
			c-0.88,0.37-1.63,0.89-2.24,1.56c-0.61,0.67-1.07,1.47-1.39,2.4c-0.32,0.93-0.47,1.95-0.47,3.06c0,1.11,0.16,2.13,0.47,3.06
			c0.32,0.93,0.78,1.73,1.39,2.4c0.61,0.67,1.35,1.19,2.24,1.56c0.88,0.37,1.89,0.56,3.02,0.56c1.13,0,2.13-0.19,3.02-0.56
			c0.88-0.37,1.63-0.89,2.24-1.56c0.61-0.67,1.07-1.47,1.39-2.4c0.32-0.93,0.47-1.95,0.47-3.06c0-1.11-0.16-2.13-0.47-3.06
			C108.65,257.7,108.19,256.9,107.58,256.23z M106.35,264.02c-0.22,0.67-0.52,1.22-0.91,1.66c-0.39,0.44-0.84,0.77-1.37,0.99
			c-0.53,0.22-1.11,0.33-1.75,0.33c-0.63,0-1.21-0.11-1.75-0.33c-0.53-0.22-0.99-0.55-1.37-0.99c-0.39-0.44-0.69-0.99-0.91-1.66
			c-0.22-0.67-0.33-1.44-0.33-2.33c0-0.89,0.11-1.66,0.33-2.33c0.22-0.67,0.52-1.22,0.91-1.67c0.39-0.44,0.84-0.78,1.37-0.99
			c0.53-0.22,1.11-0.33,1.75-0.33c0.63,0,1.21,0.11,1.75,0.33c0.53,0.22,0.99,0.55,1.37,0.99c0.39,0.44,0.69,1,0.91,1.67
			c0.22,0.67,0.33,1.44,0.33,2.33C106.68,262.58,106.57,263.35,106.35,264.02z"/>
		<path class="st1" d="M76.18,264.74c0.32-0.93,0.47-1.95,0.47-3.06c0-1.11-0.16-2.13-0.47-3.06c-0.32-0.93-0.78-1.73-1.39-2.4
			c-0.61-0.67-1.35-1.19-2.24-1.56c-0.88-0.37-1.89-0.56-3.02-0.56c-1.13,0-2.13,0.19-3.02,0.56c-0.88,0.37-1.63,0.89-2.24,1.56
			c-0.61,0.67-1.07,1.47-1.39,2.4c-0.32,0.93-0.47,1.95-0.47,3.06c0,1.11,0.16,2.13,0.47,3.06c0.32,0.93,0.78,1.73,1.39,2.4
			c0.61,0.67,1.35,1.19,2.24,1.56c0.88,0.37,1.89,0.56,3.02,0.56l8.97,0.01l-3.1-2.97C75.71,265.82,75.98,265.31,76.18,264.74z
			 M73.56,264.01c-0.22,0.67-0.52,1.22-0.91,1.66c-0.39,0.44-0.84,0.77-1.37,0.99c-0.53,0.22-1.11,0.33-1.75,0.33
			c-0.63,0-1.21-0.11-1.75-0.33c-0.53-0.22-0.99-0.55-1.37-0.99c-0.39-0.44-0.69-0.99-0.91-1.66c-0.22-0.67-0.33-1.44-0.33-2.33
			c0-0.89,0.11-1.66,0.33-2.33c0.22-0.67,0.52-1.22,0.91-1.67c0.39-0.44,0.84-0.78,1.37-0.99c0.53-0.22,1.11-0.33,1.75-0.33
			c0.63,0,1.21,0.11,1.75,0.33c0.53,0.22,0.99,0.55,1.37,0.99c0.39,0.44,0.69,1,0.91,1.67c0.22,0.67,0.33,1.44,0.33,2.33
			C73.89,262.57,73.78,263.35,73.56,264.01z"/>
		<rect x="111.79" y="254.35" class="st1" width="2.67" height="14.61"/>
		<rect x="133.18" y="266.08" class="st1" width="2.93" height="2.91"/>
		<path class="st1" d="M144.88,261.64c-0.39,1.05-0.64,1.74-0.76,2.08c-0.12,0.34-0.31,0.9-0.58,1.7h-0.04
			c-0.27-0.79-0.46-1.36-0.58-1.7c-0.12-0.34-0.37-1.03-0.76-2.08l-2.71-7.26h-2.85l5.71,14.61h2.4l5.71-14.61h-2.83L144.88,261.64z
			"/>
		<polygon class="st1" points="155.05,262.64 160.88,262.64 160.88,260.4 155.05,260.4 155.05,256.62 161.84,256.62 161.84,254.38 
			152.38,254.38 152.38,268.99 162.23,268.99 162.23,266.75 155.05,266.75 		"/>
		<path class="st1" d="M175.16,261c0,0.87,0.04,2.25,0.13,4.15h-0.07c-0.65-1.16-1.51-2.48-2.55-3.97l-4.8-6.79h-2.8v14.61h2.67
			v-6.62c0-0.98-0.04-2.37-0.13-4.16h0.07c0.89,1.54,1.76,2.89,2.6,4.05l4.76,6.72h2.8v-14.61h-2.67V261z"/>
		<polygon class="st1" points="179.9,256.62 184.61,256.62 184.61,268.99 187.29,268.99 187.29,256.62 191.99,256.62 191.99,254.38 
			179.9,254.38 		"/>
		<path class="st1" d="M203.59,262.75c0,1.03-0.12,1.84-0.37,2.42c-0.28,0.65-0.68,1.12-1.21,1.4s-1.16,0.43-1.88,0.43
			c-0.72,0-1.35-0.14-1.88-0.43s-0.93-0.76-1.21-1.4c-0.25-0.58-0.37-1.39-0.37-2.42v-8.36h-2.67v8.6c0,0.61,0.03,1.16,0.1,1.66
			c0.07,0.5,0.18,0.95,0.34,1.35c0.2,0.51,0.46,0.97,0.79,1.37c0.33,0.4,0.72,0.75,1.19,1.03c0.46,0.28,1,0.49,1.61,0.64
			c0.61,0.15,1.3,0.22,2.06,0.22c0.76,0,1.45-0.07,2.07-0.22c0.62-0.15,1.17-0.36,1.64-0.64c0.48-0.28,0.88-0.62,1.21-1.03
			c0.33-0.4,0.59-0.86,0.79-1.37c0.16-0.41,0.27-0.86,0.34-1.35c0.07-0.49,0.1-1.05,0.1-1.66v-8.6h-2.67V262.75z"/>
		<path class="st1" d="M217.05,262.94c1.18-0.34,2.05-0.87,2.61-1.58c0.56-0.71,0.85-1.57,0.85-2.59c0-0.98-0.23-1.78-0.7-2.43
			c-0.47-0.64-1.13-1.13-1.99-1.46c-0.45-0.17-0.99-0.29-1.63-0.38c-0.63-0.08-1.32-0.13-2.05-0.13h-4.44v14.61h2.67v-5.65h1.83
			l3.97,5.65h3.21l-4.34-6V262.94z M215.25,261.02c-0.43,0.05-0.94,0.08-1.55,0.08h-1.32v-4.48h1.91c0.57,0,1.04,0.03,1.43,0.08
			c0.39,0.05,0.7,0.14,0.96,0.26c0.39,0.17,0.67,0.41,0.83,0.72c0.16,0.3,0.25,0.65,0.25,1.04c0,0.46-0.1,0.86-0.31,1.22
			c-0.21,0.35-0.58,0.63-1.12,0.83C216.03,260.88,215.68,260.96,215.25,261.02z"/>
		<polygon class="st1" points="226.4,262.64 232.23,262.64 232.23,260.4 226.4,260.4 226.4,256.62 233.19,256.62 233.19,254.38 
			223.73,254.38 223.73,268.99 233.58,268.99 233.58,266.75 226.4,266.75 		"/>
		<path class="st1" d="M245.96,262.81c-0.25-0.49-0.6-0.89-1.04-1.2c-0.44-0.31-0.94-0.54-1.5-0.71c-0.56-0.17-1.16-0.32-1.77-0.45
			c-0.39-0.08-0.76-0.17-1.11-0.26c-0.35-0.09-0.66-0.22-0.93-0.38c-0.27-0.16-0.48-0.36-0.64-0.6c-0.16-0.24-0.23-0.55-0.23-0.92
			c0-0.64,0.24-1.12,0.71-1.44c0.48-0.32,1.15-0.48,2.03-0.48c0.61,0,1.26,0.07,1.96,0.2c0.69,0.13,1.42,0.35,2.18,0.65v-2.29
			c-0.57-0.24-1.24-0.44-2.03-0.59c-0.79-0.15-1.57-0.23-2.35-0.23c-0.78,0-1.48,0.09-2.1,0.28c-0.62,0.19-1.16,0.47-1.63,0.84
			c-0.46,0.37-0.83,0.85-1.1,1.42c-0.27,0.57-0.4,1.24-0.4,2.01c0,0.7,0.12,1.28,0.35,1.75c0.23,0.47,0.55,0.85,0.94,1.15
			c0.39,0.3,0.85,0.54,1.36,0.71c0.52,0.17,1.06,0.32,1.63,0.44c0.43,0.09,0.84,0.18,1.23,0.27c0.39,0.09,0.74,0.21,1.05,0.35
			c0.31,0.15,0.56,0.33,0.74,0.56c0.18,0.23,0.27,0.53,0.27,0.9c0,0.42-0.1,0.78-0.29,1.06c-0.2,0.29-0.46,0.51-0.78,0.68
			c-0.32,0.17-0.69,0.29-1.1,0.36c-0.41,0.07-0.82,0.1-1.24,0.1c-0.73,0-1.43-0.07-2.12-0.21c-0.68-0.14-1.39-0.37-2.11-0.68v2.26
			c0.51,0.28,1.15,0.5,1.91,0.66c0.77,0.16,1.55,0.23,2.34,0.23c0.91,0,1.75-0.09,2.51-0.27c0.76-0.18,1.41-0.46,1.95-0.83
			c0.53-0.37,0.95-0.85,1.24-1.42c0.29-0.57,0.44-1.26,0.44-2.04C246.35,263.93,246.22,263.3,245.96,262.81z"/>
		<path class="st1" d="M128.28,255.48c-0.43-0.33-0.89-0.62-1.42-0.85c-0.88-0.37-1.89-0.56-3.02-0.56c-1.13,0-2.13,0.19-3.02,0.56
			c-0.88,0.37-1.63,0.89-2.24,1.56c-0.61,0.67-1.07,1.47-1.39,2.4c-0.32,0.93-0.47,1.95-0.47,3.06c0,1.11,0.16,2.13,0.47,3.06
			c0.32,0.93,0.78,1.73,1.39,2.4c0.61,0.67,1.35,1.19,2.24,1.56c0.88,0.37,1.89,0.56,3.02,0.56c1.13,0,2.13-0.19,3.02-0.56
			c0.53-0.22,0.99-0.52,1.42-0.85v1.13h2.67v-14.61h-2.67V255.48z M127.87,263.99c-0.22,0.67-0.52,1.22-0.91,1.66
			c-0.39,0.44-0.84,0.77-1.37,0.99c-0.53,0.22-1.11,0.33-1.75,0.33c-0.63,0-1.21-0.11-1.75-0.33c-0.53-0.22-0.99-0.55-1.37-0.99
			c-0.39-0.44-0.69-0.99-0.91-1.66c-0.22-0.67-0.33-1.44-0.33-2.33c0-0.89,0.11-1.66,0.33-2.33c0.22-0.67,0.52-1.22,0.91-1.66
			c0.39-0.44,0.84-0.78,1.37-0.99c0.53-0.22,1.11-0.33,1.75-0.33c0.63,0,1.21,0.11,1.75,0.33c0.53,0.22,0.99,0.55,1.37,0.99
			c0.39,0.44,0.69,1,0.91,1.66c0.22,0.67,0.33,1.44,0.33,2.33C128.19,262.54,128.08,263.32,127.87,263.99z"/>
	</g>
	<polygon class="st1" points="192.21,37.11 193.86,42.2 199.22,42.2 194.89,45.34 196.54,50.43 192.21,47.29 187.88,50.43 
		189.53,45.34 185.2,42.2 190.56,42.2 	"/>
	<polygon class="st1" points="167.69,37.08 169.34,42.17 174.69,42.17 170.36,45.32 172.02,50.41 167.69,47.27 163.36,50.41 
		165.01,45.32 160.68,42.17 166.03,42.17 	"/>
	<polygon class="st1" points="167.69,12.65 169.34,17.74 174.69,17.74 170.36,20.89 172.02,25.98 167.69,22.84 163.36,25.98 
		165.01,20.89 160.68,17.74 166.03,17.74 	"/>
	<polygon class="st1" points="192.21,12.68 193.87,17.77 199.22,17.77 194.89,20.91 196.54,26 192.21,22.86 187.88,26 189.54,20.91 
		185.21,17.77 190.56,17.77 	"/>
	<polygon class="st1" points="143.18,61.45 144.84,66.54 150.19,66.54 145.86,69.69 147.51,74.78 143.18,71.63 138.85,74.78 
		140.51,69.69 136.18,66.54 141.53,66.54 	"/>
	<polygon class="st1" points="143.18,37.11 144.84,42.2 150.19,42.2 145.86,45.34 147.51,50.43 143.18,47.29 138.85,50.43 
		140.51,45.34 136.18,42.2 141.53,42.2 	"/>
	<polygon class="st1" points="143.18,12.63 144.84,17.72 150.19,17.72 145.86,20.86 147.51,25.95 143.18,22.81 138.85,25.95 
		140.51,20.86 136.18,17.72 141.53,17.72 	"/>
	<polygon class="st1" points="118.64,85.82 120.29,90.91 125.65,90.91 121.32,94.05 122.97,99.14 118.64,96 114.31,99.14 
		115.96,94.05 111.63,90.91 116.99,90.91 	"/>
	<polygon class="st1" points="118.64,61.47 120.29,66.56 125.65,66.56 121.32,69.7 122.97,74.8 118.64,71.65 114.31,74.8 
		115.96,69.7 111.63,66.56 116.99,66.56 	"/>
	<polygon class="st1" points="118.69,37.12 120.34,42.21 125.69,42.21 121.36,45.36 123.02,50.45 118.69,47.3 114.36,50.45 
		116.01,45.36 111.68,42.21 117.03,42.21 	"/>
	<polygon class="st1" points="118.68,12.65 120.33,17.74 125.69,17.74 121.36,20.89 123.01,25.98 118.68,22.84 114.35,25.98 
		116,20.89 111.67,17.74 117.03,17.74 	"/>
	<polygon class="st1" points="94.15,37.11 95.81,42.2 101.16,42.2 96.83,45.35 98.48,50.44 94.15,47.3 89.82,50.44 91.48,45.35 
		87.15,42.2 92.5,42.2 	"/>
	<polygon class="st1" points="94.15,12.66 95.81,17.75 101.16,17.75 96.83,20.89 98.48,25.98 94.15,22.84 89.82,25.98 91.48,20.89 
		87.15,17.75 92.5,17.75 	"/>
	<polygon class="st1" points="94.15,110.38 95.81,115.47 101.16,115.47 96.83,118.61 98.48,123.7 94.15,120.56 89.82,123.7 
		91.48,118.61 87.15,115.47 92.5,115.47 	"/>
	<polygon class="st1" points="94.15,85.82 95.81,90.91 101.16,90.91 96.83,94.06 98.48,99.15 94.15,96 89.82,99.15 91.48,94.06 
		87.15,90.91 92.5,90.91 	"/>
	<polygon class="st1" points="94.15,61.49 95.81,66.58 101.16,66.58 96.83,69.72 98.48,74.81 94.15,71.67 89.82,74.81 91.48,69.72 
		87.15,66.58 92.5,66.58 	"/>
	<polygon class="st1" points="167.69,61.45 169.34,66.54 174.69,66.54 170.36,69.69 172.02,74.78 167.69,71.63 163.36,74.78 
		165.01,69.69 160.68,66.54 166.03,66.54 	"/>
	<polygon class="st1" points="143.16,85.81 144.81,90.9 150.16,90.9 145.83,94.04 147.49,99.13 143.16,95.99 138.83,99.13 
		140.48,94.04 136.15,90.9 141.5,90.9 	"/>
	<polygon class="st1" points="118.66,110.36 120.32,115.45 125.67,115.45 121.34,118.6 122.99,123.69 118.66,120.54 114.33,123.69 
		115.99,118.6 111.66,115.45 117.01,115.45 	"/>
	<polygon class="st1" points="94.15,134.79 95.81,139.88 101.16,139.88 96.83,143.02 98.48,148.11 94.15,144.97 89.82,148.11 
		91.48,143.02 87.15,139.88 92.5,139.88 	"/>
	<polygon class="st2" points="123.01,159.95 119.4,159.95 123.19,153.81 119.31,153.81 125.06,144.49 126.43,142.27 124.41,139 
		118.66,129.69 112.92,139 107.17,148.32 111.03,148.32 111.03,167.16 112.11,168.92 117.86,178.23 114.03,178.23 117.82,184.37 
		114.22,184.37 117.82,190.21 111.03,190.21 111.03,196.48 82.71,244.99 82.71,250.66 110.8,250.66 110.8,244.99 126.3,196.48 
		126.3,165.79 119.4,165.79 	"/>
	<polygon class="st2" points="98.43,184.37 94.83,184.37 98.62,178.23 94.87,178.23 100.62,168.92 101.95,166.76 99.89,163.43 
		94.15,154.12 88.4,163.43 82.65,172.75 86.51,172.75 86.51,196.47 37.61,244.99 37.61,250.66 65.7,250.66 65.7,244.99 
		101.78,196.47 101.78,190.21 94.83,190.21 	"/>
	<polygon class="st2" points="147.5,135.3 143.9,135.3 147.68,129.16 143.9,129.16 149.64,119.84 150.91,117.79 148.93,114.57 
		143.18,105.25 137.43,114.57 131.69,123.88 135.54,123.88 135.54,142.85 136.56,144.49 142.3,153.81 138.6,153.81 142.39,159.95 
		138.79,159.95 142.39,165.79 135.54,165.79 135.54,196.48 127.8,244.99 127.8,250.66 155.89,250.66 155.89,244.99 150.81,196.48 
		150.81,141.14 143.9,141.14 	"/>
	<polygon class="st2" points="172.04,111.18 168.43,111.18 172.22,105.04 168.43,105.04 174.18,95.72 175.56,93.5 173.43,90.05 
		167.69,80.74 161.94,90.05 156.19,99.37 160.06,99.37 160.06,118.09 161.14,119.84 166.88,129.16 163.1,129.16 166.88,135.3 
		163.28,135.3 166.88,141.14 160.06,141.14 160.06,196.48 172.9,244.99 172.9,250.66 200.99,250.66 200.99,244.99 175.33,196.48 
		175.33,117.02 168.43,117.02 	"/>
	<polygon class="st2" points="199.85,196.48 199.85,75.04 203.7,75.04 197.96,65.72 192.21,56.41 186.46,65.72 180.72,75.04 
		184.58,75.04 184.58,93.94 185.68,95.72 191.42,105.04 187.63,105.04 191.42,111.18 187.82,111.18 191.42,117.02 184.58,117.02 
		184.58,196.48 218,244.99 218,250.66 246.09,250.66 246.09,244.99 	"/>
</g>
</svg>
