<?xml version="1.0" encoding="utf-8"?>
<!-- Generator: Adobe Illustrator 26.0.1, SVG Export Plug-In . SVG Version: 6.00 Build 0)  -->
<svg version="1.1" id="Слой_1" xmlns="http://www.w3.org/2000/svg" xmlns:xlink="http://www.w3.org/1999/xlink" x="0px" y="0px"
	 viewBox="0 0 370.09 174.69" style="enable-background:new 0 0 370.09 174.69;" xml:space="preserve">
<style type="text/css">
	.st0{fill:#358531;}
</style>
<g>
	<g>
		<g>
			<path class="st0" d="M69.18,84.02c-0.13-0.27-0.33-0.53-0.36-0.81c-0.41-3.87-0.79-7.73-1.18-11.6
				c-0.01-0.06,0.01-0.14-0.02-0.19c-0.16-0.26-0.34-0.51-0.51-0.76c-0.14,0.29-0.39,0.58-0.39,0.86c0.01,0.83,0.09,1.67,0.22,2.49
				c0.27,1.71,0.59,3.41,0.86,5.12c0.05,0.33-0.07,0.69-0.11,1.04c-0.09,0-0.19,0-0.28,0c-0.24-1.32-0.47-2.65-0.71-3.97
				c-0.03,0-0.07,0.01-0.1,0.01c-0.11,3.34-0.21,6.68-0.34,10.02c-0.13,3.3,0.06,6.62-0.43,9.89c-0.13-0.01-0.26-0.01-0.39-0.02
				c0.05-2.73,0.16-5.47,0.13-8.2c-0.03-2.78-0.19-5.57-0.46-8.35c-0.75,3.57,0.02,7.16-0.13,10.74c-0.05-0.14-0.09-0.28-0.22-0.66
				c-0.06,1.82-0.12,3.4-0.17,4.98c0.04,0.01,0.07,0.02,0.11,0.03c0.08-0.26,0.17-0.53,0.24-0.78c-0.04,1.25-0.09,2.52-0.13,3.79
				c-0.04,0-0.09,0-0.13,0c0.02-0.48,0.03-0.95,0.05-1.43c-0.55,2.6-0.54,5.2-0.24,7.84c0.6,5.33,0.46,10.68-0.29,16
				c-0.32,2.26-0.94,4.47-1.3,6.72c-0.23,1.39-0.2,2.82-0.34,4.23c-0.06,0.62-1.36,1.72-1.21,1c0.33-1.57,0.59-3.15,0.88-4.73
				c0.44-2.4,0.89-4.8,1.31-7.2c0.65-3.66,0.88-7.35,0.81-11.06c-0.04-1.93-0.12-3.85-0.19-5.78c-0.11,0-0.21,0-0.32,0.01
				c-0.02,0.69-0.05,1.39-0.07,2.08c-0.11,0.03-0.22,0.07-0.33,0.1c-0.11-0.34-0.31-0.67-0.32-1.01c-0.08-2.38-0.12-4.77-0.18-7.15
				c-0.09,0-0.18,0-0.27-0.01c-0.06,0.7-0.15,1.4-0.17,2.1c-0.11,4.54-0.21,9.08-0.28,13.62c-0.04,2.51-0.09,5.03,0,7.53
				c0.08,2.36-0.51,4.59-0.99,6.85c-0.14,0.65-0.22,1.31-0.32,1.96c-0.09,0.04-0.18,0.08-0.27,0.11c-0.17-0.33-0.51-0.67-0.49-0.98
				c0.22-3.01,0.53-6.02,0.77-9.03c0.09-1.16,0.09-2.34-0.03-3.53c-0.09,0.53-0.18,1.05-0.28,1.58c-0.44,2.33-0.88,4.67-1.34,7
				c-0.27,1.42-0.49,2.85-0.88,4.23c-0.16,0.59-0.69,1.08-1.04,1.63c-0.15,0.24-0.28,0.51-0.38,0.77c-0.88,2.43-2.12,4.64-3.93,6.5
				c-0.18,0.18-0.36,0.39-0.45,0.62c-0.22,0.57-0.63,0.72-1.15,0.53c-1-0.37-2.73,0.43-2.89,0.2c0.21-0.11,0.44-0.19,0.62-0.33
				c0.83-0.61,1.81-1.12,2.44-1.9c1.21-1.51,2.47-3.07,3.26-4.82c0.82-1.81,1.24-3.83,1.61-5.8c0.42-2.3,0.61-4.65,0.88-6.98
				c0.24-2.04,0.49-4.08,0.68-6.13c0.3-3.1,0.56-6.2,0.83-9.3c0.2-2.34,0.34-4.68,0.56-7.01c0.14-1.51,0.5-3.01,0.53-4.53
				c0.1-4.99,0.1-9.98,0.14-14.97c0-0.08-0.05-0.17-0.01-0.05c-0.75,0.36-1.58,0.59-2.19,1.1c-0.43,0.36-0.66,1.05-0.8,1.64
				c-0.16,0.64-0.09,1.34-0.19,2c-0.04,0.25-0.22,0.55-0.43,0.67c-0.13,0.07-0.52-0.11-0.64-0.28c-1.52-2.13-3.77-3.26-6-4.39
				c-0.43-0.22-1-0.2-1.51-0.25c-0.57-0.07-1.15-0.06-1.72-0.16c-1.12-0.21-1.66,0.19-1.67,1.3c0,0.65-1.33,1.78-2.41,1.96
				c-0.66,0.11-1.34,0.1-2.01,0.16c-1.3,0.11-2.6,0.24-3.9,0.34c-0.77,0.06-1.54,0.17-2.31,0.12c-0.83-0.06-1.54-0.42-1.92-1.26
				c-0.31-0.68-0.16-1.15,0.52-1.51c0.73-0.39,1.42-0.85,2.31-1.38c-0.52-0.25-0.87-0.46-1.25-0.59c-1.17-0.39-1.3-0.76-0.58-1.78
				c0.11-0.16,0.2-0.32,0.34-0.55c-0.52-0.51-0.94-1-0.65-1.88c0.13-0.4-0.32-1.01-0.56-1.5c-0.25-0.52-0.27-0.9,0.43-0.91
				c0.75-0.02,0.68-0.41,0.59-0.97c-0.28-1.69-0.08-3.27,1.16-4.6c0.87-0.93,1.9-1.37,3.13-0.97c1.6,0.52,3.17,1.13,4.74,1.69
				c-0.15-0.23-0.34-0.54-0.64-1.01c0.44-0.13,0.83-0.29,1.24-0.36c1.07-0.19,2.14-0.37,3.22-0.48c0.87-0.09,1.77-0.11,2.42,0.64
				c0.19,0.22,0.32,0.57,0.3,0.85c-0.01,0.12-0.46,0.21-0.71,0.31c-0.14,0.06-0.3,0.09-0.47,0.14c0.57,0.52,1.1,1.02,1.77,1.64
				c0.04-1.03,0.07-2.07,0.11-3.24c1.12,0.71,1.29,1.88,0.75,3.23c-0.17,0.43-0.29,0.92-0.27,1.37c0.03,0.61-0.01,1.39,0.85,1.51
				c1.17,0.17,1.76-0.25,1.99-1.37c0.28-1.42,0.6-2.82-0.88-3.93c-0.53-0.39-0.72-1.26-1-1.94c-0.08-0.19-0.02-0.55,0.12-0.69
				c0.1-0.1,0.44,0.02,0.66,0.07c0.46,0.1,0.94,0.17,1.37,0.35c1.56,0.68,3.09,1.44,4.66,2.09c0.7,0.29,0.79,0.72,0.5,1.43
				c0.45-0.07,0.79-0.12,1.26-0.2c-0.18-0.37-0.31-0.68-0.48-0.96c-0.94-1.49-0.47-2.16,1.2-2.75c1.21-0.42,1.49-0.69,1.53-2.11
				c-2.26,0.42-3.4-0.16-4.75-2.41c-0.93,0.21-1.85,0.56-2.78,0.59c-1.74,0.06-2.06-0.26-2.42-1.9c-0.82,0.07-1.66,0.07-2.46,0.22
				c-1.01,0.19-1.87,0.05-2.49-0.81c-0.73-1.01-0.29-1.94,0.36-2.97c-0.38-0.07-0.72-0.08-1.01-0.21c-0.25-0.11-0.45-0.35-0.67-0.54
				c0.24-0.09,0.48-0.2,0.73-0.27c0.18-0.05,0.37-0.04,0.48-0.04c0.53-2.24-1.05-3.28-2.38-4.45c-0.07-0.06-0.16-0.12-0.25-0.15
				c-1.84-0.71-2.34-0.57-2.4,1.24c-0.06,1.8,0.8,3.68,3.57,4.51c0.31,0.09,0.61,0.24,1.15,0.45c-1.74,0.25-4.04-1.1-4.61-2.75
				c-0.37-1.06-0.42-2.26-0.5-3.4c-0.04-0.62,0.42-1.07,1.06-0.98c0.65,0.09,1.35,0.24,1.88,0.58c0.92,0.58,1.72,1.32,2.48,1.92
				c0.58-0.6,1.11-1.26,1.77-1.73c0.22-0.16,0.81,0.09,1.17,0.27c1.04,0.52,1.38,1.19,1.07,1.97c-0.44,1.1-1.63,1.47-3.38,1.05
				c-0.11,1.16,0.16,1.45,1.15,1.04c1.49-0.62,2.94-1.34,4.4-2.02c-0.02-0.12-0.05-0.23-0.07-0.35c-0.44-0.24-0.88-0.48-1.32-0.71
				c-0.73-0.37-0.87-0.91-0.66-1.69c0.44-1.64,1.52-2.45,3.14-2.68c0.76-0.11,1.52-0.22,2.38-0.35c0.27-1.79,1.43-2.84,3.31-3.17
				c-0.04-0.08-0.08-0.15-0.12-0.23c-0.19,0.01-0.39-0.03-0.56,0.03c-2.69,0.87-4.85-0.35-6.84-1.88c-0.93-0.71-1.59-1.75-2.44-2.58
				c-0.45-0.44-1.11-0.69-1.52-1.16c-0.36-0.41-0.51-1.01-0.76-1.52c0.56-0.1,1.27-0.47,1.65-0.26c1.82,1.03,3.86,0.54,5.75,1.03
				c0.31,0.08,0.73-0.24,1.1-0.38c-0.22-0.24-0.42-0.51-0.67-0.71c-0.49-0.41-1.03-0.76-1.5-1.2c-0.46-0.43-0.44-0.85,0.22-1.08
				c0.39-0.14,0.81-0.22,1.18-0.39c0.4-0.19,0.76-0.46,1.31-0.8c-0.74-0.51-1.26-0.86-1.77-1.22c-1.05-0.75-1.38-1.66-1.06-2.88
				c0.28-1.07,0.83-1.5,2.28-1.61c0.73-0.05,1.47,0.04,2.31,0.06c0.15-0.39,0.6-1.02,0.44-1.27c-0.41-0.65-1.08-1.14-1.67-1.67
				c-0.16-0.14-0.47-0.11-0.61-0.25c-0.14-0.16-0.35-0.45-0.23-0.66c0.11-0.19,0.46-0.2,0.65-0.15c1.11,0.28,2.2,0.66,3.32,0.91
				c1.53,0.34,2.68-0.42,3.9-1.41c-0.93-0.64-1.74-1.19-2.53-1.76c-0.31-0.22-0.61-0.48-0.85-0.78c-0.13-0.17-0.23-0.54-0.13-0.67
				c0.11-0.15,0.52-0.25,0.67-0.16c1.62,0.96,3.38,1.86,3.63,4.02c0.09,0.75-0.11,1.54-0.2,2.57c0.49,0.22,1.22,0.58,1.98,0.87
				c0.58,0.22,0.74,0.79,0.18,1.36c-0.55,0.57-1.23,1.01-1.83,1.48c0.1,0.38,0.2,0.79,0.36,1.41c-0.76-0.3-1.28-0.69-1.72-0.63
				c-0.34,0.05-0.59,0.68-0.74,1.12c-0.29,0.15-0.58,0.3-0.87,0.44c0.03,0.1,0.07,0.21,0.1,0.31c1.69,0.28,3.38,0.57,5.22,0.88
				c0.03-0.99,0.09-1.85,0.09-2.71c0-0.84,0.25-1.33,1.22-1.32c1.48,0.01,2.96-0.14,4.43-0.1c0.73,0.02,1.48,0.28,1.74,1.12
				c0.31,0.99-0.07,1.8-0.83,2.39c-0.85,0.66-1.74,1.32-2.7,1.79c-0.82,0.4-0.92,0.95-0.88,1.72c0.02,0.31-0.04,0.83-0.21,0.91
				c-0.26,0.11-0.69-0.01-0.98-0.17c-1.23-0.66-1.52-0.57-2.2,0.87c0.23,0.03,0.44,0.07,0.65,0.07c0.76,0,1.04,0.47,1.39,1.1
				c0.4,0.74,1.08,1.34,1.69,1.95c0.29,0.3,0.68,0.5,1.02,0.75c-0.28,0.27-0.55,0.54-1.02,0.99c0.44,0.45,0.95,0.97,1.46,1.5
				c0.08-0.04,0.16-0.09,0.24-0.13c-0.21-1.21,0.18-2.24,0.91-3.13c0.57-0.69,1.31-1.16,2.28-0.94c0.83,0.19,1.37,0.8,1.32,1.57
				c-0.04,0.68-0.38,1.43-0.81,1.97c-0.5,0.63-1.24,1.06-2.03,1.7c0.59,0.15,1.16,0.28,1.71,0.45c2.05,0.63,4.1,1.27,6.14,1.93
				c0.27,0.09,0.59,0.24,0.72,0.46c0.66,1.1,1.82,1.45,2.87,1.97c0.85,0.42,1.44,1.09,1.4,2.03c-0.05,1.05-0.8,1.72-1.71,2.17
				c-0.32,0.16-0.66,0.29-0.97,0.54c1.82,0.55,3.61,0.46,5.44-0.1c0.16,0.87-0.47,1.07-0.99,1.14c-1.49,0.21-2.99,0.33-4.49,0.48
				c-0.26,0.03-0.52,0.01-0.77,0.04c-0.94,0.1-1.97,0.53-2.46-0.99c-0.44,0.8-0.92,1.34-1.03,1.94c-0.16,0.96-0.81,1.25-1.54,1.51
				c-0.99,0.36-1.99,0.68-3,0.97c-0.86,0.24-1.27,0.8-1.41,1.64c-0.05,0.29-0.51,0.79-0.63,0.75c0.16-0.6,0.32-1.2,0.49-1.83
				c-0.5-0.56-0.99-0.51-1.75-0.28c-0.93,0.27-1.99,0.13-3,0.11c-0.31,0-0.61-0.18-0.98-0.29c0.11,2.32,0.23,4.56,0.34,6.81
				c0.55-0.01,0.99-0.07,1.42-0.02c0.51,0.05,1.3,0.02,1.47,0.31c0.37,0.63,0.67,1.49,0.55,2.17c-0.19,1.04-0.66,2.08-1.22,2.99
				c-0.28,0.46-1.02,0.63-1.77,1.05c0.42,0.19,0.83,0.38,1.29,0.58c0.14,2.32,0.3,4.8,0.45,7.27c0.12,0.05,0.24,0.11,0.36,0.16
				c1.11-0.97,2.23-1.93,3.31-2.87c0.04-0.33,0.07-0.65,0.11-0.97c0.27,0.15,0.54,0.31,0.83,0.45c0.26,0.12,0.53,0.21,0.95,0.37
				c-0.14-1.24-0.26-2.28-0.37-3.32c-0.02-0.19-0.07-0.39-0.03-0.56c0.35-1.49,2.72-3.21,4.26-3.1c1.03,0.07,1.69,0.85,1.64,1.92
				c-0.03,0.64,0.59,1.03,1.31,0.95c1.04-0.11,2.1-0.19,3.15-0.17c1.5,0.02,1.65,1.31,1.13,2.39c-0.32,0.67-0.67,1.32-1.05,1.95
				c-0.35,0.58-0.18,0.95,0.42,1.07c1.66,0.33,3.28,0.22,4.76-0.68c0.28-0.17,0.39-0.61,0.58-0.93c-0.29-0.15-0.57-0.34-0.87-0.46
				c-0.28-0.11-0.59-0.14-1.02-0.24c0.99-0.56,1.99-0.39,2.32,0.28c0.35,0.72-0.04,1.88-0.87,2.06c-1.53,0.34-3.09,0.65-4.64,0.67
				c-1.54,0.02-1.88-0.84-1.12-2.19c0.44-0.78,0.8-1.6,1.18-2.41c0.26-0.56-0.03-0.93-0.54-0.99c-1.04-0.13-2.08-0.3-3.09,0.31
				c-0.62,0.38-0.79,0.69-0.34,1.28c0.85,1.13,1.36,2.3,0.76,3.76c-0.08,0.2,0.55,0.7,0.87,1.05c0.29,0.33,0.6,0.64,0.9,0.97
				c-0.33,0.21-0.64,0.49-0.99,0.63c-1.17,0.46-2.35,0.32-3.48-0.14c-0.94-0.38-1.79-0.19-2.68,0.16c-0.88,0.35-1.81,0.63-2.81-0.04
				c0.29-0.42,0.46-0.83,0.76-1.09c0.78-0.7,1.08-1.41,0.16-2.3c-1.72,0.3-2.56,1.77-3.61,2.99c-0.41,0.48-0.47,1.31-1.41,1.25
				c-0.12-0.01-0.37,0.5-0.38,0.77c-0.01,2.65,0.03,5.3,0.03,7.95c0,2.4-0.4,4.76-0.3,7.2c0.16,4.2,0.53,8.39,0.77,12.58
				c0.25,4.51,1.05,9,1.7,13.49c0.4,2.76,1.02,5.49,1.47,8.25c0.42,2.58,1.72,4.76,2.93,7c0.23,0.42,0.43,0.85,0.64,1.27
				c-0.08,0.09-0.16,0.19-0.25,0.28c-0.36-0.26-0.76-0.47-1.05-0.78c-0.36-0.39-0.57-0.86-1.3-0.66c-0.65,0.18-0.89-0.4-1.01-0.91
				c-0.44-1.75-0.73-3.55-1.29-5.26c-1.98-6.07-2.26-12.35-2.47-18.65c-0.12-3.5-0.45-6.99-0.71-10.48
				c-0.36-4.81-0.73-9.62-1.1-14.43c-0.07-0.93-0.19-1.85-0.29-2.77c0.13-0.55,0.37-1.1,0.35-1.64c-0.04-0.82-0.33-1.62-0.41-2.44
				c-0.17-1.78-0.26-3.57-0.41-5.36c-0.07-0.77-0.2-1.54-0.3-2.31c-0.11,0.01-0.21,0.02-0.32,0.03
				C68.44,76.19,68.81,80.11,69.18,84.02z M48.73,53.68c-0.44-0.02-0.89-0.03-1.31-0.04c-0.38,1.21,0.02,1.92,1.21,1.98
				c1.02,0.05,2.05-0.1,3.08-0.12c0.8-0.02,1.16-0.43,1.22-1.14c-1.42-0.24-2.82-0.47-4.22-0.7c0.61,0.02,1.22,0.04,1.83,0.06
				c-0.85-0.45-1.67-0.99-2.66-0.93c-0.04,0.09-0.08,0.18-0.11,0.27C48.08,53.26,48.41,53.47,48.73,53.68z M64.43,37.05
				c0.2,0.13,0.44,0.21,0.58,0.39c1.55,2,1.55,2,4.01,1.28c0.08-0.02,0.14-0.11,0.11-0.08c-0.16-0.65-0.29-1.23-0.44-1.8
				c-0.13-0.52-0.31-0.87-1-0.65c-0.66,0.21-1.39,0.22-2.07,0.38c-0.41,0.1-0.79,0.33-1.19,0.5c-0.75-0.46-1.34-0.1-2.08,0.3
				C63.84,37.9,63.84,37.9,64.43,37.05z M58.24,125.47c0.1,0.01,0.2,0.03,0.31,0.04c0.25-1.47,0.48-2.95,0.77-4.41
				c0.26-1.33,0.75-2.63,0.88-3.97c0.31-3.25,0.49-6.52,0.69-9.78c0.21-3.24,0.42-6.47,0.56-9.72c0.21-4.69,0.35-9.38,0.52-14.07
				c0.08-2.18,0.15-4.36,0.22-6.55c-0.12,0-0.23-0.01-0.35-0.01c-1.45,13.63-1.83,27.32-2.3,41c-0.01-0.32-0.02-0.64-0.03-0.97
				c-0.08,0-0.15-0.01-0.23-0.01C58.94,119.84,58.59,122.66,58.24,125.47z M51.84,45.87c-0.46,0.73-0.24,1.2,0.31,1.49
				c0.76,0.4,1.59,0.69,2.35,1.09c1.1,0.58,2.23,1.14,3.22,1.88c0.69,0.52,1.27,1.41,0.81,2.29c-0.56,1.07-1.33,2.07-2.61,2.43
				c-0.77,0.21-1.57,0.33-2.33,0.58c-0.31,0.1-0.54,0.43-0.8,0.66c0.23,0.27,0.43,0.69,0.71,0.76c0.55,0.15,1.18,0.24,1.71,0.09
				c0.84-0.23,1.94-0.45,2.37-1.06c0.64-0.91,1.21-1.69,2.56-1.91c-1-1.47-1.72-2.89-0.14-4.33c-0.3-0.09-0.41-0.15-0.53-0.15
				c-1.66-0.06-1.64-0.05-1.53-1.76c0.01-0.21-0.25-0.55-0.47-0.64c-0.35-0.14-0.76-0.09-1.14-0.17
				C54.84,46.77,53.12,47.29,51.84,45.87z M75.72,44.26c-0.09,0.01-0.37-0.64-0.32-0.96c0.15-1.14-1.5-2.17-2.54-1.38
				c-0.49,0.37-1,0.72-1.43,1.15c-0.18,0.18-0.3,0.62-0.2,0.82c0.2,0.39,0.52,0.9,0.88,0.99c1.17,0.28,2.37,0.41,3.56,0.58
				c0.64,0.09,1.28,0.15,2.09,0.24c-0.4-0.61-0.71-1.08-1.02-1.55c1.06-0.57,3.05,0.54,3.15,1.68c0.02,0.24,0.21,0.46,0.32,0.69
				c0.16-0.16,0.42-0.3,0.47-0.5c0.2-0.82,0.82-1,1.51-1.1c0.25-0.04,0.51-0.03,0.77-0.04c0.01-0.1,0.03-0.2,0.04-0.3
				c-2.17-1.48-4.79-1.58-7.21-2.36C75.76,43.06,75.74,43.66,75.72,44.26z M70.89,30.21c1.35-0.62,2.51-1.52,3.38-2.7
				c0.74-1.01,0.26-1.88-1.03-1.98c-0.89-0.07-1.8,0.02-2.7,0.06c-1.55,0.08-2.57,0.52-2.4,2.32c0.19,1.93,0.2,2.07,1.97,1.23
				c0.05-0.02,0.12,0,0.27,0.01C70.52,29.46,70.69,29.79,70.89,30.21z M51.11,35.49c-0.01,0.1-0.05,0.18-0.02,0.22
				c1.45,2.01,3.28,3.41,5.82,3.76c1.65,0.23,2.88-0.61,4.12-1.45c0.14-0.1,0.17-0.37,0.24-0.54c-0.12-0.09-0.16-0.15-0.22-0.16
				c-1.51-0.33-3.16-0.19-4.35-1.48c-0.08-0.09-0.41,0.04-0.62,0.06C54.39,36.12,52.71,36.31,51.11,35.49z M63.47,99.85
				c0.1,0,0.21,0,0.31,0c0.69-8.18,0.76-16.35-0.34-24.52c-0.27,1.34-0.52,2.67-0.62,4.02c-0.07,0.92-0.2,2,0.19,2.75
				c0.41,0.8,0.38,1.52,0.37,2.29c-0.03,2.38-0.12,4.76-0.1,7.13c0.02,2.22,0.16,4.43,0.23,6.65
				C63.54,98.73,63.49,99.29,63.47,99.85z M37.98,64.13c-1.14-0.37-1.88-0.2-2.64,0.49c-1.48,1.34-1.73,3.02-1.29,4.85
				c0.05,0.2,0.37,0.45,0.57,0.47c1.72,0.09,3.44,0.14,5.28,0.2c-0.93-1.1-1.81-1.99-2.51-3C36.37,65.65,36.51,65.11,37.98,64.13z
				 M50.33,77.22c1.94,1.34,3.85,2.67,5.75,3.99c0.22-0.95,0.49-2.05,0.81-3.43c-0.5,0.16-0.87,0.37-1.24,0.36
				c-0.53-0.01-1.14-0.04-1.55-0.31c-0.53-0.34-0.36-0.99,0.07-1.33c0.73-0.57,0.59-1.26,0.51-2.07c-0.66-0.06-1.29-0.15-1.92-0.14
				c-0.23,0-0.65,0.24-0.66,0.38C52.07,75.94,51.3,76.69,50.33,77.22z M61.39,66.76c0.18,0.69,0.37,1.14,0.39,1.61
				c0.03,0.6,0.25,0.79,0.77,0.51c0.49-0.27,0.95-0.6,1.44-0.92c0.96,0.53,1.93,1.06,2.95,1.62c0.46-0.58,0.96-1.22,1.55-1.98
				c-0.25-0.55-0.57-1.24-0.97-2.11c-0.78,1.06-1.53,1.72-2.57,1.42c-0.39-0.11-0.61-0.76-1.03-1.32
				C63.04,65.67,61.76,65.52,61.39,66.76z M54.12,25.74c0.12,0.5,0.45,0.94,0.79,1.31c0.36,0.39,0.87,0.65,1.3,0.98
				c0.51,0.4,0.84,0.27,1.29-0.18c0.81-0.83,0.45-2.26,1.57-2.9c0.03-0.02-0.03-0.18-0.03-0.27c-0.02-1.04-0.88-0.92-1.48-0.97
				C55.77,23.57,53.74,24.11,54.12,25.74z M64.09,51.2c0.05,0.29,0.03,0.59,0.16,0.79c0.91,1.41,2.05,2.5,3.87,2.48
				c0.48,0,0.83,0.05,0.85,0.64c0,0.1,0.12,0.23,0.22,0.29c0.62,0.4,2.71,0.16,3.38-0.37c-0.81-1.75-0.81-1.75-2.66-1.48
				c-1.13,0.17-2.24-0.05-2.85-1.01C66.34,51.43,65.34,51.3,64.09,51.2z M37.71,78.02c-0.1,0.6,0.13,1.18,0.65,1.61
				c1.18,0.97,2.53,0.86,3.86,0.55c0.63-0.15,1.27-0.48,1.78-0.89c0.59-0.48,0.44-1.11-0.28-1.42c-0.33-0.14-0.73-0.19-1.1-0.17
				C40.99,77.78,39.37,77.91,37.71,78.02z M51.66,73.73c-0.13-1.25-1.19-2.94-2.11-3.54c-1.04-0.68-1.82,0.06-2.68,0.41
				c-0.06,0.02-0.12,0.05-0.18,0.06c-0.64,0.17-0.8,0.63-0.74,1.29c1.12,0.16,2.2,0.32,3.27,0.47c0.05,0.05,0.1,0.1,0.15,0.15
				c-0.29,0.1-0.59,0.21-0.73,0.26C49.39,74.52,50.49,74.18,51.66,73.73z M58.9,44.16c0.66-0.1,1.34-0.13,1.98-0.32
				c0.3-0.09,0.79-0.53,0.75-0.68c-0.25-0.83,0.33-1.85-0.55-2.51c-0.09-0.07-0.24-0.08-0.37-0.1c-1.43-0.24-3.12,0.9-3.47,2.29
				c-0.2,0.8,0.2,1.14,0.89,1.27C58.37,44.15,58.9,44.13,58.9,44.16z M38.47,80.54c-0.47-0.79-0.94-1.37-1.17-2.03
				c-0.36-0.99-1.1-1.36-2-0.81c-0.68,0.42-1.34,0.88-2.01,1.33c-0.73,0.49-0.71,1.03,0.09,1.41c0.28,0.14,0.61,0.26,0.92,0.26
				C35.69,80.67,37.08,80.6,38.47,80.54z M41.81,66.07c-0.02-0.08-0.04-0.16-0.06-0.24c-0.76-0.32-1.5-0.78-2.3-0.92
				c-0.55-0.1-1.37,0.07-1.71,0.45c-0.27,0.3-0.19,1.2,0.06,1.64c0.69,1.19,1.65,2.18,2.95,2.9C40.95,68.51,39.64,66.84,41.81,66.07
				z M57.5,67.21c-0.11-0.01-0.21-0.02-0.32-0.03c-1.24,1.1-2.11,4.75-1.63,6.82c1.18,0.07,2.72-1.38,2.92-2.76
				c-1.57-0.5-1.76-0.97-1.17-2.64C57.45,68.16,57.44,67.67,57.5,67.21z M54.78,73.91c0.09-0.92,0.1-1.6,0.24-2.25
				c0.29-1.37,0.52-2.77,1.03-4.06c0.42-1.06,0.49-1.31-0.6-1.67c-0.42-0.14-0.89-0.15-1.4-0.22c0.07,0.21,0.08,0.31,0.13,0.39
				c0.92,1.75,0.84,2.15-0.56,3.59c-0.22,0.22-0.35,0.63-0.35,0.95C53.27,71.84,53.76,72.85,54.78,73.91z M49.4,74.32
				c-0.43-0.38-0.81-0.86-1.31-1.1c-0.68-0.32-1.66-0.83-2.16-0.08c-0.47,0.69-0.59,1.73-0.56,2.61c0.02,0.73,0.78,0.96,1.53,0.68
				C47.93,76.04,48.89,75.57,49.4,74.32z M65.24,44.83c-0.13,0.05-0.37,0.09-0.53,0.23c-0.79,0.67-0.77,1.62-0.61,2.48
				c0.06,0.3,0.73,0.52,1.15,0.72c0.31,0.15,0.74,0.38,0.99,0.28c0.59-0.24,1.42-0.55,1.58-1.03
				C68.12,46.68,66.26,44.86,65.24,44.83z M66.45,64.69c0.2-0.45,0.45-0.99,0.69-1.52c-0.82-0.67-1.6-1.32-2.39-1.1
				c-0.68-0.33-1.13-0.54-1.67-0.8c-0.11,0.67-0.2,1.05-0.23,1.43c-0.1,1.26,0.56,2.09,1.62,2.06
				C65.1,64.75,65.73,64.72,66.45,64.69z M82.55,50.19c1.58,0.1,4.01-1.02,4.16-2.13c0.04-0.29,0.07-0.68-0.08-0.89
				c-0.64-0.89-1.6-1.24-2.84-1.52C84.93,47.65,83.52,48.84,82.55,50.19z M58.28,46.84c0.02-1.17-0.2-2.06-1.32-2.08
				c-1.33-0.03-2.67,0.14-4,0.28c-0.18,0.02-0.5,0.44-0.46,0.5c0.17,0.28,0.41,0.66,0.67,0.7C54.84,46.48,56.53,46.64,58.28,46.84z
				 M75.72,36.47c-1.48-0.02-2.94,1.95-2.49,3.15c0.1,0.27,0.73,0.61,0.92,0.52c0.79-0.38,1.6-0.82,2.2-1.44
				c0.32-0.33,0.36-1.09,0.25-1.6C76.53,36.8,75.93,36.61,75.72,36.47z M63.66,33.75c-0.39-0.74-0.56-1.52-1.04-1.86
				c-0.8-0.57-1.77-0.96-2.73-1.18c-0.2-0.05-0.65,0.97-0.98,1.49c-0.02,0.03-0.05,0.07-0.05,0.08c0.14,0.28,0.25,0.77,0.44,0.81
				C60.63,33.34,61.98,33.5,63.66,33.75z M60.16,70.57c-0.11-0.03-0.21-0.05-0.32-0.08c-0.84,1.21-1.68,2.42-2.46,3.55
				c0.37,0.24,0.94,0.5,1.39,0.91c0.36,0.33,0.58,0.83,0.86,1.25c0.13-0.04,0.27-0.09,0.4-0.13C60.77,74.26,60.06,72.41,60.16,70.57
				z M70.21,42.54c-0.02-0.08-0.05-0.17-0.07-0.25c-2.24,0.67-4.47,1.34-6.68,2.01c-0.03,0.8-0.06,1.76-0.09,2.72
				c0.33-0.66,0.47-1.33,0.65-2c0.2-0.72,0.65-0.94,1.39-0.74c1.16,0.32,1.98,1.03,2.52,2.08c0.2,0.39,0.41,0.78,0.61,1.17
				C67.78,44.71,68.06,43.83,70.21,42.54z M79.26,71.9c0.63-0.92,1.16-1.68,1.68-2.45c0.22-0.32,0.67-0.76,0.58-0.95
				c-0.16-0.33-0.61-0.65-0.99-0.72c-1.27-0.24-2.16,0.48-2.97,1.3C78.18,70.1,78.74,71.03,79.26,71.9z M48.91,51.85
				c0.03,0.16,0.06,0.32,0.08,0.48c1.52,0.46,3.09,0.68,4.63,0.06c0.42-0.17,0.63-0.87,0.94-1.33c-0.5-0.2-1.07-0.66-1.5-0.56
				C51.65,50.84,50.29,51.38,48.91,51.85z M68.59,65.06c0.03,0.45-0.02,0.8,0.09,1.09c0.2,0.56,0.44,1.1,0.76,1.6
				c0.1,0.17,0.54,0.29,0.72,0.21c1.09-0.48,2.3-3.38,1.22-4.61C69.41,65.31,69.41,65.31,68.59,65.06z M37.62,76.93
				c0.04,0.12,0.09,0.24,0.13,0.35c1.27,0.48,4.11,0.17,5.17-0.61c-0.4-0.49-0.76-1.02-1.21-1.45c-0.29-0.27-0.78-0.63-1.06-0.54
				c-0.45,0.14-1.2,0.28-0.95,1.16c0.03,0.11-0.41,0.4-0.66,0.52C38.59,76.59,38.1,76.75,37.62,76.93z M70.61,50.01
				c-0.04,0.14-0.08,0.27-0.13,0.41c0.31,0.59,0.59,1.19,0.94,1.76c0.11,0.18,0.42,0.37,0.6,0.33c0.74-0.16,1.48-0.36,2.19-0.64
				c0.21-0.08,0.46-0.52,0.4-0.7c-0.13-0.38-0.41-0.96-0.69-1C72.83,50.02,71.71,50.05,70.61,50.01z M71.36,52.63
				c-0.55-0.78-0.93-1.87-1.54-2.03c-0.98-0.26-2.19-0.08-3,0.87C67.9,52.89,68.93,53.18,71.36,52.63z M78.92,48.69
				c-1.39,2.27-1.39,2.27,0.71,3.7c0.1,0.07,0.23,0.09,0.33,0.14C81.27,50.51,80.91,49.15,78.92,48.69z M35.83,74.62
				c0-0.02,0-0.04,0-0.06c-0.32-0.01-0.72-0.15-0.94-0.01c-0.43,0.27-0.75,0.69-1.12,1.05c0.26,0.26,0.5,0.56,0.78,0.78
				c1.16,0.91,2.09,0,3.05-0.45c0.21-0.1,0.48-0.55,0.41-0.69c-0.13-0.28-0.45-0.57-0.75-0.64C36.8,74.51,36.3,74.61,35.83,74.62z
				 M34.7,73.25c1.5-0.89,2.77-1.64,4.05-2.39c-0.05-0.09-0.09-0.19-0.14-0.28c-1.4-0.05-2.81-0.1-4.35-0.15
				C34.42,71.47,34.55,72.3,34.7,73.25z M62.39,35.13c0.1,0.91,0.41,1.42,1.37,1.13c0.21-0.06,0.45-0.01,0.67-0.04
				c0.98-0.16,1.96-0.34,3.03-0.52c-0.69-1.66-2.29-0.33-3.14-1.29C64.17,34.23,63.09,34.86,62.39,35.13z M50.83,34.93
				c2.05,0.77,3.98,0.72,6.1,0.05C55.04,33.81,51.57,33.76,50.83,34.93z M43.66,67.16c-0.62-0.3-1.16-0.88-1.88-0.16
				c-0.71,0.71-0.76,1.61-0.27,2.27c0.32,0.43,1.21,0.45,1.98,0.69c0.02-0.71,0.03-1.12,0.05-1.53
				C43.57,68.02,43.62,67.61,43.66,67.16z M69.24,43.73c-0.15,0.25-0.22,0.37-0.29,0.48c-0.57,0.79-0.52,2.26,0.24,2.83
				c0.33,0.25,0.95,0.24,1.41,0.15c0.33-0.06,0.51-1.62,0.25-1.89C70.39,44.82,69.89,44.37,69.24,43.73z M48.52,64.53
				c-1.15-1.25-3.92-0.38-5.58,0.34c0.17,0.62,0.47,0.92,1.19,0.69c0.45-0.14,0.97-0.08,1.43-0.19
				C46.51,65.13,47.45,64.84,48.52,64.53z M50.76,70.3c0.5,1.16,0.97,2.26,1.46,3.33c0.06,0.14,0.27,0.27,0.43,0.29
				c0.43,0.05,0.86,0.04,1.07,0.05c-0.36-1.2-0.68-2.34-1.05-3.46c-0.06-0.18-0.35-0.39-0.52-0.39
				C51.65,70.13,51.15,70.24,50.76,70.3z M63.56,32.04c0.14,0.53,0.16,1.1,0.44,1.48c0.25,0.34,0.75,0.62,1.19,0.7
				c1.46,0.27,1.51-1.1,2.12-1.83C66.04,32.27,64.84,32.16,63.56,32.04z M59.21,70.2c0.48-0.5,0.93-0.76,1-1.09
				c0.13-0.66,0.06-1.36,0.03-2.04c-0.02-0.47,0.02-1.04-0.71-1c-0.57,0.03-1.3,0.01-1.16,0.87C58.54,67.92,58.86,68.88,59.21,70.2z
				 M62.35,49.82c-0.1-0.87-0.15-1.57-0.27-2.25c-0.14-0.84-1.16-1.17-1.82-0.61c-0.24,0.2-0.48,0.5-0.75,0.55
				c-0.75,0.12-0.73,0.68-0.66,1.15c0.02,0.12,0.73,0.22,1.11,0.17c0.28-0.04,0.53-0.32,0.78-0.5c0.22-0.15,0.43-0.31,0.63-0.45
				c0.91,0.78,0.37,1.18-0.46,1.59C61.46,49.59,61.81,49.68,62.35,49.82z M54.73,49.27c0.35,0.96,0.62,1.73,0.92,2.48
				c0.05,0.12,0.22,0.23,0.35,0.27c0.59,0.17,1.2,0.32,1.82,0.48C58.47,51.35,57.55,50.3,54.73,49.27z M63.99,43.53
				c1.39-0.4,2.63-0.75,3.88-1.11c-1.02-0.57-1.7-1.79-2.82-1.3C64.7,41.92,64.41,42.57,63.99,43.53z M59.68,63.46
				c0.2,0.65,0.3,1.12,0.49,1.56c0.11,0.25,0.37,0.62,0.56,0.61c0.29-0.01,0.67-0.22,0.86-0.46c0.57-0.73,0.4-1.44-0.24-2.05
				c-0.2-0.19-0.56-0.47-0.71-0.41C60.27,62.89,59.97,63.22,59.68,63.46z M82.9,76.01c-0.01-0.13-0.03-0.26-0.04-0.39
				c-0.37-0.14-0.75-0.44-1.09-0.4c-0.72,0.09-1.44,0.3-2.1,0.6c-0.24,0.11-0.45,0.63-0.41,0.94c0.03,0.2,0.59,0.54,0.79,0.47
				C81.02,76.88,81.95,76.42,82.9,76.01z M48.63,49.78c0.49-0.23,0.97-0.36,1.33-0.64c0.25-0.2,0.53-0.66,0.46-0.89
				c-0.11-0.33-0.49-0.69-0.83-0.81c-0.73-0.26-1.21,0.2-1.53,0.81c-0.14,0.28-0.34,0.66-0.24,0.9
				C47.92,49.41,48.32,49.56,48.63,49.78z M57.9,32.77c0.39-0.62,0.65-1.01,0.88-1.42c0.61-1.1,0.6-1.13-0.47-1.61
				c-0.38,0.2-0.76,0.3-1,0.55c-0.28,0.3-0.69,0.82-0.59,1.06C56.92,31.85,57.42,32.23,57.9,32.77z M67.55,39.84
				c0.56,1.22,1.59,1.2,2.52,1.32c0.24,0.03,0.67-0.3,0.76-0.55c0.08-0.23-0.09-0.67-0.3-0.87C69.53,38.81,68.57,39.49,67.55,39.84z
				 M61.53,50.36c-1.04-0.06-1.37,0.28-1.44,1.25c-0.04,0.59,0.14,0.94,0.78,0.93c0.71-0.01,1.46-0.14,1.56-0.94
				C62.52,51,62.35,50.26,61.53,50.36z M78.16,48.66c-1.81-0.71-2.32-0.7-2.6,0c-0.17,0.42,0.5,1.57,1.14,1.63
				C77.77,50.4,77.76,49.37,78.16,48.66z M76.15,46.07c-0.02,0.65-0.04,1.09-0.05,1.58c0.43,0.11,0.83,0.2,1.24,0.3
				C78.54,48.27,77.09,46.3,76.15,46.07z M66.68,40.5c-0.55-0.63-0.97-1.14-1.42-1.63c-0.76-0.82-0.98-0.78-1.69,0.22
				C64.24,40.03,64.88,41.01,66.68,40.5z M44.58,67.29c-0.16,0.08-0.32,0.15-0.48,0.23c-0.05,0.56-0.18,1.12-0.14,1.66
				c0.03,0.39,0.27,1.06,0.48,1.08c0.4,0.05,0.98-0.16,1.23-0.47c0.17-0.21-0.02-0.81-0.19-1.17
				C45.26,68.15,44.89,67.73,44.58,67.29z M57.86,33.97c0.33,0.46,0.6,0.84,0.92,1.28c-0.55,0.21-0.91,0.35-1.49,0.57
				c0.7,0.29,1.18,0.49,1.57,0.66c0.44-0.68,0.82-1.27,1.2-1.87C58.83,33.54,58.27,33.4,57.86,33.97z M48.94,67.52
				c-0.11-0.91-0.61-1.38-1.36-1.48c-0.31-0.04-0.7,0.25-0.97,0.48c-0.07,0.06,0.14,0.53,0.31,0.74c0.22,0.27,0.51,0.48,0.81,0.67
				c0.24,0.15,0.61,0.38,0.79,0.3C48.73,68.12,48.82,67.73,48.94,67.52z M84.96,77.31c-0.72-0.32-1.34-0.84-1.89-0.79
				c-0.64,0.07-1.23,0.65-2.05,1.13C82.49,78.07,83.66,78.31,84.96,77.31z M67.54,29.75c-1.58-0.17-3.16-0.34-4.99-0.53
				C63.78,30.57,66.05,30.81,67.54,29.75z M83.34,75.38c0.86-1.19,0.57-2.32-0.86-3.64c-0.24,0.32-0.49,0.63-0.75,0.97
				c1.42,0.33,1.55,0.7,0.71,2.05C82.75,74.97,83.05,75.18,83.34,75.38z M60.24,55.54c-0.06-0.02-0.11-0.05-0.17-0.07
				c-0.41,0.3-0.85,0.57-1.22,0.92c-0.32,0.3-0.82,0.78-0.74,1.04c0.14,0.49,0.64,0.88,0.96,1.28
				C59.52,57.51,59.88,56.53,60.24,55.54z M57.44,64.73c-1.09-0.74-2.23-1.02-3.51-0.84C54.12,65.15,55.8,65.54,57.44,64.73z
				 M61.81,106.65c-0.08,0-0.17,0-0.25,0c-0.73,2.31-0.02,4.6,0.03,6.66C61.65,111.25,61.73,108.95,61.81,106.65z M60.55,54.86
				c0.75,0.03,1.33,0.05,1.97,0.07c-0.04-0.55-1.5-1.56-2.18-1.5c-0.01,0.17-0.03,0.3-0.01,0.42C60.4,54.21,60.49,54.58,60.55,54.86
				z M39.39,71.66c-0.7,0.22-1.46,1.47-1.08,1.66c0.62,0.31,1.42,0.26,2.15,0.36c0.02-0.1,0.03-0.19,0.05-0.29
				C40.13,72.81,39.76,72.23,39.39,71.66z M55.25,75.93c1.2-0.27,2.24,0.03,3.04-0.85c-0.93-0.63-1.84-0.67-2.73-0.33
				C55.38,74.81,55.39,75.37,55.25,75.93z M51.63,74.65c-0.15-0.06-0.47-0.28-0.56-0.21c-0.67,0.53-1.31,1.1-1.92,1.69
				c-0.04,0.04,0.15,0.5,0.29,0.54C50,76.81,51.58,75.43,51.63,74.65z M64.18,19.54c-0.61,0.3-1.22,0.81-2.05,1.12
				c-0.84,0.32,1.33,1.51,2.13,1.17C64.95,21.54,65.11,19.08,64.18,19.54z M44.71,74.92c0.26-0.84,0.52-1.66,0.79-2.52
				c-0.98,0.56-1.88,1.08-2.74,1.58C43.37,74.28,44.05,74.6,44.71,74.92z M80.11,72.7c0.11,0.07,0.22,0.14,0.34,0.21
				c0.92-0.43,1.55-1.13,1.75-2.17c0.03-0.18-0.04-0.48-0.17-0.55c-0.14-0.08-0.52-0.04-0.58,0.07
				C80.97,71.05,80.55,71.88,80.11,72.7z M73.04,54.93c0.63-0.86,1.12-1.5,1.6-2.15c-0.09-0.09-0.17-0.19-0.26-0.28
				c-0.76,0.25-1.52,0.5-2.39,0.79C72.34,53.84,72.63,54.28,73.04,54.93z M60.07,27.44c0.07-0.37-0.39-0.67-0.67-0.91
				c-0.11-0.09-0.57,0.02-0.68,0.17c-0.46,0.63-0.85,1.31-1.27,1.97c0.07,0.09,0.1,0.26,0.22,0.28
				C58.55,29.12,59.87,28.48,60.07,27.44z M77.23,54.67c1.03-0.35,1.8-0.58,2.17-1.35c-0.64-0.51-1.14-0.92-1.72-1.38
				c0.02,0.51,0.1,0.93,0.04,1.32C77.67,53.64,77.46,54.02,77.23,54.67z M64.2,53.21c-0.19,1.4-0.38,2.8-0.58,4.2
				c0.15,0.06,0.29,0.11,0.44,0.17c0.17-0.28,0.49-0.55,0.49-0.83C64.58,55.59,64.3,53.23,64.2,53.21z M63.69,22.54
				c-0.41-1.05-2.03-0.28-3.12-0.43C61.42,23.72,64.33,24.18,63.69,22.54z M62.08,46.23c-0.42-0.71,0.31-1.65-0.81-1.77
				c-0.44-0.04-1.06-0.07-1.05,0.76C60.26,46.49,61.19,46.01,62.08,46.23z M60.07,26.52c0.21,0.39,0.21,0.96,0.59,1.09
				c1.39,0.48,2.45-1.97,1.16-2.38C61.13,25.02,60.68,26.07,60.07,26.52z M40.16,71.55c0.27,1.48,0.82,2.05,1.73,1.68
				c-0.32-0.5-0.64-0.98-1-1.54c0.6-0.06,1.09-0.11,1.68-0.17C41.59,70.58,40.93,71.57,40.16,71.55z M37.94,71.86
				c-0.85,0.57-1.6,1.08-2.5,1.68C37.75,74.06,38.13,73.79,37.94,71.86z M76.59,77.91c0.05,0.11,0.1,0.22,0.15,0.33
				c0.7-0.12,1.39-0.25,2.12-0.38c-0.21-0.62-0.35-1.03-0.57-1.67C77.66,76.83,77.12,77.37,76.59,77.91z M60.63,56.46
				c-0.13,0-0.26,0-0.39-0.01c-0.02,0.64-0.31,1.61-0.01,1.85c0.59,0.47,1.15-0.18,1.63-0.73C61.42,57.17,61.02,56.82,60.63,56.46z
				 M66.73,60.69c-0.74,1.38-0.74,1.38,1.19,2.28C67.72,62.09,67.96,61.07,66.73,60.69z M72.35,45.7c-0.02,0.12-0.05,0.25-0.07,0.37
				c0.61,0.33,1.21,0.66,1.84,1.01C74.41,46.61,73.15,45.68,72.35,45.7z M65.79,57.49c-0.78,1.19-0.66,2.82,0.27,3.46
				C65.98,59.8,65.89,58.64,65.79,57.49z M76.84,72.21c0.19,0.74,0.18,1.55,0.48,1.69c0.57,0.27,1.28,0.06,1.71-0.64
				C78.36,72.93,77.76,72.65,76.84,72.21z M65.75,83.81c0.1-0.01,0.2-0.01,0.3-0.02c-0.31-1.68,0.14-3.4-0.17-5.09
				c-0.16,0.01-0.31,0.02-0.47,0.03C65.52,80.43,65.63,82.12,65.75,83.81z M48.79,32.91c-0.08,0.12-0.15,0.24-0.23,0.36
				c0.49,0.4,0.93,0.89,1.49,1.15c0.16,0.07,0.63-0.54,1.14-1.01C50.19,33.2,49.49,33.05,48.79,32.91z M61.72,117.27
				c-0.08,0-0.16,0-0.24-0.01c-0.06,1.78-0.12,3.57-0.18,5.35c0.08,0,0.16,0,0.24,0.01C61.6,120.84,61.66,119.05,61.72,117.27z
				 M59.34,22.87c0.13,0.69,0.25,1.38,0.39,2.15c0.41-0.25,1.28-0.19,1.36-0.83C61.17,23.46,59.45,22.84,59.34,22.87z M56.56,54.13
				c-0.02-0.08-0.05-0.16-0.07-0.23c-2.27,0.05-3.01,0.34-2.99,1.22C54.53,54.79,55.55,54.46,56.56,54.13z M63.46,24.3
				c0.18,0.37,0.86,0.7,1.03,0.6c0.46-0.27,1.11-0.64,1.14-1.2C65.63,23.59,63.41,24.21,63.46,24.3z M60.06,36.05
				c0.55,0.6,1.16,0.46,1.74,0.25c0.05-0.02,0.02-0.6-0.13-0.72C61.04,35.1,60.5,35.28,60.06,36.05z M72.78,47.05
				c0.62,0.86,1.1,1.52,1.71,2.35C74.7,47.87,74.31,47.34,72.78,47.05z M67.19,56.73c0.12-0.05,0.24-0.1,0.36-0.15
				c-0.06-0.39-1.5-1.07-1.55-0.86C65.7,56.89,67.11,55.9,67.19,56.73z M62.81,34.36c-0.01-0.08-0.01-0.17-0.02-0.25
				c-1.03-0.19-2.05-0.38-3.08-0.58C59.7,33.63,61.63,34.96,62.81,34.36z M75.66,54.52c1.18-0.48,1.57-1.45,1.09-2.57
				C76.34,52.91,76,53.71,75.66,54.52z M75.03,52.86c0.13,0.03,0.26,0.06,0.38,0.09c0.28-0.7,0.63-1.38,0.8-2.11
				c0.04-0.15-0.6-0.46-0.92-0.7c-0.09,0.05-0.18,0.11-0.27,0.16C75.9,51.16,75.53,52.01,75.03,52.86z M58.75,70.41
				c-0.19-0.86-0.31-1.42-0.43-1.97c-0.14,0-0.27,0.01-0.41,0.01c-0.07,0.5-0.19,1-0.18,1.5C57.74,70.07,58.2,70.17,58.75,70.41z
				 M62.68,86.34c-0.06-0.01-0.13-0.01-0.19-0.02c-0.06,1.77-0.12,3.53-0.18,5.3c0.06,0,0.13,0,0.19,0
				C62.56,89.86,62.62,88.1,62.68,86.34z M58.71,46.42c1.03-0.06,1.23-0.51,0.98-1.09c-0.08-0.19-0.46-0.24-0.7-0.36
				C58.9,45.45,58.8,45.93,58.71,46.42z M42.29,73.23c0.57-0.55,1-0.97,1.43-1.39c-0.06-0.05-0.12-0.1-0.18-0.15
				c-0.57,0.17-1.14,0.34-1.8,0.54C41.92,72.54,42.06,72.8,42.29,73.23z M64.46,58.23c-1.29,0.05-1.53,0.63-0.93,1.96
				C63.86,59.5,64.12,58.94,64.46,58.23z M79.01,72.43c-0.45-0.62-0.88-1.21-1.35-1.84C77.08,71.67,77.62,72.34,79.01,72.43z
				 M46.02,67.15c0.13,1.18,1.17,1.85,1.89,1.44C47.32,68.15,46.76,67.72,46.02,67.15z M65.83,74.02c-0.11,0.01-0.21,0.01-0.32,0.02
				c0.04,1.15,0.08,2.3,0.12,3.45c0.11-0.01,0.22-0.01,0.34-0.02C65.92,76.31,65.88,75.16,65.83,74.02z M66.8,30.85
				c-0.06,0.1-0.13,0.2-0.19,0.3c0.43,0.25,1.36-0.07,1.41-0.58C67.45,30.7,67.12,30.78,66.8,30.85z M58.43,77.6
				c0.36-0.42,0.66-0.76,0.95-1.11c-0.05-0.09-0.11-0.17-0.16-0.26c-0.48,0.06-0.97,0.11-1.48,0.17C58,76.86,58.16,77.14,58.43,77.6
				z M62.61,39.23c-0.07,0.09,0.39,1.23,0.79,1.87c0.27-0.25,0.46-0.44,0.8-0.75C63.57,39.9,63.09,39.56,62.61,39.23z M65.48,72.27
				c0.8-0.94,0.75-1.85,0.08-2.32C65.54,70.72,65.51,71.49,65.48,72.27z M83.05,47.65c0.11-0.56,0.19-0.99,0.27-1.42
				c-0.08-0.06-0.16-0.12-0.24-0.18C82.68,46.28,82.58,47.34,83.05,47.65z M81.08,74.7c-0.47-0.35-0.73-0.54-1.07-0.79
				c-0.3,0.49-0.56,0.92-0.82,1.35c0.06,0.05,0.12,0.11,0.18,0.16C79.88,75.21,80.38,75,81.08,74.7z M55.83,30
				c-0.5,0.36-1.08,0.43-1.12,0.81c-0.03,0.4,0.56,0.58,0.84,0.86c0.07-0.05,0.15-0.09,0.22-0.14C55.8,31.12,55.81,30.7,55.83,30z
				 M67.88,63.81c-0.09-0.02-0.19-0.04-0.28-0.06c-0.12,0.35-0.4,0.74-0.32,1.05c0.07,0.3,0.5,0.52,0.77,0.77
				c0.08-0.06,0.16-0.11,0.24-0.17C68.15,64.88,68.02,64.35,67.88,63.81z M64.43,75.06c-0.11,0.01-0.23,0.01-0.34,0.02
				c0.08,1.17,0.16,2.35,0.24,3.52c0.08,0,0.17-0.01,0.25-0.01C64.53,77.42,64.48,76.24,64.43,75.06z M57.1,53.24
				c-0.95-0.83-1.49-0.74-2.04,0.28C55.72,53.43,56.32,53.35,57.1,53.24z M44.86,72.33c-0.09-0.14-0.19-0.28-0.28-0.43
				c-0.56,0.42-1.11,0.83-1.67,1.25c0.07,0.11,0.15,0.21,0.22,0.32C43.71,73.1,44.29,72.71,44.86,72.33z M77.42,74.62
				c-0.04,0.11-0.07,0.23-0.11,0.34c0.29,0.16,0.58,0.31,0.88,0.47c0.17-0.35,0.33-0.69,0.5-1.04c-0.08-0.05-0.16-0.1-0.23-0.16
				C78.11,74.36,77.77,74.49,77.42,74.62z M81.46,48.79c0.41-0.09,0.54-1.06,0.05-1.49C81.49,47.94,81.47,48.3,81.46,48.79z
				 M43.97,66.18c0.02,0.08,0.03,0.16,0.05,0.25c1.91,0.06,1.91,0.06,1.95-0.59C45.29,65.95,44.63,66.07,43.97,66.18z M61.51,38.68
				c0.62-0.14,1.12-0.25,1.83-0.41C62.16,37.62,62.07,37.64,61.51,38.68z M64.56,69.01c-0.16,0.04-0.31,0.08-0.47,0.12
				c0.15,0.61,0.3,1.21,0.45,1.82c0.1-0.02,0.21-0.04,0.31-0.06C64.76,70.27,64.66,69.64,64.56,69.01z M61.97,56.85
				c0.09-0.04,0.18-0.08,0.27-0.13c-0.12-0.38-0.2-0.78-0.39-1.12c-0.04-0.07-0.51,0.11-0.94,0.22
				C61.36,56.26,61.67,56.56,61.97,56.85z M62.92,57.33c-0.09,0-0.17,0-0.26-0.01c-0.29,1.78-0.29,1.78,0.06,2.17
				C62.79,58.75,62.86,58.04,62.92,57.33z M71.5,40.41c-0.01,0.41-0.03,0.83-0.04,1.24c0.21-0.05,0.59-0.11,0.59-0.15
				C72.05,41.12,71.64,40.4,71.5,40.41z M62.32,70.87c0.16,0.08,0.31,0.16,0.47,0.24c0.21-0.39,0.42-0.79,0.63-1.18
				c-0.17-0.06-0.48-0.21-0.5-0.18C62.69,70.1,62.51,70.49,62.32,70.87z M63.44,42.67c0.28-0.4,0.59-1.41,0.45-1.5
				C63.59,41.57,63.29,42.57,63.44,42.67z M80.57,73.57c0.49,0.39,0.72,0.58,1.03,0.83c0.26-0.3,0.48-0.55,0.7-0.8
				c-0.04-0.08-0.09-0.16-0.13-0.24C81.72,73.41,81.28,73.47,80.57,73.57z M53.69,53.49c0-0.12-0.01-0.24-0.01-0.35
				c-0.73,0.03-1.46,0.07-2.19,0.1c0,0.1,0,0.2,0.01,0.3C52.23,53.51,52.96,53.5,53.69,53.49z M69.14,49.4
				c0.14-0.05,0.28-0.1,0.42-0.15c-0.14-0.4-0.89-0.91-0.87-0.84C68.79,48.75,68.98,49.07,69.14,49.4z M69.14,36.77
				c0.18,0.38,0.35,0.77,0.56,1.13c0.01,0.02,0.3-0.12,0.46-0.18C69.98,37.34,69.3,36.7,69.14,36.77z M57.85,121.29
				c-0.07,0-0.14,0-0.2,0c-0.11,1.07-0.23,2.13-0.34,3.2c0.08,0.01,0.15,0.02,0.23,0.02C57.64,123.44,57.75,122.37,57.85,121.29z
				 M73.58,55.16c0.04,0.1,0.08,0.2,0.13,0.3c0.36-0.04,0.71-0.08,1.19-0.13c-0.2-0.42-0.32-0.69-0.49-1.04
				C74.08,54.64,73.83,54.9,73.58,55.16z"/>
			<path class="st0" d="M68.09,82.96c0.02,2.42,0,4.84,0.08,7.26c0.08,2.4,0.23,4.79,0.44,7.18c0.37,4.13,0.82,8.26,1.21,12.39
				c0.17,1.83,0.26,3.66,0.38,5.49c0.02,0.28-0.02,0.57-0.02,0.85c-0.11,0.03-0.21,0.06-0.32,0.09c-0.14-0.38-0.37-0.76-0.39-1.15
				c-0.14-2.38-0.17-4.76-0.37-7.13c-0.23-2.82-0.64-5.62-0.9-8.43c-0.17-1.88-0.21-3.77-0.31-5.66c-0.12-2.2-0.28-4.41-0.33-6.61
				c-0.04-1.44,0.08-2.88,0.13-4.32C67.83,82.93,67.96,82.95,68.09,82.96z"/>
			<path class="st0" d="M67.68,99.13c-0.03,0.99-0.14,1.99-0.09,2.97c0.23,4.5,0.38,9.01,0.81,13.49c0.37,3.87,1.09,7.7,1.66,11.55
				c0.24,1.59,0.5,3.18,0.72,4.77c0.03,0.23-0.13,0.48-0.21,0.72c-0.21-0.2-0.57-0.37-0.61-0.6c-0.16-0.85-0.18-1.72-0.31-2.58
				c-0.35-2.35-0.82-4.69-1.09-7.05c-0.35-3.1-0.56-6.21-0.79-9.31c-0.21-2.76-0.39-5.52-0.55-8.28c-0.09-1.63-0.12-3.27-0.14-4.9
				c0-0.29,0.19-0.59,0.29-0.88C67.48,99.06,67.58,99.1,67.68,99.13z"/>
			<path class="st0" d="M67.15,134.97c-0.17-0.25-0.46-0.48-0.49-0.74c-0.22-2.14-0.43-4.27-0.56-6.42
				c-0.11-1.95-0.13-3.91-0.17-5.87c-0.06-3.21-0.16-6.43-0.16-9.64c0-3.18,0.1-6.36,0.17-9.54c0.01-0.3,0.11-0.59,0.36-0.88
				c-0.7,9.61,0.52,19.17,0.37,28.75c0.08,0,0.16,0.01,0.25,0.01c0.06-0.39,0.12-0.78,0.18-1.17c0.03,0,0.07,0,0.1,0
				c0.08,1.76,0.16,3.52,0.23,5.28C67.34,134.83,67.24,134.9,67.15,134.97z"/>
		</g>
		<path class="st0" d="M103.43,113.42c-0.7,0.1-0.64,0.56-0.64,0.94c0.21,0.16,0.38,0.3,0.55,0.43c-0.55-0.11-0.92,0.03-1.13,0.62
			c-0.07,0.2-0.45,0.29-0.69,0.41c-0.1,0.05-0.27,0.03-0.31,0.09c-0.31,0.55-0.87,0.56-1.38,0.59c-1.31,0.05-1.51-0.14-1.79-1.43
			c-0.03-0.16-0.22-0.37-0.37-0.4c-0.52-0.12-1.06-0.14-1.58-0.25c-0.17-0.04-0.31-0.23-0.47-0.36c0.15-0.11,0.3-0.3,0.46-0.31
			c0.21-0.01,0.43,0.11,0.64,0.19c0.59,0.24,0.84,0.08,0.8-0.53c-0.01-0.1,0-0.21-0.01-0.32c-0.03-0.84,0.51-1.26,1.32-1.01
			c0.31,0.09,0.61,0.24,0.9,0.36c0.2-0.66,0.1-1.29-0.12-1.93c-0.19-0.57-0.54-0.71-1.08-0.59c-0.11,0.02-0.24-0.08-0.36-0.12
			c0.12-0.11,0.22-0.27,0.35-0.3c0.24-0.05,0.49,0.01,0.73-0.01c0.72-0.05,1.46-0.15,1.96-0.73c0.18-0.21,0.22-0.6,0.22-0.9
			c0-0.09-0.39-0.2-0.61-0.24c-0.36-0.06-0.73-0.05-1.09-0.11c-0.11-0.02-0.28-0.18-0.27-0.26c0.01-0.13,0.12-0.29,0.24-0.35
			c0.55-0.3,1.05-0.03,1.52,0.22c0.39,0.21,1.13,0.08,1.48-0.28c0.42-0.43-0.06-0.67-0.17-1.04c-0.17,0.09-0.3,0.18-0.44,0.24
			c-0.16,0.07-0.33,0.16-0.49,0.16c-0.12,0-0.34-0.14-0.35-0.23c-0.04-0.4,0.47-0.88,0.87-0.77c0.44,0.13,0.59-0.12,0.83-0.49
			c-0.42-0.04-0.79-0.03-1.13-0.12c-0.23-0.07-0.58-0.26-0.6-0.44c-0.06-0.39,0.26-0.65,0.64-0.7c0.32-0.04,0.65,0.05,0.98,0.07
			c0.15,0.01,0.3-0.04,0.45-0.06c-0.12-0.12-0.24-0.23-0.36-0.35c-0.07-0.07-0.14-0.14-0.2-0.21c0.65-0.09,0.71-0.24,0.42-1.24
			c-0.48,0.31-0.93,0.61-1.38,0.9c0.02,0.04,0.05,0.09,0.07,0.13c0.3,0.07,0.6,0.14,0.9,0.21c-0.42,0.06-0.85,0.12-1.28,0.15
			c-0.04,0-0.18-0.31-0.14-0.35c0.31-0.32,0.65-0.61,0.99-0.9c0.15-0.13,0.31-0.23,0.47-0.34c-0.15-0.12-0.29-0.28-0.46-0.36
			c-0.28-0.13-0.51-0.36-0.24-0.58c0.47-0.38,0.28-0.75,0.15-1.16c-0.05-0.18-0.08-0.38-0.11-0.57c-0.08-0.45,0.18-0.7,0.58-0.64
			c0.37,0.05,0.79,0.19,1.06,0.43c0.32,0.29,0,0.66-0.18,0.94c-0.14,0.21-0.38,0.36-0.54,0.56c-0.12,0.15-0.27,0.36-0.26,0.53
			c0.01,0.15,0.22,0.33,0.38,0.4c0.23,0.11,0.51,0.11,0.75,0.2c0.19,0.07,0.36,0.21,0.53,0.32c-0.35,0.16-0.69,0.12-0.86,0.27
			c-0.36,0.31-0.05,1.25,0.41,1.36c0.34,0.08,0.69,0.13,1.03,0.21c0.14,0.03,0.27,0.12,0.41,0.18c-0.08,0.14-0.13,0.35-0.25,0.41
			c-0.35,0.18-0.74,0.29-1.1,0.47c-0.12,0.06-0.26,0.26-0.24,0.37c0.03,0.17,0.18,0.44,0.3,0.45c0.25,0.02,0.51-0.11,0.76-0.18
			c0.15-0.04,0.3-0.06,0.45-0.08c-0.04,0.14-0.05,0.35-0.14,0.4c-0.66,0.38-0.65,1.09-0.83,1.68c-0.15,0.53,0.16,0.81,0.69,0.68
			c0.64-0.16,1.27-0.36,1.91-0.54c0.29-0.08,0.57-0.19,0.86-0.22c0.16-0.01,0.45,0.09,0.47,0.19c0.04,0.16-0.04,0.43-0.17,0.53
			c-0.27,0.22-0.61,0.35-0.98,0.56c0.29,0.1,0.52,0.22,0.77,0.27c0.46,0.09,0.6,0.35,0.51,0.79c-0.07,0.36-0.16,0.72-0.18,1.08
			c-0.02,0.4-0.15,0.64-0.62,0.63c0.1,0.47-0.2,0.64-0.52,0.78c-0.32,0.14-0.67,0.23-0.97,0.4c-0.35,0.21-0.68,0.47-0.96,0.75
			c-0.19,0.2-0.3,0.48-0.48,0.8c0.37,0.78,0.97,1.35,2.1,1.34c-0.17-0.32-0.34-0.6-0.45-0.89c-0.08-0.19-0.16-0.47-0.07-0.62
			c0.08-0.13,0.38-0.18,0.58-0.17c0.76,0.04,1.52,0.25,2.28-0.03c0.06-0.02,0.15,0.02,0.26,0.04c-0.46,0.46-0.97,0.83-1.3,1.33
			c-0.33,0.49-0.59,1.08-0.55,1.87c0.57-0.48,1.15-0.72,1.27-1.45c0.1-0.57,1.01-1.05,1.57-0.87c-0.03,0.06-0.03,0.14-0.08,0.18
			c-0.33,0.29-0.67,0.59-1.01,0.86c-0.3,0.24-0.24,0.51-0.04,0.73c0.17,0.18,0.4,0.34,0.64,0.43c0.31,0.12,0.65,0.15,0.97,0.23
			c0.53,0.14,0.84,0.57,0.62,0.87c-0.2,0.27-0.46,0.58-0.76,0.68c-0.98,0.34-2.57,0.03-3.14-0.95c-0.22-0.39-0.44-0.39-0.82-0.37
			c-1.01,0.05-2.07,0.24-2.93-0.57c-0.09-0.09-0.31-0.05-0.49-0.08c-0.01,0.3-0.05,0.53-0.03,0.75c0.02,0.15,0.08,0.33,0.19,0.42
			c0.35,0.27,0.74,0.51,1.16,0.79c0.53-0.09,1.03-0.78,1.77-0.33c-0.2,0.16-0.44,0.36-0.63,0.32c-0.68-0.14-1,0.06-1.03,0.73
			c-0.21,0.05-0.49,0.03-0.62,0.16c-0.41,0.4-0.66,0.9-0.57,1.51c0.3,1.85,0.47,3.72,0.91,5.53c0.5,2.07,1.21,4.09,3.63,4.74
			c0.12,0.03,0.22,0.17,0.3,0.27c0.02,0.03-0.06,0.2-0.11,0.2c-0.15,0.02-0.32,0.03-0.44-0.04c-0.24-0.13-0.44-0.34-0.68-0.46
			c-0.8-0.42-1.35-1.08-1.83-1.83c-1.12-1.76-1.31-3.77-1.65-5.75c-0.13-0.77,0-1.61-0.57-2.27c-0.05-0.06-0.04-0.2-0.03-0.3
			c0.18-1.01,0.23-1.99-0.47-2.99c0.24,0.11,0.36,0.17,0.5,0.24c-0.1-0.53-0.29-0.63-1.25-0.7c0.68,1.29,0.18,2.64,0.39,3.97
			c0.28,1.82,0.23,3.7,0.33,5.55c0.02,0.29,0.11,0.57,0.16,0.86c0.09,0,0.17-0.01,0.26-0.01c0.02-0.39,0.05-0.78,0.07-1.18
			c0,0,0,0,0,0c0.07,0.12,0.17,0.24,0.21,0.37c0.48,1.58,1.22,2.97,2.7,3.85c0.06,0.04,0.1,0.12,0.15,0.19
			c-0.08,0.05-0.12,0.09-0.16,0.1c-0.05,0.01-0.1,0-0.15-0.01c-0.58-0.21-1.09-0.51-1.4-1.08c-0.38-0.72-0.78-1.43-1.19-2.17
			c-0.58,0.54,0.19,1.22-0.28,1.83c-0.08-0.22-0.12-0.35-0.17-0.47c-0.09,0.34-0.11,0.67-0.15,0.99c-0.02,0.14-0.1,0.26-0.16,0.4
			c-0.13-0.06-0.3-0.1-0.39-0.2c-0.18-0.2-0.31-0.44-0.52-0.74c-0.26,0.36-0.46,0.64-0.74,1.04c0.11-0.71,0.38-1.1,0.95-1.32
			c0.19,0.22,0.38,0.44,0.63,0.74c0.05-0.27,0.1-0.45,0.1-0.63c0-0.62-0.02-1.24-0.05-1.87c-0.07-1.73-0.14-3.46-0.22-5.19
			c-0.01-0.16-0.05-0.31-0.08-0.47c-0.04,0.01-0.09,0.01-0.13,0.02c-0.01,0.16-0.04,0.33-0.03,0.49c0.02,0.66,0.15,1.34,0.06,1.99
			c-0.2,1.51-0.27,3.05-0.96,4.46c-0.2,0.41-0.28,0.87-0.47,1.28c-0.15,0.33-0.33,0.69-0.89,0.74c0.22-0.37,0.4-0.62,0.54-0.89
			c0.77-1.51,0.85-3.16,0.98-4.8c0.08-1,0.14-2.01,0.22-3.01c0.05-0.66,0.35-1.3,0.07-2c-0.21-0.52-0.51-0.91-1-1.15
			c-0.38-0.19-0.76-0.37-1.27-0.61c0.24-0.15,0.4-0.31,0.47-0.27c0.82,0.36,1.68,0.67,2.16,1.68c0-0.22,0.02-0.34,0-0.44
			c-0.15-0.8-0.34-1.6-0.46-2.41c-0.03-0.18,0.11-0.51,0.25-0.57c0.37-0.15,0.79-0.16,1.17-0.27c0.12-0.03,0.26-0.19,0.29-0.31
			c0.08-0.34,0.1-0.69,0.14-1.03C103.37,114.33,103.4,113.89,103.43,113.42z M102.82,107.51c-0.86,0.07-1.19,0.53-0.97,1.35
			c0.1,0.37,0.28,0.72,0.46,1.06c0.05,0.08,0.29,0.13,0.41,0.09c1.24-0.37,2.48-0.62,3.69,0.06c0.26,0.14,0.47,0.35,0.71,0.53
			c0.5,0.36,0.86,0.24,0.99-0.35c0.06-0.31,0.11-0.63,0.09-0.94c-0.01-0.16-0.15-0.4-0.28-0.45c-0.48-0.19-0.98-0.37-1.49-0.46
			c-0.32-0.05-0.74-0.04-0.73,0.51c0,0.07-0.2,0.21-0.31,0.21c-0.31,0.01-0.63,0-0.93-0.07c-0.65-0.15-0.7-0.33-0.33-0.88
			c0.09-0.14,0.09-0.34,0.14-0.56c-0.51,0.28-0.65,0.84-0.47,1.47c0.04,0.15,0.01,0.33,0.01,0.5c-0.08,0.01-0.17,0.01-0.25,0.02
			c-0.03-0.23-0.1-0.47-0.08-0.69c0.03-0.29,0.12-0.58,0.2-0.86c0.08-0.29,0-0.47-0.31-0.51c0.6-0.26,0.36-0.82,0.46-1.26
			c0.14-0.61-0.25-0.88-0.75-1.09c-0.38,0.17-0.33,0.45-0.15,0.79c0.36,0.68,0.35,0.68-0.04,1.28c0.17,0.1,0.33,0.2,0.5,0.3
			C103.2,107.52,103.01,107.5,102.82,107.51z M102.5,112.2c0.26,0.55,0.04,0.96-0.55,1.09c-0.36,0.08-0.72,0.16-1.08,0.2
			c-0.75,0.07-1.28,0.33-1.54,1.13c-0.22,0.67-0.31,0.64-0.95,0.38c-0.06,0.89,0.16,1.15,1,1.21c0.24,0.02,0.49,0.03,0.73,0.01
			c0.67-0.04,0.82-0.25,0.66-0.89c-0.17-0.65,0.01-0.96,0.6-1.11c0.1-0.03,0.17-0.15,0.26-0.21c0.27-0.17,0.52-0.41,0.82-0.49
			c0.65-0.2,0.87-0.51,0.59-1.13c-0.23-0.5-0.54-0.97-0.84-1.43c-0.08-0.12-0.26-0.16-0.39-0.24c-0.02,0.03-0.05,0.06-0.07,0.09
			C101.99,111.27,102.27,111.73,102.5,112.2z M106.94,113.68c-0.4-0.04-0.44,0.13-0.31,0.47c0.14,0.34,0.29,0.72,0.28,1.07
			c0,0.35-0.25,0.52-0.67,0.4c-0.56-0.15-1.14-0.23-1.62-0.32c-0.16,0.38-0.29,0.62-0.35,0.89c-0.02,0.1,0.1,0.33,0.17,0.34
			c0.86,0.09,1.73,0.15,2.59,0.2c0.07,0,0.19-0.12,0.2-0.2c0.18-0.99,0.6-1.88,1.32-2.69C107.95,113.79,107.45,113.73,106.94,113.68
			z M107.66,116.8c0.18,0.68,0.88,1.22,1.74,1.33c0.57,0.07,1.16,0.16,1.6-0.36c0.3-0.36,0.26-0.55-0.18-0.68
			c-0.33-0.1-0.7-0.12-1-0.27c-0.4-0.19-0.75-0.48-1.19-0.77C108.37,116.25,108.01,116.52,107.66,116.8z M103.49,112.43
			c0.1-0.09,0.19-0.17,0.3-0.28c-0.01,0.07-0.02,0.11-0.03,0.16c-0.08,0.71-0.24,1.43-0.2,2.14c0.01,0.25,0.52,0.47,0.84,0.66
			c-0.47-0.63-0.55-1.36,0.02-1.82c0.75-0.62,0.92-1.43,1.08-2.44c-0.88,1-1.77,1.2-2.84,0.41
			C102.93,111.65,103.2,112.03,103.49,112.43z M101.31,112.43c0.43-0.26,0.5-0.63,0.3-1.08c-0.33-0.73-1.04-0.92-1.67-1.21
			c0.1,0.94,0.19,1.85,0.29,2.85C100.6,112.8,100.97,112.64,101.31,112.43z M107.43,111.31c-0.01-0.08-0.03-0.17-0.04-0.25
			c-0.53-0.05-1.06-0.1-1.61-0.16c-0.13,0.51-0.24,0.94-0.38,1.47C106.14,111.99,106.78,111.65,107.43,111.31z M98.46,112.27
			c-0.24,0.04-0.6,0.24-0.63,0.43c-0.06,0.33,0.07,0.71,0.13,1.06c0.14-0.03,0.34-0.02,0.41-0.11c0.29-0.38,0.55-0.79,0.85-1.24
			C98.99,112.36,98.71,112.23,98.46,112.27z M103.54,98.99c0.05-0.07-0.05-0.34-0.14-0.38c-0.24-0.1-0.53-0.18-0.78-0.15
			c-0.1,0.01-0.24,0.34-0.23,0.52c0.02,0.3,0.15,0.6,0.23,0.89C102.69,99.9,103.32,99.33,103.54,98.99z M103.23,111.17
			c0.37,0.24,0.72,0.39,1.15,0.18c0.39-0.18,0.73-0.39,0.55-1.05C104.43,110.81,103.62,110.43,103.23,111.17z M102.26,110.43
			c-0.23-0.52-0.42-0.96-0.63-1.45c-0.43,0.24-0.83,0.47-1.28,0.72C100.98,109.94,101.56,110.16,102.26,110.43z M102.12,112.97
			c0.1-0.03,0.17-0.39,0.15-0.58c-0.01-0.17-0.15-0.34-0.27-0.58c-0.31,0.94-1.11,1.15-1.86,1.44c0.02,0.05,0.04,0.1,0.05,0.16
			C100.84,113.27,101.49,113.16,102.12,112.97z M103.27,103.91c-0.47-0.38-1.26-0.28-1.69,0.23
			C102.39,104.51,102.67,104.47,103.27,103.91z M101.94,116.68c-0.01,0.06-0.03,0.11-0.04,0.17c0.37,0.18,0.75,0.36,1.18,0.56
			c0-0.43,0-0.75,0-1.15C102.66,116.42,102.3,116.55,101.94,116.68z M108.03,107.21c-0.94,0.27-1.75,0.51-2.56,0.74
			C106.21,108.21,107.61,107.83,108.03,107.21z M103.97,105.58c0,0.65,0,1.24,0,1.9C104.15,106.86,104.19,105.62,103.97,105.58z
			 M103.38,117.67c-0.13,0.74,0.33,1.11,1.09,0.85C104.09,118.22,103.76,117.97,103.38,117.67z M99.63,112.75
			c-0.64,0.02-0.73,0.56-0.99,0.89C99.1,113.52,99.57,113.41,99.63,112.75z M104.47,108.32c-0.1,0.04-0.15,0.23-0.22,0.35
			c0.3,0.08,0.61,0.16,0.91,0.24c0.02-0.07,0.05-0.14,0.07-0.2C105.07,108.39,104.84,108.18,104.47,108.32z M105.3,114.89
			c-0.32-0.33-0.62-0.64-0.95-0.99C104.29,114.69,104.58,114.98,105.3,114.89z M98.53,114.17c-0.1,0.05-0.1,0.27-0.15,0.42
			c0.17,0.03,0.4,0.14,0.49,0.07c0.18-0.14,0.28-0.37,0.41-0.57c-0.03-0.04-0.06-0.08-0.08-0.12
			C98.97,114.04,98.72,114.06,98.53,114.17z M105.21,110.03c-0.7-0.23-1.08-0.11-1.33,0.46
			C104.28,110.35,104.69,110.21,105.21,110.03z M105.86,110.1c-0.01,0.6,0.18,0.71,1.07,0.55
			C106.48,110.43,106.18,110.27,105.86,110.1z M103.93,118.95c0.02-0.05-0.27-0.19-0.48-0.33c0,0.38,0,0.67,0,0.95
			c0.04,0.02,0.09,0.03,0.13,0.05C103.7,119.4,103.86,119.19,103.93,118.95z M101.97,123.74c-0.06-0.01-0.13-0.01-0.19-0.02
			c-0.04,0.55-0.08,1.09-0.12,1.64c0.06,0,0.11,0,0.17,0.01C101.87,124.83,101.92,124.29,101.97,123.74z M101.52,115.46
			c0.12-0.03,0.3-0.02,0.35-0.1c0.18-0.28,0.12-0.52-0.41-0.63C101.48,114.98,101.5,115.22,101.52,115.46z M103.66,110.13
			c-0.03-0.03-0.06-0.06-0.09-0.09c-0.26,0.09-0.51,0.17-0.84,0.28c0.27,0.14,0.44,0.23,0.66,0.34
			C103.47,110.49,103.56,110.31,103.66,110.13z M103.46,114.89c0,0.4,0,0.75,0,1.11C103.81,115.15,103.81,115.15,103.46,114.89z"/>
		<path class="st0" d="M37.14,123.65c0.09,0.72,0.14,1.44,0.29,2.14c0.06,0.25,0.35,0.57,0.6,0.64c0.8,0.23,1.67,0.26,2.43,0.57
			c0.3,0.12,0.57,0.81,0.52,1.18c-0.25,1.67-0.63,3.33-0.95,4.99c-0.04,0.22-0.01,0.46-0.01,0.92c0.98-2.1,2.77-2.75,4.47-3.49
			c0.15-0.07,0.47,0.27,0.98,0.57c-1.05,0.5-1.85,0.87-2.63,1.26c-1.02,0.5-1.64,1.3-2.07,2.38c-0.58,1.45,0.05,2.76,0.15,4.13
			c0.16,2.08,0.28,4.16,0.45,6.23c0.26,3.4,0.43,6.82,2.03,9.95c0.29,0.56,0.66,1.09,1.12,1.85c-1.16-0.12-1.53-0.87-1.85-1.54
			c-0.4-0.85-0.57-1.81-0.98-2.65c-1.43-2.92-1.57-6.12-1.99-9.24c-0.18-1.34,0.08-2.75,0.13-4.12c0.01-0.34-0.04-0.68-0.07-1.02
			c-0.09-0.01-0.18-0.02-0.27-0.03c-0.06,0.32-0.15,0.65-0.16,0.97c-0.16,3.58-0.31,7.17-0.45,10.75c-0.05,1.29-0.09,2.58-0.1,3.87
			c0,0.37,0.12,0.75,0.21,1.31c0.52-0.61,0.91-1.06,1.31-1.53c1.17,0.46,1.75,1.28,1.97,2.74c-0.59-0.83-1.01-1.41-1.54-2.16
			c-0.43,0.63-0.7,1.12-1.07,1.54c-0.19,0.21-0.54,0.28-0.82,0.41c-0.11-0.27-0.29-0.54-0.33-0.82c-0.09-0.67-0.12-1.35-0.31-2.06
			c-0.09,0.26-0.18,0.51-0.35,0.97c-0.97-1.26,0.64-2.66-0.57-3.79c-0.85,1.55-1.68,3.02-2.47,4.5c-0.64,1.19-1.7,1.8-2.9,2.25
			c-0.1,0.04-0.22,0.05-0.31,0.03c-0.1-0.02-0.18-0.11-0.34-0.21c0.11-0.15,0.19-0.31,0.31-0.39c3.05-1.83,4.59-4.71,5.59-7.97
			c0.08-0.27,0.29-0.51,0.44-0.76c0,0-0.01,0-0.01,0c0.05,0.81,0.1,1.63,0.14,2.44c0.18,0.01,0.35,0.02,0.53,0.03
			c0.12-0.59,0.3-1.19,0.34-1.79c0.21-3.84,0.1-7.72,0.68-11.5c0.42-2.75-0.61-5.56,0.81-8.22c-2,0.14-2.38,0.35-2.59,1.44
			c0.31-0.15,0.56-0.27,1.04-0.5c-1.45,2.07-1.35,4.11-0.97,6.2c0.04,0.2,0.06,0.5-0.06,0.63c-1.19,1.38-0.91,3.12-1.18,4.71
			c-0.69,4.11-1.09,8.28-3.41,11.93c-0.99,1.55-2.13,2.92-3.79,3.8c-0.5,0.26-0.91,0.69-1.41,0.96c-0.25,0.14-0.62,0.11-0.92,0.08
			c-0.09-0.01-0.27-0.36-0.22-0.42c0.16-0.22,0.37-0.5,0.61-0.57c5.03-1.34,6.5-5.54,7.53-9.82c0.91-3.76,1.28-7.64,1.89-11.47
			c0.2-1.27-0.33-2.29-1.17-3.13c-0.27-0.27-0.85-0.24-1.28-0.34c-0.05-1.39-0.72-1.8-2.12-1.52c-0.4,0.08-0.9-0.32-1.31-0.66
			c1.53-0.94,2.56,0.48,3.67,0.68c0.87-0.59,1.67-1.08,2.4-1.65c0.23-0.18,0.36-0.56,0.4-0.87c0.05-0.46-0.02-0.93-0.05-1.56
			c-0.38,0.06-0.82-0.02-1.02,0.17c-1.78,1.68-3.97,1.29-6.08,1.18c-0.78-0.04-1.23-0.04-1.7,0.77c-1.17,2.04-4.47,2.67-6.5,1.97
			c-0.62-0.22-1.17-0.85-1.58-1.41c-0.47-0.63,0.18-1.52,1.28-1.81c0.67-0.18,1.37-0.24,2.01-0.49c0.49-0.19,0.97-0.51,1.32-0.89
			c0.42-0.46,0.55-1.01-0.07-1.5c-0.72-0.57-1.41-1.18-2.1-1.79c-0.09-0.08-0.11-0.25-0.16-0.38c1.16-0.37,3.05,0.62,3.25,1.8
			c0.26,1.51,1.46,2.01,2.63,3c0.07-1.63-0.46-2.84-1.15-3.87c-0.68-1.02-1.73-1.8-2.69-2.75c0.21-0.04,0.4-0.13,0.53-0.08
			c1.57,0.59,3.15,0.15,4.73,0.07c0.41-0.02,1.04,0.09,1.2,0.36c0.18,0.3,0,0.88-0.15,1.28c-0.24,0.61-0.59,1.17-0.94,1.84
			c2.33,0,3.59-1.17,4.35-2.79c-0.38-0.65-0.6-1.25-1-1.65c-0.59-0.6-1.28-1.13-2-1.56c-0.61-0.37-1.34-0.55-2-0.84
			c-0.68-0.3-1.3-0.66-1.09-1.62c-0.96,0.02-1.24-0.48-1.28-1.3c-0.04-0.75-0.22-1.5-0.37-2.24c-0.19-0.91,0.1-1.45,1.06-1.64
			c0.51-0.1,1-0.34,1.59-0.55c-0.78-0.42-1.47-0.71-2.04-1.16c-0.27-0.21-0.43-0.77-0.36-1.1c0.05-0.2,0.65-0.43,0.98-0.4
			c0.6,0.06,1.19,0.29,1.78,0.46c1.32,0.37,2.63,0.79,3.96,1.12c1.11,0.27,1.76-0.33,1.43-1.42c-0.36-1.24-0.33-2.71-1.71-3.49
			c-0.19-0.11-0.2-0.55-0.29-0.83c0.31,0.06,0.63,0.1,0.93,0.17c0.53,0.13,1.06,0.4,1.58,0.36c0.24-0.02,0.55-0.58,0.62-0.93
			c0.04-0.22-0.25-0.64-0.5-0.76c-0.74-0.37-1.55-0.59-2.28-0.97c-0.25-0.13-0.35-0.56-0.52-0.86c0.28-0.12,0.55-0.29,0.85-0.36
			c0.7-0.17,1.42-0.27,2.13-0.44c0.96-0.23,1.6-2.16,0.85-2.81c-0.36-0.31-1.07-0.23-1.78-0.56c0.37-0.23,0.71-0.52,1.1-0.67
			c0.5-0.19,1.08-0.2,1.56-0.42c0.33-0.16,0.75-0.52,0.78-0.83c0.03-0.35-0.27-0.77-0.53-1.09c-0.33-0.42-0.84-0.71-1.13-1.16
			c-0.37-0.58-1.04-1.33-0.38-1.94c0.55-0.51,1.42-0.79,2.19-0.89c0.82-0.11,1.35,0.39,1.19,1.34c-0.07,0.39-0.12,0.79-0.23,1.17
			c-0.25,0.85-0.65,1.62,0.32,2.4c0.56,0.45,0.09,0.93-0.5,1.2c-0.36,0.17-0.64,0.49-0.96,0.74c0.33,0.23,0.67,0.45,0.97,0.71
			c0.7,0.6,1.41,1.2,2.06,1.86c0.08,0.08-0.2,0.74-0.29,0.73c-0.89-0.06-1.77-0.2-2.65-0.31c0.62-0.15,1.25-0.29,1.87-0.43
			c0.05-0.09-1.72-1.5-2.71-2.14c-0.6,2.06-0.48,2.37,0.87,2.56c-0.14,0.14-0.28,0.29-0.42,0.43c-0.24,0.25-0.49,0.49-0.74,0.73
			c0.31,0.05,0.62,0.14,0.92,0.13c0.68-0.03,1.37-0.21,2.04-0.13c0.78,0.09,1.44,0.64,1.32,1.45c-0.05,0.36-0.77,0.77-1.25,0.91
			c-0.7,0.2-1.46,0.17-2.33,0.25c0.49,0.77,0.79,1.29,1.71,1.02c0.82-0.24,1.88,0.76,1.8,1.59c-0.02,0.19-0.46,0.47-0.72,0.48
			c-0.33,0.01-0.68-0.19-1.01-0.33c-0.29-0.12-0.56-0.3-0.92-0.49c-0.24,0.75-1.23,1.25-0.35,2.15c0.72,0.74,2.26,1.02,3.07,0.59
			c0.99-0.54,2.01-1.08,3.16-0.47c0.24,0.13,0.47,0.47,0.49,0.73c0.01,0.17-0.33,0.5-0.56,0.53c-0.75,0.12-1.52,0.1-2.26,0.22
			c-0.46,0.08-1.26,0.31-1.26,0.49c-0.01,0.63,0.06,1.43,0.45,1.87c1.04,1.19,2.55,1.41,4.05,1.51c0.51,0.03,1.03-0.08,1.52,0.01
			c0.27,0.05,0.49,0.41,0.73,0.62c-0.25,0.09-0.52,0.3-0.74,0.25c-1.12-0.25-1.83,0.03-2.23,1.22c-0.45,1.34-0.67,2.64-0.25,4.01
			c0.61-0.24,1.22-0.54,1.86-0.74c1.68-0.51,2.8,0.37,2.74,2.1c-0.01,0.22,0,0.44-0.01,0.65c-0.08,1.27,0.43,1.6,1.66,1.1
			c0.43-0.17,0.89-0.42,1.32-0.39c0.33,0.02,0.64,0.42,0.96,0.65c-0.32,0.26-0.61,0.66-0.97,0.74c-1.08,0.23-2.2,0.29-3.28,0.53
			c-0.31,0.07-0.69,0.51-0.76,0.83c-0.57,2.68-0.98,3.08-3.7,2.97c-1.05-0.04-2.2-0.07-2.85-1.21c-0.08-0.14-0.44-0.09-0.64-0.19
			c-0.51-0.26-1.3-0.45-1.44-0.86c-0.43-1.24-1.21-1.51-2.35-1.29c0.36-0.28,0.72-0.56,1.14-0.9c-0.01-0.78,0.12-1.74-1.33-1.95
			C37,121.8,37.07,122.72,37.14,123.65z M37.03,108.63c0.34-0.21,0.69-0.41,1.03-0.62c-0.82-1.23-0.83-1.24-0.08-2.65
			c0.37-0.69,0.49-1.27-0.31-1.63c-1.05,0.45-1.84,1.01-1.56,2.27c0.2,0.91-0.29,2.08,0.95,2.62c-0.64,0.1-0.81,0.47-0.65,1.06
			c0.16,0.59,0.36,1.19,0.42,1.79c0.04,0.47-0.11,0.96-0.17,1.44c-0.17-0.01-0.35-0.02-0.52-0.03c0-0.35-0.08-0.72,0.01-1.04
			c0.38-1.31,0.08-2.47-0.98-3.05c0.11,0.47,0.11,0.89,0.3,1.17c0.77,1.14,0.66,1.53-0.68,1.83c-0.62,0.14-1.29,0.16-1.93,0.14
			c-0.22-0.01-0.64-0.29-0.63-0.44c0.02-1.14-0.85-1.17-1.51-1.06c-1.05,0.17-2.09,0.55-3.08,0.94c-0.28,0.11-0.57,0.6-0.59,0.93
			c-0.04,0.64,0.06,1.31,0.19,1.94c0.25,1.22,1.01,1.47,2.05,0.72c0.49-0.36,0.95-0.8,1.48-1.09c2.52-1.41,5.08-0.9,7.65-0.13
			c0.25,0.08,0.75-0.02,0.84-0.19c0.39-0.69,0.75-1.43,0.96-2.19c0.47-1.7-0.23-2.64-2-2.79C37.82,108.55,37.42,108.61,37.03,108.63
			z M40.46,115.41c-0.05-0.06-0.1-0.12-0.14-0.19c-0.28,0.16-0.65,0.26-0.81,0.5c-0.62,0.96-1.26,1.92-1.73,2.96
			c-0.59,1.3-0.14,1.95,1.22,2.35c0.61,0.18,1.14,0.66,1.7,1.03c0.19,0.12,0.33,0.38,0.54,0.43c1.23,0.33,1.59,0.97,1.25,2.31
			c-0.34,1.32-0.02,1.76,1.37,1.84c0.5,0.03,1.02,0.01,1.52-0.03c1.74-0.12,2.18-0.67,2.06-2.5c-1.32,0.55-1.51,0.61-1.97-0.79
			c-0.55-1.66-1.64-2.2-3.19-2.35c-0.75-0.07-1.5-0.25-2.24-0.41c-1.23-0.26-1.69-1.11-1.15-2.25
			C39.35,117.32,39.93,116.38,40.46,115.41z M26.3,121.73c1.49,1.68,2.36,3.51,2.73,5.57c0.03,0.16,0.29,0.41,0.42,0.41
			c1.79-0.11,3.59-0.23,5.38-0.42c0.15-0.01,0.39-0.49,0.34-0.7c-0.14-0.55-0.41-1.06-0.73-1.84c-1,0.19-2.2,0.34-3.35,0.66
			c-0.86,0.24-1.38-0.1-1.39-0.83c0-0.74,0.31-1.51,0.59-2.23c0.28-0.71,0.19-1.06-0.63-0.98C28.62,121.47,27.58,121.59,26.3,121.73
			z M26.17,126.27c-0.91,0.6-1.64,1.19-2.47,1.59c-0.63,0.31-1.39,0.35-2.08,0.56c-0.9,0.27-0.98,0.68-0.36,1.41
			c0.92,1.09,2.13,0.9,3.32,0.76c1.79-0.21,3.23-1.34,3.61-2.75C27.44,127.26,26.71,126.69,26.17,126.27z M38.53,116.37
			c-2.21,1.64-4.06,1.23-5.88-0.85c0.35,2.09,0.68,3.77,2.24,5.05c1.17,0.97,1.02,2.48,0.04,3.78c0.65-0.4,1.71-0.86,1.74-1.38
			c0.09-1.46-0.24-2.95-0.41-4.43c-0.01-0.09-0.03-0.18-0.06-0.33c0.23,0.22,0.41,0.38,0.62,0.57
			C37.41,117.95,37.97,117.16,38.53,116.37z M43.57,119.93c0.21-2.07,0.4-3.96,0.6-5.9c-1.31,0.6-2.77,0.98-3.46,2.5
			c-0.43,0.94-0.27,1.7,0.61,2.24C42.03,119.21,42.8,119.54,43.57,119.93z M32.86,118.66c-0.28-1.09-0.52-1.98-0.79-3.04
			c-1.13,0.11-2.23,0.22-3.33,0.32c-0.03,0.17-0.06,0.34-0.08,0.51C30,117.16,31.33,117.86,32.86,118.66z M45.66,118.74
			c0.62,0.93,1.15,1.78,1.76,2.56c0.14,0.19,0.56,0.16,0.86,0.23c0.11-0.74,0.4-1.51,0.27-2.2c-0.07-0.38-0.81-0.79-1.31-0.88
			C46.73,118.36,46.15,118.64,45.66,118.74z M38.6,92.76c0.17-0.62,0.44-1.23,0.48-1.85c0.03-0.37-0.26-1.05-0.47-1.08
			c-0.52-0.07-1.11,0.1-1.61,0.31c-0.18,0.07-0.38,0.63-0.29,0.78C37.17,91.63,38.48,92.82,38.6,92.76z M33.84,114.38
			c-0.38,1.36,0.33,1.79,1.13,2.17c0.89,0.43,1.62,0.13,2.38-0.37C36.55,114.64,34.87,115.43,33.84,114.38z M43.32,113.12
			c-0.92-0.52-1.76-0.99-2.64-1.48c-0.44,1.01-0.84,1.93-1.31,3C40.82,114.08,42.03,113.62,43.32,113.12z M43.64,120.79
			c0.04-0.11,0.07-0.21,0.11-0.32c-1.55-0.59-3.21-1.04-3.85-2.98c-0.25,0.5-0.55,0.85-0.57,1.2c-0.02,0.41,0.1,1.15,0.32,1.21
			C40.96,120.28,42.31,120.51,43.64,120.79z M40.79,101.61c-0.89-1.06-2.54-1.26-3.51-0.48C38.53,102.28,39.09,102.37,40.79,101.61z
			 M37.66,126.72c0,0.83,0,1.49,0,2.39c0.89-0.42,1.66-0.79,2.44-1.16c-0.03-0.12-0.05-0.24-0.08-0.36
			C39.28,127.32,38.54,127.05,37.66,126.72z M32.73,109.49c-1.68-0.49-3.36-0.97-5.31-1.54C28.28,109.24,31.17,110.04,32.73,109.49z
			 M35.82,108.52c0-1.36-0.78-3.8-1.1-3.75C35.11,106.06,35.45,107.24,35.82,108.52z M34.77,131.41c1.57,0.52,2.53-0.25,2.27-1.77
			C36.26,130.25,35.58,130.78,34.77,131.41z M46.87,121.29c-0.54-0.7-0.74-1.82-2.06-1.85C44.94,120.8,45.91,121.04,46.87,121.29z
			 M33.22,111.06c0.05,0.14,1.41,0.08,2.04-0.09c-0.15-0.25-0.25-0.64-0.47-0.72C34.01,109.97,33.54,110.42,33.22,111.06z
			 M35.03,121.82c-0.69,0.72-1.31,1.36-1.97,2.06C34.55,124.07,35.15,123.46,35.03,121.82z M45.71,121.99
			c-0.06,0.08-0.11,0.16-0.17,0.24c0.28,0.4,0.48,0.89,0.85,1.17c0.19,0.14,0.66-0.09,1.01-0.15c-0.09-0.3-0.1-0.75-0.3-0.87
			C46.69,122.16,46.18,122.11,45.71,121.99z M36.03,114.75c-0.52-1.18-1.32-1.42-2.76-0.94C34.34,114.18,35.18,114.47,36.03,114.75z
			 M29.7,115.1c1.83,0.32,2.23,0.09,2.21-1.14C31.24,114.3,30.61,114.63,29.7,115.1z M36.63,133.68c0.09-0.04,0.18-0.07,0.27-0.11
			c0-0.59,0-1.18,0-1.97c-0.43,0.29-1.02,0.58-0.99,0.69C36.06,132.79,36.38,133.23,36.63,133.68z M40.27,145.6
			c0.12-0.01,0.23-0.01,0.35-0.02c-0.08-1.13-0.17-2.27-0.25-3.4c-0.13,0.01-0.26,0.02-0.4,0.03
			C40.07,143.35,40.17,144.48,40.27,145.6z M41.04,123.56c-1.1,0.22-1.24,0.72-0.86,1.3c0.1,0.16,0.47,0.14,0.71,0.2
			C40.94,124.56,40.99,124.06,41.04,123.56z M37.03,115.09c0.45-0.23,0.81-0.41,1.37-0.7c-0.67-0.23-1.2-0.41-1.74-0.59
			c-0.06,0.06-0.13,0.13-0.19,0.19C36.67,114.39,36.86,114.77,37.03,115.09z M36.87,126.17c0-0.73,0-1.47,0-2.29
			C36.15,124.41,36.15,124.41,36.87,126.17z"/>
		<g>
			<path class="st0" d="M86.35,108.17c0.82-0.58,1.94-0.52,2.54,0.14c0.53,0.58,0.46,1.95-0.19,2.64c-0.72,0.77-1.5,1.47-2.21,2.25
				c-0.18,0.2-0.26,0.58-0.25,0.87c0.09,3.95,0.09,7.9,0.34,11.84c0.27,4.26,0.62,8.53,1.23,12.76c0.47,3.26,2.24,4.44,5.85,4.46
				c0.38,0,3.17,0.31,3.55,0.48c-0.4,0.24-6.53,0.94-7.78-0.07c-0.03-0.02-1.94-2.3-2.83-3.45c-0.08-0.1,0.03-0.35,0.06-0.53
				c0.14-0.82,0.29-1.65,0.43-2.47c-0.12-0.01-0.24-0.03-0.36-0.04c0.01,0.48,0.02,0.95,0.04,1.43c-0.06,0-0.11,0.01-0.17,0.01
				c-0.09-1.02-0.18-2.03-0.27-3.05c0.04-0.01,0.08-0.01,0.13-0.02c0.05,0.19,0.09,0.38,0.14,0.57c0.06,0,0.11-0.01,0.17-0.01
				c-0.13-2.09-0.3-4.17-0.37-6.26c-0.1-2.81-0.12-5.62-0.19-8.43c-0.03-1.16-0.07-2.33-0.13-3.49c-0.09-1.64-0.2-3.29-0.3-4.93
				c-0.13-0.02-0.26-0.04-0.39-0.06c-0.25,0.67-0.49,1.33-0.63,1.7c-0.23-0.89-0.54-2.1-0.86-3.37c-0.42,0.06-0.73,0.1-1.17,0.16
				c0.08,4.82,0.17,9.6,0.25,14.38c-0.11,0.01-0.22,0.03-0.34,0.04c-0.06-0.31-0.16-0.63-0.16-0.94c0-3.51,0.01-7.02,0.02-10.52
				c0-0.66-0.02-1.32,0.01-1.98c0.03-0.82-0.35-1.13-0.95-1.02c-0.07,2.84-0.14,5.63-0.21,8.42c0.06,0.01,0.12,0.02,0.19,0.03
				c-0.1-0.51-0.21-1.03-0.31-1.54c-0.05,0.01-0.11,0.02-0.16,0.03c-0.04,1.43-0.07,2.85-0.11,4.58c0.33-0.42,0.48-0.6,0.62-0.78
				c0.09,0,0.18-0.01,0.28-0.01c0.02,0.83,0,1.67,0.06,2.5c0.46,5.65-0.46,11.08-2.22,16.4c-0.1-0.01-0.2-0.02-0.3-0.03
				c-0.02-0.31-0.04-0.62-0.06-0.94c-0.12,0.01-0.28-0.06-0.36,0.04c-0.36,0.44,0.11,1.14,0.18,1.85
				c-2.47,2.48-9.94,2.83-10.21,2.67c0.28-0.21,0.53-0.56,0.84-0.62c2.17-0.43,4.45-0.4,6.42-1.64c0.86-0.54,1.55-1.16,1.77-2.22
				c0.52-2.46,1.07-4.91,1.63-7.36c0.16-0.71,0.48-1.4,0.59-2.11c0.11-0.75,0.06-1.53,0.08-2.38c-0.12,0.13-0.21,0.23-0.36,0.39
				c0.05-1.99,0.1-3.92,0.15-6.02c0.13,0.25,0.21,0.39,0.32,0.62c0.07-0.15,0.19-0.29,0.16-0.36c-1-2.51-0.43-5.1-0.49-7.67
				c-0.03-1.15-0.22-2.3-0.31-3.45c-0.03-0.36,0.01-0.73,0.03-1.31c-0.57-1.74-1.79-1.5-3.39-0.76c-1.45,0.67-2.59-0.13-2.32-1.36
				c0.05-0.25,0.16-0.48,0.26-0.72c0.17-0.39,0.36-0.78,0.61-1.31c-0.51,0.06-0.91,0.11-1.31,0.15c-0.75,0.08-1.44-0.23-1.46-0.95
				c-0.01-0.34,0.81-0.7,1.27-1.02c0.13-0.09,0.35-0.03,0.64-0.05c0.06-0.8,0.12-1.57,0.19-2.38c-0.74,0.8-1.24,1.75-2.01,2.06
				c-0.64,0.27-1.62-0.11-2.4-0.38c-0.78-0.27-1.45-0.76-0.33-2c-1.24,0.18-2.14,0.22-2.98,0.45c-1.03,0.29-1.79-0.15-2.49-0.74
				c-0.67-0.57-0.44-1.45,0.4-1.73c0.37-0.12,0.75-0.23,0.93-0.29c0.54,0.73,1.04,1.39,1.54,2.05c0.12-0.06,0.25-0.11,0.37-0.17
				c-0.02-0.43-0.04-0.87-0.07-1.32c0.28-0.07,0.69-0.25,1.12-0.28c0.51-0.04,1.02,0.05,1.53,0.09c-0.08,0.43-0.17,0.86-0.25,1.29
				c0.65,0.08,0.65,0.08,2.81-2.13c-0.32-0.22-0.75-0.38-0.94-0.69c-0.2-0.33-0.17-0.79-0.25-1.2c0.33,0.03,0.67,0.07,1,0.1
				c0.21,0.02,0.43,0.12,0.63,0.08c2.06-0.42,3.01,0.37,3.15,2.78c0.88-0.65,1.62-0.42,2.46,0.09c0.32,0.19,1.07-0.34,1.62-0.54
				c-0.03-0.13-0.05-0.27-0.08-0.4c-0.73-0.18-1.46-0.32-2.17-0.56c-0.4-0.13-0.88-0.33-1.09-0.64c-0.54-0.82-0.75-1.84-1.64-2.46
				c-0.15-0.1-0.09-0.63-0.01-0.92c0.38-1.44,1.29-2.42,2.65-3.02c0.75-0.33,1.05,0.2,1.38,0.68c0.48,0.69,0.96,1.36,1.51,2.14
				c-0.18-2.3-0.34-4.37-0.5-6.43c0.11-0.02,0.22-0.05,0.34-0.07c0.1,0.27,0.27,0.54,0.3,0.83c0.15,1.3,0.26,2.6,0.39,3.9
				c0.07,0.76,0.3,1.38,1.42,1.41c-0.16-2.09-0.32-4.15-0.48-6.22c0.12-0.01,0.24-0.01,0.36-0.02c0.09,2.28,0.19,4.57,0.28,6.92
				c-1.2-0.45-1.94-0.18-2.24,0.75c-0.29-0.11-0.57-0.21-0.86-0.32c-0.08,0.06-0.16,0.12-0.24,0.18c0.5,0.73,1,1.45,1.55,2.24
				c-0.82-0.26-1.5-0.5-2.2-0.68c-0.69-0.18-1.4-0.28-2.12-0.42c0.11,1.39,2.6,2.56,4.21,1.95c-0.13,0.62-0.24,1.18-0.36,1.73
				c-0.06-0.01-0.13-0.03-0.19-0.04c0.15,0.32,0.29,0.65,0.44,0.97c-1.55,0.26-1.91,1.88-0.81,3.66c-0.22,0.27-0.44,0.53-0.79,0.96
				c0.78-0.12,1.3-0.2,1.96-0.29c-0.21-0.4-0.45-0.69-0.52-1.02c-0.08-0.38-0.02-0.79,0-1.18c0.04-0.72,0.09-1.44,0.14-2.16
				c0.08,0.23,0.18,0.46,0.23,0.7c0.19,0.89,0.36,1.79,0.58,2.91c0.84-1.23,0-2.51,0.67-3.63c0.09,0.88,0.2,1.76,0.26,2.64
				c0.07,0.91,0.04,1.83,0.17,2.73c0.04,0.27,0.45,0.49,0.7,0.73c0.05-0.31,0.17-0.63,0.13-0.93c-0.21-1.66-0.45-3.32-0.7-4.97
				c-0.06-0.37-0.25-0.71-0.32-1.08c-0.03-0.19,0.07-0.41,0.38-0.6c0.3,1.94,0.66,3.87,0.86,5.82c0.12,1.17,0.79,1.68,1.74,2.06
				c0.13-0.24,0.25-0.45,0.37-0.69c0.21,0.54,0.38,1.01,0.56,1.47c0.02,0.13,0.02,0.38,0.06,0.38c1.11,0.16,1.74,0.84,2.02,2.03
				c0.53-1.42,0.2-2.22-0.95-2.45C87.15,108.02,86.74,108.14,86.35,108.17z M80.95,110.45c-0.19,0.1-0.55,0.22-0.54,0.31
				c0.12,1.35,0.28,2.7,0.44,4.05c0.2-0.58,0.3-1.19,0.29-1.8c-0.02-0.86-0.14-1.73-0.21-2.59c0.81,0.29,1.63,0.62,2.4-0.15
				C82.53,110.5,81.66,109.01,80.95,110.45z M79.57,94c-0.02-1.07-0.9-2.09-1.88-1.86c-0.9,0.21-2.17,1.55-2.23,2.48
				c-0.02,0.28,0.23,0.65,0.47,0.85c0.15,0.13,0.55,0.1,0.77,0C77.59,95.05,78.47,94.57,79.57,94z M79.14,109.26
				c0.13-0.06,0.26-0.12,0.39-0.18c0.34,0.01,0.7,0.08,1.03,0.01c0.46-0.09,1.01-0.18,1.3-0.48c0.31-0.33,0.36-0.91,0.61-1.6
				c-0.34-0.27-0.83-0.77-1.42-1.09c-0.48-0.26-1-0.17-1.21,0.5c-0.15,0.47-0.37,0.92-0.49,1.39
				C79.24,108.28,79.21,108.78,79.14,109.26z M71.9,100.47c-0.5,0.43-0.97,0.85-1.47,1.25c-0.28,0.23-0.6,0.41-0.91,0.61
				c0.35,0.29,0.67,0.62,1.05,0.87c0.27,0.18,0.6,0.28,0.91,0.36c0.75,0.18,1.41-0.01,1.77-0.72c0.31-0.63,0.34-1.24-0.52-1.57
				C72.46,101.16,72.27,100.83,71.9,100.47z M75.18,102.1c-0.13,0.11-0.26,0.22-0.4,0.33c-0.17,0.6,0.47,2.51,0.95,2.46
				c0.97-0.12,1.9-0.59,2.85-0.91c0.01-0.15,0.01-0.3,0.02-0.45c-0.68-0.35-1.35-0.69-1.78-0.91c-0.37,0.28-0.63,0.48-1.04,0.79
				C75.54,102.88,75.36,102.49,75.18,102.1z M73.82,99.56c-0.01-0.05-0.03-0.11-0.04-0.16c-0.41,0.13-0.83,0.27-1.24,0.4
				c0.24,0.33,0.48,0.66,0.72,0.98c0.02,0.03,0.05,0.05,0.08,0.08c1.12,1.08,1.4,0.75,2.09-0.38c0.14-0.24,0.09-0.64,0.01-0.93
				c-0.02-0.07-0.49-0.04-0.75-0.04C74.4,99.52,74.11,99.55,73.82,99.56z M82.14,109.57c1.59,0.61,2.51,0.12,2.48-1.35
				c-0.01-0.3-0.25-0.6-0.39-0.9c-0.39,0.19-0.89,0.3-1.15,0.6C82.69,108.37,82.47,108.97,82.14,109.57z M87.35,111.14
				c0.13-0.15,0.58-0.45,0.65-0.81c0.13-0.68-0.81-1.54-1.57-1.44c-0.3,0.04-0.73,0.45-0.79,0.75
				C85.49,110.42,86.19,111.11,87.35,111.14z M75.34,99.19c0.07-1.03-0.42-1.59-1.17-1.75c-0.37-0.08-0.84,0.31-1.27,0.49
				c0.27,0.37,0.47,0.89,0.84,1.06C74.19,99.2,74.77,99.13,75.34,99.19z M77.43,106.13c-0.33,1.01-0.57,1.74-0.8,2.45
				c1.62,0.17,2.1-0.67,1.43-2.71C77.76,105.99,77.46,106.11,77.43,106.13z M76.81,106.77c-1.52,0.42-2.47,1.35-2.19,2.15
				C76.01,108.64,76.78,107.88,76.81,106.77z M80.22,132.95c-0.28,1.69-0.57,3.37-0.85,5.06c0.09,0.02,0.19,0.03,0.28,0.05
				C80.19,136.4,80.89,134.78,80.22,132.95z M77.95,100.37c-0.02-0.11-0.04-0.21-0.06-0.32c-0.46-0.01-0.95-0.12-1.38,0
				c-0.25,0.07-0.46,0.48-0.56,0.78c-0.06,0.18,0.15,0.65,0.2,0.64c0.33-0.04,0.69-0.11,0.96-0.29
				C77.44,100.98,77.68,100.65,77.95,100.37z M76.99,95.52c0.03,0.14,0.05,0.29,0.08,0.43c0.74,0.12,1.47,0.23,2.57,0.4
				c-0.46-0.66-0.7-1.33-0.98-1.34C78.11,94.99,77.55,95.33,76.99,95.52z M72.81,104.78c0.67,1.15,1.43,1.18,2.5,0.22
				C74.35,104.92,73.58,104.85,72.81,104.78z M65.72,101.52c0.05-0.07,0.11-0.13,0.16-0.2c-0.26-0.43-0.45-0.92-0.8-1.26
				c-0.17-0.16-0.63-0.03-0.96-0.03c0.08,0.28,0.08,0.67,0.27,0.81C64.79,101.14,65.28,101.3,65.72,101.52z M84.66,112.28
				c0.11,0,0.22-0.01,0.34-0.01c0.13-0.58,0.27-1.15,0.46-1.98c-0.52,0.23-1.03,0.35-1.03,0.48
				C84.41,111.27,84.56,111.77,84.66,112.28z M80.22,127.03c0.06,0.01,0.13,0.02,0.19,0.02c0.03-1.1,0.06-2.2,0.08-3.3
				c-0.06,0-0.13,0-0.19,0C80.28,124.84,80.25,125.93,80.22,127.03z"/>
			<path class="st0" d="M84.33,66.53c-0.29,0.5-0.48,0.96,0.37,1.09c0.17,0.02,0.33,0.15,0.49,0.24c1.95,1.08,2.05,2.13,0.29,3.56
				c0.69,0.47,1.36,0.93,2.03,1.39c0.14-0.15,0.23-0.22,0.28-0.31c0.28-0.47,0.52-1.31,0.83-1.33c0.86-0.06,1.83,0.04,2.6,0.41
				c0.85,0.41,0.27,2.55-0.76,3.01c-1.19,0.53-2.46,0.19-3.23-0.88c-0.49-0.68-1.81-1.25-2.97-1.18c0.41,0.68,0.73,1.33,1.15,1.89
				c1.07,1.44,1.07,1.82,0.02,3.33c-0.17,0.24-0.15,0.62-0.16,0.94c-0.03,0.77-0.02,1.54-0.04,2.3c0,0.14-0.05,0.28-0.21,0.43
				c-0.02-0.46-0.03-0.92-0.06-1.38c-0.03-0.43-0.1-0.86-0.21-1.29c-0.05,1.92-0.1,3.83-0.14,5.75c0.1,0,0.19,0.01,0.29,0.01
				c0.01-0.55,0.03-1.09,0.05-1.82c0.36,0.5,0.72,1.21,0.64,1.2c-0.16,1.15-0.32,2.31-0.51,3.67c-0.16-0.98-0.29-1.77-0.42-2.55
				c-1.42,0.06-1.58,0.24-1.39,1.45c0.04,0.25,0.07,0.51,0.07,0.76c0,0.28-0.04,0.55-0.08,1.03c-0.19-0.97-0.35-1.74-0.52-2.61
				c-0.7,0.37-1.29,0.68-2,1.06c-0.02-0.56-0.04-0.98-0.06-1.57c-0.14,0.21-0.28,0.33-0.26,0.4c0.36,1.27-0.52,2.02-1.32,2.61
				c-0.91,0.67-1.99,1.29-3.08,1.5c-1.61,0.32-2.2-0.44-2.4-2.35c-2.01-0.16-4-0.28-5.97-0.5c-0.5-0.06-0.96-0.43-1.44-0.65
				c2.2,0.59,4.41,0.99,6.69,0.6c0.42-0.07,0.82-0.29,1.41-0.52c-0.98-0.49-1.65-0.85-2.34-1.15c-0.24-0.1-0.6-0.15-0.82-0.05
				c-1.32,0.68-2.69,0.75-4.13,0.59c-0.19-0.02-1.03-0.31-0.78,0.56c-0.75-0.46-1.98-0.39-1.99-1.81c2.21,1.32,5.16,1.18,7.07,0.06
				c-1.09-0.58-2.12-1.01-3.01-1.64c-0.52-0.36-1.09-1.03-1.12-1.59c-0.02-0.47,0.71-0.98,1.14-1.43c0.1-0.11,0.38-0.16,0.51-0.1
				c1.47,0.65,2.22-0.27,3.01-1.44c-0.55-0.29-1.12-0.55-1.65-0.88c-0.62-0.4-1.26-0.81-1.77-1.33c-0.14-0.14,0-0.9,0.2-1
				c0.6-0.3,1.29-0.48,1.96-0.61c0.81-0.16,1.64-0.22,2.46-0.31c0.17-0.02,0.36,0,0.52,0.07c1.78,0.75,3.21-0.12,4.69-0.82
				c0.01-0.13,0.02-0.27,0.03-0.4c-0.59-0.1-1.18-0.18-1.76-0.31c-1.16-0.27-2.31-0.53-3.45-0.88c-0.28-0.09-0.47-0.49-0.69-0.74
				c0.05-0.12,0.1-0.23,0.14-0.35c1.82-0.22,3.64-0.43,5.57-0.66c-0.09-0.22-0.23-0.46-0.28-0.72c-0.13-0.66-0.7-1.27,0.45-1.83
				c0.97-0.47,1.72-1.46,2.46-2.32c0.21-0.24,0.19-0.92-0.01-1.2c-0.5-0.71-1.17-1.3-1.77-1.94c-1.15-1.24-1.19-2.35-0.12-3.6
				c0.53-0.62,1.39-0.61,1.7,0.12c0.29,0.67,0.36,1.45,0.43,2.19c0.04,0.49-0.1,1-0.28,1.5c-0.02-0.73,0.04-1.47-0.08-2.18
				c-0.07-0.45-0.33-0.94-0.67-1.23c-0.17-0.14-0.92,0.05-1.01,0.26c-0.22,0.47-0.42,1.19-0.21,1.57c0.45,0.81,1.16,1.48,1.78,2.19
				c0.17,0.19,0.38,0.34,0.57,0.52c0.7-0.56,1.42-1.14,2.15-1.71c-0.23,0.79-1.51,1.16-0.9,2.33c0.76-0.61,1.4-1.29,1.95-2.03
				c0.09-0.13,0.5-1.2,0.6-1.15c-0.11,0.63-0.21,1.26-0.34,2c1.42,1.67,1.39,2.62-0.25,3.8c0.24-0.55,0.55-1.09,0.71-1.67
				c0.09-0.3-0.04-0.69-0.14-1.01c-0.02-0.07-0.4-0.15-0.45-0.09C84,64.3,83.45,64.8,83.29,65.4
				C83.22,65.66,83.96,66.14,84.33,66.53z M78.74,74.45c0.55,0.73,1.11,0.16,1.5-0.12c0.36-0.26,0.87-0.78,0.2-1.33
				c-0.19-1.06-0.89-1.73-1.78-1.79c-0.37-0.02-0.76-0.17-1.1-0.34c-1.22-0.62-3.08-0.43-4.11,0.54c0.48,0.19,0.89,0.46,1.34,0.52
				c1.05,0.15,2.13,0.13,3.16,0.34c0.59,0.12,1.11,0.57,1.65,0.88c-0.04,0.09-0.08,0.18-0.11,0.26c0.32-0.15,0.64-0.29,0.96-0.43
				c-0.51,0.4-1.01,0.8-1.52,1.2c-0.14-0.09-0.3-0.28-0.41-0.25c-0.93,0.21-1.85,0.45-2.76,0.71c-0.17,0.05-0.3,0.24-0.65,0.53
				c0.84,0.2,1.47,0.46,2.09,0.44c0.29-0.01,0.55-0.56,0.86-0.82C78.26,74.64,78.51,74.56,78.74,74.45z M69.14,79.59
				c-0.72,0.64-1.37,0.96-1.55,1.46c-0.11,0.3,0.42,1,0.83,1.29c0.74,0.52,1.62,0.82,2.41,1.28c1.12,0.65,2,0.59,2.79-0.39
				c0.23-0.29,0.45-0.91,0.31-1.1c-0.22-0.28-0.75-0.39-1.16-0.44c-0.43-0.05-0.91,0.2-1.3,0.08c-0.5-0.16-0.96-0.52-1.37-0.88
				C69.79,80.6,69.58,80.19,69.14,79.59z M79.45,86.49c-1.42,0.11-2.81,0.22-4.21,0.34c-0.54,0.05-1.15,0.04-1.19,0.83
				c-0.03,0.71,0.26,1.16,0.98,1.38C76.5,89.49,79.01,88.09,79.45,86.49z M75.01,81.44c-0.42,1,0.45,2.69,1.35,2.81
				c0.21,0.03,0.57-0.05,0.63-0.18c0.15-0.34,0.36-0.93,0.2-1.08c-0.59-0.59-0.24-0.79,0.22-1.17c0.29-0.23,0.61-0.83,0.5-1.07
				c-0.36-0.78-1.27-1.01-1.78-0.58c-0.32,0.28-0.6,0.62-0.91,0.94c0.35,0.5,0.65,0.93,0.95,1.36c-0.05,0.03-0.11,0.07-0.16,0.1
				C75.71,82.23,75.4,81.88,75.01,81.44z M80.18,76.69c1.25,0.79,1.52,1.45,1.2,2.81c-0.08,0.35-0.26,0.69-0.29,1.05
				c-0.02,0.29,0.04,0.81,0.19,0.85c0.28,0.09,0.71,0.02,0.96-0.15c1.29-0.89,1.4-1.43,0.71-2.87c-0.13-0.26-0.25-0.53-0.38-0.79
				C81.85,76.13,81.85,76.13,80.18,76.69z M80.63,80.84c0.14-0.61,0.33-1.2,0.41-1.81c0.19-1.42-0.47-1.91-1.78-1.38
				c-0.4,0.16-0.8,0.29-1.32,0.48C78.92,79,78.79,80.73,80.63,80.84z M84.39,69.45c-0.35,0.51-0.56,0.82-0.78,1.13
				c0.44,0.09,0.96,0.38,1.29,0.23c0.52-0.22,1.08-0.68,1.27-1.17c0.1-0.26-0.49-0.98-0.92-1.18c-0.51-0.23-1.2-0.25-1.75-0.11
				c-0.29,0.07-0.44,0.67-0.68,1.06C83.49,69.42,83.92,69.43,84.39,69.45z M81.87,82.32c-0.17,1.15-0.32,2.17-0.48,3.31
				c0.86-0.37,1.74-0.75,2.6-1.12C83.54,82.75,82.99,82.24,81.87,82.32z M71.22,80.45c0.01-0.05,0.03-0.1,0.04-0.15
				c0.75,0.27,1.5,0.54,2.25,0.81c0.07-0.08,0.14-0.17,0.21-0.25c-0.23-0.64-0.39-1.31-0.72-1.89c-0.13-0.22-0.83-0.42-0.94-0.31
				c-0.61,0.62-1.12,1.35-1.84,2.25c0.84,0.22,1.36,0.36,1.88,0.5c0.03-0.11,0.07-0.22,0.1-0.33
				C71.88,80.86,71.55,80.66,71.22,80.45z M89.94,74.01c0.15,0.01,0.29,0.02,0.44,0.02c0.25-0.59,0.87-1.44,0.67-1.72
				c-0.35-0.5-1.17-0.81-1.83-0.89c-0.36-0.04-0.79,0.56-1.19,0.87c0.03,0.12,0.07,0.23,0.1,0.35
				C88.99,72.79,89.93,72.79,89.94,74.01z M70.07,76.25c0.9,0.81,1.83,0.52,2.7,0.5c0.09,0,0.26-0.24,0.24-0.31
				c-0.18-0.46-0.3-1.01-0.64-1.3c-0.24-0.21-0.87-0.22-1.18-0.05C70.76,75.34,70.46,75.83,70.07,76.25z M81.87,65.16
				c-0.12,0.07-0.25,0.13-0.37,0.2c-0.17,0.08-0.38,0.12-0.51,0.24c-0.46,0.41-0.9,0.85-1.35,1.28c0.39,0.29,0.75,0.68,1.19,0.84
				c0.51,0.18,1.06,0.05,1.08-0.67C81.94,66.42,81.89,65.79,81.87,65.16z M83.32,71.16c0.51,2.26,1.01,4.45,1.51,6.64
				c0.11-0.02,0.21-0.03,0.32-0.05c-0.38-2.11-0.76-4.22-1.16-6.47C83.81,71.25,83.47,71.18,83.32,71.16z M82.27,76.24
				c0.52,0.95,1.01,1.83,1.49,2.71c0.09-0.04,0.19-0.07,0.28-0.11c-0.22-1.08,0.26-2.27-0.64-3.34
				C83.01,75.76,82.65,75.99,82.27,76.24z M79.16,81.8c-0.12-0.05-0.25-0.1-0.37-0.15c-0.25,0.39-0.76,0.83-0.69,1.14
				c0.15,0.63,0.61,1.18,1,1.86C80.19,83.47,79.45,82.65,79.16,81.8z M83.41,72.2c-0.11-0.1-0.22-0.19-0.32-0.29
				c-0.97,0.57-2.31,0.85-1.9,2.84C82.05,73.77,82.73,72.99,83.41,72.2z M73.55,78.89c0.46,0.67,0.78,1.14,1.23,1.8
				c0.51-0.67,0.85-1.12,1.32-1.73C75.17,78.93,74.53,78.91,73.55,78.89z M74.63,82.97c-0.11,0.03-0.22,0.06-0.33,0.09
				c-0.13,0.7-0.25,1.39-0.38,2.09c0.1,0.07,0.2,0.13,0.29,0.2c0.4-0.3,1.11-0.59,1.12-0.91C75.36,83.96,74.89,83.46,74.63,82.97z
				 M78.19,83.8c-0.15,0.02-0.3,0.04-0.45,0.07c-0.12,0.68-0.25,1.37-0.37,2.05c0.08,0.07,0.17,0.13,0.25,0.2
				c0.32-0.23,0.89-0.43,0.91-0.68C78.56,84.9,78.32,84.35,78.19,83.8z M81.28,69.79c0.11,0.8,0.2,1.45,0.29,2.09
				c0.15,0.02,0.29,0.03,0.44,0.05c0.17-0.68,0.34-1.35,0.53-2.11C82.06,69.81,81.75,69.8,81.28,69.79z M68.65,75.24
				c0.86,1.43,1.08,0.81,2.11-0.59C69.96,74.87,69.37,75.03,68.65,75.24z M72.18,84.63c0.53,0.28,0.84,0.44,1.28,0.67
				c0.12-0.56,0.22-1,0.37-1.69C73.21,83.99,72.8,84.24,72.18,84.63z M79.83,76.03c0.52-0.04,1.04-0.07,1.66-0.12
				C80.76,74.76,80.72,74.76,79.83,76.03z M73.56,75.64c-0.07,0.14-0.14,0.27-0.21,0.41c0.69,0.32,1.37,0.65,2.06,0.97
				c-0.06-0.36-0.22-0.54-0.43-0.65C74.52,76.1,74.04,75.87,73.56,75.64z"/>
			<path class="st0" d="M85.78,97.25c0.28,0.46,0.54,0.88,0.84,1.38c0.52-1.65,0.31-2.2-0.83-2.45c-0.08-0.34-0.15-0.67-0.3-1.29
				c-0.33,1.34-0.58,2.37-0.78,3.21c-0.04-2.7-0.08-5.62-0.12-8.54c-0.15,1.87,1.32,2.38,2.57,2.99c0.22,0.11,0.83-0.19,0.99-0.46
				c0.45-0.76,0.98-0.69,1.55-0.27c0.94,0.69,1.84,1.44,2.79,1.88c0.82,0.13,1.65,0.19,2.43,0.43c0.18,0.06,0.18,0.71,0.33,1.37
				c1,0.03,2.19,0.05,3.53,0.09c-0.61,0.33-1.19,0.64-1.86,1c1.19,0.78,0.46,1.28-0.24,1.76c-0.33,0.23-0.75,0.35-1.02,0.62
				c-0.26,0.26-0.48,0.63-0.54,0.98c-0.09,0.53-0.01,1.09-0.04,1.64c-0.05,0.88-0.44,1.64-1.29,1.86c-1.87,0.49-3.78,0.81-5.65-0.06
				c-0.24-0.11-0.61-0.38-0.59-0.55c0.09-1.04-0.84-1.58-1.1-2.4C86.12,99.41,85.99,98.32,85.78,97.25z M88.47,102.1
				c0.07,0.25,0.07,0.35,0.11,0.39c1.36,1.3,5.1,0.37,5.62-1.41c0.07-0.25,0.03-0.62-0.12-0.82c-0.52-0.73-2.26-0.47-2.74,0.28
				c-0.34,0.55-0.83,1.07-1.37,1.4C89.61,102.16,89.03,102.05,88.47,102.1z M94.78,94.79c-0.05-0.12-0.11-0.24-0.16-0.36
				c-0.28,0.16-0.67,0.25-0.81,0.48c-0.4,0.7-0.71,1.45-1.08,2.24c0.27,0.21,0.64,0.48,1,0.79c1.09,0.94,2,0.81,2.84-0.36
				c-0.77-0.32-1.57-0.66-2.45-1.03c0.3-0.44,0.47-0.69,0.64-0.93c-0.25-0.21-0.43-0.37-0.64-0.56
				C94.36,94.97,94.57,94.88,94.78,94.79z M85.67,93.18c-0.16-0.12-0.4-0.29-0.64-0.47c-0.08,0.29-0.22,0.58-0.22,0.86
				c0,0.33,0.14,0.66,0.21,0.99c0.06-0.09,0.13-0.18,0.19-0.27c0.19,0.16,0.4,0.3,0.57,0.48c0.27,0.29,0.49,0.81,0.77,0.84
				c0.35,0.04,0.74-0.33,0.92-0.42c-0.27-0.81-0.46-1.37-0.7-2.06C86.54,93.14,86.13,93.16,85.67,93.18z M90.84,94.81
				c-1.48-0.36-2.61,0.25-3.35,1.81c0.65,0.09,1.25,0.16,2.01,0.26c-0.2-0.55-0.32-0.87-0.48-1.3
				C89.63,95.32,90.2,95.08,90.84,94.81z M91.69,94.2c0.07-0.08,0.13-0.16,0.2-0.24c-0.66-0.49-1.3-1.01-1.99-1.46
				c-0.79-0.52-1.08-0.38-1.5,0.68C89.5,93.52,90.6,93.86,91.69,94.2z M87.36,98.5c0.15,0.52,0.21,0.74,0.24,0.83
				c-0.37,0.21-0.66,0.38-0.95,0.54c0.27,0.42,0.54,0.84,0.87,1.34c0.46-0.79,0.8-1.37,1.16-1.98
				C88.29,99.01,87.95,98.83,87.36,98.5z M88.4,101.38c1.25,0.5,1.45-0.67,2.14-1.05C89.48,99.65,88.99,99.89,88.4,101.38z
				 M87.55,98.02c0.89,0.4,1.46,0.66,2.09,0.95c-0.16-0.69-0.27-1.18-0.41-1.83C88.77,97.38,88.33,97.61,87.55,98.02z M90.74,96.89
				c-0.41-1.12,1.09-1.15,1.03-2.06c-0.71,0.42-1.34,0.78-2.05,1.2C90.11,96.36,90.42,96.62,90.74,96.89z"/>
			<path class="st0" d="M91.25,80.25c0.92,1.2-0.65,1.16-0.76,1.9c1.13,0.23,2.18,0.64,3.4,0.17c0.75-0.29,1.65-0.3,2.47-0.24
				c1.67,0.11,2.66,1.72,2.12,3.23c-0.04,0.12,0.05,0.3,0.1,0.44c0.37,1.03,0.75,2.05,1.13,3.07c-3.44,1.36-4.64,1.21-6.44-0.76
				c-1.92,1.05-3.83,1.39-5.71-0.05c-0.57-0.44-1.03-0.21-1.43,0.22c-0.29,0.31-0.52,0.68-0.87,1.15c-0.08-0.58-0.14-1.06-0.21-1.58
				c2.43-0.61,2.37-3.22,3.88-4.46c-0.03-0.17-0.03-0.24-0.06-0.31c-0.28-0.57-0.88-1.2-0.79-1.7c0.15-0.81,1-0.87,1.79-0.82
				C90.31,80.55,90.78,80.35,91.25,80.25z M88.07,87.53c1.09,0.84,1.91,0.66,2.63-0.45c0.53-0.82-2.5-2.08-2.98-1.39
				c0.37,0.42,0.66,0.74,0.95,1.08C88.45,87.05,88.28,87.26,88.07,87.53z M93.82,87.89c1.06,1.86,1.93,1.89,5.3,0.36
				c-0.3-0.77-0.6-1.55-0.97-2.53c-0.39,0.89-0.66,1.53-0.98,2.26C96.13,87.95,95.05,87.92,93.82,87.89z M92.66,84.96
				c2.03,1.11,2.04,1.11,2.87,0.32c-0.13-0.76-0.5-1.52-0.29-2.05c0.15-0.4,1.06-0.5,1.63-0.73c-0.86-0.45-1.79-0.16-2.72,0.11
				C92.91,82.96,93.59,84.35,92.66,84.96z M89.76,82.83c0.51,1.16,2.4,0.84,2.31,2.51c0.27-0.71,0.6-1.54,0.33-1.9
				C91.81,82.67,90.81,82.66,89.76,82.83z M88.54,82.07c0.07,0.11,0.14,0.22,0.21,0.34c0.55-0.28,1.09-0.56,1.64-0.84
				c-0.06-0.12-0.13-0.24-0.19-0.37C89.49,81.18,88.77,81.13,88.54,82.07z M90.55,88.09c0.05,0.08,0.09,0.16,0.14,0.23
				c0.54-0.14,1.08-0.28,1.88-0.49C91.99,87.5,90.79,87.77,90.55,88.09z M95.03,86.59c0.68,0.13,1.11,0.21,1.86,0.35
				C96.53,86.3,95.48,86.13,95.03,86.59z"/>
			<path class="st0" d="M84.29,130.26c-1.02,4.27-2.02,12.92-2.17,12.9c0.19-0.85,0.35-1.7,0.57-2.54c0.1-0.4,0.41-0.77,0.45-1.17
				c0.26-3.17,0.59-6.33,0.67-9.5c0.08-3.39-0.05-6.79-0.18-10.18c-0.09-2.39-0.35-4.77-0.52-7.15c-0.02-0.24,0.03-0.48,0.06-0.83
				c0.74,0.72,0.92,1.43,0.91,2.38c-0.03,3.14,0.02,6.29,0.23,9.42c0.26,4.04,0.77,8.07,1.05,12.11c0.11,1.59-0.15,3.2-0.19,4.8
				c-0.02,0.71,0.11,1.42-0.06,2.14C84.59,138.53,85.38,134.34,84.29,130.26z"/>
			<path class="st0" d="M85.86,132.69c-0.24-6.28-0.47-12.55-0.71-18.83c0.13-0.01,0.26-0.01,0.38-0.02
				c0.2,6.28,0.39,12.56,0.59,18.84C86.04,132.69,85.95,132.69,85.86,132.69z"/>
			<path class="st0" d="M81.17,139.01c0.79-1.38,0.26-2.85,0.91-4.12c0.1,0.01,0.2,0.03,0.29,0.04c-0.43,2.75-0.86,5.49-1.28,8.24
				C80.98,143.17,80.53,140.11,81.17,139.01z"/>
			<path class="st0" d="M85.98,100.56c0.06,1.81,0.12,3.63,0.18,5.44c-0.12,0.01-0.23,0.01-0.35,0.02c-0.59-1.78,0.1-3.64-0.29-5.43
				C85.68,100.57,85.83,100.57,85.98,100.56z"/>
			<path class="st0" d="M84.86,106.52c-0.25-2.59-0.5-5.17-0.74-7.76c0.04-0.01,0.08-0.01,0.13-0.02c0.09,0.86,0.15,1.72,0.28,2.57
				c0.13,0.83,0.39,1.63,0.5,2.46c0.11,0.89,0.11,1.8,0.16,2.7C85.08,106.49,84.97,106.5,84.86,106.52z"/>
			<path class="st0" d="M81.31,95.55c0.47,1.98,0.92,4-0.15,6.03C81.21,99.57,81.26,97.56,81.31,95.55z"/>
			<path class="st0" d="M83.48,97.77c0.05,0.58,0.1,1.17,0.17,2c-1.67-1.87-1.76-2.09-1.37-3.5c0.28,0.85,0.46,1.42,0.68,2.11
				c0.1-0.24,0.18-0.43,0.25-0.61C83.3,97.77,83.39,97.77,83.48,97.77z"/>
			<path class="st0" d="M86.08,140.34c0.63,1.16,1.25,2.33,1.88,3.49C87.85,143.88,86.35,141.66,86.08,140.34z"/>
			
				<ellipse transform="matrix(0.025 -0.9997 0.9997 0.025 -49.6754 209.5114)" class="st0" cx="82.57" cy="130.22" rx="3.91" ry="0.1"/>
		</g>
	</g>
	<g>
		<g>
			<path d="M124.47,78.69h-4.98v-1.8h12.12v1.8h-5v14.58h-2.14V78.69z"/>
			<path d="M136.1,76.89v6.85h7.92v-6.85h2.14v16.37h-2.14v-7.68h-7.92v7.68h-2.11V76.89H136.1z"/>
			<path d="M158.86,85.59h-6.36v5.9h7.09v1.77h-9.21V76.89h8.84v1.77h-6.73v5.17h6.36V85.59z"/>
			<path d="M181.06,92.53c-0.95,0.34-2.82,0.9-5.03,0.9c-2.48,0-4.52-0.63-6.12-2.16c-1.41-1.36-2.28-3.55-2.28-6.1
				c0.02-4.88,3.38-8.45,8.87-8.45c1.89,0,3.38,0.41,4.08,0.75l-0.51,1.72c-0.87-0.39-1.97-0.7-3.62-0.7
				c-3.98,0-6.58,2.48-6.58,6.58c0,4.15,2.5,6.61,6.32,6.61c1.38,0,2.33-0.19,2.82-0.44v-4.88h-3.33v-1.7h5.39V92.53z"/>
			<path d="M184.84,77.11c1.07-0.22,2.6-0.34,4.06-0.34c2.26,0,3.72,0.41,4.74,1.34c0.83,0.73,1.29,1.85,1.29,3.11
				c0,2.16-1.36,3.6-3.09,4.18v0.07c1.26,0.44,2.02,1.6,2.41,3.3c0.53,2.28,0.92,3.86,1.26,4.49h-2.19
				c-0.27-0.46-0.63-1.87-1.09-3.91c-0.49-2.26-1.36-3.11-3.28-3.18h-1.99v7.09h-2.11V77.11z M186.96,84.57h2.16
				c2.26,0,3.69-1.24,3.69-3.11c0-2.11-1.53-3.04-3.77-3.06c-1.02,0-1.75,0.1-2.09,0.2V84.57z"/>
			<path d="M206.95,85.59h-6.36v5.9h7.09v1.77h-9.21V76.89h8.84v1.77h-6.73v5.17h6.36V85.59z"/>
			<path d="M219.45,85.59h-6.36v5.9h7.09v1.77h-9.21V76.89h8.84v1.77h-6.73v5.17h6.36V85.59z"/>
			<path d="M223.48,93.26V76.89h2.31l5.25,8.28c1.21,1.92,2.16,3.64,2.94,5.32l0.05-0.02c-0.19-2.19-0.24-4.18-0.24-6.73v-6.85h1.99
				v16.37h-2.14l-5.2-8.31c-1.14-1.82-2.23-3.69-3.06-5.47l-0.07,0.02c0.12,2.06,0.17,4.03,0.17,6.75v7H223.48z"/>
			<path d="M247.84,76.89v16.37h-2.11V76.89H247.84z"/>
			<path d="M252.09,93.26V76.89h2.31l5.25,8.28c1.21,1.92,2.16,3.64,2.94,5.32l0.05-0.02c-0.19-2.19-0.24-4.18-0.24-6.73v-6.85h1.99
				v16.37h-2.14l-5.2-8.31c-1.14-1.82-2.24-3.69-3.06-5.47l-0.07,0.02c0.12,2.06,0.17,4.03,0.17,6.75v7H252.09z"/>
			<path d="M270.74,76.89v16.37h-2.11V76.89H270.74z"/>
			<path d="M278.1,78.69h-4.98v-1.8h12.12v1.8h-5v14.58h-2.14V78.69z"/>
			<path d="M289.73,76.89v16.37h-2.11V76.89H289.73z"/>
			<path d="M296.63,88.11l-1.7,5.15h-2.19l5.56-16.37h2.55l5.59,16.37h-2.26l-1.75-5.15H296.63z M302,86.46l-1.6-4.71
				c-0.37-1.07-0.61-2.04-0.85-2.99h-0.05c-0.24,0.97-0.51,1.97-0.83,2.96l-1.6,4.74H302z"/>
			<path d="M310.64,78.69h-4.98v-1.8h12.12v1.8h-5v14.58h-2.14V78.69z"/>
			<path d="M322.28,76.89v16.37h-2.11V76.89H322.28z"/>
			<path d="M330.12,93.26l-5.34-16.37h2.28l2.55,8.07c0.7,2.21,1.31,4.2,1.75,6.12h0.05c0.46-1.89,1.14-3.96,1.87-6.1l2.77-8.09
				h2.26l-5.85,16.37H330.12z"/>
			<path d="M349.11,85.59h-6.36v5.9h7.09v1.77h-9.21V76.89h8.84v1.77h-6.73v5.17h6.36V85.59z"/>
		</g>
	</g>
	<g>
		<path d="M141.77,129.53c0,1.74-0.32,3.29-0.96,4.64c-0.64,1.36-1.53,2.51-2.67,3.45c-1.14,0.95-2.47,1.66-4.01,2.13
			c-1.54,0.48-3.2,0.72-4.97,0.72c-1.24,0-2.39-0.11-3.45-0.32c-1.06-0.21-2.01-0.47-2.84-0.77c-0.83-0.3-1.53-0.62-2.09-0.95
			c-0.56-0.32-0.96-0.6-1.17-0.83s-0.38-0.52-0.49-0.87c-0.11-0.35-0.16-0.83-0.16-1.42c0-0.42,0.02-0.77,0.06-1.05
			c0.04-0.28,0.1-0.5,0.17-0.67s0.17-0.29,0.29-0.36c0.11-0.07,0.25-0.1,0.4-0.1c0.27,0,0.64,0.16,1.13,0.49
			c0.49,0.33,1.11,0.68,1.88,1.06c0.76,0.38,1.69,0.74,2.77,1.07c1.08,0.33,2.33,0.5,3.74,0.5c1.07,0,2.05-0.14,2.94-0.43
			c0.89-0.29,1.65-0.69,2.29-1.22c0.64-0.53,1.13-1.17,1.48-1.93c0.34-0.76,0.52-1.63,0.52-2.61c0-1.05-0.24-1.95-0.72-2.69
			c-0.48-0.74-1.11-1.4-1.89-1.96c-0.78-0.56-1.68-1.08-2.68-1.55c-1-0.47-2.03-0.95-3.08-1.43c-1.05-0.49-2.07-1.03-3.07-1.62
			c-0.99-0.59-1.88-1.29-2.67-2.09c-0.78-0.8-1.42-1.74-1.91-2.82c-0.49-1.08-0.73-2.37-0.73-3.88c0-1.55,0.28-2.93,0.85-4.14
			c0.56-1.21,1.35-2.23,2.35-3.05c1-0.82,2.2-1.45,3.58-1.88s2.88-0.64,4.48-0.64c0.82,0,1.65,0.07,2.48,0.21
			c0.83,0.14,1.61,0.33,2.35,0.57c0.74,0.24,1.39,0.51,1.96,0.8c0.57,0.3,0.95,0.54,1.13,0.72c0.18,0.18,0.3,0.33,0.36,0.43
			c0.06,0.11,0.1,0.24,0.14,0.4c0.04,0.16,0.07,0.36,0.09,0.59c0.02,0.23,0.03,0.53,0.03,0.89c0,0.34-0.01,0.65-0.04,0.92
			s-0.07,0.49-0.13,0.67c-0.06,0.18-0.14,0.31-0.24,0.4c-0.11,0.09-0.22,0.13-0.36,0.13c-0.21,0-0.54-0.13-0.99-0.4
			c-0.45-0.27-1-0.57-1.65-0.9c-0.65-0.33-1.42-0.64-2.31-0.92c-0.89-0.28-1.89-0.42-2.99-0.42c-1.03,0-1.93,0.14-2.69,0.42
			c-0.76,0.28-1.39,0.65-1.89,1.1c-0.5,0.46-0.87,1-1.12,1.63c-0.25,0.63-0.37,1.3-0.37,2.01c0,1.03,0.24,1.92,0.72,2.67
			s1.11,1.4,1.91,1.98c0.79,0.57,1.7,1.1,2.71,1.58c1.01,0.48,2.04,0.96,3.09,1.45s2.08,1.02,3.09,1.6
			c1.01,0.58,1.92,1.27,2.71,2.06c0.79,0.79,1.43,1.73,1.92,2.81C141.53,126.78,141.77,128.05,141.77,129.53z"/>
		<path d="M171.92,137.89c0,0.34-0.02,0.64-0.06,0.9s-0.11,0.47-0.2,0.64c-0.1,0.17-0.21,0.3-0.33,0.37
			c-0.12,0.08-0.26,0.11-0.42,0.11h-17.79c-0.44,0-0.86-0.15-1.25-0.44c-0.39-0.3-0.59-0.82-0.59-1.56v-33.07
			c0-0.75,0.2-1.26,0.59-1.56c0.39-0.3,0.81-0.44,1.25-0.44h17.59c0.15,0,0.29,0.04,0.42,0.12s0.22,0.2,0.3,0.37
			s0.14,0.39,0.19,0.64c0.05,0.26,0.07,0.58,0.07,0.96c0,0.34-0.02,0.65-0.07,0.9c-0.05,0.26-0.11,0.47-0.19,0.63
			c-0.08,0.16-0.18,0.28-0.3,0.36s-0.26,0.11-0.42,0.11h-14.5v11.63h12.44c0.15,0,0.29,0.04,0.42,0.13
			c0.12,0.09,0.23,0.21,0.31,0.36s0.15,0.36,0.19,0.63c0.04,0.27,0.06,0.58,0.06,0.95c0,0.34-0.02,0.64-0.06,0.89
			c-0.04,0.25-0.1,0.45-0.19,0.6c-0.09,0.15-0.19,0.26-0.31,0.33c-0.12,0.07-0.26,0.1-0.42,0.1h-12.44v13.27h14.7
			c0.15,0,0.29,0.04,0.42,0.11c0.12,0.08,0.23,0.2,0.33,0.36c0.09,0.16,0.16,0.37,0.2,0.63
			C171.9,137.19,171.92,137.51,171.92,137.89z"/>
		<path d="M217.11,143.19c0,0.44-0.02,0.81-0.07,1.1c-0.05,0.3-0.12,0.53-0.21,0.69s-0.2,0.27-0.32,0.33
			c-0.11,0.06-0.23,0.09-0.34,0.09c-0.38,0-1-0.16-1.85-0.47c-0.85-0.31-1.83-0.77-2.94-1.38c-1.11-0.6-2.29-1.33-3.55-2.19
			s-2.48-1.86-3.67-3.01c-0.94,0.57-2.12,1.07-3.55,1.49c-1.43,0.42-3.09,0.63-4.99,0.63c-2.79,0-5.2-0.41-7.24-1.23
			c-2.03-0.82-3.72-2.03-5.04-3.61c-1.33-1.58-2.32-3.56-2.97-5.92c-0.65-2.36-0.97-5.07-0.97-8.12c0-2.94,0.35-5.6,1.06-7.98
			c0.71-2.38,1.77-4.4,3.18-6.08c1.41-1.67,3.18-2.96,5.3-3.87c2.12-0.91,4.59-1.36,7.42-1.36c2.65,0,4.99,0.41,7.01,1.23
			c2.02,0.82,3.71,2.02,5.07,3.6c1.37,1.58,2.39,3.52,3.08,5.83c0.69,2.31,1.03,4.97,1.03,7.97c0,1.55-0.09,3.03-0.27,4.44
			c-0.18,1.41-0.47,2.75-0.86,4.01c-0.39,1.26-0.88,2.43-1.48,3.5c-0.59,1.07-1.29,2.04-2.09,2.89c1.39,1.15,2.62,2.04,3.67,2.68
			s1.92,1.12,2.61,1.45c0.69,0.32,1.22,0.56,1.6,0.7c0.38,0.14,0.67,0.3,0.86,0.49s0.33,0.44,0.4,0.77
			C217.07,142.2,217.11,142.64,217.11,143.19z M207.37,121.27c0-2.1-0.19-4.05-0.56-5.85c-0.37-1.79-0.99-3.36-1.86-4.69
			c-0.87-1.33-2.03-2.36-3.48-3.11c-1.45-0.75-3.25-1.12-5.39-1.12s-3.94,0.4-5.39,1.19c-1.45,0.79-2.63,1.86-3.54,3.21
			c-0.91,1.35-1.56,2.91-1.95,4.69s-0.59,3.66-0.59,5.65c0,2.18,0.18,4.18,0.54,6c0.36,1.83,0.97,3.41,1.83,4.74
			s2.01,2.37,3.45,3.11s3.25,1.1,5.43,1.1c2.16,0,3.97-0.4,5.44-1.2c1.47-0.8,2.66-1.89,3.55-3.25c0.9-1.37,1.54-2.95,1.92-4.76
			C207.18,125.18,207.37,123.28,207.37,121.27z"/>
		<path d="M251.33,126.23c0,2.25-0.33,4.26-0.99,6.03c-0.66,1.77-1.6,3.26-2.82,4.48s-2.71,2.15-4.47,2.78
			c-1.76,0.63-3.75,0.95-5.99,0.95c-2.04,0-3.91-0.3-5.59-0.89c-1.68-0.59-3.12-1.47-4.33-2.62c-1.2-1.16-2.13-2.6-2.78-4.34
			c-0.65-1.74-0.97-3.74-0.97-6.02v-23.01c0-0.15,0.04-0.29,0.12-0.4c0.08-0.11,0.21-0.21,0.4-0.27c0.19-0.07,0.44-0.12,0.75-0.17
			c0.3-0.05,0.71-0.07,1.2-0.07c0.46,0,0.85,0.02,1.17,0.07c0.33,0.05,0.58,0.11,0.76,0.17c0.18,0.07,0.31,0.16,0.39,0.27
			c0.08,0.12,0.11,0.25,0.11,0.4V126c0,1.72,0.21,3.22,0.63,4.5c0.42,1.28,1.03,2.35,1.82,3.2s1.75,1.49,2.87,1.92
			c1.12,0.43,2.37,0.64,3.77,0.64c1.43,0,2.71-0.21,3.83-0.63c1.12-0.42,2.06-1.05,2.84-1.89c0.77-0.84,1.37-1.88,1.78-3.12
			c0.41-1.24,0.62-2.69,0.62-4.36v-22.67c0-0.15,0.04-0.29,0.11-0.4c0.08-0.11,0.21-0.21,0.4-0.27c0.19-0.07,0.44-0.12,0.76-0.17
			c0.31-0.05,0.71-0.07,1.19-0.07c0.46,0,0.85,0.02,1.16,0.07c0.32,0.05,0.56,0.11,0.75,0.17c0.18,0.07,0.32,0.16,0.4,0.27
			c0.09,0.12,0.13,0.25,0.13,0.4V126.23z"/>
		<path d="M294.63,120.96c0,3-0.35,5.7-1.06,8.11c-0.71,2.41-1.76,4.46-3.17,6.15c-1.4,1.69-3.17,2.99-5.29,3.9
			c-2.12,0.91-4.59,1.36-7.42,1.36c-2.79,0-5.2-0.42-7.24-1.25c-2.03-0.83-3.72-2.04-5.04-3.62c-1.33-1.58-2.32-3.55-2.97-5.9
			c-0.65-2.35-0.97-5.05-0.97-8.11c0-2.92,0.35-5.58,1.06-7.97c0.71-2.39,1.77-4.42,3.18-6.09c1.41-1.67,3.18-2.96,5.3-3.87
			c2.12-0.91,4.59-1.36,7.42-1.36c2.73,0,5.11,0.41,7.13,1.23c2.02,0.82,3.71,2.02,5.06,3.6s2.35,3.52,3.01,5.85
			S294.63,117.96,294.63,120.96z M289.41,121.3c0-2.1-0.19-4.06-0.56-5.86c-0.37-1.81-0.99-3.37-1.86-4.7
			c-0.87-1.33-2.03-2.36-3.48-3.11c-1.45-0.75-3.24-1.12-5.38-1.12s-3.93,0.4-5.38,1.2c-1.45,0.8-2.63,1.87-3.54,3.21
			c-0.91,1.34-1.55,2.9-1.95,4.69s-0.59,3.66-0.59,5.63c0,2.18,0.18,4.18,0.54,6.02c0.36,1.83,0.97,3.42,1.83,4.74
			c0.86,1.33,2.01,2.36,3.45,3.1c1.44,0.74,3.25,1.1,5.42,1.1c2.16,0,3.97-0.4,5.44-1.2c1.47-0.8,2.65-1.89,3.55-3.25
			c0.9-1.37,1.54-2.95,1.92-4.74C289.22,125.21,289.41,123.31,289.41,121.3z"/>
		<path d="M309.81,139.18c0,0.15-0.04,0.29-0.11,0.4c-0.08,0.11-0.21,0.21-0.4,0.27c-0.19,0.07-0.44,0.12-0.76,0.17
			c-0.31,0.05-0.71,0.07-1.19,0.07c-0.46,0-0.85-0.02-1.17-0.07c-0.33-0.05-0.58-0.11-0.77-0.17c-0.19-0.07-0.33-0.16-0.4-0.27
			s-0.11-0.25-0.11-0.4v-35.59c0-0.15,0.04-0.29,0.13-0.4c0.09-0.11,0.23-0.21,0.43-0.27c0.2-0.07,0.46-0.12,0.77-0.17
			c0.31-0.05,0.69-0.07,1.13-0.07c0.48,0,0.87,0.02,1.19,0.07c0.32,0.05,0.57,0.11,0.76,0.17c0.19,0.07,0.32,0.16,0.4,0.27
			c0.08,0.12,0.11,0.25,0.11,0.4V139.18z"/>
		<path d="M349.9,138.18c0.15,0.42,0.23,0.76,0.24,1.02c0.01,0.26-0.06,0.45-0.21,0.59c-0.15,0.13-0.41,0.22-0.76,0.26
			s-0.83,0.06-1.42,0.06c-0.59,0-1.06-0.01-1.42-0.04s-0.62-0.08-0.8-0.14c-0.18-0.07-0.31-0.16-0.4-0.27
			c-0.09-0.12-0.17-0.26-0.24-0.43l-3.18-9.03h-15.42l-3.04,8.91c-0.06,0.17-0.13,0.32-0.23,0.44c-0.1,0.12-0.23,0.23-0.42,0.32
			s-0.44,0.15-0.77,0.19s-0.77,0.06-1.3,0.06c-0.55,0-1.01-0.02-1.36-0.07c-0.35-0.05-0.6-0.14-0.75-0.27s-0.21-0.33-0.2-0.59
			c0.01-0.26,0.09-0.6,0.24-1.02l12.44-34.44c0.08-0.21,0.18-0.38,0.3-0.52c0.12-0.13,0.31-0.24,0.54-0.31
			c0.24-0.08,0.54-0.13,0.92-0.16c0.37-0.03,0.85-0.04,1.42-0.04c0.61,0,1.12,0.01,1.52,0.04c0.4,0.03,0.73,0.08,0.97,0.16
			s0.44,0.19,0.57,0.33s0.24,0.32,0.32,0.53L349.9,138.18z M333.94,107.78h-0.03l-6.39,18.48h12.89L333.94,107.78z"/>
	</g>
	<g>
		<path d="M144.12,64.95c0.72,0.47,1.99,0.97,3.21,0.97c1.77,0,2.6-0.89,2.6-2c0-1.17-0.69-1.81-2.49-2.48
			c-2.41-0.86-3.54-2.2-3.54-3.81c0-2.17,1.74-3.95,4.62-3.95c1.36,0,2.55,0.39,3.3,0.83l-0.61,1.78c-0.53-0.33-1.5-0.78-2.74-0.78
			c-1.44,0-2.24,0.83-2.24,1.84c0,1.11,0.8,1.61,2.55,2.28c2.33,0.89,3.52,2.06,3.52,4.06c0,2.37-1.83,4.04-5.01,4.04
			c-1.47,0-2.83-0.36-3.77-0.92L144.12,64.95z"/>
		<path d="M156.78,61.17c0.05,3.31,2.16,4.68,4.6,4.68c1.75,0,2.8-0.31,3.71-0.7l0.42,1.75c-0.86,0.39-2.33,0.83-4.46,0.83
			c-4.13,0-6.59-2.73-6.59-6.79s2.38-7.26,6.29-7.26c4.38,0,5.54,3.87,5.54,6.35c0,0.5-0.06,0.89-0.08,1.14H156.78z M163.92,59.41
			c0.03-1.56-0.64-3.98-3.38-3.98c-2.46,0-3.54,2.28-3.74,3.98H163.92z"/>
		<path d="M178.43,65.37h-0.06c-0.72,1.34-2.22,2.39-4.38,2.39c-3.13,0-5.68-2.73-5.68-6.82c0-5.04,3.24-7.26,6.07-7.26
			c2.08,0,3.46,1.03,4.13,2.34h0.05l0.08-2.03h2.3c-0.05,1.14-0.08,2.31-0.08,3.7v15.28h-2.44V65.37z M178.43,59.44
			c0-0.33-0.03-0.72-0.11-1.03c-0.36-1.5-1.66-2.78-3.49-2.78c-2.52,0-4.04,2.14-4.04,5.18c0,2.67,1.27,5.01,3.96,5.01
			c1.58,0,2.94-0.97,3.49-2.67c0.11-0.33,0.19-0.81,0.19-1.17V59.44z"/>
		<path d="M196.1,63.78c0,1.39,0.03,2.62,0.11,3.67h-2.16l-0.14-2.2h-0.06c-0.64,1.09-2.05,2.5-4.43,2.5c-2.1,0-4.62-1.17-4.62-5.9
			v-7.88h2.44v7.46c0,2.56,0.78,4.29,2.99,4.29c1.63,0,2.77-1.14,3.21-2.23c0.14-0.36,0.22-0.81,0.22-1.25v-8.27h2.44V63.78z"/>
		<path d="M212.27,60.61c0,4.98-3.43,7.15-6.67,7.15c-3.63,0-6.43-2.67-6.43-6.93c0-4.51,2.94-7.15,6.65-7.15
			C209.67,53.68,212.27,56.49,212.27,60.61z M201.64,60.75c0,2.95,1.69,5.18,4.07,5.18c2.33,0,4.07-2.2,4.07-5.23
			c0-2.28-1.14-5.18-4.02-5.18S201.64,58.19,201.64,60.75z"/>
		<path d="M218.06,50.2c0.03,0.83-0.58,1.5-1.55,1.5c-0.86,0-1.47-0.67-1.47-1.5c0-0.86,0.64-1.53,1.52-1.53
			C217.48,48.67,218.06,49.34,218.06,50.2z M215.34,67.46V53.99h2.44v13.47H215.34z"/>
		<path d="M229.24,67.46l-0.19-1.7h-0.08c-0.75,1.06-2.19,2-4.1,2c-2.71,0-4.1-1.92-4.1-3.87c0-3.26,2.88-5.04,8.06-5.01v-0.28
			c0-1.11-0.3-3.12-3.05-3.12c-1.25,0-2.55,0.39-3.49,1l-0.55-1.61c1.11-0.72,2.71-1.2,4.4-1.2c4.1,0,5.1,2.81,5.1,5.51v5.04
			c0,1.17,0.05,2.31,0.22,3.23H229.24z M228.88,60.58c-2.66-0.06-5.68,0.42-5.68,3.03c0,1.59,1.05,2.34,2.3,2.34
			c1.75,0,2.85-1.11,3.24-2.25c0.08-0.25,0.14-0.53,0.14-0.78V60.58z"/>
		<path d="M234.59,66.01c0-1.03,0.69-1.75,1.66-1.75s1.63,0.72,1.63,1.75c0,1-0.64,1.75-1.66,1.75
			C235.25,67.76,234.59,67.01,234.59,66.01z"/>
		<path class="st0" d="M242.26,61.17c0.06,3.31,2.16,4.68,4.6,4.68c1.74,0,2.8-0.31,3.71-0.7l0.42,1.75
			c-0.86,0.39-2.33,0.83-4.46,0.83c-4.13,0-6.59-2.73-6.59-6.79s2.38-7.26,6.29-7.26c4.38,0,5.54,3.87,5.54,6.35
			c0,0.5-0.05,0.89-0.08,1.14H242.26z M249.4,59.41c0.03-1.56-0.64-3.98-3.38-3.98c-2.46,0-3.54,2.28-3.74,3.98H249.4z"/>
		<path class="st0" d="M255.83,53.99l1.91,2.89c0.5,0.75,0.91,1.45,1.36,2.2h0.08c0.44-0.81,0.89-1.5,1.33-2.23l1.88-2.87h2.63
			l-4.57,6.51l4.71,6.96h-2.77l-1.97-3.03c-0.53-0.78-0.97-1.53-1.44-2.34h-0.06c-0.44,0.81-0.91,1.53-1.41,2.34l-1.94,3.03h-2.69
			l4.76-6.87l-4.54-6.6H255.83z"/>
		<path class="st0" d="M276.65,66.95c-0.64,0.33-2.05,0.78-3.85,0.78c-4.04,0-6.67-2.76-6.67-6.87c0-4.15,2.83-7.15,7.2-7.15
			c1.44,0,2.71,0.36,3.38,0.7l-0.55,1.89c-0.58-0.33-1.5-0.64-2.82-0.64c-3.07,0-4.74,2.28-4.74,5.09c0,3.12,1.99,5.04,4.65,5.04
			c1.38,0,2.3-0.36,2.99-0.67L276.65,66.95z"/>
		<path class="st0" d="M279.5,47.7h2.44v8.41H282c0.39-0.7,1-1.31,1.74-1.73c0.72-0.42,1.58-0.7,2.49-0.7c1.8,0,4.68,1.11,4.68,5.76
			v8.02h-2.44v-7.74c0-2.17-0.8-4.01-3.1-4.01c-1.58,0-2.83,1.11-3.27,2.45c-0.14,0.33-0.17,0.7-0.17,1.17v8.13h-2.44V47.7z"/>
		<path class="st0" d="M302.29,67.46l-0.19-1.7h-0.08c-0.75,1.06-2.19,2-4.1,2c-2.71,0-4.1-1.92-4.1-3.87
			c0-3.26,2.88-5.04,8.06-5.01v-0.28c0-1.11-0.3-3.12-3.05-3.12c-1.25,0-2.55,0.39-3.49,1l-0.55-1.61c1.11-0.72,2.71-1.2,4.4-1.2
			c4.1,0,5.1,2.81,5.1,5.51v5.04c0,1.17,0.06,2.31,0.22,3.23H302.29z M301.93,60.58c-2.66-0.06-5.68,0.42-5.68,3.03
			c0,1.59,1.05,2.34,2.3,2.34c1.74,0,2.85-1.11,3.24-2.25c0.08-0.25,0.14-0.53,0.14-0.78V60.58z"/>
		<path class="st0" d="M308.22,57.63c0-1.39-0.03-2.53-0.11-3.65h2.16l0.14,2.23h0.06c0.66-1.28,2.21-2.53,4.43-2.53
			c1.86,0,4.74,1.11,4.74,5.73v8.04h-2.44v-7.77c0-2.17-0.8-3.98-3.1-3.98c-1.61,0-2.85,1.14-3.27,2.5
			c-0.11,0.31-0.17,0.72-0.17,1.14v8.1h-2.44V57.63z"/>
		<path class="st0" d="M335.14,53.99c-0.06,0.97-0.11,2.06-0.11,3.7v7.82c0,3.09-0.61,4.98-1.91,6.15c-1.3,1.22-3.19,1.61-4.88,1.61
			c-1.61,0-3.38-0.39-4.46-1.11l0.61-1.86c0.89,0.56,2.27,1.06,3.93,1.06c2.49,0,4.32-1.31,4.32-4.7v-1.5h-0.05
			c-0.75,1.25-2.19,2.25-4.27,2.25c-3.32,0-5.71-2.84-5.71-6.57c0-4.56,2.96-7.15,6.04-7.15c2.33,0,3.6,1.22,4.18,2.34h0.06
			l0.11-2.03H335.14z M332.62,59.3c0-0.42-0.03-0.78-0.14-1.11c-0.44-1.42-1.63-2.59-3.41-2.59c-2.33,0-3.99,1.98-3.99,5.09
			c0,2.64,1.33,4.84,3.96,4.84c1.5,0,2.85-0.95,3.38-2.5c0.14-0.42,0.19-0.89,0.19-1.31V59.3z"/>
		<path class="st0" d="M340.42,61.17c0.06,3.31,2.16,4.68,4.6,4.68c1.74,0,2.8-0.31,3.71-0.7l0.42,1.75
			c-0.86,0.39-2.33,0.83-4.46,0.83c-4.13,0-6.59-2.73-6.59-6.79s2.38-7.26,6.29-7.26c4.38,0,5.54,3.87,5.54,6.35
			c0,0.5-0.05,0.89-0.08,1.14H340.42z M347.57,59.41c0.03-1.56-0.64-3.98-3.38-3.98c-2.46,0-3.54,2.28-3.74,3.98H347.57z"/>
	</g>
	<g>
		<polygon class="st0" points="128.49,59.99 128.49,53.98 126.99,53.98 126.99,59.99 126.99,60.4 125.49,61.9 125.49,53.98 
			123.99,53.98 123.99,62.99 123.99,63.4 122.49,64.9 122.49,53.98 120.98,53.98 120.98,66.4 119.48,67.91 119.48,69 120.51,69 
			122.01,67.5 134.5,67.5 134.5,66 123.52,66 125.02,64.49 125.49,64.49 134.5,64.49 134.5,62.99 126.52,62.99 128.02,61.49 
			128.49,61.49 134.5,61.49 134.5,59.99 128.5,59.99 		"/>
		<rect x="130" y="53.98" class="st0" width="4.5" height="4.5"/>
	</g>
</g>
</svg>
