<?xml version="1.0" encoding="utf-8"?>
<!-- Generator: Adobe Illustrator 26.0.1, SVG Export Plug-In . SVG Version: 6.00 Build 0)  -->
<svg version="1.1" id="Слой_1" xmlns="http://www.w3.org/2000/svg" xmlns:xlink="http://www.w3.org/1999/xlink" x="0px" y="0px"
	 viewBox="0 0 1453.08 145" style="enable-background:new 0 0 1453.08 145;" xml:space="preserve">
<style type="text/css">
	.st0{fill:#2D2D2D;}
</style>
<g>
	<path class="st0" d="M45.84,97.77c3.87,2.54,10.72,5.24,17.27,5.24c9.53,0,14-4.79,14-10.78c0-6.29-3.72-9.73-13.4-13.32
		C50.75,74.27,44.65,67.08,44.65,58.4c0-11.67,9.38-21.25,24.87-21.25c7.3,0,13.7,2.1,17.72,4.49l-3.28,9.58
		c-2.83-1.8-8.04-4.19-14.74-4.19c-7.74,0-12.06,4.49-12.06,9.88c0,5.99,4.32,8.68,13.7,12.27c12.51,4.79,18.91,11.08,18.91,21.85
		c0,12.72-9.83,21.7-26.95,21.7c-7.89,0-15.19-1.95-20.25-4.94L45.84,97.77z"/>
	<path class="st0" d="M113.88,77.41c0.3,17.81,11.61,25.14,24.72,25.14c9.38,0,15.04-1.65,19.95-3.74l2.23,9.43
		c-4.62,2.1-12.51,4.49-23.97,4.49c-22.18,0-35.44-14.67-35.44-36.52c0-21.85,12.8-39.06,33.8-39.06c23.53,0,29.78,20.8,29.78,34.13
		c0,2.69-0.3,4.79-0.45,6.14H113.88z M152.3,67.98c0.15-8.38-3.42-21.4-18.17-21.4c-13.25,0-19.06,12.27-20.1,21.4H152.3z"/>
	<path class="st0" d="M230.32,100.01h-0.3c-3.87,7.18-11.91,12.87-23.53,12.87c-16.83,0-30.52-14.67-30.52-36.67
		c0-27.09,17.42-39.06,32.61-39.06c11.17,0,18.61,5.54,22.19,12.57h0.3l0.45-10.93h12.36c-0.3,6.14-0.45,12.42-0.45,19.91v82.17
		h-13.1V100.01z M230.32,68.13c0-1.8-0.15-3.89-0.6-5.54c-1.94-8.08-8.93-14.97-18.76-14.97c-13.55,0-21.74,11.52-21.74,27.84
		c0,14.37,6.85,26.94,21.29,26.94c8.49,0,15.78-5.24,18.76-14.37c0.59-1.8,1.04-4.34,1.04-6.29V68.13z"/>
	<path class="st0" d="M325.31,91.48c0,7.48,0.15,14.07,0.6,19.76H314.3l-0.74-11.82h-0.3c-3.42,5.84-11.02,13.47-23.82,13.47
		c-11.32,0-24.87-6.29-24.87-31.73V38.8h13.1v40.11c0,13.77,4.17,23.05,16.08,23.05c8.78,0,14.89-6.14,17.27-11.97
		c0.74-1.95,1.19-4.34,1.19-6.74V38.8h13.1V91.48z"/>
	<path class="st0" d="M412.27,74.42c0,26.79-18.46,38.47-35.88,38.47c-19.51,0-34.54-14.37-34.54-37.27
		c0-24.25,15.78-38.47,35.73-38.47C398.27,37.15,412.27,52.27,412.27,74.42z M355.1,75.17c0,15.87,9.08,27.84,21.89,27.84
		c12.51,0,21.89-11.82,21.89-28.14c0-12.27-6.1-27.84-21.59-27.84C361.8,47.03,355.1,61.4,355.1,75.17z"/>
	<path class="st0" d="M443.39,18.44c0.15,4.49-3.13,8.08-8.34,8.08c-4.62,0-7.89-3.59-7.89-8.08c0-4.64,3.42-8.23,8.19-8.23
		C440.26,10.21,443.39,13.8,443.39,18.44z M428.8,111.24V38.8h13.1v72.44H428.8z"/>
	<path class="st0" d="M503.54,111.24l-1.04-9.13h-0.45c-4.02,5.69-11.76,10.78-22.04,10.78c-14.59,0-22.04-10.33-22.04-20.8
		c0-17.51,15.49-27.09,43.33-26.94v-1.5c0-5.99-1.64-16.76-16.38-16.76c-6.7,0-13.7,2.1-18.76,5.39l-2.98-8.68
		c5.96-3.89,14.59-6.44,23.67-6.44c22.04,0,27.4,15.12,27.4,29.64v27.09c0,6.29,0.3,12.42,1.19,17.36H503.54z M501.61,74.27
		c-14.29-0.3-30.52,2.25-30.52,16.31c0,8.53,5.66,12.57,12.36,12.57c9.38,0,15.34-5.99,17.42-12.12c0.45-1.35,0.75-2.84,0.75-4.19
		V74.27z"/>
	<path class="st0" d="M542.7,77.41c0.3,17.81,11.61,25.14,24.72,25.14c9.38,0,15.04-1.65,19.95-3.74l2.23,9.43
		c-4.62,2.1-12.51,4.49-23.97,4.49c-22.18,0-35.44-14.67-35.44-36.52c0-21.85,12.8-39.06,33.8-39.06c23.53,0,29.78,20.8,29.78,34.13
		c0,2.69-0.3,4.79-0.45,6.14H542.7z M581.12,67.98c0.15-8.38-3.42-21.4-18.17-21.4c-13.25,0-19.06,12.27-20.1,21.4H581.12z"/>
	<path class="st0" d="M615.66,38.8l10.27,15.57c2.68,4.04,4.91,7.78,7.3,11.82h0.45c2.38-4.34,4.76-8.08,7.15-11.97l10.12-15.42
		h14.14l-24.57,35.02l25.31,37.42h-14.89l-10.57-16.31c-2.83-4.19-5.21-8.23-7.74-12.57h-0.3c-2.38,4.34-4.91,8.23-7.59,12.57
		l-10.42,16.31h-14.44l25.61-36.97L601.07,38.8H615.66z"/>
	<path class="st0" d="M727.63,108.54c-3.42,1.8-11.02,4.19-20.7,4.19c-21.74,0-35.88-14.82-35.88-36.97
		c0-22.3,15.19-38.47,38.71-38.47c7.74,0,14.59,1.95,18.17,3.74l-2.98,10.18c-3.13-1.8-8.04-3.44-15.19-3.44
		c-16.53,0-25.46,12.27-25.46,27.39c0,16.76,10.72,27.09,25.01,27.09c7.45,0,12.36-1.95,16.08-3.59L727.63,108.54z"/>
	<path class="st0" d="M742.97,4.97h13.1v45.2h0.3c2.08-3.74,5.36-7.03,9.38-9.28c3.87-2.25,8.49-3.74,13.4-3.74
		c9.68,0,25.16,5.99,25.16,30.98v43.11h-13.1V69.63c0-11.67-4.32-21.55-16.68-21.55c-8.49,0-15.19,5.99-17.57,13.17
		c-0.74,1.8-0.89,3.74-0.89,6.29v43.7h-13.1V4.97z"/>
	<path class="st0" d="M865.51,111.24l-1.04-9.13h-0.45c-4.02,5.69-11.76,10.78-22.04,10.78c-14.59,0-22.04-10.33-22.04-20.8
		c0-17.51,15.49-27.09,43.33-26.94v-1.5c0-5.99-1.64-16.76-16.38-16.76c-6.7,0-13.7,2.1-18.76,5.39l-2.98-8.68
		c5.96-3.89,14.59-6.44,23.67-6.44c22.04,0,27.4,15.12,27.4,29.64v27.09c0,6.29,0.3,12.42,1.19,17.36H865.51z M863.58,74.27
		c-14.29-0.3-30.52,2.25-30.52,16.31c0,8.53,5.66,12.57,12.36,12.57c9.38,0,15.34-5.99,17.42-12.12c0.45-1.35,0.75-2.84,0.75-4.19
		V74.27z"/>
	<path class="st0" d="M897.38,58.4c0-7.48-0.15-13.62-0.6-19.61h11.61l0.74,11.97h0.3c3.57-6.88,11.91-13.62,23.82-13.62
		c9.98,0,25.46,5.99,25.46,30.83v43.26h-13.1V69.48c0-11.67-4.32-21.4-16.68-21.4c-8.64,0-15.34,6.14-17.57,13.47
		c-0.6,1.65-0.89,3.89-0.89,6.14v43.56h-13.1V58.4z"/>
	<path class="st0" d="M1042.1,38.8c-0.3,5.24-0.6,11.08-0.6,19.91v42.06c0,16.61-3.28,26.79-10.27,33.08
		c-7,6.59-17.12,8.68-26.21,8.68c-8.64,0-18.17-2.09-23.97-5.99l3.28-10.03c4.76,2.99,12.21,5.69,21.14,5.69
		c13.4,0,23.23-7.04,23.23-25.29v-8.08h-0.3c-4.02,6.74-11.76,12.12-22.93,12.12c-17.87,0-30.67-15.27-30.67-35.32
		c0-24.55,15.93-38.47,32.46-38.47c12.51,0,19.36,6.59,22.48,12.57h0.3l0.6-10.93H1042.1z M1028.55,67.38
		c0-2.25-0.15-4.19-0.74-5.99c-2.38-7.63-8.79-13.92-18.31-13.92c-12.51,0-21.44,10.63-21.44,27.39c0,14.22,7.15,26.04,21.29,26.04
		c8.04,0,15.34-5.09,18.17-13.47c0.74-2.25,1.04-4.79,1.04-7.03V67.38z"/>
	<path class="st0" d="M1070.54,77.41c0.3,17.81,11.61,25.14,24.72,25.14c9.38,0,15.04-1.65,19.95-3.74l2.23,9.43
		c-4.62,2.1-12.51,4.49-23.97,4.49c-22.18,0-35.44-14.67-35.44-36.52c0-21.85,12.8-39.06,33.8-39.06c23.53,0,29.78,20.8,29.78,34.13
		c0,2.69-0.3,4.79-0.45,6.14H1070.54z M1108.96,67.98c0.15-8.38-3.42-21.4-18.17-21.4c-13.25,0-19.06,12.27-20.1,21.4H1108.96z"/>
	<path class="st0" d="M1132.93,103.45c0-5.54,3.72-9.43,8.93-9.43c5.21,0,8.78,3.89,8.78,9.43c0,5.39-3.42,9.43-8.93,9.43
		C1136.5,112.88,1132.93,108.84,1132.93,103.45z"/>
	<path class="st0" d="M1218.24,108.54c-3.42,1.8-11.02,4.19-20.7,4.19c-21.74,0-35.88-14.82-35.88-36.97
		c0-22.3,15.19-38.47,38.71-38.47c7.74,0,14.59,1.95,18.17,3.74l-2.98,10.18c-3.13-1.8-8.04-3.44-15.19-3.44
		c-16.53,0-25.46,12.27-25.46,27.39c0,16.76,10.72,27.09,25.01,27.09c7.45,0,12.36-1.95,16.08-3.59L1218.24,108.54z"/>
	<path class="st0" d="M1297.9,74.42c0,26.79-18.46,38.47-35.88,38.47c-19.51,0-34.54-14.37-34.54-37.27
		c0-24.25,15.78-38.47,35.73-38.47C1283.91,37.15,1297.9,52.27,1297.9,74.42z M1240.73,75.17c0,15.87,9.08,27.84,21.89,27.84
		c12.51,0,21.89-11.82,21.89-28.14c0-12.27-6.1-27.84-21.59-27.84C1247.43,47.03,1240.73,61.4,1240.73,75.17z"/>
	<path class="st0" d="M1314.43,58.4c0-7.48-0.15-13.62-0.6-19.61h11.46l0.6,11.67h0.45c4.02-6.88,10.72-13.32,22.63-13.32
		c9.83,0,17.27,5.99,20.4,14.52h0.3c2.23-4.04,5.06-7.18,8.04-9.43c4.32-3.29,9.08-5.09,15.93-5.09c9.53,0,23.67,6.29,23.67,31.43
		v42.66h-12.8V70.23c0-13.92-5.06-22.3-15.63-22.3c-7.45,0-13.25,5.54-15.49,11.97c-0.6,1.8-1.04,4.19-1.04,6.59v44.75h-12.81V67.83
		c0-11.52-5.06-19.91-15.04-19.91c-8.19,0-14.15,6.59-16.23,13.17c-0.75,1.95-1.04,4.19-1.04,6.44v43.7h-12.81V58.4z"/>
</g>
</svg>
