<?xml version="1.0" encoding="utf-8"?>
<!-- Generator: Adobe Illustrator 28.3.0, SVG Export Plug-In . SVG Version: 6.00 Build 0)  -->
<svg version="1.1" id="Слой_1" xmlns="http://www.w3.org/2000/svg" xmlns:xlink="http://www.w3.org/1999/xlink" x="0px" y="0px"
	 viewBox="0 0 1435.8 133.3" style="enable-background:new 0 0 1435.8 133.3;" xml:space="preserve">
<style type="text/css">
	.st0{fill:#FBB03B;}
</style>
<g>
	<g>
		<path class="st0" d="M182.1,100.4c-3.3,1.7-10.7,4.1-20.1,4.1c-21.1,0-34.8-14.4-34.8-35.8c0-21.6,14.7-37.3,37.5-37.3
			c7.5,0,14.1,1.9,17.6,3.6l-2.9,9.9c-3-1.7-7.8-3.3-14.7-3.3c-16,0-24.7,11.9-24.7,26.5c0,16.2,10.4,26.2,24.2,26.2
			c7.2,0,12-1.9,15.6-3.5L182.1,100.4z"/>
		<path class="st0" d="M203.2,70.2c0.3,17.3,11.2,24.4,23.9,24.4c9.1,0,14.6-1.6,19.3-3.6l2.2,9.1c-4.5,2-12.1,4.3-23.2,4.3
			c-21.5,0-34.3-14.2-34.3-35.4s12.4-37.9,32.8-37.9c22.8,0,28.9,20.2,28.9,33.1c0,2.6-0.3,4.6-0.4,5.9H203.2z M240.4,61.1
			c0.1-8.1-3.3-20.7-17.6-20.7c-12.8,0-18.5,11.9-19.5,20.7H240.4z"/>
		<path class="st0" d="M273.9,32.8l10,15.1c2.6,3.9,4.8,7.5,7.1,11.5h0.4c2.3-4.2,4.6-7.8,6.9-11.6l9.8-14.9h13.7L298,66.7
			l24.5,36.3h-14.4l-10.2-15.8c-2.7-4.1-5-8-7.5-12.2h-0.3c-2.3,4.2-4.8,8-7.4,12.2L272.6,103h-14l24.8-35.8l-23.7-34.4L273.9,32.8
			L273.9,32.8z"/>
		<path d="M331.8,95.4c0-5.4,3.6-9.1,8.7-9.1s8.5,3.8,8.5,9.1c0,5.2-3.3,9.1-8.7,9.1C335.2,104.6,331.8,100.7,331.8,95.4z"/>
		<path d="M362.9,89.9c3.8,2.5,10.4,5.1,16.7,5.1c9.2,0,13.6-4.6,13.6-10.4c0-6.1-3.6-9.4-13-12.9c-12.5-4.5-18.5-11.5-18.5-19.9
			c0-11.3,9.1-20.6,24.1-20.6c7.1,0,13.3,2,17.2,4.3l-3.2,9.3c-2.7-1.7-7.8-4.1-14.3-4.1c-7.5,0-11.7,4.3-11.7,9.6
			c0,5.8,4.2,8.4,13.3,11.9c12.1,4.6,18.3,10.7,18.3,21.2c0,12.3-9.5,21-26.1,21c-7.6,0-14.7-1.9-19.6-4.8L362.9,89.9z"/>
		<path d="M428.9,70.2c0.3,17.3,11.2,24.4,24,24.4c9.1,0,14.6-1.6,19.3-3.6l2.2,9.1c-4.5,2-12.1,4.3-23.2,4.3
			c-21.5,0-34.3-14.2-34.3-35.4s12.4-37.9,32.8-37.9c22.8,0,28.9,20.2,28.9,33.1c0,2.6-0.3,4.6-0.4,5.9H428.9z M466.1,61.1
			c0.1-8.1-3.3-20.7-17.6-20.7c-12.8,0-18.5,11.9-19.5,20.7H466.1z"/>
		<path d="M541.7,92.1h-0.3c-3.8,7-11.5,12.5-22.8,12.5c-16.3,0-29.6-14.2-29.6-35.5c0-26.2,16.9-37.9,31.6-37.9
			c10.8,0,18,5.4,21.5,12.2h0.3l0.4-10.6h12c-0.3,6-0.4,12-0.4,19.3v79.6h-12.7V92.1z M541.7,61.2c0-1.7-0.1-3.8-0.6-5.4
			c-1.9-7.8-8.7-14.5-18.2-14.5c-13.1,0-21.1,11.2-21.1,27c0,13.9,6.6,26.1,20.6,26.1c8.2,0,15.3-5.1,18.2-13.9c0.6-1.7,1-4.2,1-6.1
			L541.7,61.2L541.7,61.2z"/>
		<path d="M633.7,83.8c0,7.2,0.1,13.6,0.6,19.2h-11.2l-0.7-11.5h-0.3c-3.3,5.7-10.7,13.1-23.1,13.1c-11,0-24.1-6.1-24.1-30.8v-41
			h12.7v38.9c0,13.3,4,22.3,15.6,22.3c8.5,0,14.4-5.9,16.7-11.6c0.7-1.9,1.2-4.2,1.2-6.5V32.8h12.7L633.7,83.8L633.7,83.8z"/>
		<path d="M718,67.3c0,26-17.9,37.3-34.8,37.3c-18.9,0-33.5-13.9-33.5-36.1c0-23.5,15.3-37.3,34.6-37.3
			C704.4,31.2,718,45.8,718,67.3z M662.6,68c0,15.4,8.8,27,21.2,27c12.1,0,21.2-11.5,21.2-27.3c0-11.9-5.9-27-20.9-27
			S662.6,54.7,662.6,68z"/>
		<path d="M748.2,13.1c0.1,4.4-3,7.8-8.1,7.8c-4.5,0-7.7-3.5-7.7-7.8c0-4.5,3.3-8,7.9-8C745.1,5.1,748.2,8.6,748.2,13.1z M734,103
			V32.8h12.7V103H734z"/>
		<path d="M806.5,103l-1-8.8H805c-3.9,5.5-11.4,10.4-21.3,10.4c-14.1,0-21.3-10-21.3-20.2c0-17,15-26.2,42-26.1v-1.4
			c0-5.8-1.6-16.2-15.9-16.2c-6.5,0-13.3,2-18.2,5.2l-2.9-8.4c5.8-3.8,14.1-6.2,22.9-6.2c21.3,0,26.5,14.7,26.5,28.7v26.2
			c0,6.1,0.3,12,1.2,16.8L806.5,103L806.5,103z M804.6,67.1C790.7,66.9,775,69.3,775,83c0,8.3,5.5,12.2,12,12.2
			c9.1,0,14.9-5.8,16.9-11.8c0.4-1.3,0.7-2.8,0.7-4.1L804.6,67.1L804.6,67.1z"/>
		<path d="M834.3,95.4c0-5.4,3.6-9.1,8.7-9.1s8.5,3.8,8.5,9.1c0,5.2-3.3,9.1-8.7,9.1C837.8,104.6,834.3,100.7,834.3,95.4z"/>
		<path class="st0" d="M874.3,70.2c0.3,17.3,11.2,24.4,24,24.4c9.1,0,14.6-1.6,19.3-3.6l2.2,9.1c-4.5,2-12.1,4.3-23.2,4.3
			c-21.5,0-34.3-14.2-34.3-35.4s12.4-37.9,32.8-37.9c22.8,0,28.9,20.2,28.9,33.1c0,2.6-0.3,4.6-0.4,5.9H874.3z M911.5,61.1
			c0.1-8.1-3.3-20.7-17.6-20.7c-12.8,0-18.5,11.9-19.5,20.7H911.5z"/>
		<path class="st0" d="M945,32.8l10,15.1c2.6,3.9,4.8,7.5,7.1,11.5h0.4c2.3-4.2,4.6-7.8,6.9-11.6l9.8-14.9h13.7l-23.8,33.9
			l24.5,36.3h-14.4l-10.2-15.8c-2.7-4.1-5-8-7.5-12.2h-0.3c-2.3,4.2-4.8,8-7.4,12.2L943.7,103h-14l24.8-35.8l-23.7-34.4L945,32.8
			L945,32.8z"/>
		<path class="st0" d="M1053.5,100.4c-3.3,1.7-10.7,4.1-20.1,4.1c-21.1,0-34.8-14.4-34.8-35.8c0-21.6,14.7-37.3,37.5-37.3
			c7.5,0,14.1,1.9,17.6,3.6l-2.9,9.9c-3-1.7-7.8-3.3-14.7-3.3c-16,0-24.7,11.9-24.7,26.5c0,16.2,10.4,26.2,24.2,26.2
			c7.2,0,12-1.9,15.6-3.5L1053.5,100.4z"/>
		<path class="st0" d="M1068.3,0h12.7v43.8h0.3c2-3.6,5.2-6.8,9.1-9c3.8-2.2,8.2-3.6,13-3.6c9.4,0,24.4,5.8,24.4,30V103h-12.7V62.7
			c0-11.3-4.2-20.9-16.2-20.9c-8.2,0-14.7,5.8-17,12.8c-0.7,1.7-0.9,3.6-0.9,6.1V103h-12.7L1068.3,0L1068.3,0z"/>
		<path class="st0" d="M1187.1,103l-1-8.8h-0.4c-3.9,5.5-11.4,10.4-21.3,10.4c-14.1,0-21.3-10-21.3-20.2c0-17,15-26.2,42-26.1v-1.4
			c0-5.8-1.6-16.2-15.9-16.2c-6.5,0-13.3,2-18.2,5.2l-2.9-8.4c5.8-3.8,14.1-6.2,22.9-6.2c21.3,0,26.6,14.7,26.6,28.7v26.2
			c0,6.1,0.3,12,1.2,16.8L1187.1,103L1187.1,103z M1185.2,67.1c-13.8-0.3-29.6,2.2-29.6,15.8c0,8.3,5.5,12.2,12,12.2
			c9.1,0,14.9-5.8,16.9-11.8c0.4-1.3,0.7-2.8,0.7-4.1V67.1z"/>
		<path class="st0" d="M1218,51.8c0-7.2-0.1-13.2-0.6-19h11.2l0.7,11.6h0.3c3.5-6.7,11.5-13.2,23.1-13.2c9.7,0,24.7,5.8,24.7,29.9
			V103h-12.7V62.5c0-11.3-4.2-20.7-16.2-20.7c-8.4,0-14.9,6-17,13.1c-0.6,1.6-0.9,3.8-0.9,5.9V103h-12.7L1218,51.8L1218,51.8z"/>
		<path class="st0" d="M1358.2,32.8c-0.3,5.1-0.6,10.7-0.6,19.3v40.8c0,16.1-3.2,26-10,32.1c-6.8,6.4-16.6,8.4-25.4,8.4
			c-8.4,0-17.6-2-23.2-5.8l3.2-9.7c4.6,2.9,11.8,5.5,20.5,5.5c13,0,22.5-6.8,22.5-24.5v-7.8h-0.3c-3.9,6.5-11.4,11.8-22.2,11.8
			c-17.3,0-29.7-14.8-29.7-34.2c0-23.8,15.4-37.3,31.4-37.3c12.1,0,18.8,6.4,21.8,12.2h0.3l0.6-10.6L1358.2,32.8L1358.2,32.8z
			 M1345.1,60.5c0-2.2-0.1-4.1-0.7-5.8c-2.3-7.4-8.5-13.5-17.8-13.5c-12.1,0-20.8,10.3-20.8,26.5c0,13.8,6.9,25.2,20.6,25.2
			c7.8,0,14.9-4.9,17.6-13.1c0.7-2.2,1-4.6,1-6.8L1345.1,60.5L1345.1,60.5z"/>
		<path class="st0" d="M1385.8,70.2c0.3,17.3,11.2,24.4,23.9,24.4c9.1,0,14.6-1.6,19.3-3.6l2.2,9.1c-4.5,2-12.1,4.3-23.2,4.3
			c-21.5,0-34.3-14.2-34.3-35.4s12.4-37.9,32.8-37.9c22.8,0,28.9,20.2,28.9,33.1c0,2.6-0.3,4.6-0.4,5.9H1385.8z M1423,61.1
			c0.1-8.1-3.3-20.7-17.6-20.7c-12.8,0-18.5,11.9-19.5,20.7H1423z"/>
	</g>
	<g>
		<g>
			<polygon class="st0" points="48.4,64.8 48.4,32.5 40.4,32.5 40.4,64.8 40.4,67 32.3,75.1 32.3,32.5 24.2,32.5 24.2,81 24.2,83.2 
				16.1,91.2 16.1,32.5 8.1,32.5 8.1,99.3 0,107.4 0,113.3 5.5,113.3 13.6,105.2 80.7,105.2 80.7,97.1 21.7,97.1 29.7,89 32.3,89 
				80.7,89 80.7,81 37.8,81 45.9,72.9 48.4,72.9 80.7,72.9 80.7,64.8 48.5,64.8 			"/>
			<rect x="56.5" y="32.5" class="st0" width="24.2" height="24.2"/>
		</g>
	</g>
</g>
</svg>
