<?xml version="1.0" encoding="utf-8"?>
<!-- Generator: Adobe Illustrator 26.0.1, SVG Export Plug-In . SVG Version: 6.00 Build 0)  -->
<svg version="1.1" id="Слой_1" xmlns="http://www.w3.org/2000/svg" xmlns:xlink="http://www.w3.org/1999/xlink" x="0px" y="0px"
	 viewBox="0 0 1436.6 136.4" style="enable-background:new 0 0 1436.6 136.4;" xml:space="preserve">
<g>
	<g>
		<path d="M182.6,102.1c-3.3,1.7-10.7,4.1-20.1,4.1c-21.1,0-34.8-14.4-34.8-35.8c0-21.6,14.7-37.3,37.5-37.3
			c7.5,0,14.1,1.9,17.6,3.6l-2.9,9.9c-3-1.7-7.8-3.3-14.7-3.3c-16,0-24.7,11.9-24.7,26.5c0,16.2,10.4,26.2,24.2,26.2
			c7.2,0,12-1.9,15.6-3.5L182.6,102.1z"/>
		<path d="M203.6,71.9c0.3,17.3,11.2,24.4,23.9,24.4c9.1,0,14.6-1.6,19.3-3.6l2.2,9.1c-4.5,2-12.1,4.3-23.2,4.3
			c-21.5,0-34.3-14.2-34.3-35.4s12.4-37.9,32.8-37.9c22.8,0,28.9,20.2,28.9,33.1c0,2.6-0.3,4.6-0.4,5.9L203.6,71.9L203.6,71.9z
			 M240.9,62.8c0.1-8.1-3.3-20.7-17.6-20.7c-12.8,0-18.5,11.9-19.5,20.7H240.9z"/>
		<path d="M274.3,34.5l10,15.1c2.6,3.9,4.8,7.5,7.1,11.5h0.4c2.3-4.2,4.6-7.8,6.9-11.6l9.8-14.9h13.7l-23.8,33.8l24.5,36.3h-14.4
			l-10.2-15.8c-2.7-4.1-5-8-7.5-12.2h-0.3c-2.3,4.2-4.8,8-7.4,12.2L273,104.7h-14l24.8-35.8l-23.7-34.4L274.3,34.5L274.3,34.5z"/>
		<path d="M332.2,97.1c0-5.4,3.6-9.1,8.7-9.1s8.5,3.8,8.5,9.1c0,5.2-3.3,9.1-8.7,9.1C335.6,106.3,332.2,102.4,332.2,97.1z"/>
		<path d="M363.4,91.6c3.8,2.5,10.4,5.1,16.7,5.1c9.2,0,13.6-4.6,13.6-10.4c0-6.1-3.6-9.4-13-12.9c-12.5-4.5-18.5-11.5-18.5-19.9
			c0-11.3,9.1-20.6,24.1-20.6c7.1,0,13.3,2,17.2,4.3l-3.2,9.3c-2.7-1.7-7.8-4.1-14.3-4.1c-7.5,0-11.7,4.3-11.7,9.6
			c0,5.8,4.2,8.4,13.3,11.9c12.1,4.6,18.3,10.7,18.3,21.2c0,12.3-9.5,21-26.1,21c-7.6,0-14.7-1.9-19.6-4.8L363.4,91.6z"/>
		<path d="M429.3,71.9c0.3,17.3,11.2,24.4,24,24.4c9.1,0,14.6-1.6,19.3-3.6l2.2,9.1c-4.5,2-12.1,4.3-23.2,4.3
			c-21.5,0-34.3-14.2-34.3-35.4s12.4-37.9,32.8-37.9c22.8,0,28.9,20.2,28.9,33.1c0,2.6-0.3,4.6-0.4,5.9L429.3,71.9L429.3,71.9z
			 M466.5,62.8c0.1-8.1-3.3-20.7-17.6-20.7c-12.8,0-18.5,11.9-19.5,20.7H466.5z"/>
		<path d="M542.1,93.8h-0.3c-3.8,7-11.5,12.5-22.8,12.5c-16.3,0-29.6-14.2-29.6-35.5c0-26.2,16.9-37.9,31.6-37.9
			c10.8,0,18,5.4,21.5,12.2h0.3l0.4-10.6h12c-0.3,6-0.4,12-0.4,19.3v79.6h-12.7V93.8z M542.1,62.9c0-1.7-0.1-3.8-0.6-5.4
			c-1.9-7.8-8.7-14.5-18.2-14.5c-13.1,0-21.1,11.2-21.1,27c0,13.9,6.6,26.1,20.6,26.1c8.2,0,15.3-5.1,18.2-13.9c0.6-1.7,1-4.2,1-6.1
			L542.1,62.9L542.1,62.9z"/>
		<path d="M634.2,85.5c0,7.2,0.1,13.6,0.6,19.2h-11.2l-0.7-11.5h-0.3c-3.3,5.7-10.7,13.1-23.1,13.1c-11,0-24.1-6.1-24.1-30.8v-41
			h12.7v38.9c0,13.3,4,22.3,15.6,22.3c8.5,0,14.4-5.9,16.7-11.6c0.7-1.9,1.2-4.2,1.2-6.5V34.5h12.7L634.2,85.5L634.2,85.5z"/>
		<path d="M718.4,69c0,26-17.9,37.3-34.8,37.3c-18.9,0-33.5-13.9-33.5-36.1c0-23.5,15.3-37.3,34.6-37.3
			C704.9,32.9,718.4,47.5,718.4,69z M663,69.7c0,15.4,8.8,27,21.2,27c12.1,0,21.2-11.5,21.2-27.3c0-11.9-5.9-27-20.9-27
			S663,56.4,663,69.7z"/>
		<path d="M748.6,14.8c0.1,4.4-3,7.8-8.1,7.8c-4.5,0-7.7-3.5-7.7-7.8c0-4.5,3.3-8,7.9-8C745.6,6.8,748.6,10.3,748.6,14.8z
			 M734.5,104.7V34.5h12.7v70.2H734.5z"/>
		<path d="M806.9,104.7l-1-8.8h-0.5c-3.9,5.5-11.4,10.4-21.3,10.4c-14.1,0-21.3-10-21.3-20.2c0-17,15-26.2,42-26.1v-1.4
			c0-5.8-1.6-16.2-15.9-16.2c-6.5,0-13.3,2-18.2,5.2l-2.9-8.4c5.8-3.8,14.1-6.2,22.9-6.2c21.3,0,26.5,14.7,26.5,28.7v26.2
			c0,6.1,0.3,12,1.2,16.8H806.9L806.9,104.7z M805,68.8c-13.8-0.2-29.6,2.2-29.6,15.9c0,8.3,5.5,12.2,12,12.2
			c9.1,0,14.9-5.8,16.9-11.8c0.4-1.3,0.7-2.8,0.7-4.1L805,68.8L805,68.8z"/>
		<path d="M834.7,97.1c0-5.4,3.6-9.1,8.7-9.1s8.5,3.8,8.5,9.1c0,5.2-3.3,9.1-8.7,9.1C838.2,106.3,834.7,102.4,834.7,97.1z"/>
		<path d="M874.7,71.9c0.3,17.3,11.2,24.4,24,24.4c9.1,0,14.6-1.6,19.3-3.6l2.2,9.1c-4.5,2-12.1,4.3-23.2,4.3
			c-21.5,0-34.3-14.2-34.3-35.4s12.4-37.9,32.8-37.9c22.8,0,28.9,20.2,28.9,33.1c0,2.6-0.3,4.6-0.4,5.9L874.7,71.9L874.7,71.9z
			 M911.9,62.8c0.1-8.1-3.3-20.7-17.6-20.7c-12.8,0-18.5,11.9-19.5,20.7H911.9z"/>
		<path d="M945.4,34.5l10,15.1c2.6,3.9,4.8,7.5,7.1,11.5h0.4c2.3-4.2,4.6-7.8,6.9-11.6l9.8-14.9h13.7l-23.8,33.9l24.5,36.3h-14.4
			l-10.2-15.9c-2.7-4.1-5-8-7.5-12.2h-0.3c-2.3,4.2-4.8,8-7.4,12.2l-10.1,15.8h-14l24.8-35.8l-23.7-34.4L945.4,34.5L945.4,34.5z"/>
		<path d="M1053.9,102.1c-3.3,1.7-10.7,4.1-20.1,4.1c-21.1,0-34.8-14.4-34.8-35.8c0-21.6,14.7-37.3,37.5-37.3
			c7.5,0,14.1,1.9,17.6,3.6l-2.9,9.9c-3-1.7-7.8-3.3-14.7-3.3c-16,0-24.7,11.9-24.7,26.5c0,16.2,10.4,26.2,24.2,26.2
			c7.2,0,12-1.9,15.6-3.5L1053.9,102.1z"/>
		<path d="M1068.8,1.7h12.7v43.8h0.3c2-3.6,5.2-6.8,9.1-9c3.8-2.2,8.2-3.6,13-3.6c9.4,0,24.4,5.8,24.4,30v41.8h-12.7V64.4
			c0-11.3-4.2-20.9-16.2-20.9c-8.2,0-14.7,5.8-17,12.8c-0.7,1.7-0.9,3.6-0.9,6.1v42.3h-12.7L1068.8,1.7L1068.8,1.7z"/>
		<path d="M1187.5,104.7l-1-8.8h-0.4c-3.9,5.5-11.4,10.4-21.3,10.4c-14.1,0-21.3-10-21.3-20.2c0-17,15-26.2,42-26.1v-1.4
			c0-5.8-1.6-16.2-15.9-16.2c-6.5,0-13.3,2-18.2,5.2l-2.9-8.4c5.8-3.8,14.1-6.2,22.9-6.2c21.3,0,26.6,14.7,26.6,28.7v26.2
			c0,6.1,0.3,12,1.2,16.8H1187.5L1187.5,104.7z M1185.6,68.8c-13.8-0.3-29.6,2.2-29.6,15.8c0,8.3,5.5,12.2,12,12.2
			c9.1,0,14.9-5.8,16.9-11.8c0.4-1.3,0.7-2.8,0.7-4.1V68.8z"/>
		<path d="M1218.4,53.5c0-7.2-0.1-13.2-0.6-19h11.2l0.7,11.6h0.3c3.5-6.7,11.5-13.2,23.1-13.2c9.7,0,24.7,5.8,24.7,29.9v41.9h-12.7
			V64.2c0-11.3-4.2-20.7-16.2-20.7c-8.4,0-14.9,6-17,13.1c-0.6,1.6-0.9,3.8-0.9,5.9v42.2h-12.6V53.5L1218.4,53.5z"/>
		<path d="M1358.6,34.5c-0.3,5.1-0.6,10.7-0.6,19.3v40.8c0,16.1-3.2,26-10,32.1c-6.8,6.4-16.6,8.4-25.4,8.4c-8.4,0-17.6-2-23.2-5.8
			l3.2-9.7c4.6,2.9,11.8,5.5,20.5,5.5c13,0,22.5-6.8,22.5-24.5v-7.8h-0.3c-3.9,6.5-11.4,11.8-22.2,11.8c-17.3,0-29.7-14.8-29.7-34.2
			c0-23.8,15.4-37.3,31.4-37.3c12.1,0,18.8,6.4,21.8,12.2h0.3l0.6-10.6L1358.6,34.5L1358.6,34.5z M1345.5,62.2
			c0-2.2-0.1-4.1-0.7-5.8c-2.3-7.4-8.5-13.5-17.8-13.5c-12.1,0-20.8,10.3-20.8,26.5c0,13.8,6.9,25.2,20.6,25.2
			c7.8,0,14.9-4.9,17.6-13.1c0.7-2.2,1-4.6,1-6.8L1345.5,62.2L1345.5,62.2z"/>
		<path d="M1386.2,71.9c0.3,17.3,11.2,24.4,23.9,24.4c9.1,0,14.6-1.6,19.3-3.6l2.2,9.1c-4.5,2-12.1,4.3-23.2,4.3
			c-21.5,0-34.3-14.2-34.3-35.4s12.4-37.9,32.8-37.9c22.8,0,28.9,20.2,28.9,33.1c0,2.6-0.3,4.6-0.4,5.9L1386.2,71.9L1386.2,71.9z
			 M1423.4,62.8c0.1-8.1-3.3-20.7-17.6-20.7c-12.8,0-18.5,11.9-19.5,20.7H1423.4z"/>
	</g>
	<g>
		<g>
			<polygon points="48.9,66.5 48.9,34.2 40.8,34.2 40.8,66.5 40.8,68.7 32.7,76.8 32.7,34.2 24.6,34.2 24.6,82.7 24.6,84.9 
				16.6,92.9 16.6,34.2 8.5,34.2 8.5,101 0.4,109.1 0.4,115 5.9,115 14,106.9 81.2,106.9 81.2,98.8 22.1,98.8 30.2,90.7 32.7,90.7 
				81.2,90.7 81.2,82.7 38.2,82.7 46.3,74.6 48.9,74.6 81.2,74.6 81.2,66.5 			"/>
			<rect x="57" y="34.2" width="24.2" height="24.2"/>
		</g>
	</g>
</g>
</svg>
