<?xml version="1.0" encoding="utf-8"?>
<!-- Generator: Adobe Illustrator 28.3.0, SVG Export Plug-In . SVG Version: 6.00 Build 0)  -->
<svg version="1.1" id="Слой_1" xmlns="http://www.w3.org/2000/svg" xmlns:xlink="http://www.w3.org/1999/xlink" x="0px" y="0px"
	 viewBox="0 0 1435.8 131.8" style="enable-background:new 0 0 1435.8 131.8;" xml:space="preserve">
<g>
	<g>
		<path d="M190.9,0v83.8c0,6.2,0.1,13.2,0.6,17.9h-11.3l-0.6-12h-0.3c-3.8,7.7-12.3,13.6-23.5,13.6c-16.7,0-29.5-14.2-29.5-35.2
			c-0.1-23.1,14.1-37.2,30.9-37.2c10.5,0,17.7,5,20.8,10.6h0.3V0H190.9z M178.4,60.6c0-1.6-0.1-3.7-0.6-5.3
			c-1.8-8-8.7-14.6-18.1-14.6c-13,0-20.7,11.5-20.7,26.8c0,14,6.8,25.6,20.4,25.6c8.4,0,16.1-5.6,18.4-15c0.4-1.7,0.6-3.4,0.6-5.4
			V60.6z"/>
		<path d="M218.7,69.3c0.3,17,11.1,24.1,23.7,24.1c9,0,14.4-1.6,19.1-3.6l2.1,9c-4.4,2-12,4.3-22.9,4.3c-21.2,0-33.9-14-33.9-34.9
			S219,30.8,239,30.8c22.5,0,28.5,19.9,28.5,32.7c0,2.6-0.3,4.6-0.4,5.9L218.7,69.3L218.7,69.3z M255.4,60.3
			c0.1-8-3.3-20.5-17.4-20.5c-12.7,0-18.2,11.7-19.2,20.5H255.4z"/>
		<path d="M288.5,32.4l9.8,14.9c2.6,3.9,4.7,7.4,7,11.3h0.4c2.3-4.2,4.6-7.7,6.8-11.5l9.7-14.8h13.5l-23.5,33.5l24.2,35.8h-14.3
			l-10.1-15.6c-2.7-4-5-7.9-7.4-12h-0.3c-2.3,4.2-4.7,7.9-7.3,12l-10,15.6h-13.8l24.5-35.4l-23.4-33.9L288.5,32.4L288.5,32.4z"/>
		<path d="M345.6,94.2c0-5.3,3.6-9,8.6-9c5,0,8.4,3.7,8.4,9c0,5.2-3.3,9-8.6,9C349,103.3,345.6,99.4,345.6,94.2z"/>
		<path d="M376.4,88.8c3.7,2.4,10.3,5,16.5,5c9.1,0,13.4-4.6,13.4-10.3c0-6-3.6-9.3-12.8-12.7c-12.4-4.4-18.2-11.3-18.2-19.6
			c0-11.2,9-20.3,23.8-20.3c7,0,13.1,2,17,4.3l-3.1,9.2c-2.7-1.7-7.7-4-14.1-4c-7.4,0-11.5,4.3-11.5,9.5c0,5.7,4.1,8.3,13.1,11.7
			c12,4.6,18.1,10.6,18.1,20.9c0,12.2-9.4,20.8-25.8,20.8c-7.6,0-14.5-1.9-19.4-4.7L376.4,88.8z"/>
		<path d="M441.5,69.3c0.3,17,11.1,24.1,23.7,24.1c9,0,14.4-1.6,19.1-3.6l2.1,9c-4.4,2-12,4.3-22.9,4.3c-21.2,0-33.9-14-33.9-34.9
			s12.3-37.4,32.3-37.4c22.5,0,28.5,19.9,28.5,32.7c0,2.6-0.3,4.6-0.4,5.9L441.5,69.3L441.5,69.3z M478.3,60.3
			c0.1-8-3.3-20.5-17.4-20.5c-12.7,0-18.2,11.7-19.2,20.5H478.3z"/>
		<path d="M552.9,90.9h-0.3c-3.7,6.9-11.4,12.3-22.5,12.3c-16.1,0-29.2-14-29.2-35.1c0-25.9,16.7-37.4,31.2-37.4
			c10.7,0,17.8,5.3,21.2,12h0.3l0.4-10.5h11.8c-0.3,5.9-0.4,11.9-0.4,19V130h-12.5V90.9z M552.9,60.4c0-1.7-0.1-3.7-0.6-5.3
			c-1.8-7.7-8.6-14.3-17.9-14.3c-13,0-20.8,11-20.8,26.6c0,13.7,6.6,25.8,20.4,25.8c8.1,0,15.1-5,18-13.7c0.6-1.7,1-4.2,1-6
			L552.9,60.4L552.9,60.4z"/>
		<path d="M643.8,82.8c0,7.2,0.1,13.5,0.6,18.9h-11.1l-0.7-11.3h-0.3c-3.3,5.6-10.5,12.9-22.8,12.9c-10.8,0-23.8-6-23.8-30.4V32.4
			h12.5v38.4c0,13.2,4,22.1,15.4,22.1c8.4,0,14.2-5.9,16.5-11.5c0.7-1.9,1.1-4.2,1.1-6.4V32.4h12.5L643.8,82.8L643.8,82.8z"/>
		<path d="M727,66.4c0,25.6-17.7,36.8-34.3,36.8c-18.7,0-33.1-13.7-33.1-35.7c0-23.2,15.1-36.8,34.2-36.8
			C713.6,30.8,727,45.3,727,66.4z M672.3,67.2c0,15.2,8.7,26.6,20.9,26.6c12,0,20.9-11.3,20.9-26.9c0-11.7-5.8-26.6-20.7-26.6
			C678.7,40.2,672.3,54,672.3,67.2z"/>
		<path d="M756.8,12.9c0.1,4.3-3,7.7-8,7.7c-4.4,0-7.6-3.4-7.6-7.7c0-4.4,3.3-7.9,7.8-7.9C753.8,5,756.8,8.4,756.8,12.9z
			 M742.8,101.7V32.4h12.5v69.3H742.8z"/>
		<path d="M814.3,101.7l-1-8.7h-0.4c-3.8,5.4-11.3,10.3-21.1,10.3c-14,0-21.1-9.9-21.1-19.9c0-16.8,14.8-25.9,41.5-25.8v-1.4
			c0-5.7-1.6-16-15.7-16c-6.4,0-13.1,2-18,5.2l-2.8-8.3c5.7-3.7,14-6.2,22.7-6.2c21.1,0,26.2,14.5,26.2,28.4v25.9
			c0,6,0.3,11.9,1.1,16.6L814.3,101.7L814.3,101.7z M812.5,66.3c-13.7-0.3-29.2,2.1-29.2,15.6c0,8.2,5.4,12,11.8,12
			c9,0,14.7-5.7,16.7-11.6c0.4-1.3,0.7-2.7,0.7-4V66.3z"/>
		<path d="M841.8,94.2c0-5.3,3.6-9,8.6-9s8.4,3.7,8.4,9c0,5.2-3.3,9-8.6,9C845.3,103.3,841.8,99.4,841.8,94.2z"/>
		<path d="M881.3,69.3c0.3,17,11.1,24.1,23.7,24.1c9,0,14.4-1.6,19.1-3.6l2.1,9c-4.4,2-12,4.3-22.9,4.3c-21.2,0-33.9-14-33.9-34.9
			s12.3-37.4,32.3-37.4c22.5,0,28.5,19.9,28.5,32.7c0,2.6-0.3,4.6-0.4,5.9L881.3,69.3L881.3,69.3z M918.1,60.3
			c0.1-8-3.3-20.5-17.4-20.5c-12.7,0-18.2,11.7-19.2,20.5H918.1z"/>
		<path d="M951.1,32.4l9.8,14.9c2.6,3.9,4.7,7.4,7,11.3h0.4c2.3-4.2,4.6-7.7,6.8-11.5l9.7-14.8h13.5l-23.5,33.5l24.2,35.8h-14.2
			l-10.1-15.6c-2.7-4-5-7.9-7.4-12h-0.3c-2.3,4.2-4.7,7.9-7.3,12l-10,15.6H936l24.5-35.4l-23.4-33.9L951.1,32.4L951.1,32.4z"/>
		<path d="M1058.3,99.1c-3.3,1.7-10.5,4-19.8,4c-20.8,0-34.3-14.2-34.3-35.4c0-21.3,14.5-36.8,37-36.8c7.4,0,14,1.9,17.4,3.6
			l-2.8,9.7c-3-1.7-7.7-3.3-14.5-3.3c-15.8,0-24.4,11.7-24.4,26.2c0,16,10.3,25.9,23.9,25.9c7.1,0,11.8-1.9,15.4-3.4L1058.3,99.1z"
			/>
		<path d="M1072.9,0h12.5v43.3h0.3c2-3.6,5.1-6.7,9-8.9c3.7-2.1,8.1-3.6,12.8-3.6c9.3,0,24.1,5.7,24.1,29.6v41.2h-12.5V61.9
			c0-11.2-4.1-20.6-16-20.6c-8.1,0-14.5,5.7-16.8,12.6c-0.7,1.7-0.9,3.6-0.9,6v41.8h-12.5L1072.9,0L1072.9,0z"/>
		<path d="M1190.2,101.7l-1-8.7h-0.4c-3.8,5.4-11.3,10.3-21.1,10.3c-14,0-21.1-9.9-21.1-19.9c0-16.8,14.8-25.9,41.5-25.8v-1.4
			c0-5.7-1.6-16-15.7-16c-6.4,0-13.1,2-18,5.2l-2.8-8.3c5.7-3.7,14-6.2,22.7-6.2c21.1,0,26.2,14.5,26.2,28.4v25.9
			c0,6,0.3,11.9,1.1,16.6L1190.2,101.7L1190.2,101.7z M1188.3,66.3c-13.7-0.3-29.2,2.1-29.2,15.6c0,8.2,5.4,12,11.8,12
			c9,0,14.7-5.7,16.7-11.6c0.4-1.3,0.7-2.7,0.7-4L1188.3,66.3L1188.3,66.3z"/>
		<path d="M1220.7,51.1c0-7.2-0.1-13-0.6-18.8h11.1l0.7,11.5h0.3c3.4-6.6,11.4-13,22.8-13c9.5,0,24.4,5.7,24.4,29.5v41.4h-12.5v-40
			c0-11.2-4.1-20.5-16-20.5c-8.3,0-14.7,5.9-16.8,12.9c-0.6,1.6-0.9,3.7-0.9,5.9v41.7h-12.5V51.1z"/>
		<path d="M1359.2,32.4c-0.3,5-0.6,10.6-0.6,19v40.2c0,15.9-3.1,25.6-9.8,31.7c-6.7,6.3-16.4,8.3-25.1,8.3c-8.3,0-17.4-2-22.9-5.7
			l3.1-9.6c4.6,2.9,11.7,5.4,20.2,5.4c12.8,0,22.2-6.7,22.2-24.2v-7.7h-0.3c-3.8,6.4-11.3,11.6-21.9,11.6
			c-17.1,0-29.3-14.6-29.3-33.8c0-23.5,15.2-36.8,31.1-36.8c12,0,18.5,6.3,21.5,12h0.3l0.6-10.5L1359.2,32.4L1359.2,32.4z
			 M1346.2,59.7c0-2.1-0.1-4-0.7-5.7c-2.3-7.3-8.4-13.3-17.5-13.3c-12,0-20.5,10.2-20.5,26.2c0,13.6,6.8,24.9,20.4,24.9
			c7.7,0,14.7-4.9,17.4-12.9c0.7-2.1,1-4.6,1-6.7L1346.2,59.7L1346.2,59.7z"/>
		<path d="M1386.4,69.3c0.3,17,11.1,24.1,23.7,24.1c9,0,14.4-1.6,19.1-3.6l2.1,9c-4.4,2-12,4.3-22.9,4.3c-21.2,0-33.9-14-33.9-34.9
			s12.3-37.4,32.3-37.4c22.5,0,28.5,19.9,28.5,32.7c0,2.6-0.3,4.6-0.4,5.9L1386.4,69.3L1386.4,69.3z M1423.1,60.3
			c0.1-8-3.3-20.5-17.4-20.5c-12.7,0-18.2,11.7-19.2,20.5H1423.1z"/>
	</g>
	<g>
		<g>
			<polygon points="47.6,62.8 47.6,30.9 39.7,30.9 39.7,62.9 39.7,65 31.7,73 31.7,30.9 23.7,30.9 23.7,78.8 23.7,81 15.7,89 
				15.7,30.9 7.7,30.9 7.7,97 -0.3,105 -0.3,110.8 5.2,110.8 13.2,102.8 79.6,102.8 79.6,94.8 21.2,94.8 29.2,86.8 31.7,86.8 
				79.6,86.8 79.6,78.8 37.1,78.8 45.1,70.8 47.6,70.8 79.6,70.8 79.6,62.9 47.7,62.9 			"/>
			<rect x="55.7" y="30.9" width="23.9" height="23.9"/>
		</g>
	</g>
</g>
</svg>
