<?xml version="1.0" encoding="utf-8"?>
<!-- Generator: Adobe Illustrator 26.0.1, SVG Export Plug-In . SVG Version: 6.00 Build 0)  -->
<svg version="1.1" id="Слой_1" xmlns="http://www.w3.org/2000/svg" xmlns:xlink="http://www.w3.org/1999/xlink" x="0px" y="0px"
	 viewBox="0 0 1453.6 135.4" style="enable-background:new 0 0 1453.6 135.4;" xml:space="preserve">
<style type="text/css">
	.st0{fill:#14527E;}
</style>
<g>
	<g>
		<path class="st0" d="M194.3,1.4v84.7c0,6.2,0.1,13.3,0.6,18.1h-11.4l-0.6-12.1h-0.3c-3.9,7.8-12.4,13.8-23.8,13.8
			c-16.9,0-29.8-14.3-29.8-35.6c-0.1-23.3,14.3-37.7,31.3-37.7c10.7,0,17.9,5.1,21,10.7h0.3V1.4H194.3z M181.6,62.7
			c0-1.6-0.1-3.8-0.6-5.4c-1.9-8.1-8.8-14.8-18.3-14.8c-13.1,0-20.9,11.6-20.9,27.1c0,14.2,6.9,25.9,20.6,25.9
			c8.5,0,16.3-5.7,18.6-15.2c0.4-1.7,0.6-3.5,0.6-5.5L181.6,62.7L181.6,62.7z"/>
		<path class="st0" d="M222.3,71.5c0.3,17.2,11.2,24.3,23.9,24.3c9.1,0,14.5-1.6,19.3-3.6l2.2,9.1c-4.5,2-12.1,4.3-23.2,4.3
			c-21.5,0-34.3-14.2-34.3-35.3s12.4-37.8,32.7-37.8c22.8,0,28.8,20.1,28.8,33c0,2.6-0.3,4.6-0.4,5.9L222.3,71.5L222.3,71.5z
			 M259.5,62.4c0.1-8.1-3.3-20.7-17.6-20.7c-12.8,0-18.4,11.9-19.4,20.7H259.5z"/>
		<path class="st0" d="M292.9,34.1l9.9,15.1c2.6,3.9,4.8,7.5,7.1,11.4h0.4c2.3-4.2,4.6-7.8,6.9-11.6l9.8-14.9h13.7L316.9,68
			l24.5,36.2H327l-10.1-15.7c-2.7-4.1-5-8-7.5-12.2h-0.3c-2.3,4.2-4.8,8-7.4,12.2l-10.1,15.8h-14l24.8-35.8l-23.6-34.3L292.9,34.1
			L292.9,34.1z"/>
		<path d="M350.7,96.7c0-5.4,3.6-9.1,8.6-9.1s8.5,3.8,8.5,9.1c0,5.2-3.3,9.1-8.6,9.1C354.2,105.8,350.7,101.9,350.7,96.7z"/>
		<path d="M381.8,91.2c3.8,2.5,10.4,5.1,16.7,5.1c9.2,0,13.5-4.6,13.5-10.4c0-6.1-3.6-9.4-13-12.9c-12.5-4.5-18.4-11.4-18.4-19.8
			c0-11.3,9.1-20.6,24.1-20.6c7.1,0,13.3,2,17.1,4.3l-3.2,9.3c-2.7-1.7-7.8-4.1-14.3-4.1c-7.5,0-11.7,4.3-11.7,9.6
			c0,5.8,4.2,8.4,13.3,11.9c12.1,4.6,18.3,10.7,18.3,21.2c0,12.3-9.5,21-26.1,21c-7.6,0-14.7-1.9-19.6-4.8L381.8,91.2z"/>
		<path d="M447.7,71.5c0.3,17.2,11.2,24.3,23.9,24.3c9.1,0,14.6-1.6,19.3-3.6l2.2,9.1c-4.5,2-12.1,4.3-23.2,4.3
			c-21.5,0-34.3-14.2-34.3-35.3s12.4-37.8,32.7-37.8c22.8,0,28.8,20.1,28.8,33c0,2.6-0.3,4.6-0.4,5.9L447.7,71.5L447.7,71.5z
			 M484.9,62.4c0.1-8.1-3.3-20.7-17.6-20.7c-12.8,0-18.4,11.9-19.5,20.7H484.9z"/>
		<path d="M560.4,93.4h-0.3c-3.8,6.9-11.5,12.5-22.8,12.5c-16.3,0-29.5-14.2-29.5-35.5c0-26.2,16.9-37.8,31.6-37.8
			c10.8,0,18,5.4,21.5,12.2h0.3l0.4-10.6h12c-0.3,5.9-0.4,12-0.4,19.3V133h-12.7L560.4,93.4L560.4,93.4z M560.4,62.5
			c0-1.7-0.1-3.8-0.6-5.4c-1.9-7.8-8.7-14.5-18.2-14.5c-13.1,0-21,11.1-21,26.9c0,13.9,6.6,26.1,20.6,26.1c8.2,0,15.3-5.1,18.2-13.9
			c0.6-1.7,1-4.2,1-6.1V62.5L560.4,62.5z"/>
		<path d="M652.3,85.1c0,7.2,0.1,13.6,0.6,19.1h-11.2l-0.8-11.4h-0.3c-3.3,5.7-10.7,13-23,13c-11,0-24.1-6.1-24.1-30.7v-41h12.7
			v38.8c0,13.3,4,22.3,15.6,22.3c8.5,0,14.4-5.9,16.7-11.6c0.7-1.9,1.2-4.2,1.2-6.5v-43h12.7L652.3,85.1L652.3,85.1z"/>
		<path d="M736.4,68.6c0,25.9-17.9,37.2-34.7,37.2c-18.9,0-33.4-13.9-33.4-36.1c0-23.5,15.3-37.2,34.6-37.2
			C722.9,32.5,736.4,47.2,736.4,68.6z M681.1,69.3c0,15.3,8.8,26.9,21.2,26.9c12.1,0,21.2-11.4,21.2-27.2c0-11.9-5.9-26.9-20.9-26.9
			C687.6,42.1,681.1,56,681.1,69.3z"/>
		<path d="M766.6,14.4c0.1,4.4-3,7.8-8.1,7.8c-4.5,0-7.6-3.5-7.6-7.8c0-4.5,3.3-8,7.9-8C763.5,6.5,766.6,9.9,766.6,14.4z
			 M752.4,104.2V34.1h12.7v70.1H752.4z"/>
		<path d="M824.8,104.2l-1-8.8h-0.4c-3.9,5.5-11.4,10.4-21.3,10.4c-14.1,0-21.3-10-21.3-20.1c0-16.9,15-26.2,41.9-26.1v-1.4
			c0-5.8-1.6-16.2-15.8-16.2c-6.5,0-13.3,2-18.2,5.2l-2.9-8.4c5.8-3.8,14.1-6.2,22.9-6.2c21.3,0,26.5,14.6,26.5,28.7v26.1
			c0,6.1,0.3,12,1.2,16.8H824.8L824.8,104.2z M822.9,68.5c-13.8-0.3-29.5,2.2-29.5,15.8c0,8.3,5.5,12.2,12,12.2
			c9.1,0,14.8-5.8,16.9-11.7c0.4-1.3,0.7-2.8,0.7-4.1V68.5H822.9z"/>
		<path d="M852.6,96.7c0-5.4,3.6-9.1,8.7-9.1s8.5,3.8,8.5,9.1c0,5.2-3.3,9.1-8.7,9.1C856,105.8,852.6,101.9,852.6,96.7z"/>
		<path class="st0" d="M892.5,71.5c0.3,17.2,11.2,24.3,23.9,24.3c9.1,0,14.5-1.6,19.3-3.6l2.2,9.1c-4.5,2-12.1,4.3-23.2,4.3
			c-21.5,0-34.3-14.2-34.3-35.3s12.4-37.8,32.7-37.8c22.8,0,28.8,20.1,28.8,33c0,2.6-0.3,4.6-0.4,5.9L892.5,71.5L892.5,71.5z
			 M929.7,62.4c0.1-8.1-3.3-20.7-17.6-20.7c-12.8,0-18.4,11.9-19.5,20.7H929.7z"/>
		<path class="st0" d="M963.1,34.1l9.9,15.1c2.6,3.9,4.8,7.5,7.1,11.4h0.4c2.3-4.2,4.6-7.8,6.9-11.6l9.8-14.9h13.7L987.1,68
			l24.5,36.2h-14.4L987,88.4c-2.7-4.1-5-8-7.5-12.2h-0.3c-2.3,4.2-4.8,8-7.3,12.2l-10.1,15.8h-14l24.8-35.8L949,34.1H963.1
			L963.1,34.1z"/>
		<path class="st0" d="M1071.4,101.6c-3.3,1.7-10.7,4.1-20,4.1c-21,0-34.7-14.3-34.7-35.8c0-21.6,14.7-37.2,37.5-37.2
			c7.5,0,14.1,1.9,17.6,3.6l-2.9,9.9c-3-1.7-7.8-3.3-14.7-3.3c-16,0-24.6,11.9-24.6,26.5c0,16.2,10.4,26.2,24.2,26.2
			c7.2,0,12-1.9,15.6-3.5L1071.4,101.6z"/>
		<path class="st0" d="M1086.3,1.4h12.7v43.7h0.3c2-3.6,5.2-6.8,9.1-9c3.8-2.2,8.2-3.6,13-3.6c9.4,0,24.3,5.8,24.3,30v41.7H1133V64
			c0-11.3-4.2-20.9-16.1-20.9c-8.2,0-14.7,5.8-17,12.8c-0.7,1.7-0.9,3.6-0.9,6.1v42.3h-12.7L1086.3,1.4L1086.3,1.4z"/>
		<path class="st0" d="M1204.9,104.2l-1-8.8h-0.4c-3.9,5.5-11.4,10.4-21.3,10.4c-14.1,0-21.3-10-21.3-20.1c0-16.9,15-26.2,41.9-26.1
			v-1.4c0-5.8-1.6-16.2-15.8-16.2c-6.5,0-13.3,2-18.2,5.2l-2.9-8.4c5.8-3.8,14.1-6.2,22.9-6.2c21.3,0,26.5,14.6,26.5,28.7v26.1
			c0,6.1,0.3,12,1.2,16.8H1204.9L1204.9,104.2z M1203,68.5c-13.8-0.3-29.5,2.2-29.5,15.8c0,8.3,5.5,12.2,12,12.2
			c9.1,0,14.8-5.8,16.9-11.7c0.4-1.3,0.7-2.8,0.7-4.1L1203,68.5L1203,68.5z"/>
		<path class="st0" d="M1235.7,53.1c0-7.2-0.1-13.2-0.6-19h11.2l0.7,11.6h0.3c3.5-6.7,11.5-13.2,23.1-13.2c9.7,0,24.6,5.8,24.6,29.8
			v41.9h-12.7V63.8c0-11.3-4.2-20.7-16.1-20.7c-8.4,0-14.8,5.9-17,13c-0.6,1.6-0.9,3.8-0.9,5.9v42.2h-12.7L1235.7,53.1L1235.7,53.1z
			"/>
		<path class="st0" d="M1375.8,34.1c-0.3,5.1-0.6,10.7-0.6,19.3v40.7c0,16.1-3.2,25.9-9.9,32c-6.8,6.4-16.6,8.4-25.4,8.4
			c-8.4,0-17.6-2-23.2-5.8l3.2-9.7c4.6,2.9,11.8,5.5,20.5,5.5c13,0,22.5-6.8,22.5-24.5v-7.8h-0.3c-3.9,6.5-11.4,11.7-22.2,11.7
			c-17.3,0-29.7-14.8-29.7-34.2c0-23.8,15.4-37.2,31.4-37.2c12.1,0,18.7,6.4,21.8,12.2h0.3l0.6-10.6L1375.8,34.1L1375.8,34.1z
			 M1362.6,61.8c0-2.2-0.1-4.1-0.7-5.8c-2.3-7.4-8.5-13.5-17.7-13.5c-12.1,0-20.8,10.3-20.8,26.5c0,13.8,6.9,25.2,20.6,25.2
			c7.8,0,14.8-4.9,17.6-13c0.7-2.2,1-4.6,1-6.8V61.8L1362.6,61.8z"/>
		<path class="st0" d="M1403.3,71.5c0.3,17.2,11.2,24.3,23.9,24.3c9.1,0,14.6-1.6,19.3-3.6l2.2,9.1c-4.5,2-12.1,4.3-23.2,4.3
			c-21.5,0-34.3-14.2-34.3-35.3s12.4-37.8,32.7-37.8c22.8,0,28.8,20.1,28.8,33c0,2.6-0.3,4.6-0.4,5.9L1403.3,71.5L1403.3,71.5z
			 M1440.4,62.4c0.1-8.1-3.3-20.7-17.6-20.7c-12.8,0-18.4,11.9-19.4,20.7H1440.4z"/>
	</g>
	<g>
		<g>
			<polygon class="st0" points="49.4,64.9 49.4,32.7 41.3,32.7 41.3,65 41.3,67.2 33.2,75.2 33.2,32.7 25.1,32.7 25.1,81.1 
				25.1,83.3 17.1,91.4 17.1,32.7 9,32.7 9,99.5 0.9,107.6 0.9,113.4 6.5,113.4 14.5,105.3 81.7,105.3 81.7,97.3 22.6,97.3 
				30.7,89.2 33.2,89.2 81.7,89.2 81.7,81.1 38.8,81.1 46.8,73 49.4,73 81.7,73 81.7,65 49.4,65 			"/>
			<rect x="57.5" y="32.7" class="st0" width="24.2" height="24.2"/>
		</g>
	</g>
</g>
</svg>
