<?xml version="1.0" encoding="utf-8"?>
<!-- Generator: Adobe Illustrator 26.0.1, SVG Export Plug-In . SVG Version: 6.00 Build 0)  -->
<svg version="1.1" id="Слой_1" xmlns="http://www.w3.org/2000/svg" xmlns:xlink="http://www.w3.org/1999/xlink" x="0px" y="0px"
	 viewBox="0 0 1453.4 136.4" style="enable-background:new 0 0 1453.4 136.4;" xml:space="preserve">
<g>
	<g>
		<path d="M194.2,2.7v84.7c0,6.2,0.1,13.3,0.6,18.1h-11.4l-0.6-12.1h-0.3c-3.9,7.8-12.4,13.8-23.8,13.8c-16.9,0-29.8-14.3-29.8-35.6
			c-0.1-23.3,14.3-37.7,31.3-37.7c10.7,0,17.9,5.1,21,10.7h0.3V2.7H194.2z M181.5,64c0-1.6-0.1-3.8-0.6-5.4
			c-1.9-8.1-8.8-14.8-18.3-14.8c-13.1,0-20.9,11.6-20.9,27.1c0,14.2,6.9,25.9,20.6,25.9c8.5,0,16.3-5.7,18.6-15.2
			c0.4-1.7,0.6-3.5,0.6-5.5L181.5,64L181.5,64z"/>
		<path d="M222.2,72.8c0.3,17.2,11.2,24.3,23.9,24.3c9.1,0,14.5-1.6,19.3-3.6l2.2,9.1c-4.5,2-12.1,4.3-23.2,4.3
			c-21.5,0-34.3-14.2-34.3-35.3s12.4-37.8,32.7-37.8c22.8,0,28.8,20.1,28.8,33c0,2.6-0.3,4.6-0.4,5.9L222.2,72.8L222.2,72.8z
			 M259.4,63.7c0.1-8.1-3.3-20.7-17.6-20.7c-12.8,0-18.4,11.9-19.4,20.7H259.4z"/>
		<path d="M292.8,35.4l9.9,15.1c2.6,3.9,4.8,7.5,7.1,11.4h0.4c2.3-4.2,4.6-7.8,6.9-11.6l9.8-14.9h13.7l-23.8,33.9l24.5,36.2h-14.4
			l-10.1-15.7c-2.7-4.1-5-8-7.5-12.2H309c-2.3,4.2-4.8,8-7.4,12.2l-10.1,15.8h-14l24.8-35.8l-23.6-34.3L292.8,35.4L292.8,35.4z"/>
		<path d="M350.6,98c0-5.4,3.6-9.1,8.6-9.1s8.5,3.8,8.5,9.1c0,5.2-3.3,9.1-8.6,9.1C354.1,107.1,350.6,103.2,350.6,98z"/>
		<path d="M381.7,92.5c3.8,2.5,10.4,5.1,16.7,5.1c9.2,0,13.5-4.6,13.5-10.4c0-6.1-3.6-9.4-13-12.9c-12.5-4.5-18.4-11.4-18.4-19.8
			c0-11.3,9.1-20.6,24.1-20.6c7.1,0,13.3,2,17.1,4.3l-3.2,9.3c-2.7-1.7-7.8-4.1-14.3-4.1c-7.5,0-11.7,4.3-11.7,9.6
			c0,5.8,4.2,8.4,13.3,11.9c12.1,4.6,18.3,10.7,18.3,21.2c0,12.3-9.5,21-26.1,21c-7.6,0-14.7-1.9-19.6-4.8L381.7,92.5z"/>
		<path d="M447.6,72.8c0.3,17.2,11.2,24.3,23.9,24.3c9.1,0,14.6-1.6,19.3-3.6l2.2,9.1c-4.5,2-12.1,4.3-23.2,4.3
			c-21.5,0-34.3-14.2-34.3-35.3s12.4-37.8,32.7-37.8c22.8,0,28.8,20.1,28.8,33c0,2.6-0.3,4.6-0.4,5.9L447.6,72.8L447.6,72.8z
			 M484.8,63.7c0.1-8.1-3.3-20.7-17.6-20.7c-12.8,0-18.4,11.9-19.5,20.7H484.8z"/>
		<path d="M560.3,94.7H560c-3.8,6.9-11.5,12.5-22.8,12.5c-16.3,0-29.5-14.2-29.5-35.5c0-26.2,16.9-37.8,31.6-37.8
			c10.8,0,18,5.4,21.5,12.2h0.3l0.4-10.6h12c-0.3,5.9-0.4,12-0.4,19.3v79.5h-12.7L560.3,94.7L560.3,94.7z M560.3,63.8
			c0-1.7-0.1-3.8-0.6-5.4c-1.9-7.8-8.7-14.5-18.2-14.5c-13.1,0-21,11.1-21,26.9c0,13.9,6.6,26.1,20.6,26.1c8.2,0,15.3-5.1,18.2-13.9
			c0.6-1.7,1-4.2,1-6.1V63.8L560.3,63.8z"/>
		<path d="M652.2,86.4c0,7.2,0.1,13.6,0.6,19.1h-11.2l-0.8-11.4h-0.3c-3.3,5.7-10.7,13-23,13c-11,0-24.1-6.1-24.1-30.7v-41h12.7
			v38.8c0,13.3,4,22.3,15.6,22.3c8.5,0,14.4-5.9,16.7-11.6c0.7-1.9,1.2-4.2,1.2-6.5v-43h12.7L652.2,86.4L652.2,86.4z"/>
		<path d="M736.3,69.9c0,25.9-17.9,37.2-34.7,37.2c-18.9,0-33.4-13.9-33.4-36.1c0-23.5,15.3-37.2,34.6-37.2
			C722.8,33.8,736.3,48.5,736.3,69.9z M681,70.6c0,15.3,8.8,26.9,21.2,26.9c12.1,0,21.2-11.4,21.2-27.2c0-11.9-5.9-26.9-20.9-26.9
			S681,57.3,681,70.6z"/>
		<path d="M766.5,15.7c0.1,4.4-3,7.8-8.1,7.8c-4.5,0-7.6-3.5-7.6-7.8c0-4.5,3.3-8,7.9-8C763.4,7.8,766.5,11.2,766.5,15.7z
			 M752.3,105.5V35.4H765v70.1H752.3z"/>
		<path d="M824.7,105.5l-1-8.8h-0.4c-3.9,5.5-11.4,10.4-21.3,10.4c-14.1,0-21.3-10-21.3-20.1c0-16.9,15-26.2,41.9-26.1v-1.4
			c0-5.8-1.6-16.2-15.8-16.2c-6.5,0-13.3,2-18.2,5.2l-2.9-8.4c5.8-3.8,14.1-6.2,22.9-6.2c21.3,0,26.5,14.6,26.5,28.7v26.1
			c0,6.1,0.3,12,1.2,16.8H824.7L824.7,105.5z M822.8,69.8c-13.8-0.3-29.5,2.2-29.5,15.8c0,8.3,5.5,12.2,12,12.2
			c9.1,0,14.8-5.8,16.9-11.7c0.4-1.3,0.7-2.8,0.7-4.1V69.8H822.8z"/>
		<path d="M852.5,98c0-5.4,3.6-9.1,8.7-9.1s8.5,3.8,8.5,9.1c0,5.2-3.3,9.1-8.7,9.1C855.9,107.1,852.5,103.2,852.5,98z"/>
		<path d="M892.4,72.8c0.3,17.2,11.2,24.3,23.9,24.3c9.1,0,14.5-1.6,19.3-3.6l2.2,9.1c-4.5,2-12.1,4.3-23.2,4.3
			c-21.5,0-34.3-14.2-34.3-35.3s12.4-37.8,32.7-37.8c22.8,0,28.8,20.1,28.8,33c0,2.6-0.3,4.6-0.4,5.9L892.4,72.8L892.4,72.8z
			 M929.6,63.7c0.1-8.1-3.3-20.7-17.6-20.7c-12.8,0-18.4,11.9-19.5,20.7H929.6z"/>
		<path d="M963,35.4l9.9,15.1c2.6,3.9,4.8,7.5,7.1,11.4h0.4c2.3-4.2,4.6-7.8,6.9-11.6l9.8-14.9h13.7L987,69.3l24.5,36.2h-14.4
			l-10.2-15.8c-2.7-4.1-5-8-7.5-12.2h-0.3c-2.3,4.2-4.8,8-7.3,12.2l-10.1,15.8h-14l24.8-35.8l-23.6-34.3L963,35.4L963,35.4z"/>
		<path d="M1071.3,102.9c-3.3,1.7-10.7,4.1-20,4.1c-21,0-34.7-14.3-34.7-35.8c0-21.6,14.7-37.2,37.5-37.2c7.5,0,14.1,1.9,17.6,3.6
			l-2.9,9.9c-3-1.7-7.8-3.3-14.7-3.3c-16,0-24.6,11.9-24.6,26.5c0,16.2,10.4,26.2,24.2,26.2c7.2,0,12-1.9,15.6-3.5L1071.3,102.9z"/>
		<path d="M1086.2,2.7h12.7v43.7h0.3c2-3.6,5.2-6.8,9.1-9c3.8-2.2,8.2-3.6,13-3.6c9.4,0,24.3,5.8,24.3,30v41.7h-12.7V65.3
			c0-11.3-4.2-20.9-16.1-20.9c-8.2,0-14.7,5.8-17,12.8c-0.7,1.7-0.9,3.6-0.9,6.1v42.3h-12.7L1086.2,2.7L1086.2,2.7z"/>
		<path d="M1204.8,105.5l-1-8.8h-0.4c-3.9,5.5-11.4,10.4-21.3,10.4c-14.1,0-21.3-10-21.3-20.1c0-16.9,15-26.2,41.9-26.1v-1.4
			c0-5.8-1.6-16.2-15.8-16.2c-6.5,0-13.3,2-18.2,5.2l-2.9-8.4c5.8-3.8,14.1-6.2,22.9-6.2c21.3,0,26.5,14.6,26.5,28.7v26.1
			c0,6.1,0.3,12,1.2,16.8H1204.8L1204.8,105.5z M1202.9,69.8c-13.8-0.3-29.5,2.2-29.5,15.8c0,8.3,5.5,12.2,12,12.2
			c9.1,0,14.8-5.8,16.9-11.7c0.4-1.3,0.7-2.8,0.7-4.1L1202.9,69.8L1202.9,69.8z"/>
		<path d="M1235.6,54.4c0-7.2-0.1-13.2-0.6-19h11.2l0.7,11.6h0.3c3.5-6.7,11.5-13.2,23.1-13.2c9.7,0,24.6,5.8,24.6,29.8v41.9h-12.7
			V65.1c0-11.3-4.2-20.7-16.1-20.7c-8.4,0-14.8,5.9-17,13c-0.6,1.6-0.9,3.8-0.9,5.9v42.2h-12.7L1235.6,54.4L1235.6,54.4z"/>
		<path d="M1375.7,35.4c-0.3,5.1-0.6,10.7-0.6,19.3v40.7c0,16.1-3.2,25.9-9.9,32c-6.8,6.4-16.6,8.4-25.4,8.4c-8.4,0-17.6-2-23.2-5.8
			l3.2-9.7c4.6,2.9,11.8,5.5,20.5,5.5c13,0,22.5-6.8,22.5-24.5v-7.8h-0.3c-3.9,6.5-11.4,11.7-22.2,11.7c-17.3,0-29.7-14.8-29.7-34.2
			c0-23.8,15.4-37.2,31.4-37.2c12.1,0,18.7,6.4,21.8,12.2h0.3l0.6-10.6H1375.7L1375.7,35.4z M1362.5,63.1c0-2.2-0.1-4.1-0.7-5.8
			c-2.3-7.4-8.5-13.5-17.7-13.5c-12.1,0-20.8,10.3-20.8,26.5c0,13.8,6.9,25.2,20.6,25.2c7.8,0,14.8-4.9,17.6-13c0.7-2.2,1-4.6,1-6.8
			V63.1L1362.5,63.1z"/>
		<path d="M1403.2,72.8c0.3,17.2,11.2,24.3,23.9,24.3c9.1,0,14.6-1.6,19.3-3.6l2.2,9.1c-4.5,2-12.1,4.3-23.2,4.3
			c-21.5,0-34.3-14.2-34.3-35.3s12.4-37.8,32.7-37.8c22.8,0,28.8,20.1,28.8,33c0,2.6-0.3,4.6-0.4,5.9L1403.2,72.8L1403.2,72.8z
			 M1440.3,63.7c0.1-8.1-3.3-20.7-17.6-20.7c-12.8,0-18.4,11.9-19.4,20.7H1440.3z"/>
	</g>
	<g>
		<g>
			<polygon points="49.3,66.2 49.3,34 41.2,34 41.2,66.3 41.2,68.5 33.1,76.5 33.1,34 25,34 25,82.4 25,84.6 17,92.7 17,34 8.9,34 
				8.9,100.8 0.8,108.9 0.8,114.7 6.4,114.7 14.4,106.6 81.6,106.6 81.6,98.6 22.5,98.6 30.6,90.5 33.1,90.5 81.6,90.5 81.6,82.4 
				38.7,82.4 46.7,74.3 49.3,74.3 81.6,74.3 81.6,66.3 49.3,66.3 			"/>
			<rect x="57.4" y="34" width="24.2" height="24.2"/>
		</g>
	</g>
</g>
</svg>
