<?xml version="1.0" encoding="utf-8"?>
<!-- Generator: Adobe Illustrator 26.0.1, SVG Export Plug-In . SVG Version: 6.00 Build 0)  -->
<svg version="1.1" id="Слой_1" xmlns="http://www.w3.org/2000/svg" xmlns:xlink="http://www.w3.org/1999/xlink" x="0px" y="0px"
	 viewBox="0 0 335.39 147.06" style="enable-background:new 0 0 335.39 147.06;" xml:space="preserve">
<style type="text/css">
	.st0{fill:#358531;}
</style>
<g>
	<g>
		<g>
			<path class="st0" d="M51.22,71.18c-0.13-0.27-0.33-0.53-0.36-0.81c-0.41-3.87-0.79-7.73-1.18-11.6
				c-0.01-0.06,0.01-0.14-0.02-0.19c-0.16-0.26-0.34-0.51-0.51-0.76c-0.14,0.29-0.39,0.58-0.39,0.86c0.01,0.83,0.09,1.67,0.22,2.49
				c0.27,1.71,0.59,3.41,0.86,5.12c0.05,0.33-0.07,0.69-0.11,1.04c-0.09,0-0.19,0-0.28,0c-0.24-1.32-0.47-2.65-0.71-3.97
				c-0.03,0-0.07,0.01-0.1,0.01c-0.11,3.34-0.21,6.68-0.34,10.02c-0.13,3.3,0.06,6.62-0.43,9.89c-0.13-0.01-0.26-0.01-0.39-0.02
				c0.05-2.73,0.16-5.47,0.13-8.2c-0.03-2.78-0.19-5.57-0.46-8.35c-0.75,3.57,0.02,7.16-0.13,10.74c-0.05-0.14-0.09-0.28-0.22-0.66
				c-0.06,1.82-0.12,3.4-0.17,4.98c0.04,0.01,0.07,0.02,0.11,0.03c0.08-0.26,0.17-0.53,0.24-0.78c-0.04,1.25-0.09,2.52-0.13,3.79
				c-0.04,0-0.09,0-0.13,0c0.02-0.48,0.03-0.95,0.05-1.43c-0.55,2.6-0.54,5.2-0.24,7.84c0.6,5.33,0.46,10.68-0.29,16
				c-0.32,2.26-0.94,4.47-1.3,6.72c-0.23,1.39-0.2,2.82-0.34,4.23c-0.06,0.62-1.36,1.72-1.21,1c0.33-1.57,0.59-3.15,0.88-4.73
				c0.44-2.4,0.89-4.8,1.31-7.2c0.65-3.66,0.88-7.35,0.81-11.06c-0.04-1.93-0.12-3.85-0.19-5.78c-0.11,0-0.21,0-0.32,0.01
				c-0.02,0.69-0.05,1.39-0.07,2.08c-0.11,0.03-0.22,0.07-0.33,0.1c-0.11-0.34-0.31-0.67-0.32-1.01c-0.08-2.38-0.12-4.77-0.18-7.15
				c-0.09,0-0.18,0-0.27-0.01c-0.06,0.7-0.15,1.4-0.17,2.1c-0.11,4.54-0.21,9.08-0.28,13.62c-0.04,2.51-0.09,5.03,0,7.53
				c0.08,2.36-0.51,4.59-0.99,6.85c-0.14,0.65-0.22,1.31-0.32,1.96c-0.09,0.04-0.18,0.08-0.27,0.11c-0.17-0.33-0.51-0.67-0.49-0.98
				c0.22-3.01,0.53-6.02,0.77-9.03c0.09-1.16,0.09-2.34-0.03-3.53c-0.09,0.53-0.18,1.05-0.28,1.58c-0.44,2.33-0.88,4.67-1.34,7
				c-0.27,1.42-0.49,2.85-0.88,4.23c-0.16,0.59-0.69,1.08-1.04,1.63c-0.15,0.24-0.28,0.51-0.38,0.77c-0.88,2.43-2.12,4.64-3.93,6.5
				c-0.18,0.18-0.36,0.39-0.45,0.62c-0.22,0.57-0.63,0.72-1.15,0.53c-1-0.37-2.73,0.43-2.89,0.2c0.21-0.11,0.44-0.19,0.62-0.33
				c0.83-0.61,1.81-1.12,2.44-1.9c1.21-1.51,2.47-3.07,3.26-4.82c0.82-1.81,1.24-3.83,1.61-5.8c0.42-2.3,0.61-4.65,0.88-6.98
				c0.24-2.04,0.49-4.08,0.68-6.13c0.3-3.1,0.56-6.2,0.83-9.3c0.2-2.34,0.34-4.68,0.56-7.01c0.14-1.51,0.5-3.01,0.53-4.53
				c0.1-4.99,0.1-9.98,0.14-14.97c0-0.08-0.05-0.17-0.01-0.05c-0.75,0.36-1.58,0.59-2.19,1.1c-0.43,0.36-0.66,1.05-0.8,1.64
				c-0.16,0.64-0.09,1.34-0.19,2c-0.04,0.25-0.22,0.55-0.43,0.67c-0.13,0.07-0.52-0.11-0.64-0.28c-1.52-2.13-3.77-3.26-6-4.39
				c-0.43-0.22-1-0.2-1.51-0.25c-0.57-0.07-1.15-0.06-1.72-0.16c-1.12-0.21-1.66,0.19-1.67,1.3c0,0.65-1.33,1.78-2.41,1.96
				c-0.66,0.11-1.34,0.1-2.01,0.16c-1.3,0.11-2.6,0.24-3.9,0.34c-0.77,0.06-1.54,0.17-2.31,0.12c-0.83-0.06-1.54-0.42-1.92-1.26
				c-0.31-0.68-0.16-1.15,0.52-1.51c0.73-0.39,1.42-0.85,2.31-1.38c-0.52-0.25-0.87-0.46-1.25-0.59c-1.17-0.39-1.3-0.76-0.58-1.78
				c0.11-0.16,0.2-0.32,0.34-0.55c-0.52-0.51-0.94-1-0.65-1.88c0.13-0.4-0.32-1.01-0.56-1.5c-0.25-0.52-0.27-0.9,0.43-0.91
				c0.75-0.02,0.68-0.41,0.59-0.97c-0.28-1.69-0.08-3.27,1.16-4.6c0.87-0.93,1.9-1.37,3.13-0.97c1.6,0.52,3.17,1.13,4.74,1.69
				c-0.15-0.23-0.34-0.54-0.64-1.01c0.44-0.13,0.83-0.29,1.24-0.36c1.07-0.19,2.14-0.37,3.22-0.48c0.87-0.09,1.77-0.11,2.42,0.64
				c0.19,0.22,0.32,0.57,0.3,0.85c-0.01,0.12-0.46,0.21-0.71,0.31c-0.14,0.06-0.3,0.09-0.47,0.14c0.57,0.52,1.1,1.02,1.77,1.64
				c0.04-1.03,0.07-2.07,0.11-3.24c1.12,0.71,1.29,1.88,0.75,3.23c-0.17,0.43-0.29,0.92-0.27,1.37c0.03,0.61-0.01,1.39,0.85,1.51
				c1.17,0.17,1.76-0.25,1.99-1.37c0.28-1.42,0.6-2.82-0.88-3.93c-0.53-0.39-0.72-1.26-1-1.94c-0.08-0.19-0.02-0.55,0.12-0.69
				c0.1-0.1,0.44,0.02,0.66,0.07c0.46,0.1,0.94,0.17,1.37,0.35c1.56,0.68,3.09,1.44,4.66,2.09c0.7,0.29,0.79,0.72,0.5,1.43
				c0.45-0.07,0.79-0.12,1.26-0.2c-0.18-0.37-0.31-0.68-0.48-0.96c-0.94-1.49-0.47-2.16,1.2-2.75c1.21-0.42,1.49-0.69,1.53-2.11
				c-2.26,0.42-3.4-0.16-4.75-2.41c-0.93,0.21-1.85,0.56-2.78,0.59c-1.74,0.06-2.06-0.26-2.42-1.9c-0.82,0.07-1.66,0.07-2.46,0.22
				c-1.01,0.19-1.87,0.05-2.49-0.81c-0.73-1.01-0.29-1.94,0.36-2.97c-0.38-0.07-0.72-0.08-1.01-0.21c-0.25-0.11-0.45-0.35-0.67-0.54
				c0.24-0.09,0.48-0.2,0.73-0.27c0.18-0.05,0.37-0.04,0.48-0.04c0.53-2.24-1.05-3.28-2.38-4.45c-0.07-0.06-0.16-0.12-0.25-0.15
				c-1.84-0.71-2.34-0.57-2.4,1.24c-0.06,1.8,0.8,3.68,3.57,4.51c0.31,0.09,0.61,0.24,1.15,0.45c-1.74,0.25-4.04-1.1-4.61-2.75
				c-0.37-1.06-0.42-2.26-0.5-3.4c-0.04-0.62,0.42-1.07,1.06-0.98c0.65,0.09,1.35,0.24,1.88,0.58c0.92,0.58,1.72,1.32,2.48,1.92
				c0.58-0.6,1.11-1.26,1.77-1.73c0.22-0.16,0.81,0.09,1.17,0.27c1.04,0.52,1.38,1.19,1.07,1.97c-0.44,1.1-1.63,1.47-3.38,1.05
				c-0.11,1.16,0.16,1.45,1.15,1.04c1.49-0.62,2.94-1.34,4.4-2.02c-0.02-0.12-0.05-0.23-0.07-0.35c-0.44-0.24-0.88-0.48-1.32-0.71
				c-0.73-0.37-0.87-0.91-0.66-1.69c0.44-1.64,1.52-2.45,3.14-2.68c0.76-0.11,1.52-0.22,2.38-0.35c0.27-1.79,1.43-2.84,3.31-3.17
				c-0.04-0.08-0.08-0.15-0.12-0.23c-0.19,0.01-0.39-0.03-0.56,0.03c-2.69,0.87-4.85-0.35-6.84-1.88c-0.93-0.71-1.59-1.75-2.44-2.58
				c-0.45-0.44-1.11-0.69-1.52-1.16c-0.36-0.41-0.51-1.01-0.76-1.52c0.56-0.1,1.27-0.47,1.65-0.26c1.82,1.03,3.86,0.54,5.75,1.03
				c0.31,0.08,0.73-0.24,1.1-0.38c-0.22-0.24-0.42-0.51-0.67-0.71c-0.49-0.41-1.03-0.76-1.5-1.2c-0.46-0.43-0.44-0.85,0.22-1.08
				c0.39-0.14,0.81-0.22,1.18-0.39c0.4-0.19,0.76-0.46,1.31-0.8c-0.74-0.51-1.26-0.86-1.77-1.22c-1.05-0.75-1.38-1.66-1.06-2.88
				c0.28-1.07,0.83-1.5,2.28-1.61c0.73-0.05,1.47,0.04,2.31,0.06c0.15-0.39,0.6-1.02,0.44-1.27C40.63,8.5,39.96,8,39.37,7.48
				c-0.16-0.14-0.47-0.11-0.61-0.25c-0.14-0.16-0.35-0.45-0.23-0.66c0.11-0.19,0.46-0.2,0.65-0.15c1.11,0.28,2.2,0.66,3.32,0.91
				c1.53,0.34,2.68-0.42,3.9-1.41c-0.93-0.64-1.74-1.19-2.53-1.76c-0.31-0.22-0.61-0.48-0.85-0.78c-0.13-0.17-0.23-0.54-0.13-0.67
				c0.11-0.15,0.52-0.25,0.67-0.16c1.62,0.96,3.38,1.86,3.63,4.02c0.09,0.75-0.11,1.54-0.2,2.57c0.49,0.22,1.22,0.58,1.98,0.87
				c0.58,0.22,0.74,0.79,0.18,1.36c-0.55,0.57-1.23,1.01-1.83,1.48c0.1,0.38,0.2,0.79,0.36,1.41c-0.76-0.3-1.28-0.69-1.72-0.63
				c-0.34,0.05-0.59,0.68-0.74,1.12c-0.29,0.15-0.58,0.3-0.87,0.44c0.03,0.1,0.07,0.21,0.1,0.31c1.69,0.28,3.38,0.57,5.22,0.88
				c0.03-0.99,0.09-1.85,0.09-2.71c0-0.84,0.25-1.33,1.22-1.32c1.48,0.01,2.96-0.14,4.43-0.1c0.73,0.02,1.48,0.28,1.74,1.12
				c0.31,0.99-0.07,1.8-0.83,2.39c-0.85,0.66-1.74,1.32-2.7,1.79c-0.82,0.4-0.92,0.95-0.88,1.72c0.02,0.31-0.04,0.83-0.21,0.91
				c-0.26,0.11-0.69-0.01-0.98-0.17c-1.23-0.66-1.52-0.57-2.2,0.87c0.23,0.03,0.44,0.07,0.65,0.07c0.76,0,1.04,0.47,1.39,1.1
				c0.4,0.74,1.08,1.34,1.69,1.95c0.29,0.3,0.68,0.5,1.02,0.75c-0.28,0.27-0.55,0.54-1.02,0.99c0.44,0.45,0.95,0.97,1.46,1.5
				c0.08-0.04,0.16-0.09,0.24-0.13c-0.21-1.21,0.18-2.24,0.91-3.13c0.57-0.69,1.31-1.16,2.28-0.94c0.83,0.19,1.37,0.8,1.32,1.57
				c-0.04,0.68-0.38,1.43-0.81,1.97c-0.5,0.63-1.24,1.06-2.03,1.7c0.59,0.15,1.16,0.28,1.71,0.45c2.05,0.63,4.1,1.27,6.14,1.93
				c0.27,0.09,0.59,0.24,0.72,0.46c0.66,1.1,1.82,1.45,2.87,1.97c0.85,0.42,1.44,1.09,1.4,2.03c-0.05,1.05-0.8,1.72-1.71,2.17
				c-0.32,0.16-0.66,0.29-0.97,0.54c1.82,0.55,3.61,0.46,5.44-0.1c0.16,0.87-0.47,1.07-0.99,1.14c-1.49,0.21-2.99,0.33-4.49,0.48
				c-0.26,0.03-0.52,0.01-0.77,0.04c-0.94,0.1-1.97,0.53-2.46-0.99c-0.44,0.8-0.92,1.34-1.03,1.94c-0.16,0.96-0.81,1.25-1.54,1.51
				c-0.99,0.36-1.99,0.68-3,0.97c-0.86,0.24-1.27,0.8-1.41,1.64c-0.05,0.29-0.51,0.79-0.63,0.75c0.16-0.6,0.32-1.2,0.49-1.83
				c-0.5-0.56-0.99-0.51-1.75-0.28c-0.93,0.27-1.99,0.13-3,0.11c-0.31,0-0.61-0.18-0.98-0.29c0.11,2.32,0.23,4.56,0.34,6.81
				c0.55-0.01,0.99-0.07,1.42-0.02c0.51,0.05,1.3,0.02,1.47,0.31c0.37,0.63,0.67,1.49,0.55,2.17c-0.19,1.04-0.66,2.08-1.22,2.99
				c-0.28,0.46-1.02,0.63-1.77,1.05c0.42,0.19,0.83,0.38,1.29,0.58c0.14,2.32,0.3,4.8,0.45,7.27c0.12,0.05,0.24,0.11,0.36,0.16
				c1.11-0.97,2.23-1.93,3.31-2.87c0.04-0.33,0.07-0.65,0.11-0.97c0.27,0.15,0.54,0.31,0.83,0.45c0.26,0.12,0.53,0.21,0.95,0.37
				c-0.14-1.24-0.26-2.28-0.37-3.32c-0.02-0.19-0.07-0.39-0.03-0.56c0.35-1.49,2.72-3.21,4.26-3.1c1.03,0.07,1.69,0.85,1.64,1.92
				c-0.03,0.64,0.59,1.03,1.31,0.95c1.04-0.11,2.1-0.19,3.15-0.17c1.5,0.02,1.65,1.31,1.13,2.39c-0.32,0.67-0.67,1.32-1.05,1.95
				c-0.35,0.58-0.18,0.95,0.42,1.07c1.66,0.33,3.28,0.22,4.76-0.68c0.28-0.17,0.39-0.61,0.58-0.93c-0.29-0.15-0.57-0.34-0.87-0.46
				c-0.28-0.11-0.59-0.14-1.02-0.24c0.99-0.56,1.99-0.39,2.32,0.28c0.35,0.72-0.04,1.88-0.87,2.06c-1.53,0.34-3.09,0.65-4.64,0.67
				c-1.54,0.02-1.88-0.84-1.12-2.19c0.44-0.78,0.8-1.6,1.18-2.41c0.26-0.56-0.03-0.93-0.54-0.99c-1.04-0.13-2.08-0.3-3.09,0.31
				c-0.62,0.38-0.79,0.69-0.34,1.28c0.85,1.13,1.36,2.3,0.76,3.76c-0.08,0.2,0.55,0.7,0.87,1.05c0.29,0.33,0.6,0.64,0.9,0.97
				c-0.33,0.21-0.64,0.49-0.99,0.63c-1.17,0.46-2.35,0.32-3.48-0.14c-0.94-0.38-1.79-0.19-2.68,0.16c-0.88,0.35-1.81,0.63-2.81-0.04
				c0.29-0.42,0.46-0.83,0.76-1.09c0.78-0.7,1.08-1.41,0.16-2.3c-1.72,0.3-2.56,1.77-3.61,2.99c-0.41,0.48-0.47,1.31-1.41,1.25
				c-0.12-0.01-0.37,0.5-0.38,0.77c-0.01,2.65,0.03,5.3,0.03,7.95c0,2.4-0.4,4.76-0.3,7.2c0.16,4.2,0.53,8.39,0.77,12.58
				c0.25,4.51,1.05,9,1.7,13.49c0.4,2.76,1.02,5.49,1.47,8.25c0.42,2.58,1.72,4.76,2.93,7c0.23,0.42,0.43,0.85,0.64,1.27
				c-0.08,0.09-0.16,0.19-0.25,0.28c-0.36-0.26-0.76-0.47-1.05-0.78c-0.36-0.39-0.57-0.86-1.3-0.66c-0.65,0.18-0.89-0.4-1.01-0.91
				c-0.44-1.75-0.73-3.55-1.29-5.26c-1.98-6.07-2.26-12.35-2.47-18.65c-0.12-3.5-0.45-6.99-0.71-10.48
				c-0.36-4.81-0.73-9.62-1.1-14.43c-0.07-0.93-0.19-1.85-0.29-2.77c0.13-0.55,0.37-1.1,0.35-1.64c-0.04-0.82-0.33-1.62-0.41-2.44
				c-0.17-1.78-0.26-3.57-0.41-5.36c-0.07-0.77-0.2-1.54-0.3-2.31c-0.11,0.01-0.21,0.02-0.32,0.03
				C50.48,63.35,50.85,67.27,51.22,71.18z M30.77,40.84c-0.44-0.02-0.89-0.03-1.31-0.04c-0.38,1.21,0.02,1.92,1.21,1.98
				c1.02,0.05,2.05-0.1,3.08-0.12c0.8-0.02,1.16-0.43,1.22-1.14c-1.42-0.24-2.82-0.47-4.22-0.7c0.61,0.02,1.22,0.04,1.83,0.06
				c-0.85-0.45-1.67-0.99-2.66-0.93c-0.04,0.09-0.08,0.18-0.11,0.27C30.12,40.42,30.44,40.63,30.77,40.84z M46.47,24.21
				c0.2,0.13,0.44,0.21,0.58,0.39c1.55,2,1.55,2,4.01,1.28c0.08-0.02,0.14-0.11,0.11-0.08c-0.16-0.65-0.29-1.23-0.44-1.8
				c-0.13-0.52-0.31-0.87-1-0.65c-0.66,0.21-1.39,0.22-2.07,0.38c-0.41,0.1-0.79,0.33-1.19,0.5c-0.75-0.46-1.34-0.1-2.08,0.3
				C45.88,25.06,45.88,25.06,46.47,24.21z M40.28,112.63c0.1,0.01,0.2,0.03,0.31,0.04c0.25-1.47,0.48-2.95,0.77-4.41
				c0.26-1.33,0.75-2.63,0.88-3.97c0.31-3.25,0.49-6.52,0.69-9.78c0.21-3.24,0.42-6.47,0.56-9.72c0.21-4.69,0.35-9.38,0.52-14.07
				c0.08-2.18,0.15-4.36,0.22-6.55c-0.12,0-0.23-0.01-0.35-0.01c-1.45,13.63-1.83,27.32-2.3,41c-0.01-0.32-0.02-0.64-0.03-0.97
				c-0.08,0-0.15-0.01-0.23-0.01C40.97,107,40.63,109.82,40.28,112.63z M33.88,33.03c-0.46,0.73-0.24,1.2,0.31,1.49
				c0.76,0.4,1.59,0.69,2.35,1.09c1.1,0.58,2.23,1.14,3.22,1.88c0.69,0.52,1.27,1.41,0.81,2.29c-0.56,1.07-1.33,2.07-2.61,2.43
				c-0.77,0.21-1.57,0.33-2.33,0.58c-0.31,0.1-0.54,0.43-0.8,0.66c0.23,0.27,0.43,0.69,0.71,0.76c0.55,0.15,1.18,0.24,1.71,0.09
				c0.84-0.23,1.94-0.45,2.37-1.06c0.64-0.91,1.21-1.69,2.56-1.91c-1-1.47-1.72-2.89-0.14-4.33c-0.3-0.09-0.41-0.15-0.53-0.15
				c-1.66-0.06-1.64-0.05-1.53-1.76c0.01-0.21-0.25-0.55-0.47-0.64c-0.35-0.14-0.76-0.09-1.14-0.17
				C36.87,33.93,35.16,34.45,33.88,33.03z M57.76,31.42c-0.09,0.01-0.37-0.64-0.32-0.96c0.15-1.14-1.5-2.17-2.54-1.38
				c-0.49,0.37-1,0.72-1.43,1.15c-0.18,0.18-0.3,0.62-0.2,0.82c0.2,0.39,0.52,0.9,0.88,0.99c1.17,0.28,2.37,0.41,3.56,0.58
				c0.64,0.09,1.28,0.15,2.09,0.24c-0.4-0.61-0.71-1.08-1.02-1.55c1.06-0.57,3.05,0.54,3.15,1.68c0.02,0.24,0.21,0.46,0.32,0.69
				c0.16-0.16,0.42-0.3,0.47-0.5c0.2-0.82,0.82-1,1.51-1.1c0.25-0.04,0.51-0.03,0.77-0.04c0.01-0.1,0.03-0.2,0.04-0.3
				c-2.17-1.48-4.79-1.58-7.21-2.36C57.8,30.22,57.78,30.82,57.76,31.42z M52.92,17.37c1.35-0.62,2.51-1.52,3.38-2.7
				c0.74-1.01,0.26-1.88-1.03-1.98c-0.89-0.07-1.8,0.02-2.7,0.06c-1.55,0.08-2.57,0.52-2.4,2.32c0.19,1.93,0.2,2.07,1.97,1.23
				c0.05-0.02,0.12,0,0.27,0.01C52.56,16.62,52.72,16.95,52.92,17.37z M33.15,22.65c-0.01,0.1-0.05,0.18-0.02,0.22
				c1.45,2.01,3.28,3.41,5.82,3.76c1.65,0.23,2.88-0.61,4.12-1.45c0.14-0.1,0.17-0.37,0.24-0.54c-0.12-0.09-0.16-0.15-0.22-0.16
				c-1.51-0.33-3.16-0.19-4.35-1.48c-0.08-0.09-0.41,0.04-0.62,0.06C36.43,23.28,34.75,23.47,33.15,22.65z M45.51,87.01
				c0.1,0,0.21,0,0.31,0c0.69-8.18,0.76-16.35-0.34-24.52c-0.27,1.34-0.52,2.67-0.62,4.02c-0.07,0.92-0.2,2,0.19,2.75
				c0.41,0.8,0.38,1.52,0.37,2.29c-0.03,2.38-0.12,4.76-0.1,7.13c0.02,2.22,0.16,4.43,0.23,6.65
				C45.58,85.89,45.53,86.45,45.51,87.01z M20.01,51.28c-1.14-0.37-1.88-0.2-2.64,0.49c-1.48,1.34-1.73,3.02-1.29,4.85
				c0.05,0.2,0.37,0.45,0.57,0.47c1.72,0.09,3.44,0.14,5.28,0.2c-0.93-1.1-1.81-1.99-2.51-3C18.41,52.81,18.55,52.26,20.01,51.28z
				 M32.37,64.38c1.94,1.34,3.85,2.67,5.75,3.99c0.22-0.95,0.49-2.05,0.81-3.43c-0.5,0.16-0.87,0.37-1.24,0.36
				c-0.53-0.01-1.14-0.04-1.55-0.31c-0.53-0.34-0.36-0.99,0.07-1.33c0.73-0.57,0.59-1.26,0.51-2.07c-0.66-0.06-1.29-0.15-1.92-0.14
				c-0.23,0-0.65,0.24-0.66,0.38C34.11,63.1,33.33,63.85,32.37,64.38z M43.43,53.92c0.18,0.69,0.37,1.14,0.39,1.61
				c0.03,0.6,0.25,0.79,0.77,0.51c0.49-0.27,0.95-0.6,1.44-0.92c0.96,0.53,1.93,1.06,2.95,1.62c0.46-0.58,0.96-1.22,1.55-1.98
				c-0.25-0.55-0.57-1.24-0.97-2.11c-0.78,1.06-1.53,1.72-2.57,1.42c-0.39-0.11-0.61-0.76-1.03-1.32
				C45.08,52.82,43.8,52.68,43.43,53.92z M36.16,12.9c0.12,0.5,0.45,0.94,0.79,1.31c0.36,0.39,0.87,0.65,1.3,0.98
				c0.51,0.4,0.84,0.27,1.29-0.18c0.81-0.83,0.45-2.26,1.57-2.9c0.03-0.02-0.03-0.18-0.03-0.27c-0.02-1.04-0.88-0.92-1.48-0.97
				C37.8,10.73,35.78,11.27,36.16,12.9z M46.13,38.36c0.05,0.29,0.03,0.59,0.16,0.79c0.91,1.41,2.05,2.5,3.87,2.48
				c0.48,0,0.83,0.05,0.85,0.64c0,0.1,0.12,0.23,0.22,0.29c0.62,0.4,2.71,0.16,3.38-0.37c-0.81-1.75-0.81-1.75-2.66-1.48
				c-1.13,0.17-2.24-0.05-2.85-1.01C48.38,38.59,47.38,38.46,46.13,38.36z M19.75,65.18c-0.1,0.6,0.13,1.18,0.65,1.61
				c1.18,0.97,2.53,0.86,3.86,0.55c0.63-0.15,1.27-0.48,1.78-0.89c0.59-0.48,0.44-1.11-0.28-1.42c-0.33-0.14-0.73-0.19-1.1-0.17
				C23.03,64.94,21.41,65.06,19.75,65.18z M33.7,60.89c-0.13-1.25-1.19-2.94-2.11-3.54c-1.04-0.68-1.82,0.06-2.68,0.41
				c-0.06,0.02-0.12,0.05-0.18,0.06c-0.64,0.17-0.8,0.63-0.74,1.29c1.12,0.16,2.2,0.32,3.27,0.47c0.05,0.05,0.1,0.1,0.15,0.15
				c-0.29,0.1-0.59,0.21-0.73,0.26C31.43,61.68,32.53,61.34,33.7,60.89z M40.94,31.32c0.66-0.1,1.34-0.13,1.98-0.32
				c0.3-0.09,0.79-0.53,0.75-0.68c-0.25-0.83,0.33-1.85-0.55-2.51c-0.09-0.07-0.24-0.08-0.37-0.1c-1.43-0.24-3.12,0.9-3.47,2.29
				c-0.2,0.8,0.2,1.14,0.89,1.27C40.4,31.31,40.93,31.29,40.94,31.32z M20.51,67.7c-0.47-0.79-0.94-1.37-1.17-2.03
				c-0.36-0.99-1.1-1.36-2-0.81c-0.68,0.42-1.34,0.88-2.01,1.33c-0.73,0.49-0.71,1.03,0.09,1.41c0.28,0.14,0.61,0.26,0.92,0.26
				C17.72,67.83,19.12,67.76,20.51,67.7z M23.84,53.23c-0.02-0.08-0.04-0.16-0.06-0.24c-0.76-0.32-1.5-0.78-2.3-0.92
				c-0.55-0.1-1.37,0.07-1.71,0.45c-0.27,0.3-0.19,1.2,0.06,1.64c0.69,1.19,1.65,2.18,2.95,2.9C22.99,55.67,21.68,54,23.84,53.23z
				 M39.53,54.37c-0.11-0.01-0.21-0.02-0.32-0.03c-1.24,1.1-2.11,4.75-1.63,6.82c1.18,0.07,2.72-1.38,2.92-2.76
				c-1.57-0.5-1.76-0.97-1.17-2.64C39.49,55.32,39.47,54.83,39.53,54.37z M36.82,61.07c0.09-0.92,0.1-1.6,0.24-2.25
				c0.29-1.37,0.52-2.77,1.03-4.06c0.42-1.06,0.49-1.31-0.6-1.67c-0.42-0.14-0.89-0.15-1.4-0.22c0.07,0.21,0.08,0.31,0.13,0.39
				c0.92,1.75,0.84,2.15-0.56,3.59c-0.22,0.22-0.35,0.63-0.35,0.95C35.31,59,35.8,60.01,36.82,61.07z M31.44,61.48
				c-0.43-0.38-0.81-0.86-1.31-1.1c-0.68-0.32-1.66-0.83-2.16-0.08c-0.47,0.69-0.59,1.73-0.56,2.61c0.02,0.73,0.78,0.96,1.53,0.68
				C29.97,63.2,30.93,62.73,31.44,61.48z M47.28,31.99c-0.13,0.05-0.37,0.09-0.53,0.23c-0.79,0.67-0.77,1.62-0.61,2.48
				c0.06,0.3,0.73,0.52,1.15,0.72c0.31,0.15,0.74,0.38,0.99,0.28c0.59-0.24,1.42-0.55,1.58-1.03C50.15,33.84,48.3,32.01,47.28,31.99
				z M48.48,51.85c0.2-0.45,0.45-0.99,0.69-1.52c-0.82-0.67-1.6-1.32-2.39-1.1c-0.68-0.33-1.13-0.54-1.67-0.8
				c-0.11,0.67-0.2,1.05-0.23,1.43c-0.1,1.26,0.56,2.09,1.62,2.06C47.14,51.91,47.77,51.88,48.48,51.85z M64.59,37.35
				c1.58,0.1,4.01-1.02,4.16-2.13c0.04-0.29,0.07-0.68-0.08-0.89c-0.64-0.89-1.6-1.24-2.84-1.52C66.97,34.81,65.55,36,64.59,37.35z
				 M40.32,34c0.02-1.17-0.2-2.06-1.32-2.08c-1.33-0.03-2.67,0.14-4,0.28c-0.18,0.02-0.5,0.44-0.46,0.5
				c0.17,0.28,0.41,0.66,0.67,0.7C36.88,33.64,38.57,33.8,40.32,34z M57.76,23.63c-1.48-0.02-2.94,1.95-2.49,3.15
				c0.1,0.27,0.73,0.61,0.92,0.52c0.79-0.38,1.6-0.82,2.2-1.44c0.32-0.33,0.36-1.09,0.25-1.6C58.56,23.96,57.97,23.77,57.76,23.63z
				 M45.7,20.9c-0.39-0.74-0.56-1.52-1.04-1.86c-0.8-0.57-1.77-0.96-2.73-1.18c-0.2-0.05-0.65,0.97-0.98,1.49
				c-0.02,0.03-0.05,0.07-0.05,0.08c0.14,0.28,0.25,0.77,0.44,0.81C42.67,20.5,44.02,20.66,45.7,20.9z M42.2,57.73
				c-0.11-0.03-0.21-0.05-0.32-0.08c-0.84,1.21-1.68,2.42-2.46,3.55c0.37,0.24,0.94,0.5,1.39,0.91c0.36,0.33,0.58,0.83,0.86,1.25
				c0.13-0.04,0.27-0.09,0.4-0.13C42.81,61.42,42.1,59.57,42.2,57.73z M52.25,29.7c-0.02-0.08-0.05-0.17-0.07-0.25
				c-2.24,0.67-4.47,1.34-6.68,2.01c-0.03,0.8-0.06,1.76-0.09,2.72c0.33-0.66,0.47-1.33,0.65-2c0.2-0.72,0.65-0.94,1.39-0.74
				c1.16,0.32,1.98,1.03,2.52,2.08c0.2,0.39,0.41,0.78,0.61,1.17C49.82,31.87,50.1,30.99,52.25,29.7z M61.3,59.06
				c0.63-0.92,1.16-1.68,1.68-2.45c0.22-0.32,0.67-0.76,0.58-0.95c-0.16-0.33-0.61-0.65-0.99-0.72c-1.27-0.24-2.16,0.48-2.97,1.3
				C60.22,57.26,60.78,58.19,61.3,59.06z M30.95,39.01c0.03,0.16,0.06,0.32,0.08,0.48c1.52,0.46,3.09,0.68,4.63,0.06
				c0.42-0.17,0.63-0.87,0.94-1.33c-0.5-0.2-1.07-0.66-1.5-0.56C33.69,38,32.33,38.54,30.95,39.01z M50.63,52.22
				c0.03,0.45-0.02,0.8,0.09,1.09c0.2,0.56,0.44,1.1,0.76,1.6c0.1,0.17,0.54,0.29,0.72,0.21c1.09-0.48,2.3-3.38,1.22-4.61
				C51.45,52.47,51.45,52.47,50.63,52.22z M19.66,64.09c0.04,0.12,0.09,0.24,0.13,0.35c1.27,0.48,4.11,0.17,5.17-0.61
				c-0.4-0.49-0.76-1.02-1.21-1.45c-0.29-0.27-0.78-0.63-1.06-0.54c-0.45,0.14-1.2,0.28-0.95,1.16c0.03,0.11-0.41,0.4-0.66,0.52
				C20.62,63.75,20.14,63.91,19.66,64.09z M52.65,37.17c-0.04,0.14-0.08,0.27-0.13,0.41c0.31,0.59,0.59,1.19,0.94,1.76
				c0.11,0.18,0.42,0.37,0.6,0.33c0.74-0.16,1.48-0.36,2.19-0.64c0.21-0.08,0.46-0.52,0.4-0.7c-0.13-0.38-0.41-0.96-0.69-1
				C54.87,37.17,53.75,37.2,52.65,37.17z M53.39,39.79c-0.55-0.78-0.93-1.87-1.54-2.03c-0.98-0.26-2.19-0.08-3,0.87
				C49.94,40.05,50.97,40.34,53.39,39.79z M60.96,35.85c-1.39,2.27-1.39,2.27,0.71,3.7c0.1,0.07,0.23,0.09,0.33,0.14
				C63.31,37.67,62.94,36.31,60.96,35.85z M17.86,61.78c0-0.02,0-0.04,0-0.06c-0.32-0.01-0.72-0.15-0.94-0.01
				c-0.43,0.27-0.75,0.69-1.12,1.05c0.26,0.26,0.5,0.56,0.78,0.78c1.16,0.91,2.09,0,3.05-0.45c0.21-0.1,0.48-0.55,0.41-0.69
				c-0.13-0.28-0.45-0.57-0.75-0.64C18.84,61.67,18.34,61.76,17.86,61.78z M16.74,60.41c1.5-0.89,2.77-1.64,4.05-2.39
				c-0.05-0.09-0.09-0.19-0.14-0.28c-1.4-0.05-2.81-0.1-4.35-0.15C16.46,58.63,16.59,59.46,16.74,60.41z M44.43,22.29
				c0.1,0.91,0.41,1.42,1.37,1.13c0.21-0.06,0.45-0.01,0.67-0.04c0.98-0.16,1.96-0.34,3.03-0.52c-0.69-1.66-2.29-0.33-3.14-1.29
				C46.2,21.39,45.13,22.02,44.43,22.29z M32.87,22.09c2.05,0.77,3.98,0.72,6.1,0.05C37.08,20.97,33.61,20.92,32.87,22.09z
				 M25.7,54.32c-0.62-0.3-1.16-0.88-1.88-0.16c-0.71,0.71-0.76,1.61-0.27,2.27c0.32,0.43,1.21,0.45,1.98,0.69
				c0.02-0.71,0.03-1.12,0.05-1.53C25.61,55.18,25.66,54.77,25.7,54.32z M51.28,30.89c-0.15,0.25-0.22,0.37-0.29,0.48
				c-0.57,0.79-0.52,2.26,0.24,2.83c0.33,0.25,0.95,0.24,1.41,0.15c0.33-0.06,0.51-1.62,0.25-1.89
				C52.43,31.98,51.93,31.53,51.28,30.89z M30.55,51.69c-1.15-1.25-3.92-0.38-5.58,0.34c0.17,0.62,0.47,0.92,1.19,0.69
				c0.45-0.14,0.97-0.08,1.43-0.19C28.54,52.29,29.48,52,30.55,51.69z M32.8,57.45c0.5,1.16,0.97,2.26,1.46,3.33
				c0.06,0.14,0.27,0.27,0.43,0.29c0.43,0.05,0.86,0.04,1.07,0.05c-0.36-1.2-0.68-2.34-1.05-3.46c-0.06-0.18-0.35-0.39-0.52-0.39
				C33.69,57.29,33.19,57.4,32.8,57.45z M45.6,19.2c0.14,0.53,0.16,1.1,0.44,1.48c0.25,0.34,0.75,0.62,1.19,0.7
				c1.46,0.27,1.51-1.1,2.12-1.83C48.07,19.43,46.87,19.32,45.6,19.2z M41.25,57.36c0.48-0.5,0.93-0.76,1-1.09
				c0.13-0.66,0.06-1.36,0.03-2.04c-0.02-0.47,0.02-1.04-0.71-1c-0.57,0.03-1.3,0.01-1.16,0.87C40.58,55.08,40.9,56.04,41.25,57.36z
				 M44.39,36.97c-0.1-0.87-0.15-1.57-0.27-2.25c-0.14-0.84-1.16-1.17-1.82-0.61c-0.24,0.2-0.48,0.5-0.75,0.55
				c-0.75,0.12-0.73,0.68-0.66,1.15c0.02,0.12,0.73,0.22,1.11,0.17c0.28-0.04,0.53-0.32,0.78-0.5c0.22-0.15,0.43-0.31,0.63-0.45
				c0.91,0.78,0.37,1.18-0.46,1.59C43.5,36.75,43.85,36.84,44.39,36.97z M36.76,36.43c0.35,0.96,0.62,1.73,0.92,2.48
				c0.05,0.12,0.22,0.23,0.35,0.27c0.59,0.17,1.2,0.32,1.82,0.48C40.51,38.51,39.59,37.46,36.76,36.43z M46.03,30.68
				c1.39-0.4,2.63-0.75,3.88-1.11c-1.02-0.57-1.7-1.79-2.82-1.3C46.74,29.08,46.45,29.72,46.03,30.68z M41.72,50.62
				c0.2,0.65,0.3,1.12,0.49,1.56c0.11,0.25,0.37,0.62,0.56,0.61c0.29-0.01,0.67-0.22,0.86-0.46c0.57-0.73,0.4-1.44-0.24-2.05
				c-0.2-0.19-0.56-0.47-0.71-0.41C42.31,50.04,42.01,50.38,41.72,50.62z M64.94,63.17c-0.01-0.13-0.03-0.26-0.04-0.39
				c-0.37-0.14-0.75-0.44-1.09-0.4c-0.72,0.09-1.44,0.3-2.1,0.6c-0.24,0.11-0.45,0.63-0.41,0.94c0.03,0.2,0.59,0.54,0.79,0.47
				C63.05,64.04,63.99,63.58,64.94,63.17z M30.67,36.94c0.49-0.23,0.97-0.36,1.33-0.64c0.25-0.2,0.53-0.66,0.46-0.89
				c-0.11-0.33-0.49-0.69-0.83-0.81c-0.73-0.26-1.21,0.2-1.53,0.81c-0.14,0.28-0.34,0.66-0.24,0.9
				C29.95,36.57,30.35,36.72,30.67,36.94z M39.94,19.93c0.39-0.62,0.65-1.01,0.88-1.42c0.61-1.1,0.6-1.13-0.47-1.61
				c-0.38,0.2-0.76,0.3-1,0.55c-0.28,0.3-0.69,0.82-0.59,1.06C38.96,19.01,39.46,19.39,39.94,19.93z M49.59,27
				c0.56,1.22,1.59,1.2,2.52,1.32c0.24,0.03,0.67-0.3,0.76-0.55c0.08-0.23-0.09-0.67-0.3-0.87C51.57,25.97,50.61,26.65,49.59,27z
				 M43.57,37.52c-1.04-0.06-1.37,0.28-1.44,1.25c-0.04,0.59,0.14,0.94,0.78,0.93c0.71-0.01,1.46-0.14,1.56-0.94
				C44.56,38.15,44.38,37.42,43.57,37.52z M60.2,35.82c-1.81-0.71-2.32-0.7-2.6,0c-0.17,0.42,0.5,1.57,1.14,1.63
				C59.81,37.56,59.8,36.53,60.2,35.82z M58.19,33.23c-0.02,0.65-0.04,1.09-0.05,1.58c0.43,0.11,0.83,0.2,1.24,0.3
				C60.58,35.43,59.13,33.46,58.19,33.23z M48.71,27.66c-0.55-0.63-0.97-1.14-1.42-1.63c-0.76-0.82-0.98-0.78-1.69,0.22
				C46.27,27.19,46.92,28.17,48.71,27.66z M26.62,54.45c-0.16,0.08-0.32,0.15-0.48,0.23c-0.05,0.56-0.18,1.12-0.14,1.66
				c0.03,0.39,0.27,1.06,0.48,1.08c0.4,0.05,0.98-0.16,1.23-0.47c0.17-0.21-0.02-0.81-0.19-1.17
				C27.29,55.31,26.93,54.89,26.62,54.45z M39.9,21.13c0.33,0.46,0.6,0.84,0.92,1.28c-0.55,0.21-0.91,0.35-1.49,0.57
				c0.7,0.29,1.18,0.49,1.57,0.66c0.44-0.68,0.82-1.27,1.2-1.87C40.87,20.7,40.3,20.56,39.9,21.13z M30.97,54.68
				c-0.11-0.91-0.61-1.38-1.36-1.48c-0.31-0.04-0.7,0.25-0.97,0.48c-0.07,0.06,0.14,0.53,0.31,0.74c0.22,0.27,0.51,0.48,0.81,0.67
				c0.24,0.15,0.61,0.38,0.79,0.3C30.77,55.28,30.86,54.89,30.97,54.68z M67,64.47c-0.72-0.32-1.34-0.84-1.89-0.79
				c-0.64,0.07-1.23,0.65-2.05,1.13C64.52,65.23,65.69,65.47,67,64.47z M49.58,16.91c-1.58-0.17-3.16-0.34-4.99-0.53
				C45.82,17.73,48.09,17.97,49.58,16.91z M65.38,62.54c0.86-1.19,0.57-2.32-0.86-3.64c-0.24,0.32-0.49,0.63-0.75,0.97
				c1.42,0.33,1.55,0.7,0.71,2.05C64.79,62.13,65.09,62.33,65.38,62.54z M42.28,42.7c-0.06-0.02-0.11-0.05-0.17-0.07
				c-0.41,0.3-0.85,0.57-1.22,0.92c-0.32,0.3-0.82,0.78-0.74,1.04c0.14,0.49,0.64,0.88,0.96,1.28
				C41.56,44.67,41.92,43.68,42.28,42.7z M39.48,51.89c-1.09-0.74-2.23-1.02-3.51-0.84C36.16,52.31,37.84,52.7,39.48,51.89z
				 M43.85,93.81c-0.08,0-0.17,0-0.25,0c-0.73,2.31-0.02,4.6,0.03,6.66C43.69,98.41,43.77,96.11,43.85,93.81z M42.59,42.01
				c0.75,0.03,1.33,0.05,1.97,0.07c-0.04-0.55-1.5-1.56-2.18-1.5c-0.01,0.17-0.03,0.3-0.01,0.42
				C42.44,41.37,42.53,41.74,42.59,42.01z M21.43,58.82c-0.7,0.22-1.46,1.47-1.08,1.66c0.62,0.31,1.42,0.26,2.15,0.36
				c0.02-0.1,0.03-0.19,0.05-0.29C22.17,59.97,21.8,59.39,21.43,58.82z M37.29,63.09c1.2-0.27,2.24,0.03,3.04-0.85
				c-0.93-0.63-1.84-0.67-2.73-0.33C37.42,61.97,37.42,62.53,37.29,63.09z M33.67,61.81c-0.15-0.06-0.47-0.28-0.56-0.21
				c-0.67,0.53-1.31,1.1-1.92,1.69c-0.04,0.04,0.15,0.5,0.29,0.54C32.03,63.97,33.62,62.59,33.67,61.81z M46.22,6.69
				c-0.61,0.3-1.22,0.81-2.05,1.12c-0.84,0.32,1.33,1.51,2.13,1.17C46.99,8.7,47.15,6.24,46.22,6.69z M26.75,62.08
				c0.26-0.84,0.52-1.66,0.79-2.52c-0.98,0.56-1.88,1.08-2.74,1.58C25.41,61.44,26.09,61.76,26.75,62.08z M62.15,59.86
				c0.11,0.07,0.22,0.14,0.34,0.21c0.92-0.43,1.55-1.13,1.75-2.17c0.03-0.18-0.04-0.48-0.17-0.55c-0.14-0.08-0.52-0.04-0.58,0.07
				C63.01,58.21,62.59,59.04,62.15,59.86z M55.08,42.09c0.63-0.86,1.12-1.5,1.6-2.15c-0.09-0.09-0.17-0.19-0.26-0.28
				c-0.76,0.25-1.52,0.5-2.39,0.79C54.38,41,54.67,41.44,55.08,42.09z M42.11,14.6c0.07-0.37-0.39-0.67-0.67-0.91
				c-0.11-0.09-0.57,0.02-0.68,0.17c-0.46,0.63-0.85,1.31-1.27,1.97c0.07,0.09,0.1,0.26,0.22,0.28
				C40.59,16.28,41.91,15.64,42.11,14.6z M59.26,41.82c1.03-0.35,1.8-0.58,2.17-1.35c-0.64-0.51-1.14-0.92-1.72-1.38
				c0.02,0.51,0.1,0.93,0.04,1.32C59.7,40.8,59.5,41.18,59.26,41.82z M46.24,40.37c-0.19,1.4-0.38,2.8-0.58,4.2
				c0.15,0.06,0.29,0.11,0.44,0.17c0.17-0.28,0.49-0.55,0.49-0.83C46.62,42.75,46.34,40.39,46.24,40.37z M45.73,9.7
				c-0.41-1.05-2.03-0.28-3.12-0.43C43.46,10.88,46.37,11.33,45.73,9.7z M44.12,33.39c-0.42-0.71,0.31-1.65-0.81-1.77
				c-0.44-0.04-1.06-0.07-1.05,0.76C42.3,33.65,43.23,33.16,44.12,33.39z M42.11,13.68c0.21,0.39,0.21,0.96,0.59,1.09
				c1.39,0.48,2.45-1.97,1.16-2.38C43.17,12.18,42.72,13.23,42.11,13.68z M22.2,58.71c0.27,1.48,0.82,2.05,1.73,1.68
				c-0.32-0.5-0.64-0.98-1-1.54c0.6-0.06,1.09-0.11,1.68-0.17C23.63,57.74,22.97,58.73,22.2,58.71z M19.98,59.02
				c-0.85,0.57-1.6,1.08-2.5,1.68C19.79,61.22,20.17,60.95,19.98,59.02z M58.63,65.07c0.05,0.11,0.1,0.22,0.15,0.33
				c0.7-0.12,1.39-0.25,2.12-0.38c-0.21-0.62-0.35-1.03-0.57-1.67C59.7,63.99,59.16,64.53,58.63,65.07z M42.67,43.62
				c-0.13,0-0.26,0-0.39-0.01c-0.02,0.64-0.31,1.61-0.01,1.85c0.59,0.47,1.15-0.18,1.63-0.73C43.45,44.33,43.06,43.98,42.67,43.62z
				 M48.77,47.85c-0.74,1.38-0.74,1.38,1.19,2.28C49.75,49.25,50,48.23,48.77,47.85z M54.39,32.86c-0.02,0.12-0.05,0.25-0.07,0.37
				c0.61,0.33,1.21,0.66,1.84,1.01C56.45,33.77,55.19,32.84,54.39,32.86z M47.83,44.65c-0.78,1.19-0.66,2.82,0.27,3.46
				C48.01,46.96,47.92,45.8,47.83,44.65z M58.88,59.37c0.19,0.74,0.18,1.55,0.48,1.69c0.57,0.27,1.28,0.06,1.71-0.64
				C60.4,60.09,59.8,59.81,58.88,59.37z M47.78,70.97c0.1-0.01,0.2-0.01,0.3-0.02c-0.31-1.68,0.14-3.4-0.17-5.09
				c-0.16,0.01-0.31,0.02-0.47,0.03C47.55,67.59,47.67,69.28,47.78,70.97z M30.83,20.07c-0.08,0.12-0.15,0.24-0.23,0.36
				c0.49,0.4,0.93,0.89,1.49,1.15c0.16,0.07,0.63-0.54,1.14-1.01C32.23,20.36,31.53,20.21,30.83,20.07z M43.76,104.43
				c-0.08,0-0.16,0-0.24-0.01c-0.06,1.78-0.12,3.57-0.18,5.35c0.08,0,0.16,0,0.24,0.01C43.64,108,43.7,106.21,43.76,104.43z
				 M41.38,10.03c0.13,0.69,0.25,1.38,0.39,2.15c0.41-0.25,1.28-0.19,1.36-0.83C43.21,10.62,41.49,10,41.38,10.03z M38.6,41.29
				c-0.02-0.08-0.05-0.16-0.07-0.23c-2.27,0.05-3.01,0.34-2.99,1.22C36.57,41.95,37.58,41.62,38.6,41.29z M45.5,11.46
				c0.18,0.37,0.86,0.7,1.03,0.6c0.46-0.27,1.11-0.64,1.14-1.2C47.67,10.75,45.45,11.37,45.5,11.46z M42.1,23.21
				c0.55,0.6,1.16,0.46,1.74,0.25c0.05-0.02,0.02-0.6-0.13-0.72C43.08,22.26,42.54,22.44,42.1,23.21z M54.82,34.21
				c0.62,0.86,1.1,1.52,1.71,2.35C56.74,35.03,56.35,34.49,54.82,34.21z M49.23,43.89c0.12-0.05,0.24-0.1,0.36-0.15
				c-0.06-0.39-1.5-1.07-1.55-0.86C47.74,44.05,49.15,43.06,49.23,43.89z M44.85,21.52c-0.01-0.08-0.01-0.17-0.02-0.25
				c-1.03-0.19-2.05-0.38-3.08-0.58C41.74,20.79,43.67,22.12,44.85,21.52z M57.7,41.68c1.18-0.48,1.57-1.45,1.09-2.57
				C58.38,40.07,58.04,40.87,57.7,41.68z M57.06,40.02c0.13,0.03,0.26,0.06,0.38,0.09c0.28-0.7,0.63-1.38,0.8-2.11
				c0.04-0.15-0.6-0.46-0.92-0.7c-0.09,0.05-0.18,0.11-0.27,0.16C57.94,38.32,57.57,39.17,57.06,40.02z M40.79,57.57
				c-0.19-0.86-0.31-1.42-0.43-1.97c-0.14,0-0.27,0.01-0.41,0.01c-0.07,0.5-0.19,1-0.18,1.5C39.78,57.23,40.24,57.33,40.79,57.57z
				 M44.72,73.5c-0.06-0.01-0.13-0.01-0.19-0.02c-0.06,1.77-0.12,3.53-0.18,5.3c0.06,0,0.13,0,0.19,0
				C44.6,77.02,44.66,75.26,44.72,73.5z M40.74,33.58c1.03-0.06,1.23-0.51,0.98-1.09c-0.08-0.19-0.46-0.24-0.7-0.36
				C40.93,32.61,40.84,33.09,40.74,33.58z M24.33,60.39c0.57-0.55,1-0.97,1.43-1.39c-0.06-0.05-0.12-0.1-0.18-0.15
				c-0.57,0.17-1.14,0.34-1.8,0.54C23.95,59.7,24.1,59.96,24.33,60.39z M46.5,45.39c-1.29,0.05-1.53,0.63-0.93,1.96
				C45.9,46.66,46.16,46.1,46.5,45.39z M61.05,59.59c-0.45-0.62-0.88-1.21-1.35-1.84C59.12,58.83,59.65,59.5,61.05,59.59z
				 M28.06,54.31c0.13,1.18,1.17,1.85,1.89,1.44C29.36,55.31,28.8,54.88,28.06,54.31z M47.87,61.18c-0.11,0.01-0.21,0.01-0.32,0.02
				c0.04,1.15,0.08,2.3,0.12,3.45c0.11-0.01,0.22-0.01,0.34-0.02C47.96,63.47,47.92,62.32,47.87,61.18z M48.84,18.01
				c-0.06,0.1-0.13,0.2-0.19,0.3c0.43,0.25,1.36-0.07,1.41-0.58C49.49,17.86,49.16,17.93,48.84,18.01z M40.46,64.76
				c0.36-0.42,0.66-0.76,0.95-1.11c-0.05-0.09-0.11-0.17-0.16-0.26c-0.48,0.06-0.97,0.11-1.48,0.17
				C40.03,64.02,40.2,64.3,40.46,64.76z M44.65,26.39c-0.07,0.09,0.39,1.23,0.79,1.87c0.27-0.25,0.46-0.44,0.8-0.75
				C45.6,27.06,45.13,26.72,44.65,26.39z M47.52,59.43c0.8-0.94,0.75-1.85,0.08-2.32C47.57,57.87,47.55,58.65,47.52,59.43z
				 M65.09,34.81c0.11-0.56,0.19-0.99,0.27-1.42c-0.08-0.06-0.16-0.12-0.24-0.18C64.72,33.44,64.61,34.5,65.09,34.81z M63.12,61.86
				c-0.47-0.35-0.73-0.54-1.07-0.79c-0.3,0.49-0.56,0.92-0.82,1.35c0.06,0.05,0.12,0.11,0.18,0.16
				C61.92,62.37,62.42,62.16,63.12,61.86z M37.87,17.16c-0.5,0.36-1.08,0.43-1.12,0.81c-0.03,0.4,0.56,0.58,0.84,0.86
				c0.07-0.05,0.15-0.09,0.22-0.14C37.83,18.28,37.85,17.86,37.87,17.16z M49.92,50.97c-0.09-0.02-0.19-0.04-0.28-0.06
				c-0.12,0.35-0.4,0.74-0.32,1.05c0.07,0.3,0.5,0.52,0.77,0.77c0.08-0.06,0.16-0.11,0.24-0.17C50.19,52.04,50.05,51.5,49.92,50.97z
				 M46.47,62.22c-0.11,0.01-0.23,0.01-0.34,0.02c0.08,1.17,0.16,2.35,0.24,3.52c0.08,0,0.17-0.01,0.25-0.01
				C46.57,64.58,46.52,63.4,46.47,62.22z M39.14,40.4c-0.95-0.83-1.49-0.74-2.04,0.28C37.76,40.59,38.36,40.51,39.14,40.4z
				 M26.9,59.49c-0.09-0.14-0.19-0.28-0.28-0.43c-0.56,0.42-1.11,0.83-1.67,1.25c0.07,0.11,0.15,0.21,0.22,0.32
				C25.75,60.25,26.32,59.87,26.9,59.49z M59.46,61.78c-0.04,0.11-0.07,0.23-0.11,0.34c0.29,0.16,0.58,0.31,0.88,0.47
				c0.17-0.35,0.33-0.69,0.5-1.04c-0.08-0.05-0.16-0.1-0.23-0.16C60.15,61.52,59.81,61.65,59.46,61.78z M63.5,35.95
				c0.41-0.09,0.54-1.06,0.05-1.49C63.52,35.1,63.51,35.46,63.5,35.95z M26.01,53.34c0.02,0.08,0.03,0.16,0.05,0.25
				c1.91,0.06,1.91,0.06,1.95-0.59C27.33,53.11,26.67,53.23,26.01,53.34z M43.55,25.84c0.62-0.14,1.12-0.25,1.83-0.41
				C44.2,24.78,44.11,24.8,43.55,25.84z M46.6,56.17c-0.16,0.04-0.31,0.08-0.47,0.12c0.15,0.61,0.3,1.21,0.45,1.82
				c0.1-0.02,0.21-0.04,0.31-0.06C46.8,57.42,46.7,56.8,46.6,56.17z M44.01,44.01c0.09-0.04,0.18-0.08,0.27-0.13
				c-0.12-0.38-0.2-0.78-0.39-1.12c-0.04-0.07-0.51,0.11-0.94,0.22C43.4,43.42,43.7,43.72,44.01,44.01z M44.96,44.49
				c-0.09,0-0.17,0-0.26-0.01c-0.29,1.78-0.29,1.78,0.06,2.17C44.83,45.91,44.9,45.2,44.96,44.49z M53.54,27.57
				c-0.01,0.41-0.03,0.83-0.04,1.24c0.21-0.05,0.59-0.11,0.59-0.15C54.08,28.28,53.67,27.56,53.54,27.57z M44.36,58.03
				c0.16,0.08,0.31,0.16,0.47,0.24c0.21-0.39,0.42-0.79,0.63-1.18c-0.17-0.06-0.48-0.21-0.5-0.18
				C44.73,57.26,44.55,57.65,44.36,58.03z M45.47,29.83c0.28-0.4,0.59-1.41,0.45-1.5C45.63,28.73,45.33,29.73,45.47,29.83z
				 M62.61,60.73c0.49,0.39,0.72,0.58,1.03,0.83c0.26-0.3,0.48-0.55,0.7-0.8c-0.04-0.08-0.09-0.16-0.13-0.24
				C63.76,60.57,63.32,60.63,62.61,60.73z M35.72,40.65c0-0.12-0.01-0.24-0.01-0.35c-0.73,0.03-1.46,0.07-2.19,0.1
				c0,0.1,0,0.2,0.01,0.3C34.26,40.67,34.99,40.66,35.72,40.65z M51.17,36.56c0.14-0.05,0.28-0.1,0.42-0.15
				c-0.14-0.4-0.89-0.91-0.87-0.84C50.83,35.91,51.02,36.23,51.17,36.56z M51.18,23.93c0.18,0.38,0.35,0.77,0.56,1.13
				c0.01,0.02,0.3-0.12,0.46-0.18C52.02,24.5,51.34,23.86,51.18,23.93z M39.89,108.45c-0.07,0-0.14,0-0.2,0
				c-0.11,1.07-0.23,2.13-0.34,3.2c0.08,0.01,0.15,0.02,0.23,0.02C39.68,110.6,39.79,109.52,39.89,108.45z M55.62,42.32
				c0.04,0.1,0.08,0.2,0.13,0.3c0.36-0.04,0.71-0.08,1.19-0.13c-0.2-0.42-0.32-0.69-0.49-1.04C56.11,41.79,55.87,42.06,55.62,42.32z
				"/>
			<path class="st0" d="M50.13,70.12c0.02,2.42,0,4.84,0.08,7.26c0.08,2.4,0.23,4.79,0.44,7.18c0.37,4.13,0.82,8.26,1.21,12.39
				c0.17,1.83,0.26,3.66,0.38,5.49c0.02,0.28-0.02,0.57-0.02,0.85c-0.11,0.03-0.21,0.06-0.32,0.09c-0.14-0.38-0.37-0.76-0.39-1.15
				c-0.14-2.38-0.17-4.76-0.37-7.13c-0.23-2.82-0.64-5.62-0.9-8.43c-0.17-1.88-0.21-3.77-0.31-5.66c-0.12-2.2-0.28-4.41-0.33-6.61
				c-0.04-1.44,0.08-2.88,0.13-4.32C49.87,70.09,50,70.1,50.13,70.12z"/>
			<path class="st0" d="M49.72,86.29c-0.03,0.99-0.14,1.99-0.09,2.97c0.23,4.5,0.38,9.01,0.81,13.49c0.37,3.87,1.09,7.7,1.66,11.55
				c0.24,1.59,0.5,3.18,0.72,4.77c0.03,0.23-0.13,0.48-0.21,0.72c-0.21-0.2-0.57-0.37-0.61-0.6c-0.16-0.85-0.18-1.72-0.31-2.58
				c-0.35-2.35-0.82-4.69-1.09-7.05c-0.35-3.1-0.56-6.21-0.79-9.31c-0.21-2.76-0.39-5.52-0.55-8.28c-0.09-1.63-0.12-3.27-0.14-4.9
				c0-0.29,0.19-0.59,0.29-0.88C49.52,86.22,49.62,86.26,49.72,86.29z"/>
			<path class="st0" d="M49.18,122.13c-0.17-0.25-0.46-0.48-0.49-0.74c-0.22-2.14-0.43-4.27-0.56-6.42
				c-0.11-1.95-0.13-3.91-0.17-5.87c-0.06-3.21-0.16-6.43-0.16-9.64c0-3.18,0.1-6.36,0.17-9.54c0.01-0.3,0.11-0.59,0.36-0.88
				c-0.7,9.61,0.52,19.17,0.37,28.75c0.08,0,0.16,0.01,0.25,0.01c0.06-0.39,0.12-0.78,0.18-1.17c0.03,0,0.07,0,0.1,0
				c0.08,1.76,0.16,3.52,0.23,5.28C49.38,121.99,49.28,122.06,49.18,122.13z"/>
		</g>
		<path class="st0" d="M85.47,100.57c-0.7,0.1-0.64,0.56-0.64,0.94c0.21,0.16,0.38,0.3,0.55,0.43c-0.55-0.11-0.92,0.03-1.13,0.62
			c-0.07,0.2-0.45,0.29-0.69,0.41c-0.1,0.05-0.27,0.03-0.31,0.09c-0.31,0.55-0.87,0.56-1.38,0.59c-1.31,0.05-1.51-0.14-1.79-1.43
			c-0.03-0.16-0.22-0.37-0.37-0.4c-0.52-0.12-1.06-0.14-1.58-0.25c-0.17-0.04-0.31-0.23-0.47-0.36c0.15-0.11,0.3-0.3,0.46-0.31
			c0.21-0.01,0.43,0.11,0.64,0.19c0.59,0.24,0.84,0.08,0.8-0.53c-0.01-0.1,0-0.21-0.01-0.32c-0.03-0.84,0.51-1.26,1.32-1.01
			c0.31,0.09,0.61,0.24,0.9,0.36c0.2-0.66,0.1-1.29-0.12-1.93c-0.19-0.57-0.54-0.71-1.08-0.59c-0.11,0.02-0.24-0.08-0.36-0.12
			c0.12-0.11,0.22-0.27,0.35-0.3c0.24-0.05,0.49,0.01,0.73-0.01c0.72-0.05,1.46-0.15,1.96-0.73c0.18-0.21,0.22-0.6,0.22-0.9
			c0-0.09-0.39-0.2-0.61-0.24c-0.36-0.06-0.73-0.05-1.09-0.11c-0.11-0.02-0.28-0.18-0.27-0.26c0.01-0.13,0.12-0.29,0.24-0.35
			c0.55-0.3,1.05-0.03,1.52,0.22c0.39,0.21,1.13,0.08,1.48-0.28c0.42-0.43-0.06-0.67-0.17-1.04c-0.17,0.09-0.3,0.18-0.44,0.24
			c-0.16,0.07-0.33,0.16-0.49,0.16c-0.12,0-0.34-0.14-0.35-0.23c-0.04-0.4,0.47-0.88,0.87-0.77c0.44,0.13,0.59-0.12,0.83-0.49
			c-0.42-0.04-0.79-0.03-1.13-0.12c-0.23-0.07-0.58-0.26-0.6-0.44c-0.06-0.39,0.26-0.65,0.64-0.7c0.32-0.04,0.65,0.05,0.98,0.07
			c0.15,0.01,0.3-0.04,0.45-0.06c-0.12-0.12-0.24-0.23-0.36-0.35c-0.07-0.07-0.14-0.14-0.2-0.21c0.65-0.09,0.71-0.24,0.42-1.24
			c-0.48,0.31-0.93,0.61-1.38,0.9c0.02,0.04,0.05,0.09,0.07,0.13c0.3,0.07,0.6,0.14,0.9,0.21c-0.42,0.06-0.85,0.12-1.28,0.15
			c-0.04,0-0.18-0.31-0.14-0.35c0.31-0.32,0.65-0.61,0.99-0.9c0.15-0.13,0.31-0.23,0.47-0.34c-0.15-0.12-0.29-0.28-0.46-0.36
			c-0.28-0.13-0.51-0.36-0.24-0.58c0.47-0.38,0.28-0.75,0.15-1.16c-0.05-0.18-0.08-0.38-0.11-0.57c-0.08-0.45,0.18-0.7,0.58-0.64
			c0.37,0.05,0.79,0.19,1.06,0.43c0.32,0.29,0,0.66-0.18,0.94c-0.14,0.21-0.38,0.36-0.54,0.56c-0.12,0.15-0.27,0.36-0.26,0.53
			c0.01,0.15,0.22,0.33,0.38,0.4c0.23,0.11,0.51,0.11,0.75,0.2c0.19,0.07,0.36,0.21,0.53,0.32c-0.35,0.16-0.69,0.12-0.86,0.27
			c-0.36,0.31-0.05,1.25,0.41,1.36c0.34,0.08,0.69,0.13,1.03,0.21c0.14,0.03,0.27,0.12,0.41,0.18c-0.08,0.14-0.13,0.35-0.25,0.41
			c-0.35,0.18-0.74,0.29-1.1,0.47c-0.12,0.06-0.26,0.26-0.24,0.37c0.03,0.17,0.18,0.44,0.3,0.45c0.25,0.02,0.51-0.11,0.76-0.18
			c0.15-0.04,0.3-0.06,0.45-0.08c-0.04,0.14-0.05,0.35-0.14,0.4c-0.66,0.38-0.65,1.09-0.83,1.68c-0.15,0.53,0.16,0.81,0.69,0.68
			c0.64-0.16,1.27-0.36,1.91-0.54c0.29-0.08,0.57-0.19,0.86-0.22c0.16-0.01,0.45,0.09,0.47,0.19c0.04,0.16-0.04,0.43-0.17,0.53
			c-0.27,0.22-0.61,0.35-0.98,0.56c0.29,0.1,0.52,0.22,0.77,0.27c0.46,0.09,0.6,0.35,0.51,0.79c-0.07,0.36-0.16,0.72-0.18,1.08
			c-0.02,0.4-0.15,0.64-0.62,0.63c0.1,0.47-0.2,0.64-0.52,0.78c-0.32,0.14-0.67,0.23-0.97,0.4c-0.35,0.21-0.68,0.47-0.96,0.75
			c-0.19,0.2-0.3,0.48-0.48,0.8c0.37,0.78,0.97,1.35,2.1,1.34c-0.17-0.32-0.34-0.6-0.45-0.89c-0.08-0.19-0.16-0.47-0.07-0.62
			c0.08-0.13,0.38-0.18,0.58-0.17c0.76,0.04,1.52,0.25,2.28-0.03c0.06-0.02,0.15,0.02,0.26,0.04c-0.46,0.46-0.97,0.83-1.3,1.33
			c-0.33,0.49-0.59,1.08-0.55,1.87c0.57-0.48,1.15-0.72,1.27-1.45c0.1-0.57,1.01-1.05,1.57-0.87c-0.03,0.06-0.03,0.14-0.08,0.18
			c-0.33,0.29-0.67,0.59-1.01,0.86c-0.3,0.24-0.24,0.51-0.04,0.73c0.17,0.18,0.4,0.34,0.64,0.43c0.31,0.12,0.65,0.15,0.97,0.23
			c0.53,0.14,0.84,0.57,0.62,0.87c-0.2,0.27-0.46,0.58-0.76,0.68c-0.98,0.34-2.57,0.03-3.14-0.95c-0.22-0.39-0.44-0.39-0.82-0.37
			c-1.01,0.05-2.07,0.24-2.93-0.57c-0.09-0.09-0.31-0.05-0.49-0.08c-0.01,0.3-0.05,0.53-0.03,0.75c0.02,0.15,0.08,0.33,0.19,0.42
			c0.35,0.27,0.74,0.51,1.16,0.79c0.53-0.09,1.03-0.78,1.77-0.33c-0.2,0.16-0.44,0.36-0.63,0.32c-0.68-0.14-1,0.06-1.03,0.73
			c-0.21,0.05-0.49,0.03-0.62,0.16c-0.41,0.4-0.66,0.9-0.57,1.51c0.3,1.85,0.47,3.72,0.91,5.53c0.5,2.07,1.21,4.09,3.63,4.74
			c0.12,0.03,0.22,0.17,0.3,0.27c0.02,0.03-0.06,0.2-0.11,0.2c-0.15,0.02-0.32,0.03-0.44-0.04c-0.24-0.13-0.44-0.34-0.68-0.46
			c-0.8-0.42-1.35-1.08-1.83-1.83c-1.12-1.76-1.31-3.77-1.65-5.75c-0.13-0.77,0-1.61-0.57-2.27c-0.05-0.06-0.04-0.2-0.03-0.3
			c0.18-1.01,0.23-1.99-0.47-2.99c0.24,0.11,0.36,0.17,0.5,0.24c-0.1-0.53-0.29-0.63-1.25-0.7c0.68,1.29,0.18,2.64,0.39,3.97
			c0.28,1.82,0.23,3.7,0.33,5.55c0.02,0.29,0.11,0.57,0.16,0.86c0.09,0,0.17-0.01,0.26-0.01c0.02-0.39,0.05-0.78,0.07-1.18
			c0,0,0,0,0,0c0.07,0.12,0.17,0.24,0.21,0.37c0.48,1.58,1.22,2.97,2.7,3.85c0.06,0.04,0.1,0.12,0.15,0.19
			c-0.08,0.05-0.12,0.09-0.16,0.1c-0.05,0.01-0.1,0-0.15-0.01c-0.58-0.21-1.09-0.51-1.4-1.08c-0.38-0.72-0.78-1.43-1.19-2.17
			c-0.58,0.54,0.19,1.22-0.28,1.83c-0.08-0.22-0.12-0.35-0.17-0.47c-0.09,0.34-0.11,0.67-0.15,0.99c-0.02,0.14-0.1,0.26-0.16,0.4
			c-0.13-0.06-0.3-0.1-0.39-0.2c-0.18-0.2-0.31-0.44-0.52-0.74c-0.26,0.36-0.46,0.64-0.74,1.04c0.11-0.71,0.38-1.1,0.95-1.32
			c0.19,0.22,0.38,0.44,0.63,0.74c0.05-0.27,0.1-0.45,0.1-0.63c0-0.62-0.02-1.24-0.05-1.87c-0.07-1.73-0.14-3.46-0.22-5.19
			c-0.01-0.16-0.05-0.31-0.08-0.47c-0.04,0.01-0.09,0.01-0.13,0.02c-0.01,0.16-0.04,0.33-0.03,0.49c0.02,0.66,0.15,1.34,0.06,1.99
			c-0.2,1.51-0.27,3.05-0.96,4.46c-0.2,0.41-0.28,0.87-0.47,1.28c-0.15,0.33-0.33,0.69-0.89,0.74c0.22-0.37,0.4-0.62,0.54-0.89
			c0.77-1.51,0.85-3.16,0.98-4.8c0.08-1,0.14-2.01,0.22-3.01c0.05-0.66,0.35-1.3,0.07-2c-0.21-0.52-0.51-0.91-1-1.15
			c-0.38-0.19-0.76-0.37-1.27-0.61c0.24-0.15,0.4-0.31,0.47-0.27c0.82,0.36,1.68,0.67,2.16,1.68c0-0.22,0.02-0.34,0-0.44
			c-0.15-0.8-0.34-1.6-0.46-2.41c-0.03-0.18,0.11-0.51,0.25-0.57c0.37-0.15,0.79-0.16,1.17-0.27c0.12-0.03,0.26-0.19,0.29-0.31
			c0.08-0.34,0.1-0.69,0.14-1.03C85.41,101.49,85.44,101.05,85.47,100.57z M84.86,94.67c-0.86,0.07-1.19,0.53-0.97,1.35
			c0.1,0.37,0.28,0.72,0.46,1.06c0.05,0.08,0.29,0.13,0.41,0.09c1.24-0.37,2.48-0.62,3.69,0.06c0.26,0.14,0.47,0.35,0.71,0.53
			c0.5,0.36,0.86,0.24,0.99-0.35c0.06-0.31,0.11-0.63,0.09-0.94c-0.01-0.16-0.15-0.4-0.28-0.45c-0.48-0.19-0.98-0.37-1.49-0.46
			c-0.32-0.05-0.74-0.04-0.73,0.51c0,0.07-0.2,0.21-0.31,0.21c-0.31,0.01-0.63,0-0.93-0.07c-0.65-0.15-0.7-0.33-0.33-0.88
			c0.09-0.14,0.09-0.34,0.14-0.56c-0.51,0.28-0.65,0.84-0.47,1.47c0.04,0.15,0.01,0.33,0.01,0.5c-0.08,0.01-0.17,0.01-0.25,0.02
			c-0.03-0.23-0.1-0.47-0.08-0.69c0.03-0.29,0.12-0.58,0.2-0.86c0.08-0.29,0-0.47-0.31-0.51c0.6-0.26,0.36-0.82,0.46-1.26
			c0.14-0.61-0.25-0.88-0.75-1.09c-0.38,0.17-0.33,0.45-0.15,0.79c0.36,0.68,0.35,0.68-0.04,1.28c0.17,0.1,0.33,0.2,0.5,0.3
			C85.24,94.68,85.05,94.65,84.86,94.67z M84.53,99.36c0.26,0.55,0.04,0.96-0.55,1.09c-0.36,0.08-0.72,0.16-1.08,0.2
			c-0.75,0.07-1.28,0.33-1.54,1.13c-0.22,0.67-0.31,0.64-0.95,0.38c-0.06,0.89,0.16,1.15,1,1.21c0.24,0.02,0.49,0.03,0.73,0.01
			c0.67-0.04,0.82-0.25,0.66-0.89c-0.17-0.65,0.01-0.96,0.6-1.11c0.1-0.03,0.17-0.15,0.26-0.21c0.27-0.17,0.52-0.41,0.82-0.49
			c0.65-0.2,0.87-0.51,0.59-1.13c-0.23-0.5-0.54-0.97-0.84-1.43c-0.08-0.12-0.26-0.16-0.39-0.24c-0.02,0.03-0.05,0.06-0.07,0.09
			C84.03,98.43,84.31,98.88,84.53,99.36z M88.98,100.84c-0.4-0.04-0.44,0.13-0.31,0.47c0.14,0.34,0.29,0.72,0.28,1.07
			c0,0.35-0.25,0.52-0.67,0.4c-0.56-0.15-1.14-0.23-1.62-0.32c-0.16,0.38-0.29,0.62-0.35,0.89c-0.02,0.1,0.1,0.33,0.17,0.34
			c0.86,0.09,1.73,0.15,2.59,0.2c0.07,0,0.19-0.12,0.2-0.2c0.18-0.99,0.6-1.88,1.32-2.69C89.99,100.94,89.49,100.89,88.98,100.84z
			 M89.69,103.96c0.18,0.68,0.88,1.22,1.74,1.33c0.57,0.07,1.16,0.16,1.6-0.36c0.3-0.36,0.26-0.55-0.18-0.68
			c-0.33-0.1-0.7-0.12-1-0.27c-0.4-0.19-0.75-0.48-1.19-0.77C90.41,103.4,90.05,103.68,89.69,103.96z M85.52,99.59
			c0.1-0.09,0.19-0.17,0.3-0.28c-0.01,0.07-0.02,0.11-0.03,0.16c-0.08,0.71-0.24,1.43-0.2,2.14c0.01,0.25,0.52,0.47,0.84,0.66
			c-0.47-0.63-0.55-1.36,0.02-1.82c0.75-0.62,0.92-1.43,1.08-2.44c-0.88,1-1.77,1.2-2.84,0.41C84.97,98.81,85.24,99.19,85.52,99.59z
			 M83.35,99.59c0.43-0.26,0.5-0.63,0.3-1.08c-0.33-0.73-1.04-0.92-1.67-1.21c0.1,0.94,0.19,1.85,0.29,2.85
			C82.64,99.96,83.01,99.8,83.35,99.59z M89.46,98.47c-0.01-0.08-0.03-0.17-0.04-0.25c-0.53-0.05-1.06-0.1-1.61-0.16
			c-0.13,0.51-0.24,0.94-0.38,1.47C88.18,99.15,88.82,98.81,89.46,98.47z M80.5,99.43c-0.24,0.04-0.6,0.24-0.63,0.43
			c-0.06,0.33,0.07,0.71,0.13,1.06c0.14-0.03,0.34-0.02,0.41-0.11c0.29-0.38,0.55-0.79,0.85-1.24
			C81.02,99.52,80.75,99.39,80.5,99.43z M85.58,86.15c0.05-0.07-0.05-0.34-0.14-0.38c-0.24-0.1-0.53-0.18-0.78-0.15
			c-0.1,0.01-0.24,0.34-0.23,0.52c0.02,0.3,0.15,0.6,0.23,0.89C84.73,87.06,85.36,86.49,85.58,86.15z M85.27,98.33
			c0.37,0.24,0.72,0.39,1.15,0.18c0.39-0.18,0.73-0.39,0.55-1.05C86.47,97.97,85.66,97.59,85.27,98.33z M84.3,97.59
			c-0.23-0.52-0.42-0.96-0.63-1.45c-0.43,0.24-0.83,0.47-1.28,0.72C83.01,97.1,83.6,97.32,84.3,97.59z M84.16,100.13
			c0.1-0.03,0.17-0.39,0.15-0.58c-0.01-0.17-0.15-0.34-0.27-0.58c-0.31,0.94-1.11,1.15-1.86,1.44c0.02,0.05,0.04,0.1,0.05,0.16
			C82.88,100.42,83.53,100.31,84.16,100.13z M85.3,91.07c-0.47-0.38-1.26-0.28-1.69,0.23C84.43,91.67,84.7,91.63,85.3,91.07z
			 M83.98,103.84c-0.01,0.06-0.03,0.11-0.04,0.17c0.37,0.18,0.75,0.36,1.18,0.56c0-0.43,0-0.75,0-1.15
			C84.7,103.58,84.34,103.71,83.98,103.84z M90.06,94.37c-0.94,0.27-1.75,0.51-2.56,0.74C88.25,95.37,89.65,94.99,90.06,94.37z
			 M86.01,92.74c0,0.65,0,1.24,0,1.9C86.19,94.02,86.23,92.78,86.01,92.74z M85.42,104.83c-0.13,0.74,0.33,1.11,1.09,0.85
			C86.12,105.38,85.8,105.12,85.42,104.83z M81.67,99.91c-0.64,0.02-0.73,0.56-0.99,0.89C81.14,100.68,81.61,100.56,81.67,99.91z
			 M86.5,95.47c-0.1,0.04-0.15,0.23-0.22,0.35c0.3,0.08,0.61,0.16,0.91,0.24c0.02-0.07,0.05-0.14,0.07-0.2
			C87.11,95.55,86.88,95.34,86.5,95.47z M87.34,102.05c-0.32-0.33-0.62-0.64-0.95-0.99C86.33,101.85,86.62,102.14,87.34,102.05z
			 M80.57,101.33c-0.1,0.05-0.1,0.27-0.15,0.42c0.17,0.03,0.4,0.14,0.49,0.07c0.18-0.14,0.28-0.37,0.41-0.57
			c-0.03-0.04-0.06-0.08-0.08-0.12C81.01,101.2,80.76,101.22,80.57,101.33z M87.24,97.19c-0.7-0.23-1.08-0.11-1.33,0.46
			C86.32,97.51,86.72,97.37,87.24,97.19z M87.9,97.26c-0.01,0.6,0.18,0.71,1.07,0.55C88.52,97.58,88.22,97.43,87.9,97.26z
			 M85.96,106.11c0.02-0.05-0.27-0.19-0.48-0.33c0,0.38,0,0.67,0,0.95c0.04,0.02,0.09,0.03,0.13,0.05
			C85.74,106.56,85.9,106.35,85.96,106.11z M84.01,110.9c-0.06-0.01-0.13-0.01-0.19-0.02c-0.04,0.55-0.08,1.09-0.12,1.64
			c0.06,0,0.11,0,0.17,0.01C83.91,111.99,83.96,111.45,84.01,110.9z M83.56,102.62c0.12-0.03,0.3-0.02,0.35-0.1
			c0.18-0.28,0.12-0.52-0.41-0.63C83.51,102.14,83.54,102.38,83.56,102.62z M85.69,97.29c-0.03-0.03-0.06-0.06-0.09-0.09
			c-0.26,0.09-0.51,0.17-0.84,0.28c0.27,0.14,0.44,0.23,0.66,0.34C85.51,97.65,85.6,97.47,85.69,97.29z M85.5,102.05
			c0,0.4,0,0.75,0,1.11C85.85,102.31,85.85,102.31,85.5,102.05z"/>
		<path class="st0" d="M19.18,110.8c0.09,0.72,0.14,1.44,0.29,2.14c0.06,0.25,0.35,0.57,0.6,0.64c0.8,0.23,1.67,0.26,2.43,0.57
			c0.3,0.12,0.57,0.81,0.52,1.18c-0.25,1.67-0.63,3.33-0.95,4.99c-0.04,0.22-0.01,0.46-0.01,0.92c0.98-2.1,2.77-2.75,4.47-3.49
			c0.15-0.07,0.47,0.27,0.98,0.57c-1.05,0.5-1.85,0.87-2.63,1.26c-1.02,0.5-1.64,1.3-2.07,2.38c-0.58,1.45,0.05,2.76,0.15,4.13
			c0.16,2.08,0.28,4.16,0.45,6.23c0.26,3.4,0.43,6.82,2.03,9.95c0.29,0.56,0.66,1.09,1.12,1.85c-1.16-0.12-1.53-0.87-1.85-1.54
			c-0.4-0.85-0.57-1.81-0.98-2.65c-1.43-2.92-1.57-6.12-1.99-9.24c-0.18-1.34,0.08-2.75,0.13-4.12c0.01-0.34-0.04-0.68-0.07-1.02
			c-0.09-0.01-0.18-0.02-0.27-0.03c-0.06,0.32-0.15,0.65-0.16,0.97c-0.16,3.58-0.31,7.17-0.45,10.75c-0.05,1.29-0.09,2.58-0.1,3.87
			c0,0.37,0.12,0.75,0.21,1.31c0.52-0.61,0.91-1.06,1.31-1.53c1.17,0.46,1.75,1.28,1.97,2.74c-0.59-0.83-1.01-1.41-1.54-2.16
			c-0.43,0.63-0.7,1.12-1.07,1.54c-0.19,0.21-0.54,0.28-0.82,0.41c-0.11-0.27-0.29-0.54-0.33-0.82c-0.09-0.67-0.12-1.35-0.31-2.06
			c-0.09,0.26-0.18,0.51-0.35,0.97c-0.97-1.26,0.64-2.66-0.57-3.79c-0.85,1.55-1.68,3.02-2.47,4.5c-0.64,1.19-1.7,1.8-2.9,2.25
			c-0.1,0.04-0.22,0.05-0.31,0.03c-0.1-0.02-0.18-0.11-0.34-0.21c0.11-0.15,0.19-0.31,0.31-0.39c3.05-1.83,4.59-4.71,5.59-7.97
			c0.08-0.27,0.29-0.51,0.44-0.76c0,0-0.01,0-0.01,0c0.05,0.81,0.1,1.63,0.14,2.44c0.18,0.01,0.35,0.02,0.53,0.03
			c0.12-0.6,0.3-1.19,0.34-1.79c0.21-3.84,0.1-7.72,0.68-11.5c0.42-2.75-0.61-5.56,0.81-8.22c-2,0.14-2.38,0.35-2.59,1.44
			c0.31-0.15,0.56-0.27,1.04-0.5c-1.45,2.07-1.35,4.11-0.97,6.2c0.04,0.2,0.06,0.5-0.06,0.63c-1.19,1.38-0.91,3.12-1.18,4.71
			c-0.69,4.11-1.09,8.28-3.41,11.93c-0.99,1.55-2.13,2.92-3.79,3.8c-0.5,0.26-0.91,0.69-1.41,0.96c-0.25,0.14-0.62,0.11-0.92,0.08
			c-0.09-0.01-0.27-0.36-0.22-0.42c0.16-0.22,0.37-0.5,0.61-0.57c5.03-1.34,6.5-5.54,7.53-9.82c0.91-3.76,1.28-7.64,1.89-11.47
			c0.2-1.27-0.33-2.29-1.17-3.13c-0.27-0.27-0.85-0.24-1.28-0.34c-0.05-1.39-0.72-1.8-2.12-1.52c-0.4,0.08-0.9-0.32-1.31-0.66
			c1.53-0.94,2.56,0.48,3.67,0.68c0.87-0.59,1.67-1.08,2.4-1.65c0.23-0.18,0.36-0.56,0.4-0.87c0.05-0.46-0.02-0.94-0.05-1.56
			c-0.38,0.06-0.82-0.02-1.02,0.17c-1.78,1.68-3.97,1.29-6.08,1.18c-0.78-0.04-1.23-0.04-1.7,0.77c-1.17,2.04-4.47,2.67-6.5,1.97
			c-0.62-0.22-1.17-0.85-1.58-1.41c-0.47-0.63,0.18-1.52,1.28-1.81c0.67-0.18,1.37-0.24,2.01-0.49c0.49-0.19,0.97-0.51,1.32-0.89
			c0.42-0.46,0.55-1.01-0.07-1.5c-0.72-0.57-1.41-1.18-2.1-1.79c-0.09-0.08-0.11-0.25-0.16-0.38c1.16-0.37,3.05,0.62,3.25,1.8
			c0.26,1.51,1.46,2.01,2.63,3c0.07-1.63-0.46-2.84-1.15-3.87c-0.68-1.02-1.73-1.8-2.69-2.75c0.21-0.04,0.4-0.13,0.53-0.08
			c1.57,0.59,3.15,0.15,4.73,0.07c0.41-0.02,1.04,0.09,1.2,0.36c0.18,0.3,0,0.88-0.15,1.28c-0.24,0.61-0.59,1.17-0.94,1.84
			c2.33,0,3.59-1.17,4.35-2.79c-0.38-0.65-0.6-1.25-1-1.65c-0.59-0.6-1.28-1.13-2-1.56c-0.61-0.37-1.34-0.55-2-0.84
			c-0.68-0.3-1.3-0.66-1.09-1.62c-0.96,0.02-1.24-0.48-1.28-1.3c-0.04-0.75-0.22-1.5-0.37-2.24c-0.19-0.91,0.1-1.45,1.06-1.64
			c0.51-0.1,1-0.34,1.59-0.55c-0.78-0.42-1.47-0.71-2.04-1.16c-0.27-0.21-0.43-0.77-0.36-1.1c0.05-0.2,0.65-0.43,0.98-0.4
			c0.6,0.06,1.19,0.29,1.78,0.46c1.32,0.37,2.63,0.79,3.96,1.12c1.11,0.27,1.76-0.33,1.43-1.42c-0.36-1.24-0.33-2.71-1.71-3.49
			c-0.19-0.11-0.2-0.55-0.29-0.83c0.31,0.06,0.63,0.1,0.93,0.17c0.53,0.13,1.06,0.4,1.58,0.36c0.24-0.02,0.55-0.58,0.62-0.93
			c0.04-0.22-0.25-0.64-0.5-0.76c-0.74-0.37-1.55-0.59-2.28-0.97c-0.25-0.13-0.35-0.56-0.52-0.86c0.28-0.12,0.55-0.29,0.85-0.36
			c0.7-0.17,1.42-0.27,2.13-0.44c0.96-0.23,1.6-2.16,0.85-2.81c-0.36-0.31-1.07-0.23-1.78-0.56c0.37-0.23,0.71-0.52,1.1-0.67
			c0.5-0.19,1.08-0.2,1.56-0.42c0.33-0.16,0.75-0.52,0.78-0.83c0.03-0.35-0.27-0.77-0.53-1.09c-0.33-0.42-0.84-0.71-1.13-1.16
			c-0.37-0.58-1.04-1.33-0.38-1.94c0.55-0.51,1.42-0.79,2.19-0.89c0.82-0.11,1.35,0.39,1.19,1.34c-0.07,0.39-0.12,0.79-0.23,1.17
			c-0.25,0.85-0.65,1.62,0.32,2.4c0.56,0.45,0.09,0.93-0.5,1.2c-0.36,0.17-0.64,0.49-0.96,0.74c0.33,0.23,0.67,0.45,0.97,0.71
			c0.7,0.6,1.41,1.2,2.06,1.86c0.08,0.08-0.2,0.74-0.29,0.73c-0.89-0.06-1.77-0.2-2.65-0.31c0.62-0.15,1.25-0.29,1.87-0.43
			c0.05-0.09-1.72-1.5-2.71-2.14c-0.6,2.06-0.48,2.37,0.87,2.56c-0.14,0.14-0.28,0.29-0.42,0.43c-0.24,0.25-0.49,0.49-0.74,0.73
			c0.31,0.05,0.62,0.14,0.92,0.13c0.68-0.03,1.37-0.21,2.04-0.13c0.78,0.09,1.44,0.64,1.32,1.45c-0.05,0.36-0.77,0.77-1.25,0.91
			c-0.7,0.2-1.46,0.17-2.33,0.25c0.49,0.77,0.79,1.29,1.71,1.02c0.82-0.24,1.88,0.76,1.8,1.59c-0.02,0.19-0.46,0.47-0.72,0.48
			c-0.33,0.01-0.68-0.19-1.01-0.33c-0.29-0.12-0.56-0.3-0.92-0.49c-0.24,0.75-1.23,1.25-0.35,2.15c0.72,0.74,2.26,1.02,3.07,0.59
			c0.99-0.54,2.01-1.08,3.16-0.47c0.24,0.13,0.47,0.47,0.49,0.73c0.01,0.17-0.33,0.5-0.56,0.53c-0.75,0.12-1.52,0.1-2.26,0.22
			c-0.46,0.08-1.26,0.31-1.26,0.49c-0.01,0.63,0.06,1.43,0.45,1.87c1.04,1.19,2.55,1.41,4.05,1.51c0.51,0.03,1.03-0.08,1.52,0.01
			c0.27,0.05,0.49,0.41,0.73,0.62c-0.25,0.09-0.52,0.3-0.74,0.25c-1.12-0.25-1.83,0.03-2.23,1.22c-0.45,1.34-0.67,2.64-0.25,4.01
			c0.61-0.24,1.22-0.54,1.86-0.74c1.68-0.51,2.8,0.37,2.74,2.1c-0.01,0.22,0,0.44-0.01,0.65c-0.08,1.27,0.43,1.6,1.66,1.1
			c0.43-0.17,0.89-0.42,1.32-0.39c0.33,0.02,0.64,0.42,0.96,0.65c-0.32,0.26-0.61,0.66-0.97,0.74c-1.08,0.23-2.2,0.29-3.28,0.53
			c-0.31,0.07-0.69,0.51-0.76,0.83c-0.57,2.68-0.98,3.08-3.7,2.97c-1.05-0.04-2.2-0.07-2.85-1.21c-0.08-0.14-0.44-0.09-0.64-0.19
			c-0.51-0.26-1.3-0.45-1.44-0.86c-0.43-1.24-1.21-1.51-2.35-1.29c0.36-0.28,0.72-0.56,1.14-0.9c-0.01-0.78,0.12-1.74-1.33-1.95
			C19.04,108.96,19.11,109.88,19.18,110.8z M19.07,95.78c0.34-0.21,0.69-0.41,1.03-0.62c-0.82-1.23-0.83-1.24-0.08-2.65
			c0.37-0.69,0.49-1.27-0.31-1.63c-1.05,0.45-1.84,1.01-1.56,2.27c0.2,0.91-0.29,2.08,0.95,2.62c-0.64,0.1-0.81,0.47-0.65,1.06
			c0.16,0.59,0.36,1.19,0.42,1.79c0.04,0.47-0.11,0.96-0.17,1.44c-0.17-0.01-0.35-0.02-0.52-0.03c0-0.35-0.08-0.72,0.01-1.04
			c0.38-1.31,0.08-2.47-0.98-3.05c0.11,0.47,0.11,0.89,0.3,1.17c0.77,1.14,0.66,1.53-0.68,1.83c-0.62,0.14-1.29,0.16-1.93,0.14
			c-0.22-0.01-0.64-0.29-0.63-0.44c0.02-1.14-0.85-1.17-1.51-1.06c-1.05,0.17-2.09,0.55-3.08,0.94c-0.28,0.11-0.57,0.6-0.59,0.93
			c-0.04,0.64,0.06,1.31,0.19,1.94c0.25,1.22,1.01,1.47,2.05,0.72c0.49-0.36,0.95-0.8,1.48-1.09c2.52-1.41,5.08-0.9,7.65-0.13
			c0.25,0.08,0.75-0.02,0.84-0.19c0.39-0.69,0.75-1.43,0.96-2.19c0.47-1.71-0.23-2.64-2-2.79C19.86,95.71,19.46,95.77,19.07,95.78z
			 M22.49,102.57c-0.05-0.06-0.1-0.12-0.14-0.19c-0.28,0.16-0.65,0.26-0.81,0.5c-0.62,0.96-1.26,1.92-1.73,2.96
			c-0.59,1.3-0.14,1.95,1.22,2.35c0.61,0.18,1.14,0.66,1.7,1.03c0.19,0.12,0.33,0.38,0.54,0.43c1.23,0.33,1.59,0.97,1.25,2.31
			c-0.34,1.32-0.02,1.76,1.37,1.84c0.5,0.03,1.02,0.01,1.52-0.03c1.74-0.12,2.18-0.67,2.06-2.5c-1.32,0.55-1.51,0.61-1.97-0.79
			c-0.55-1.66-1.64-2.2-3.19-2.35c-0.75-0.07-1.5-0.25-2.24-0.41c-1.23-0.26-1.69-1.11-1.15-2.25
			C21.39,104.48,21.96,103.54,22.49,102.57z M8.34,108.89c1.49,1.68,2.36,3.51,2.73,5.57c0.03,0.16,0.29,0.41,0.42,0.41
			c1.79-0.11,3.59-0.23,5.38-0.42c0.15-0.01,0.39-0.49,0.34-0.7c-0.14-0.55-0.41-1.06-0.73-1.84c-1,0.19-2.2,0.34-3.35,0.66
			c-0.86,0.24-1.38-0.11-1.39-0.83c0-0.74,0.31-1.51,0.59-2.23c0.28-0.71,0.19-1.06-0.63-0.98C10.66,108.63,9.62,108.75,8.34,108.89
			z M8.21,113.43c-0.91,0.6-1.64,1.19-2.47,1.59c-0.63,0.31-1.39,0.35-2.08,0.56c-0.9,0.27-0.98,0.68-0.36,1.41
			c0.92,1.09,2.13,0.9,3.32,0.76c1.79-0.21,3.23-1.34,3.61-2.75C9.48,114.42,8.75,113.85,8.21,113.43z M20.57,103.52
			c-2.21,1.64-4.06,1.23-5.88-0.85c0.35,2.09,0.68,3.77,2.24,5.05c1.17,0.97,1.02,2.48,0.04,3.78c0.65-0.4,1.71-0.86,1.74-1.38
			c0.09-1.46-0.24-2.95-0.41-4.43c-0.01-0.09-0.03-0.18-0.06-0.33c0.23,0.22,0.41,0.38,0.62,0.57
			C19.45,105.11,20.01,104.32,20.57,103.52z M25.61,107.09c0.21-2.07,0.4-3.96,0.6-5.9c-1.31,0.6-2.77,0.98-3.46,2.5
			c-0.43,0.94-0.27,1.7,0.61,2.24C24.07,106.37,24.83,106.7,25.61,107.09z M14.9,105.82c-0.28-1.09-0.52-1.98-0.79-3.04
			c-1.13,0.11-2.23,0.22-3.33,0.32c-0.03,0.17-0.06,0.34-0.08,0.51C12.03,104.32,13.37,105.02,14.9,105.82z M27.7,105.9
			c0.62,0.93,1.15,1.78,1.76,2.56c0.14,0.19,0.56,0.16,0.86,0.23c0.11-0.74,0.4-1.51,0.27-2.2c-0.07-0.38-0.81-0.79-1.31-0.88
			C28.76,105.52,28.19,105.8,27.7,105.9z M20.64,79.92c0.17-0.62,0.44-1.23,0.48-1.85c0.03-0.37-0.26-1.05-0.47-1.08
			c-0.52-0.07-1.11,0.1-1.61,0.31c-0.18,0.07-0.38,0.63-0.29,0.78C19.21,78.79,20.52,79.98,20.64,79.92z M15.88,101.54
			c-0.38,1.36,0.33,1.79,1.13,2.17c0.89,0.43,1.62,0.13,2.38-0.37C18.59,101.79,16.91,102.59,15.88,101.54z M25.36,100.28
			c-0.92-0.52-1.76-0.99-2.64-1.48c-0.44,1.01-0.84,1.93-1.31,3C22.86,101.24,24.06,100.78,25.36,100.28z M25.68,107.95
			c0.04-0.11,0.07-0.21,0.11-0.32c-1.55-0.59-3.21-1.04-3.85-2.98c-0.25,0.5-0.55,0.85-0.57,1.2c-0.02,0.41,0.1,1.15,0.32,1.21
			C23,107.44,24.35,107.67,25.68,107.95z M22.82,88.77c-0.89-1.06-2.54-1.26-3.51-0.48C20.56,89.44,21.13,89.53,22.82,88.77z
			 M19.7,113.88c0,0.83,0,1.49,0,2.39c0.89-0.42,1.66-0.79,2.44-1.16c-0.03-0.12-0.05-0.24-0.08-0.36
			C21.32,114.48,20.58,114.21,19.7,113.88z M14.77,96.65c-1.68-0.49-3.36-0.97-5.31-1.54C10.32,96.4,13.21,97.2,14.77,96.65z
			 M17.86,95.68c0-1.36-0.78-3.8-1.1-3.75C17.14,93.22,17.49,94.4,17.86,95.68z M16.81,118.57c1.57,0.52,2.53-0.25,2.27-1.77
			C18.3,117.41,17.62,117.94,16.81,118.57z M28.91,108.45c-0.54-0.7-0.74-1.82-2.06-1.85C26.97,107.96,27.95,108.2,28.91,108.45z
			 M15.26,98.22c0.05,0.14,1.41,0.08,2.04-0.09c-0.15-0.25-0.25-0.64-0.47-0.72C16.05,97.13,15.58,97.58,15.26,98.22z M17.06,108.98
			c-0.69,0.72-1.31,1.36-1.97,2.06C16.59,111.23,17.19,110.62,17.06,108.98z M27.75,109.15c-0.06,0.08-0.11,0.16-0.17,0.24
			c0.28,0.4,0.48,0.89,0.85,1.17c0.19,0.14,0.66-0.09,1.01-0.15c-0.09-0.3-0.1-0.75-0.3-0.87
			C28.73,109.32,28.22,109.27,27.75,109.15z M18.06,101.91c-0.52-1.18-1.32-1.42-2.76-0.94C16.38,101.34,17.22,101.63,18.06,101.91z
			 M11.74,102.26c1.83,0.32,2.23,0.09,2.21-1.14C13.28,101.46,12.65,101.78,11.74,102.26z M18.67,120.84
			c0.09-0.04,0.18-0.07,0.27-0.11c0-0.59,0-1.18,0-1.97c-0.43,0.29-1.02,0.58-0.99,0.69C18.1,119.95,18.41,120.38,18.67,120.84z
			 M22.31,132.76c0.12-0.01,0.23-0.01,0.35-0.02c-0.08-1.13-0.17-2.27-0.25-3.4c-0.13,0.01-0.26,0.02-0.4,0.03
			C22.11,130.51,22.21,131.63,22.31,132.76z M23.07,110.72c-1.1,0.22-1.24,0.72-0.86,1.3c0.1,0.16,0.47,0.14,0.71,0.2
			C22.98,111.72,23.03,111.22,23.07,110.72z M19.07,102.25c0.45-0.23,0.81-0.41,1.37-0.7c-0.67-0.23-1.2-0.41-1.74-0.59
			c-0.06,0.06-0.13,0.13-0.19,0.19C18.71,101.55,18.9,101.92,19.07,102.25z M18.91,113.33c0-0.73,0-1.47,0-2.29
			C18.19,111.57,18.19,111.57,18.91,113.33z"/>
		<g>
			<path class="st0" d="M68.39,95.33c0.82-0.58,1.94-0.52,2.54,0.14c0.53,0.58,0.46,1.95-0.19,2.64c-0.72,0.77-1.5,1.47-2.21,2.25
				c-0.18,0.2-0.26,0.58-0.25,0.87c0.09,3.95,0.09,7.9,0.34,11.84c0.27,4.26,0.62,8.53,1.23,12.76c0.47,3.26,2.24,4.44,5.85,4.46
				c0.38,0,3.17,0.31,3.55,0.48c-0.4,0.24-6.53,0.94-7.78-0.07c-0.03-0.02-1.94-2.3-2.83-3.45c-0.08-0.1,0.03-0.35,0.06-0.53
				c0.14-0.82,0.29-1.65,0.43-2.47c-0.12-0.01-0.24-0.03-0.36-0.04c0.01,0.48,0.02,0.95,0.04,1.43c-0.06,0-0.11,0.01-0.17,0.01
				c-0.09-1.02-0.18-2.03-0.27-3.05c0.04-0.01,0.08-0.01,0.13-0.02c0.05,0.19,0.09,0.38,0.14,0.57c0.06,0,0.11-0.01,0.17-0.01
				c-0.13-2.09-0.3-4.17-0.37-6.26c-0.1-2.81-0.12-5.62-0.19-8.43c-0.03-1.16-0.07-2.33-0.13-3.49c-0.09-1.64-0.2-3.29-0.3-4.93
				c-0.13-0.02-0.26-0.04-0.39-0.06c-0.25,0.67-0.49,1.33-0.63,1.7c-0.23-0.89-0.54-2.1-0.86-3.37c-0.42,0.06-0.73,0.1-1.17,0.16
				c0.08,4.82,0.17,9.6,0.25,14.38c-0.11,0.01-0.22,0.03-0.34,0.04c-0.06-0.31-0.16-0.63-0.16-0.94c0-3.51,0.01-7.02,0.02-10.52
				c0-0.66-0.02-1.32,0.01-1.98c0.03-0.82-0.35-1.13-0.95-1.02c-0.07,2.84-0.14,5.63-0.21,8.42c0.06,0.01,0.12,0.02,0.19,0.03
				c-0.1-0.51-0.21-1.03-0.31-1.54c-0.05,0.01-0.11,0.02-0.16,0.03c-0.04,1.43-0.07,2.85-0.11,4.58c0.33-0.42,0.48-0.6,0.62-0.78
				c0.09,0,0.18-0.01,0.28-0.01c0.02,0.83,0,1.67,0.06,2.5c0.46,5.65-0.46,11.08-2.22,16.4c-0.1-0.01-0.2-0.02-0.3-0.03
				c-0.02-0.31-0.04-0.62-0.06-0.94c-0.12,0.01-0.28-0.06-0.36,0.04c-0.36,0.44,0.11,1.14,0.18,1.85
				c-2.47,2.48-9.94,2.83-10.21,2.67c0.28-0.21,0.53-0.56,0.84-0.62c2.17-0.43,4.45-0.4,6.42-1.64c0.86-0.54,1.55-1.16,1.77-2.22
				c0.52-2.46,1.07-4.91,1.63-7.36c0.16-0.71,0.48-1.4,0.59-2.11c0.11-0.75,0.06-1.53,0.08-2.38c-0.12,0.13-0.21,0.23-0.36,0.39
				c0.05-1.99,0.1-3.92,0.15-6.02c0.13,0.25,0.21,0.39,0.32,0.62c0.07-0.15,0.19-0.29,0.16-0.36c-1-2.51-0.43-5.1-0.49-7.67
				c-0.03-1.15-0.22-2.3-0.31-3.45c-0.03-0.36,0.01-0.73,0.03-1.31c-0.57-1.74-1.79-1.5-3.39-0.76c-1.45,0.67-2.59-0.13-2.32-1.36
				c0.05-0.25,0.16-0.48,0.26-0.72c0.17-0.39,0.36-0.78,0.61-1.31c-0.51,0.06-0.91,0.11-1.31,0.15c-0.75,0.08-1.44-0.23-1.46-0.95
				c-0.01-0.34,0.81-0.7,1.27-1.02c0.13-0.09,0.35-0.03,0.64-0.05c0.06-0.8,0.12-1.57,0.19-2.38c-0.74,0.8-1.24,1.75-2.01,2.06
				c-0.64,0.27-1.62-0.11-2.4-0.38c-0.78-0.27-1.45-0.76-0.33-2c-1.24,0.18-2.14,0.22-2.98,0.45c-1.03,0.29-1.79-0.15-2.49-0.74
				c-0.67-0.57-0.44-1.45,0.4-1.73c0.37-0.12,0.75-0.23,0.93-0.29c0.54,0.73,1.04,1.39,1.54,2.05c0.12-0.06,0.25-0.11,0.37-0.17
				c-0.02-0.43-0.04-0.87-0.07-1.32c0.28-0.07,0.69-0.25,1.12-0.28c0.51-0.04,1.02,0.05,1.53,0.09c-0.08,0.43-0.17,0.86-0.25,1.29
				c0.65,0.08,0.65,0.08,2.81-2.13c-0.32-0.22-0.75-0.38-0.94-0.69c-0.2-0.33-0.17-0.79-0.25-1.2c0.33,0.03,0.67,0.07,1,0.1
				c0.21,0.02,0.43,0.12,0.63,0.08c2.06-0.42,3.01,0.37,3.15,2.78c0.88-0.65,1.62-0.42,2.46,0.09c0.32,0.19,1.07-0.34,1.62-0.54
				c-0.03-0.13-0.05-0.27-0.08-0.4c-0.73-0.18-1.46-0.32-2.17-0.56c-0.4-0.13-0.88-0.33-1.09-0.64c-0.54-0.82-0.75-1.84-1.64-2.46
				c-0.15-0.1-0.09-0.63-0.01-0.92c0.38-1.44,1.29-2.42,2.65-3.02c0.75-0.33,1.05,0.2,1.38,0.68c0.48,0.69,0.96,1.36,1.51,2.14
				c-0.18-2.3-0.34-4.37-0.5-6.43c0.11-0.02,0.22-0.05,0.34-0.07c0.1,0.27,0.27,0.54,0.3,0.83c0.15,1.3,0.26,2.6,0.39,3.9
				c0.07,0.76,0.3,1.38,1.42,1.41c-0.16-2.09-0.32-4.15-0.48-6.22c0.12-0.01,0.24-0.01,0.36-0.02c0.09,2.28,0.19,4.57,0.28,6.92
				c-1.2-0.45-1.94-0.18-2.24,0.75c-0.29-0.11-0.57-0.21-0.86-0.32c-0.08,0.06-0.16,0.12-0.24,0.18c0.5,0.73,1,1.45,1.55,2.24
				c-0.82-0.26-1.5-0.5-2.2-0.68c-0.69-0.18-1.4-0.28-2.12-0.42c0.11,1.39,2.6,2.56,4.21,1.95c-0.13,0.62-0.24,1.18-0.36,1.73
				c-0.06-0.01-0.13-0.03-0.19-0.04c0.15,0.32,0.29,0.65,0.44,0.97c-1.55,0.26-1.91,1.88-0.81,3.66c-0.22,0.27-0.44,0.53-0.79,0.96
				c0.78-0.12,1.3-0.2,1.96-0.29c-0.21-0.4-0.45-0.69-0.52-1.02c-0.08-0.38-0.02-0.79,0-1.18c0.04-0.72,0.09-1.44,0.14-2.16
				c0.08,0.23,0.18,0.46,0.23,0.7c0.19,0.89,0.36,1.79,0.58,2.9c0.84-1.23,0-2.51,0.67-3.63c0.09,0.88,0.2,1.76,0.26,2.64
				c0.07,0.91,0.04,1.83,0.17,2.73c0.04,0.27,0.45,0.49,0.7,0.73c0.05-0.31,0.17-0.63,0.13-0.93c-0.21-1.66-0.45-3.32-0.7-4.97
				c-0.06-0.37-0.25-0.71-0.32-1.08c-0.03-0.19,0.07-0.41,0.38-0.6c0.3,1.94,0.66,3.87,0.86,5.82c0.12,1.17,0.79,1.68,1.74,2.06
				c0.13-0.24,0.25-0.45,0.37-0.69c0.21,0.54,0.38,1.01,0.56,1.47c0.02,0.13,0.02,0.38,0.06,0.38c1.11,0.16,1.74,0.84,2.02,2.03
				c0.53-1.42,0.2-2.22-0.95-2.45C69.19,95.18,68.78,95.29,68.39,95.33z M62.98,97.61c-0.19,0.1-0.55,0.22-0.54,0.31
				c0.12,1.35,0.28,2.7,0.44,4.05c0.2-0.58,0.3-1.19,0.29-1.8c-0.02-0.86-0.14-1.73-0.21-2.59c0.81,0.29,1.63,0.62,2.4-0.15
				C64.57,97.66,63.7,96.17,62.98,97.61z M61.61,81.16c-0.02-1.07-0.9-2.09-1.88-1.86c-0.9,0.21-2.17,1.55-2.23,2.48
				c-0.02,0.28,0.23,0.65,0.47,0.85c0.15,0.13,0.55,0.1,0.77,0C59.63,82.21,60.5,81.73,61.61,81.16z M61.18,96.42
				c0.13-0.06,0.26-0.12,0.39-0.18c0.34,0.01,0.7,0.08,1.03,0.01c0.46-0.09,1.01-0.18,1.3-0.48c0.31-0.33,0.36-0.91,0.61-1.6
				c-0.34-0.27-0.83-0.77-1.42-1.09c-0.48-0.26-1-0.17-1.21,0.5c-0.15,0.47-0.37,0.92-0.49,1.39
				C61.28,95.44,61.25,95.93,61.18,96.42z M53.94,87.62c-0.5,0.43-0.97,0.85-1.47,1.25c-0.28,0.23-0.6,0.41-0.91,0.61
				c0.35,0.29,0.67,0.62,1.05,0.87c0.27,0.18,0.6,0.28,0.91,0.36c0.75,0.18,1.41-0.01,1.77-0.72c0.31-0.63,0.34-1.24-0.52-1.57
				C54.5,88.32,54.31,87.99,53.94,87.62z M57.22,89.26c-0.13,0.11-0.26,0.22-0.4,0.33c-0.17,0.6,0.47,2.51,0.95,2.46
				c0.97-0.12,1.9-0.59,2.85-0.91c0.01-0.15,0.01-0.3,0.02-0.45c-0.68-0.35-1.35-0.69-1.78-0.91c-0.37,0.28-0.63,0.48-1.04,0.79
				C57.58,90.04,57.4,89.65,57.22,89.26z M55.86,86.72c-0.01-0.05-0.03-0.11-0.04-0.16c-0.41,0.13-0.83,0.27-1.24,0.4
				c0.24,0.33,0.48,0.66,0.72,0.98c0.02,0.03,0.05,0.05,0.08,0.08c1.12,1.08,1.4,0.75,2.09-0.38c0.14-0.24,0.09-0.64,0.01-0.93
				c-0.02-0.07-0.49-0.04-0.75-0.04C56.44,86.68,56.15,86.71,55.86,86.72z M64.18,96.73c1.59,0.61,2.51,0.12,2.48-1.35
				c-0.01-0.3-0.25-0.6-0.39-0.9c-0.39,0.19-0.89,0.3-1.15,0.6C64.73,95.53,64.51,96.13,64.18,96.73z M69.39,98.3
				c0.13-0.15,0.58-0.45,0.65-0.81c0.13-0.68-0.81-1.54-1.57-1.44c-0.3,0.04-0.73,0.45-0.79,0.75
				C67.53,97.58,68.23,98.27,69.39,98.3z M57.38,86.34c0.07-1.03-0.42-1.59-1.17-1.75c-0.37-0.08-0.84,0.31-1.27,0.49
				c0.27,0.37,0.47,0.89,0.84,1.06C56.22,86.36,56.81,86.29,57.38,86.34z M59.47,93.29c-0.33,1.01-0.57,1.74-0.8,2.45
				c1.62,0.17,2.1-0.67,1.43-2.71C59.8,93.15,59.5,93.27,59.47,93.29z M58.85,93.92c-1.52,0.42-2.47,1.35-2.19,2.15
				C58.05,95.8,58.82,95.04,58.85,93.92z M62.26,120.1c-0.28,1.69-0.57,3.37-0.85,5.06c0.09,0.02,0.19,0.03,0.28,0.05
				C62.23,123.56,62.92,121.93,62.26,120.1z M59.99,87.53c-0.02-0.11-0.04-0.21-0.06-0.32c-0.46-0.01-0.95-0.12-1.38,0
				C58.31,87.28,58.1,87.7,58,88c-0.06,0.18,0.15,0.65,0.2,0.64c0.33-0.04,0.69-0.11,0.96-0.29C59.48,88.14,59.72,87.81,59.99,87.53
				z M59.03,82.68c0.03,0.14,0.05,0.29,0.08,0.43c0.74,0.12,1.47,0.23,2.57,0.4c-0.46-0.66-0.7-1.33-0.98-1.34
				C60.15,82.15,59.59,82.49,59.03,82.68z M54.85,91.94c0.67,1.15,1.43,1.18,2.5,0.22C56.38,92.08,55.62,92.01,54.85,91.94z
				 M47.76,88.68c0.05-0.07,0.11-0.13,0.16-0.2c-0.26-0.43-0.45-0.92-0.8-1.26c-0.17-0.16-0.63-0.03-0.96-0.03
				c0.08,0.28,0.08,0.67,0.27,0.81C46.83,88.3,47.32,88.46,47.76,88.68z M66.69,99.43c0.11,0,0.22-0.01,0.34-0.01
				c0.13-0.58,0.27-1.15,0.46-1.98c-0.52,0.23-1.03,0.35-1.03,0.48C66.45,98.43,66.6,98.93,66.69,99.43z M62.26,114.19
				c0.06,0.01,0.13,0.02,0.19,0.02c0.03-1.1,0.06-2.2,0.08-3.3c-0.06,0-0.13,0-0.19,0C62.31,112,62.29,113.09,62.26,114.19z"/>
			<path class="st0" d="M66.37,53.69c-0.29,0.5-0.48,0.96,0.37,1.09c0.17,0.02,0.33,0.15,0.49,0.24c1.95,1.08,2.05,2.13,0.29,3.56
				c0.69,0.47,1.36,0.93,2.03,1.39c0.14-0.15,0.23-0.22,0.28-0.31c0.28-0.47,0.52-1.31,0.83-1.33c0.86-0.06,1.83,0.04,2.6,0.41
				c0.85,0.41,0.27,2.55-0.76,3.01c-1.19,0.53-2.46,0.19-3.23-0.88c-0.49-0.68-1.81-1.25-2.97-1.18c0.41,0.68,0.73,1.33,1.15,1.89
				c1.07,1.44,1.07,1.82,0.02,3.33c-0.17,0.24-0.15,0.62-0.16,0.94c-0.03,0.77-0.02,1.54-0.04,2.3c0,0.14-0.05,0.28-0.21,0.43
				c-0.02-0.46-0.03-0.92-0.06-1.38c-0.03-0.43-0.1-0.86-0.21-1.29c-0.05,1.92-0.1,3.83-0.14,5.75c0.1,0,0.19,0.01,0.29,0.01
				c0.01-0.55,0.03-1.09,0.05-1.82c0.36,0.5,0.72,1.21,0.64,1.2c-0.16,1.15-0.32,2.31-0.51,3.67c-0.16-0.98-0.29-1.77-0.42-2.55
				c-1.42,0.06-1.58,0.24-1.39,1.45c0.04,0.25,0.07,0.51,0.07,0.76c0,0.28-0.04,0.55-0.08,1.03c-0.19-0.97-0.35-1.74-0.52-2.61
				c-0.7,0.37-1.29,0.68-2,1.06c-0.02-0.56-0.04-0.98-0.06-1.57c-0.14,0.21-0.28,0.33-0.26,0.4c0.36,1.27-0.52,2.02-1.32,2.61
				c-0.91,0.67-1.99,1.29-3.08,1.5c-1.61,0.32-2.2-0.44-2.4-2.35c-2.01-0.16-4-0.28-5.97-0.5c-0.5-0.06-0.96-0.43-1.44-0.65
				c2.2,0.59,4.41,0.99,6.69,0.6c0.42-0.07,0.82-0.29,1.41-0.52c-0.98-0.49-1.65-0.85-2.34-1.15c-0.24-0.1-0.6-0.15-0.82-0.05
				c-1.32,0.68-2.69,0.75-4.13,0.59c-0.19-0.02-1.03-0.31-0.78,0.56c-0.75-0.46-1.98-0.39-1.99-1.81c2.21,1.32,5.16,1.18,7.07,0.06
				c-1.09-0.58-2.12-1.01-3.01-1.64c-0.52-0.36-1.09-1.03-1.12-1.59c-0.02-0.47,0.71-0.98,1.14-1.43c0.1-0.11,0.38-0.16,0.51-0.1
				c1.47,0.65,2.22-0.27,3.01-1.44c-0.55-0.29-1.12-0.55-1.65-0.88c-0.62-0.4-1.26-0.81-1.77-1.33c-0.14-0.14,0-0.9,0.2-1
				c0.6-0.3,1.29-0.48,1.96-0.61c0.81-0.16,1.64-0.22,2.46-0.31c0.17-0.02,0.36,0,0.52,0.07c1.78,0.75,3.21-0.12,4.69-0.82
				c0.01-0.13,0.02-0.27,0.03-0.4c-0.59-0.1-1.18-0.18-1.76-0.31c-1.16-0.27-2.31-0.53-3.45-0.88c-0.28-0.09-0.47-0.49-0.69-0.74
				c0.05-0.12,0.1-0.23,0.14-0.35c1.82-0.22,3.64-0.43,5.57-0.66c-0.09-0.22-0.23-0.46-0.28-0.72c-0.13-0.66-0.7-1.27,0.45-1.83
				c0.97-0.47,1.72-1.46,2.46-2.32c0.21-0.24,0.19-0.92-0.01-1.2c-0.5-0.71-1.17-1.3-1.77-1.94c-1.15-1.24-1.19-2.35-0.12-3.6
				c0.53-0.62,1.39-0.61,1.7,0.12c0.29,0.67,0.36,1.45,0.43,2.19c0.04,0.49-0.1,1-0.28,1.5c-0.02-0.73,0.04-1.47-0.08-2.18
				c-0.07-0.45-0.33-0.94-0.67-1.23c-0.17-0.14-0.92,0.05-1.01,0.26c-0.22,0.47-0.42,1.19-0.21,1.57c0.45,0.81,1.16,1.48,1.78,2.19
				c0.17,0.19,0.38,0.34,0.57,0.52c0.7-0.56,1.42-1.14,2.15-1.71c-0.23,0.79-1.51,1.16-0.9,2.33c0.76-0.61,1.4-1.29,1.95-2.03
				c0.09-0.13,0.5-1.2,0.6-1.15c-0.11,0.63-0.21,1.26-0.34,2c1.42,1.67,1.39,2.62-0.25,3.8c0.24-0.55,0.55-1.09,0.71-1.67
				c0.09-0.3-0.04-0.69-0.14-1.01c-0.02-0.07-0.4-0.15-0.45-0.09c-0.42,0.52-0.97,1.02-1.13,1.62C65.26,52.82,66,53.3,66.37,53.69z
				 M60.77,61.61c0.55,0.73,1.11,0.16,1.5-0.12c0.36-0.26,0.87-0.78,0.2-1.33c-0.19-1.06-0.89-1.73-1.78-1.79
				c-0.37-0.02-0.76-0.17-1.1-0.34c-1.22-0.62-3.08-0.43-4.11,0.54c0.48,0.19,0.89,0.46,1.34,0.52c1.05,0.15,2.13,0.13,3.16,0.34
				c0.59,0.12,1.11,0.57,1.65,0.88c-0.04,0.09-0.08,0.18-0.11,0.26c0.32-0.15,0.64-0.29,0.96-0.43c-0.51,0.4-1.01,0.8-1.52,1.2
				c-0.14-0.09-0.3-0.28-0.41-0.25c-0.93,0.21-1.85,0.45-2.76,0.71c-0.17,0.05-0.3,0.24-0.65,0.53c0.84,0.2,1.47,0.46,2.09,0.44
				c0.29-0.01,0.55-0.56,0.86-0.82C60.29,61.8,60.55,61.72,60.77,61.61z M51.18,66.75c-0.72,0.64-1.37,0.96-1.55,1.46
				c-0.11,0.3,0.42,1,0.83,1.29c0.74,0.52,1.62,0.82,2.41,1.28c1.12,0.65,2,0.59,2.79-0.39c0.23-0.29,0.45-0.91,0.31-1.1
				c-0.22-0.28-0.75-0.39-1.16-0.44c-0.43-0.05-0.91,0.2-1.3,0.08c-0.5-0.16-0.96-0.52-1.37-0.88
				C51.83,67.76,51.62,67.35,51.18,66.75z M61.49,73.65c-1.42,0.11-2.81,0.22-4.21,0.34c-0.54,0.05-1.15,0.04-1.19,0.83
				c-0.03,0.71,0.26,1.16,0.98,1.38C58.54,76.65,61.05,75.25,61.49,73.65z M57.05,68.6c-0.42,1,0.45,2.69,1.35,2.81
				c0.21,0.03,0.57-0.05,0.63-0.18c0.15-0.34,0.36-0.93,0.2-1.08c-0.59-0.59-0.24-0.79,0.22-1.17c0.29-0.23,0.61-0.83,0.5-1.07
				c-0.36-0.78-1.27-1.01-1.78-0.58c-0.32,0.28-0.6,0.62-0.91,0.94c0.35,0.5,0.65,0.93,0.95,1.36c-0.05,0.03-0.11,0.07-0.16,0.1
				C57.74,69.39,57.44,69.04,57.05,68.6z M62.21,63.85c1.25,0.79,1.52,1.45,1.2,2.81c-0.08,0.35-0.26,0.69-0.29,1.05
				c-0.02,0.29,0.04,0.81,0.19,0.85c0.28,0.09,0.71,0.02,0.96-0.15c1.29-0.89,1.4-1.43,0.71-2.87c-0.13-0.26-0.25-0.53-0.38-0.79
				C63.89,63.29,63.89,63.29,62.21,63.85z M62.67,68c0.14-0.61,0.33-1.2,0.41-1.81c0.19-1.42-0.47-1.91-1.78-1.38
				c-0.4,0.16-0.8,0.29-1.32,0.48C60.96,66.16,60.83,67.89,62.67,68z M66.43,56.61c-0.35,0.51-0.56,0.82-0.78,1.13
				c0.44,0.09,0.96,0.38,1.29,0.23c0.52-0.22,1.08-0.68,1.27-1.17c0.1-0.26-0.49-0.98-0.92-1.18c-0.51-0.23-1.2-0.25-1.75-0.11
				c-0.29,0.07-0.44,0.67-0.68,1.06C65.53,56.58,65.96,56.59,66.43,56.61z M63.91,69.48c-0.17,1.15-0.32,2.17-0.48,3.31
				c0.86-0.37,1.74-0.75,2.6-1.12C65.57,69.91,65.02,69.4,63.91,69.48z M53.26,67.61c0.01-0.05,0.03-0.1,0.04-0.15
				c0.75,0.27,1.5,0.54,2.25,0.81c0.07-0.08,0.14-0.17,0.21-0.25c-0.23-0.64-0.39-1.31-0.72-1.89c-0.13-0.22-0.83-0.42-0.94-0.31
				c-0.61,0.62-1.12,1.35-1.84,2.25c0.84,0.22,1.36,0.36,1.88,0.5c0.03-0.11,0.07-0.22,0.1-0.33
				C53.92,68.02,53.59,67.81,53.26,67.61z M71.98,61.17c0.15,0.01,0.29,0.02,0.44,0.02c0.25-0.59,0.87-1.44,0.67-1.72
				c-0.35-0.5-1.17-0.81-1.83-0.89c-0.36-0.04-0.79,0.56-1.19,0.87c0.03,0.12,0.07,0.23,0.1,0.35
				C71.03,59.94,71.97,59.95,71.98,61.17z M52.11,63.41c0.9,0.81,1.83,0.52,2.7,0.5c0.09,0,0.26-0.24,0.24-0.31
				c-0.18-0.46-0.3-1.01-0.64-1.3c-0.24-0.21-0.87-0.22-1.18-0.05C52.79,62.5,52.5,62.99,52.11,63.41z M63.91,52.32
				c-0.12,0.07-0.25,0.13-0.37,0.2c-0.17,0.08-0.38,0.12-0.51,0.24c-0.46,0.41-0.9,0.85-1.35,1.28c0.39,0.29,0.75,0.68,1.19,0.84
				c0.51,0.18,1.06,0.05,1.08-0.67C63.98,53.58,63.93,52.95,63.91,52.32z M65.36,58.31c0.51,2.26,1.01,4.45,1.51,6.64
				c0.11-0.02,0.21-0.03,0.32-0.05c-0.38-2.11-0.76-4.22-1.16-6.47C65.85,58.4,65.51,58.34,65.36,58.31z M64.31,63.4
				c0.52,0.95,1.01,1.83,1.49,2.71c0.09-0.04,0.19-0.07,0.28-0.11c-0.22-1.08,0.26-2.27-0.64-3.34
				C65.05,62.92,64.69,63.15,64.31,63.4z M61.2,68.96c-0.12-0.05-0.25-0.1-0.37-0.15c-0.25,0.39-0.76,0.83-0.69,1.14
				c0.15,0.63,0.61,1.18,1,1.86C62.23,70.63,61.48,69.81,61.2,68.96z M65.45,59.36c-0.11-0.1-0.22-0.19-0.32-0.29
				c-0.97,0.57-2.31,0.85-1.9,2.84C64.08,60.93,64.77,60.15,65.45,59.36z M55.58,66.05c0.46,0.67,0.78,1.14,1.23,1.8
				c0.51-0.67,0.85-1.12,1.32-1.73C57.21,66.09,56.57,66.07,55.58,66.05z M56.67,70.13c-0.11,0.03-0.22,0.06-0.33,0.09
				c-0.13,0.7-0.25,1.39-0.38,2.09c0.1,0.07,0.2,0.13,0.29,0.2c0.4-0.3,1.11-0.59,1.12-0.91C57.4,71.12,56.93,70.62,56.67,70.13z
				 M60.23,70.96c-0.15,0.02-0.3,0.04-0.45,0.07c-0.12,0.68-0.25,1.37-0.37,2.05c0.08,0.07,0.17,0.13,0.25,0.2
				c0.32-0.23,0.89-0.43,0.91-0.68C60.6,72.06,60.36,71.51,60.23,70.96z M63.31,56.95c0.11,0.8,0.2,1.45,0.29,2.09
				c0.15,0.02,0.29,0.03,0.44,0.05c0.17-0.68,0.34-1.35,0.53-2.11C64.1,56.97,63.79,56.96,63.31,56.95z M50.68,62.4
				c0.86,1.43,1.08,0.81,2.11-0.59C52,62.03,51.41,62.19,50.68,62.4z M54.22,71.79c0.53,0.28,0.84,0.44,1.28,0.67
				c0.12-0.56,0.22-1,0.37-1.69C55.25,71.15,54.84,71.4,54.22,71.79z M61.86,63.19c0.52-0.04,1.04-0.07,1.66-0.12
				C62.8,61.92,62.76,61.92,61.86,63.19z M55.6,62.79c-0.07,0.14-0.14,0.27-0.21,0.41c0.69,0.32,1.37,0.65,2.06,0.97
				c-0.06-0.36-0.22-0.54-0.43-0.65C56.56,63.26,56.08,63.03,55.6,62.79z"/>
			<path class="st0" d="M67.82,84.41c0.28,0.46,0.54,0.88,0.84,1.38c0.52-1.65,0.31-2.2-0.83-2.45c-0.08-0.34-0.15-0.67-0.3-1.29
				c-0.33,1.34-0.58,2.37-0.78,3.21c-0.04-2.7-0.08-5.62-0.12-8.54c-0.15,1.87,1.32,2.38,2.57,2.99c0.22,0.11,0.83-0.19,0.99-0.46
				c0.45-0.76,0.98-0.69,1.55-0.27c0.94,0.69,1.84,1.44,2.79,1.88c0.82,0.13,1.65,0.19,2.43,0.43c0.18,0.06,0.18,0.71,0.33,1.37
				c1,0.03,2.19,0.05,3.53,0.09c-0.61,0.33-1.19,0.64-1.86,1c1.19,0.78,0.46,1.28-0.24,1.76c-0.33,0.23-0.75,0.35-1.02,0.62
				c-0.26,0.26-0.48,0.63-0.54,0.98c-0.09,0.53-0.01,1.09-0.04,1.64c-0.05,0.88-0.44,1.64-1.29,1.86c-1.87,0.49-3.78,0.81-5.65-0.06
				c-0.24-0.11-0.61-0.38-0.59-0.55c0.09-1.04-0.84-1.58-1.1-2.4C68.15,86.57,68.03,85.48,67.82,84.41z M70.5,89.26
				c0.07,0.25,0.07,0.35,0.11,0.39c1.36,1.3,5.1,0.37,5.62-1.41c0.07-0.25,0.03-0.62-0.12-0.82c-0.52-0.73-2.26-0.47-2.74,0.28
				c-0.34,0.55-0.83,1.07-1.37,1.4C71.65,89.32,71.07,89.21,70.5,89.26z M76.82,81.95c-0.05-0.12-0.11-0.24-0.16-0.36
				c-0.28,0.16-0.67,0.25-0.81,0.48c-0.4,0.7-0.71,1.45-1.08,2.24c0.27,0.21,0.64,0.48,1,0.79c1.09,0.94,2,0.81,2.84-0.36
				c-0.77-0.32-1.57-0.66-2.45-1.03c0.3-0.44,0.47-0.69,0.64-0.93c-0.25-0.21-0.43-0.37-0.64-0.56
				C76.4,82.13,76.61,82.04,76.82,81.95z M67.7,80.34c-0.16-0.12-0.4-0.29-0.64-0.47c-0.08,0.29-0.22,0.58-0.22,0.86
				c0,0.33,0.14,0.66,0.21,0.99c0.06-0.09,0.13-0.18,0.19-0.27c0.19,0.16,0.4,0.3,0.57,0.48c0.27,0.29,0.49,0.81,0.77,0.84
				c0.35,0.04,0.74-0.33,0.92-0.42c-0.27-0.81-0.46-1.37-0.7-2.06C68.58,80.3,68.17,80.32,67.7,80.34z M72.88,81.97
				c-1.48-0.36-2.61,0.25-3.35,1.81c0.65,0.09,1.25,0.16,2.01,0.26c-0.2-0.55-0.32-0.87-0.48-1.3
				C71.67,82.48,72.23,82.24,72.88,81.97z M73.73,81.36c0.07-0.08,0.13-0.16,0.2-0.24c-0.66-0.49-1.3-1.01-1.99-1.46
				c-0.79-0.52-1.08-0.38-1.5,0.68C71.54,80.68,72.64,81.02,73.73,81.36z M69.4,85.66c0.15,0.52,0.21,0.74,0.24,0.83
				c-0.37,0.21-0.66,0.38-0.95,0.54c0.27,0.42,0.54,0.84,0.87,1.34c0.46-0.79,0.8-1.37,1.16-1.98
				C70.33,86.17,69.99,85.99,69.4,85.66z M70.44,88.54c1.25,0.5,1.45-0.67,2.14-1.05C71.52,86.81,71.03,87.05,70.44,88.54z
				 M69.59,85.18c0.89,0.4,1.46,0.66,2.09,0.95c-0.16-0.69-0.27-1.18-0.41-1.83C70.81,84.53,70.37,84.77,69.59,85.18z M72.78,84.04
				c-0.41-1.12,1.09-1.15,1.03-2.06c-0.71,0.42-1.34,0.78-2.05,1.2C72.15,83.52,72.46,83.78,72.78,84.04z"/>
			<path class="st0" d="M73.29,67.41c0.92,1.2-0.65,1.16-0.76,1.9c1.13,0.23,2.18,0.64,3.4,0.17c0.75-0.29,1.65-0.3,2.47-0.24
				c1.67,0.11,2.66,1.72,2.12,3.23c-0.04,0.12,0.05,0.3,0.1,0.44c0.37,1.03,0.75,2.05,1.13,3.07c-3.44,1.36-4.64,1.21-6.44-0.76
				c-1.92,1.05-3.83,1.39-5.71-0.05c-0.57-0.44-1.03-0.21-1.43,0.22c-0.29,0.31-0.52,0.68-0.87,1.15c-0.08-0.58-0.14-1.06-0.21-1.58
				c2.43-0.61,2.37-3.22,3.88-4.46c-0.03-0.17-0.03-0.24-0.06-0.31c-0.28-0.57-0.88-1.2-0.79-1.7c0.15-0.81,1-0.87,1.79-0.82
				C72.35,67.71,72.82,67.51,73.29,67.41z M70.11,74.69c1.09,0.84,1.91,0.66,2.63-0.45c0.53-0.82-2.5-2.08-2.98-1.39
				c0.37,0.42,0.66,0.74,0.95,1.08C70.49,74.2,70.32,74.42,70.11,74.69z M75.85,75.05c1.06,1.86,1.93,1.89,5.3,0.36
				c-0.3-0.77-0.6-1.55-0.97-2.53c-0.39,0.89-0.66,1.53-0.98,2.26C78.17,75.11,77.09,75.08,75.85,75.05z M74.7,72.12
				c2.03,1.11,2.04,1.11,2.87,0.32c-0.13-0.76-0.5-1.52-0.29-2.05c0.15-0.4,1.06-0.5,1.63-0.73c-0.86-0.45-1.79-0.16-2.72,0.11
				C74.94,70.12,75.63,71.51,74.7,72.12z M71.8,69.99c0.51,1.16,2.4,0.84,2.31,2.51c0.27-0.71,0.6-1.54,0.33-1.9
				C73.85,69.83,72.85,69.82,71.8,69.99z M70.58,69.23c0.07,0.11,0.14,0.22,0.21,0.34c0.55-0.28,1.09-0.56,1.64-0.84
				c-0.06-0.12-0.13-0.24-0.19-0.37C71.53,68.34,70.8,68.28,70.58,69.23z M72.59,75.25c0.05,0.08,0.09,0.16,0.14,0.23
				c0.54-0.14,1.08-0.28,1.88-0.49C74.03,74.66,72.83,74.93,72.59,75.25z M77.07,73.75c0.68,0.13,1.11,0.21,1.86,0.35
				C78.57,73.46,77.52,73.29,77.07,73.75z"/>
			<path class="st0" d="M66.33,117.42c-1.02,4.27-2.02,12.92-2.17,12.9c0.19-0.85,0.35-1.7,0.57-2.54c0.1-0.4,0.41-0.77,0.45-1.17
				c0.26-3.17,0.59-6.33,0.67-9.5c0.08-3.39-0.05-6.79-0.18-10.18c-0.09-2.39-0.35-4.77-0.52-7.15c-0.02-0.24,0.03-0.48,0.06-0.83
				c0.74,0.72,0.92,1.43,0.91,2.38c-0.03,3.14,0.02,6.29,0.23,9.42c0.26,4.04,0.77,8.07,1.05,12.11c0.11,1.59-0.15,3.2-0.19,4.8
				c-0.02,0.71,0.11,1.42-0.06,2.14C66.63,125.69,67.42,121.5,66.33,117.42z"/>
			<path class="st0" d="M67.9,119.85c-0.24-6.28-0.47-12.55-0.71-18.83c0.13-0.01,0.26-0.01,0.38-0.02
				c0.2,6.28,0.39,12.56,0.59,18.84C68.08,119.85,67.99,119.85,67.9,119.85z"/>
			<path class="st0" d="M63.2,126.17c0.79-1.38,0.26-2.85,0.91-4.12c0.1,0.01,0.2,0.03,0.29,0.04c-0.43,2.75-0.86,5.49-1.28,8.24
				C63.01,130.33,62.57,127.27,63.2,126.17z"/>
			<path class="st0" d="M68.02,87.72c0.06,1.81,0.12,3.63,0.18,5.44c-0.12,0.01-0.23,0.01-0.35,0.02c-0.59-1.78,0.1-3.64-0.29-5.43
				C67.72,87.73,67.87,87.72,68.02,87.72z"/>
			<path class="st0" d="M66.9,93.68c-0.25-2.59-0.5-5.17-0.74-7.76c0.04-0.01,0.08-0.01,0.13-0.02c0.09,0.86,0.15,1.72,0.28,2.57
				c0.13,0.83,0.39,1.63,0.5,2.46c0.11,0.89,0.11,1.8,0.16,2.7C67.12,93.65,67.01,93.66,66.9,93.68z"/>
			<path class="st0" d="M63.35,82.71c0.47,1.98,0.92,4-0.15,6.03C63.25,86.73,63.3,84.72,63.35,82.71z"/>
			<path class="st0" d="M65.52,84.93c0.05,0.58,0.1,1.17,0.17,2c-1.67-1.87-1.76-2.09-1.37-3.5c0.28,0.85,0.46,1.42,0.68,2.11
				c0.1-0.24,0.18-0.43,0.25-0.61C65.34,84.92,65.43,84.93,65.52,84.93z"/>
			<path class="st0" d="M68.12,127.5c0.63,1.16,1.25,2.33,1.88,3.49C69.89,131.04,68.39,128.82,68.12,127.5z"/>
			
				<ellipse transform="matrix(0.025 -0.9997 0.9997 0.025 -54.3517 179.0352)" class="st0" cx="64.61" cy="117.38" rx="3.91" ry="0.1"/>
		</g>
	</g>
	<g>
		<g>
			<path d="M106.51,65.85h-4.98v-1.8h12.12v1.8h-5v14.58h-2.14V65.85z"/>
			<path d="M118.14,64.05v6.85h7.92v-6.85h2.14v16.37h-2.14v-7.68h-7.92v7.68h-2.11V64.05H118.14z"/>
			<path d="M140.9,72.75h-6.36v5.9h7.09v1.77h-9.21V64.05h8.84v1.77h-6.73V71h6.36V72.75z"/>
			<path d="M163.1,79.69c-0.95,0.34-2.82,0.9-5.03,0.9c-2.48,0-4.52-0.63-6.12-2.16c-1.41-1.36-2.28-3.55-2.28-6.1
				c0.02-4.88,3.38-8.45,8.87-8.45c1.89,0,3.38,0.41,4.08,0.75l-0.51,1.72c-0.87-0.39-1.97-0.7-3.62-0.7
				c-3.98,0-6.58,2.48-6.58,6.58c0,4.15,2.5,6.61,6.32,6.61c1.38,0,2.33-0.19,2.82-0.44v-4.88h-3.33v-1.7h5.39V79.69z"/>
			<path d="M166.88,64.27c1.07-0.22,2.6-0.34,4.06-0.34c2.26,0,3.72,0.41,4.74,1.34c0.83,0.73,1.29,1.85,1.29,3.11
				c0,2.16-1.36,3.6-3.09,4.18v0.07c1.26,0.44,2.02,1.6,2.41,3.3c0.53,2.28,0.92,3.86,1.26,4.49h-2.19
				c-0.27-0.46-0.63-1.87-1.09-3.91c-0.49-2.26-1.36-3.11-3.28-3.18H169v7.09h-2.11V64.27z M169,71.73h2.16
				c2.26,0,3.69-1.24,3.69-3.11c0-2.11-1.53-3.04-3.77-3.06c-1.02,0-1.75,0.1-2.09,0.2V71.73z"/>
			<path d="M188.98,72.75h-6.36v5.9h7.09v1.77h-9.21V64.05h8.84v1.77h-6.73V71h6.36V72.75z"/>
			<path d="M201.49,72.75h-6.36v5.9h7.09v1.77h-9.21V64.05h8.84v1.77h-6.73V71h6.36V72.75z"/>
			<path d="M205.52,80.42V64.05h2.31l5.25,8.28c1.21,1.92,2.16,3.64,2.94,5.32l0.05-0.02c-0.19-2.19-0.24-4.18-0.24-6.73v-6.85h1.99
				v16.37h-2.14l-5.2-8.31c-1.14-1.82-2.23-3.69-3.06-5.47l-0.07,0.02c0.12,2.06,0.17,4.03,0.17,6.75v7H205.52z"/>
			<path d="M229.88,64.05v16.37h-2.11V64.05H229.88z"/>
			<path d="M234.13,80.42V64.05h2.31l5.25,8.28c1.21,1.92,2.16,3.64,2.94,5.32l0.05-0.02c-0.19-2.19-0.24-4.18-0.24-6.73v-6.85h1.99
				v16.37h-2.14l-5.2-8.31c-1.14-1.82-2.24-3.69-3.06-5.47l-0.07,0.02c0.12,2.06,0.17,4.03,0.17,6.75v7H234.13z"/>
			<path d="M252.78,64.05v16.37h-2.11V64.05H252.78z"/>
			<path d="M260.14,65.85h-4.98v-1.8h12.12v1.8h-5v14.58h-2.14V65.85z"/>
			<path d="M271.77,64.05v16.37h-2.11V64.05H271.77z"/>
			<path d="M278.67,75.27l-1.7,5.15h-2.19l5.56-16.37h2.55l5.59,16.37h-2.26l-1.75-5.15H278.67z M284.04,73.62l-1.6-4.71
				c-0.37-1.07-0.61-2.04-0.85-2.99h-0.05c-0.24,0.97-0.51,1.97-0.83,2.96l-1.6,4.74H284.04z"/>
			<path d="M292.68,65.85h-4.98v-1.8h12.12v1.8h-5v14.58h-2.14V65.85z"/>
			<path d="M304.31,64.05v16.37h-2.11V64.05H304.31z"/>
			<path d="M312.16,80.42l-5.34-16.37h2.28l2.55,8.07c0.7,2.21,1.31,4.2,1.75,6.12h0.05c0.46-1.89,1.14-3.96,1.87-6.1l2.77-8.09
				h2.26l-5.85,16.37H312.16z"/>
			<path d="M331.15,72.75h-6.36v5.9h7.09v1.77h-9.21V64.05h8.84v1.77h-6.73V71h6.36V72.75z"/>
		</g>
	</g>
	<g>
		<path d="M123.81,116.68c0,1.74-0.32,3.29-0.96,4.64c-0.64,1.36-1.53,2.51-2.67,3.45c-1.14,0.95-2.47,1.66-4.01,2.13
			c-1.54,0.48-3.2,0.72-4.97,0.72c-1.24,0-2.39-0.11-3.45-0.32c-1.06-0.21-2.01-0.47-2.84-0.77c-0.83-0.3-1.53-0.62-2.09-0.95
			c-0.56-0.32-0.96-0.6-1.17-0.83s-0.38-0.52-0.49-0.87c-0.11-0.35-0.16-0.83-0.16-1.42c0-0.42,0.02-0.77,0.06-1.05
			c0.04-0.28,0.1-0.5,0.17-0.67s0.17-0.29,0.29-0.36c0.11-0.07,0.25-0.1,0.4-0.1c0.27,0,0.64,0.16,1.13,0.49
			c0.49,0.33,1.11,0.68,1.88,1.06c0.76,0.38,1.69,0.74,2.77,1.07c1.08,0.33,2.33,0.5,3.74,0.5c1.07,0,2.05-0.14,2.94-0.43
			c0.89-0.29,1.65-0.69,2.29-1.22c0.64-0.53,1.13-1.17,1.48-1.93c0.34-0.76,0.52-1.63,0.52-2.61c0-1.05-0.24-1.95-0.72-2.69
			c-0.48-0.74-1.11-1.4-1.89-1.96c-0.78-0.56-1.68-1.08-2.68-1.55c-1-0.47-2.03-0.95-3.08-1.43c-1.05-0.49-2.07-1.03-3.07-1.62
			c-0.99-0.59-1.88-1.29-2.67-2.09c-0.78-0.8-1.42-1.74-1.91-2.82c-0.49-1.08-0.73-2.37-0.73-3.88c0-1.55,0.28-2.93,0.85-4.14
			c0.56-1.21,1.35-2.23,2.35-3.05c1-0.82,2.2-1.45,3.58-1.88s2.88-0.64,4.48-0.64c0.82,0,1.65,0.07,2.48,0.21
			c0.83,0.14,1.61,0.33,2.35,0.57c0.74,0.24,1.39,0.51,1.96,0.8c0.57,0.3,0.95,0.54,1.13,0.72c0.18,0.18,0.3,0.33,0.36,0.43
			c0.06,0.11,0.1,0.24,0.14,0.4c0.04,0.16,0.07,0.36,0.09,0.59c0.02,0.23,0.03,0.53,0.03,0.89c0,0.34-0.01,0.65-0.04,0.92
			s-0.07,0.49-0.13,0.67c-0.06,0.18-0.14,0.31-0.24,0.4c-0.11,0.09-0.22,0.13-0.36,0.13c-0.21,0-0.54-0.13-0.99-0.4
			c-0.45-0.27-1-0.57-1.65-0.9c-0.65-0.33-1.42-0.64-2.31-0.92c-0.89-0.28-1.89-0.42-2.99-0.42c-1.03,0-1.93,0.14-2.69,0.42
			c-0.76,0.28-1.39,0.65-1.89,1.1c-0.5,0.46-0.87,1-1.12,1.63c-0.25,0.63-0.37,1.3-0.37,2.01c0,1.03,0.24,1.92,0.72,2.67
			s1.11,1.4,1.91,1.98c0.79,0.57,1.7,1.1,2.71,1.58c1.01,0.48,2.04,0.96,3.09,1.45s2.08,1.02,3.09,1.6
			c1.01,0.58,1.92,1.27,2.71,2.06c0.79,0.79,1.43,1.73,1.92,2.81C123.57,113.94,123.81,115.21,123.81,116.68z"/>
		<path d="M153.96,125.05c0,0.34-0.02,0.64-0.06,0.9s-0.11,0.47-0.2,0.64c-0.1,0.17-0.21,0.3-0.33,0.37
			c-0.12,0.08-0.26,0.11-0.42,0.11h-17.79c-0.44,0-0.86-0.15-1.25-0.44c-0.39-0.3-0.59-0.82-0.59-1.56V92.01
			c0-0.75,0.2-1.26,0.59-1.56c0.39-0.3,0.81-0.44,1.25-0.44h17.59c0.15,0,0.29,0.04,0.42,0.12s0.22,0.2,0.3,0.37
			s0.14,0.39,0.19,0.64c0.05,0.26,0.07,0.58,0.07,0.96c0,0.34-0.02,0.65-0.07,0.9c-0.05,0.26-0.11,0.47-0.19,0.63
			c-0.08,0.16-0.18,0.28-0.3,0.36s-0.26,0.11-0.42,0.11h-14.5v11.63h12.44c0.15,0,0.29,0.04,0.42,0.13
			c0.12,0.09,0.23,0.21,0.31,0.36s0.15,0.36,0.19,0.63c0.04,0.27,0.06,0.58,0.06,0.95c0,0.34-0.02,0.64-0.06,0.89
			c-0.04,0.25-0.1,0.45-0.19,0.6c-0.09,0.15-0.19,0.26-0.31,0.33c-0.12,0.07-0.26,0.1-0.42,0.1h-12.44v13.27h14.7
			c0.15,0,0.29,0.04,0.42,0.11c0.12,0.08,0.23,0.2,0.33,0.36c0.09,0.16,0.16,0.37,0.2,0.63
			C153.94,124.35,153.96,124.67,153.96,125.05z"/>
		<path d="M199.15,130.35c0,0.44-0.02,0.81-0.07,1.1c-0.05,0.3-0.12,0.53-0.21,0.69s-0.2,0.27-0.32,0.33
			c-0.11,0.06-0.23,0.09-0.34,0.09c-0.38,0-1-0.16-1.85-0.47c-0.85-0.31-1.83-0.77-2.94-1.38c-1.11-0.6-2.29-1.33-3.55-2.19
			s-2.48-1.86-3.67-3.01c-0.94,0.57-2.12,1.07-3.55,1.49c-1.43,0.42-3.09,0.63-4.99,0.63c-2.79,0-5.2-0.41-7.24-1.23
			c-2.03-0.82-3.72-2.03-5.04-3.61c-1.33-1.58-2.32-3.56-2.97-5.92c-0.65-2.36-0.97-5.07-0.97-8.12c0-2.94,0.35-5.6,1.06-7.98
			c0.71-2.38,1.77-4.4,3.18-6.08c1.41-1.67,3.18-2.96,5.3-3.87c2.12-0.91,4.59-1.36,7.42-1.36c2.65,0,4.99,0.41,7.01,1.23
			c2.02,0.82,3.71,2.02,5.07,3.6c1.37,1.58,2.39,3.52,3.08,5.83c0.69,2.31,1.03,4.97,1.03,7.97c0,1.55-0.09,3.03-0.27,4.44
			c-0.18,1.41-0.47,2.75-0.86,4.01c-0.39,1.26-0.88,2.43-1.48,3.5c-0.59,1.07-1.29,2.04-2.09,2.89c1.39,1.15,2.62,2.04,3.67,2.68
			s1.92,1.12,2.61,1.45c0.69,0.32,1.22,0.56,1.6,0.7c0.38,0.14,0.67,0.3,0.86,0.49s0.33,0.44,0.4,0.77
			C199.11,129.36,199.15,129.8,199.15,130.35z M189.41,108.43c0-2.1-0.19-4.05-0.56-5.85c-0.37-1.79-0.99-3.36-1.86-4.69
			c-0.87-1.33-2.03-2.36-3.48-3.11c-1.45-0.75-3.25-1.12-5.39-1.12s-3.94,0.4-5.39,1.19c-1.45,0.79-2.63,1.86-3.54,3.21
			c-0.91,1.35-1.56,2.91-1.95,4.69s-0.59,3.66-0.59,5.65c0,2.18,0.18,4.18,0.54,6c0.36,1.83,0.97,3.41,1.83,4.74
			s2.01,2.37,3.45,3.11s3.25,1.1,5.43,1.1c2.16,0,3.97-0.4,5.44-1.2c1.47-0.8,2.66-1.89,3.55-3.25c0.9-1.37,1.54-2.95,1.92-4.76
			C189.21,112.34,189.41,110.44,189.41,108.43z"/>
		<path d="M233.36,113.39c0,2.25-0.33,4.26-0.99,6.03c-0.66,1.77-1.6,3.26-2.82,4.48s-2.71,2.15-4.47,2.78
			c-1.76,0.63-3.75,0.95-5.99,0.95c-2.04,0-3.91-0.3-5.59-0.89c-1.68-0.59-3.12-1.47-4.33-2.62c-1.2-1.16-2.13-2.6-2.78-4.34
			c-0.65-1.74-0.97-3.74-0.97-6.02V90.75c0-0.15,0.04-0.29,0.12-0.4c0.08-0.11,0.21-0.21,0.4-0.27c0.19-0.07,0.44-0.12,0.75-0.17
			c0.3-0.05,0.71-0.07,1.2-0.07c0.46,0,0.85,0.02,1.17,0.07c0.33,0.05,0.58,0.11,0.76,0.17c0.18,0.07,0.31,0.16,0.39,0.27
			c0.08,0.12,0.11,0.25,0.11,0.4v22.41c0,1.72,0.21,3.22,0.63,4.5c0.42,1.28,1.03,2.35,1.82,3.2s1.75,1.49,2.87,1.92
			c1.12,0.43,2.37,0.64,3.77,0.64c1.43,0,2.71-0.21,3.83-0.63c1.12-0.42,2.06-1.05,2.84-1.89c0.77-0.84,1.37-1.88,1.78-3.12
			c0.41-1.24,0.62-2.69,0.62-4.36V90.75c0-0.15,0.04-0.29,0.11-0.4c0.08-0.11,0.21-0.21,0.4-0.27c0.19-0.07,0.44-0.12,0.76-0.17
			c0.31-0.05,0.71-0.07,1.19-0.07c0.46,0,0.85,0.02,1.16,0.07c0.32,0.05,0.56,0.11,0.75,0.17c0.18,0.07,0.32,0.16,0.4,0.27
			c0.09,0.12,0.13,0.25,0.13,0.4V113.39z"/>
		<path d="M276.66,108.12c0,3-0.35,5.7-1.06,8.11s-1.76,4.46-3.17,6.15c-1.4,1.69-3.17,2.99-5.29,3.9
			c-2.12,0.91-4.59,1.36-7.42,1.36c-2.79,0-5.2-0.42-7.24-1.25c-2.03-0.83-3.72-2.04-5.04-3.62c-1.33-1.58-2.32-3.55-2.97-5.9
			c-0.65-2.35-0.97-5.05-0.97-8.11c0-2.92,0.35-5.58,1.06-7.97c0.71-2.39,1.77-4.42,3.18-6.09c1.41-1.67,3.18-2.96,5.3-3.87
			c2.12-0.91,4.59-1.36,7.42-1.36c2.73,0,5.11,0.41,7.13,1.23c2.02,0.82,3.71,2.02,5.06,3.6s2.35,3.52,3.01,5.85
			S276.66,105.12,276.66,108.12z M271.45,108.46c0-2.1-0.19-4.06-0.56-5.86c-0.37-1.81-0.99-3.37-1.86-4.7
			c-0.87-1.33-2.03-2.36-3.48-3.11c-1.45-0.75-3.24-1.12-5.38-1.12s-3.93,0.4-5.38,1.2c-1.45,0.8-2.63,1.87-3.54,3.21
			c-0.91,1.34-1.55,2.9-1.95,4.69s-0.59,3.66-0.59,5.63c0,2.18,0.18,4.18,0.54,6.02c0.36,1.83,0.97,3.42,1.83,4.74
			c0.86,1.33,2.01,2.36,3.45,3.1c1.44,0.74,3.25,1.1,5.42,1.1c2.16,0,3.97-0.4,5.44-1.2c1.47-0.8,2.65-1.89,3.55-3.25
			c0.9-1.37,1.54-2.95,1.92-4.74C271.26,112.37,271.45,110.47,271.45,108.46z"/>
		<path d="M291.85,126.34c0,0.15-0.04,0.29-0.11,0.4c-0.08,0.11-0.21,0.21-0.4,0.27c-0.19,0.07-0.44,0.12-0.76,0.17
			c-0.31,0.05-0.71,0.07-1.19,0.07c-0.46,0-0.85-0.02-1.17-0.07c-0.33-0.05-0.58-0.11-0.77-0.17c-0.19-0.07-0.33-0.16-0.4-0.27
			s-0.11-0.25-0.11-0.4V90.75c0-0.15,0.04-0.29,0.13-0.4c0.09-0.11,0.23-0.21,0.43-0.27c0.2-0.07,0.46-0.12,0.77-0.17
			c0.31-0.05,0.69-0.07,1.13-0.07c0.48,0,0.87,0.02,1.19,0.07c0.32,0.05,0.57,0.11,0.76,0.17c0.19,0.07,0.32,0.16,0.4,0.27
			c0.08,0.12,0.11,0.25,0.11,0.4V126.34z"/>
		<path d="M331.94,125.34c0.15,0.42,0.23,0.76,0.24,1.02c0.01,0.26-0.06,0.45-0.21,0.59c-0.15,0.13-0.41,0.22-0.76,0.26
			s-0.83,0.06-1.42,0.06c-0.59,0-1.06-0.01-1.42-0.04s-0.62-0.08-0.8-0.14c-0.18-0.07-0.31-0.16-0.4-0.27
			c-0.09-0.12-0.17-0.26-0.24-0.43l-3.18-9.03h-15.42l-3.04,8.91c-0.06,0.17-0.13,0.32-0.23,0.44c-0.1,0.12-0.23,0.23-0.42,0.32
			s-0.44,0.15-0.77,0.19s-0.77,0.06-1.3,0.06c-0.55,0-1.01-0.02-1.36-0.07c-0.35-0.05-0.6-0.14-0.75-0.27s-0.21-0.33-0.2-0.59
			c0.01-0.26,0.09-0.6,0.24-1.02l12.44-34.44c0.08-0.21,0.18-0.38,0.3-0.52c0.12-0.13,0.31-0.24,0.54-0.31
			c0.24-0.08,0.54-0.13,0.92-0.16c0.37-0.03,0.85-0.04,1.42-0.04c0.61,0,1.12,0.01,1.52,0.04c0.4,0.03,0.73,0.08,0.97,0.16
			s0.44,0.19,0.57,0.33s0.24,0.32,0.32,0.53L331.94,125.34z M315.98,94.93h-0.03l-6.39,18.48h12.89L315.98,94.93z"/>
	</g>
	<g>
		<path d="M126.16,52.11c0.72,0.47,1.99,0.97,3.21,0.97c1.77,0,2.6-0.89,2.6-2c0-1.17-0.69-1.81-2.49-2.48
			c-2.41-0.86-3.54-2.2-3.54-3.81c0-2.17,1.74-3.95,4.62-3.95c1.36,0,2.55,0.39,3.3,0.83l-0.61,1.78c-0.53-0.33-1.5-0.78-2.74-0.78
			c-1.44,0-2.24,0.83-2.24,1.84c0,1.11,0.8,1.61,2.55,2.28c2.33,0.89,3.52,2.06,3.52,4.06c0,2.37-1.83,4.04-5.01,4.04
			c-1.47,0-2.83-0.36-3.77-0.92L126.16,52.11z"/>
		<path d="M138.82,48.33c0.05,3.31,2.16,4.68,4.6,4.68c1.75,0,2.8-0.31,3.71-0.7l0.42,1.75c-0.86,0.39-2.33,0.83-4.46,0.83
			c-4.13,0-6.59-2.73-6.59-6.79s2.38-7.26,6.29-7.26c4.38,0,5.54,3.87,5.54,6.35c0,0.5-0.06,0.89-0.08,1.14H138.82z M145.96,46.57
			c0.03-1.56-0.64-3.98-3.38-3.98c-2.46,0-3.54,2.28-3.74,3.98H145.96z"/>
		<path d="M160.47,52.53h-0.06c-0.72,1.34-2.22,2.39-4.38,2.39c-3.13,0-5.68-2.73-5.68-6.82c0-5.04,3.24-7.26,6.07-7.26
			c2.08,0,3.46,1.03,4.13,2.34h0.05l0.08-2.03h2.3c-0.05,1.14-0.08,2.31-0.08,3.7v15.28h-2.44V52.53z M160.47,46.6
			c0-0.33-0.03-0.72-0.11-1.03c-0.36-1.5-1.66-2.78-3.49-2.78c-2.52,0-4.04,2.14-4.04,5.18c0,2.67,1.27,5.01,3.96,5.01
			c1.58,0,2.94-0.97,3.49-2.67c0.11-0.33,0.19-0.81,0.19-1.17V46.6z"/>
		<path d="M178.14,50.94c0,1.39,0.03,2.62,0.11,3.67h-2.16l-0.14-2.2h-0.06c-0.64,1.09-2.05,2.5-4.43,2.5c-2.1,0-4.62-1.17-4.62-5.9
			v-7.88h2.44v7.46c0,2.56,0.78,4.29,2.99,4.29c1.63,0,2.77-1.14,3.21-2.23c0.14-0.36,0.22-0.81,0.22-1.25v-8.27h2.44V50.94z"/>
		<path d="M194.31,47.77c0,4.98-3.43,7.15-6.67,7.15c-3.63,0-6.43-2.67-6.43-6.93c0-4.51,2.94-7.15,6.65-7.15
			C191.71,40.84,194.31,43.65,194.31,47.77z M183.67,47.91c0,2.95,1.69,5.18,4.07,5.18c2.33,0,4.07-2.2,4.07-5.23
			c0-2.28-1.14-5.18-4.02-5.18S183.67,45.35,183.67,47.91z"/>
		<path d="M200.1,37.36c0.03,0.83-0.58,1.5-1.55,1.5c-0.86,0-1.47-0.67-1.47-1.5c0-0.86,0.64-1.53,1.52-1.53
			C199.51,35.83,200.1,36.5,200.1,37.36z M197.38,54.62V41.14h2.44v13.47H197.38z"/>
		<path d="M211.28,54.62l-0.19-1.7h-0.08c-0.75,1.06-2.19,2-4.1,2c-2.71,0-4.1-1.92-4.1-3.87c0-3.26,2.88-5.04,8.06-5.01v-0.28
			c0-1.11-0.3-3.12-3.05-3.12c-1.25,0-2.55,0.39-3.49,1l-0.55-1.61c1.11-0.72,2.71-1.2,4.4-1.2c4.1,0,5.1,2.81,5.1,5.51v5.04
			c0,1.17,0.05,2.31,0.22,3.23H211.28z M210.92,47.74c-2.66-0.06-5.68,0.42-5.68,3.03c0,1.59,1.05,2.34,2.3,2.34
			c1.75,0,2.85-1.11,3.24-2.25c0.08-0.25,0.14-0.53,0.14-0.78V47.74z"/>
		<path d="M216.63,53.17c0-1.03,0.69-1.75,1.66-1.75s1.63,0.72,1.63,1.75c0,1-0.64,1.75-1.66,1.75
			C217.29,54.92,216.63,54.17,216.63,53.17z"/>
		<path class="st0" d="M224.3,48.33c0.06,3.31,2.16,4.68,4.6,4.68c1.74,0,2.8-0.31,3.71-0.7l0.42,1.75
			c-0.86,0.39-2.33,0.83-4.46,0.83c-4.13,0-6.59-2.73-6.59-6.79s2.38-7.26,6.29-7.26c4.38,0,5.54,3.87,5.54,6.35
			c0,0.5-0.05,0.89-0.08,1.14H224.3z M231.44,46.57c0.03-1.56-0.64-3.98-3.38-3.98c-2.46,0-3.54,2.28-3.74,3.98H231.44z"/>
		<path class="st0" d="M237.87,41.14l1.91,2.89c0.5,0.75,0.91,1.45,1.36,2.2h0.08c0.44-0.81,0.89-1.5,1.33-2.23l1.88-2.87h2.63
			l-4.57,6.51l4.71,6.96h-2.77l-1.97-3.03c-0.53-0.78-0.97-1.53-1.44-2.34h-0.06c-0.44,0.81-0.91,1.53-1.41,2.34l-1.94,3.03h-2.69
			l4.76-6.87l-4.54-6.6H237.87z"/>
		<path class="st0" d="M258.69,54.11c-0.64,0.33-2.05,0.78-3.85,0.78c-4.04,0-6.67-2.76-6.67-6.87c0-4.15,2.83-7.15,7.2-7.15
			c1.44,0,2.71,0.36,3.38,0.7l-0.55,1.89c-0.58-0.33-1.5-0.64-2.82-0.64c-3.07,0-4.74,2.28-4.74,5.09c0,3.12,1.99,5.04,4.65,5.04
			c1.38,0,2.3-0.36,2.99-0.67L258.69,54.11z"/>
		<path class="st0" d="M261.54,34.85h2.44v8.41h0.06c0.39-0.7,1-1.31,1.74-1.73c0.72-0.42,1.58-0.7,2.49-0.7
			c1.8,0,4.68,1.11,4.68,5.76v8.02h-2.44v-7.74c0-2.17-0.8-4.01-3.1-4.01c-1.58,0-2.83,1.11-3.27,2.45
			c-0.14,0.33-0.17,0.7-0.17,1.17v8.13h-2.44V34.85z"/>
		<path class="st0" d="M284.33,54.62l-0.19-1.7h-0.08c-0.75,1.06-2.19,2-4.1,2c-2.71,0-4.1-1.92-4.1-3.87
			c0-3.26,2.88-5.04,8.06-5.01v-0.28c0-1.11-0.3-3.12-3.05-3.12c-1.25,0-2.55,0.39-3.49,1l-0.55-1.61c1.11-0.72,2.71-1.2,4.4-1.2
			c4.1,0,5.1,2.81,5.1,5.51v5.04c0,1.17,0.06,2.31,0.22,3.23H284.33z M283.97,47.74c-2.66-0.06-5.68,0.42-5.68,3.03
			c0,1.59,1.05,2.34,2.3,2.34c1.74,0,2.85-1.11,3.24-2.25c0.08-0.25,0.14-0.53,0.14-0.78V47.74z"/>
		<path class="st0" d="M290.26,44.79c0-1.39-0.03-2.53-0.11-3.65h2.16l0.14,2.23h0.06c0.66-1.28,2.21-2.53,4.43-2.53
			c1.86,0,4.74,1.11,4.74,5.73v8.04h-2.44v-7.77c0-2.17-0.8-3.98-3.1-3.98c-1.61,0-2.85,1.14-3.27,2.5
			c-0.11,0.31-0.17,0.72-0.17,1.14v8.1h-2.44V44.79z"/>
		<path class="st0" d="M317.17,41.14c-0.06,0.97-0.11,2.06-0.11,3.7v7.82c0,3.09-0.61,4.98-1.91,6.15c-1.3,1.22-3.19,1.61-4.88,1.61
			c-1.61,0-3.38-0.39-4.46-1.11l0.61-1.86c0.89,0.56,2.27,1.06,3.93,1.06c2.49,0,4.32-1.31,4.32-4.7v-1.5h-0.05
			c-0.75,1.25-2.19,2.25-4.27,2.25c-3.32,0-5.71-2.84-5.71-6.57c0-4.56,2.96-7.15,6.04-7.15c2.33,0,3.6,1.22,4.18,2.34h0.06
			l0.11-2.03H317.17z M314.65,46.46c0-0.42-0.03-0.78-0.14-1.11c-0.44-1.42-1.63-2.59-3.41-2.59c-2.33,0-3.99,1.98-3.99,5.09
			c0,2.64,1.33,4.84,3.96,4.84c1.5,0,2.85-0.95,3.38-2.5c0.14-0.42,0.19-0.89,0.19-1.31V46.46z"/>
		<path class="st0" d="M322.46,48.33c0.06,3.31,2.16,4.68,4.6,4.68c1.74,0,2.8-0.31,3.71-0.7l0.42,1.75
			c-0.86,0.39-2.33,0.83-4.46,0.83c-4.13,0-6.59-2.73-6.59-6.79s2.38-7.26,6.29-7.26c4.38,0,5.54,3.87,5.54,6.35
			c0,0.5-0.05,0.89-0.08,1.14H322.46z M329.61,46.57c0.03-1.56-0.64-3.98-3.38-3.98c-2.46,0-3.54,2.28-3.74,3.98H329.61z"/>
	</g>
	<g>
		<polygon class="st0" points="110.53,47.15 110.53,41.14 109.03,41.14 109.03,47.15 109.03,47.56 107.53,49.06 107.53,41.14 
			106.03,41.14 106.03,50.15 106.03,50.56 104.52,52.06 104.52,41.14 103.02,41.14 103.02,53.56 101.52,55.07 101.52,56.16 
			102.55,56.16 104.05,54.66 116.54,54.66 116.54,53.16 105.55,53.16 107.05,51.65 107.53,51.65 116.54,51.65 116.54,50.15 
			108.56,50.15 110.06,48.65 110.53,48.65 116.54,48.65 116.54,47.15 110.53,47.15 		"/>
		<rect x="112.04" y="41.14" class="st0" width="4.5" height="4.5"/>
	</g>
</g>
</svg>
