<?xml version="1.0" encoding="utf-8"?>
<!-- Generator: Adobe Illustrator 28.3.0, SVG Export Plug-In . SVG Version: 6.00 Build 0)  -->
<svg version="1.1" id="Слой_1" xmlns="http://www.w3.org/2000/svg" xmlns:xlink="http://www.w3.org/1999/xlink" x="0px" y="0px"
	 viewBox="0 0 370.1 119.4" style="enable-background:new 0 0 370.1 119.4;" xml:space="preserve">
<style type="text/css">
	.st0{enable-background:new    ;}
	.st1{fill:#358531;}
	.st2{fill:none;}
	.st3{fill:#FFFFFF;}
	.st4{fill:#EFDCA8;}
	.st5{fill:#C6AC66;}
	.st6{fill:#DDC67C;}
</style>
<g>
	<g>
		<g>
			<path d="M138,44h-3.7v-1.4h9.1V44h-3.8v11H138V44z"/>
			<path d="M146.7,42.7v5.2h6v-5.2h1.6V55h-1.6v-5.8h-6V55h-1.6V42.7H146.7z"/>
			<path d="M163.8,49.2H159v4.4h5.3V55h-6.9V42.7h6.6V44h-5v3.9h4.8V49.2z"/>
			<path d="M177.4,49.2h-4.8v4.4h5.3V55H171V42.7h6.6V44h-5.1v3.9h4.8L177.4,49.2L177.4,49.2z"/>
			<path d="M180.4,42.8c1-0.1,2.1-0.3,3.4-0.3c2.3,0,3.9,0.5,5,1.5s1.7,2.4,1.7,4.4s-0.6,3.7-1.8,4.8c-1.2,1.2-3,1.8-5.4,1.8
				c-1.1,0-2.1-0.1-2.9-0.1V42.8L180.4,42.8z M182,53.7c0.4,0.1,1,0.1,1.6,0.1c3.4,0,5.2-1.9,5.2-5.2c0-2.9-1.6-4.8-5-4.8
				c-0.8,0-1.4,0.1-1.9,0.2L182,53.7L182,53.7z"/>
			<path d="M194.6,42.7V50c0,2.8,1.2,3.9,2.9,3.9c1.8,0,3-1.2,3-3.9v-7.3h1.6v7.2c0,3.8-2,5.3-4.7,5.3c-2.5,0-4.4-1.4-4.4-5.3v-7.3
				C193,42.7,194.6,42.7,194.6,42.7z"/>
			<path d="M213.8,54.6c-0.6,0.3-1.8,0.6-3.3,0.6c-3.5,0-6.1-2.2-6.1-6.2c0-3.9,2.6-6.5,6.4-6.5c1.5,0,2.5,0.3,2.9,0.6l-0.4,1.3
				c-0.6-0.3-1.5-0.5-2.5-0.5c-2.9,0-4.8,1.8-4.8,5.1c0,3,1.7,5,4.7,5c1,0,2-0.2,2.6-0.5L213.8,54.6z"/>
			<path d="M218.2,51.1L217,55h-1.6l4.2-12.3h1.9l4.2,12.3H224l-1.3-3.9H218.2z M222.3,49.9l-1.2-3.5c-0.3-0.8-0.5-1.5-0.6-2.2l0,0
				c-0.2,0.7-0.4,1.5-0.6,2.2l-1.2,3.6L222.3,49.9L222.3,49.9z"/>
			<path d="M228.7,44H225v-1.4h9.1V44h-3.8v11h-1.6V44z"/>
			<path d="M237.5,42.7V55h-1.6V42.7H237.5z"/>
			<path d="M251.2,48.7c0,4.2-2.6,6.5-5.7,6.5c-3.3,0-5.5-2.5-5.5-6.3c0-3.9,2.4-6.5,5.7-6.5C249,42.5,251.2,45,251.2,48.7z
				 M241.6,48.9c0,2.6,1.4,5,3.9,5s4-2.3,4-5.1c0-2.4-1.3-5-3.9-5C242.9,43.8,241.6,46.2,241.6,48.9z"/>
			<path d="M253.6,55V42.7h1.7l4,6.2c0.9,1.4,1.6,2.7,2.2,4l0,0c-0.1-1.6-0.2-3.1-0.2-5.1v-5.2h1.5V55h-1.6l-3.9-6.3
				c-0.9-1.4-1.7-2.8-2.3-4.1h-0.1c0.1,1.6,0.1,3,0.1,5.1V55C255.1,55,253.6,55,253.6,55z"/>
			<path d="M268,51.1l-1.3,3.9h-1.6l4.2-12.3h1.9l4.2,12.3h-1.7l-1.3-3.9H268z M272.1,49.9l-1.2-3.5c-0.3-0.8-0.5-1.5-0.6-2.2l0,0
				c-0.2,0.7-0.4,1.5-0.6,2.2l-1.2,3.6L272.1,49.9L272.1,49.9z"/>
			<path d="M277.6,42.7h1.6v11h5.3V55h-6.9V42.7L277.6,42.7z"/>
			<path d="M292.5,42.7V55h-1.6V42.7H292.5z"/>
			<path d="M295.6,55V42.7h1.7l4,6.2c0.9,1.4,1.6,2.7,2.2,4l0,0c-0.1-1.6-0.2-3.1-0.2-5.1v-5.2h1.5V55h-1.6l-3.9-6.3
				c-0.9-1.4-1.7-2.8-2.3-4.1h-0.1c0.1,1.6,0.1,3,0.1,5.1V55C297.1,55,295.6,55,295.6,55z"/>
			<path d="M309.6,42.7V55H308V42.7H309.6z"/>
			<path d="M315.1,44h-3.7v-1.4h9.1V44h-3.8v11h-1.6V44z"/>
			<path d="M323.9,42.7V55h-1.6V42.7H323.9z"/>
			<path d="M329,51.1l-1.3,3.9h-1.6l4.2-12.3h1.9l4.2,12.3h-1.7l-1.3-3.9H329z M333,49.9l-1.2-3.5c-0.3-0.8-0.5-1.5-0.6-2.2l0,0
				c-0.2,0.7-0.4,1.5-0.6,2.2l-1.2,3.6L333,49.9L333,49.9z"/>
			<path d="M339.5,44h-3.7v-1.4h9.1V44h-3.8v11h-1.6V44z"/>
			<path d="M348.2,42.7V55h-1.6V42.7H348.2z"/>
			<path d="M354.1,55l-4-12.3h1.7l1.9,6.1c0.5,1.7,1,3.2,1.3,4.6l0,0c0.4-1.4,0.9-3,1.4-4.6l2.1-6.1h1.7L355.9,55H354.1L354.1,55z"
				/>
			<path d="M368.4,49.2h-4.8v4.4h5.3V55H362V42.7h6.6V44h-5.1v3.9h4.8v1.3H368.4z"/>
		</g>
	</g>
	<g>
		<path d="M157,89.3c0,1.8-0.3,3.4-1,4.7c-0.6,1.4-1.6,2.6-2.7,3.5c-1.2,1-2.5,1.7-4.1,2.2s-3.3,0.7-5.1,0.7c-1.3,0-2.4-0.1-3.5-0.3
			c-1.1-0.2-2-0.5-2.9-0.8c-0.8-0.3-1.6-0.6-2.1-1c-0.6-0.3-1-0.6-1.2-0.8c-0.2-0.2-0.4-0.5-0.5-0.9s-0.2-0.8-0.2-1.5
			c0-0.4,0-0.8,0.1-1.1c0-0.3,0.1-0.5,0.2-0.7c0.1-0.2,0.2-0.3,0.3-0.4s0.3-0.1,0.4-0.1c0.3,0,0.7,0.2,1.2,0.5s1.1,0.7,1.9,1.1
			c0.8,0.4,1.7,0.8,2.8,1.1c1.1,0.3,2.4,0.5,3.8,0.5c1.1,0,2.1-0.1,3-0.4s1.7-0.7,2.3-1.2s1.2-1.2,1.5-2s0.5-1.7,0.5-2.7
			c0-1.1-0.2-2-0.7-2.8s-1.1-1.4-1.9-2c-0.8-0.6-1.7-1.1-2.7-1.6s-2.1-1-3.1-1.5c-1.1-0.5-2.1-1-3.1-1.7c-1-0.6-1.9-1.3-2.7-2.1
			c-0.8-0.8-1.5-1.8-1.9-2.9c-0.5-1.1-0.7-2.4-0.7-4s0.3-3,0.9-4.2c0.6-1.2,1.4-2.3,2.4-3.1c1-0.8,2.2-1.5,3.7-1.9
			c1.4-0.4,2.9-0.7,4.6-0.7c0.8,0,1.7,0.1,2.5,0.2c0.8,0.1,1.7,0.3,2.4,0.6c0.7,0.2,1.4,0.5,2,0.8s1,0.6,1.2,0.7
			c0.2,0.2,0.3,0.3,0.4,0.4c0.1,0.1,0.1,0.2,0.1,0.4s0.1,0.4,0.1,0.6s0,0.5,0,0.9s0,0.7,0,0.9c0,0.3-0.1,0.5-0.1,0.7
			c-0.1,0.2-0.1,0.3-0.2,0.4c-0.1,0.1-0.2,0.1-0.4,0.1s-0.6-0.1-1-0.4s-1-0.6-1.7-0.9s-1.5-0.6-2.4-0.9s-1.9-0.4-3.1-0.4
			c-1.1,0-2,0.1-2.8,0.4s-1.4,0.7-1.9,1.1c-0.5,0.5-0.9,1-1.1,1.7c-0.3,0.6-0.4,1.3-0.4,2c0,1.1,0.2,2,0.7,2.7s1.1,1.4,1.9,2
			c0.8,0.6,1.7,1.1,2.8,1.6c1,0.5,2.1,1,3.2,1.5s2.1,1,3.2,1.6c1,0.6,1.9,1.3,2.8,2.1c0.8,0.8,1.5,1.8,2,2.9
			C156.7,86.4,157,87.8,157,89.3z"/>
		<path d="M187.8,97.9c0,0.4,0,0.7-0.1,0.9c0,0.3-0.1,0.5-0.2,0.7c-0.1,0.2-0.2,0.3-0.3,0.4s-0.3,0.1-0.4,0.1h-18.2
			c-0.5,0-0.9-0.2-1.3-0.5c-0.4-0.3-0.6-0.8-0.6-1.6V64.1c0-0.8,0.2-1.3,0.6-1.6c0.4-0.3,0.8-0.5,1.3-0.5h18c0.2,0,0.3,0,0.4,0.1
			c0.1,0.1,0.2,0.2,0.3,0.4s0.1,0.4,0.2,0.7s0.1,0.6,0.1,1c0,0.4,0,0.7-0.1,0.9c0,0.3-0.1,0.5-0.2,0.6c-0.1,0.2-0.2,0.3-0.3,0.4
			s-0.3,0.1-0.4,0.1h-14.8v11.9h12.7c0.2,0,0.3,0,0.4,0.1c0.1,0.1,0.2,0.2,0.3,0.4c0.1,0.2,0.2,0.4,0.2,0.6c0,0.3,0.1,0.6,0.1,1
			s0,0.6-0.1,0.9c0,0.3-0.1,0.5-0.2,0.6c-0.1,0.2-0.2,0.3-0.3,0.3c-0.1,0.1-0.3,0.1-0.4,0.1h-12.7v13.5h15c0.2,0,0.3,0,0.4,0.1
			c0.1,0.1,0.2,0.2,0.3,0.4c0.1,0.2,0.2,0.4,0.2,0.6C187.8,97.1,187.8,97.5,187.8,97.9z"/>
		<path d="M234,103.3c0,0.5,0,0.8-0.1,1.1c-0.1,0.3-0.1,0.5-0.2,0.7s-0.2,0.3-0.3,0.3c-0.1,0.1-0.2,0.1-0.4,0.1
			c-0.4,0-1-0.2-1.9-0.5s-1.9-0.8-3-1.4s-2.3-1.4-3.6-2.2c-1.3-0.9-2.5-1.9-3.7-3.1c-1,0.6-2.2,1.1-3.6,1.5
			c-1.5,0.4-3.2,0.6-5.1,0.6c-2.9,0-5.3-0.4-7.4-1.3c-2.1-0.8-3.8-2.1-5.2-3.7s-2.4-3.6-3-6c-0.7-2.4-1-5.2-1-8.3
			c0-3,0.4-5.7,1.1-8.1c0.7-2.4,1.8-4.5,3.2-6.2s3.2-3,5.4-4c2.2-0.9,4.7-1.4,7.6-1.4c2.7,0,5.1,0.4,7.2,1.3s3.8,2.1,5.2,3.7
			s2.4,3.6,3.1,6c0.7,2.4,1.1,5.1,1.1,8.1c0,1.6-0.1,3.1-0.3,4.5s-0.5,2.8-0.9,4.1c-0.4,1.3-0.9,2.5-1.5,3.6s-1.3,2.1-2.1,2.9
			c1.4,1.2,2.7,2.1,3.7,2.7c1.1,0.6,2,1.1,2.7,1.5c0.7,0.3,1.2,0.6,1.6,0.7s0.7,0.3,0.9,0.5s0.3,0.5,0.4,0.8
			C233.9,102.2,234,102.7,234,103.3z M224,80.9c0-2.1-0.2-4.1-0.6-6c-0.4-1.8-1-3.4-1.9-4.8s-2.1-2.4-3.6-3.2
			c-1.5-0.8-3.3-1.1-5.5-1.1s-4,0.4-5.5,1.2c-1.5,0.8-2.7,1.9-3.6,3.3c-0.9,1.4-1.6,3-2,4.8s-0.6,3.7-0.6,5.8c0,2.2,0.2,4.3,0.6,6.1
			c0.4,1.9,1,3.5,1.9,4.8c0.9,1.4,2,2.4,3.5,3.2c1.5,0.7,3.3,1.1,5.5,1.1s4.1-0.4,5.6-1.2c1.5-0.8,2.7-1.9,3.6-3.3
			c0.9-1.4,1.6-3,2-4.9C223.8,84.9,224,82.9,224,80.9z"/>
		<path d="M269,85.9c0,2.3-0.3,4.4-1,6.2c-0.7,1.8-1.6,3.3-2.9,4.6c-1.2,1.2-2.8,2.2-4.6,2.8c-1.8,0.6-3.8,1-6.1,1
			c-2.1,0-4-0.3-5.7-0.9s-3.2-1.5-4.4-2.7s-2.2-2.7-2.8-4.4c-0.7-1.8-1-3.8-1-6.1V62.8c0-0.2,0-0.3,0.1-0.4c0.1-0.1,0.2-0.2,0.4-0.3
			s0.5-0.1,0.8-0.2c0.3,0,0.7-0.1,1.2-0.1s0.9,0,1.2,0.1c0.3,0,0.6,0.1,0.8,0.2c0.2,0.1,0.3,0.2,0.4,0.3c0.1,0.1,0.1,0.3,0.1,0.4
			v22.9c0,1.8,0.2,3.3,0.6,4.6c0.4,1.3,1,2.4,1.9,3.3c0.8,0.9,1.8,1.5,2.9,2c1.1,0.4,2.4,0.7,3.8,0.7c1.5,0,2.8-0.2,3.9-0.6
			s2.1-1.1,2.9-1.9c0.8-0.9,1.4-1.9,1.8-3.2c0.4-1.3,0.6-2.8,0.6-4.4V62.8c0-0.2,0-0.3,0.1-0.4c0.1-0.1,0.2-0.2,0.4-0.3
			c0.2-0.1,0.5-0.1,0.8-0.2c0.3,0,0.7-0.1,1.2-0.1s0.9,0,1.2,0.1c0.3,0,0.6,0.1,0.8,0.2c0.2,0.1,0.3,0.2,0.4,0.3s0.1,0.3,0.1,0.4
			v23.1H269z"/>
		<path d="M313.2,80.6c0,3.1-0.4,5.8-1.1,8.3s-1.8,4.5-3.2,6.3c-1.4,1.7-3.2,3-5.4,4c-2.2,0.9-4.7,1.4-7.6,1.4s-5.3-0.4-7.4-1.3
			c-2.1-0.8-3.8-2.1-5.2-3.7c-1.4-1.6-2.4-3.6-3-6c-0.7-2.4-1-5.2-1-8.3c0-3,0.4-5.7,1.1-8.1s1.8-4.5,3.2-6.2c1.4-1.7,3.2-3,5.4-4
			s4.7-1.4,7.6-1.4c2.8,0,5.2,0.4,7.3,1.3c2.1,0.8,3.8,2.1,5.2,3.7c1.4,1.6,2.4,3.6,3.1,6C312.9,74.8,313.2,77.5,313.2,80.6z
			 M307.9,80.9c0-2.1-0.2-4.1-0.6-6c-0.4-1.8-1-3.4-1.9-4.8s-2.1-2.4-3.5-3.2c-1.5-0.8-3.3-1.1-5.5-1.1s-4,0.4-5.5,1.2
			c-1.5,0.8-2.7,1.9-3.6,3.3s-1.6,3-2,4.8s-0.6,3.7-0.6,5.7c0,2.2,0.2,4.3,0.6,6.1c0.4,1.9,1,3.5,1.9,4.8c0.9,1.4,2,2.4,3.5,3.2
			c1.5,0.7,3.3,1.1,5.5,1.1s4.1-0.4,5.5-1.2c1.5-0.8,2.7-1.9,3.6-3.3s1.6-3,2-4.8C307.7,84.9,307.9,83,307.9,80.9z"/>
		<path d="M328.8,99.2c0,0.2,0,0.3-0.1,0.4s-0.2,0.2-0.4,0.3c-0.2,0.1-0.5,0.1-0.8,0.2c-0.3,0-0.7,0.1-1.2,0.1s-0.9,0-1.2-0.1
			c-0.3,0-0.6-0.1-0.8-0.2c-0.2-0.1-0.3-0.2-0.4-0.3c-0.1-0.1-0.1-0.3-0.1-0.4V62.8c0-0.2,0-0.3,0.1-0.4c0.1-0.1,0.2-0.2,0.4-0.3
			c0.2-0.1,0.5-0.1,0.8-0.2c0.3,0,0.7-0.1,1.2-0.1s0.9,0,1.2,0.1c0.3,0,0.6,0.1,0.8,0.2c0.2,0.1,0.3,0.2,0.4,0.3s0.1,0.3,0.1,0.4
			V99.2z"/>
		<path d="M369.8,98.1c0.2,0.4,0.2,0.8,0.3,1s-0.1,0.5-0.2,0.6c-0.2,0.1-0.4,0.2-0.8,0.3c-0.4,0-0.8,0.1-1.5,0.1s-1.1,0-1.5,0
			s-0.6-0.1-0.8-0.1c-0.2-0.1-0.3-0.2-0.4-0.3c-0.1-0.1-0.2-0.3-0.3-0.4l-3.2-9.2h-15.7l-3.1,9.1c-0.1,0.2-0.1,0.3-0.2,0.5
			c-0.1,0.1-0.2,0.2-0.4,0.3c-0.2,0.1-0.5,0.2-0.8,0.2s-0.8,0.1-1.3,0.1c-0.6,0-1,0-1.4-0.1c-0.4,0-0.6-0.1-0.8-0.3
			c-0.1-0.1-0.2-0.3-0.2-0.6s0.1-0.6,0.3-1l12.7-35.2c0.1-0.2,0.2-0.4,0.3-0.5c0.1-0.1,0.3-0.2,0.6-0.3c0.2-0.1,0.6-0.1,0.9-0.2
			c0.4,0,0.9,0,1.5,0s1.1,0,1.6,0c0.4,0,0.7,0.1,1,0.2c0.3,0.1,0.5,0.2,0.6,0.3s0.2,0.3,0.3,0.5L369.8,98.1z M353.5,67.1L353.5,67.1
			L346.9,86h13.2L353.5,67.1z"/>
	</g>
	<g class="st0">
		<path d="M159.3,30.9c0.7,0.5,2,1,3.3,1c1.8,0,2.7-0.9,2.7-2c0-1.2-0.7-1.8-2.5-2.5c-2.5-0.9-3.6-2.2-3.6-3.9c0-2.2,1.8-4,4.7-4
			c1.4,0,2.6,0.4,3.4,0.9l-0.6,1.8c-0.5-0.3-1.5-0.8-2.8-0.8c-1.5,0-2.3,0.9-2.3,1.9c0,1.1,0.8,1.6,2.6,2.3c2.4,0.9,3.6,2.1,3.6,4.1
			c0,2.4-1.9,4.1-5.1,4.1c-1.5,0-2.9-0.4-3.8-0.9L159.3,30.9z"/>
		<path d="M172.2,27c0.1,3.4,2.2,4.8,4.7,4.8c1.8,0,2.9-0.3,3.8-0.7l0.4,1.8c-0.9,0.4-2.4,0.9-4.5,0.9c-4.2,0-6.7-2.8-6.7-6.9
			c0-4.1,2.4-7.4,6.4-7.4c4.5,0,5.6,3.9,5.6,6.5c0,0.5-0.1,0.9-0.1,1.2H172.2z M179.5,25.2c0-1.6-0.6-4.1-3.4-4.1
			c-2.5,0-3.6,2.3-3.8,4.1H179.5z"/>
		<path d="M194.3,31.3L194.3,31.3c-0.8,1.4-2.3,2.4-4.5,2.4c-3.2,0-5.8-2.8-5.8-7c0-5.1,3.3-7.4,6.2-7.4c2.1,0,3.5,1.1,4.2,2.4h0.1
			l0.1-2.1h2.3c-0.1,1.2-0.1,2.4-0.1,3.8v15.6h-2.5V31.3z M194.3,25.3c0-0.3,0-0.7-0.1-1.1c-0.4-1.5-1.7-2.8-3.6-2.8
			c-2.6,0-4.1,2.2-4.1,5.3c0,2.7,1.3,5.1,4,5.1c1.6,0,3-1,3.6-2.7c0.1-0.3,0.2-0.8,0.2-1.2V25.3z"/>
		<path d="M212.3,29.7c0,1.4,0,2.7,0.1,3.7h-2.2l-0.1-2.2H210c-0.6,1.1-2.1,2.6-4.5,2.6c-2.1,0-4.7-1.2-4.7-6v-8h2.5v7.6
			c0,2.6,0.8,4.4,3,4.4c1.7,0,2.8-1.2,3.3-2.3c0.1-0.4,0.2-0.8,0.2-1.3v-8.4h2.5V29.7z"/>
		<path d="M228.8,26.5c0,5.1-3.5,7.3-6.8,7.3c-3.7,0-6.5-2.7-6.5-7.1c0-4.6,3-7.3,6.8-7.3C226.2,19.4,228.8,22.3,228.8,26.5z
			 M218,26.6c0,3,1.7,5.3,4.1,5.3c2.4,0,4.2-2.2,4.2-5.3c0-2.3-1.2-5.3-4.1-5.3S218,24,218,26.6z"/>
		<path d="M234.7,15.8c0,0.9-0.6,1.5-1.6,1.5c-0.9,0-1.5-0.7-1.5-1.5c0-0.9,0.6-1.6,1.6-1.6C234.1,14.3,234.7,15,234.7,15.8z
			 M232,33.4V19.7h2.5v13.7H232z"/>
		<path d="M246.1,33.4l-0.2-1.7h-0.1c-0.8,1.1-2.2,2-4.2,2c-2.8,0-4.2-2-4.2-3.9c0-3.3,2.9-5.1,8.2-5.1v-0.3c0-1.1-0.3-3.2-3.1-3.2
			c-1.3,0-2.6,0.4-3.6,1l-0.6-1.6c1.1-0.7,2.8-1.2,4.5-1.2c4.2,0,5.2,2.9,5.2,5.6v5.1c0,1.2,0.1,2.4,0.2,3.3H246.1z M245.8,26.4
			c-2.7-0.1-5.8,0.4-5.8,3.1c0,1.6,1.1,2.4,2.3,2.4c1.8,0,2.9-1.1,3.3-2.3c0.1-0.3,0.1-0.5,0.1-0.8V26.4z"/>
		<path d="M251.6,32c0-1.1,0.7-1.8,1.7-1.8c1,0,1.7,0.7,1.7,1.8c0,1-0.6,1.8-1.7,1.8C252.3,33.8,251.6,33,251.6,32z"/>
	</g>
	<g class="st0">
		<path class="st1" d="M259.4,27c0.1,3.4,2.2,4.8,4.7,4.8c1.8,0,2.9-0.3,3.8-0.7l0.4,1.8c-0.9,0.4-2.4,0.9-4.5,0.9
			c-4.2,0-6.7-2.8-6.7-6.9c0-4.1,2.4-7.4,6.4-7.4c4.5,0,5.6,3.9,5.6,6.5c0,0.5-0.1,0.9-0.1,1.2H259.4z M266.7,25.2
			c0-1.6-0.6-4.1-3.4-4.1c-2.5,0-3.6,2.3-3.8,4.1H266.7z"/>
		<path class="st1" d="M273.2,19.7l1.9,3c0.5,0.8,0.9,1.5,1.4,2.2h0.1c0.5-0.8,0.9-1.5,1.4-2.3l1.9-2.9h2.7l-4.7,6.6l4.8,7.1h-2.8
			l-2-3.1c-0.5-0.8-1-1.6-1.5-2.4h-0.1c-0.5,0.8-0.9,1.6-1.4,2.4l-2,3.1h-2.7l4.9-7l-4.6-6.7H273.2z"/>
		<path class="st1" d="M294.5,32.9c-0.6,0.3-2.1,0.8-3.9,0.8c-4.1,0-6.8-2.8-6.8-7c0-4.2,2.9-7.3,7.3-7.3c1.5,0,2.8,0.4,3.4,0.7
			l-0.6,1.9c-0.6-0.3-1.5-0.7-2.9-0.7c-3.1,0-4.8,2.3-4.8,5.2c0,3.2,2,5.1,4.7,5.1c1.4,0,2.3-0.4,3-0.7L294.5,32.9z"/>
		<path class="st1" d="M297.4,13.3h2.5v8.6h0.1c0.4-0.7,1-1.3,1.8-1.8c0.7-0.4,1.6-0.7,2.5-0.7c1.8,0,4.8,1.1,4.8,5.9v8.2h-2.5v-7.9
			c0-2.2-0.8-4.1-3.2-4.1c-1.6,0-2.9,1.1-3.3,2.5c-0.1,0.3-0.2,0.7-0.2,1.2v8.3h-2.5V13.3z"/>
		<path class="st1" d="M320.6,33.4l-0.2-1.7h-0.1c-0.8,1.1-2.2,2-4.2,2c-2.8,0-4.2-2-4.2-3.9c0-3.3,2.9-5.1,8.2-5.1v-0.3
			c0-1.1-0.3-3.2-3.1-3.2c-1.3,0-2.6,0.4-3.6,1l-0.6-1.6c1.1-0.7,2.8-1.2,4.5-1.2c4.2,0,5.2,2.9,5.2,5.6v5.1c0,1.2,0.1,2.4,0.2,3.3
			H320.6z M320.2,26.4c-2.7-0.1-5.8,0.4-5.8,3.1c0,1.6,1.1,2.4,2.3,2.4c1.8,0,2.9-1.1,3.3-2.3c0.1-0.3,0.1-0.5,0.1-0.8V26.4z"/>
		<path class="st1" d="M326.6,23.4c0-1.4,0-2.6-0.1-3.7h2.2l0.1,2.3h0.1c0.7-1.3,2.3-2.6,4.5-2.6c1.9,0,4.8,1.1,4.8,5.8v8.2h-2.5
			v-7.9c0-2.2-0.8-4.1-3.2-4.1c-1.6,0-2.9,1.2-3.3,2.6c-0.1,0.3-0.2,0.7-0.2,1.2v8.3h-2.5V23.4z"/>
		<path class="st1" d="M354.1,19.7c-0.1,1-0.1,2.1-0.1,3.8v8c0,3.2-0.6,5.1-1.9,6.3c-1.3,1.2-3.2,1.6-5,1.6c-1.6,0-3.4-0.4-4.5-1.1
			l0.6-1.9c0.9,0.6,2.3,1.1,4,1.1c2.5,0,4.4-1.3,4.4-4.8v-1.5h-0.1c-0.8,1.3-2.2,2.3-4.3,2.3c-3.4,0-5.8-2.9-5.8-6.7
			c0-4.7,3-7.3,6.2-7.3c2.4,0,3.7,1.2,4.3,2.4h0.1l0.1-2.1H354.1z M351.5,25.1c0-0.4,0-0.8-0.1-1.1c-0.5-1.4-1.7-2.6-3.5-2.6
			c-2.4,0-4.1,2-4.1,5.2c0,2.7,1.4,4.9,4,4.9c1.5,0,2.9-1,3.4-2.6c0.1-0.4,0.2-0.9,0.2-1.3V25.1z"/>
		<path class="st1" d="M359.5,27c0.1,3.4,2.2,4.8,4.7,4.8c1.8,0,2.9-0.3,3.8-0.7l0.4,1.8c-0.9,0.4-2.4,0.9-4.5,0.9
			c-4.2,0-6.7-2.8-6.7-6.9c0-4.1,2.4-7.4,6.4-7.4c4.5,0,5.6,3.9,5.6,6.5c0,0.5-0.1,0.9-0.1,1.2H359.5z M366.8,25.2
			c0-1.6-0.6-4.1-3.4-4.1c-2.5,0-3.6,2.3-3.8,4.1H366.8z"/>
	</g>
	<g>
		<polygon class="st1" points="143.4,25.8 143.4,19.7 141.9,19.7 141.9,25.8 141.9,26.3 140.3,27.8 140.3,19.7 138.8,19.7 
			138.8,28.9 138.8,29.3 137.3,30.8 137.3,19.7 135.7,19.7 135.7,32.4 134.2,33.9 134.2,35 135.3,35 136.8,33.5 149.5,33.5 
			149.5,32 138.3,32 139.9,30.4 140.3,30.4 149.5,30.4 149.5,28.9 141.4,28.9 142.9,27.4 143.4,27.4 149.5,27.4 149.5,25.8 		"/>
		<rect x="144.9" y="19.7" class="st1" width="4.6" height="4.6"/>
	</g>
	<g>
		<circle class="st1" cx="59.7" cy="59.7" r="59.7"/>
		<g>
			<circle class="st2" cx="59.7" cy="59.7" r="57.3"/>
			<path class="st3" d="M113.1,37.1c-2.9-6.9-7.1-13.1-12.4-18.4S89.2,9.2,82.3,6.3c-7.1-3-14.7-4.6-22.6-4.6S44.2,3.3,37.1,6.3
				C30.2,9.2,24,13.4,18.7,18.7S9.2,30.2,6.2,37.1c-3,7.1-4.5,14.7-4.5,22.6c0,7.8,1.5,15.4,4.6,22.6c2.9,6.9,7.1,13.1,12.4,18.4
				s11.5,9.5,18.4,12.4c7.1,3,14.7,4.6,22.6,4.6s15.4-1.5,22.6-4.6c6.9-2.9,13.1-7.1,18.4-12.4s9.5-11.5,12.4-18.4
				c3-7.1,4.6-14.7,4.6-22.6C117.6,51.9,116.1,44.3,113.1,37.1z M117,59.7c0,31.6-25.7,57.3-57.3,57.3S2.4,91.3,2.4,59.7
				S28.1,2.4,59.7,2.4S117,28.1,117,59.7z"/>
		</g>
		<path class="st3" d="M88.2,31.2c-7.6-7.6-17.8-11.8-28.6-11.8S38.7,23.6,31,31.2C23.4,38.8,19.2,49,19.2,59.7
			c0,10.8,4.2,20.9,11.8,28.6c7.6,7.6,17.8,11.8,28.6,11.8s20.9-4.2,28.6-11.8c7.6-7.6,11.8-17.8,11.8-28.6
			C100.1,48.9,95.9,38.8,88.2,31.2z"/>
		<path class="st3" d="M98.9,43.1c-2.1-5.1-5.2-9.6-9.1-13.5s-8.5-7-13.5-9.1c-5.3-2.2-10.8-3.3-16.6-3.3s-11.3,1.1-16.6,3.3
			c-5.1,2.1-9.6,5.2-13.5,9.1s-7,8.5-9.1,13.5c-2.2,5.3-3.3,10.8-3.3,16.6c0,5.7,1.1,11.3,3.3,16.6c2.1,5.1,5.2,9.6,9.1,13.5
			s8.5,7,13.5,9.1c5.3,2.2,10.8,3.3,16.6,3.3s11.3-1.1,16.6-3.3c5.1-2.1,9.6-5.2,13.5-9.1s7-8.5,9.1-13.5c2.2-5.3,3.3-10.8,3.3-16.6
			C102.2,53.9,101.1,48.4,98.9,43.1z M101.6,59.7c0,23.1-18.8,41.9-41.9,41.9S17.8,82.8,17.8,59.7s18.8-41.9,41.9-41.9
			S101.6,36.6,101.6,59.7z"/>
		<g>
			<path class="st3" d="M7,64.3c0.1,0,0.1,0,0.2,0s0.1,0,0.1,0s0.1,0,0.1,0.1v0.1l0.3,2.2l6.7-1h0.1c0,0,0,0,0.1,0.1
				c0,0,0,0.1,0.1,0.2c0,0.1,0,0.1,0.1,0.2c0,0.1,0,0.2,0,0.3c0,0.1,0,0.1,0,0.2v0.1c0,0,0,0-0.1,0l-6.7,1L8.3,70v0.1
				c0,0,0,0.1-0.1,0.1c0,0-0.1,0-0.1,0.1c-0.1,0-0.1,0-0.2,0c-0.1,0-0.1,0-0.2,0s-0.1,0-0.1,0s-0.1,0-0.1-0.1v-0.1l-0.8-5.4v-0.1
				c0,0,0-0.1,0.1-0.1C6.8,64.5,6.9,64.5,7,64.3C6.9,64.4,7,64.3,7,64.3z"/>
			<path class="st3" d="M14.2,56C14.3,56,14.3,56,14.2,56c0.1,0,0.1,0.1,0.1,0.1s0,0.1,0,0.2c0,0.1,0,0.2,0,0.2c0,0.1,0,0.2,0,0.3
				s0,0.1,0,0.2c0,0,0,0.1-0.1,0.1h-0.1L10.7,57l-0.1,3.6l3.5,0.1h0.1c0,0,0,0,0.1,0.1c0,0,0,0.1,0,0.2c0,0.1,0,0.2,0,0.3
				s0,0.2,0,0.3s0,0.1,0,0.2c0,0,0,0.1-0.1,0.1h-0.1l-7.5-0.1H6.5c0,0,0,0-0.1-0.1c0,0,0-0.1,0-0.2c0-0.1,0-0.2,0-0.3s0-0.2,0-0.3
				s0-0.1,0-0.2c0,0,0-0.1,0.1-0.1h0.1l3.1,0.1L9.8,57l-3.1-0.1H6.6c0,0,0,0-0.1-0.1c0,0,0-0.1,0-0.2c0-0.1,0-0.2,0-0.3s0-0.2,0-0.2
				c0-0.1,0-0.1,0-0.2c0,0,0-0.1,0.1-0.1h0.1L14.2,56z"/>
			<path class="st3" d="M15.1,49.2c0.1,0,0.1,0,0.2,0c0.1,0,0.1,0,0.1,0.1l0.1,0.1v0.1l-0.7,3.7c0,0.1-0.1,0.2-0.1,0.2
				c-0.1,0.1-0.2,0.1-0.4,0.1l-6.9-1.3c-0.2,0-0.3-0.1-0.3-0.2c0-0.1-0.1-0.2,0-0.3L7.8,48v-0.1h0.1H8c0.1,0,0.1,0,0.2,0
				c0.1,0,0.1,0,0.2,0c0.1,0,0.1,0,0.1,0.1s0.1,0,0.1,0.1v0.1l-0.6,3l2.4,0.4l0.5-2.6v-0.1c0,0,0.1,0,0.1-0.1s0.1,0,0.1,0
				c0.1,0,0.1,0,0.2,0c0.1,0,0.1,0,0.2,0c0.1,0,0.1,0,0.1,0.1c0,0,0,0.1,0.1,0.1v0.1l-0.5,2.6l2.8,0.5l0.6-3.1V49c0,0,0.1,0,0.1-0.1
				h0.1C14.9,49.1,15,49.1,15.1,49.2z"/>
			<path class="st3" d="M18.4,39.7c0.1,0,0.1,0.1,0.2,0.1l0.1,0.1V40v0.1l-1.5,3.5c0,0.1-0.1,0.2-0.2,0.2c-0.1,0.1-0.2,0-0.4,0
				L10.3,41c-0.1-0.1-0.2-0.1-0.3-0.2c0-0.1,0-0.2,0-0.3l1.4-3.4c0,0,0-0.1,0.1-0.1h0.1h0.1c0.1,0,0.1,0,0.2,0.1
				c0.1,0,0.1,0.1,0.2,0.1l0.1,0.1v0.1v0.1L11,40.3l2.3,1l1-2.4c0,0,0-0.1,0.1-0.1h0.1h0.1c0.1,0,0.1,0,0.2,0.1
				c0.1,0,0.1,0.1,0.2,0.1l0.1,0.1v0.1v0.1l-1,2.4l2.6,1.1l1.2-2.9c0,0,0-0.1,0.1-0.1h0.1h0.1C18.3,39.6,18.4,39.6,18.4,39.7z"/>
			<path class="st3" d="M19.6,30.7c0.6,0.4,1,0.7,1.4,1.2c0.3,0.4,0.6,0.9,0.7,1.3c0.1,0.5,0.1,0.9,0,1.4s-0.4,1-0.7,1.6l-1,1.4
				c0,0.1-0.1,0.1-0.2,0.2c-0.1,0-0.2,0-0.3-0.1l-6-3.7c-0.1-0.1-0.2-0.2-0.2-0.3s0-0.2,0.1-0.3l0.9-1.5c0.4-0.6,0.7-1,1.1-1.3
				c0.4-0.3,0.8-0.5,1.3-0.6s0.9-0.1,1.4,0C18.6,30.1,19.1,30.4,19.6,30.7z M19,31.6c-0.4-0.2-0.7-0.4-1.1-0.5
				c-0.3-0.1-0.7-0.1-1-0.1c-0.3,0-0.7,0.2-1,0.4c-0.3,0.2-0.6,0.6-0.9,1l-0.6,0.9l5.2,3.2l0.6-0.9c0.3-0.4,0.4-0.8,0.5-1.2
				s0.1-0.7,0-1s-0.3-0.6-0.6-1C19.8,32.2,19.5,31.9,19,31.6z"/>
			<path class="st3" d="M26.1,24.9c0.4,0.3,0.6,0.7,0.8,1c0.2,0.4,0.3,0.7,0.3,1.1s-0.1,0.7-0.2,1.1c-0.2,0.4-0.4,0.7-0.7,1.1
				c-0.3,0.3-0.6,0.6-0.9,0.7c-0.3,0.2-0.7,0.3-1,0.3c-0.4,0-0.7,0-1.1-0.2c-0.4-0.1-0.7-0.4-1.1-0.7L18.6,26c0,0,0,0,0-0.1v-0.1
				c0,0,0-0.1,0.1-0.1c0-0.1,0.1-0.1,0.2-0.2s0.1-0.1,0.2-0.2c0.1,0,0.1-0.1,0.1-0.1h0.1h0.1l3.5,3.2c0.3,0.2,0.5,0.4,0.8,0.6
				c0.3,0.1,0.5,0.2,0.8,0.2c0.2,0,0.5-0.1,0.7-0.2s0.4-0.3,0.6-0.5s0.4-0.5,0.5-0.7s0.1-0.5,0.1-0.7s-0.1-0.5-0.2-0.7
				s-0.3-0.5-0.6-0.7l-3.5-3.2c0,0,0,0,0-0.1v-0.1c0,0,0-0.1,0.1-0.1c0-0.1,0.1-0.1,0.2-0.2s0.1-0.1,0.2-0.2s0.1-0.1,0.1-0.1h0.1
				h0.1L26.1,24.9z"/>
			<path class="st3" d="M33.6,21.1c0,0.1,0.1,0.1,0.1,0.1s0,0.1,0.1,0.1v0.1v0.1c0,0.1,0,0.2-0.1,0.3s-0.1,0.3-0.2,0.5
				c-0.1,0.2-0.2,0.4-0.4,0.6s-0.4,0.4-0.6,0.6c-0.4,0.3-0.8,0.5-1.2,0.6c-0.4,0.1-0.9,0.1-1.3,0s-0.9-0.3-1.3-0.6
				c-0.4-0.3-0.8-0.7-1.2-1.2c-0.4-0.5-0.7-1-0.9-1.5c-0.2-0.5-0.3-1-0.2-1.5s0.1-0.9,0.4-1.3c0.2-0.4,0.5-0.8,0.9-1.1
				c0.2-0.1,0.4-0.3,0.6-0.4s0.4-0.2,0.6-0.2c0.2-0.1,0.4-0.1,0.5-0.1c0.2,0,0.3,0,0.4,0s0.1,0,0.2,0c0,0,0.1,0,0.1,0.1l0.1,0.1
				l0.1,0.1c0,0.1,0.1,0.1,0.1,0.2s0,0.1,0.1,0.1v0.1V17c0,0-0.1,0.1-0.3,0.1c-0.1,0-0.3,0-0.5,0s-0.4,0.1-0.6,0.2s-0.5,0.2-0.7,0.4
				c-0.3,0.2-0.5,0.5-0.6,0.7c-0.1,0.3-0.2,0.6-0.2,0.9s0.1,0.7,0.2,1.1c0.2,0.4,0.4,0.8,0.7,1.2c0.3,0.4,0.6,0.7,0.9,0.9
				c0.3,0.2,0.6,0.4,1,0.5c0.3,0.1,0.6,0.1,0.9,0s0.6-0.2,0.9-0.5c0.2-0.2,0.4-0.4,0.6-0.6c0.1-0.2,0.2-0.4,0.3-0.6s0.1-0.3,0.2-0.5
				c0-0.1,0.1-0.2,0.1-0.2s0,0,0.1,0h0.1l0.1,0.1C33.5,21,33.5,21.1,33.6,21.1z"/>
			<path class="st3" d="M40.8,17.9c0.1,0.1,0.1,0.1,0.1,0.2v0.1l-0.1,0.1c-0.1,0-0.1,0.1-0.3,0.2c-0.1,0.1-0.2,0.1-0.3,0.1
				s-0.1,0-0.2,0.1h-0.1c0,0-0.1,0-0.1-0.1l-1.5-1.4l-2.9,1.6l0.3,2v0.1V21l-0.1,0.1c-0.1,0-0.1,0.1-0.2,0.1
				c-0.1,0.1-0.2,0.1-0.3,0.1s-0.1,0-0.2,0c0,0-0.1,0-0.1-0.1s0-0.1-0.1-0.2l-1.2-7.7v-0.1c0,0,0-0.1,0.1-0.1c0,0,0.1-0.1,0.2-0.1
				c0.1,0,0.2-0.1,0.3-0.2c0.1-0.1,0.2-0.1,0.3-0.1s0.1-0.1,0.2-0.1s0.1,0,0.1,0s0.1,0,0.1,0.1L40.8,17.9z M34.8,13.9L34.8,13.9
				l0.7,4.1l2.4-1.3L34.8,13.9z"/>
			<path class="st3" d="M43.8,9.3c0,0.1,0,0.1,0.1,0.2c0,0.1,0,0.1,0,0.1v0.1c0,0,0,0-0.1,0.1l-2.1,0.8l2.4,6.4v0.1
				c0,0,0,0.1-0.1,0.1l-0.1,0.1c-0.1,0-0.1,0.1-0.2,0.1c-0.1,0-0.2,0.1-0.2,0.1c-0.1,0-0.1,0-0.2,0h-0.1c0,0,0,0-0.1-0.1L40.7,11
				l-2.1,0.8h-0.1h-0.1l-0.1-0.1c0,0-0.1-0.1-0.1-0.2c0-0.1,0-0.1-0.1-0.2c0-0.1,0-0.1,0-0.1v-0.1c0,0,0,0,0.1-0.1l5.2-2h0.1
				c0,0,0.1,0,0.1,0.1l0.1,0.1C43.7,9.2,43.8,9.3,43.8,9.3z"/>
			<path class="st3" d="M49,15.5L49,15.5c0,0.1,0,0.1-0.1,0.2c0,0-0.1,0-0.1,0.1c-0.1,0-0.1,0.1-0.2,0.1c-0.1,0-0.2,0-0.2,0
				c-0.1,0-0.1,0-0.2,0h-0.1c0,0,0,0,0-0.1l-1.9-7.3V8.4c0,0,0-0.1,0.1-0.1c0,0,0.1,0,0.2-0.1c0.1,0,0.1-0.1,0.2-0.1
				c0.1,0,0.2,0,0.2,0C46.9,8,47,8,47,8h0.1c0,0,0,0,0,0.1L49,15.5z"/>
			<path class="st3" d="M57.6,10.2c0.1,0.6,0.1,1.2,0,1.7s-0.3,1-0.5,1.4c-0.3,0.4-0.6,0.7-1,0.9s-0.9,0.4-1.5,0.5s-1.1,0-1.6-0.1
				s-0.8-0.3-1.1-0.6s-0.6-0.7-0.8-1.2s-0.3-1-0.4-1.7c-0.1-0.6-0.1-1.2,0-1.7s0.3-1,0.5-1.4c0.3-0.4,0.6-0.7,1-0.9
				c0.4-0.2,0.9-0.4,1.5-0.5s1.1,0,1.5,0.1S56,7,56.3,7.3c0.3,0.3,0.6,0.7,0.8,1.2C57.4,9.1,57.6,9.6,57.6,10.2z M56.5,10.4
				c-0.1-0.4-0.1-0.8-0.3-1.2S56,8.5,55.8,8.3C55.6,8,55.3,7.8,55,7.7c-0.3-0.1-0.7-0.2-1.2-0.1C53.4,7.7,53,7.8,52.7,8
				S52.2,8.5,52,8.8s-0.3,0.6-0.3,1s0,0.8,0,1.2c0.1,0.5,0.1,0.9,0.3,1.3s0.3,0.7,0.5,1s0.5,0.5,0.8,0.6s0.7,0.2,1.2,0.1
				c0.5-0.1,0.8-0.2,1.1-0.4s0.5-0.5,0.7-0.8s0.3-0.7,0.3-1C56.6,11.3,56.6,10.9,56.5,10.4z"/>
			<path class="st3" d="M66.1,14.3c0,0.1,0,0.1-0.1,0.2c0,0.1-0.1,0.1-0.1,0.1c-0.1,0-0.1,0.1-0.2,0.1s-0.1,0-0.2,0h-0.3
				c-0.1,0-0.2,0-0.3-0.1c-0.1,0-0.2-0.1-0.2-0.1s-0.1-0.2-0.2-0.3s-0.1-0.2-0.2-0.4l-2-4.6C62.2,9,62.1,8.7,62,8.5S61.8,8,61.7,7.7
				l0,0c0,0.3,0,0.6-0.1,0.9c0,0.3,0,0.6-0.1,0.9l-0.4,4.7v0.1c0,0,0,0-0.1,0.1c0,0-0.1,0-0.2,0c-0.1,0-0.2,0-0.3,0s-0.2,0-0.3,0
				s-0.1,0-0.2,0c0,0-0.1,0-0.1-0.1v-0.1L60.5,7c0-0.2,0.1-0.3,0.2-0.3c0.1-0.1,0.2-0.1,0.3-0.1h0.5c0.1,0,0.2,0,0.3,0.1
				c0.1,0,0.2,0.1,0.2,0.1c0.1,0.1,0.1,0.1,0.2,0.2c0.1,0.1,0.1,0.2,0.2,0.3l1.6,3.6c0.1,0.2,0.2,0.4,0.3,0.6
				c0.1,0.2,0.2,0.4,0.3,0.6c0.1,0.2,0.2,0.4,0.2,0.6c0.1,0.2,0.2,0.4,0.2,0.6l0,0c0-0.3,0-0.6,0.1-1c0-0.3,0-0.7,0.1-1L65.6,7V6.9
				c0,0,0,0,0.1-0.1c0,0,0.1,0,0.2,0s0.2,0,0.3,0c0.1,0,0.2,0,0.2,0c0.1,0,0.1,0,0.2,0.1c0,0,0.1,0,0.1,0.1s0,0.1,0,0.1L66.1,14.3z"
				/>
			<path class="st3" d="M74.3,16.3c0,0.1,0,0.2,0,0.2c0,0.1,0,0.1-0.1,0.1c0,0-0.1,0-0.2,0s-0.2,0-0.3-0.1s-0.2-0.1-0.3-0.1
				c-0.1,0-0.1,0-0.2-0.1c0,0-0.1,0-0.1-0.1v-0.1l-0.2-2l-3.2-0.8L68.8,15c0,0,0,0.1-0.1,0.1s-0.1,0-0.1,0s-0.1,0-0.2,0
				s-0.2,0-0.3-0.1c-0.1,0-0.2-0.1-0.3-0.1s-0.1-0.1-0.1-0.1v-0.1c0-0.1,0.1-0.1,0.1-0.2l4.4-6.4L72.3,8h0.1c0,0,0.1,0,0.2,0
				s0.2,0,0.3,0.1c0.1,0,0.2,0.1,0.3,0.1s0.1,0.1,0.2,0.1s0.1,0.1,0.1,0.1v0.1L74.3,16.3z M72.7,9.2L72.7,9.2l-2.3,3.4l2.6,0.7
				L72.7,9.2z"/>
			<path class="st3" d="M79.8,18.5c0,0.1-0.1,0.1-0.1,0.2l-0.1,0.1c0,0-0.1,0-0.1,0.1h-0.1l-3.2-1.3c-0.1,0-0.2-0.1-0.2-0.2
				c-0.1-0.1,0-0.2,0-0.4l2.8-6.7c0,0,0-0.1,0.1-0.1H79c0,0,0.1,0,0.2,0s0.1,0,0.2,0.1c0.1,0,0.2,0.1,0.2,0.1c0.1,0,0.1,0.1,0.1,0.1
				l0.1,0.1v0.1L77.2,17l2.6,1.1c0,0,0.1,0,0.1,0.1v0.1L79.8,18.5C79.9,18.3,79.8,18.4,79.8,18.5z"/>
			<path class="st3" d="M85,21.9L85,21.9C84.9,22,84.9,22,84.9,22s-0.1,0-0.2-0.1c-0.1,0-0.1-0.1-0.2-0.1c-0.1-0.1-0.1-0.1-0.2-0.2
				c-0.1,0-0.1-0.1-0.1-0.1v-0.1v-0.1l4.1-6.3c0,0,0,0,0.1-0.1h0.1c0,0,0.1,0,0.2,0.1c0.1,0,0.1,0.1,0.2,0.1
				c0.1,0.1,0.2,0.1,0.2,0.2c0.1,0,0.1,0.1,0.1,0.1v0.1v0.1L85,21.9z"/>
			<path class="st3" d="M91.9,27c-0.1,0.1-0.1,0.1-0.2,0.1s-0.1,0-0.2,0s-0.1,0-0.2,0S91.2,27,91.2,27L91,26.8
				c-0.1-0.1-0.1-0.1-0.2-0.2c0-0.1-0.1-0.2-0.1-0.2c0-0.1,0-0.2,0-0.3c0-0.1,0-0.3,0.1-0.5l1.1-4.9c0.1-0.3,0.1-0.5,0.2-0.8
				s0.1-0.5,0.2-0.8l0,0c-0.2,0.2-0.4,0.5-0.6,0.7s-0.4,0.5-0.6,0.7L88,24c0,0,0,0-0.1,0h-0.1c0,0-0.1,0-0.1-0.1
				c-0.1,0-0.1-0.1-0.2-0.2s-0.1-0.1-0.2-0.2c0-0.1-0.1-0.1-0.1-0.1v-0.1v-0.1l4.8-5.5c0.1-0.1,0.2-0.2,0.3-0.2c0.1,0,0.2,0,0.3,0.1
				l0.4,0.3c0.1,0.1,0.2,0.2,0.2,0.2c0,0.1,0.1,0.1,0.1,0.2s0,0.2,0,0.3c0,0.1,0,0.2-0.1,0.4l-0.9,4c-0.1,0.2-0.1,0.5-0.2,0.7
				s-0.1,0.4-0.2,0.6s-0.1,0.4-0.2,0.6s-0.1,0.4-0.2,0.6l0,0c0.2-0.2,0.4-0.5,0.6-0.8s0.4-0.5,0.6-0.8l2.8-3.2c0,0,0,0,0.1,0h0.1
				c0,0,0.1,0,0.1,0.1c0.1,0,0.1,0.1,0.2,0.2s0.1,0.1,0.2,0.2c0,0.1,0.1,0.1,0.1,0.1v0.1v0.1L91.9,27z"/>
			<path class="st3" d="M94.1,30L94.1,30c-0.1,0-0.1,0-0.2,0l-0.1-0.1c0,0-0.1-0.1-0.2-0.2s-0.1-0.1-0.2-0.2c0-0.1-0.1-0.1-0.1-0.1
				v-0.1v-0.1l5.6-5H99h0.1l0.1,0.1c0.1,0,0.1,0.1,0.2,0.2s0.1,0.1,0.2,0.2c0,0.1,0.1,0.1,0.1,0.1v0.1V25L94.1,30z"/>
			<path class="st3" d="M104.6,31.9c-0.1,0-0.1,0.1-0.2,0.1s-0.1,0-0.1,0h-0.1c0,0-0.1,0-0.1-0.1l-1.3-1.8L97.2,34h-0.1H97
				c0,0,0,0-0.1-0.1c0,0-0.1-0.1-0.2-0.2c-0.1-0.1-0.1-0.2-0.1-0.2c0-0.1-0.1-0.1-0.1-0.2v-0.1c0,0,0-0.1,0.1-0.1l5.6-3.9l-1.3-1.8
				v-0.1v-0.1c0,0,0-0.1,0.1-0.1c0,0,0.1-0.1,0.2-0.1s0.1-0.1,0.2-0.1s0.1,0,0.1,0h0.1c0,0,0.1,0,0.1,0.1l3.1,4.5v0.1v0.1
				L104.6,31.9C104.7,31.8,104.6,31.8,104.6,31.9z"/>
			<path class="st3" d="M99.9,38.4C99.9,38.5,99.9,38.5,99.9,38.4c-0.1,0-0.1,0-0.2,0l-0.1-0.1c0-0.1-0.1-0.1-0.1-0.2
				c0-0.1-0.1-0.2-0.1-0.2c0-0.1,0-0.1,0-0.2v-0.1c0,0,0,0,0.1-0.1l6.6-3.6h0.1c0,0,0.1,0,0.1,0.1l0.1,0.1c0,0.1,0.1,0.1,0.1,0.2
				c0,0.1,0.1,0.2,0.1,0.2s0,0.1,0,0.2v0.1c0,0,0,0-0.1,0.1L99.9,38.4z"/>
			<path class="st3" d="M103.5,46.2c-0.1,0.1-0.1,0.1-0.2,0.1s-0.1,0-0.1,0l-0.1-0.1c0-0.1-0.1-0.2-0.1-0.3s-0.1-0.2-0.1-0.3
				s0-0.1,0-0.2v-0.1c0,0,0-0.1,0.1-0.1l1.5-1.3l-1.2-3l-2,0.1h-0.1c0,0-0.1,0-0.1-0.1l-0.1-0.1c0-0.1-0.1-0.1-0.1-0.3
				s-0.1-0.2-0.1-0.3s0-0.1,0-0.2c0,0,0-0.1,0.1-0.1s0.1,0,0.2,0l7.7-0.2h0.1c0,0,0.1,0,0.1,0.1c0,0,0.1,0.1,0.1,0.2
				c0,0.1,0.1,0.2,0.1,0.3s0.1,0.2,0.1,0.3s0,0.2,0,0.2v0.1c0,0,0,0.1-0.1,0.1L103.5,46.2z M108.2,40.7L108.2,40.7l-4.1,0.2l1,2.5
				L108.2,40.7z"/>
			<path class="st3" d="M111.6,50.2c-0.1,0-0.1,0-0.2,0s-0.1,0-0.1,0h-0.1c0,0,0,0,0-0.1l-0.5-2.1l-6.6,1.6H104c0,0-0.1,0-0.1-0.1
				s0-0.1-0.1-0.1c0-0.1-0.1-0.1-0.1-0.2c0-0.1,0-0.2,0-0.2c0-0.1,0-0.1,0-0.2v-0.1c0,0,0,0,0.1,0l6.6-1.6l-0.5-2.1v-0.1
				c0,0,0-0.1,0.1-0.1c0,0,0.1,0,0.1-0.1s0.1,0,0.2-0.1c0.1,0,0.1,0,0.2,0s0.1,0,0.1,0h0.1c0,0,0,0,0,0.1L112,50v0.1
				c0,0,0,0.1-0.1,0.1l-0.1,0.1C111.8,50.1,111.7,50.2,111.6,50.2z"/>
			<path class="st3" d="M104.9,54.6C104.9,54.6,104.8,54.6,104.9,54.6c-0.1,0-0.1-0.1-0.2-0.1s0-0.1-0.1-0.2c0-0.1,0-0.1,0-0.3
				c0-0.1,0-0.2,0-0.3s0-0.1,0-0.2v-0.1c0,0,0,0,0.1,0l7.5-0.9h0.1c0,0,0,0,0.1,0.1c0,0,0,0.1,0.1,0.2c0,0.1,0,0.1,0,0.2
				c0,0.1,0,0.2,0,0.3s0,0.1,0,0.2v0.1c0,0,0,0-0.1,0L104.9,54.6z"/>
			<path class="st3" d="M105.2,60.4C105.2,60.4,105.1,60.4,105.2,60.4l-0.2-0.2c0-0.1,0-0.1,0-0.2c0-0.1,0-0.2,0-0.3s0-0.2,0-0.2
				c0-0.1,0-0.1,0-0.2v-0.1v-0.1c0,0,0,0,0.1-0.1c0,0,0,0,0.1,0l7.3-2.6c0.1,0,0.2,0,0.2-0.1c0.1,0,0.1,0,0.1,0.1c0,0,0,0.1,0.1,0.2
				c0,0.1,0,0.2,0,0.3s0,0.2,0,0.3s0,0.1,0,0.2c0,0,0,0.1-0.1,0.1c0,0-0.1,0-0.1,0.1l-6.6,2.2l0,0l6.6,2.2h0.1c0,0,0.1,0,0.1,0.1
				c0,0,0,0.1,0,0.2c0,0.1,0,0.2,0,0.3s0,0.2,0,0.3s0,0.1-0.1,0.1h-0.1c-0.1,0-0.1,0-0.2-0.1L105.2,60.4z"/>
			<path class="st3" d="M104.5,69.1c-0.1,0-0.1,0-0.2,0s-0.1,0-0.1-0.1l-0.1-0.1v-0.1l0.6-3.7c0-0.1,0.1-0.2,0.1-0.2
				c0.1-0.1,0.2-0.1,0.3-0.1l6.9,1.1c0.2,0,0.3,0.1,0.3,0.2s0.1,0.2,0.1,0.3l-0.6,3.7v0.1c0,0,0,0-0.1,0.1h-0.1c-0.1,0-0.1,0-0.2,0
				s-0.1,0-0.2,0s-0.1,0-0.1-0.1c0,0-0.1,0-0.1-0.1V70l0.5-3l-2.4-0.4l-0.4,2.6v0.1c0,0-0.1,0-0.1,0.1s-0.1,0-0.1,0
				c-0.1,0-0.1,0-0.2,0s-0.1,0-0.2,0s-0.1,0-0.1-0.1c0,0,0,0-0.1-0.1s0-0.1,0-0.1l0.4-2.6l-2.8-0.4L105,69v0.1c0,0,0,0-0.1,0.1h-0.1
				C104.7,69.1,104.6,69.1,104.5,69.1z"/>
		</g>
		<g>
			<path class="st3" d="M38.3,107.1c-0.2,0.3-0.4,0.6-0.7,0.8c-0.3,0.2-0.6,0.3-0.9,0.4c-0.3,0.1-0.7,0.1-1,0s-0.7-0.2-1.1-0.4
				c-0.2-0.1-0.5-0.3-0.6-0.4c-0.2-0.2-0.4-0.3-0.5-0.4s-0.2-0.3-0.3-0.4s-0.1-0.2-0.2-0.3c0-0.1,0-0.1,0-0.2s0.1-0.2,0.1-0.3
				c0-0.1,0.1-0.2,0.1-0.2c0-0.1,0.1-0.1,0.1-0.1h0.1h0.1c0.1,0,0.1,0.1,0.2,0.2c0.1,0.1,0.2,0.3,0.3,0.4c0.1,0.2,0.3,0.3,0.4,0.5
				c0.2,0.2,0.4,0.3,0.7,0.5c0.2,0.1,0.4,0.2,0.6,0.2c0.2,0,0.4,0,0.6,0c0.2,0,0.3-0.1,0.5-0.2c0.1-0.1,0.3-0.3,0.4-0.5
				c0.1-0.2,0.2-0.4,0.1-0.6s-0.1-0.4-0.2-0.6c-0.1-0.2-0.2-0.4-0.4-0.6s-0.3-0.4-0.5-0.6s-0.3-0.4-0.4-0.6
				c-0.1-0.2-0.2-0.5-0.3-0.7s-0.1-0.5-0.1-0.8s0.1-0.6,0.3-0.8c0.2-0.3,0.4-0.6,0.6-0.7c0.2-0.2,0.5-0.3,0.8-0.4s0.6-0.1,0.9,0
				c0.3,0.1,0.6,0.2,1,0.3c0.2,0.1,0.3,0.2,0.5,0.3c0.2,0.1,0.3,0.2,0.4,0.4c0.1,0.1,0.2,0.2,0.3,0.4c0.1,0.1,0.1,0.2,0.2,0.3
				c0,0.1,0,0.1,0,0.1v0.1v0.1c0,0,0,0.1-0.1,0.2c0,0.1-0.1,0.1-0.1,0.2s-0.1,0.1-0.1,0.1s-0.1,0-0.1,0.1h-0.1c0,0-0.1-0.1-0.2-0.2
				c-0.1-0.1-0.1-0.2-0.2-0.4c-0.1-0.1-0.2-0.3-0.4-0.4s-0.3-0.3-0.6-0.4c-0.2-0.1-0.4-0.2-0.6-0.2c-0.2,0-0.3,0-0.5,0
				c-0.1,0-0.3,0.1-0.4,0.2c-0.1,0.1-0.2,0.2-0.3,0.4c-0.1,0.2-0.1,0.4-0.1,0.6s0.1,0.4,0.2,0.6c0.1,0.2,0.2,0.4,0.4,0.6
				s0.3,0.4,0.5,0.6s0.3,0.4,0.5,0.6c0.1,0.2,0.3,0.5,0.3,0.7c0.1,0.2,0.1,0.5,0.1,0.8C38.6,106.6,38.5,106.8,38.3,107.1z"/>
			<path class="st3" d="M44.7,111.5c0,0.1-0.1,0.1-0.1,0.2s-0.1,0.1-0.1,0.1s-0.1,0-0.1,0.1h-0.1l-3.8-1.3c-0.1,0-0.2-0.1-0.2-0.2
				c-0.1-0.1-0.1-0.2,0-0.4l2.4-7c0.1-0.2,0.1-0.3,0.2-0.3c0.1,0,0.2,0,0.3,0L47,104c0,0,0.1,0,0.1,0.1v0.1c0,0,0,0.1,0,0.2
				s0,0.1-0.1,0.2c0,0.1-0.1,0.1-0.1,0.2s-0.1,0.1-0.1,0.1s-0.1,0-0.1,0.1h-0.1l-3.1-1l-0.8,2.5l2.6,0.9c0,0,0.1,0,0.1,0.1v0.1v0.1
				c0,0.1,0,0.1-0.1,0.2c0,0.1-0.1,0.1-0.1,0.2s-0.1,0.1-0.1,0.1H45h-0.1l-2.6-0.9l-1,2.8l3.1,1.1c0,0,0.1,0,0.1,0.1v0.1v0.1
				C44.8,111.3,44.7,111.4,44.7,111.5z"/>
			<path class="st3" d="M55.5,114.7c0,0.1,0,0.2-0.1,0.2c0,0.1,0,0.1-0.1,0.1l-0.1,0.1h-0.1c-0.1,0-0.2-0.1-0.4-0.2
				s-0.4-0.2-0.6-0.4c-0.2-0.2-0.5-0.4-0.7-0.6c-0.3-0.2-0.5-0.5-0.7-0.8c-0.2,0.1-0.5,0.2-0.8,0.2s-0.7,0-1.1,0
				c-0.6-0.1-1.1-0.3-1.6-0.5c-0.4-0.3-0.7-0.6-1-1c-0.2-0.4-0.4-0.9-0.4-1.4c-0.1-0.5,0-1.2,0.1-1.8c0.1-0.6,0.3-1.2,0.5-1.7
				s0.6-0.9,0.9-1.2c0.4-0.3,0.8-0.5,1.3-0.7c0.5-0.1,1.1-0.1,1.7,0c0.6,0.1,1.1,0.3,1.5,0.5c0.4,0.3,0.7,0.6,1,1
				c0.2,0.4,0.4,0.9,0.5,1.4s0.1,1.1-0.1,1.8c-0.1,0.3-0.1,0.7-0.2,1c-0.1,0.3-0.2,0.6-0.3,0.9s-0.3,0.5-0.5,0.7s-0.4,0.4-0.6,0.6
				c0.3,0.3,0.5,0.5,0.7,0.7s0.4,0.3,0.5,0.4s0.3,0.2,0.3,0.2c0.1,0,0.1,0.1,0.2,0.1c0,0,0.1,0.1,0.1,0.2
				C55.6,114.5,55.6,114.6,55.5,114.7z M54.2,109.6c0.1-0.5,0.1-0.9,0.1-1.3s-0.1-0.8-0.2-1.1c-0.1-0.3-0.4-0.6-0.7-0.8
				c-0.3-0.2-0.7-0.4-1.1-0.4c-0.5-0.1-0.9-0.1-1.2,0.1c-0.4,0.1-0.6,0.3-0.9,0.6c-0.3,0.3-0.5,0.6-0.6,1c-0.2,0.4-0.3,0.8-0.3,1.2
				c-0.1,0.5-0.1,0.9-0.1,1.3s0.1,0.8,0.2,1.1c0.1,0.3,0.4,0.6,0.6,0.8c0.3,0.2,0.7,0.4,1.2,0.4c0.5,0.1,0.9,0.1,1.2-0.1
				c0.4-0.1,0.6-0.3,0.9-0.6c0.2-0.3,0.4-0.6,0.6-1C54,110.4,54.1,110,54.2,109.6z"/>
			<path class="st3" d="M64.5,110.8c0,0.5,0,1-0.2,1.4c-0.1,0.4-0.3,0.7-0.6,1s-0.6,0.5-1,0.6c-0.4,0.2-0.8,0.2-1.3,0.3
				c-0.5,0-0.9,0-1.3-0.2c-0.4-0.1-0.7-0.3-1-0.6c-0.3-0.3-0.5-0.6-0.6-0.9c-0.2-0.4-0.2-0.8-0.3-1.3L58,106v-0.1c0,0,0,0,0.1-0.1
				c0,0,0.1,0,0.2,0c0.1,0,0.2,0,0.3,0s0.2,0,0.3,0s0.1,0,0.2,0c0,0,0.1,0,0.1,0.1v0.1l0.2,5c0,0.4,0.1,0.7,0.2,1
				c0.1,0.3,0.2,0.5,0.4,0.7s0.4,0.3,0.6,0.4c0.3,0.1,0.5,0.1,0.8,0.1s0.6-0.1,0.8-0.2s0.5-0.3,0.6-0.4c0.2-0.2,0.3-0.4,0.4-0.7
				c0.1-0.3,0.1-0.6,0.1-1l-0.2-5.1v-0.1c0,0,0,0,0.1-0.1c0,0,0.1,0,0.2,0c0.1,0,0.2,0,0.3,0s0.2,0,0.3,0s0.1,0,0.2,0
				c0,0,0.1,0,0.1,0.1v0.1L64.5,110.8z"/>
			<path class="st3" d="M74.5,107.6c0.2,0.6,0.2,1.3,0.2,1.8c0,0.6-0.2,1.1-0.4,1.5c-0.2,0.4-0.5,0.8-1,1.1
				c-0.4,0.3-0.9,0.5-1.6,0.7c-0.6,0.1-1.2,0.2-1.6,0.1c-0.5-0.1-0.9-0.3-1.3-0.5c-0.4-0.3-0.7-0.7-0.9-1.1
				c-0.3-0.5-0.5-1.1-0.6-1.7s-0.2-1.2-0.2-1.8c0-0.6,0.2-1,0.4-1.5c0.2-0.4,0.6-0.8,1-1.1c0.4-0.3,0.9-0.5,1.6-0.7
				c0.6-0.1,1.1-0.2,1.6-0.1s0.9,0.3,1.3,0.5c0.4,0.3,0.7,0.6,0.9,1.1C74.1,106.4,74.3,107,74.5,107.6z M73.3,108
				c-0.1-0.5-0.2-0.9-0.4-1.2c-0.2-0.4-0.4-0.7-0.6-0.9c-0.3-0.2-0.6-0.4-0.9-0.5c-0.4-0.1-0.8-0.1-1.2,0c-0.5,0.1-0.8,0.3-1.1,0.5
				s-0.5,0.5-0.6,0.9c-0.1,0.3-0.2,0.7-0.2,1.1s0.1,0.8,0.2,1.3s0.2,0.9,0.4,1.3c0.2,0.4,0.4,0.7,0.6,0.9c0.3,0.2,0.6,0.4,0.9,0.5
				c0.4,0.1,0.8,0.1,1.2,0c0.5-0.1,0.8-0.3,1.1-0.5c0.3-0.3,0.5-0.5,0.6-0.9c0.1-0.3,0.2-0.7,0.2-1.1
				C73.5,108.8,73.4,108.4,73.3,108z"/>
			<path class="st3" d="M79.5,110.1L79.5,110.1c0,0.1,0,0.1-0.1,0.2l-0.1,0.1c-0.1,0-0.1,0.1-0.2,0.1s-0.2,0.1-0.3,0.1
				c-0.1,0-0.1,0-0.2,0h-0.1c0,0,0,0-0.1-0.1l-2.8-7.4V103c0,0,0-0.1,0.1-0.1l0.1-0.1c0.1,0,0.1-0.1,0.2-0.1s0.2-0.1,0.3-0.1
				c0.1,0,0.1,0,0.2,0s0.1,0,0.1,0s0,0,0.1,0.1L79.5,110.1z"/>
			<path class="st3" d="M88.3,105.5c0.1,0.1,0.1,0.1,0.2,0.2c0,0.1,0,0.1,0,0.1l-0.1,0.1c-0.1,0-0.2,0.1-0.3,0.2
				c-0.1,0.1-0.2,0.1-0.3,0.1c-0.1,0-0.1,0.1-0.2,0.1h-0.1c0,0-0.1,0-0.1-0.1l-1.6-1.4l-3,1.6l0.3,2.1v0.1v0.1l-0.1,0.1
				c-0.1,0-0.1,0.1-0.3,0.2c-0.1,0.1-0.2,0.1-0.3,0.1c-0.1,0-0.1,0-0.2,0c0,0-0.1,0-0.1-0.1s0-0.1-0.1-0.2l-1.2-8.1v-0.1
				c0,0,0-0.1,0.1-0.1c0,0,0.1-0.1,0.2-0.1s0.2-0.1,0.3-0.2c0.1-0.1,0.2-0.1,0.3-0.2c0.1,0,0.2-0.1,0.2-0.1c0.1,0,0.1,0,0.1,0
				s0.1,0,0.1,0.1L88.3,105.5z M81.9,101.2L81.9,101.2l0.7,4.3l2.5-1.4L81.9,101.2z"/>
		</g>
		<g>
			<path class="st4" d="M88,63.7L88,63.7c0,0-7.8-0.5-12.9,0.4c-8.4,1.4-13.2,4.9-14.8,6.2c1.6-1.5,6.4-5.7,10.5-6.8
				c11.6-2.9,18.6-0.8,18.6-0.8l0,0L88.2,61c0,0-5-0.7-11.3,0c-3.1,0.4-5.7,1.1-7.8,2c-0.2,0.1-0.5,0.2-0.7,0.3
				c-2.5,1.2-4.3,2.5-5.7,3.8l0,0l0,0c0,0,0,0-0.1,0.1c-1.4,1.3-2.2,2.5-2.6,3.1l0.3-0.7c0.6-1,1.5-2.5,2.5-3.9s2.1-2.7,3.1-3.6
				c0,0,0,0,0.1-0.1c2.2-1.8,4.5-3.2,6.9-4.4c3.8-1.9,7.9-3.1,12.4-4V53v-0.3c-0.4,0-1.1,0.2-2,0.3c-0.6,0.1-1.3,0.3-2,0.4
				C75.2,54.9,71,56.9,68,59c0.4-0.4,0.8-0.7,1-0.9c6.2-4.9,13-6.1,14.4-6.6v-0.7v-0.6c-0.3,0.1-3.6,0.8-7.6,2.6
				c-2,0.9-4.1,2.1-6.1,3.6c-0.3,0.3-0.6,0.5-0.9,0.8l0,0l0,0c-0.6,0.5-1.2,1.1-1.7,1.6c-1.3,1.3-3.2,3.4-4.8,5.7c0,0,0,0,0,0.1
				c0,0,0,0,0-0.1c1.5-2.9,3.8-6.5,7.2-9.8c3.5-3.4,7-5.7,9.4-6.9v-1.5l0,0c-2.1,1.4-6.5,4-8.9,6.4c-3.5,3.4-8,7.9-9.6,14.5
				c-0.3,1.1-0.4,2.1-0.5,2.8c-0.4-1-4.7-10.3-12-13.9c-8.9-4.4-15.4-4-15.4-4s0.6,0.6,1.3,1.3c0,0,0.1,0,0.3,0l0,0c0,0,0.1,0,0.2,0
				l0,0l0,0c0.1,0,0.2,0,0.3,0s0.2,0,0.3,0l0,0c0,0,0,0,0.1,0c0,0,0,0,0.1,0l0,0h0.1c0.1,0,0.3,0,0.4,0l0,0c0.1,0,0.2,0,0.3,0
				c0,0,0,0,0.1,0s0.2,0,0.3,0s0.2,0,0.3,0h0.1h0.1l0,0c0.2,0,0.4,0.1,0.6,0.1c0,0,0,0,0.1,0s0.3,0.1,0.4,0.1H38h0.1c0,0,0,0,0.1,0
				s0.1,0,0.2,0h0.1c0.1,0,0.3,0.1,0.4,0.1c0.1,0,0.2,0,0.3,0.1l0,0h0.1h0.1l0,0c0.1,0,0.2,0,0.2,0.1c0,0,0,0,0.1,0
				c0.3,0.1,0.5,0.1,0.8,0.2c0.1,0,0.1,0,0.2,0.1h0.1c0.1,0,0.1,0,0.2,0s0.1,0,0.2,0h0.1c0.6,0.2,1.2,0.4,1.8,0.6
				c0.2,0.1,0.3,0.1,0.5,0.2c1.3,0.5,2.8,1.1,4.3,1.8l0,0c0.1,0.1,0.2,0.1,0.3,0.2h0.1c0.1,0,0.2,0.1,0.3,0.1h0.1
				c0.1,0.1,0.2,0.1,0.3,0.2c0,0,0,0,0.1,0c0.1,0.1,0.2,0.1,0.3,0.2c0,0,0.1,0,0.1,0.1c0.1,0.1,0.2,0.1,0.3,0.2c0,0,0,0,0.1,0
				c0.1,0.1,0.2,0.1,0.3,0.2c0,0,0.1,0,0.1,0.1c0.1,0.1,0.2,0.1,0.2,0.2l0.1,0.1c0.1,0.1,0.2,0.1,0.3,0.2l0,0
				c0.1,0.1,0.2,0.2,0.3,0.2l0.1,0.1c0.1,0.1,0.1,0.1,0.2,0.2l0.1,0.1c0.1,0.1,0.2,0.2,0.3,0.2l0.1,0.1c0.1,0.1,0.1,0.1,0.2,0.2
				l0.1,0.1c0.1,0.1,0.1,0.1,0.2,0.2l0.1,0.1c0.1,0.1,0.2,0.2,0.3,0.3l0.1,0.1c0.1,0.1,0.1,0.1,0.1,0.2l0.1,0.1c0,0,0.1,0.1,0.1,0.2
				c0.1,0.1,0.2,0.2,0.2,0.2l0.1,0.1c0.1,0.1,0.1,0.1,0.2,0.2l0.1,0.1c0.1,0.1,0.1,0.1,0.2,0.2c0,0,0,0,0.1,0.1s0.2,0.2,0.3,0.4
				c0,0,0,0.1,0.1,0.1c0.1,0.1,0.1,0.1,0.2,0.2c0,0,0,0,0.1,0.1c0.2,0.2,0.4,0.4,0.5,0.7l0,0c0.1,0.1,0.1,0.2,0.2,0.2
				c-2.5-2.4-6.3-4.9-12.2-6.5c-1.7-0.5-4.4-0.8-6.7-1c-0.1,0-0.3,0-0.4,0c-2.7-0.2-4.9-0.3-4.9-0.3l1.2,1.4c0,0,0.5,0,1.2,0.1
				c0.1,0,0.3,0,0.4,0c0.1,0,0.2,0,0.3,0s0.2,0,0.3,0c0.6,0,1.3,0.1,2.1,0.1c0.1,0,0.2,0,0.3,0s0.2,0,0.3,0s0.2,0,0.3,0
				c0,0,0,0,0.1,0s0.2,0,0.3,0c1.5,0.1,2.9,0.3,3.9,0.5l0,0c0.2,0,0.4,0.1,0.5,0.1s0.1,0,0.2,0c0.1,0,0.3,0.1,0.4,0.1
				c0.1,0,0.1,0,0.2,0c0.2,0,0.3,0.1,0.5,0.1l0,0c0.2,0,0.3,0.1,0.5,0.1h0.1c0.1,0,0.2,0.1,0.4,0.1H45c0.2,0,0.3,0.1,0.4,0.1l0,0
				c0.2,0.1,0.3,0.1,0.5,0.2H46c0.1,0,0.2,0.1,0.4,0.1c0,0,0.1,0,0.1,0.1c0.1,0.1,0.3,0.1,0.4,0.2l0,0c0.2,0.1,0.3,0.1,0.5,0.2h0.1
				c0.1,0,0.2,0.1,0.3,0.1c0,0,0.1,0,0.1,0.1c0.1,0.1,0.3,0.1,0.4,0.2l0,0c0.1,0.1,0.3,0.1,0.4,0.2h0.1c0.1,0.1,0.2,0.1,0.3,0.2
				c0,0,0.1,0,0.1,0.1c0.1,0.1,0.2,0.1,0.4,0.2l0,0c0.1,0.1,0.3,0.1,0.4,0.2h0.1c0.1,0.1,0.2,0.1,0.3,0.2c0,0,0.1,0,0.1,0.1
				c0.1,0.1,0.2,0.1,0.3,0.2l0,0c0.1,0.1,0.2,0.2,0.4,0.2c0,0,0,0,0.1,0c0.1,0.1,0.2,0.1,0.3,0.2c0,0,0.1,0,0.1,0.1
				c0.1,0.1,0.2,0.1,0.3,0.2l0,0c0.1,0.1,0.2,0.2,0.3,0.2c0,0,0,0,0.1,0c0.1,0.1,0.2,0.1,0.3,0.2c0,0,0.1,0,0.1,0.1
				c0.1,0.1,0.2,0.1,0.3,0.2l0,0c0.1,0.1,0.2,0.2,0.3,0.2l0,0c0.1,0.1,0.2,0.1,0.3,0.2c0,0,0.1,0,0.1,0.1c0.1,0.1,0.2,0.1,0.2,0.2
				c0,0,0,0,0.1,0c0.1,0.1,0.2,0.2,0.3,0.2l0,0c0.1,0.1,0.2,0.1,0.2,0.2c0,0,0.1,0,0.1,0.1c0.1,0.1,0.1,0.1,0.2,0.2c0,0,0,0,0.1,0
				c0.1,0.1,0.2,0.2,0.3,0.2l0,0c0.1,0.1,0.1,0.1,0.2,0.2c0,0,0.1,0,0.1,0.1c0.1,0.1,0.1,0.1,0.2,0.2c0,0,0,0,0.1,0.1
				s0.2,0.1,0.2,0.2c0,0,0,0,0.1,0.1s0.1,0.1,0.2,0.2l0.1,0.1l0.1,0.1c0,0,0,0,0.1,0.1s0.1,0.1,0.2,0.2c0,0,0,0,0.1,0.1l0.1,0.1
				l0.1,0.1l0.1,0.1l0.1,0.1c0,0.1,0.1,0.1,0.1,0.2l0.1,0.1l0.1,0.1l0.1,0.1c0,0,0,0.1,0.1,0.1s0.1,0.1,0.1,0.1s0,0,0.1,0.1
				s0.1,0.1,0.2,0.2c0,0,0,0,0,0.1l0.1,0.1l0,0l0.1,0.1l0,0c0.1,0.1,0.2,0.3,0.3,0.4l0,0l0.1,0.1c-0.5-0.5-1.3-1.1-2.4-1.7
				c-2.7-1.3-7.5-2.6-16-2.7c-4.7-0.1-8.5,0.6-10.3,1c-0.9,0.2-1.3,0.3-1.3,0.3l-0.8,2.8l0,0c0.2-0.2,1.2-1,3.1-1.7
				c0.8-0.3,1.8-0.5,3-0.6c16.7-1.9,23.5,2.4,25.3,3.8c0.3,0.3,0.5,0.4,0.5,0.4l0,0l0.7-0.4c2.2-1,9.1-4.2,13.3-4.7
				c10.1-1.3,14.6,0.1,15.8,0.6c0.2,0.1,0.5,0.4,0.5,0.4L88,63.7z"/>
			<path class="st5" d="M58.7,69.1L58.7,69.1L58.7,69.1c-0.2-0.2-0.3-0.4-0.4-0.5l0,0l-0.1-0.1l0,0l-0.1-0.1c0,0,0,0,0-0.1
				c-0.1-0.1-0.1-0.1-0.2-0.2c0,0,0,0-0.1-0.1l-0.1-0.1c0,0,0-0.1-0.1-0.1l-0.1-0.1l-0.1-0.1l-0.1-0.1c0-0.1-0.1-0.1-0.1-0.2
				l-0.1-0.1L57,67.1L56.9,67l-0.1-0.1c0,0,0,0-0.1-0.1s-0.1-0.1-0.2-0.2c0,0,0,0-0.1-0.1l-0.1-0.1l-0.1-0.1
				c-0.1-0.1-0.1-0.1-0.2-0.2c0,0,0,0-0.1-0.1c0.1,0.1,0.1,0,0-0.1c0,0,0,0-0.1-0.1s-0.1-0.1-0.2-0.2c0,0-0.1,0-0.1-0.1
				c-0.1-0.1-0.1-0.1-0.2-0.2l0,0c-0.1-0.1-0.2-0.2-0.3-0.2c0,0,0,0-0.1,0c-0.1-0.1-0.1-0.1-0.2-0.2c0,0-0.1,0-0.1-0.1
				c-0.1-0.1-0.2-0.1-0.2-0.2l0,0c-0.1-0.1-0.2-0.2-0.3-0.2c0,0,0,0-0.1,0c-0.1-0.1-0.2-0.1-0.2-0.2c0,0-0.1,0-0.1-0.1
				c-0.1-0.1-0.2-0.1-0.3-0.2l0,0c-0.1-0.1-0.2-0.2-0.3-0.2l0,0c-0.1-0.1-0.2-0.1-0.3-0.2c0,0-0.1,0-0.1-0.1
				c-0.1-0.1-0.2-0.1-0.3-0.2c0,0,0,0-0.1,0C52.2,63.1,52.1,63,52,63l0,0c-0.1-0.1-0.2-0.1-0.3-0.2c0,0-0.1,0-0.1-0.1
				c-0.1-0.1-0.2-0.1-0.3-0.2c0,0,0,0-0.1,0c-0.1-0.1-0.2-0.2-0.4-0.2l0,0c-0.1-0.1-0.2-0.1-0.3-0.2c0,0-0.1,0-0.1-0.1
				c-0.1-0.1-0.2-0.1-0.3-0.2H50c-0.1-0.1-0.3-0.1-0.4-0.2l0,0c-0.1-0.1-0.2-0.1-0.4-0.2c0,0-0.1,0-0.1-0.1
				c-0.1-0.1-0.2-0.1-0.3-0.2h-0.1c-0.1-0.1-0.3-0.1-0.4-0.2c0,0,0,0-0.1,0c-0.1-0.1-0.3-0.1-0.4-0.2c0,0-0.1,0-0.1-0.1
				c-0.1,0-0.2-0.1-0.3-0.1h-0.1c-0.1-0.1-0.3-0.1-0.5-0.2l0,0c-0.1-0.1-0.3-0.1-0.4-0.2c0,0-0.1,0-0.1-0.1c-0.1,0-0.2-0.1-0.4-0.1
				h-0.1c-0.2-0.1-0.3-0.1-0.5-0.2l0,0c-0.1-0.1-0.3-0.1-0.4-0.1h-0.1c-0.1,0-0.2-0.1-0.4-0.1h-0.1c-0.2,0-0.3-0.1-0.5-0.1l0,0
				c-0.2,0-0.3-0.1-0.5-0.1c-0.1,0-0.1,0-0.2,0c-0.1,0-0.3-0.1-0.4-0.1c-0.1,0-0.1,0-0.2,0c-0.2,0-0.4-0.1-0.5-0.1l0,0
				c-1-0.2-2.4-0.4-3.9-0.5c-0.1,0-0.2,0-0.3,0c0,0,0,0-0.1,0s-0.2,0-0.3,0s-0.2,0-0.3,0s-0.2,0-0.3,0c-0.7-0.1-1.4-0.1-2.1-0.1
				c-0.1,0-0.2,0-0.3,0s-0.2,0-0.3,0s-0.3,0-0.4,0c-0.7,0-1.2-0.1-1.2-0.1l2.2,2.5c0,0,10.8-0.1,18.5,4.9c1.1,0.7,2.2,1.6,3.2,2.3
				C57.5,68.1,58.2,68.6,58.7,69.1L58.7,69.1z"/>
			<path class="st6" d="M68.8,57.2L68.8,57.2L68.8,57.2c0.3-0.3,0.6-0.6,1-0.8c2-1.5,4.1-2.7,6.1-3.6c0.9-0.6,2-1.2,3-1.8v-3.2
				c-2.3,1.2-5.9,3.5-9.4,6.9c-3.4,3.3-5.7,6.9-7.2,9.8c1.6-2.3,3.5-4.4,4.8-5.7C67.6,58.2,68.2,57.7,68.8,57.2z"/>
			<path class="st2" d="M72,72.5c0.3,0.3,0.6,0.5,0.8,0.7c-0.1-0.6-0.5-1-1.2-1.2C71.7,72.1,71.8,72.3,72,72.5z"/>
			<path class="st2" d="M76.3,73.1c-0.5-0.9-1.3-1.7-2.4-2.2c-1.2,0-2.4,0.1-3.4,0.1c0.3,0.1,0.5,0.1,0.8,0.2
				C72.9,71.8,74.5,72.4,76.3,73.1z"/>
			<path class="st2" d="M52.1,75.8c1.1-0.9,3.3-1.4,3-2.9C54,73.9,53.1,74.9,52.1,75.8z"/>
			<path class="st2" d="M50.6,77.1c0.1,0.1,0.3,0.4,0.3,0.8c0,0.6-0.1,0.7-0.5,1.3c-0.2,0.3-0.3,0.5-0.5,0.8c0,0.3,0,0.6,0,0.9
				c2-0.8,2.9-2.8,1.6-4.7C51.3,76.5,50.9,76.8,50.6,77.1z"/>
			<path class="st2" d="M56.1,74.3c-0.7,0.9-0.6,1.4,0.1,2h0.1c0-0.2,0-0.4-0.1-0.7C56.1,75.3,56.1,74.8,56.1,74.3z"/>
			<path class="st2" d="M64.6,77.7c0.3-1.3,1.4-2.6-1.3-3.8c0.1,0.7,0.2,1.2,0.2,1.7c-0.4,0.1-0.7,0.3-0.7,0.5
				C62.8,76.8,63,77.5,64.6,77.7z"/>
			<path class="st2" d="M66.6,74.7c-0.8-0.6-1.6-1.1-2.3-1.7C62.8,72.7,66.4,74.8,66.6,74.7z"/>
			<path class="st2" d="M70.9,73.8c-0.6-1.2-1.7-2-3.5-2C68.4,72.5,70.8,73.9,70.9,73.8z"/>
			<path class="st2" d="M72.8,73.8c-0.3-0.4-0.8-0.8-1.3-1.1c-0.4-0.3-0.6-0.6-0.7-0.9c-0.4-0.1-0.9-0.2-1.4-0.3
				c1,1,2.1,2.1,3.2,3.2C72.8,74.3,72.8,74,72.8,73.8z"/>
			<path class="st2" d="M67.4,73.2c-0.6,0.8,0.3,1.2,1.1,1.7c0.9,0.5,1.9,1.1,2.2,1.8c0,0.1,0.1,0.2,0.2,0.2c0-0.1-0.1-0.3-0.1-0.4
				c-0.1-0.4-0.5-1-0.9-2.1c-0.1-0.3-0.3-0.6-0.4-0.8c-0.8-0.4-1.7-0.8-2.5-1.2C67.1,72.7,67.5,73,67.4,73.2z"/>
			<path class="st2" d="M46.4,72.7c-0.5,0.1-1,0.2-1.4,0.3c-0.2,0.2-0.4,0.4-0.4,0.6c-0.1,0.6-0.4,1.2-0.6,1.5
				C45.4,74.7,45.9,74,46.4,72.7z"/>
			<path class="st2" d="M50.4,77.4c-0.2,0.2-0.3,0.4-0.4,0.6c-0.1,0.4-0.1,0.7-0.1,1.1c0.3-0.4,0.5-0.7,0.5-0.9
				C50.5,77.9,50.4,77.6,50.4,77.4z"/>
			<path class="st2" d="M51.3,75.5c0.8-0.8,1.6-1.4,2.4-2.2C51.2,73.6,50.8,74,51.3,75.5z"/>
			<path class="st2" d="M39.2,73.8c0.2-0.2,0.8-0.5,1.3-0.6c-2,0.3-3.5,1-4.3,1.9c0.3,0,0.5,0,0.8,0c0.6-0.2,1.4-0.5,1.6-0.6
				C38.9,74.3,38.8,74.2,39.2,73.8z"/>
			<path class="st2" d="M50.9,72.3c0.3-0.1,0.9-0.4,1.4-0.5c0.3-0.2,0.6-0.3,0.8-0.5c-0.3,0-0.6-0.1-1-0.1c-1.2,0.5-2.5,0.9-3.7,1.4
				c-0.1,0-0.3,0.1-0.4,0.2c0.3,0,0.6-0.1,0.8-0.1C49.3,72.6,50.6,72.4,50.9,72.3z"/>
			<path class="st2" d="M41,74.7c-0.5,0.3-0.8,0.6-1.5,1c1.4-0.1,2.4-0.2,3.3-0.3c0,0-0.1-0.1-0.1-0.2c-0.1-0.2-0.2-0.9-0.1-1.4
				C42,74.1,41.5,74.4,41,74.7z"/>
			<path class="st2" d="M44.3,73.1c-0.3,0.1-0.6,0.2-0.9,0.3c-0.2,0.1-0.3,0.1-0.4,0.2c-0.1,0.2-0.1,0.4,0,0.7
				c0.1,0.5,0.2,0.8,0.2,1c0.1,0,0.2,0,0.3-0.1c0.2-0.2,0.5-0.5,0.7-1C44.3,73.8,44.3,73.4,44.3,73.1z"/>
			<path class="st2" d="M48.4,72.9c-0.3,0-0.6,0.1-0.8,0.1c0,0,0,0-0.1,0.1c-0.8,1-1.8,1.9-3.2,2.6C44.1,75.8,44,75.9,44,76
				c0,0.1-0.1,0.1-0.1,0.1l0,0c1.3-0.2,2.4-0.5,3.1-1.3c0.6-0.7,2-1.2,3-1.8c0.2-0.1,0.4-0.2,0.6-0.3C50.1,72.8,49,72.9,48.4,72.9z"
				/>
			<path class="st2" d="M42.5,73c-0.3,0-0.6,0-0.8,0c-0.6,0.2-1.4,0.5-1.7,0.6c-0.5,0.2-0.3,0.4-0.8,0.9c-0.2,0.2-0.5,0.3-0.9,0.4
				C40.2,74.7,42.3,73.9,42.5,73z"/>
			<path class="st2" d="M39.2,76.6c0.1,0.1,2.8-0.4,4-0.8C43.1,75.7,39.9,75.6,39.2,76.6z"/>
			<path class="st2" d="M56.9,74.2c-0.2,0.3-0.4,0.6-0.5,0.9c0.2,0.4,0.3,0.7,0.4,0.8c0.5-0.3,0.9-0.6,1.2-0.9c0-0.3,0-0.7,0.1-1.3
				c0-0.3,0-0.5-0.1-0.7C57.6,73.4,57.2,73.8,56.9,74.2z"/>
			<path class="st2" d="M70.5,74.2c-0.1-0.1-0.3-0.1-0.5-0.2c0,0.1,0.1,0.1,0.1,0.2c0.1,0.3,0.8,1.4,1.1,2c0.2,0.5,0.3,1,0.3,1.3
				c0.4,0.2,0.9,0.3,1.4,0.3c-0.5-1-0.9-1.9-1.5-2.9C71.4,74.7,70.9,74.4,70.5,74.2z"/>
			<path class="st2" d="M73.9,75.5c0.1,0.2,0.1,0.4,0.2,0.5c0,0.1,0.1,0.2,0.1,0.3c0.4,0.6,0.9,1.1,0.9,1.1s-0.3,0.1-0.9-0.4
				c-0.4-0.4-0.8-0.9-1-1.3c-0.2-0.2-0.5-0.5-0.7-0.7c-0.1,1.9,1.1,3.1,2.9,3.2C76,76.8,75.6,76.1,73.9,75.5z"/>
			<path class="st2" d="M68.6,76.5c0,0.2-0.1,0.4,0,0.5c0.3,0.5,0.6,1.1,0.9,1.6c-0.2,0.2-0.6,0.4-0.6,0.6c0.1,0.6,0.4,1.1,0.6,1.8
				c-1.5-0.9-1-2-1.6-2.9c-0.2,0.5-0.4,1-0.6,1.5c-0.3,0-0.6,0.1-0.8,0.2c0.1,0.2,0.2,0.4,0.4,0.7c0.4,0.7,2.3,1.3,3.3,1.5
				c0.5,0.1,0.9,0.1,1.1,0.1c-0.4-1-1.2-2.1-1.2-3.1C70.7,78.1,70.3,77.4,68.6,76.5z"/>
			<path class="st2" d="M67.7,82.2c0.2,0.3,0.5,0.7,0.7,1c0.3,0.3,0.7,0.5,1,0.7s0.6,0.3,1,0.5c0.3,0,0.7,0,1-0.2
				c0.2-0.5,0.3-0.9,0.2-1.3c-0.7-0.2-1.7-0.4-2.6-0.4C68.4,82.4,68.1,82.4,67.7,82.2z"/>
			<path class="st2" d="M65.8,75.3c-0.1,0.4-0.1,0.7-0.2,1s-0.2,0.6-0.3,0.9C65,78,65.4,78.4,67,78.7C68.2,76.9,68.1,76.4,65.8,75.3
				z"/>
			<path class="st2" d="M78.1,70.9c-1.2,0-2.3,0-3.3,0c0.7,0.6,1.3,1.2,1.8,1.8c0.6,0.8,1.4,1,2.7,1C79.5,72.4,79.1,71.4,78.1,70.9z
				"/>
			<path class="st2" d="M78.5,76.2c-1.2-0.8-2.3-1.7-3.4-2.6c-0.5-0.3-1-0.6-1.5-1l0,0c0,0,0,0.1,0.1,0.1c0.1,0.2,0.5,0.6,0.7,0.7
				l0,0c0.5,0.3,1.1,0.8,1.3,1.2c0.5,0.8,0.8,1.4,1.6,1.7c0.7,0.3,1.3,0.5,1.3,0.5S77.7,77,77,76.6s-1.2-1.1-2-1.8
				c-0.6-0.5-1.2-0.9-1.5-1.1c0,0.7,0.5,1.3,1.5,1.8c0.7,0.4,1.1,1.2,1.2,1.8c0.1,0.4,0.2,0.7,0.6,1c0.1,0,0.1,0.1,0.2,0.1
				s0.2,0.1,0.4,0.1c0.1,0,0.1,0,0.1,0.1c0.4,0.1,0.8,0.2,1,0.3c0.2,0.1,0.3,0,0.4,0C79.4,78,79.7,77.1,78.5,76.2z"/>
			<path class="st2" d="M76,73.7c1.4,1.3,2.9,2.5,5.6,3.1l-0.1-0.1c-0.8-0.4-1.9-0.9-2.8-1.4c-0.8-0.4-1.6-0.9-2-1.3
				C76.4,73.9,76.2,73.8,76,73.7z"/>
			<path class="st2" d="M59.8,80l1.9-2.6C60.8,77.6,59.7,80,59.8,80z"/>
			<path class="st2" d="M62,74.8c0.1-0.5,0.4-1,0.5-1.5c0-0.4-0.1-0.9-0.2-1.5h-0.1c-0.2,0.3-0.3,0.6-0.5,0.8
				c-0.1,0.2-0.1,0.3-0.2,0.5c-0.6,1.2-0.5,1.8,0.2,3.3C61.8,75.8,61.9,75.3,62,74.8z"/>
			<path class="st2" d="M58.1,78.1v3.7C58.3,81.7,58.8,78.6,58.1,78.1z"/>
			<path class="st2" d="M62.9,79.6c0,0,0.2,1.9,0.3,1.9C63.2,81.5,63.2,78.6,62.9,79.6z"/>
			<path class="st2" d="M65.4,84.8c1.5-1,0.3-1.6,0-2.2V84.8z"/>
			<path class="st2" d="M58.1,72c-0.2,0-0.6-0.1-0.9-0.1c0.2,0.1,0.8,0.4,1,0.5C58.3,72.3,58.2,72.1,58.1,72z"/>
			<path class="st2" d="M60.3,77c-0.7,0.6-1.8,1.1-0.7,2.1C60,78.3,60.4,77,60.3,77z"/>
			<path class="st2" d="M65,83.9c-0.1,0.2-0.2,0.4-0.3,0.6c-0.2,0.3-1,0.5-1,0.5s0.7-0.3,1-0.7c0.1-0.2,0.2-0.6,0.2-0.9
				c-0.1-0.3-0.1-0.5-0.2-0.8c-0.2-0.9-0.3-1.8-0.4-2.8c-0.2,0-0.6,4.7-0.6,4.7c-0.5-1-1.1-2-1.3-3s0-2.1,0-3.3
				c-0.7,0.5-1.2,0.9-1.5,1.3c0,0.2,0,0.6,0.1,1.2c0.2,1.1,1.1,1.4,1.5,2.1s0.3,1.4,0,0.8s-0.8-0.7-1.4-1.1c-0.3-0.3-0.6-0.7-0.7-1
				c-0.1,0-0.1-0.1-0.2-0.1c-0.3,1-0.1,1.7,0.7,2.4l1.2,0.6l0,0c1.7,0.7,2.1,1.8,2.3,2.9c0.3-0.6,0.5-1.1,0.7-1.6
				c0.1-0.4,0.2-0.7,0.1-1.1C65.2,84.4,65.1,84.2,65,83.9z"/>
			<path class="st2" d="M65.8,82.2c-0.1-0.8-0.3-1.6-0.5-2.4c-0.1,0-0.6-1-0.8-1C64.7,79.7,65.8,82.3,65.8,82.2z"/>
			<path class="st2" d="M58.2,72.8L58.2,72.8c0,0.3,0,0.4,0.1,0.6c0.1,0.3,0.2,0.7,0.2,0.9c0.1-0.2,0.2-0.4,0.2-0.6
				c-0.1-0.2-0.2-0.6-0.3-0.7C58.4,72.9,58.3,72.8,58.2,72.8z"/>
			<path class="st5" d="M42,68.9c5.9,0.3,10.9,0.9,15.7,2.2c0.1,0,0.5,0.2,0.5,0.2c1.4,0.6,2.3,0.3,3.1,0l0,0c0,0,0.3-0.1,0.5-0.2
				c4.8-1.4,9.9-2,15.7-2.2c6.5-0.3,11.6,0.3,14.2,0.8c-0.2-0.5-0.6-1.2-0.8-1.8c-0.6-1.2-0.9-1.5-1.2-1.6
				c-1.2-0.5-5.7-1.9-15.9-0.6c-4.2,0.6-11.1,3.7-13.3,4.7l-0.7,0.4l0,0c0,0-5.9-6.4-25.7-4.2c-4,0.5-5.9,2.1-6.2,2.3l-0.2,0.8
				C30.1,69.3,35.3,68.6,42,68.9z"/>
			<g>
				<path class="st2" d="M46.4,72.7c-0.5,0.1-1,0.2-1.4,0.3c-0.2,0.2-0.4,0.4-0.4,0.6c-0.1,0.6-0.4,1.2-0.6,1.5
					C45.4,74.7,45.9,74,46.4,72.7z"/>
				<path class="st2" d="M72.8,73.2c-0.1-0.6-0.5-1-1.2-1.2c0.1,0.1,0.3,0.3,0.5,0.5C72.3,72.8,72.6,73,72.8,73.2z"/>
				<path class="st2" d="M51.3,75.5c0.8-0.8,1.6-1.4,2.4-2.2C51.2,73.6,50.8,74,51.3,75.5z"/>
				<path class="st2" d="M58.3,72.4c0-0.1-0.1-0.3-0.2-0.4c-0.2,0-0.6-0.1-0.9-0.1C57.5,72,58.1,72.3,58.3,72.4z"/>
				<path class="st2" d="M48.4,72.9c-0.3,0-0.6,0.1-0.8,0.1c0,0,0,0-0.1,0.1c-0.8,1-1.8,1.9-3.2,2.6C44.1,75.8,44,75.9,44,76
					c0,0.1-0.1,0.1-0.1,0.1l0,0c1.3-0.2,2.4-0.5,3.1-1.3c0.6-0.7,2-1.2,3-1.8c0.2-0.1,0.4-0.2,0.6-0.3C50.1,72.8,49,72.9,48.4,72.9z
					"/>
				<path class="st2" d="M50.9,72.3c0.3-0.1,0.9-0.4,1.4-0.5c0.3-0.2,0.6-0.3,0.8-0.5c-0.3,0-0.6-0.1-1-0.1
					c-1.2,0.5-2.5,0.9-3.7,1.4c-0.1,0-0.3,0.1-0.4,0.2c0.3,0,0.6-0.1,0.8-0.1C49.3,72.6,50.6,72.4,50.9,72.3z"/>
				<path class="st2" d="M44.3,73.1c-0.3,0.1-0.6,0.2-0.9,0.3c-0.2,0.1-0.3,0.1-0.4,0.2c-0.1,0.2-0.1,0.4,0,0.7
					c0.1,0.5,0.2,0.8,0.2,1c0.1,0,0.2,0,0.3-0.1c0.2-0.2,0.5-0.5,0.7-1C44.3,73.8,44.3,73.4,44.3,73.1z"/>
				<path class="st2" d="M39.2,76.6c0.1,0.1,2.8-0.4,4-0.8C43.1,75.7,39.9,75.6,39.2,76.6z"/>
				<path class="st2" d="M41,74.7c-0.5,0.3-0.8,0.6-1.5,1c1.4-0.1,2.4-0.2,3.3-0.3c0,0-0.1-0.1-0.1-0.2c-0.1-0.2-0.2-0.9-0.1-1.4
					C42,74.1,41.5,74.4,41,74.7z"/>
				<path class="st2" d="M42.5,73c-0.3,0-0.6,0-0.8,0c-0.6,0.2-1.4,0.5-1.7,0.6c-0.5,0.2-0.3,0.4-0.8,0.9c-0.2,0.2-0.5,0.3-0.9,0.4
					C40.2,74.7,42.3,73.9,42.5,73z"/>
				<path class="st2" d="M73.9,70.9c-1.2,0-2.4,0.1-3.4,0.1c0.3,0.1,0.5,0.1,0.8,0.2c1.7,0.6,3.3,1.2,5,1.8
					C75.8,72.2,75,71.4,73.9,70.9z"/>
				<path class="st2" d="M65.8,82.2c-0.1-0.8-0.3-1.6-0.5-2.4c-0.1,0-0.6-1-0.8-1C64.7,79.7,65.8,82.3,65.8,82.2z"/>
				<path class="st2" d="M63.3,73.9c0.1,0.7,0.2,1.2,0.2,1.7c-0.4,0.1-0.7,0.3-0.7,0.5c0,0.7,0.2,1.4,1.8,1.7
					C64.9,76.4,66,75.1,63.3,73.9z"/>
				<path class="st2" d="M72.8,73.8c-0.3-0.4-0.8-0.8-1.3-1.1c-0.4-0.3-0.6-0.6-0.7-0.9c-0.4-0.1-0.9-0.2-1.4-0.3
					c1,1,2.1,2.1,3.2,3.2C72.8,74.3,72.8,74,72.8,73.8z"/>
				<path class="st2" d="M68.5,74.9c0.9,0.5,1.9,1.1,2.2,1.8c0,0.1,0.1,0.2,0.2,0.2c0-0.1-0.1-0.3-0.1-0.4c-0.1-0.4-0.5-1-0.9-2.1
					c-0.1-0.3-0.3-0.6-0.4-0.8c-0.8-0.4-1.7-0.8-2.5-1.2c0.1,0.2,0.6,0.5,0.4,0.7C66.7,74,67.7,74.4,68.5,74.9z"/>
				<path class="st2" d="M62.9,79.6c0,0,0.2,1.9,0.3,1.9C63.2,81.5,63.2,78.6,62.9,79.6z"/>
				<path class="st2" d="M70.9,73.8c-0.6-1.2-1.7-2-3.5-2C68.4,72.5,70.8,73.9,70.9,73.8z"/>
				<path class="st2" d="M61.7,72.7c-0.1,0.2-0.1,0.3-0.2,0.5c-0.6,1.2-0.5,1.8,0.2,3.3c0.1-0.6,0.2-1.1,0.4-1.6
					c0.1-0.5,0.4-1,0.5-1.5c0-0.4-0.1-0.9-0.2-1.5h-0.1C62,72.2,61.8,72.4,61.7,72.7z"/>
				<path class="st2" d="M66.6,74.7c-0.8-0.6-1.6-1.1-2.3-1.7C62.8,72.7,66.4,74.8,66.6,74.7z"/>
				<path class="st2" d="M39.2,73.8c0.2-0.2,0.8-0.5,1.3-0.6c-2,0.3-3.5,1-4.3,1.9c0.3,0,0.5,0,0.8,0c0.6-0.2,1.4-0.5,1.6-0.6
					C38.9,74.3,38.8,74.2,39.2,73.8z"/>
				<path class="st2" d="M68.6,76.5c0,0.2-0.1,0.4,0,0.5c0.3,0.5,0.6,1.1,0.9,1.6c-0.2,0.2-0.6,0.4-0.6,0.6c0.1,0.6,0.4,1.1,0.6,1.8
					c-1.5-0.9-1-2-1.6-2.9c-0.2,0.5-0.4,1-0.6,1.5c-0.3,0-0.6,0.1-0.8,0.2c0.1,0.2,0.2,0.4,0.4,0.7c0.4,0.7,2.3,1.3,3.3,1.5
					c0.5,0.1,0.9,0.1,1.1,0.1c-0.4-1-1.2-2.1-1.2-3.1C70.7,78.1,70.3,77.4,68.6,76.5z"/>
				<path class="st2" d="M70.5,74.2c-0.1-0.1-0.3-0.1-0.5-0.2c0,0.1,0.1,0.1,0.1,0.2c0.1,0.3,0.8,1.4,1.1,2c0.2,0.5,0.3,1,0.3,1.3
					c0.4,0.2,0.9,0.3,1.4,0.3c-0.5-1-0.9-1.9-1.5-2.9C71.4,74.7,70.9,74.4,70.5,74.2z"/>
				<path class="st2" d="M65.8,75.3c-0.1,0.4-0.1,0.7-0.2,1s-0.2,0.6-0.3,0.9C65,78,65.4,78.4,67,78.7
					C68.2,76.9,68.1,76.4,65.8,75.3z"/>
				<path class="st2" d="M67.7,82.2c0.2,0.3,0.5,0.7,0.7,1c0.3,0.3,0.7,0.5,1,0.7s0.6,0.3,1,0.5c0.3,0,0.7,0,1-0.2
					c0.2-0.5,0.3-0.9,0.2-1.3c-0.7-0.2-1.7-0.4-2.6-0.4C68.4,82.4,68.1,82.4,67.7,82.2z"/>
				<path class="st2" d="M73.9,75.5c0.1,0.2,0.1,0.4,0.2,0.5c0,0.1,0.1,0.2,0.1,0.3c0.4,0.6,0.9,1.1,0.9,1.1s-0.3,0.1-0.9-0.4
					c-0.4-0.4-0.8-0.9-1-1.3c-0.2-0.2-0.5-0.5-0.7-0.7c-0.1,1.9,1.1,3.1,2.9,3.2C76,76.8,75.6,76.1,73.9,75.5z"/>
				<path class="st2" d="M78.5,76.2c-1.2-0.8-2.3-1.7-3.4-2.6c-0.5-0.3-1-0.6-1.5-1l0,0c0,0,0,0.1,0.1,0.1c0.1,0.2,0.5,0.6,0.7,0.7
					l0,0c0.5,0.3,1.1,0.8,1.3,1.2c0.5,0.8,0.8,1.4,1.6,1.7c0.7,0.3,1.3,0.5,1.3,0.5S77.7,77,77,76.6s-1.2-1.1-2-1.8
					c-0.6-0.5-1.2-0.9-1.5-1.1c0,0.7,0.5,1.3,1.5,1.8c0.7,0.4,1.1,1.2,1.2,1.8c0.1,0.4,0.2,0.7,0.6,1c0.1,0,0.1,0.1,0.2,0.1
					s0.2,0.1,0.4,0.1c0.1,0,0.1,0,0.1,0.1c0.4,0.1,0.8,0.2,1,0.3c0.2,0.1,0.3,0,0.4,0C79.4,78,79.7,77.1,78.5,76.2z"/>
				<path class="st2" d="M78.1,70.9c-1.2,0-2.3,0-3.3,0c0.7,0.6,1.3,1.2,1.8,1.8c0.6,0.8,1.4,1,2.7,1C79.5,72.4,79.1,71.4,78.1,70.9
					z"/>
				<path class="st2" d="M76,73.7c1.4,1.3,2.9,2.5,5.6,3.1l-0.1-0.1c-0.8-0.4-1.9-0.9-2.8-1.4c-0.8-0.4-1.6-0.9-2-1.3
					C76.4,73.9,76.2,73.8,76,73.7z"/>
				<path class="st2" d="M65.4,84.8c1.5-1,0.3-1.6,0-2.2V84.8z"/>
				<path class="st2" d="M60.3,77c-0.7,0.6-1.8,1.1-0.7,2.1C60,78.3,60.4,77,60.3,77z"/>
				<path class="st2" d="M56.1,74.3c-0.7,0.9-0.6,1.4,0.1,2h0.1c0-0.2,0-0.4-0.1-0.7C56.1,75.3,56.1,74.8,56.1,74.3z"/>
				<path class="st2" d="M56.9,74.2c-0.2,0.3-0.4,0.6-0.5,0.9c0.2,0.4,0.3,0.7,0.4,0.8c0.5-0.3,0.9-0.6,1.2-0.9c0-0.3,0-0.7,0.1-1.3
					c0-0.3,0-0.5-0.1-0.7C57.6,73.4,57.2,73.8,56.9,74.2z"/>
				<path class="st2" d="M52.1,75.8c1.1-0.9,3.3-1.4,3-2.9C54,73.9,53.1,74.9,52.1,75.8z"/>
				<path class="st2" d="M65,83.9c-0.1,0.2-0.2,0.4-0.3,0.6c-0.2,0.3-1,0.5-1,0.5s0.7-0.3,1-0.7c0.1-0.2,0.2-0.6,0.2-0.9
					c-0.1-0.3-0.1-0.5-0.2-0.8c-0.2-0.9-0.3-1.8-0.4-2.8c-0.2,0-0.6,4.7-0.6,4.7c-0.5-1-1.1-2-1.3-3s0-2.1,0-3.3
					c-0.7,0.5-1.2,0.9-1.5,1.3c0,0.2,0,0.6,0.1,1.2c0.2,1.1,1.1,1.4,1.5,2.1s0.3,1.4,0,0.8s-0.8-0.7-1.4-1.1c-0.3-0.3-0.6-0.7-0.7-1
					c-0.1,0-0.1-0.1-0.2-0.1c-0.3,1-0.1,1.7,0.7,2.4l1.2,0.6l0,0c1.7,0.7,2.1,1.8,2.3,2.9c0.3-0.6,0.5-1.1,0.7-1.6
					c0.1-0.4,0.2-0.7,0.1-1.1C65.2,84.4,65.1,84.2,65,83.9z"/>
				<path class="st2" d="M50.6,77.1c0.1,0.1,0.3,0.4,0.3,0.8c0,0.6-0.1,0.7-0.5,1.3c-0.2,0.3-0.3,0.5-0.5,0.8c0,0.3,0,0.6,0,0.9
					c2-0.8,2.9-2.8,1.6-4.7C51.3,76.5,50.9,76.8,50.6,77.1z"/>
				<path class="st2" d="M58.1,78.1v3.7C58.3,81.7,58.8,78.6,58.1,78.1z"/>
				<path class="st2" d="M50.4,77.4c-0.2,0.2-0.3,0.4-0.4,0.6c-0.1,0.4-0.1,0.7-0.1,1.1c0.3-0.4,0.5-0.7,0.5-0.9
					C50.5,77.9,50.4,77.6,50.4,77.4z"/>
				<path class="st2" d="M59.8,80l1.9-2.6C60.8,77.6,59.7,80,59.8,80z"/>
				<path class="st2" d="M58.2,72.8L58.2,72.8c0,0.3,0,0.4,0.1,0.6c0.1,0.3,0.2,0.7,0.2,0.9c0.1-0.2,0.2-0.4,0.2-0.6
					c-0.1-0.2-0.2-0.6-0.3-0.7C58.4,72.9,58.3,72.8,58.2,72.8z"/>
				<path class="st1" d="M87.5,74l2.8-1c0,0-1.6,0.5-2.9,0.7c-0.8,0.1-1.9,0.2-2.5,0.3c-0.4-0.1-1.3-0.5-1.6-0.7
					C83.1,73,83,73,83,72.9l0,0c1.1,0.3,2.1,0.5,3.2,0.8c-1.1-0.4-2.2-0.9-3.4-1.1c-1.6-0.3-2.3-0.9-3.2-1.7c0.7,0,1.4,0,2.2,0.1
					c4.4,0.2,12.8,1.4,12.8,1.4s-0.3-2-1.3-2.4c-0.2-0.1-0.8-0.2-1.6-0.4c-2.5-0.5-7.7-1.1-14.2-0.8c-5.9,0.3-10.9,0.9-15.7,2.2
					c-0.2,0-0.5,0.2-0.5,0.2l0,0c-0.9,0.4-1.7,0.6-3.1,0c0,0-0.4-0.2-0.5-0.2c-4.8-1.4-9.9-2-15.7-2.2c-6.7-0.3-11.9,0.4-14.4,0.8
					c-0.7,0.1-1.2,0.3-1.4,0.3c-1,0.3-1.3,2.4-1.3,2.4s8.4-1.3,12.8-1.4c2.7-0.1,5.2-0.1,7.3-0.1c-0.9,0.2-1.8,0.4-2.7,0.5h-0.7
					h-1.5c0,0-1.3,0.4-1.8,0.6s-0.5,0.4-0.5,0.4s1.6-0.6,2.6-0.5s1.3,0.2,2.3,0c0.8-0.1,2.7-0.6,3.1-0.7c1.5-0.1,3-0.2,4.1-0.2
					c0.1,0,0.3,0,0.4,0c-2.4,0.8-4.5,1.3-7,1.3c-2.3,0-4.6,0.3-6.3,1.3c-0.2,0-0.5,0.1-0.8,0.2c-0.8,0.2-1.6,0.2-2.2-0.1
					c-0.6-0.4-0.7-0.6-1.4-0.8c-0.7-0.2-1.3,0-1.3,0s1.3-0.2,1.8,0.7c0.4,0.6,1.6,0.8,2.3,0.8c-1.2,0.4-2.5,0.6-3.9,0.8
					c-1.4,0.1-4.1,0.7-4.1,0.8c2.2-0.3,4.3-0.5,6.3-0.8c-2.9,1.5-8.2,2.2-7.1,2.1c1.1,0,2.1-0.1,3-0.3c-0.3,0.3-0.7,0.7-1,1l1.4-1
					c1-0.2,2-0.5,3-0.7c0.5-0.1,1-0.3,1.5-0.4c0.2,0,1.3,0,1.5,0.2c0.2,0.3-0.6,0.9-0.6,0.9s1.3-0.6,1.2-1c-0.1-0.2-0.4-0.3-0.7-0.4
					c1-0.2,2.1-0.4,3.1-0.6c-0.1,1.6-1.4,2.2-3.6,2.3c-0.6,0-1,0.1-1.4,0.2c-0.1-0.2-0.4-0.5-1-0.5c-0.9,0-1.8,0.5-1.9,0.5
					s-0.4,0-0.4,0c-0.1,0,0.1,0.3,0.5,0.2c0.4-0.1,0.9-0.3,1.4-0.3c0.4,0,0.7,0.2,0.9,0.3c-0.1,0.1-0.3,0.2-0.4,0.4
					c-0.7,0.8-1.9,1.2-3.5,1.3C28.7,79.5,27,80,27,80l4.2-0.6c0.1,0.1,0.1,0.1,0.2,0.2c-0.9,0.6-1.9,1.2-2.8,1.8
					c1.8-0.5,2.9-1.3,3.9-2.2c0.4-0.4,0.9-0.7,1.4-0.9c-0.1,0.2-0.3,0.6-0.4,1c-0.3,0.6-1.1,1.5-1.1,1.5s1.3-0.6,1.7-1.7
					c0.2-0.5,0.5-0.8,0.8-1.1c0.9-0.3,2-0.5,3.2-0.6l0,0c-0.4,0.1-0.9,0.3-1.3,0.7c-0.6,0.6-0.3,1-0.9,1.8c-0.6,0.7-1.5,1.1-1.5,1.1
					s1.6-0.4,2.3-1.1c0.4-0.4,1.1-0.9,1.7-1.4c-0.1,0.1-0.1,0.2-0.1,0.3c-0.2,0.5-0.3,1.9-0.5,2.6C37.3,82,36,82.9,36,82.9
					s1.4-0.3,1.6-1c0.2-0.8,0.5-1.9,0.6-2.9c0-0.2,0.1-0.3,0.2-0.5c0,0,0.1,0.3-0.2,0.9c-0.2,0.7,0.2,1.8,0.2,1.8s-0.2-1-0.1-1.5
					c0-0.5,0.5-0.8,0.3-1.2c0-0.1,0-0.3,0.1-0.5c0.2-0.2,0.3-0.3,0.5-0.5c1-0.6,2.2-1,3.3-1.3c-0.3,0.4-0.7,1.1-0.9,1.3
					c-0.3,0.3-2.5,0.8-2.5,0.8s1.5-0.2,2.4-0.5s0.6-0.7,1-1.2c0,0,0-0.1,0.1-0.1c1.5-0.4,2.9-0.7,4.4-1.1c-0.7,1.5-1.8,2.4-4.4,2.7
					c-1.4,0.1-4,0.9-3.9,1c1.4-0.3,2.9-0.5,4.2-0.7c-0.3,0.2-0.6,0.4-0.8,0.6c-0.3,0.1-0.6,0.2-0.8,0.3c-0.5,0.3-0.9,0.8-1.2,1.1
					c-0.2,0.3-1.3,0.7-1.3,0.7s1.1-0.1,1.5-0.6c0.4-0.6,0.6-0.5,1.3-0.7c0.4-0.2,0.8-0.2,1-0.3c-0.7,1.1-1.5,2.3-2.3,3.4
					c0.7-0.4,2.5-3.1,3.7-4.2c0.1,0.2,0.2,0.6,0.1,0.8c-0.1,0.2-0.8,1-1.4,1.8c-0.6,0.8-0.3,2.1-0.3,2.1s0-0.5,0.2-1.1s1-1.6,1.3-2
					c0.3-0.3,0.7-0.7,0.7-1.2c-0.1-0.3-0.1-0.6-0.1-0.8c1.2-0.8,2.2-1.7,3.2-2.6c0,0.1,0,0.2-0.1,0.3c0,0.1-1.1,1.4-1.1,1.4
					s0.8-0.6,1.3-1.2c0.2-0.3,0.5-0.8,0.7-1.2c0.5-0.4,0.9-0.7,1.5-1.1c0.4,0.8,0.5,1.5-0.9,2.2c-1.1,0.9-2.1,1.8-3,2.6
					c-0.8,0.8-1.8,2.8-1.9,2.9c-0.6,1.1-1.3,2.1-1.9,3.2c0.8-0.6,1.4-1.3,1.9-2c0.4-0.7,0.8-1.4,1.2-2.1c0,0.1,0,0.4-0.1,0.7
					c0,0.4-0.4,1.7-0.4,1.7s0.7-1,0.7-1.8c0-0.5,0-0.8,0-1c0.1-0.2,0.2-0.4,0.3-0.6c0.6-1.2,1.7-2.1,3.6-2.8c-1.2,1-3.4,3.1-3.4,3.3
					c0.5-0.4,0.8-0.7,1.2-0.9c0,0.2,0,0.5,0.1,0.7c-0.3,0.6-0.6,1.3-0.8,1.9c1.9-1,0.7-2.8,2.6-3.8c0.3,0.6,0.3,1.1,0.3,1.6
					c-0.4,0.5-0.9,1.1-1.6,1.6c-1.5,1.3-2.1,3.3-2.1,3.3s0.6-1.3,1.4-2.2c0.8-0.9,1.2-1,2-1.6c-0.4,0.7-0.9,1.4-1.6,2.2
					c0.8-0.5,1.5-1,2.2-1.5c0.1,0.3,0.1,0.8-0.1,1.4c-0.3,0.6-0.2,1.6-0.2,1.6s0.1-1,0.5-1.7c0.3-0.6,0.6-0.8,0.6-1.1
					c0-0.2-0.1-0.3-0.3-0.5c0.8-0.5,1.5-1,2.3-1.5c0.1,0.2,0.1,0.3,0.2,0.5c0,0.2,0,0.3-0.1,0.5c-0.2,0.6-1,1.8-1,1.8l1.2-1.8
					c0.3,1.3-0.2,2.5-1.9,3.5c0.5-0.1,0.9-0.2,1.1-0.3c1.1-0.9,1.6-2,1.5-3c0.1,0.1,0.1,0.2,0.2,0.3c0.2,0.4,0,1,0,1.4
					c-0.1,0.4,0.4,0.8,0.4,0.8s0-0.1-0.1-0.6s0.3-0.9,0.2-1.7c-0.1-0.5-0.4-0.7-0.7-0.9c-0.1-0.2-0.2-0.5-0.3-0.7
					c-0.4-0.9-0.4-1.7,0.2-2.4c0.2,0.2,0.5,0.6,0.5,0.7c0,0.3-0.2,1.1-0.2,1.1s0.5-0.6,0.6-1s0-0.3-0.4-0.8
					c-0.1-0.1-0.1-0.2-0.2-0.3c0.4-0.4,0.9-0.8,1.6-1.1c0.2,0.6,0.1,1.1,0,1.6s-0.6,0.9-0.5,1.4c0.2,1.1,0.7,2.2,1.1,3.3
					c1.2-1.5-1.6-3,0.2-4.4c0.1,0.6,0.1,1.2,0.2,1.8c0,0,0.6-0.9,0.4-1.4c-0.5-1,0.3-1.6,1.5-2.2c-0.1,0.5-0.2,1-0.3,1.5
					c-0.3,1.4-0.5,2.8-0.8,4.2c-0.1,0.4-0.7,0.7-1.1,1c-0.7,0.6-1.4,1.1-2.1,1.7c-0.3,0.3-0.4,0.7-0.6,1.1c1.4-1.2,2.8-2.4,4.3-3.7
					c0.2,0.2,0.3,0.4,0.4,0.5c-0.1,0.2-0.2,0.6-0.4,0.8c-0.4,0.3-1,0.5-1.4,0.8c-0.3,0.3-0.5,1.6-0.5,1.6s0.5-1.2,0.9-1.4
					c0.3-0.2,0.9-0.5,1.2-0.6c-0.3,0.4-0.8,0.8-0.9,1.3c-0.4,1-1.1,1.9-1.7,2.9c0.4-0.3,0.7-0.5,1.1-0.8c0.2,1.2,0.5,2.3,0.7,3.4
					c0.1,0,0.1-2.4-0.1-3.6c0.1,0,0.3,0,0.4,0c0.4,0.5,0.8,1,1.3,1.6c-0.3-0.9-1.2-1.7-1.2-2.6c0-0.5,0.4-1,0.8-1.6
					c0,0-0.1,0.4-0.2,0.7c-0.1,0.3,0.1,0.7,0.1,0.7s-0.1-0.2,0-0.5s0.4-0.6,0.5-1c0-0.1,0-0.2,0-0.3c0.2-0.2,0.3-0.4,0.5-0.7
					c1.9,1.3,2.5,2.7,2.9,4.1c0.1-0.7-0.2-1.4-0.3-2c0-0.1,0-0.3,0.1-0.4c0.3,0.1,0.6,0.2,0.8,0.3c1.4,1.1,1.8,2.4,1.8,3.8
					c0,0.6,1.2,1.8,1.2,1.8c-0.1-0.8-0.2-1.6-0.2-2.3c0.1-0.8,0.3-1.6,0.5-2.4c0.1,0,0.2,0,0.4,0c0.6,0.8,1.1,1.7,1.7,2.5
					c0-1.4-2.3-2.7-0.5-4.4c0.4,0.6,1.1,1.5,1.2,1.5c-0.3-0.7-0.6-1.3-0.9-2c0.2,0.2,0.6,0.5,0.9,0.6c0.9,0.5,1.9,0.9,2.4,1.3
					s1.7,1.1,1.8,1.5c0.1,0.5,0.3,0.7,0.3,0.7s0.1-0.9-0.3-1.5c-0.2-0.3-0.5-0.5-0.8-0.7c0.2-0.7,0.3-1.4,0.5-2
					c0.2,0,0.3-0.1,0.5-0.1c0.5,0.3,1.5,0.9,1.5,0.9c-0.7-0.6-1.3-1.2-2-1.8c0.4,0,0.6,0,0.6,0c-0.5-0.6-1.5-1.3-1.3-1.8
					c0.2-0.6,0-1.1,0-1.6c0-0.3,0-0.6-0.1-1c0.5,0.1,1.5,0.4,1.6,0.9c0.2,0.7,0.3,1.7,0.6,2.2s2,1.1,2,1.1s-1.6-1-1.6-1.6
					c0-0.5-0.3-1.9-0.6-2.3c0.6,0.1,1.1,0.3,1.5,0.5c0.8,0.4,1.6,1.8,1.7,1.7c-0.1-0.6-0.1-1.1-0.2-1.7c0.1,0,0.3,0,0.6,0.2
					c0.4,0.2,0.8,0.4,1.1,0.6c0.3,0.9,0.8,2.1,0.8,2.1v-1.3c0.4,0.3,0.7,0.5,1,0.7s0.6,0.3,0.9,0.4c-2.2-1-1.4-2.1-1-3.2
					c0.2,0.5,0.8,1.5,1.3,1.7c0.7,0.2,2.1,0.3,2.7,1s0.8,1.3,0.8,1.3s-0.1-1.3-0.8-1.9c-0.7-0.6-2.1-0.7-2.6-1.2
					c-0.4-0.3-0.9-1.3-1.2-1.9c0-0.2-0.1-0.3-0.2-0.5c3.3,0.5,4.3,1.9,5.1,3.4c0.2,0.5,0.7,1,1.1,1.5c0-0.6-0.5-1.1-0.7-1.7
					c-0.3-1.2-1.5-2.2-2.6-3.2c-0.1-0.1-0.2-0.2-0.4-0.3c-0.2-0.2-0.5-0.5-1-0.8c0.5,0.1,1.2,0.2,1.6,0.4c0.1,0.1,0.3,0.3,0.5,0.6
					c0.5,0.5,1,1.2,1,1.2l-0.8-1.5c0.6,0.4,1.3,1,1.8,1.1c0.6,0.2,2.7-0.3,2.7-0.3s-1.8-0.1-2.6-0.1c-0.8-0.1-1.1-0.8-2.3-1.5
					c-0.9-0.5-2.4-0.5-3-0.5c-0.9-0.5-1.7-1-2.2-1.3c1.7,0.4,3.4,0.8,5.2,1.2c-0.9-0.4-2.2-0.6-2.8-1.1c-0.6-0.4-0.5-1.2-0.6-1.8
					c0.2,0,0.4,0,0.7,0.1c0.1,0,0.3,0.1,0.6,0.3c1.4,1.1,2.9,2.1,4.3,3.2c-0.2-0.4-0.4-0.9-0.6-1.4c1.6,0.2,2.7,0.6,3.5,1.4
					c0.7,0.7,2.5,1.9,2.7,1.9c-1.1-1-2.2-1.9-3.3-2.9c1.7-0.1,3.4-0.3,5.2-0.4C91,74.2,89.2,74.1,87.5,74z M67,72.5
					c0.8,0.4,1.7,0.8,2.5,1.2c0.1,0.2,0.3,0.4,0.4,0.8c0.5,1.1,0.9,1.7,0.9,2.1c0,0.1,0.1,0.3,0.1,0.4c-0.1-0.1-0.1-0.1-0.2-0.2
					c-0.4-0.7-1.4-1.3-2.2-1.8c-0.9-0.5-1.8-0.9-1.1-1.7C67.5,73,67.1,72.7,67,72.5z M64.6,77.7c-1.6-0.3-1.8-0.9-1.8-1.7
					c0-0.2,0.3-0.4,0.7-0.5c-0.1-0.5-0.1-1-0.2-1.7C66,75.1,64.9,76.4,64.6,77.7z M65.3,79.8c0.2,0.8,0.3,1.6,0.5,2.4
					c0,0.1-1-2.5-1.2-3.3C64.7,78.9,65.2,79.9,65.3,79.8z M63.2,81.5c-0.1,0-0.3-1.9-0.3-1.9C63.2,78.6,63.2,81.5,63.2,81.5z
					 M64.2,73c0.8,0.6,1.6,1.1,2.3,1.7C66.4,74.8,62.8,72.7,64.2,73z M62.5,73.3c-0.1,0.5-0.3,1-0.5,1.5c-0.1,0.5-0.2,1-0.4,1.6
					c-0.7-1.5-0.8-2.1-0.2-3.3c0.1-0.1,0.2-0.3,0.2-0.5c0.1-0.2,0.3-0.5,0.5-0.8h0.1C62.4,72.5,62.5,72.9,62.5,73.3z M67.4,71.8
					c1.8,0,3,0.8,3.5,2C70.8,73.9,68.4,72.5,67.4,71.8z M69.4,71.5c0.5,0.1,1,0.2,1.4,0.3c0.1,0.3,0.3,0.6,0.7,0.9
					c0.5,0.3,1,0.7,1.3,1.1c0,0.3-0.1,0.6-0.2,0.9C71.6,73.6,70.5,72.5,69.4,71.5z M71.6,72c0.7,0.3,1.1,0.7,1.2,1.2
					c-0.2-0.2-0.5-0.5-0.8-0.7C71.8,72.3,71.7,72.1,71.6,72z M71.3,71.2c-0.2-0.1-0.5-0.1-0.8-0.2c1.1-0.1,2.2-0.1,3.4-0.1
					c1.1,0.5,1.9,1.3,2.4,2.2C74.5,72.4,72.9,71.8,71.3,71.2z M58.3,72.4c-0.2-0.1-0.8-0.4-1-0.5c0.2,0,0.7,0.1,0.9,0.1
					C58.2,72.1,58.3,72.3,58.3,72.4z M48.4,72.6c1.2-0.5,2.5-0.9,3.7-1.4c0.3,0,0.7,0.1,1,0.1c-0.3,0.2-0.6,0.3-0.8,0.5
					c-0.4,0.1-1,0.4-1.4,0.5c-0.3,0.1-1.6,0.3-2.1,0.4c-0.2,0-0.6,0.1-0.8,0.1C48.2,72.7,48.3,72.6,48.4,72.6z M53.7,73.3
					c-0.8,0.8-1.6,1.4-2.4,2.2C50.8,74,51.2,73.6,53.7,73.3z M45.1,73c0.4-0.1,0.9-0.2,1.4-0.3c-0.6,1.3-1.1,2-2.4,2.4
					c0.2-0.3,0.5-0.8,0.6-1.5C44.7,73.3,44.9,73.1,45.1,73z M42.7,75.2c0,0.1,0.1,0.1,0.1,0.2c-0.8,0.1-1.9,0.2-3.3,0.3
					c0.6-0.4,1-0.7,1.5-1s1-0.6,1.6-0.9C42.5,74.3,42.6,75,42.7,75.2z M36.1,75.1c0.8-0.9,2.4-1.6,4.3-1.9c-0.5,0.2-1,0.4-1.3,0.6
					c-0.4,0.4-0.3,0.4-0.7,0.6c-0.2,0.1-1,0.4-1.6,0.6C36.6,75.1,36.3,75.1,36.1,75.1z M38.1,75c0.4-0.1,0.8-0.2,0.9-0.4
					c0.5-0.5,0.3-0.6,0.8-0.9c0.3-0.1,1.1-0.4,1.7-0.6c0.3,0,0.6,0,0.8,0C42.3,73.9,40.2,74.7,38.1,75z M39.2,76.6
					c0.8-1,4-0.8,4-0.8C41.9,76.1,39.2,76.6,39.2,76.6z M43.4,75.2c-0.1,0-0.2,0-0.3,0.1c0-0.2-0.1-0.5-0.2-1c-0.1-0.3,0-0.5,0-0.7
					c0.1-0.1,0.3-0.1,0.4-0.2c0.3-0.1,0.6-0.2,0.9-0.3c0,0.2,0,0.7-0.2,1.2C43.9,74.7,43.6,75.1,43.4,75.2z M50.1,73.1
					c-1,0.6-2.4,1.1-3,1.8c-0.7,0.9-1.9,1.1-3.1,1.3l0,0l0.1-0.1c0,0,0.1-0.1,0.3-0.3c1.3-0.7,2.4-1.6,3.2-2.6c0,0,0,0,0.1-0.1
					c0.2-0.1,0.5-0.1,0.8-0.1c0.6,0,1.7-0.1,2.3-0.2C50.5,72.8,50.3,72.9,50.1,73.1z M50,78c0.1-0.2,0.2-0.4,0.4-0.6
					c0.1,0.2,0.1,0.5,0,0.8c-0.1,0.2-0.2,0.5-0.5,0.9C49.9,78.7,49.9,78.4,50,78z M50,80.9c0-0.3,0-0.6,0-0.9
					c0.2-0.3,0.3-0.5,0.5-0.8c0.4-0.5,0.5-0.7,0.5-1.3c0-0.4-0.2-0.6-0.3-0.8c0.3-0.3,0.6-0.6,0.9-0.9C52.9,78.1,52,80.1,50,80.9z
					 M52.1,75.8c1-0.9,2-1.9,3-2.9C55.4,74.4,53.1,74.9,52.1,75.8z M56.2,76.3c-0.6-0.6-0.7-1.2-0.1-2c0,0.4,0.1,1,0.1,1.3
					C56.2,75.9,56.2,76.1,56.2,76.3L56.2,76.3z M58.1,73.7c0,0.6,0,1-0.1,1.3c-0.3,0.3-0.7,0.6-1.2,0.9c-0.1-0.1-0.2-0.4-0.4-0.8
					c0.1-0.3,0.2-0.6,0.5-0.9c0.3-0.4,0.7-0.8,1.1-1.2C58.1,73.2,58.1,73.5,58.1,73.7z M58.2,81.7V78C58.8,78.6,58.3,81.7,58.2,81.7
					z M58.5,74.3c0-0.3-0.1-0.7-0.2-0.9c-0.1-0.2-0.1-0.4-0.2-0.5l0.1-0.1c0.1,0.1,0.2,0.1,0.3,0.2c0.1,0.2,0.2,0.5,0.3,0.7
					C58.7,73.9,58.7,74.1,58.5,74.3z M60.3,77c0.2,0-0.3,1.4-0.7,2.1C58.4,78.1,59.5,77.6,60.3,77z M59.8,80c-0.1,0,1.1-2.4,1.9-2.6
					L59.8,80z M65.1,85.8c-0.2,0.6-0.4,1.1-0.7,1.6c-0.2-1.2-0.6-2.3-2.3-2.9l0,0L61,83.9c-0.8-0.7-1-1.4-0.7-2.4
					c0.1,0,0.1,0.1,0.2,0.1c0.2,0.3,0.4,0.8,0.7,1c0.5,0.5,1.1,0.6,1.4,1.1c0.3,0.6,0.4-0.2,0-0.8c-0.4-0.7-1.4-1-1.5-2.1
					c-0.1-0.6-0.1-1-0.1-1.2c0.3-0.4,0.8-0.9,1.5-1.3c0,1.2-0.2,2.2,0,3.3c0.2,1,0.8,2,1.3,3c0,0,0.4-4.7,0.6-4.7
					c0.1,0.9,0.2,1.8,0.4,2.8c0,0.3,0.1,0.5,0.2,0.8c0,0.3-0.1,0.7-0.2,0.9c-0.3,0.4-1,0.7-1,0.7s0.8-0.1,1-0.5
					c0.1-0.2,0.2-0.4,0.3-0.6c0.1,0.3,0.1,0.5,0.2,0.8C65.3,85.1,65.2,85.4,65.1,85.8z M65.4,84.8v-2.2
					C65.7,83.2,66.9,83.8,65.4,84.8z M65.3,77.2c0.1-0.3,0.3-0.6,0.3-0.9c0.1-0.3,0.1-0.6,0.2-1c2.3,1.2,2.4,1.7,1.1,3.4
					C65.4,78.4,65,78,65.3,77.2z M71.4,84.2c-0.3,0.1-0.6,0.2-1,0.2c-0.3-0.2-0.7-0.3-1-0.5s-0.7-0.4-1-0.7c-0.2-0.3-0.5-0.7-0.7-1
					c0.3,0.1,0.7,0.2,1.2,0.2c1,0,1.9,0.3,2.6,0.4C71.7,83.3,71.6,83.8,71.4,84.2z M71.4,82.2c-0.2,0-0.6,0-1.1-0.1
					c-1-0.2-2.9-0.8-3.3-1.5c-0.2-0.3-0.3-0.5-0.4-0.7c0.1-0.1,0.4-0.2,0.8-0.2c0.2-0.6,0.4-1,0.6-1.5c0.6,1,0.1,2.1,1.6,2.9
					c-0.2-0.7-0.5-1.2-0.6-1.8c0-0.2,0.4-0.4,0.6-0.6c-0.3-0.5-0.6-1.1-0.9-1.6c-0.1-0.2,0-0.3,0-0.5c1.7,0.9,2.2,1.6,1.6,2.6
					C70.2,80.1,71,81.2,71.4,82.2z M71.6,77.5c0-0.3-0.1-0.8-0.3-1.3c-0.4-0.7-1-1.8-1.1-2c0-0.1,0-0.1-0.1-0.2
					c0.2,0.1,0.3,0.1,0.5,0.2c0.4,0.2,0.8,0.4,1,0.7c0.6,0.9,1,1.9,1.5,2.9C72.5,77.8,72,77.7,71.6,77.5z M75.6,78.1
					c-1.9-0.1-3.1-1.3-2.9-3.2c0.2,0.2,0.5,0.5,0.7,0.7c0.2,0.4,0.6,1,1,1.3c0.6,0.5,0.9,0.4,0.9,0.4s-0.5-0.4-0.9-1.1
					c0-0.1-0.1-0.2-0.1-0.3c-0.1-0.1-0.1-0.3-0.2-0.5C75.6,76.1,76,76.8,75.6,78.1z M78.9,79c-0.1,0-0.2,0-0.4,0
					c-0.2-0.1-0.6-0.2-1-0.3l-0.1-0.1c-0.1,0-0.3-0.1-0.4-0.1s-0.1-0.1-0.2-0.1c-0.4-0.2-0.6-0.5-0.6-1c-0.1-0.6-0.5-1.4-1.2-1.8
					c-1-0.6-1.5-1.1-1.5-1.8c0.3,0.2,0.9,0.6,1.5,1.1c0.7,0.6,1.3,1.4,2,1.8s1.5,0.3,1.5,0.3s-0.5-0.2-1.3-0.5
					c-0.7-0.3-1-0.9-1.6-1.7c-0.3-0.4-0.8-0.8-1.3-1.2l0,0c-0.1-0.1-0.6-0.5-0.7-0.7c0-0.1,0-0.1-0.1-0.1l0,0c0.5,0.3,1,0.6,1.5,1
					c1.2,0.8,2.2,1.7,3.4,2.6C79.7,77.1,79.4,78,78.9,79z M78.7,75.3c0.9,0.4,2.1,1,2.8,1.4l0.1,0.1c-2.8-0.6-4.3-1.8-5.6-3.1
					c0.2,0.1,0.4,0.2,0.7,0.3C77.1,74.4,77.8,74.9,78.7,75.3z M79.3,73.7c-1.3,0-2.2-0.2-2.7-1c-0.4-0.6-1.1-1.2-1.8-1.8
					c1,0,2.1,0,3.3,0C79.1,71.4,79.5,72.4,79.3,73.7z"/>
			</g>
			<path class="st1" d="M28.8,78.1l-0.2,0.1C28.7,78.2,28.7,78.1,28.8,78.1z"/>
			<path class="st6" d="M70.8,63.5c-4.1,1-8.9,5.3-10.5,6.8c1.6-1.3,6.4-4.8,14.8-6.2c5.1-0.8,12.9-0.4,12.9-0.4l0,0h2.2
				c0,0-0.4-0.5-0.8-1C89.4,62.6,82.4,60.5,70.8,63.5z"/>
			<path class="st6" d="M69,58.1c-0.2,0.2-0.6,0.5-1,0.9c2.9-2,7.2-4.1,13.4-5.5c0.7-0.2,1.4-0.3,2-0.4v-2.3l0,0v0.7
				C82,52,75.2,53.2,69,58.1z"/>
			<path class="st6" d="M66,62.1c2-1.4,4.6-3.1,7-4.5C70.6,58.8,68.2,60.3,66,62.1L66,62.1z"/>
			<path class="st4" d="M60.3,68.9c0,0,0-0.1,0.1-0.2l0,0c0.4-1.1,1-2.6,1.9-4.3l0,0c-0.9,1.7-1.5,3.2-1.9,4.3
				C60.4,68.8,60.4,68.9,60.3,68.9z"/>
			<path class="st6" d="M40.3,64.8C52.5,65,57,67.5,58.7,69.1l0,0c-0.6-0.6-5.4-5.2-14.8-5.7c-10.1-0.5-14.5,1.3-14.5,1.3l0.5,1.1
				C31.8,65.4,35.6,64.7,40.3,64.8z"/>
			<path class="st2" d="M46.5,60c0.1,0.1,0.3,0.1,0.4,0.2C46.7,60.1,46.6,60,46.5,60z"/>
			<path class="st2" d="M40.8,54.8c0.1,0,0.1,0,0.2,0C40.9,54.8,40.8,54.8,40.8,54.8z"/>
			<path class="st2" d="M46,59.8c0.1,0,0.2,0.1,0.4,0.1C46.2,59.9,46.1,59.9,46,59.8z"/>
			<path class="st2" d="M47.5,60.4c0.1,0,0.2,0.1,0.3,0.1C47.7,60.5,47.6,60.5,47.5,60.4z"/>
			<path class="st2" d="M45.4,59.6c0.2,0.1,0.3,0.1,0.5,0.2C45.7,59.7,45.5,59.7,45.4,59.6z"/>
			<path class="st2" d="M46.9,60.2c0.2,0.1,0.3,0.1,0.5,0.2C47.2,60.3,47.1,60.2,46.9,60.2z"/>
			<path class="st2" d="M40.5,54.7c0.1,0,0.1,0,0.2,0.1C40.6,54.7,40.5,54.7,40.5,54.7z"/>
			<path class="st2" d="M44.9,59.4c0.2,0,0.3,0.1,0.4,0.1C45.2,59.5,45,59.5,44.9,59.4z"/>
			<path class="st2" d="M43.7,59.1c0.2,0,0.3,0.1,0.5,0.1C44.1,59.2,43.9,59.1,43.7,59.1z"/>
			<path class="st2" d="M47.9,57.4c0.1,0.1,0.2,0.1,0.3,0.2C48.1,57.6,48,57.5,47.9,57.4z"/>
			<path class="st2" d="M51.8,62.7c0.1,0.1,0.2,0.1,0.3,0.2C52,62.8,51.9,62.8,51.8,62.7z"/>
			<path class="st2" d="M44.4,59.3c0.1,0,0.2,0.1,0.4,0.1C44.6,59.4,44.5,59.3,44.4,59.3z"/>
			<path class="st2" d="M41.1,54.8L41.1,54.8C41.1,54.9,41.1,54.9,41.1,54.8z"/>
			<path class="st2" d="M47.9,60.6c0.1,0.1,0.3,0.1,0.4,0.2C48.2,60.7,48.1,60.7,47.9,60.6z"/>
			<path class="st2" d="M43.2,59c0.2,0,0.3,0.1,0.5,0.1C43.5,59,43.4,59,43.2,59z"/>
			<path class="st2" d="M38.8,54.2c0.1,0,0.2,0,0.3,0.1C38.9,54.3,38.9,54.3,38.8,54.2z"/>
			<path class="st2" d="M39.6,54.4L39.6,54.4L39.6,54.4z"/>
			<path class="st2" d="M50.9,62.2c0.1,0.1,0.2,0.2,0.4,0.2C51.2,62.3,51.1,62.3,50.9,62.2z"/>
			<path class="st2" d="M50.2,61.7c0.1,0.1,0.2,0.1,0.3,0.2C50.4,61.9,50.3,61.8,50.2,61.7z"/>
			<path class="st2" d="M51.4,62.4c0.1,0.1,0.2,0.1,0.3,0.2C51.6,62.6,51.5,62.5,51.4,62.4z"/>
			<path class="st2" d="M38.3,54.1L38.3,54.1C38.3,54.1,38.3,54.1,38.3,54.1z"/>
			<path class="st2" d="M50.6,62c0.1,0.1,0.2,0.1,0.3,0.2C50.8,62.1,50.7,62,50.6,62z"/>
			<path class="st2" d="M48.9,61c0.1,0.1,0.2,0.1,0.3,0.2C49.1,61.2,49,61.1,48.9,61z"/>
			<path class="st2" d="M48.3,60.8c0.1,0.1,0.3,0.1,0.4,0.2C48.6,60.9,48.5,60.9,48.3,60.8z"/>
			<path class="st2" d="M39.3,54.4L39.3,54.4L39.3,54.4z"/>
			<path class="st2" d="M49.7,61.5c0.1,0.1,0.3,0.1,0.4,0.2C50,61.6,49.8,61.5,49.7,61.5z"/>
			<path class="st2" d="M49.3,61.3c0.1,0.1,0.2,0.1,0.4,0.2C49.5,61.4,49.4,61.3,49.3,61.3z"/>
			<path class="st2" d="M39,54.3L39,54.3C39.1,54.3,39.1,54.3,39,54.3z"/>
			<path class="st2" d="M43,55.5c0.2,0.1,0.3,0.1,0.5,0.2C43.4,55.6,43.2,55.5,43,55.5z"/>
			<path class="st2" d="M50.4,59c0.1,0.1,0.2,0.1,0.3,0.2C50.6,59.2,50.5,59.1,50.4,59z"/>
			<path class="st2" d="M53.5,61.8L53.5,61.8C53.6,61.9,53.5,61.9,53.5,61.8z"/>
			<path class="st2" d="M53.8,62.1L53.8,62.1C53.8,62.2,53.8,62.2,53.8,62.1z"/>
			<path class="st2" d="M42.7,58.8c0.1,0,0.3,0.1,0.4,0.1C42.9,58.9,42.8,58.9,42.7,58.8z"/>
			<path class="st2" d="M50.1,58.8c0.1,0.1,0.2,0.1,0.2,0.2C50.3,58.9,50.2,58.8,50.1,58.8z"/>
			<path class="st2" d="M54,62.4C54,62.4,54.1,62.5,54,62.4C54.1,62.5,54,62.4,54,62.4z"/>
			<path class="st2" d="M52.4,60.7c0.1,0.1,0.2,0.2,0.3,0.3C52.6,60.9,52.5,60.8,52.4,60.7z"/>
			<path class="st2" d="M51.2,59.6c0.1,0.1,0.1,0.1,0.2,0.2C51.3,59.7,51.2,59.6,51.2,59.6z"/>
			<path class="st2" d="M50.8,59.3c0.1,0.1,0.2,0.2,0.3,0.2C51,59.4,50.9,59.4,50.8,59.3z"/>
			<path class="st2" d="M51.8,60.2c0.1,0.1,0.1,0.1,0.2,0.2C52,60.3,51.9,60.2,51.8,60.2z"/>
			<path class="st2" d="M52.2,60.5c0.1,0.1,0.1,0.1,0.2,0.2C52.3,60.6,52.2,60.5,52.2,60.5z"/>
			<path class="st2" d="M52.8,61.1c0.1,0.1,0.1,0.1,0.1,0.2C52.9,61.2,52.9,61.2,52.8,61.1z"/>
			<path class="st2" d="M54.4,62.8C54.4,62.9,54.4,62.9,54.4,62.8C54.4,62.9,54.4,62.9,54.4,62.8z"/>
			<path class="st2" d="M53.1,61.4c0,0,0.1,0.1,0.1,0.2C53.2,61.5,53.2,61.5,53.1,61.4z"/>
			<path class="st2" d="M37.4,58.1c0.1,0,0.2,0,0.3,0C37.6,58.1,37.5,58.1,37.4,58.1z"/>
			<path class="st2" d="M48.6,57.8c0.1,0.1,0.2,0.1,0.3,0.2C48.9,58,48.8,57.9,48.6,57.8z"/>
			<path class="st2" d="M37.8,58.1c0.1,0,0.2,0,0.3,0C38,58.1,37.9,58.1,37.8,58.1z"/>
			<path class="st2" d="M42,58.7c0.2,0,0.4,0.1,0.5,0.1C42.4,58.7,42.2,58.7,42,58.7z"/>
			<path class="st2" d="M48.3,57.7c0.1,0,0.2,0.1,0.3,0.1C48.5,57.7,48.4,57.7,48.3,57.7z"/>
			<path class="st2" d="M36.8,58c0.1,0,0.2,0,0.3,0C37,58,36.9,58,36.8,58z"/>
			<path class="st2" d="M54.6,63.1C54.7,63.1,54.7,63.2,54.6,63.1C54.7,63.2,54.7,63.1,54.6,63.1z"/>
			<path class="st2" d="M55.2,63.9C55.2,63.9,55.3,63.9,55.2,63.9L55.2,63.9z"/>
			<path class="st2" d="M49.4,58.3c0.1,0.1,0.2,0.1,0.3,0.2C49.6,58.4,49.5,58.4,49.4,58.3z"/>
			<path class="st2" d="M49.7,58.5c0.1,0.1,0.2,0.1,0.3,0.2C49.9,58.6,49.8,58.6,49.7,58.5z"/>
			<path class="st2" d="M33.7,57.8c0.1,0,0.3,0,0.4,0C34,57.8,33.8,57.8,33.7,57.8z"/>
			<path class="st2" d="M34.4,57.9c0.1,0,0.2,0,0.3,0C34.6,57.9,34.5,57.9,34.4,57.9z"/>
			<path class="st2" d="M49,58.1c0.1,0.1,0.2,0.1,0.3,0.2C49.2,58.2,49.1,58.1,49,58.1z"/>
			<path class="st2" d="M36.5,53.8L36.5,53.8L36.5,53.8z"/>
			<path class="st2" d="M56.9,66.9L56.9,66.9C56.9,67,56.9,67,56.9,66.9z"/>
			<path class="st2" d="M56.6,66.6c0.1,0.1,0.1,0.1,0.2,0.2C56.7,66.8,56.7,66.7,56.6,66.6z"/>
			<path class="st2" d="M56.4,66.4L56.4,66.4C56.5,66.5,56.4,66.5,56.4,66.4z"/>
			<path class="st2" d="M57.3,67.3c0,0.1,0.1,0.1,0.1,0.2C57.4,67.5,57.3,67.4,57.3,67.3z"/>
			<path class="st2" d="M57.1,67.1L57.1,67.1C57.1,67.2,57.1,67.2,57.1,67.1z"/>
			<path class="st2" d="M35,53.6L35,53.6L35,53.6z"/>
			<path class="st2" d="M35.1,53.6c0.1,0,0.3,0,0.4,0C35.4,53.6,35.2,53.6,35.1,53.6z"/>
			<path class="st2" d="M35.9,53.7c0.1,0,0.2,0,0.3,0C36.1,53.7,36,53.7,35.9,53.7z"/>
			<path class="st2" d="M55.1,65.2c0.1,0.1,0.2,0.2,0.3,0.2C55.2,65.3,55.2,65.3,55.1,65.2z"/>
			<path class="st2" d="M55.4,65.5c0.1,0.1,0.1,0.1,0.2,0.2C55.5,65.6,55.4,65.5,55.4,65.5z"/>
			<path class="st2" d="M55.9,65.9c0.1,0.1,0.2,0.1,0.2,0.2C56,66.1,56,66,55.9,65.9z"/>
			<path class="st2" d="M55.6,65.7c0.1,0.1,0.1,0.1,0.2,0.2C55.8,65.8,55.7,65.8,55.6,65.7z"/>
			<path class="st2" d="M35.6,53.7c0.1,0,0.2,0,0.3,0C35.7,53.7,35.7,53.7,35.6,53.7z"/>
			<path class="st2" d="M34,53.5c0,0,0.1,0,0.2,0C34.1,53.5,34.1,53.5,34,53.5z"/>
			<path class="st2" d="M58.2,68.4C58.2,68.5,58.2,68.5,58.2,68.4C58.2,68.5,58.2,68.5,58.2,68.4z"/>
			<path class="st2" d="M34.8,53.6C34.8,53.6,34.9,53.6,34.8,53.6C34.9,53.6,34.8,53.6,34.8,53.6z"/>
			<path class="st2" d="M58.6,69L58.6,69L58.6,69z"/>
			<path class="st2" d="M57.7,67.8C57.7,67.8,57.7,67.9,57.7,67.8C57.7,67.9,57.7,67.8,57.7,67.8z"/>
			<path class="st2" d="M58.1,68.3L58.1,68.3L58.1,68.3z"/>
			<path class="st2" d="M57.5,67.6C57.5,67.6,57.5,67.7,57.5,67.6C57.5,67.7,57.5,67.7,57.5,67.6z"/>
			<path class="st2" d="M57.8,68C57.8,68,57.9,68,57.8,68C57.9,68,57.8,68,57.8,68z"/>
			<path class="st2" d="M34.5,53.5c0.1,0,0.2,0,0.3,0C34.7,53.6,34.6,53.5,34.5,53.5z"/>
			<path class="st2" d="M56.2,66.2c0.1,0.1,0.1,0.1,0.2,0.2C56.3,66.3,56.2,66.3,56.2,66.2z"/>
			<path class="st2" d="M53.5,63.9c0.1,0.1,0.2,0.1,0.3,0.2C53.7,64.1,53.6,64,53.5,63.9z"/>
			<path class="st2" d="M53.2,63.7c0.1,0.1,0.2,0.2,0.3,0.2C53.4,63.8,53.3,63.7,53.2,63.7z"/>
			<path class="st2" d="M54.2,64.4c0.1,0.1,0.2,0.2,0.3,0.2C54.4,64.6,54.3,64.5,54.2,64.4z"/>
			<path class="st2" d="M37.8,54L37.8,54C37.8,54,37.8,54,37.8,54z"/>
			<path class="st2" d="M53.9,64.2c0.1,0.1,0.2,0.1,0.2,0.2C54,64.3,54,64.3,53.9,64.2z"/>
			<path class="st2" d="M38,54.1C38,54.1,38.1,54.1,38,54.1C38.1,54.1,38,54.1,38,54.1z"/>
			<path class="st2" d="M52.1,62.9c0.1,0.1,0.2,0.2,0.3,0.2C52.3,63.1,52.2,63,52.1,62.9z"/>
			<path class="st2" d="M52.5,63.2c0.1,0.1,0.2,0.1,0.3,0.2C52.7,63.3,52.6,63.2,52.5,63.2z"/>
			<path class="st2" d="M52.9,63.4c0.1,0.1,0.2,0.1,0.3,0.2C53,63.6,53,63.5,52.9,63.4z"/>
			<path class="st2" d="M37.3,53.9C37.3,53.9,37.4,53.9,37.3,53.9C37.4,53.9,37.3,53.9,37.3,53.9z"/>
			<path class="st2" d="M54.8,65c0.1,0.1,0.1,0.1,0.2,0.2C54.9,65.1,54.9,65,54.8,65z"/>
			<path class="st2" d="M54.5,64.7c0.1,0.1,0.2,0.1,0.2,0.2C54.6,64.8,54.6,64.8,54.5,64.7z"/>
			<path class="st2" d="M51.5,59.9c0.1,0.1,0.2,0.2,0.3,0.2C51.6,60,51.6,59.9,51.5,59.9z"/>
			<path class="st6" d="M43.2,57.6c5.9,1.6,9.8,4.1,12.2,6.5c-0.1-0.1-0.1-0.2-0.2-0.2l0,0c-0.2-0.2-0.4-0.4-0.5-0.7
				c0,0,0,0-0.1-0.1s-0.1-0.1-0.2-0.2c0,0,0-0.1-0.1-0.1c-0.1-0.1-0.2-0.2-0.3-0.4c0,0,0,0-0.1-0.1s-0.1-0.1-0.2-0.2L53.6,62
				c0-0.1-0.1-0.1-0.2-0.2l-0.1-0.1c-0.1-0.1-0.2-0.2-0.2-0.2c0-0.1-0.1-0.1-0.1-0.2l-0.1-0.1c0-0.1-0.1-0.1-0.1-0.2l-0.1-0.1
				c-0.1-0.1-0.2-0.2-0.3-0.3l-0.1-0.1c-0.1-0.1-0.1-0.1-0.2-0.2L52,60.2c-0.1-0.1-0.1-0.1-0.2-0.2l-0.1-0.1
				c-0.1-0.1-0.2-0.2-0.3-0.2l-0.1-0.1c-0.1-0.1-0.1-0.1-0.2-0.2L51,59.3c-0.1-0.1-0.2-0.2-0.3-0.2l0,0c-0.1-0.1-0.2-0.1-0.3-0.2
				l-0.1-0.1c-0.1-0.1-0.2-0.1-0.2-0.2c0,0-0.1,0-0.1-0.1c-0.1-0.1-0.2-0.1-0.3-0.2c0,0,0,0-0.1,0c-0.1-0.1-0.2-0.1-0.3-0.2
				c0,0-0.1,0-0.1-0.1c-0.1-0.1-0.2-0.1-0.3-0.2c0,0,0,0-0.1,0c-0.1-0.1-0.2-0.1-0.3-0.2h-0.1c-0.1,0-0.2-0.1-0.3-0.1H48
				c-0.1-0.1-0.2-0.1-0.3-0.2l0,0c-1.6-0.7-3-1.3-4.3-1.8c-0.2-0.1-0.4-0.1-0.5-0.2c-0.6-0.2-1.3-0.4-1.8-0.6H41c-0.1,0-0.1,0-0.2,0
				c-0.1,0-0.1,0-0.2,0h-0.1c-0.1,0-0.1,0-0.2-0.1c-0.3-0.1-0.6-0.2-0.8-0.2c0,0,0,0-0.1,0s-0.2,0-0.2-0.1l0,0h-0.1H39l0,0
				c-0.1,0-0.2,0-0.3-0.1c-0.1,0-0.3-0.1-0.4-0.1h-0.1c-0.1,0-0.1,0-0.2,0c0,0,0,0-0.1,0h-0.1h-0.1c-0.1,0-0.3-0.1-0.4-0.1
				c0,0,0,0-0.1,0c-0.2,0-0.4-0.1-0.6-0.1l0,0h-0.1h-0.1c-0.1,0-0.2,0-0.3,0s-0.2,0-0.3,0c0,0,0,0-0.1,0s-0.2,0-0.3,0l0,0
				c-0.2,0-0.3,0-0.4,0h-0.1l0,0c0,0,0,0-0.1,0c0,0,0,0-0.1,0l0,0c-0.1,0-0.2,0-0.3,0s-0.2,0-0.3,0l0,0l0,0c-0.1,0-0.1,0-0.2,0l0,0
				c-0.2,0-0.3,0-0.3,0l0,0c0,0,1.5,1.8,2.4,3.1c0.1,0,0.3,0,0.4,0C38.9,56.9,41.5,57.2,43.2,57.6z"/>
			<path class="st4" d="M62.2,64.7L62.2,64.7L62.2,64.7z"/>
			<path class="st4" d="M50.4,59L50.4,59L50.4,59z"/>
			<path class="st4" d="M41.2,54.9c0.6,0.2,1.2,0.4,1.8,0.6C42.4,55.2,41.8,55,41.2,54.9z"/>
			<path class="st4" d="M37.9,54L37.9,54C38,54.1,37.9,54,37.9,54z"/>
			<path class="st4" d="M34.2,53.5c0.1,0,0.2,0,0.3,0C34.4,53.5,34.3,53.5,34.2,53.5z"/>
			<path class="st4" d="M40.6,54.7L40.6,54.7C40.7,54.7,40.7,54.7,40.6,54.7z"/>
			<path class="st4" d="M51.4,59.8L51.4,59.8C51.4,59.8,51.4,59.8,51.4,59.8z"/>
			<path class="st4" d="M48.2,57.6C48.2,57.6,48.3,57.6,48.2,57.6C48.3,57.6,48.2,57.6,48.2,57.6z"/>
			<path class="st4" d="M50.7,59.2C50.7,59.2,50.7,59.3,50.7,59.2C50.7,59.3,50.7,59.3,50.7,59.2z"/>
			<path class="st4" d="M50,58.7C50.1,58.7,50.1,58.8,50,58.7C50.1,58.8,50.1,58.7,50,58.7z"/>
			<path class="st4" d="M38.4,54.1c0.1,0,0.3,0.1,0.4,0.1C38.6,54.2,38.5,54.2,38.4,54.1z"/>
			<path class="st4" d="M40.9,54.8c0.1,0,0.1,0,0.2,0C41,54.8,41,54.8,40.9,54.8z"/>
			<path class="st4" d="M36.7,53.8c0.2,0,0.4,0.1,0.6,0.1C37.1,53.9,36.9,53.8,36.7,53.8z"/>
			<path class="st4" d="M48.6,57.8L48.6,57.8L48.6,57.8z"/>
			<path class="st4" d="M35,53.6L35,53.6L35,53.6z"/>
			<path class="st4" d="M35.9,53.7L35.9,53.7L35.9,53.7z"/>
			<path class="st4" d="M39.4,54.4c0.1,0,0.2,0,0.2,0.1C39.5,54.4,39.4,54.4,39.4,54.4z"/>
			<path class="st4" d="M38.1,54.1c0.1,0,0.1,0,0.2,0C38.2,54.1,38.1,54.1,38.1,54.1z"/>
			<path class="st4" d="M39.6,54.5c0.3,0.1,0.5,0.1,0.8,0.2C40.2,54.6,39.9,54.5,39.6,54.5z"/>
			<path class="st4" d="M35.5,53.6L35.5,53.6C35.5,53.7,35.5,53.6,35.5,53.6z"/>
			<path class="st4" d="M49,58C49,58,49,58.1,49,58C49,58.1,49,58,49,58z"/>
			<path class="st4" d="M49.6,58.5C49.7,58.5,49.7,58.5,49.6,58.5C49.7,58.5,49.7,58.5,49.6,58.5z"/>
			<path class="st4" d="M39.2,54.3L39.2,54.3C39.3,54.4,39.2,54.3,39.2,54.3z"/>
			<path class="st4" d="M37.4,53.9c0.1,0,0.3,0.1,0.4,0.1C37.6,54,37.5,54,37.4,53.9z"/>
			<path class="st4" d="M36.5,53.8L36.5,53.8C36.6,53.8,36.6,53.8,36.5,53.8z"/>
			<path class="st4" d="M36.2,53.7c0.1,0,0.2,0,0.3,0C36.4,53.8,36.3,53.7,36.2,53.7z"/>
			<path class="st4" d="M34.9,53.6L34.9,53.6L34.9,53.6z"/>
			<path class="st4" d="M49.3,58.2C49.3,58.3,49.4,58.3,49.3,58.2C49.4,58.3,49.3,58.3,49.3,58.2z"/>
			<path class="st4" d="M51.1,59.5L51.1,59.5C51.1,59.6,51.1,59.5,51.1,59.5z"/>
			<path class="st4" d="M54.5,62.9c0.1,0.1,0.1,0.1,0.2,0.2C54.6,63.1,54.5,63,54.5,62.9z"/>
			<path class="st4" d="M54.7,63.2c0.2,0.2,0.4,0.4,0.5,0.7C55.1,63.6,54.9,63.4,54.7,63.2z"/>
			<path class="st4" d="M54.1,62.5c0.1,0.1,0.2,0.2,0.3,0.4C54.3,62.7,54.2,62.6,54.1,62.5z"/>
			<path class="st4" d="M53.9,62.2c0.1,0.1,0.1,0.1,0.2,0.2C54,62.3,53.9,62.3,53.9,62.2z"/>
			<path class="st4" d="M47.9,57.4L47.9,57.4c-1.6-0.7-3-1.3-4.3-1.8C44.9,56.1,46.3,56.7,47.9,57.4L47.9,57.4z"/>
			<path class="st4" d="M53,61.3L53,61.3C53.1,61.4,53,61.3,53,61.3z"/>
			<path class="st4" d="M53.6,61.9c0.1,0.1,0.1,0.1,0.2,0.2C53.7,62.1,53.7,62,53.6,61.9z"/>
			<path class="st4" d="M52.7,61L52.7,61L52.7,61z"/>
			<path class="st4" d="M52,60.4L52,60.4C52.1,60.4,52.1,60.4,52,60.4z"/>
			<path class="st4" d="M52.3,60.7L52.3,60.7C52.4,60.7,52.4,60.7,52.3,60.7z"/>
			<path class="st4" d="M51.7,60.1C51.8,60.1,51.8,60.2,51.7,60.1C51.8,60.2,51.8,60.1,51.7,60.1z"/>
			<path class="st4" d="M53.3,61.6c0.1,0.1,0.2,0.2,0.2,0.2C53.4,61.7,53.3,61.7,53.3,61.6z"/>
			<path class="st4" d="M55.3,65.4L55.3,65.4L55.3,65.4z"/>
			<path class="st4" d="M55,65.1C55,65.1,55,65.2,55,65.1C55,65.2,55,65.2,55,65.1z"/>
			<path class="st4" d="M56.1,66.1C56.1,66.2,56.1,66.2,56.1,66.1C56.1,66.2,56.1,66.2,56.1,66.1z"/>
			<path class="st4" d="M54.7,64.9C54.7,64.9,54.8,64.9,54.7,64.9C54.8,64.9,54.7,64.9,54.7,64.9z"/>
			<path class="st4" d="M55.8,65.9C55.8,65.9,55.9,65.9,55.8,65.9C55.9,65.9,55.8,65.9,55.8,65.9z"/>
			<path class="st4" d="M55.6,65.6C55.6,65.7,55.6,65.7,55.6,65.6C55.6,65.7,55.6,65.7,55.6,65.6z"/>
			<path class="st4" d="M53.1,63.6C53.1,63.6,53.2,63.7,53.1,63.6C53.2,63.7,53.1,63.6,53.1,63.6z"/>
			<path class="st4" d="M54.4,64.7C54.5,64.7,54.5,64.7,54.4,64.7C54.5,64.7,54.5,64.7,54.4,64.7z"/>
			<path class="st4" d="M53.5,63.9L53.5,63.9L53.5,63.9z"/>
			<path class="st4" d="M52.8,63.4L52.8,63.4L52.8,63.4z"/>
			<path class="st4" d="M53.8,64.1C53.8,64.2,53.9,64.2,53.8,64.1C53.9,64.2,53.8,64.2,53.8,64.1z"/>
			<path class="st4" d="M54.1,64.4L54.1,64.4L54.1,64.4z"/>
			<path class="st4" d="M58.1,68.3L58.1,68.3C58.2,68.4,58.1,68.4,58.1,68.3z"/>
			<path class="st4" d="M57.9,68.1c0.1,0.1,0.1,0.1,0.2,0.2C58,68.2,57.9,68.1,57.9,68.1z"/>
			<path class="st4" d="M58.2,68.5L58.2,68.5C58.3,68.6,58.3,68.5,58.2,68.5z"/>
			<path class="st4" d="M52.5,63.1C52.5,63.2,52.5,63.2,52.5,63.1C52.5,63.2,52.5,63.2,52.5,63.1z"/>
			<path class="st4" d="M58.3,68.6c0.1,0.1,0.2,0.3,0.3,0.4C58.5,68.9,58.4,68.8,58.3,68.6z"/>
			<path class="st4" d="M42,58.7L42,58.7c-1-0.2-2.4-0.4-3.9-0.5C39.6,58.3,41,58.4,42,58.7L42,58.7z"/>
			<path class="st2" d="M62.6,67.2L62.6,67.2L62.6,67.2z"/>
			<path class="st5" d="M73,57.6c-2.4,1.2-4.8,2.7-6.9,4.4c0,0,0,0-0.1,0.1c-1.1,0.9-2.2,2.2-3.1,3.6c-1,1.4-1.9,2.9-2.5,3.9
				L60,70.3c0.4-0.6,1.2-1.8,2.6-3.1c0,0,0,0,0.1-0.1c1.4-1.3,3.2-2.7,5.8-3.9c2.3-1.4,4.8-2.7,6.6-3.6c2.9-1.3,6.9-2.4,10.4-2.8V53
				l0,0v0.7C81,54.5,76.8,55.8,73,57.6z"/>
			<path class="st4" d="M57.4,67.5L57.4,67.5L57.4,67.5z"/>
			<path class="st4" d="M57.7,67.9C57.8,67.9,57.8,68,57.7,67.9C57.8,68,57.8,67.9,57.7,67.9z"/>
			<path class="st4" d="M57.2,67.3L57.2,67.3L57.2,67.3z"/>
			<path class="st4" d="M56.8,66.8C56.8,66.9,56.8,66.9,56.8,66.8C56.8,66.9,56.8,66.9,56.8,66.8z"/>
			<path class="st4" d="M57,67.1L57,67.1L57,67.1z"/>
			<path class="st4" d="M56.5,66.6C56.6,66.6,56.6,66.6,56.5,66.6C56.6,66.6,56.6,66.6,56.5,66.6z"/>
			<path class="st4" d="M57.6,67.7C57.6,67.8,57.6,67.8,57.6,67.7C57.6,67.8,57.6,67.8,57.6,67.7z"/>
			<path class="st4" d="M56.3,66.4C56.3,66.4,56.4,66.4,56.3,66.4C56.4,66.4,56.3,66.4,56.3,66.4z"/>
			<path class="st4" d="M44.7,59.4L44.7,59.4C44.8,59.4,44.8,59.4,44.7,59.4z"/>
			<path class="st4" d="M43.1,58.9c0.1,0,0.1,0,0.2,0C43.2,58.9,43.1,58.9,43.1,58.9z"/>
			<path class="st4" d="M43.7,59.1L43.7,59.1L43.7,59.1z"/>
			<path class="st4" d="M44.2,59.2L44.2,59.2C44.3,59.3,44.3,59.3,44.2,59.2z"/>
			<path class="st4" d="M45.3,59.6C45.3,59.6,45.4,59.6,45.3,59.6C45.4,59.6,45.4,59.6,45.3,59.6z"/>
			<path class="st4" d="M46.3,59.9C46.3,59.9,46.4,59.9,46.3,59.9C46.4,60,46.4,60,46.3,59.9z"/>
			<path class="st4" d="M45.8,59.8L45.8,59.8C45.9,59.8,45.9,59.8,45.8,59.8z"/>
			<path class="st4" d="M34.1,57.8c0.1,0,0.2,0,0.3,0C34.3,57.8,34.2,57.8,34.1,57.8z"/>
			<path class="st4" d="M32.5,57.8L32.5,57.8c0,0,0.5,0,1.2,0.1C33,57.8,32.5,57.8,32.5,57.8z"/>
			<path class="st4" d="M34.7,57.9c0.6,0,1.3,0.1,2.1,0.1C36.1,58,35.3,57.9,34.7,57.9z"/>
			<path class="st4" d="M52.1,62.9L52.1,62.9L52.1,62.9z"/>
			<path class="st4" d="M37.7,58.1L37.7,58.1L37.7,58.1z"/>
			<path class="st4" d="M42.5,58.8c0.1,0,0.1,0,0.2,0C42.6,58.8,42.6,58.8,42.5,58.8z"/>
			<path class="st4" d="M37.1,58c0.1,0,0.2,0,0.3,0C37.3,58.1,37.2,58.1,37.1,58z"/>
			<path class="st4" d="M49.7,61.5L49.7,61.5L49.7,61.5z"/>
			<path class="st4" d="M50.9,62.2L50.9,62.2L50.9,62.2z"/>
			<path class="st4" d="M46.9,60.2L46.9,60.2L46.9,60.2z"/>
			<path class="st4" d="M50.5,61.9L50.5,61.9L50.5,61.9z"/>
			<path class="st4" d="M51.7,62.6C51.7,62.7,51.7,62.7,51.7,62.6C51.7,62.7,51.7,62.7,51.7,62.6z"/>
			<path class="st4" d="M51.3,62.4C51.3,62.4,51.4,62.4,51.3,62.4C51.4,62.4,51.3,62.4,51.3,62.4z"/>
			<path class="st4" d="M50.1,61.7L50.1,61.7L50.1,61.7z"/>
			<path class="st4" d="M47.4,60.4L47.4,60.4C47.4,60.4,47.4,60.4,47.4,60.4z"/>
			<path class="st4" d="M47.8,60.6C47.8,60.6,47.9,60.6,47.8,60.6C47.9,60.6,47.8,60.6,47.8,60.6z"/>
			<path class="st4" d="M48.3,60.8L48.3,60.8L48.3,60.8z"/>
			<path class="st4" d="M49.2,61.2C49.2,61.2,49.3,61.2,49.2,61.2C49.3,61.2,49.2,61.2,49.2,61.2z"/>
			<path class="st4" d="M48.8,61L48.8,61L48.8,61z"/>
			<path class="st4" d="M60.2,69.2l0.1-0.2l0,0C60.3,69.1,60.2,69.2,60.2,69.2z"/>
			<g>
				<path class="st2" d="M56.5,32c0.1,0,0.2-0.1,0.3-0.1c-0.6-0.3-1.2-0.2-1.5,0.3c0.5,0,0.9-0.1,1.4-0.1C56.6,32.1,56.6,32,56.5,32
					z"/>
				<path class="st2" d="M56.9,31.8c0.1-0.1,0.1-0.2,0.1-0.3c0.1,0,0.2,0.1,0.3,0s-0.1-0.2-0.1-0.2c-0.4,0.3-0.3-0.2-0.8-0.1
					c-0.2,0-0.2,0.3-0.2,0.3C56.4,31.7,56.7,31.7,56.9,31.8z"/>
				<path class="st2" d="M57.8,30.9L57.8,30.9c-0.2,0-0.4,0-0.6,0.1v0.1C57.6,31.2,57.7,30.9,57.8,30.9z"/>
				<path class="st2" d="M53.1,32.2c-0.1,0-0.1,0.2-0.1,0.3h0.1c0.1,0,0.2-0.1,0.2-0.1C53.4,32.2,53.2,32.1,53.1,32.2z"/>
				<path class="st2" d="M54.7,37.8c0.1,0.1,0.1,0.1,0.2,0.1c0-0.1,0-0.2,0.1-0.2c0.4-0.1,0.6-0.3,0.9-0.4c0.1,0,0.4,0,0.4,0
					c0.1,0.2,0.3,0.1,0.4,0.1c0.1,0,0.3-0.1,0.4-0.1c-0.3-0.3-0.1-0.5,0.1-0.8c-0.4,0.1-0.7,0-0.8,0.3c-0.2,0-0.3-0.1-0.5-0.1
					s-0.2,0.1-0.3,0.2c0,0.2-0.2,0.3-0.5,0.3c-0.1,0-0.3,0-0.4,0c-0.2,0.2-0.3,0.3-0.5,0.4c-0.1,0.1,0,0.1-0.1,0.2h0.1
					C54.6,37.9,54.6,37.8,54.7,37.8z"/>
				<path class="st2" d="M59.2,30.4c0.1,0.1,0.2,0.1,0.3,0.1s0.2,0.1,0.2,0.1c0.1-0.1,0.2-0.2,0.3-0.3c-0.2-0.2-0.4-0.7-0.7-0.6
					C59.1,29.8,59.3,30.2,59.2,30.4z"/>
				<path class="st2" d="M61.3,26.8c-0.4-0.1-0.4-0.1-0.2,0.5C61.2,27,61.2,26.9,61.3,26.8z"/>
				<path class="st2" d="M60.4,27.1c0.1-0.1,0.1-0.2,0.2-0.3c0.3-0.2,0.3-0.3-0.2-0.4c0.1,0.1,0.1,0.2,0.2,0.2
					C60.2,26.9,60.2,26.9,60.4,27.1z"/>
				<path class="st2" d="M58.9,25.8c-0.2,0-0.4,0-0.6-0.1c0,0.1-0.1,0.2-0.1,0.3C58.7,26,58.7,26,58.9,25.8z"/>
				<path class="st2" d="M53.2,31.1c-0.1-0.1-0.2-0.2-0.4-0.3c-0.1,0.1-0.1,0.3-0.2,0.4c0,0.1-0.1,0.2-0.2,0.3
					c0.2,0.1,0.4,0.1,0.6,0.2C53.2,31.4,53.2,31.3,53.2,31.1z"/>
				<path class="st2" d="M66.8,38.5L66.8,38.5c0.1-0.2,0-0.6,0-0.6c-0.2,0-0.5,0.3-0.6,0.4l0.1,0.5C66.4,38.9,66.7,38.5,66.8,38.5z"
					/>
				<path class="st2" d="M62.4,41.2L62.4,41.2c-0.2,0-0.3,0-0.4,0.1c-0.2,0.3-0.6,0.3-1,0.1c0.2-0.3,0.2-0.4-0.1-0.6
					c0,0.2,0,0.5,0,0.8c0,0.1,0.2,0.2,0.2,0.2c0.5-0.1,1-0.1,1.5-0.2c0,0,0,0,0-0.1c-0.2-0.1-0.3-0.2-0.5-0.3
					C62.3,41.3,62.3,41.3,62.4,41.2z"/>
				<path class="st2" d="M61.4,35.4c0.1,0,0.2-0.1,0.3-0.1c0.2-0.1,0.3-0.3,0-0.3c-0.4-0.1-0.8-0.4-1.1-0.4s-0.2,0.3-0.2,0.3
					c0,0.2,0,0.4,0,0.6h0.1c0.1-0.1,0.2-0.1,0.3-0.2c0.1-0.2,0.2-0.2,0.4,0C61.2,35.3,61.3,35.4,61.4,35.4z"/>
				<path class="st2" d="M59.2,31.1c0.1,0.2-0.3,0.4,0.2,0.5C59.6,31.1,59.6,31.1,59.2,31.1z"/>
				<path class="st2" d="M66.5,40.9c-0.5,0-0.7-0.1-0.5-0.4c0,0,0-0.1,0-0.2c-0.3,0.2-0.6,0.3-0.8,0.4c0,0.1,0.1,0.3,0.1,0.4
					c0.7,0,1.3,0.3,2,0.2c0-0.2,0-0.3-0.1-0.5C66.9,40.8,66.7,40.9,66.5,40.9z"/>
				<path class="st2" d="M57.3,35.4c0,0,0,0.5,0.2,0.6c0.4,0.1,0.9-0.2,0.9-0.6C58.5,34.8,57.3,35.4,57.3,35.4z"/>
				<path class="st2" d="M58.3,40.5c-0.2-0.1-0.4-0.1-0.6-0.2c-0.2-0.1-0.3-0.2-0.4,0c-0.2,0.3-0.4,0.2-0.6,0.1
					c-0.3,0-0.6,0.1-0.8,0.1c0,0.2-0.2,0.4-0.6,0.3c-0.1,0-0.1,0-0.2,0c-0.2,0.2-0.5,0.1-0.7,0c-0.1,0.1-0.1,0.1-0.2,0.2
					c0,0,0,0,0,0.1c0.3,0,0.6-0.1,0.9-0.1c0.1,0,0.2,0,0.4-0.1c1.7-0.2,2.3,0.1,2.5,0.2c0.2,0.1,0.3,0.1,0.3-0.1
					C58.3,40.8,58.3,40.6,58.3,40.5z"/>
				<path class="st2" d="M57.4,41.5c-0.3-0.2-0.5-0.3-1-0.3c-0.3,0-0.5-0.1-0.8-0.1c-0.1,0-0.2,0-0.3,0c-0.5,0-1,0-1.5,0.1
					c-0.3,0-0.5,0.1-0.8,0.2l0,0l0.1,0.1c-0.3,0.1-0.6,0.2-0.9,0.3c-0.1,0.1-0.2,0.1-0.3,0.2c-0.1,0.1-0.3,0.2-0.4,0.2
					c-0.5,0-0.5,0.4-0.8,0.5c0,0.3-0.5,0.4-0.7,0.6c-0.1,0.1-0.3,0-0.5,0.1c-0.1,0.1-0.1,0.3,0.1,0.3h0.1c0.3-0.2,0.6-0.2,0.9,0
					c0.2,0.2,0.4,0.1,0.6-0.1c0.1-0.2,0.2-0.2,0.4,0c0.1,0,0.1,0.1,0.1,0.2c0.1,0.1,0.2,0.1,0.3,0.2c0.1-0.1,0.2-0.2,0.2-0.3
					s0-0.2,0-0.3c-0.2-0.2-0.1-0.4,0.1-0.5c0-0.1-0.1-0.2-0.1-0.2c0-0.1,0.1-0.2,0.1-0.2c0.3-0.1,0.6-0.1,0.9-0.2
					c0.1-0.3,0.4-0.5,0.8-0.3c0.3,0.1,0.5,0.1,0.8,0.1s0.6-0.1,0.8-0.1c0.1,0,0.2,0,0.2,0.1c0.1,0.1,0.2,0.3,0.3,0.4
					c0.1,0,0.2,0,0.3,0s0.1-0.1,0.2-0.2c0.1,0,0.1,0.1,0.2,0.1c0.2,0.1,0.3,0.2,0.5,0c0.1-0.1,0.4-0.2,0.7-0.3
					c-0.1-0.1-0.1-0.2-0.2-0.2C57.6,41.7,57.5,41.6,57.4,41.5z"/>
				<path class="st2" d="M59.1,30.1c-0.2-0.4-0.5-0.4-0.3-0.7v-0.1c0-0.1,0-0.2,0-0.3h0.1c-0.1-0.1-0.3-0.2-0.4-0.3
					c0.1,0.3,0.3,0.5,0.2,0.7c-0.3,0.5-1.1,0.2-1.7,0.3c0.1,0.1,0.3,0.2,0.5,0.2c0.5,0.2,0.6,0.3,0.5,0.6c-0.1,0.2,0.6,0.7,0.9,0.7
					H59c0.3-0.5-0.3-0.7-0.5-1.1c0.1,0.1,0.3,0.2,0.4,0.3C59.2,30.5,59.2,30.3,59.1,30.1z"/>
				<path class="st2" d="M57.2,45.5C57.1,45.5,57.1,45.5,57.2,45.5c0.1,0.2,0.3,0.3,0.5,0.4c0-0.1,0-1.5,0-1.6
					C57.5,44.3,57.3,45.5,57.2,45.5z"/>
				<path class="st1" d="M75.4,44.3C75.5,44.3,75.5,44.2,75.4,44.3c-0.1-0.4,0-0.6-0.2-0.9c-0.2-0.4-0.3-0.8-0.5-1.2
					c-0.1-0.2-0.2-0.3-0.5-0.3c-0.2,0-0.5-0.1-0.6-0.1c0.1-0.3,0.2-0.5,0.2-0.7s-0.2-0.3-0.6-0.3c-0.2,0-0.4,0.1-0.6,0.1
					c0-0.1,0-0.2-0.1-0.3s-0.2-0.1-0.3-0.2c0.1-0.1,0.2-0.2,0.2-0.4s-0.1-0.3-0.3-0.3l0,0c0-0.3-0.3-0.3-0.6-0.3
					c0.1-0.1,0.2-0.3,0.3-0.3c-0.1-0.3-0.8-0.3-0.7-0.7l0,0c-0.1-0.1-0.2-0.2-0.4-0.3c-0.1,0-0.2,0-0.3,0c0-0.1-0.1-0.2-0.1-0.3
					c-0.2,0-0.3,0.1-0.4,0.1s-0.3,0-0.3,0c-0.1-0.2-0.3-0.2-0.5-0.2c0.3-0.1,0.5-0.2,0.8-0.3c0-0.1-0.1-0.1-0.1-0.2
					c0.4,0,0.1-0.2,0.2-0.3c0.1,0,0.2-0.1,0.2-0.1c0-0.1,0.1-0.3,0-0.4c-0.2-0.1-0.5-0.2-0.7-0.3c0.1,0,0.1-0.1,0.2-0.1
					c0-0.1,0-0.2-0.1-0.3c0-0.1,0-0.2-0.1-0.2c-0.2-0.2-0.3-0.3-0.1-0.5v-0.1c0-0.1-0.1-0.1,0-0.2c0.1-0.1,0-0.2-0.1-0.3
					s0-0.2,0.1-0.2c0.3,0,0.2-0.2,0.1-0.2c-0.3-0.1-0.3-0.4-0.7-0.4l-0.1-0.1c0-0.1-0.2-0.2-0.3-0.2c-0.1,0-0.4-0.2-1.3,0
					c0-0.2,0-0.4-0.3-0.4c0-0.2,0.2-0.3,0.1-0.4c-0.1-0.2-0.3-0.3-0.4-0.5c0,0-0.1-0.1-0.2-0.1c0.1,0,0.1,0,0.2-0.1l0.1-0.1
					c-0.1-0.1-0.3-0.2-0.4-0.4c-0.1-0.1-0.3-0.2-0.5-0.2c-0.1-0.1-0.2-0.2-0.4-0.3c0,0-0.1,0-0.2,0c0-0.1,0.1-0.2,0.1-0.4
					c-0.3,0-0.2-0.2-0.2-0.3c0.2-0.1,0.3-0.2,0.5-0.3v-0.1c-0.1-0.2-0.3-0.4-0.4-0.7v-0.1c0.2-0.4-0.8-0.9-0.9-1c0,0-0.2-0.1-0.2,0
					c-0.3,0.2-0.6,0.1-0.8,0.1c-0.2-0.1-0.3-0.2-0.5-0.3c0,0,0-0.1,0.1-0.1c-0.1,0-0.2,0-0.2-0.1s0-0.2,0-0.3c0,0,0.2,0,0.3,0
					c0.2,0,0.3,0.1,0.5,0.2c0.1-0.1,0.2-0.2,0.2-0.3c0-0.1,0-0.2,0.1-0.3c0.4-0.2,0.1-0.3-0.1-0.4c0,0,0,0-0.1-0.1
					c0.1-0.1,0.1-0.2,0.1-0.3l-0.3-0.1C63.2,26,63,26,62.9,25.8c0,0-0.1,0-0.2-0.1c0.1,0.1,0.1,0.2,0.1,0.3c-0.1,0-0.2,0-0.3,0
					c-0.2,0-0.1,0.3-0.4,0.3c0-0.1,0.1-0.1,0.1-0.2c-0.4-0.2-0.6-0.1-0.8,0.1c-0.2-0.2-0.7-0.3-0.7-0.6l0,0l0,0
					c0-0.1,0.1-0.2,0.1-0.2c-0.1-0.1-0.2-0.2-0.4-0.3c0,0-0.2,0.1-0.3,0.2c-0.1,0-0.2,0.1-0.3,0.1c0,0,0,0,0-0.1
					c0.1,0,0.1,0,0.2-0.1l0.1-0.1c-0.1,0-0.2-0.1-0.2-0.1c-0.1,0-0.3,0-0.4,0c0-0.1,0.1-0.2,0.1-0.3l0,0c-0.3-0.1-0.9,0.2-1,0.4
					c0.1,0.1,0.2,0.2,0.3,0.3c-0.1,0-0.4,0.1-0.4,0.2c-0.2,0.1-0.4,0.1-0.6,0.2c-0.1,0-0.1,0.2,0,0.2s0.1,0,0.1,0.1
					c0,0,0,0.1-0.1,0.1c-0.2,0-0.4-0.1-0.5-0.1c-0.2,0-0.5-0.1-0.6-0.1c-0.2,0.1-0.4,0.3-0.6,0.5c-0.2-0.2-0.6,0-0.8-0.3
					c0,0-0.2,0-0.3,0s-0.1,0.1-0.2,0.2c-0.1,0.1-0.2,0.1-0.4,0c-0.2-0.2-0.5-0.1-0.6,0.1c0,0.1,0,0.2,0,0.2c0.1,0.2,0.1,0.3-0.2,0.4
					c-0.1,0.1-0.4,0.2,0,0.3c0,0,0.1,0,0.1,0.1c-0.1,0.2,0.2,0.2,0.3,0.2s0.1,0.3,0.1,0.3c-0.3-0.2-0.3,0-0.4,0.2
					c-0.1,0.2,0,0.4,0.2,0.5c0.1,0,0.1,0.1,0,0.1c-0.1,0.1-0.3,0.2-0.4,0.4c-0.1,0.1-0.1,0.1-0.2,0.1c-0.2,0-0.9-0.1-1.2,0
					c-0.1,0-0.2,0.1-0.2,0.1c-0.3,0.2-0.3,0.3,0,0.5c0.3,0.1,0.2,0.2,0.1,0.4C52,30.2,52,30.1,52,30.1C51.9,30,51.8,30,51.7,30
					c-0.1,0.1-0.1,0.1-0.2,0.2c0,0.1,0.1,0.1,0.1,0.2s-0.1,0.2-0.1,0.3c-0.1,0-0.3-0.1-0.4-0.1c-0.1,0-0.4,0.1-0.4,0.2
					c0.1,0.2,0.3,0.4,0.4,0.6c0.1,0.1,0.3,0.2,0.4,0.1c0.2,0,0.4-0.1,0.6-0.2c0,0.1,0,0.1,0,0.1c0,0.1-0.1,0.2-0.1,0.2
					c0.1,0,0.2,0.1,0.3,0.1s0.2-0.1,0.3-0.1c-0.2,0.2-0.2,0.3,0,0.5c0.1,0.1,0.1,0.2,0.1,0.3s0,0.3,0,0.4c-0.4-0.1-0.2,0.2-0.4,0.4
					c0-0.1,0-0.1-0.1-0.2c-0.2,0.1-0.3,0.2-0.4,0.3c-0.1,0.1-0.2,0.2-0.3,0.3c-0.2,0-0.4,0-0.4,0.2c0,0-0.1,0-0.1,0.1
					c-0.1,0.1-0.1,0.2-0.2,0.2c-0.1,0.1-0.5,0.3-0.7,0.4c-0.4,0.1-0.4,0.3-0.3,0.5c-0.1,0-0.1-0.1-0.2-0.2c-0.1-0.1-0.1-0.1-0.2-0.2
					c-0.1,0-0.2,0.1-0.2,0.1c-0.1,0-0.1,0.1-0.2,0.1c-0.5,0.1-0.5,0.1-0.3,0.4c-0.3,0.1-0.3,0.1-0.6,0.2c-0.2,0.1-0.3,0.2-0.2,0.3
					c0,0,0,0.1-0.1,0.1c-0.2,0.2-0.1,0.4,0.3,0.5c0.1,0,0.3,0,0.4,0c0,0,0.3-0.2,0.6-0.3c0-0.1,0-0.2-0.1-0.2
					c-0.4-0.3,0-0.2,0.1-0.1c0.1,0.1,0.2,0.2,0.2,0.2c-0.1,0.2,0.1,0.3,0.3,0.3c0.1,0,0.3,0,0.4,0.1c0-0.1,0-0.2,0-0.2
					c0-0.2,0.6-0.2,0.7-0.2c0.1,0,0.1,0,0.2-0.1c0,0.1,0.1,0.1,0.1,0.2c0,0,0,0.1-0.1,0.2c0.2,0,0.3,0,0.5,0c0,0.2-0.1,0.4,0,0.6
					c0.1,0.3-0.1,0.4-0.3,0.5c-0.3,0.1-0.6,0.2-0.8,0.4C50,37.9,50,38,50.2,38.2c0.1,0.1,0.2,0.2,0.1,0.2c-0.2,0.2,0,0.3,0.1,0.5
					c0,0.1,0,0.2,0,0.2c-0.3,0.1-0.5,0.2-0.4,0.4c0,0,0,0,0,0.1c-0.1,0.1-0.1,0.2-0.2,0.4l-0.1,0.1c-0.3,0.3-1,0.3-0.9,0.8
					c0,0,0,0.1-0.1,0.1c-0.3,0.2-0.3,0.4-0.4,0.6c0.1,0,0.2,0,0.3,0c0,0.1-0.2,0.4-0.3,0.4c-0.3-0.1-0.4,0-0.4,0.2s0.1,0.4,0.1,0.6
					c-0.1,0-0.3,0.1-0.3,0.1c0,0.2,0.1,0.5,0.2,0.7c0,0.1,0.2,0.1,0.3,0.1c0.3,0,0.4,0,0.7-0.1c-0.1,0.1-0.1,0.1-0.2,0.2
					c-0.1,0-0.2,0.1-0.2,0.1c-0.1,0.2-0.3,0.2-0.6,0.3s-0.5,0.3-0.3,0.4c0.1,0.1,0.1,0.2,0,0.3c-0.2,0.3-0.1,0.5,0.2,0.7l0.1,0.1
					c0.1,0.1,0.2,0.2,0.3,0.4l0.1,0.1c-0.2,0.3,0,0.5,0.5,0.6c0.1,0,0.1,0,0.1,0c0.3,0.1,0.6,0.1,0.8-0.2c0.1-0.1,0.4,0,0.6,0
					c0.2,0.1,0.2,0.5,0.7,0.4c-0.1,0.2-0.1,0.4-0.2,0.6c0,0.1,0,0.1,0,0.2c0,0.1,0.1,0.2,0.1,0.3s0.3,0.4,0.4,0.3
					c0.1,0,0.3-0.1,0.3-0.2c0.1-0.1,0.2-0.2,0.2-0.3h0.1c0,0.1,0,0.3-0.1,0.3c-0.2,0.2-0.3,0.3-0.1,0.5c0.1,0.2,0.2,0.3,0.3,0.5
					c0,0.1,0.2,0.1,0.2,0.1c0.3,0,0.6,0,0.8,0.1c0,0,0.2,0,0.3-0.1s0.1-0.2,0.2-0.3l0.2-0.1c0.2,0.1,0.3,0,0.4-0.1
					c0.1,0,0.3-0.1,0.4-0.1c0.1,0,0.2,0,0.3,0c0.2,0.1,0.5-0.3,0.7,0h0.1c0.1-0.1,0.2-0.3,0.3-0.4l0.1-0.1c0.2-0.1,0.1-0.2,0-0.2
					c-0.3-0.2-0.6-0.3-0.8-0.4c-0.2-0.1-0.4-0.2-0.2-0.4c-0.2-0.1-0.2-0.2,0-0.3c0.1-0.1,0.3-0.2,0.2-0.4c0-0.1,0.1-0.2,0.1-0.2
					c0.3,0,0.7,0.1,0.9,0.2c0.4,0.2,0.4,0.2,0.8,0.1c0.3,0,0.5,0.1,0.8,0.1c0,0.1,0,0.2,0,0.4c0,0.1,0,1,0,1.3
					c0,0.2,0.1,1.6,0.1,2.1c0,2,0,4.1,0,6.1c0,0.8-0.1,2-0.2,2.7c-0.3,1.8-1,5.1-1,5.1l3.2,5.7c0,0,0.8-2.2,1.1-3
					c0.5-1.3,1.4-2.5,1.4-2.5L62,62c0-0.3,0-0.5-0.1-0.8c-0.1-2-0.3-3.9-0.4-5.9c-0.1-2.2-0.3-4.4-0.4-6.6c0-0.2-0.1-3.3-0.1-4.3
					h0.1c0.3,0.1,0.6,0.1,0.8-0.1c0.2-0.1,0.4-0.3,0.6-0.4c0.3-0.2,0.9-0.2,1.2-0.1l0.1,0.1c-0.2,0-0.5,0-0.7,0.1s-0.3,0.1-0.4-0.1
					c-0.2,0.3-0.4,0.5-0.6,0.7c0.2,0.1,0.4,0.2,0.6,0.4c0.3,0.2,0.7,0.2,0.6,0.6l0,0c0.3,0.2,0.1,0.3-0.1,0.4
					c-0.1,0-0.1,0.1-0.2,0.2l0.1,0.1c0.1,0.2,0.3,0.4,0.3,0.6c0,0.3,0,0.4,0.4,0.4c0.1,0.1,0.3,0.3,0.4,0.4h0.2
					c0.3-0.1,0.6-0.1,0.9-0.2h0.1c0.1,0,0.2,0,0.2,0.1c0,0,0,0.1-0.1,0.1c-0.1,0.1-0.2,0.1-0.3,0.2c0.1,0,0.2,0,0.3,0.1
					c0.1,0.1,0.2,0.2,0.1,0.2c-0.3,0.4,0.2,0.5,0.3,0.8c0.2,0.2,0.7,0.2,0.8,0.5h0.2c0.3,0,0.5-0.1,0.8-0.1c0.1,0,0.2,0,0.2-0.1
					c0.2-0.2,0.4-0.4,0.9-0.4l0.1-0.1c0.1-0.2-0.2-0.8-0.5-0.9c0,0,0,0-0.1,0c-0.3-0.1-0.6-0.2-0.7-0.4c-0.3-0.4-0.3-0.4-0.7-0.4
					c-0.1-0.1-0.1-0.2-0.2-0.3c0.3,0,0.6-0.1,0.8-0.1c0.3,0,0.4-0.1,0.3-0.3v-0.1c0.2-0.3-0.1-0.7-0.6-0.7v-0.1
					c-0.1-0.3,0.1-0.6,0-0.9c-0.1-0.2-0.3-0.3-0.4-0.4c0,0-0.3,0.1-0.4,0.1L66.3,45h-0.1c0-0.2-0.1-0.4,0.2-0.4c0-0.1,0.1-0.2,0-0.3
					c-0.2-0.3-0.2-0.6-0.7-0.7c0,0-0.1,0-0.2,0c-0.2,0-0.4-0.1-0.6-0.1c-0.1,0-0.2,0-0.2,0.1c-0.1,0.1-0.1,0.2-0.1,0.3
					S64.5,44,64.4,44c-0.2,0-0.3,0-0.5,0c-0.1-0.3-0.5-0.3-0.8-0.4c-0.3-0.1-0.6-0.1-1,0c-0.3,0.1-0.5,0.2-0.8,0.3s-0.5,0-0.5-0.2
					s0-0.4,0-0.6c0-0.3,0.5-0.5,0.6-0.8c0,0,0,0,0.1,0c1.1-0.4,2.4-0.6,3.6-0.7h0.1c0.6,0.1,1.2,0.1,1.8,0.2c0,0.1-0.1,0.1-0.2,0.2
					c-0.1,0.2-0.1,0.4,0.2,0.5c0.1,0,0.2,0.1,0.3,0.2c0.1,0,0.3,0,0.5,0c0,0.1,0.1,0.3,0.1,0.4c0.1,0.2,0,0.4-0.3,0.5
					s-0.3,0.2,0,0.3c0.1,0,0.2,0.1,0.2,0.2c0,0.2,0.2,0.2,0.4,0.2c0.2,0,0.4,0,0.5,0c0.2,0.3,0.4,0.5,0.5,0.7
					c0.1,0.1,0.2,0.3,0.3,0.4c0,0,0,0-0.1,0c0.2,0.1,0.4,0.2,0.6,0.3c0.2-0.2,0.2-0.8,0-1c-0.2-0.1-0.2-0.2,0-0.3h0.1
					c0.1,0.1,0.1,0.3,0.4,0.2s0.3-0.2,0.1-0.3l-0.1-0.1c0-0.1,0.1-0.2,0.1-0.2c0.1,0,0.5,0.4,0.4,0.5s-0.2,0.2-0.3,0.2
					c-0.2,0.1-0.2,0.2-0.1,0.2c0.2,0.1,0.4,0.2,0.6,0.3s0.4,0.1,0.6,0c0,0,0.1,0,0.2,0c0.2,0.1,0.4,0.1,0.5-0.1
					c0.2,0.2,0.3,0.3,0.5,0.5c0.1,0.1,0.1,0.3,0.2,0.4c0.1,0.2,0.4,0.4,0.6,0.4s0.5-0.3,0.5-0.5v-0.1c0.5,0.1,0.8-0.1,0.7-0.4
					c-0.1-0.2-0.1-0.3,0.1-0.4c0.1,0,0-0.2,0-0.2C75.1,44.5,75.2,44.4,75.4,44.3z M61.3,26.8c-0.1,0.1-0.1,0.3-0.2,0.5
					C60.9,26.7,60.9,26.7,61.3,26.8z M60.7,26.7c-0.1-0.1-0.1-0.2-0.2-0.2c0.4,0.1,0.4,0.2,0.2,0.4c-0.1,0.1-0.2,0.2-0.2,0.3
					C60.2,26.9,60.2,26.9,60.7,26.7z M59.4,29.7c0.3-0.1,0.5,0.4,0.7,0.6c-0.1,0.1-0.2,0.2-0.3,0.3c-0.1,0-0.1-0.1-0.2-0.1
					c-0.1,0-0.2-0.1-0.3-0.1C59.3,30.2,59.1,29.8,59.4,29.7z M58.3,25.7c0.2,0,0.4,0,0.6,0.1C58.7,26,58.7,26,58.2,26
					C58.2,25.9,58.3,25.8,58.3,25.7z M56.4,31.2c0.5-0.1,0.4,0.4,0.8,0.1c0,0.1,0.2,0.2,0.1,0.2c-0.1,0.1-0.2,0-0.3,0
					c0,0.1-0.1,0.1-0.1,0.3c-0.2-0.1-0.5-0.2-0.7-0.3C56.2,31.5,56.2,31.3,56.4,31.2z M57.3,31c0.2-0.1,0.3-0.1,0.5-0.2
					c0,0,0,0,0,0.1C57.7,30.9,57.6,31.2,57.3,31L57.3,31z M56.8,31.9c-0.1,0-0.2,0.1-0.3,0.1c0.1,0.1,0.1,0.1,0.1,0.1
					c-0.5,0-0.9,0.1-1.4,0.1C55.7,31.7,56.2,31.6,56.8,31.9z M54.4,37.7c0.1-0.1,0.3-0.3,0.5-0.4c0.1,0,0.2,0,0.4,0
					c0.3,0,0.5-0.1,0.5-0.3c0-0.1,0-0.2,0.3-0.2c0.1,0,0.3,0,0.5,0.1c0-0.3,0.4-0.3,0.8-0.3c-0.1,0.3-0.3,0.6-0.1,0.8
					c-0.1,0-0.3,0.1-0.4,0.1c-0.2,0-0.3,0.1-0.4-0.1c0,0-0.3-0.1-0.4,0c-0.3,0.1-0.6,0.2-0.9,0.4c0,0,0,0.1-0.1,0.2
					c-0.1-0.1-0.2-0.1-0.2-0.1c-0.1,0.1-0.1,0.1-0.2,0.2h-0.1C54.4,37.9,54.4,37.8,54.4,37.7z M53.3,32.4c-0.1,0.1-0.1,0.1-0.2,0.1
					H53c0-0.1,0-0.3,0.1-0.3C53.2,32.1,53.4,32.2,53.3,32.4z M52.5,31.5c0.1-0.1,0.1-0.2,0.2-0.3c0.1-0.1,0.1-0.2,0.2-0.4
					c0.2,0.1,0.3,0.2,0.4,0.3c0,0.2,0,0.3,0,0.5C52.9,31.6,52.7,31.5,52.5,31.5z M57.7,45.9c-0.2-0.2-0.4-0.3-0.6-0.4c0,0,0,0,0.1,0
					c0.2,0.1,0.3-1.2,0.5-1.1C57.7,44.4,57.7,45.8,57.7,45.9z M57.3,42.3c-0.2,0.2-0.4,0.1-0.5,0c-0.1,0-0.1,0-0.2-0.1
					c-0.1,0.1-0.1,0.1-0.2,0.2c-0.1,0-0.2,0-0.3,0c-0.1-0.1-0.2-0.3-0.3-0.4c0,0-0.1-0.1-0.2-0.1c-0.3,0-0.6,0.1-0.8,0.1
					c-0.3,0-0.5,0-0.8-0.1c-0.4-0.2-0.7,0-0.8,0.3c-0.3,0.1-0.6,0.1-0.9,0.2c-0.1,0-0.1,0.2-0.1,0.2c0,0.1,0.1,0.2,0.1,0.2
					c-0.2,0.2-0.3,0.3-0.1,0.5c0.1,0.1,0.1,0.2,0,0.3c0,0.1-0.1,0.2-0.2,0.3c-0.1-0.1-0.2-0.1-0.3-0.2c-0.1,0-0.1-0.1-0.1-0.2
					c-0.2-0.2-0.3-0.2-0.4,0c-0.1,0.2-0.3,0.2-0.6,0.1c-0.3-0.2-0.6-0.2-0.9,0h-0.1c-0.2,0-0.2-0.2-0.1-0.3c0.2,0,0.4,0,0.5-0.1
					c0.2-0.2,0.7-0.3,0.7-0.6c0.4-0.1,0.3-0.5,0.8-0.5c0.1,0,0.3-0.1,0.4-0.2c0.1-0.1,0.2-0.1,0.3-0.2c0.3-0.1,0.6-0.2,0.9-0.3
					c0-0.1-0.1-0.1-0.1-0.1l0,0c0.3-0.1,0.5-0.1,0.8-0.2c0.5,0,1-0.1,1.5-0.1c0.1,0,0.2,0,0.3,0c0.3,0,0.5,0.1,0.8,0.1
					c0.4,0,0.7,0.1,1,0.3c0.1,0.1,0.3,0.2,0.4,0.3c0.1,0.1,0.1,0.2,0.2,0.2C57.7,42.1,57.4,42.2,57.3,42.3z M58.3,41.1
					c0,0.1-0.2,0.2-0.3,0.1c-0.2-0.1-0.8-0.5-2.5-0.2c-0.1,0-0.2,0-0.4,0.1c-0.3,0-0.6,0.1-0.9,0.1c0,0,0,0,0-0.1
					c0.1-0.1,0.1-0.1,0.2-0.2c0.3,0.1,0.5,0.2,0.7,0c0,0,0.1,0,0.2,0c0.4,0,0.6-0.1,0.6-0.3c0.3,0,0.5-0.1,0.8-0.1
					c0.2,0.1,0.4,0.1,0.6-0.1c0.1-0.2,0.3-0.1,0.4,0c0.2,0.1,0.4,0.1,0.6,0.2C58.3,40.6,58.3,40.8,58.3,41.1z M57.5,36
					c-0.2-0.1-0.2-0.6-0.2-0.6s1.2-0.7,1.2,0C58.5,35.8,57.9,36.1,57.5,36z M58.9,31.3C58.9,31.3,58.8,31.3,58.9,31.3
					c-0.4,0-1-0.5-1-0.7c0.1-0.4,0-0.5-0.5-0.6c-0.2-0.1-0.3-0.2-0.5-0.2c0.6-0.1,1.4,0.2,1.7-0.3c0.1-0.2-0.1-0.5-0.2-0.7
					c0.2,0.1,0.3,0.2,0.4,0.3h-0.1c0,0.1,0,0.2,0,0.3v0.1c-0.2,0.3,0.1,0.3,0.3,0.7c0.1,0.2,0,0.4-0.3,0.5c-0.1-0.1-0.3-0.2-0.4-0.3
					C58.6,30.6,59.2,30.9,58.9,31.3z M59.2,31.1c0.4,0.1,0.4,0.1,0.2,0.5C58.9,31.4,59.2,31.2,59.2,31.1z M60.8,35.2
					c-0.1,0.1-0.2,0.1-0.3,0.2h-0.1c0-0.2,0-0.4,0-0.6c0,0-0.1-0.3,0.2-0.3c0.4,0.1,0.8,0.3,1.1,0.4c0.2,0.1,0.2,0.3,0,0.3
					c-0.1,0-0.2,0.1-0.3,0.1s-0.1-0.1-0.2-0.2C61,35.1,60.9,35.1,60.8,35.2z M62.7,41.7c-0.5,0.1-1,0.2-1.5,0.2
					c-0.1,0-0.2-0.1-0.2-0.2c0-0.3,0-0.5,0-0.8c0.3,0.1,0.3,0.2,0.1,0.6c0.4,0.2,0.7,0.1,1-0.1c0.1-0.1,0.2-0.1,0.3-0.2
					c0,0,0,0,0.1,0.1c-0.1,0-0.1,0.1-0.2,0.1C62.4,41.4,62.6,41.5,62.7,41.7C62.7,41.6,62.7,41.6,62.7,41.7z M66.2,38.3
					c0.1-0.1,0.4-0.4,0.6-0.4c0.1,0,0.1,0.4,0.1,0.5l-0.1,0.1c-0.2,0-0.4,0.4-0.5,0.3C66.3,38.8,66.2,38.3,66.2,38.3z M65.2,41.1
					c0-0.1-0.1-0.3-0.1-0.4c0.3-0.1,0.5-0.3,0.8-0.4c0,0.1,0,0.1,0,0.2c-0.2,0.3,0.1,0.5,0.5,0.4c0.2,0,0.5-0.1,0.7-0.1
					c0,0.2,0,0.3,0.1,0.5C66.5,41.5,65.9,41.2,65.2,41.1z"/>
			</g>
		</g>
	</g>
</g>
</svg>
