<?xml version="1.0" encoding="utf-8"?>
<!-- Generator: Adobe Illustrator 26.0.1, SVG Export Plug-In . SVG Version: 6.00 Build 0)  -->
<svg version="1.1" id="Слой_1" xmlns="http://www.w3.org/2000/svg" xmlns:xlink="http://www.w3.org/1999/xlink" x="0px" y="0px"
	 viewBox="0 0 312.71 76.91" style="enable-background:new 0 0 312.71 76.91;" xml:space="preserve">
<style type="text/css">
	.st0{fill:#358531;}
</style>
<g>
	<g>
		<g>
			<path d="M77.69,19.58c0.82,0.54,2.26,1.11,3.64,1.11c2.01,0,2.95-1.01,2.95-2.27c0-1.33-0.79-2.05-2.83-2.81
				c-2.73-0.98-4.02-2.5-4.02-4.33c0-2.46,1.98-4.48,5.25-4.48c1.54,0,2.89,0.44,3.74,0.95l-0.69,2.02c-0.6-0.38-1.7-0.88-3.11-0.88
				c-1.63,0-2.55,0.95-2.55,2.08c0,1.26,0.91,1.83,2.89,2.59c2.64,1.01,3.99,2.34,3.99,4.61c0,2.68-2.07,4.58-5.69,4.58
				c-1.67,0-3.2-0.41-4.27-1.04L77.69,19.58z"/>
			<path d="M92.05,15.29c0.06,3.76,2.45,5.31,5.22,5.31c1.98,0,3.17-0.35,4.21-0.79l0.47,1.99c-0.97,0.44-2.64,0.95-5.06,0.95
				c-4.68,0-7.48-3.1-7.48-7.71c0-4.61,2.7-8.24,7.13-8.24c4.96,0,6.28,4.39,6.28,7.2c0,0.57-0.06,1.01-0.09,1.3H92.05z
				 M100.16,13.3c0.03-1.77-0.72-4.52-3.83-4.52c-2.8,0-4.02,2.59-4.24,4.52H100.16z"/>
			<path d="M116.62,20.06h-0.06c-0.82,1.52-2.51,2.72-4.96,2.72c-3.55,0-6.44-3.1-6.44-7.74c0-5.72,3.68-8.24,6.88-8.24
				c2.36,0,3.93,1.17,4.68,2.65h0.06l0.09-2.31h2.61c-0.06,1.29-0.09,2.62-0.09,4.2v17.34h-2.77V20.06z M116.62,13.33
				c0-0.38-0.03-0.82-0.13-1.17c-0.41-1.71-1.89-3.16-3.96-3.16c-2.86,0-4.59,2.43-4.59,5.87c0,3.03,1.45,5.69,4.49,5.69
				c1.79,0,3.33-1.11,3.96-3.03c0.13-0.38,0.22-0.92,0.22-1.33V13.33z"/>
			<path d="M136.67,18.26c0,1.58,0.03,2.97,0.13,4.17h-2.45l-0.16-2.5h-0.06c-0.72,1.23-2.33,2.84-5.03,2.84
				c-2.39,0-5.25-1.33-5.25-6.7V7.14h2.77v8.46c0,2.91,0.88,4.86,3.39,4.86c1.85,0,3.14-1.29,3.64-2.53
				c0.16-0.41,0.25-0.92,0.25-1.42V7.14h2.77V18.26z"/>
			<path d="M155.01,14.66c0,5.65-3.9,8.12-7.57,8.12c-4.12,0-7.29-3.03-7.29-7.86c0-5.12,3.33-8.12,7.54-8.12
				C152.06,6.79,155.01,9.98,155.01,14.66z M142.95,14.81c0,3.35,1.92,5.87,4.62,5.87c2.64,0,4.62-2.5,4.62-5.94
				c0-2.59-1.29-5.87-4.56-5.87C144.36,8.88,142.95,11.91,142.95,14.81z"/>
			<path d="M161.58,2.84c0.03,0.95-0.66,1.71-1.76,1.71c-0.97,0-1.67-0.76-1.67-1.71c0-0.98,0.72-1.74,1.73-1.74
				C160.92,1.11,161.58,1.86,161.58,2.84z M158.5,22.43V7.14h2.77v15.29H158.5z"/>
			<path d="M174.27,22.43l-0.22-1.93h-0.09c-0.85,1.2-2.48,2.27-4.65,2.27c-3.08,0-4.65-2.18-4.65-4.39c0-3.7,3.27-5.72,9.14-5.69
				v-0.32c0-1.26-0.35-3.54-3.46-3.54c-1.41,0-2.89,0.44-3.96,1.14l-0.63-1.83c1.26-0.82,3.08-1.36,5-1.36
				c4.65,0,5.78,3.19,5.78,6.25v5.72c0,1.33,0.06,2.62,0.25,3.66H174.27z M173.87,14.62c-3.02-0.06-6.44,0.47-6.44,3.44
				c0,1.8,1.19,2.65,2.61,2.65c1.98,0,3.24-1.26,3.68-2.56c0.09-0.28,0.16-0.6,0.16-0.88V14.62z"/>
			<path d="M180.34,20.78c0-1.17,0.79-1.99,1.89-1.99c1.1,0,1.85,0.82,1.85,1.99c0,1.14-0.72,1.99-1.89,1.99
				C181.09,22.77,180.34,21.92,180.34,20.78z"/>
			<path class="st0" d="M189.04,15.29c0.06,3.76,2.45,5.31,5.22,5.31c1.98,0,3.17-0.35,4.21-0.79l0.47,1.99
				c-0.97,0.44-2.64,0.95-5.06,0.95c-4.68,0-7.48-3.1-7.48-7.71c0-4.61,2.7-8.24,7.13-8.24c4.96,0,6.28,4.39,6.28,7.2
				c0,0.57-0.06,1.01-0.09,1.3H189.04z M197.15,13.3c0.03-1.77-0.72-4.52-3.83-4.52c-2.8,0-4.02,2.59-4.24,4.52H197.15z"/>
			<path class="st0" d="M204.44,7.14l2.17,3.28c0.57,0.85,1.04,1.64,1.54,2.5h0.09c0.5-0.92,1.01-1.71,1.51-2.53l2.14-3.25h2.99
				l-5.18,7.39l5.34,7.9h-3.14l-2.23-3.44c-0.6-0.88-1.1-1.74-1.63-2.65h-0.06c-0.5,0.92-1.04,1.74-1.6,2.65l-2.2,3.44h-3.05
				l5.4-7.8l-5.15-7.49H204.44z"/>
			<path class="st0" d="M228.06,21.86c-0.72,0.38-2.33,0.88-4.37,0.88c-4.59,0-7.57-3.13-7.57-7.8c0-4.71,3.2-8.12,8.17-8.12
				c1.63,0,3.08,0.41,3.83,0.79l-0.63,2.15c-0.66-0.38-1.7-0.73-3.2-0.73c-3.49,0-5.37,2.59-5.37,5.78c0,3.54,2.26,5.72,5.28,5.72
				c1.57,0,2.61-0.41,3.39-0.76L228.06,21.86z"/>
			<path class="st0" d="M231.3,0h2.77v9.54h0.06c0.44-0.79,1.13-1.48,1.98-1.96c0.82-0.47,1.79-0.79,2.83-0.79
				c2.04,0,5.31,1.26,5.31,6.54v9.1h-2.77v-8.78c0-2.46-0.91-4.55-3.52-4.55c-1.79,0-3.2,1.26-3.71,2.78
				c-0.16,0.38-0.19,0.79-0.19,1.33v9.22h-2.77V0z"/>
			<path class="st0" d="M257.16,22.43l-0.22-1.93h-0.09c-0.85,1.2-2.48,2.27-4.65,2.27c-3.08,0-4.65-2.18-4.65-4.39
				c0-3.7,3.27-5.72,9.14-5.69v-0.32c0-1.26-0.35-3.54-3.46-3.54c-1.41,0-2.89,0.44-3.96,1.14l-0.63-1.83
				c1.26-0.82,3.08-1.36,5-1.36c4.65,0,5.78,3.19,5.78,6.25v5.72c0,1.33,0.06,2.62,0.25,3.66H257.16z M256.75,14.62
				c-3.02-0.06-6.44,0.47-6.44,3.44c0,1.8,1.19,2.65,2.61,2.65c1.98,0,3.24-1.26,3.68-2.56c0.09-0.28,0.16-0.6,0.16-0.88V14.62z"/>
			<path class="st0" d="M263.88,11.28c0-1.58-0.03-2.87-0.13-4.14h2.45l0.16,2.53h0.06c0.75-1.45,2.51-2.87,5.03-2.87
				c2.11,0,5.37,1.26,5.37,6.51v9.13h-2.77v-8.81c0-2.46-0.91-4.52-3.52-4.52c-1.82,0-3.24,1.29-3.71,2.84
				c-0.13,0.35-0.19,0.82-0.19,1.29v9.19h-2.77V11.28z"/>
			<path class="st0" d="M294.42,7.14c-0.06,1.11-0.13,2.34-0.13,4.2v8.88c0,3.51-0.69,5.65-2.17,6.98
				c-1.48,1.39-3.61,1.83-5.53,1.83c-1.82,0-3.83-0.44-5.06-1.26l0.69-2.12c1.01,0.63,2.58,1.2,4.46,1.2c2.83,0,4.9-1.48,4.9-5.34
				V19.8h-0.06c-0.85,1.42-2.48,2.56-4.84,2.56c-3.77,0-6.47-3.22-6.47-7.45c0-5.18,3.36-8.12,6.85-8.12c2.64,0,4.08,1.39,4.74,2.65
				h0.06L292,7.14H294.42z M291.56,13.17c0-0.47-0.03-0.88-0.16-1.26c-0.5-1.61-1.85-2.94-3.86-2.94c-2.64,0-4.52,2.24-4.52,5.78
				c0,3,1.51,5.5,4.49,5.5c1.7,0,3.24-1.07,3.83-2.84c0.16-0.47,0.22-1.01,0.22-1.48V13.17z"/>
			<path class="st0" d="M300.42,15.29c0.06,3.76,2.45,5.31,5.22,5.31c1.98,0,3.17-0.35,4.21-0.79l0.47,1.99
				c-0.97,0.44-2.64,0.95-5.06,0.95c-4.68,0-7.48-3.1-7.48-7.71c0-4.61,2.7-8.24,7.13-8.24c4.96,0,6.28,4.39,6.28,7.2
				c0,0.57-0.06,1.01-0.09,1.3H300.42z M308.53,13.3c0.03-1.77-0.72-4.52-3.83-4.52c-2.8,0-4.02,2.59-4.24,4.52H308.53z"/>
		</g>
		<g>
			<path d="M103.53,67.25c0,0.3-0.01,0.57-0.03,0.8c-0.02,0.23-0.05,0.43-0.1,0.6c-0.05,0.17-0.11,0.32-0.18,0.45
				c-0.08,0.13-0.21,0.29-0.4,0.48c-0.19,0.19-0.58,0.48-1.19,0.87c-0.6,0.39-1.35,0.77-2.25,1.14c-0.9,0.37-1.92,0.68-3.08,0.94
				c-1.16,0.26-2.43,0.38-3.8,0.38c-2.37,0-4.52-0.4-6.43-1.19c-1.91-0.8-3.54-1.97-4.89-3.52c-1.35-1.55-2.38-3.47-3.11-5.75
				c-0.73-2.28-1.09-4.91-1.09-7.88c0-3.05,0.39-5.77,1.17-8.15c0.78-2.39,1.88-4.41,3.29-6.07c1.41-1.66,3.1-2.92,5.07-3.79
				c1.97-0.87,4.15-1.31,6.54-1.31c1.05,0,2.08,0.1,3.08,0.3c1,0.2,1.92,0.45,2.77,0.75c0.85,0.3,1.6,0.65,2.26,1.05
				c0.66,0.4,1.12,0.72,1.37,0.98c0.25,0.26,0.42,0.45,0.49,0.58c0.08,0.13,0.14,0.29,0.18,0.47c0.05,0.18,0.08,0.39,0.11,0.64
				c0.03,0.25,0.04,0.54,0.04,0.88c0,0.38-0.02,0.7-0.06,0.97c-0.04,0.27-0.09,0.49-0.17,0.67c-0.08,0.18-0.17,0.31-0.27,0.4
				c-0.1,0.09-0.23,0.13-0.38,0.13c-0.26,0-0.63-0.18-1.11-0.55c-0.47-0.37-1.08-0.78-1.83-1.22c-0.75-0.44-1.66-0.85-2.73-1.22
				c-1.07-0.37-2.35-0.55-3.85-0.55c-1.63,0-3.11,0.33-4.45,0.98c-1.34,0.65-2.48,1.61-3.42,2.88c-0.95,1.27-1.68,2.82-2.2,4.65
				c-0.52,1.83-0.78,3.92-0.78,6.26c0,2.33,0.25,4.39,0.75,6.18c0.5,1.79,1.22,3.29,2.16,4.49c0.94,1.2,2.09,2.11,3.45,2.73
				c1.36,0.62,2.91,0.92,4.63,0.92c1.46,0,2.73-0.18,3.82-0.54c1.09-0.36,2.02-0.76,2.78-1.21c0.77-0.44,1.4-0.85,1.89-1.21
				c0.49-0.36,0.88-0.54,1.17-0.54c0.13,0,0.25,0.03,0.34,0.09c0.09,0.06,0.17,0.17,0.23,0.33c0.06,0.16,0.1,0.38,0.13,0.67
				C103.51,66.45,103.53,66.81,103.53,67.25z"/>
			<path d="M142.16,71.71c0,0.15-0.04,0.28-0.11,0.4c-0.08,0.11-0.21,0.2-0.4,0.27c-0.19,0.07-0.44,0.12-0.75,0.17
				c-0.31,0.05-0.69,0.07-1.14,0.07c-0.49,0-0.89-0.02-1.19-0.07c-0.3-0.05-0.55-0.1-0.73-0.17c-0.19-0.07-0.32-0.16-0.4-0.27
				c-0.08-0.11-0.11-0.25-0.11-0.4V55.4h-16.65v16.31c0,0.15-0.04,0.28-0.11,0.4c-0.08,0.11-0.21,0.2-0.4,0.27
				c-0.19,0.07-0.44,0.12-0.75,0.17c-0.31,0.05-0.7,0.07-1.17,0.07c-0.45,0-0.84-0.02-1.16-0.07c-0.32-0.05-0.57-0.1-0.76-0.17
				c-0.19-0.07-0.32-0.16-0.4-0.27c-0.08-0.11-0.11-0.25-0.11-0.4V36.42c0-0.15,0.04-0.28,0.11-0.4c0.08-0.11,0.21-0.2,0.4-0.27
				c0.19-0.07,0.44-0.12,0.76-0.17c0.32-0.05,0.71-0.07,1.16-0.07c0.47,0,0.86,0.02,1.17,0.07c0.31,0.05,0.56,0.1,0.75,0.17
				c0.19,0.07,0.32,0.16,0.4,0.27c0.08,0.11,0.11,0.25,0.11,0.4v14.72h16.65V36.42c0-0.15,0.04-0.28,0.11-0.4
				c0.07-0.11,0.21-0.2,0.4-0.27c0.19-0.07,0.43-0.12,0.73-0.17c0.3-0.05,0.7-0.07,1.19-0.07c0.45,0,0.83,0.02,1.14,0.07
				c0.31,0.05,0.56,0.1,0.75,0.17c0.19,0.07,0.32,0.16,0.4,0.27c0.07,0.11,0.11,0.25,0.11,0.4V71.71z"/>
			<path d="M185.11,70.71c0.15,0.42,0.23,0.75,0.24,1.01c0.01,0.26-0.06,0.45-0.21,0.58c-0.15,0.13-0.4,0.22-0.75,0.26
				c-0.35,0.04-0.82,0.06-1.4,0.06c-0.58,0-1.05-0.01-1.4-0.04c-0.35-0.03-0.61-0.08-0.79-0.14c-0.18-0.07-0.31-0.16-0.4-0.27
				c-0.08-0.11-0.17-0.26-0.24-0.43l-3.14-8.95h-15.2l-3,8.84c-0.06,0.17-0.13,0.32-0.23,0.44c-0.09,0.12-0.23,0.23-0.41,0.31
				c-0.18,0.09-0.43,0.15-0.76,0.18c-0.33,0.04-0.76,0.06-1.29,0.06c-0.55,0-0.99-0.02-1.34-0.07c-0.35-0.05-0.59-0.14-0.73-0.27
				c-0.14-0.13-0.21-0.33-0.2-0.58c0.01-0.26,0.09-0.59,0.24-1.01l12.27-34.15c0.08-0.21,0.17-0.38,0.3-0.51
				c0.12-0.13,0.3-0.24,0.54-0.31c0.24-0.08,0.54-0.13,0.9-0.16c0.37-0.03,0.83-0.04,1.4-0.04c0.6,0,1.1,0.01,1.5,0.04
				c0.4,0.03,0.72,0.08,0.96,0.16c0.24,0.08,0.43,0.18,0.57,0.33c0.13,0.14,0.24,0.32,0.31,0.53L185.11,70.71z M169.37,40.57h-0.03
				l-6.3,18.32h12.72L169.37,40.57z"/>
			<path d="M221.45,71.71c0,0.15-0.03,0.28-0.08,0.4c-0.06,0.11-0.18,0.21-0.37,0.28c-0.19,0.08-0.45,0.13-0.79,0.17
				c-0.34,0.04-0.79,0.06-1.36,0.06c-0.49,0-0.89-0.02-1.2-0.06c-0.31-0.04-0.56-0.1-0.75-0.18c-0.19-0.09-0.33-0.2-0.44-0.36
				c-0.1-0.15-0.19-0.34-0.27-0.57l-3.36-8.66c-0.4-0.98-0.81-1.89-1.23-2.71c-0.42-0.82-0.93-1.53-1.51-2.13
				c-0.58-0.6-1.27-1.06-2.06-1.39c-0.79-0.33-1.74-0.5-2.85-0.5h-3.25v15.65c0,0.15-0.04,0.28-0.13,0.4
				c-0.08,0.11-0.22,0.2-0.4,0.27c-0.18,0.07-0.42,0.12-0.73,0.17c-0.31,0.05-0.7,0.07-1.17,0.07c-0.47,0-0.86-0.02-1.17-0.07
				c-0.31-0.05-0.56-0.1-0.75-0.17c-0.19-0.07-0.32-0.16-0.4-0.27c-0.08-0.11-0.11-0.25-0.11-0.4V37.67c0-0.74,0.19-1.25,0.58-1.55
				c0.39-0.29,0.8-0.44,1.23-0.44h7.77c0.92,0,1.69,0.02,2.3,0.07c0.61,0.05,1.16,0.1,1.65,0.16c1.41,0.25,2.66,0.63,3.74,1.16
				c1.08,0.53,1.99,1.2,2.73,2.02c0.73,0.81,1.29,1.75,1.65,2.8c0.37,1.05,0.55,2.21,0.55,3.48c0,1.23-0.17,2.33-0.49,3.31
				c-0.33,0.98-0.81,1.84-1.43,2.59c-0.62,0.75-1.37,1.4-2.23,1.95c-0.87,0.55-1.84,1.01-2.91,1.39c0.6,0.27,1.15,0.6,1.64,1.01
				c0.49,0.41,0.95,0.9,1.37,1.46c0.42,0.57,0.82,1.22,1.2,1.96c0.38,0.74,0.75,1.57,1.13,2.5l3.28,8.1
				c0.26,0.68,0.43,1.16,0.51,1.43C221.41,71.34,221.45,71.56,221.45,71.71z M214.13,45.88c0-1.44-0.32-2.66-0.96-3.65
				c-0.64-0.99-1.71-1.71-3.22-2.14c-0.47-0.13-1-0.23-1.6-0.28c-0.59-0.06-1.37-0.09-2.33-0.09h-4.1V52.1h4.75
				c1.28,0,2.39-0.16,3.32-0.47c0.93-0.31,1.71-0.75,2.33-1.31c0.62-0.56,1.08-1.22,1.37-1.97
				C213.98,47.6,214.13,46.77,214.13,45.88z"/>
			<path d="M239.19,71.71c0,0.15-0.04,0.28-0.11,0.4c-0.08,0.11-0.21,0.2-0.4,0.27c-0.19,0.07-0.44,0.12-0.75,0.17
				c-0.31,0.05-0.7,0.07-1.17,0.07c-0.45,0-0.84-0.02-1.16-0.07c-0.32-0.05-0.57-0.1-0.76-0.17c-0.19-0.07-0.32-0.16-0.4-0.27
				c-0.08-0.11-0.11-0.25-0.11-0.4V36.42c0-0.15,0.04-0.28,0.13-0.4c0.08-0.11,0.23-0.2,0.42-0.27c0.2-0.07,0.45-0.12,0.76-0.17
				c0.31-0.05,0.68-0.07,1.12-0.07c0.47,0,0.86,0.02,1.17,0.07c0.31,0.05,0.56,0.1,0.75,0.17c0.19,0.07,0.32,0.16,0.4,0.27
				c0.08,0.11,0.11,0.25,0.11,0.4V71.71z"/>
			<path d="M277.68,37.79c0,0.36-0.02,0.67-0.06,0.94c-0.04,0.27-0.1,0.48-0.18,0.64c-0.08,0.16-0.19,0.28-0.31,0.36
				c-0.12,0.08-0.26,0.11-0.41,0.11h-10.29v31.88c0,0.15-0.04,0.28-0.11,0.4c-0.08,0.11-0.21,0.2-0.4,0.27
				c-0.19,0.07-0.44,0.12-0.75,0.17c-0.31,0.05-0.7,0.07-1.17,0.07c-0.45,0-0.84-0.02-1.16-0.07c-0.32-0.05-0.57-0.1-0.76-0.17
				c-0.19-0.07-0.32-0.16-0.4-0.27c-0.08-0.11-0.11-0.25-0.11-0.4V39.83h-10.29c-0.15,0-0.29-0.04-0.41-0.11
				c-0.12-0.08-0.22-0.19-0.3-0.36c-0.08-0.16-0.14-0.37-0.18-0.64c-0.05-0.27-0.07-0.58-0.07-0.94c0-0.36,0.02-0.68,0.07-0.95
				c0.05-0.27,0.11-0.5,0.18-0.67c0.08-0.17,0.17-0.29,0.3-0.37c0.12-0.08,0.26-0.11,0.41-0.11h25.44c0.15,0,0.29,0.04,0.41,0.11
				c0.12,0.08,0.23,0.2,0.31,0.37c0.08,0.17,0.15,0.39,0.18,0.67C277.66,37.11,277.68,37.43,277.68,37.79z"/>
			<path d="M300.46,58.16v13.55c0,0.15-0.04,0.28-0.11,0.4c-0.07,0.11-0.21,0.2-0.39,0.27c-0.19,0.07-0.44,0.12-0.76,0.17
				c-0.32,0.05-0.7,0.07-1.15,0.07c-0.47,0-0.86-0.02-1.17-0.07c-0.31-0.05-0.56-0.1-0.76-0.17c-0.2-0.07-0.33-0.16-0.41-0.27
				c-0.07-0.11-0.11-0.25-0.11-0.4V58.16l-10.34-20.74c-0.21-0.44-0.33-0.78-0.38-1.02c-0.05-0.25,0-0.44,0.14-0.57
				c0.14-0.13,0.4-0.22,0.76-0.26c0.37-0.04,0.86-0.06,1.48-0.06c0.57,0,1.02,0.02,1.37,0.06c0.35,0.04,0.63,0.09,0.83,0.16
				c0.21,0.07,0.36,0.16,0.47,0.28c0.1,0.12,0.2,0.28,0.3,0.47l5.06,10.57c0.47,1,0.94,2.06,1.41,3.15c0.47,1.1,0.95,2.21,1.43,3.32
				h0.06c0.43-1.08,0.88-2.15,1.33-3.22c0.46-1.07,0.92-2.13,1.39-3.17l5.09-10.63c0.06-0.19,0.14-0.35,0.24-0.48
				c0.1-0.13,0.24-0.23,0.42-0.3c0.18-0.07,0.43-0.12,0.75-0.16c0.32-0.04,0.73-0.06,1.22-0.06c0.68,0,1.21,0.02,1.6,0.07
				c0.39,0.05,0.65,0.14,0.81,0.27c0.15,0.13,0.2,0.32,0.16,0.57c-0.05,0.25-0.17,0.58-0.38,0.99L300.46,58.16z"/>
		</g>
	</g>
	<g>
		<polygon class="st0" points="40.76,36.58 40.76,10.53 34.24,10.53 34.24,36.6 34.24,38.37 27.72,44.88 27.72,10.53 21.2,10.53 
			21.2,49.63 21.2,51.4 14.69,57.92 14.69,10.53 8.17,10.53 8.17,64.43 1.63,70.97 1.63,75.71 6.11,75.71 12.64,69.18 66.82,69.18 
			66.82,62.67 19.15,62.67 25.67,56.15 27.72,56.15 66.82,56.15 66.82,49.63 32.19,49.63 38.7,43.12 40.76,43.12 66.82,43.12 
			66.82,36.6 40.77,36.6 		"/>
		<rect x="47.3" y="10.53" class="st0" width="19.53" height="19.55"/>
	</g>
</g>
</svg>
