<?xml version="1.0" encoding="utf-8"?>
<!-- Generator: Adobe Illustrator 28.3.0, SVG Export Plug-In . SVG Version: 6.00 Build 0)  -->
<svg version="1.1" id="Слой_1" xmlns="http://www.w3.org/2000/svg" xmlns:xlink="http://www.w3.org/1999/xlink" x="0px" y="0px"
	 viewBox="0 0 370.1 160.3" style="enable-background:new 0 0 370.1 160.3;" xml:space="preserve">
<style type="text/css">
	.st0{fill:#358531;}
</style>
<g>
	<g>
		<g>
			<path class="st0" d="M55,77.1c-0.1-0.3-0.4-0.6-0.4-0.9c-0.5-4.3-0.9-8.7-1.3-13c0-0.1,0-0.2,0-0.2c-0.2-0.3-0.4-0.6-0.6-0.9
				c-0.2,0.3-0.4,0.7-0.4,1c0,0.9,0.1,1.9,0.2,2.8c0.3,1.9,0.7,3.8,1,5.7c0.1,0.4-0.1,0.8-0.1,1.2c-0.1,0-0.2,0-0.3,0
				c-0.3-1.5-0.5-3-0.8-4.5c0,0-0.1,0-0.1,0c-0.1,3.7-0.2,7.5-0.4,11.2c-0.1,3.7,0.1,7.4-0.5,11.1c-0.1,0-0.3,0-0.4,0
				c0.1-3.1,0.2-6.1,0.1-9.2c0-3.1-0.2-6.2-0.5-9.4c-0.8,4,0,8-0.1,12c-0.1-0.2-0.1-0.3-0.2-0.7c-0.1,2-0.1,3.8-0.2,5.6
				c0,0,0.1,0,0.1,0c0.1-0.3,0.2-0.6,0.3-0.9c0,1.4-0.1,2.8-0.1,4.3c0,0-0.1,0-0.1,0c0-0.5,0-1.1,0.1-1.6c-0.6,2.9-0.6,5.8-0.3,8.8
				c0.7,6,0.5,12-0.3,17.9c-0.4,2.5-1.1,5-1.5,7.5c-0.3,1.6-0.2,3.2-0.4,4.7c-0.1,0.7-1.5,1.9-1.4,1.1c0.4-1.8,0.7-3.5,1-5.3
				c0.5-2.7,1-5.4,1.5-8.1c0.7-4.1,1-8.2,0.9-12.4c0-2.2-0.1-4.3-0.2-6.5c-0.1,0-0.2,0-0.4,0c0,0.8-0.1,1.6-0.1,2.3
				c-0.1,0-0.2,0.1-0.4,0.1c-0.1-0.4-0.3-0.8-0.4-1.1c-0.1-2.7-0.1-5.3-0.2-8c-0.1,0-0.2,0-0.3,0c-0.1,0.8-0.2,1.6-0.2,2.4
				c-0.1,5.1-0.2,10.2-0.3,15.3c0,2.8-0.1,5.6,0,8.4c0.1,2.6-0.6,5.1-1.1,7.7c-0.2,0.7-0.2,1.5-0.4,2.2c-0.1,0-0.2,0.1-0.3,0.1
				c-0.2-0.4-0.6-0.8-0.5-1.1c0.2-3.4,0.6-6.8,0.9-10.1c0.1-1.3,0.1-2.6,0-4c-0.1,0.6-0.2,1.2-0.3,1.8c-0.5,2.6-1,5.2-1.5,7.8
				c-0.3,1.6-0.5,3.2-1,4.7c-0.2,0.7-0.8,1.2-1.2,1.8c-0.2,0.3-0.3,0.6-0.4,0.9c-1,2.7-2.4,5.2-4.4,7.3c-0.2,0.2-0.4,0.4-0.5,0.7
				c-0.2,0.6-0.7,0.8-1.3,0.6c-1.1-0.4-3.1,0.5-3.2,0.2c0.2-0.1,0.5-0.2,0.7-0.4c0.9-0.7,2-1.3,2.7-2.1c1.4-1.7,2.8-3.4,3.7-5.4
				c0.9-2,1.4-4.3,1.8-6.5c0.5-2.6,0.7-5.2,1-7.8c0.3-2.3,0.5-4.6,0.8-6.9c0.3-3.5,0.6-7,0.9-10.4c0.2-2.6,0.4-5.2,0.6-7.9
				c0.2-1.7,0.6-3.4,0.6-5.1c0.1-5.6,0.1-11.2,0.2-16.8c0-0.1-0.1-0.2,0-0.1c-0.8,0.4-1.8,0.7-2.5,1.2c-0.5,0.4-0.7,1.2-0.9,1.8
				c-0.2,0.7-0.1,1.5-0.2,2.2c0,0.3-0.2,0.6-0.5,0.8c-0.1,0.1-0.6-0.1-0.7-0.3c-1.7-2.4-4.2-3.7-6.7-4.9c-0.5-0.2-1.1-0.2-1.7-0.3
				c-0.6-0.1-1.3-0.1-1.9-0.2c-1.3-0.2-1.9,0.2-1.9,1.5c0,0.7-1.5,2-2.7,2.2c-0.7,0.1-1.5,0.1-2.3,0.2c-1.5,0.1-2.9,0.3-4.4,0.4
				c-0.9,0.1-1.7,0.2-2.6,0.1c-0.9-0.1-1.7-0.5-2.2-1.4c-0.3-0.8-0.2-1.3,0.6-1.7c0.8-0.4,1.6-1,2.6-1.5c-0.6-0.3-1-0.5-1.4-0.7
				c-1.3-0.4-1.5-0.9-0.7-2c0.1-0.2,0.2-0.4,0.4-0.6c-0.6-0.6-1.1-1.1-0.7-2.1c0.1-0.4-0.4-1.1-0.6-1.7c-0.3-0.6-0.3-1,0.5-1
				c0.8,0,0.8-0.5,0.7-1.1c-0.3-1.9-0.1-3.7,1.3-5.2c1-1,2.1-1.5,3.5-1.1c1.8,0.6,3.6,1.3,5.3,1.9c-0.2-0.3-0.4-0.6-0.7-1.1
				c0.5-0.1,0.9-0.3,1.4-0.4c1.2-0.2,2.4-0.4,3.6-0.5c1-0.1,2-0.1,2.7,0.7c0.2,0.2,0.4,0.6,0.3,1c0,0.1-0.5,0.2-0.8,0.3
				c-0.2,0.1-0.3,0.1-0.5,0.2c0.6,0.6,1.2,1.1,2,1.8c0-1.2,0.1-2.3,0.1-3.6c1.3,0.8,1.4,2.1,0.8,3.6c-0.2,0.5-0.3,1-0.3,1.5
				c0,0.7,0,1.6,1,1.7c1.3,0.2,2-0.3,2.2-1.5c0.3-1.6,0.7-3.2-1-4.4c-0.6-0.4-0.8-1.4-1.1-2.2c-0.1-0.2,0-0.6,0.1-0.8
				c0.1-0.1,0.5,0,0.7,0.1c0.5,0.1,1.1,0.2,1.5,0.4c1.7,0.8,3.5,1.6,5.2,2.3c0.8,0.3,0.9,0.8,0.6,1.6c0.5-0.1,0.9-0.1,1.4-0.2
				c-0.2-0.4-0.3-0.8-0.5-1.1c-1.1-1.7-0.5-2.4,1.3-3.1c1.4-0.5,1.7-0.8,1.7-2.4c-2.5,0.5-3.8-0.2-5.3-2.7c-1,0.2-2.1,0.6-3.1,0.7
				c-2,0.1-2.3-0.3-2.7-2.1c-0.9,0.1-1.9,0.1-2.8,0.2C32,46.1,31,45.9,30.3,45c-0.8-1.1-0.3-2.2,0.4-3.3c-0.4-0.1-0.8-0.1-1.1-0.2
				c-0.3-0.1-0.5-0.4-0.8-0.6c0.3-0.1,0.5-0.2,0.8-0.3c0.2-0.1,0.4,0,0.5,0c0.6-2.5-1.2-3.7-2.7-5c-0.1-0.1-0.2-0.1-0.3-0.2
				c-2.1-0.8-2.6-0.6-2.7,1.4c-0.1,2,0.9,4.1,4,5.1c0.3,0.1,0.7,0.3,1.3,0.5c-2,0.3-4.5-1.2-5.2-3.1c-0.4-1.2-0.5-2.5-0.6-3.8
				c0-0.7,0.5-1.2,1.2-1.1c0.7,0.1,1.5,0.3,2.1,0.7c1,0.7,1.9,1.5,2.8,2.2c0.7-0.7,1.2-1.4,2-1.9c0.2-0.2,0.9,0.1,1.3,0.3
				c1.2,0.6,1.5,1.3,1.2,2.2c-0.5,1.2-1.8,1.6-3.8,1.2c-0.1,1.3,0.2,1.6,1.3,1.2c1.7-0.7,3.3-1.5,4.9-2.3c0-0.1-0.1-0.3-0.1-0.4
				c-0.5-0.3-1-0.5-1.5-0.8c-0.8-0.4-1-1-0.7-1.9c0.5-1.8,1.7-2.7,3.5-3c0.9-0.1,1.7-0.2,2.7-0.4c0.3-2,1.6-3.2,3.7-3.6
				c0-0.1-0.1-0.2-0.1-0.3c-0.2,0-0.4,0-0.6,0c-3,1-5.4-0.4-7.7-2.1c-1-0.8-1.8-2-2.7-2.9c-0.5-0.5-1.2-0.8-1.7-1.3
				c-0.4-0.5-0.6-1.1-0.9-1.7c0.6-0.1,1.4-0.5,1.9-0.3c2,1.2,4.3,0.6,6.4,1.2c0.3,0.1,0.8-0.3,1.2-0.4c-0.2-0.3-0.5-0.6-0.8-0.8
				c-0.5-0.5-1.2-0.9-1.7-1.3c-0.5-0.5-0.5-1,0.2-1.2c0.4-0.2,0.9-0.2,1.3-0.4c0.4-0.2,0.9-0.5,1.5-0.9c-0.8-0.6-1.4-1-2-1.4
				C38,13,37.6,12,38,10.6c0.3-1.2,0.9-1.7,2.6-1.8c0.8-0.1,1.6,0,2.6,0.1c0.2-0.4,0.7-1.1,0.5-1.4c-0.5-0.7-1.2-1.3-1.9-1.9
				c-0.2-0.2-0.5-0.1-0.7-0.3c-0.2-0.2-0.4-0.5-0.3-0.7c0.1-0.2,0.5-0.2,0.7-0.2c1.2,0.3,2.5,0.7,3.7,1c1.7,0.4,3-0.5,4.4-1.6
				c-1-0.7-2-1.3-2.8-2c-0.3-0.2-0.7-0.5-1-0.9c-0.1-0.2-0.3-0.6-0.1-0.8C45.8,0,46.3-0.1,46.5,0c1.8,1.1,3.8,2.1,4.1,4.5
				c0.1,0.8-0.1,1.7-0.2,2.9c0.5,0.2,1.4,0.7,2.2,1c0.7,0.2,0.8,0.9,0.2,1.5c-0.6,0.6-1.4,1.1-2.1,1.7c0.1,0.4,0.2,0.9,0.4,1.6
				c-0.9-0.3-1.4-0.8-1.9-0.7c-0.4,0.1-0.7,0.8-0.8,1.3c-0.3,0.2-0.7,0.3-1,0.5c0,0.1,0.1,0.2,0.1,0.3c1.9,0.3,3.8,0.6,5.9,1
				c0-1.1,0.1-2.1,0.1-3c0-0.9,0.3-1.5,1.4-1.5c1.7,0,3.3-0.2,5-0.1c0.8,0,1.7,0.3,2,1.3c0.3,1.1-0.1,2-0.9,2.7c-1,0.7-2,1.5-3,2
				c-0.9,0.4-1,1.1-1,1.9c0,0.3,0,0.9-0.2,1c-0.3,0.1-0.8,0-1.1-0.2c-1.4-0.7-1.7-0.6-2.5,1c0.3,0,0.5,0.1,0.7,0.1
				c0.9,0,1.2,0.5,1.6,1.2c0.4,0.8,1.2,1.5,1.9,2.2c0.3,0.3,0.8,0.6,1.1,0.8c-0.3,0.3-0.6,0.6-1.1,1.1c0.5,0.5,1.1,1.1,1.6,1.7
				c0.1,0,0.2-0.1,0.3-0.1c-0.2-1.4,0.2-2.5,1-3.5c0.6-0.8,1.5-1.3,2.6-1.1c0.9,0.2,1.5,0.9,1.5,1.8c0,0.8-0.4,1.6-0.9,2.2
				c-0.6,0.7-1.4,1.2-2.3,1.9c0.7,0.2,1.3,0.3,1.9,0.5c2.3,0.7,4.6,1.4,6.9,2.2c0.3,0.1,0.7,0.3,0.8,0.5c0.7,1.2,2,1.6,3.2,2.2
				c1,0.5,1.6,1.2,1.6,2.3c-0.1,1.2-0.9,1.9-1.9,2.4c-0.4,0.2-0.7,0.3-1.1,0.6c2,0.6,4,0.5,6.1-0.1c0.2,1-0.5,1.2-1.1,1.3
				c-1.7,0.2-3.4,0.4-5,0.5c-0.3,0-0.6,0-0.9,0c-1.1,0.1-2.2,0.6-2.8-1.1c-0.5,0.9-1,1.5-1.2,2.2c-0.2,1.1-0.9,1.4-1.7,1.7
				c-1.1,0.4-2.2,0.8-3.4,1.1c-1,0.3-1.4,0.9-1.6,1.8c-0.1,0.3-0.6,0.9-0.7,0.8c0.2-0.7,0.4-1.3,0.5-2.1c-0.6-0.6-1.1-0.6-2-0.3
				c-1,0.3-2.2,0.1-3.4,0.1c-0.3,0-0.7-0.2-1.1-0.3c0.1,2.6,0.3,5.1,0.4,7.6c0.6,0,1.1-0.1,1.6,0c0.6,0.1,1.5,0,1.6,0.3
				c0.4,0.7,0.8,1.7,0.6,2.4c-0.2,1.2-0.7,2.3-1.4,3.4c-0.3,0.5-1.1,0.7-2,1.2c0.5,0.2,0.9,0.4,1.4,0.7c0.2,2.6,0.3,5.4,0.5,8.2
				c0.1,0.1,0.3,0.1,0.4,0.2c1.2-1.1,2.5-2.2,3.7-3.2c0-0.4,0.1-0.7,0.1-1.1c0.3,0.2,0.6,0.3,0.9,0.5c0.3,0.1,0.6,0.2,1.1,0.4
				c-0.2-1.4-0.3-2.6-0.4-3.7c0-0.2-0.1-0.4,0-0.6c0.4-1.7,3.1-3.6,4.8-3.5c1.2,0.1,1.9,1,1.8,2.2c0,0.7,0.7,1.2,1.5,1.1
				c1.2-0.1,2.4-0.2,3.5-0.2c1.7,0,1.9,1.5,1.3,2.7c-0.4,0.8-0.8,1.5-1.2,2.2c-0.4,0.7-0.2,1.1,0.5,1.2c1.9,0.4,3.7,0.2,5.3-0.8
				c0.3-0.2,0.4-0.7,0.7-1c-0.3-0.2-0.6-0.4-1-0.5c-0.3-0.1-0.7-0.2-1.1-0.3c1.1-0.6,2.2-0.4,2.6,0.3c0.4,0.8,0,2.1-1,2.3
				c-1.7,0.4-3.5,0.7-5.2,0.8c-1.7,0-2.1-0.9-1.3-2.5c0.5-0.9,0.9-1.8,1.3-2.7c0.3-0.6,0-1-0.6-1.1c-1.2-0.1-2.3-0.3-3.5,0.3
				c-0.7,0.4-0.9,0.8-0.4,1.4c1,1.3,1.5,2.6,0.9,4.2c-0.1,0.2,0.6,0.8,1,1.2c0.3,0.4,0.7,0.7,1,1.1c-0.4,0.2-0.7,0.5-1.1,0.7
				c-1.3,0.5-2.6,0.4-3.9-0.2c-1.1-0.4-2-0.2-3,0.2c-1,0.4-2,0.7-3.2,0c0.3-0.5,0.5-0.9,0.9-1.2c0.9-0.8,1.2-1.6,0.2-2.6
				c-1.9,0.3-2.9,2-4,3.4c-0.5,0.5-0.5,1.5-1.6,1.4c-0.1,0-0.4,0.6-0.4,0.9c0,3,0,5.9,0,8.9c0,2.7-0.4,5.3-0.3,8.1
				c0.2,4.7,0.6,9.4,0.9,14.1c0.3,5.1,1.2,10.1,1.9,15.1c0.4,3.1,1.1,6.2,1.6,9.3c0.5,2.9,1.9,5.3,3.3,7.8c0.3,0.5,0.5,1,0.7,1.4
				c-0.1,0.1-0.2,0.2-0.3,0.3c-0.4-0.3-0.9-0.5-1.2-0.9c-0.4-0.4-0.6-1-1.5-0.7c-0.7,0.2-1-0.4-1.1-1c-0.5-2-0.8-4-1.4-5.9
				c-2.2-6.8-2.5-13.8-2.8-20.9c-0.1-3.9-0.5-7.8-0.8-11.8c-0.4-5.4-0.8-10.8-1.2-16.2c-0.1-1-0.2-2.1-0.3-3.1
				c0.1-0.6,0.4-1.2,0.4-1.8c0-0.9-0.4-1.8-0.5-2.7c-0.2-2-0.3-4-0.5-6c-0.1-0.9-0.2-1.7-0.3-2.6c-0.1,0-0.2,0-0.4,0
				C54.2,68.3,54.6,72.7,55,77.1z M32.1,43c-0.5,0-1,0-1.5,0c-0.4,1.4,0,2.2,1.4,2.2c1.1,0.1,2.3-0.1,3.5-0.1c0.9,0,1.3-0.5,1.4-1.3
				C35.2,43.5,33.6,43.3,32.1,43c0.7,0,1.3,0,2,0c-1-0.5-1.9-1.1-3-1c0,0.1-0.1,0.2-0.1,0.3C31.4,42.6,31.7,42.8,32.1,43z
				 M49.7,24.4c0.2,0.1,0.5,0.2,0.7,0.4c1.7,2.2,1.7,2.2,4.5,1.4c0.1,0,0.2-0.1,0.1-0.1c-0.2-0.7-0.3-1.4-0.5-2
				c-0.1-0.6-0.3-1-1.1-0.7c-0.7,0.2-1.6,0.2-2.3,0.4C50.6,24,50.1,24.2,49.7,24.4c-0.8-0.5-1.5-0.1-2.3,0.4
				C49,25.3,49,25.3,49.7,24.4z M42.8,123.5c0.1,0,0.2,0,0.3,0c0.3-1.6,0.5-3.3,0.9-4.9c0.3-1.5,0.8-2.9,1-4.5
				c0.3-3.6,0.5-7.3,0.8-11c0.2-3.6,0.5-7.3,0.6-10.9c0.2-5.3,0.4-10.5,0.6-15.8c0.1-2.4,0.2-4.9,0.2-7.3c-0.1,0-0.3,0-0.4,0
				c-1.6,15.3-2.1,30.6-2.6,46c0-0.4,0-0.7,0-1.1c-0.1,0-0.2,0-0.3,0C43.5,117.2,43.1,120.4,42.8,123.5z M35.6,34.3
				c-0.5,0.8-0.3,1.3,0.3,1.7c0.9,0.4,1.8,0.8,2.6,1.2c1.2,0.7,2.5,1.3,3.6,2.1c0.8,0.6,1.4,1.6,0.9,2.6c-0.6,1.2-1.5,2.3-2.9,2.7
				c-0.9,0.2-1.8,0.4-2.6,0.7c-0.3,0.1-0.6,0.5-0.9,0.7c0.3,0.3,0.5,0.8,0.8,0.9c0.6,0.2,1.3,0.3,1.9,0.1c0.9-0.3,2.2-0.5,2.7-1.2
				c0.7-1,1.4-1.9,2.9-2.1c-1.1-1.6-1.9-3.2-0.2-4.9c-0.3-0.1-0.5-0.2-0.6-0.2c-1.9-0.1-1.8-0.1-1.7-2c0-0.2-0.3-0.6-0.5-0.7
				c-0.4-0.2-0.9-0.1-1.3-0.2C38.9,35.3,37,35.9,35.6,34.3z M62.4,32.5c-0.1,0-0.4-0.7-0.4-1.1c0.2-1.3-1.7-2.4-2.8-1.5
				c-0.5,0.4-1.1,0.8-1.6,1.3c-0.2,0.2-0.3,0.7-0.2,0.9c0.2,0.4,0.6,1,1,1.1c1.3,0.3,2.7,0.5,4,0.7c0.7,0.1,1.4,0.2,2.3,0.3
				c-0.4-0.7-0.8-1.2-1.1-1.7c1.2-0.6,3.4,0.6,3.5,1.9c0,0.3,0.2,0.5,0.4,0.8c0.2-0.2,0.5-0.3,0.5-0.6c0.2-0.9,0.9-1.1,1.7-1.2
				c0.3,0,0.6,0,0.9,0c0-0.1,0-0.2,0-0.3c-2.4-1.7-5.4-1.8-8.1-2.6C62.4,31.1,62.4,31.8,62.4,32.5z M56.9,16.7
				c1.5-0.7,2.8-1.7,3.8-3c0.8-1.1,0.3-2.1-1.2-2.2c-1-0.1-2,0-3,0.1c-1.7,0.1-2.9,0.6-2.7,2.6c0.2,2.2,0.2,2.3,2.2,1.4
				c0.1,0,0.1,0,0.3,0C56.5,15.9,56.7,16.3,56.9,16.7z M34.8,22.6c0,0.1-0.1,0.2,0,0.2c1.6,2.3,3.7,3.8,6.5,4.2
				c1.9,0.3,3.2-0.7,4.6-1.6c0.2-0.1,0.2-0.4,0.3-0.6c-0.1-0.1-0.2-0.2-0.2-0.2c-1.7-0.4-3.5-0.2-4.9-1.7c-0.1-0.1-0.5,0-0.7,0.1
				C38.4,23.4,36.6,23.6,34.8,22.6z M48.6,94.8c0.1,0,0.2,0,0.3,0c0.8-9.2,0.9-18.3-0.4-27.5c-0.3,1.5-0.6,3-0.7,4.5
				c-0.1,1-0.2,2.2,0.2,3.1c0.5,0.9,0.4,1.7,0.4,2.6c0,2.7-0.1,5.3-0.1,8c0,2.5,0.2,5,0.3,7.5C48.7,93.6,48.6,94.2,48.6,94.8z
				 M20,54.8c-1.3-0.4-2.1-0.2-3,0.5c-1.7,1.5-1.9,3.4-1.4,5.4c0.1,0.2,0.4,0.5,0.6,0.5c1.9,0.1,3.9,0.2,5.9,0.2
				c-1-1.2-2-2.2-2.8-3.4C18.2,56.5,18.4,55.9,20,54.8z M33.9,69.4c2.2,1.5,4.3,3,6.4,4.5c0.2-1.1,0.5-2.3,0.9-3.8
				c-0.6,0.2-1,0.4-1.4,0.4c-0.6,0-1.3,0-1.7-0.3c-0.6-0.4-0.4-1.1,0.1-1.5c0.8-0.6,0.7-1.4,0.6-2.3c-0.7-0.1-1.4-0.2-2.2-0.2
				c-0.3,0-0.7,0.3-0.7,0.4C35.8,68,35,68.8,33.9,69.4z M46.3,57.7c0.2,0.8,0.4,1.3,0.4,1.8c0,0.7,0.3,0.9,0.9,0.6
				c0.5-0.3,1.1-0.7,1.6-1c1.1,0.6,2.2,1.2,3.3,1.8c0.5-0.7,1.1-1.4,1.7-2.2c-0.3-0.6-0.6-1.4-1.1-2.4c-0.9,1.2-1.7,1.9-2.9,1.6
				c-0.4-0.1-0.7-0.9-1.2-1.5C48.1,56.5,46.7,56.3,46.3,57.7z M38.1,11.7c0.1,0.6,0.5,1.1,0.9,1.5c0.4,0.4,1,0.7,1.5,1.1
				c0.6,0.4,0.9,0.3,1.4-0.2c0.9-0.9,0.5-2.5,1.8-3.3c0,0,0-0.2,0-0.3c0-1.2-1-1-1.7-1.1C40,9.3,37.7,9.9,38.1,11.7z M49.3,40.3
				c0.1,0.3,0,0.7,0.2,0.9c1,1.6,2.3,2.8,4.3,2.8c0.5,0,0.9,0.1,1,0.7c0,0.1,0.1,0.3,0.2,0.3c0.7,0.4,3,0.2,3.8-0.4
				c-0.9-2-0.9-2-3-1.7c-1.3,0.2-2.5-0.1-3.2-1.1C51.8,40.5,50.7,40.4,49.3,40.3z M19.7,70.3c-0.1,0.7,0.1,1.3,0.7,1.8
				c1.3,1.1,2.8,1,4.3,0.6c0.7-0.2,1.4-0.5,2-1c0.7-0.5,0.5-1.2-0.3-1.6C26.1,70,25.7,70,25.2,70C23.4,70.1,21.6,70.2,19.7,70.3z
				 M35.4,65.5c-0.1-1.4-1.3-3.3-2.4-4c-1.2-0.8-2,0.1-3,0.5c-0.1,0-0.1,0.1-0.2,0.1c-0.7,0.2-0.9,0.7-0.8,1.4
				c1.3,0.2,2.5,0.4,3.7,0.5c0.1,0.1,0.1,0.1,0.2,0.2c-0.3,0.1-0.7,0.2-0.8,0.3C32.8,66.4,34.1,66,35.4,65.5z M43.5,32.4
				c0.7-0.1,1.5-0.1,2.2-0.4c0.3-0.1,0.9-0.6,0.8-0.8c-0.3-0.9,0.4-2.1-0.6-2.8c-0.1-0.1-0.3-0.1-0.4-0.1c-1.6-0.3-3.5,1-3.9,2.6
				c-0.2,0.9,0.2,1.3,1,1.4C42.9,32.4,43.5,32.3,43.5,32.4z M20.6,73.2c-0.5-0.9-1.1-1.5-1.3-2.3C18.9,69.8,18,69.4,17,70
				c-0.8,0.5-1.5,1-2.3,1.5C14,72,14,72.6,14.9,73.1c0.3,0.2,0.7,0.3,1,0.3C17.5,73.3,19,73.2,20.6,73.2z M24.3,56.9
				c0-0.1,0-0.2-0.1-0.3c-0.9-0.4-1.7-0.9-2.6-1c-0.6-0.1-1.5,0.1-1.9,0.5c-0.3,0.3-0.2,1.3,0.1,1.8c0.8,1.3,1.9,2.4,3.3,3.3
				C23.4,59.7,21.9,57.8,24.3,56.9z M41.9,58.2c-0.1,0-0.2,0-0.4,0c-1.4,1.2-2.4,5.3-1.8,7.6c1.3,0.1,3.1-1.5,3.3-3.1
				c-1.8-0.6-2-1.1-1.3-3C41.9,59.3,41.9,58.7,41.9,58.2z M38.9,65.7c0.1-1,0.1-1.8,0.3-2.5c0.3-1.5,0.6-3.1,1.2-4.6
				c0.5-1.2,0.5-1.5-0.7-1.9c-0.5-0.2-1-0.2-1.6-0.2c0.1,0.2,0.1,0.3,0.1,0.4c1,2,0.9,2.4-0.6,4c-0.2,0.2-0.4,0.7-0.4,1.1
				C37.2,63.4,37.7,64.5,38.9,65.7z M32.8,66.2c-0.5-0.4-0.9-1-1.5-1.2c-0.8-0.4-1.9-0.9-2.4-0.1c-0.5,0.8-0.7,1.9-0.6,2.9
				c0,0.8,0.9,1.1,1.7,0.8C31.2,68.1,32.3,67.6,32.8,66.2z M50.6,33.1c-0.1,0.1-0.4,0.1-0.6,0.3c-0.9,0.8-0.9,1.8-0.7,2.8
				c0.1,0.3,0.8,0.6,1.3,0.8c0.3,0.2,0.8,0.4,1.1,0.3c0.7-0.3,1.6-0.6,1.8-1.2C53.8,35.2,51.7,33.2,50.6,33.1z M52,55.4
				c0.2-0.5,0.5-1.1,0.8-1.7c-0.9-0.8-1.8-1.5-2.7-1.2c-0.8-0.4-1.3-0.6-1.9-0.9c-0.1,0.8-0.2,1.2-0.3,1.6c-0.1,1.4,0.6,2.3,1.8,2.3
				C50.4,55.5,51.2,55.4,52,55.4z M70,39.1c1.8,0.1,4.5-1.1,4.7-2.4c0-0.3,0.1-0.8-0.1-1c-0.7-1-1.8-1.4-3.2-1.7
				C72.7,36.3,71.1,37.6,70,39.1z M42.8,35.4c0-1.3-0.2-2.3-1.5-2.3c-1.5,0-3,0.2-4.5,0.3c-0.2,0-0.6,0.5-0.5,0.6
				c0.2,0.3,0.5,0.7,0.8,0.8C38.9,35,40.8,35.1,42.8,35.4z M62.4,23.7c-1.7,0-3.3,2.2-2.8,3.5c0.1,0.3,0.8,0.7,1,0.6
				c0.9-0.4,1.8-0.9,2.5-1.6c0.4-0.4,0.4-1.2,0.3-1.8C63.3,24.1,62.6,23.9,62.4,23.7z M48.8,20.7c-0.4-0.8-0.6-1.7-1.2-2.1
				c-0.9-0.6-2-1.1-3.1-1.3c-0.2-0.1-0.7,1.1-1.1,1.7c0,0-0.1,0.1-0.1,0.1c0.2,0.3,0.3,0.9,0.5,0.9C45.4,20.2,46.9,20.4,48.8,20.7z
				 M44.9,62c-0.1,0-0.2-0.1-0.4-0.1c-0.9,1.4-1.9,2.7-2.8,4c0.4,0.3,1.1,0.6,1.6,1c0.4,0.4,0.7,0.9,1,1.4c0.1,0,0.3-0.1,0.4-0.1
				C45.6,66.1,44.8,64,44.9,62z M56.2,30.6c0-0.1-0.1-0.2-0.1-0.3c-2.5,0.8-5,1.5-7.5,2.3c0,0.9-0.1,2-0.1,3.1
				c0.4-0.7,0.5-1.5,0.7-2.2c0.2-0.8,0.7-1.1,1.6-0.8c1.3,0.4,2.2,1.2,2.8,2.3c0.2,0.4,0.5,0.9,0.7,1.3C53.5,33,53.8,32,56.2,30.6z
				 M66.3,63.5c0.7-1,1.3-1.9,1.9-2.7c0.2-0.4,0.8-0.9,0.7-1.1c-0.2-0.4-0.7-0.7-1.1-0.8c-1.4-0.3-2.4,0.5-3.3,1.5
				C65.1,61.5,65.7,62.5,66.3,63.5z M32.3,41c0,0.2,0.1,0.4,0.1,0.5c1.7,0.5,3.5,0.8,5.2,0.1c0.5-0.2,0.7-1,1.1-1.5
				c-0.6-0.2-1.2-0.7-1.7-0.6C35.4,39.9,33.8,40.5,32.3,41z M54.4,55.8c0,0.5,0,0.9,0.1,1.2c0.2,0.6,0.5,1.2,0.9,1.8
				c0.1,0.2,0.6,0.3,0.8,0.2c1.2-0.5,2.6-3.8,1.4-5.2C55.3,56.1,55.3,56.1,54.4,55.8z M19.6,69.1c0,0.1,0.1,0.3,0.1,0.4
				c1.4,0.5,4.6,0.2,5.8-0.7c-0.4-0.5-0.9-1.1-1.4-1.6c-0.3-0.3-0.9-0.7-1.2-0.6c-0.5,0.2-1.3,0.3-1.1,1.3c0,0.1-0.5,0.4-0.7,0.6
				C20.7,68.7,20.2,68.9,19.6,69.1z M56.6,38.9c0,0.2-0.1,0.3-0.1,0.5c0.3,0.7,0.7,1.3,1.1,2c0.1,0.2,0.5,0.4,0.7,0.4
				c0.8-0.2,1.7-0.4,2.5-0.7c0.2-0.1,0.5-0.6,0.4-0.8c-0.1-0.4-0.5-1.1-0.8-1.1C59.1,38.9,57.9,39,56.6,38.9z M57.5,41.9
				c-0.6-0.9-1-2.1-1.7-2.3c-1.1-0.3-2.5-0.1-3.4,1C53.6,42.2,54.7,42.5,57.5,41.9z M65.9,37.4c-1.6,2.5-1.6,2.5,0.8,4.1
				c0.1,0.1,0.3,0.1,0.4,0.2C68.6,39.5,68.2,38,65.9,37.4z M17.6,66.5C17.6,66.5,17.6,66.5,17.6,66.5c-0.4-0.1-0.8-0.2-1.1-0.1
				c-0.5,0.3-0.8,0.8-1.3,1.2c0.3,0.3,0.6,0.6,0.9,0.9c1.3,1,2.3,0,3.4-0.5c0.2-0.1,0.5-0.6,0.5-0.8c-0.1-0.3-0.5-0.6-0.8-0.7
				C18.7,66.4,18.1,66.5,17.6,66.5z M16.4,65c1.7-1,3.1-1.8,4.5-2.7c-0.1-0.1-0.1-0.2-0.2-0.3c-1.6-0.1-3.2-0.1-4.9-0.2
				C16,63,16.2,63.9,16.4,65z M47.4,22.2c0.1,1,0.5,1.6,1.5,1.3c0.2-0.1,0.5,0,0.8,0c1.1-0.2,2.2-0.4,3.4-0.6
				c-0.8-1.9-2.6-0.4-3.5-1.4C49.4,21.2,48.2,21.9,47.4,22.2z M34.4,22c2.3,0.9,4.5,0.8,6.8,0.1C39.2,20.8,35.3,20.7,34.4,22z
				 M26.4,58.2c-0.7-0.3-1.3-1-2.1-0.2c-0.8,0.8-0.9,1.8-0.3,2.5c0.4,0.5,1.4,0.5,2.2,0.8c0-0.8,0-1.3,0.1-1.7
				C26.3,59.1,26.4,58.7,26.4,58.2z M55.1,31.9c-0.2,0.3-0.2,0.4-0.3,0.5c-0.6,0.9-0.6,2.5,0.3,3.2c0.4,0.3,1.1,0.3,1.6,0.2
				c0.4-0.1,0.6-1.8,0.3-2.1C56.4,33.1,55.8,32.6,55.1,31.9z M31.9,55.2c-1.3-1.4-4.4-0.4-6.3,0.4c0.2,0.7,0.5,1,1.3,0.8
				c0.5-0.2,1.1-0.1,1.6-0.2C29.6,55.9,30.7,55.6,31.9,55.2z M34.4,61.7c0.6,1.3,1.1,2.5,1.6,3.7c0.1,0.2,0.3,0.3,0.5,0.3
				c0.5,0.1,1,0,1.2,0.1c-0.4-1.3-0.8-2.6-1.2-3.9c-0.1-0.2-0.4-0.4-0.6-0.4C35.4,61.5,34.8,61.6,34.4,61.7z M48.7,18.8
				c0.2,0.6,0.2,1.2,0.5,1.7c0.3,0.4,0.8,0.7,1.3,0.8c1.6,0.3,1.7-1.2,2.4-2.1C51.5,19,50.2,18.9,48.7,18.8z M43.8,61.6
				c0.5-0.6,1-0.9,1.1-1.2c0.1-0.7,0.1-1.5,0-2.3c0-0.5,0-1.2-0.8-1.1c-0.6,0-1.5,0-1.3,1C43.1,59,43.4,60.1,43.8,61.6z M47.4,38.7
				c-0.1-1-0.2-1.8-0.3-2.5c-0.2-0.9-1.3-1.3-2-0.7c-0.3,0.2-0.5,0.6-0.8,0.6c-0.8,0.1-0.8,0.8-0.7,1.3c0,0.1,0.8,0.2,1.2,0.2
				c0.3,0,0.6-0.4,0.9-0.6c0.2-0.2,0.5-0.3,0.7-0.5c1,0.9,0.4,1.3-0.5,1.8C46.4,38.5,46.8,38.6,47.4,38.7z M38.8,38.1
				c0.4,1.1,0.7,1.9,1,2.8c0.1,0.1,0.2,0.3,0.4,0.3c0.7,0.2,1.3,0.4,2,0.5C43,40.4,42,39.3,38.8,38.1z M49.2,31.7
				c1.6-0.4,2.9-0.8,4.4-1.2c-1.1-0.6-1.9-2-3.2-1.5C50,29.9,49.7,30.6,49.2,31.7z M44.4,54c0.2,0.7,0.3,1.3,0.5,1.7
				c0.1,0.3,0.4,0.7,0.6,0.7c0.3,0,0.8-0.2,1-0.5c0.6-0.8,0.4-1.6-0.3-2.3c-0.2-0.2-0.6-0.5-0.8-0.5C45,53.4,44.7,53.7,44.4,54z
				 M70.4,68.1c0-0.1,0-0.3,0-0.4c-0.4-0.2-0.8-0.5-1.2-0.4c-0.8,0.1-1.6,0.3-2.4,0.7c-0.3,0.1-0.5,0.7-0.5,1.1
				c0,0.2,0.7,0.6,0.9,0.5C68.3,69.1,69.3,68.5,70.4,68.1z M32,38.7c0.5-0.3,1.1-0.4,1.5-0.7c0.3-0.2,0.6-0.7,0.5-1
				c-0.1-0.4-0.5-0.8-0.9-0.9c-0.8-0.3-1.4,0.2-1.7,0.9c-0.2,0.3-0.4,0.7-0.3,1C31.2,38.3,31.6,38.4,32,38.7z M42.4,19.6
				c0.4-0.7,0.7-1.1,1-1.6c0.7-1.2,0.7-1.3-0.5-1.8c-0.4,0.2-0.9,0.3-1.1,0.6c-0.3,0.3-0.8,0.9-0.7,1.2C41.3,18.6,41.8,19,42.4,19.6
				z M53.2,27.5c0.6,1.4,1.8,1.3,2.8,1.5c0.3,0,0.8-0.3,0.9-0.6c0.1-0.3-0.1-0.8-0.3-1C55.4,26.4,54.3,27.1,53.2,27.5z M46.4,39.3
				c-1.2-0.1-1.5,0.3-1.6,1.4c0,0.7,0.2,1.1,0.9,1c0.8,0,1.6-0.2,1.7-1.1C47.6,40,47.4,39.2,46.4,39.3z M65.1,37.4
				c-2-0.8-2.6-0.8-2.9,0c-0.2,0.5,0.6,1.8,1.3,1.8C64.7,39.4,64.6,38.2,65.1,37.4z M62.8,34.5c0,0.7,0,1.2-0.1,1.8
				c0.5,0.1,0.9,0.2,1.4,0.3C65.5,37,63.9,34.8,62.8,34.5z M52.2,28.3c-0.6-0.7-1.1-1.3-1.6-1.8c-0.9-0.9-1.1-0.9-1.9,0.2
				C49.5,27.7,50.2,28.8,52.2,28.3z M27.4,58.3c-0.2,0.1-0.4,0.2-0.5,0.3c-0.1,0.6-0.2,1.3-0.2,1.9c0,0.4,0.3,1.2,0.5,1.2
				c0.4,0.1,1.1-0.2,1.4-0.5c0.2-0.2,0-0.9-0.2-1.3C28.2,59.3,27.8,58.8,27.4,58.3z M42.3,20.9c0.4,0.5,0.7,0.9,1,1.4
				c-0.6,0.2-1,0.4-1.7,0.6c0.8,0.3,1.3,0.5,1.8,0.7c0.5-0.8,0.9-1.4,1.3-2.1C43.4,20.5,42.8,20.3,42.3,20.9z M32.3,58.6
				c-0.1-1-0.7-1.5-1.5-1.7c-0.3,0-0.8,0.3-1.1,0.5c-0.1,0.1,0.2,0.6,0.3,0.8c0.2,0.3,0.6,0.5,0.9,0.8c0.3,0.2,0.7,0.4,0.9,0.3
				C32.1,59.2,32.2,58.8,32.3,58.6z M72.7,69.5c-0.8-0.4-1.5-0.9-2.1-0.9c-0.7,0.1-1.4,0.7-2.3,1.3C69.9,70.4,71.3,70.7,72.7,69.5z
				 M53.2,16.2c-1.8-0.2-3.5-0.4-5.6-0.6C49,17.1,51.5,17.4,53.2,16.2z M70.9,67.4c1-1.3,0.6-2.6-1-4.1c-0.3,0.4-0.5,0.7-0.8,1.1
				c1.6,0.4,1.7,0.8,0.8,2.3C70.2,66.9,70.6,67.2,70.9,67.4z M45,45.1c-0.1,0-0.1-0.1-0.2-0.1c-0.5,0.3-1,0.6-1.4,1
				c-0.4,0.3-0.9,0.9-0.8,1.2c0.2,0.5,0.7,1,1.1,1.4C44.2,47.3,44.6,46.2,45,45.1z M41.9,55.4c-1.2-0.8-2.5-1.1-3.9-0.9
				C38.1,55.9,40,56.3,41.9,55.4z M46.8,102.4c-0.1,0-0.2,0-0.3,0c-0.8,2.6,0,5.2,0,7.5C46.6,107.6,46.7,105,46.8,102.4z M45.3,44.4
				c0.8,0,1.5,0.1,2.2,0.1c0-0.6-1.7-1.7-2.4-1.7c0,0.2,0,0.3,0,0.5C45.2,43.6,45.3,44.1,45.3,44.4z M21.6,63.2
				c-0.8,0.2-1.6,1.6-1.2,1.9c0.7,0.3,1.6,0.3,2.4,0.4c0-0.1,0-0.2,0.1-0.3C22.4,64.5,22,63.8,21.6,63.2z M39.4,68
				c1.3-0.3,2.5,0,3.4-1c-1-0.7-2.1-0.8-3.1-0.4C39.5,66.7,39.6,67.4,39.4,68z M35.3,66.6c-0.2-0.1-0.5-0.3-0.6-0.2
				c-0.8,0.6-1.5,1.2-2.2,1.9c0,0,0.2,0.6,0.3,0.6C33.5,69,35.3,67.4,35.3,66.6z M49.4,4.8C48.7,5.1,48,5.7,47.1,6
				c-0.9,0.4,1.5,1.7,2.4,1.3C50.3,7,50.5,4.2,49.4,4.8z M27.6,66.9c0.3-0.9,0.6-1.9,0.9-2.8c-1.1,0.6-2.1,1.2-3.1,1.8
				C26.1,66.1,26.8,66.5,27.6,66.9z M67.3,64.4c0.1,0.1,0.2,0.2,0.4,0.2c1-0.5,1.7-1.3,2-2.4c0-0.2,0-0.5-0.2-0.6
				c-0.2-0.1-0.6,0-0.7,0.1C68.2,62.5,67.8,63.5,67.3,64.4z M59.3,44.4c0.7-1,1.3-1.7,1.8-2.4c-0.1-0.1-0.2-0.2-0.3-0.3
				c-0.9,0.3-1.7,0.6-2.7,0.9C58.6,43.2,58.9,43.7,59.3,44.4z M44.8,13.6c0.1-0.4-0.4-0.8-0.8-1c-0.1-0.1-0.6,0-0.8,0.2
				c-0.5,0.7-1,1.5-1.4,2.2c0.1,0.1,0.1,0.3,0.2,0.3C43.1,15.5,44.6,14.8,44.8,13.6z M64,44.2c1.2-0.4,2-0.7,2.4-1.5
				c-0.7-0.6-1.3-1-1.9-1.5c0,0.6,0.1,1,0,1.5C64.5,43,64.3,43.4,64,44.2z M49.4,42.5c-0.2,1.6-0.4,3.1-0.7,4.7
				c0.2,0.1,0.3,0.1,0.5,0.2c0.2-0.3,0.5-0.6,0.5-0.9C49.9,45.2,49.5,42.5,49.4,42.5z M48.9,8.1c-0.5-1.2-2.3-0.3-3.5-0.5
				C46.3,9.4,49.6,10,48.9,8.1z M47.1,34.7c-0.5-0.8,0.3-1.9-0.9-2c-0.5,0-1.2-0.1-1.2,0.9C45,35,46.1,34.4,47.1,34.7z M44.8,12.6
				c0.2,0.4,0.2,1.1,0.7,1.2c1.6,0.5,2.7-2.2,1.3-2.7C46,10.9,45.5,12.1,44.8,12.6z M22.5,63.1c0.3,1.7,0.9,2.3,1.9,1.9
				c-0.4-0.6-0.7-1.1-1.1-1.7c0.7-0.1,1.2-0.1,1.9-0.2C24.1,62,23.3,63.1,22.5,63.1z M20,63.4c-1,0.6-1.8,1.2-2.8,1.9
				C19.8,65.9,20.2,65.6,20,63.4z M63.3,70.2c0.1,0.1,0.1,0.2,0.2,0.4c0.8-0.1,1.6-0.3,2.4-0.4c-0.2-0.7-0.4-1.2-0.6-1.9
				C64.5,69,63.9,69.6,63.3,70.2z M45.4,46.2c-0.1,0-0.3,0-0.4,0c0,0.7-0.3,1.8,0,2.1c0.7,0.5,1.3-0.2,1.8-0.8
				C46.3,47,45.9,46.6,45.4,46.2z M52.3,50.9c-0.8,1.5-0.8,1.5,1.3,2.6C53.4,52.5,53.7,51.3,52.3,50.9z M58.6,34.1
				c0,0.1-0.1,0.3-0.1,0.4c0.7,0.4,1.4,0.7,2.1,1.1C60.9,35.1,59.5,34.1,58.6,34.1z M51.2,47.3c-0.9,1.3-0.7,3.2,0.3,3.9
				C51.4,49.9,51.3,48.6,51.2,47.3z M63.6,63.8c0.2,0.8,0.2,1.7,0.5,1.9c0.6,0.3,1.4,0.1,1.9-0.7C65.3,64.6,64.6,64.3,63.6,63.8z
				 M51.2,76.8c0.1,0,0.2,0,0.3,0c-0.3-1.9,0.2-3.8-0.2-5.7c-0.2,0-0.3,0-0.5,0C50.9,73,51,74.9,51.2,76.8z M32.2,19.8
				c-0.1,0.1-0.2,0.3-0.3,0.4c0.5,0.4,1,1,1.7,1.3c0.2,0.1,0.7-0.6,1.3-1.1C33.7,20.1,32.9,19.9,32.2,19.8z M46.7,114.4
				c-0.1,0-0.2,0-0.3,0c-0.1,2-0.1,4-0.2,6c0.1,0,0.2,0,0.3,0C46.5,118.4,46.6,116.3,46.7,114.4z M44,8.5c0.1,0.8,0.3,1.5,0.4,2.4
				c0.5-0.3,1.4-0.2,1.5-0.9C46,9.2,44.1,8.5,44,8.5z M40.9,43.5c0-0.1-0.1-0.2-0.1-0.3c-2.5,0.1-3.4,0.4-3.4,1.4
				C38.6,44.3,39.7,43.9,40.9,43.5z M48.6,10.1c0.2,0.4,1,0.8,1.2,0.7c0.5-0.3,1.2-0.7,1.3-1.3C51,9.3,48.6,10,48.6,10.1z
				 M44.8,23.3c0.6,0.7,1.3,0.5,2,0.3c0.1,0,0-0.7-0.1-0.8C45.9,22.2,45.3,22.4,44.8,23.3z M59.1,35.6c0.7,1,1.2,1.7,1.9,2.6
				C61.2,36.5,60.8,35.9,59.1,35.6z M52.8,46.5c0.1-0.1,0.3-0.1,0.4-0.2c-0.1-0.4-1.7-1.2-1.7-1C51.1,46.6,52.7,45.5,52.8,46.5z
				 M47.9,21.4c0-0.1,0-0.2,0-0.3c-1.2-0.2-2.3-0.4-3.5-0.7C44.4,20.6,46.6,22.1,47.9,21.4z M62.3,44c1.3-0.5,1.8-1.6,1.2-2.9
				C63.1,42.2,62.7,43.1,62.3,44z M61.6,42.1c0.1,0,0.3,0.1,0.4,0.1c0.3-0.8,0.7-1.5,0.9-2.4c0-0.2-0.7-0.5-1-0.8
				c-0.1,0.1-0.2,0.1-0.3,0.2C62.6,40.2,62.1,41.2,61.6,42.1z M43.3,61.8c-0.2-1-0.3-1.6-0.5-2.2c-0.2,0-0.3,0-0.5,0
				c-0.1,0.6-0.2,1.1-0.2,1.7C42.2,61.4,42.7,61.5,43.3,61.8z M47.7,79.7c-0.1,0-0.1,0-0.2,0c-0.1,2-0.1,4-0.2,5.9
				c0.1,0,0.1,0,0.2,0C47.6,83.6,47.7,81.6,47.7,79.7z M43.3,34.9c1.2-0.1,1.4-0.6,1.1-1.2c-0.1-0.2-0.5-0.3-0.8-0.4
				C43.5,33.8,43.4,34.4,43.3,34.9z M24.9,65c0.6-0.6,1.1-1.1,1.6-1.6c-0.1-0.1-0.1-0.1-0.2-0.2c-0.6,0.2-1.3,0.4-2,0.6
				C24.5,64.2,24.6,64.5,24.9,65z M49.7,48.1c-1.4,0.1-1.7,0.7-1,2.2C49.1,49.6,49.3,48.9,49.7,48.1z M66,64.1
				c-0.5-0.7-1-1.4-1.5-2.1C63.9,63.2,64.5,64,66,64.1z M29,58.1c0.1,1.3,1.3,2.1,2.1,1.6C30.5,59.3,29.9,58.8,29,58.1z M51.3,65.9
				c-0.1,0-0.2,0-0.4,0c0,1.3,0.1,2.6,0.1,3.9c0.1,0,0.2,0,0.4,0C51.4,68.4,51.3,67.1,51.3,65.9z M52.4,17.4
				c-0.1,0.1-0.1,0.2-0.2,0.3c0.5,0.3,1.5-0.1,1.6-0.7C53.1,17.3,52.7,17.4,52.4,17.4z M43,69.9c0.4-0.5,0.7-0.9,1.1-1.2
				c-0.1-0.1-0.1-0.2-0.2-0.3c-0.5,0.1-1.1,0.1-1.7,0.2C42.5,69,42.7,69.4,43,69.9z M47.7,26.8c-0.1,0.1,0.4,1.4,0.9,2.1
				c0.3-0.3,0.5-0.5,0.9-0.8C48.7,27.6,48.2,27.2,47.7,26.8z M50.9,63.9c0.9-1.1,0.8-2.1,0.1-2.6C50.9,62.2,50.9,63,50.9,63.9z
				 M70.6,36.3c0.1-0.6,0.2-1.1,0.3-1.6c-0.1-0.1-0.2-0.1-0.3-0.2C70.2,34.7,70,35.9,70.6,36.3z M68.4,66.6
				c-0.5-0.4-0.8-0.6-1.2-0.9c-0.3,0.5-0.6,1-0.9,1.5c0.1,0.1,0.1,0.1,0.2,0.2C67,67.2,67.6,67,68.4,66.6z M40.1,16.5
				c-0.6,0.4-1.2,0.5-1.3,0.9c0,0.4,0.6,0.7,0.9,1c0.1-0.1,0.2-0.1,0.2-0.2C40,17.7,40,17.3,40.1,16.5z M53.6,54.4
				c-0.1,0-0.2,0-0.3-0.1c-0.1,0.4-0.4,0.8-0.4,1.2c0.1,0.3,0.6,0.6,0.9,0.9c0.1-0.1,0.2-0.1,0.3-0.2C53.9,55.6,53.7,55,53.6,54.4z
				 M49.7,67c-0.1,0-0.3,0-0.4,0c0.1,1.3,0.2,2.6,0.3,3.9c0.1,0,0.2,0,0.3,0C49.8,69.7,49.8,68.3,49.7,67z M41.5,42.6
				c-1.1-0.9-1.7-0.8-2.3,0.3C39.9,42.8,40.6,42.7,41.5,42.6z M27.7,64c-0.1-0.2-0.2-0.3-0.3-0.5c-0.6,0.5-1.2,0.9-1.9,1.4
				c0.1,0.1,0.2,0.2,0.2,0.4C26.5,64.8,27.1,64.4,27.7,64z M64.3,66.5c0,0.1-0.1,0.3-0.1,0.4c0.3,0.2,0.7,0.3,1,0.5
				c0.2-0.4,0.4-0.8,0.6-1.2c-0.1-0.1-0.2-0.1-0.3-0.2C65,66.2,64.7,66.4,64.3,66.5z M68.8,37.6c0.5-0.1,0.6-1.2,0.1-1.7
				C68.8,36.6,68.8,37,68.8,37.6z M26.8,57.1c0,0.1,0,0.2,0.1,0.3c2.1,0.1,2.1,0.1,2.2-0.7C28.2,56.8,27.5,56.9,26.8,57.1z
				 M46.4,26.2c0.7-0.2,1.3-0.3,2.1-0.5C47.1,25,47,25.1,46.4,26.2z M49.8,60.2c-0.2,0-0.3,0.1-0.5,0.1c0.2,0.7,0.3,1.4,0.5,2
				c0.1,0,0.2,0,0.3-0.1C50.1,61.6,50,60.9,49.8,60.2z M46.9,46.6c0.1,0,0.2-0.1,0.3-0.1c-0.1-0.4-0.2-0.9-0.4-1.3
				c0-0.1-0.6,0.1-1.1,0.2C46.3,45.9,46.6,46.3,46.9,46.6z M48,47.1c-0.1,0-0.2,0-0.3,0c-0.3,2-0.3,2,0.1,2.4
				C47.9,48.7,47.9,47.9,48,47.1z M57.6,28.2c0,0.5,0,0.9,0,1.4c0.2-0.1,0.7-0.1,0.7-0.2C58.2,29,57.8,28.2,57.6,28.2z M47.3,62.3
				c0.2,0.1,0.3,0.2,0.5,0.3c0.2-0.4,0.5-0.9,0.7-1.3C48.4,61.2,48,61,48,61.1C47.7,61.5,47.5,61.9,47.3,62.3z M48.6,30.7
				c0.3-0.4,0.7-1.6,0.5-1.7C48.8,29.5,48.4,30.6,48.6,30.7z M67.8,65.3c0.5,0.4,0.8,0.7,1.2,0.9c0.3-0.3,0.5-0.6,0.8-0.9
				c0-0.1-0.1-0.2-0.1-0.3C69.1,65.2,68.6,65.2,67.8,65.3z M37.7,42.8c0-0.1,0-0.3,0-0.4c-0.8,0-1.6,0.1-2.5,0.1c0,0.1,0,0.2,0,0.3
				C36,42.9,36.8,42.8,37.7,42.8z M55,38.2c0.2-0.1,0.3-0.1,0.5-0.2c-0.2-0.4-1-1-1-0.9C54.6,37.5,54.8,37.9,55,38.2z M55,24.1
				c0.2,0.4,0.4,0.9,0.6,1.3c0,0,0.3-0.1,0.5-0.2C55.9,24.7,55.2,24,55,24.1z M42.3,118.9c-0.1,0-0.2,0-0.2,0
				c-0.1,1.2-0.3,2.4-0.4,3.6c0.1,0,0.2,0,0.3,0C42.1,121.3,42.2,120.1,42.3,118.9z M60,44.7c0,0.1,0.1,0.2,0.1,0.3
				c0.4,0,0.8-0.1,1.3-0.1c-0.2-0.5-0.4-0.8-0.5-1.2C60.5,44.1,60.2,44.4,60,44.7z"/>
			<path class="st0" d="M53.8,75.9c0,2.7,0,5.4,0.1,8.1c0.1,2.7,0.3,5.4,0.5,8.1c0.4,4.6,0.9,9.3,1.4,13.9c0.2,2.1,0.3,4.1,0.4,6.2
				c0,0.3,0,0.6,0,1c-0.1,0-0.2,0.1-0.4,0.1c-0.2-0.4-0.4-0.9-0.4-1.3c-0.2-2.7-0.2-5.3-0.4-8c-0.3-3.2-0.7-6.3-1-9.5
				c-0.2-2.1-0.2-4.2-0.3-6.3c-0.1-2.5-0.3-4.9-0.4-7.4c0-1.6,0.1-3.2,0.1-4.8C53.5,75.8,53.7,75.9,53.8,75.9z"/>
			<path class="st0" d="M53.3,94c0,1.1-0.2,2.2-0.1,3.3c0.3,5,0.4,10.1,0.9,15.1c0.4,4.3,1.2,8.6,1.9,13c0.3,1.8,0.6,3.6,0.8,5.3
				c0,0.3-0.1,0.5-0.2,0.8c-0.2-0.2-0.6-0.4-0.7-0.7c-0.2-1-0.2-1.9-0.3-2.9c-0.4-2.6-0.9-5.3-1.2-7.9c-0.4-3.5-0.6-7-0.9-10.4
				c-0.2-3.1-0.4-6.2-0.6-9.3c-0.1-1.8-0.1-3.7-0.2-5.5c0-0.3,0.2-0.7,0.3-1C53.1,93.9,53.2,94,53.3,94z"/>
			<path class="st0" d="M52.7,134.2c-0.2-0.3-0.5-0.5-0.5-0.8c-0.2-2.4-0.5-4.8-0.6-7.2c-0.1-2.2-0.1-4.4-0.2-6.6
				c-0.1-3.6-0.2-7.2-0.2-10.8c0-3.6,0.1-7.1,0.2-10.7c0-0.3,0.1-0.7,0.4-1c-0.8,10.8,0.6,21.5,0.4,32.2c0.1,0,0.2,0,0.3,0
				c0.1-0.4,0.1-0.9,0.2-1.3c0,0,0.1,0,0.1,0c0.1,2,0.2,3.9,0.3,5.9C53,134,52.8,134.1,52.7,134.2z"/>
		</g>
		<path class="st0" d="M93.4,110c-0.8,0.1-0.7,0.6-0.7,1.1c0.2,0.2,0.4,0.3,0.6,0.5c-0.6-0.1-1,0-1.3,0.7c-0.1,0.2-0.5,0.3-0.8,0.5
			c-0.1,0.1-0.3,0-0.3,0.1c-0.3,0.6-1,0.6-1.5,0.7c-1.5,0.1-1.7-0.2-2-1.6c0-0.2-0.2-0.4-0.4-0.4c-0.6-0.1-1.2-0.2-1.8-0.3
			c-0.2,0-0.3-0.3-0.5-0.4c0.2-0.1,0.3-0.3,0.5-0.3c0.2,0,0.5,0.1,0.7,0.2c0.7,0.3,0.9,0.1,0.9-0.6c0-0.1,0-0.2,0-0.4
			c0-0.9,0.6-1.4,1.5-1.1c0.3,0.1,0.7,0.3,1,0.4c0.2-0.7,0.1-1.4-0.1-2.2c-0.2-0.6-0.6-0.8-1.2-0.7c-0.1,0-0.3-0.1-0.4-0.1
			c0.1-0.1,0.2-0.3,0.4-0.3c0.3-0.1,0.5,0,0.8,0c0.8-0.1,1.6-0.2,2.2-0.8c0.2-0.2,0.2-0.7,0.2-1c0-0.1-0.4-0.2-0.7-0.3
			c-0.4-0.1-0.8-0.1-1.2-0.1c-0.1,0-0.3-0.2-0.3-0.3c0-0.1,0.1-0.3,0.3-0.4c0.6-0.3,1.2,0,1.7,0.2c0.4,0.2,1.3,0.1,1.7-0.3
			c0.5-0.5-0.1-0.8-0.2-1.2c-0.2,0.1-0.3,0.2-0.5,0.3c-0.2,0.1-0.4,0.2-0.5,0.2c-0.1,0-0.4-0.2-0.4-0.3c0-0.4,0.5-1,1-0.9
			c0.5,0.1,0.7-0.1,0.9-0.5c-0.5,0-0.9,0-1.3-0.1c-0.3-0.1-0.7-0.3-0.7-0.5c-0.1-0.4,0.3-0.7,0.7-0.8c0.4,0,0.7,0.1,1.1,0.1
			c0.2,0,0.3,0,0.5-0.1c-0.1-0.1-0.3-0.3-0.4-0.4c-0.1-0.1-0.2-0.2-0.2-0.2c0.7-0.1,0.8-0.3,0.5-1.4c-0.5,0.3-1,0.7-1.5,1
			c0,0,0.1,0.1,0.1,0.1c0.3,0.1,0.7,0.2,1,0.2c-0.5,0.1-1,0.1-1.4,0.2c0,0-0.2-0.3-0.2-0.4c0.3-0.4,0.7-0.7,1.1-1
			c0.2-0.1,0.3-0.3,0.5-0.4c-0.2-0.1-0.3-0.3-0.5-0.4c-0.3-0.1-0.6-0.4-0.3-0.7c0.5-0.4,0.3-0.8,0.2-1.3C92,94.1,92,93.8,92,93.6
			c-0.1-0.5,0.2-0.8,0.7-0.7c0.4,0.1,0.9,0.2,1.2,0.5c0.4,0.3,0,0.7-0.2,1.1c-0.2,0.2-0.4,0.4-0.6,0.6c-0.1,0.2-0.3,0.4-0.3,0.6
			c0,0.2,0.2,0.4,0.4,0.4c0.3,0.1,0.6,0.1,0.8,0.2c0.2,0.1,0.4,0.2,0.6,0.4c-0.4,0.2-0.8,0.1-1,0.3c-0.4,0.3-0.1,1.4,0.5,1.5
			c0.4,0.1,0.8,0.1,1.2,0.2c0.2,0,0.3,0.1,0.5,0.2c-0.1,0.2-0.1,0.4-0.3,0.5c-0.4,0.2-0.8,0.3-1.2,0.5c-0.1,0.1-0.3,0.3-0.3,0.4
			c0,0.2,0.2,0.5,0.3,0.5c0.3,0,0.6-0.1,0.9-0.2c0.2,0,0.3-0.1,0.5-0.1c0,0.2-0.1,0.4-0.2,0.4c-0.7,0.4-0.7,1.2-0.9,1.9
			c-0.2,0.6,0.2,0.9,0.8,0.8c0.7-0.2,1.4-0.4,2.1-0.6c0.3-0.1,0.6-0.2,1-0.2c0.2,0,0.5,0.1,0.5,0.2c0,0.2,0,0.5-0.2,0.6
			c-0.3,0.2-0.7,0.4-1.1,0.6c0.3,0.1,0.6,0.2,0.9,0.3c0.5,0.1,0.7,0.4,0.6,0.9c-0.1,0.4-0.2,0.8-0.2,1.2c0,0.4-0.2,0.7-0.7,0.7
			c0.1,0.5-0.2,0.7-0.6,0.9c-0.4,0.2-0.8,0.3-1.1,0.4c-0.4,0.2-0.8,0.5-1.1,0.8c-0.2,0.2-0.3,0.5-0.5,0.9c0.4,0.9,1.1,1.5,2.4,1.5
			c-0.2-0.4-0.4-0.7-0.5-1c-0.1-0.2-0.2-0.5-0.1-0.7c0.1-0.1,0.4-0.2,0.7-0.2c0.9,0,1.7,0.3,2.6,0c0.1,0,0.2,0,0.3,0
			c-0.5,0.5-1.1,0.9-1.5,1.5c-0.4,0.5-0.7,1.2-0.6,2.1c0.6-0.5,1.3-0.8,1.4-1.6c0.1-0.6,1.1-1.2,1.8-1c0,0.1,0,0.2-0.1,0.2
			c-0.4,0.3-0.8,0.7-1.1,1c-0.3,0.3-0.3,0.6,0,0.8c0.2,0.2,0.4,0.4,0.7,0.5c0.3,0.1,0.7,0.2,1.1,0.3c0.6,0.2,0.9,0.6,0.7,1
			c-0.2,0.3-0.5,0.7-0.9,0.8c-1.1,0.4-2.9,0-3.5-1.1c-0.2-0.4-0.5-0.4-0.9-0.4c-1.1,0.1-2.3,0.3-3.3-0.6c-0.1-0.1-0.3-0.1-0.5-0.1
			c0,0.3-0.1,0.6,0,0.8c0,0.2,0.1,0.4,0.2,0.5c0.4,0.3,0.8,0.6,1.3,0.9c0.6-0.1,1.2-0.9,2-0.4c-0.2,0.2-0.5,0.4-0.7,0.4
			c-0.8-0.2-1.1,0.1-1.2,0.8c-0.2,0.1-0.5,0-0.7,0.2c-0.5,0.4-0.7,1-0.6,1.7c0.3,2.1,0.5,4.2,1,6.2c0.6,2.3,1.4,4.6,4.1,5.3
			c0.1,0,0.2,0.2,0.3,0.3c0,0-0.1,0.2-0.1,0.2c-0.2,0-0.4,0-0.5,0c-0.3-0.1-0.5-0.4-0.8-0.5c-0.9-0.5-1.5-1.2-2.1-2.1
			c-1.3-2-1.5-4.2-1.9-6.4c-0.1-0.9,0-1.8-0.6-2.5c-0.1-0.1,0-0.2,0-0.3c0.2-1.1,0.3-2.2-0.5-3.4c0.3,0.1,0.4,0.2,0.6,0.3
			c-0.1-0.6-0.3-0.7-1.4-0.8c0.8,1.4,0.2,3,0.4,4.5c0.3,2,0.3,4.1,0.4,6.2c0,0.3,0.1,0.6,0.2,1c0.1,0,0.2,0,0.3,0
			c0-0.4,0.1-0.9,0.1-1.3l0,0c0.1,0.1,0.2,0.3,0.2,0.4c0.5,1.8,1.4,3.3,3,4.3c0.1,0,0.1,0.1,0.2,0.2c-0.1,0.1-0.1,0.1-0.2,0.1
			c-0.1,0-0.1,0-0.2,0c-0.7-0.2-1.2-0.6-1.6-1.2c-0.4-0.8-0.9-1.6-1.3-2.4c-0.7,0.6,0.2,1.4-0.3,2.1c-0.1-0.2-0.1-0.4-0.2-0.5
			c-0.1,0.4-0.1,0.8-0.2,1.1c0,0.2-0.1,0.3-0.2,0.4c-0.1-0.1-0.3-0.1-0.4-0.2c-0.2-0.2-0.3-0.5-0.6-0.8c-0.3,0.4-0.5,0.7-0.8,1.2
			c0.1-0.8,0.4-1.2,1.1-1.5c0.2,0.2,0.4,0.5,0.7,0.8c0.1-0.3,0.1-0.5,0.1-0.7c0-0.7,0-1.4-0.1-2.1c-0.1-1.9-0.2-3.9-0.2-5.8
			c0-0.2-0.1-0.3-0.1-0.5c0,0-0.1,0-0.1,0c0,0.2,0,0.4,0,0.5c0,0.7,0.2,1.5,0.1,2.2c-0.2,1.7-0.3,3.4-1.1,5c-0.2,0.5-0.3,1-0.5,1.4
			c-0.2,0.4-0.4,0.8-1,0.8c0.2-0.4,0.4-0.7,0.6-1c0.9-1.7,1-3.5,1.1-5.4c0.1-1.1,0.2-2.3,0.2-3.4c0.1-0.7,0.4-1.5,0.1-2.2
			c-0.2-0.6-0.6-1-1.1-1.3c-0.4-0.2-0.9-0.4-1.4-0.7c0.3-0.2,0.4-0.3,0.5-0.3c0.9,0.4,1.9,0.8,2.4,1.9c0-0.2,0-0.4,0-0.5
			c-0.2-0.9-0.4-1.8-0.5-2.7c0-0.2,0.1-0.6,0.3-0.6c0.4-0.2,0.9-0.2,1.3-0.3c0.1,0,0.3-0.2,0.3-0.3c0.1-0.4,0.1-0.8,0.2-1.2
			C93.4,111.1,93.4,110.6,93.4,110z M92.7,103.4c-1,0.1-1.3,0.6-1.1,1.5c0.1,0.4,0.3,0.8,0.5,1.2c0.1,0.1,0.3,0.1,0.5,0.1
			c1.4-0.4,2.8-0.7,4.1,0.1c0.3,0.2,0.5,0.4,0.8,0.6c0.6,0.4,1,0.3,1.1-0.4c0.1-0.3,0.1-0.7,0.1-1.1c0-0.2-0.2-0.4-0.3-0.5
			c-0.5-0.2-1.1-0.4-1.7-0.5c-0.4-0.1-0.8,0-0.8,0.6c0,0.1-0.2,0.2-0.3,0.2c-0.3,0-0.7,0-1-0.1c-0.7-0.2-0.8-0.4-0.4-1
			c0.1-0.2,0.1-0.4,0.2-0.6c-0.6,0.3-0.7,0.9-0.5,1.6c0,0.2,0,0.4,0,0.6c-0.1,0-0.2,0-0.3,0c0-0.3-0.1-0.5-0.1-0.8
			c0-0.3,0.1-0.7,0.2-1c0.1-0.3,0-0.5-0.3-0.6c0.7-0.3,0.4-0.9,0.5-1.4c0.2-0.7-0.3-1-0.8-1.2c-0.4,0.2-0.4,0.5-0.2,0.9
			c0.4,0.8,0.4,0.8,0,1.4c0.2,0.1,0.4,0.2,0.6,0.3C93.2,103.4,93,103.4,92.7,103.4z M92.4,108.7c0.3,0.6,0,1.1-0.6,1.2
			c-0.4,0.1-0.8,0.2-1.2,0.2c-0.8,0.1-1.4,0.4-1.7,1.3c-0.2,0.8-0.3,0.7-1.1,0.4c-0.1,1,0.2,1.3,1.1,1.4c0.3,0,0.5,0,0.8,0
			c0.8,0,0.9-0.3,0.7-1c-0.2-0.7,0-1.1,0.7-1.2c0.1,0,0.2-0.2,0.3-0.2c0.3-0.2,0.6-0.5,0.9-0.5c0.7-0.2,1-0.6,0.7-1.3
			c-0.3-0.6-0.6-1.1-0.9-1.6c-0.1-0.1-0.3-0.2-0.4-0.3c0,0-0.1,0.1-0.1,0.1C91.8,107.6,92.1,108.1,92.4,108.7z M97.4,110.3
			c-0.4,0-0.5,0.1-0.3,0.5c0.2,0.4,0.3,0.8,0.3,1.2c0,0.4-0.3,0.6-0.8,0.4c-0.6-0.2-1.3-0.3-1.8-0.4c-0.2,0.4-0.3,0.7-0.4,1
			c0,0.1,0.1,0.4,0.2,0.4c1,0.1,1.9,0.2,2.9,0.2c0.1,0,0.2-0.1,0.2-0.2c0.2-1.1,0.7-2.1,1.5-3C98.5,110.5,97.9,110.4,97.4,110.3z
			 M98.2,113.8c0.2,0.8,1,1.4,2,1.5c0.6,0.1,1.3,0.2,1.8-0.4c0.3-0.4,0.3-0.6-0.2-0.8c-0.4-0.1-0.8-0.1-1.1-0.3
			c-0.4-0.2-0.8-0.5-1.3-0.9C99,113.2,98.6,113.5,98.2,113.8z M93.5,108.9c0.1-0.1,0.2-0.2,0.3-0.3c0,0.1,0,0.1,0,0.2
			c-0.1,0.8-0.3,1.6-0.2,2.4c0,0.3,0.6,0.5,0.9,0.7c-0.5-0.7-0.6-1.5,0-2c0.8-0.7,1-1.6,1.2-2.7c-1,1.1-2,1.3-3.2,0.5
			C92.9,108.1,93.2,108.5,93.5,108.9z M91.1,108.9c0.5-0.3,0.6-0.7,0.3-1.2c-0.4-0.8-1.2-1-1.9-1.4c0.1,1.1,0.2,2.1,0.3,3.2
			C90.3,109.3,90.7,109.2,91.1,108.9z M97.9,107.7c0-0.1,0-0.2,0-0.3c-0.6-0.1-1.2-0.1-1.8-0.2c-0.1,0.6-0.3,1.1-0.4,1.6
			C96.5,108.4,97.2,108.1,97.9,107.7z M87.9,108.7c-0.3,0-0.7,0.3-0.7,0.5c-0.1,0.4,0.1,0.8,0.1,1.2c0.2,0,0.4,0,0.5-0.1
			c0.3-0.4,0.6-0.9,1-1.4C88.4,108.8,88.1,108.7,87.9,108.7z M93.6,93.9c0.1-0.1-0.1-0.4-0.2-0.4c-0.3-0.1-0.6-0.2-0.9-0.2
			c-0.1,0-0.3,0.4-0.3,0.6c0,0.3,0.2,0.7,0.3,1C92.6,94.9,93.3,94.2,93.6,93.9z M93.2,107.5c0.4,0.3,0.8,0.4,1.3,0.2
			c0.4-0.2,0.8-0.4,0.6-1.2C94.6,107.1,93.6,106.7,93.2,107.5z M92.1,106.7c-0.3-0.6-0.5-1.1-0.7-1.6c-0.5,0.3-0.9,0.5-1.4,0.8
			C90.7,106.1,91.3,106.4,92.1,106.7z M92,109.5c0.1,0,0.2-0.4,0.2-0.7c0-0.2-0.2-0.4-0.3-0.7c-0.3,1.1-1.2,1.3-2.1,1.6
			c0,0.1,0,0.1,0.1,0.2C90.5,109.9,91.3,109.7,92,109.5z M93.2,99.4c-0.5-0.4-1.4-0.3-1.9,0.3C92.3,100,92.6,100,93.2,99.4z
			 M91.8,113.7c0,0.1,0,0.1,0,0.2c0.4,0.2,0.8,0.4,1.3,0.6c0-0.5,0-0.8,0-1.3C92.6,113.4,92.2,113.5,91.8,113.7z M98.6,103.1
			c-1.1,0.3-2,0.6-2.9,0.8C96.5,104.2,98.1,103.8,98.6,103.1z M94,101.2c0,0.7,0,1.4,0,2.1C94.2,102.7,94.3,101.3,94,101.2z
			 M93.4,114.8c-0.1,0.8,0.4,1.2,1.2,1C94.2,115.4,93.8,115.1,93.4,114.8z M89.2,109.3c-0.7,0-0.8,0.6-1.1,1
			C88.6,110.1,89.1,110,89.2,109.3z M94.6,104.3c-0.1,0-0.2,0.3-0.2,0.4c0.3,0.1,0.7,0.2,1,0.3c0-0.1,0.1-0.2,0.1-0.2
			C95.3,104.4,95,104.2,94.6,104.3z M95.5,111.7c-0.4-0.4-0.7-0.7-1.1-1.1C94.4,111.5,94.7,111.8,95.5,111.7z M87.9,110.9
			c-0.1,0.1-0.1,0.3-0.2,0.5c0.2,0,0.4,0.2,0.5,0.1c0.2-0.2,0.3-0.4,0.5-0.6c0,0-0.1-0.1-0.1-0.1C88.4,110.7,88.1,110.8,87.9,110.9z
			 M95.4,106.2c-0.8-0.3-1.2-0.1-1.5,0.5C94.4,106.6,94.8,106.4,95.4,106.2z M96.2,106.3c0,0.7,0.2,0.8,1.2,0.6
			C96.8,106.7,96.5,106.5,96.2,106.3z M94,116.2c0-0.1-0.3-0.2-0.5-0.4c0,0.4,0,0.8,0,1.1c0,0,0.1,0,0.1,0.1
			C93.7,116.7,93.9,116.5,94,116.2z M91.8,121.6c-0.1,0-0.1,0-0.2,0c0,0.6-0.1,1.2-0.1,1.8c0.1,0,0.1,0,0.2,0
			C91.7,122.8,91.7,122.2,91.8,121.6z M91.3,112.3c0.1,0,0.3,0,0.4-0.1c0.2-0.3,0.1-0.6-0.5-0.7C91.2,111.8,91.3,112.1,91.3,112.3z
			 M93.7,106.3c0,0-0.1-0.1-0.1-0.1c-0.3,0.1-0.6,0.2-0.9,0.3c0.3,0.2,0.5,0.3,0.7,0.4C93.5,106.8,93.6,106.5,93.7,106.3z
			 M93.5,111.7c0,0.4,0,0.8,0,1.2C93.9,112,93.9,112,93.5,111.7z"/>
		<path class="st0" d="M19.1,121.5c0.1,0.8,0.2,1.6,0.3,2.4c0.1,0.3,0.4,0.6,0.7,0.7c0.9,0.3,1.9,0.3,2.7,0.6
			c0.3,0.1,0.6,0.9,0.6,1.3c-0.3,1.9-0.7,3.7-1.1,5.6c0,0.2,0,0.5,0,1c1.1-2.4,3.1-3.1,5-3.9c0.2-0.1,0.5,0.3,1.1,0.6
			c-1.2,0.6-2.1,1-2.9,1.4c-1.1,0.6-1.8,1.5-2.3,2.7c-0.7,1.6,0.1,3.1,0.2,4.6c0.2,2.3,0.3,4.7,0.5,7c0.3,3.8,0.5,7.6,2.3,11.2
			c0.3,0.6,0.7,1.2,1.3,2.1c-1.3-0.1-1.7-1-2.1-1.7c-0.4-1-0.6-2-1.1-3c-1.6-3.3-1.8-6.9-2.2-10.4c-0.2-1.5,0.1-3.1,0.1-4.6
			c0-0.4,0-0.8-0.1-1.1c-0.1,0-0.2,0-0.3,0c-0.1,0.4-0.2,0.7-0.2,1.1c-0.2,4-0.3,8-0.5,12.1c-0.1,1.4-0.1,2.9-0.1,4.3
			c0,0.4,0.1,0.8,0.2,1.5c0.6-0.7,1-1.2,1.5-1.7c1.3,0.5,2,1.4,2.2,3.1c-0.7-0.9-1.1-1.6-1.7-2.4c-0.5,0.7-0.8,1.3-1.2,1.7
			c-0.2,0.2-0.6,0.3-0.9,0.5c-0.1-0.3-0.3-0.6-0.4-0.9c-0.1-0.8-0.1-1.5-0.3-2.3c-0.1,0.3-0.2,0.6-0.4,1.1c-1.1-1.4,0.7-3-0.6-4.3
			c-1,1.7-1.9,3.4-2.8,5c-0.7,1.3-1.9,2-3.3,2.5c-0.1,0-0.2,0.1-0.3,0c-0.1,0-0.2-0.1-0.4-0.2c0.1-0.2,0.2-0.3,0.3-0.4
			c3.4-2.1,5.1-5.3,6.3-8.9c0.1-0.3,0.3-0.6,0.5-0.9h0c0.1,0.9,0.1,1.8,0.2,2.7c0.2,0,0.4,0,0.6,0c0.1-0.7,0.3-1.3,0.4-2
			c0.2-4.3,0.1-8.7,0.8-12.9c0.5-3.1-0.7-6.2,0.9-9.2c-2.2,0.2-2.7,0.4-2.9,1.6c0.3-0.2,0.6-0.3,1.2-0.6c-1.6,2.3-1.5,4.6-1.1,7
			c0,0.2,0.1,0.6-0.1,0.7c-1.3,1.5-1,3.5-1.3,5.3c-0.8,4.6-1.2,9.3-3.8,13.4c-1.1,1.7-2.4,3.3-4.3,4.3c-0.6,0.3-1,0.8-1.6,1.1
			c-0.3,0.2-0.7,0.1-1,0.1c-0.1,0-0.3-0.4-0.2-0.5c0.2-0.2,0.4-0.6,0.7-0.6c5.6-1.5,7.3-6.2,8.4-11c1-4.2,1.4-8.6,2.1-12.9
			c0.2-1.4-0.4-2.6-1.3-3.5c-0.3-0.3-1-0.3-1.4-0.4c-0.1-1.6-0.8-2-2.4-1.7c-0.4,0.1-1-0.4-1.5-0.7c1.7-1.1,2.9,0.5,4.1,0.8
			c1-0.7,1.9-1.2,2.7-1.9c0.3-0.2,0.4-0.6,0.4-1c0.1-0.5,0-1-0.1-1.7c-0.4,0.1-0.9,0-1.1,0.2c-2,1.9-4.5,1.4-6.8,1.3
			c-0.9,0-1.4,0-1.9,0.9c-1.3,2.3-5,3-7.3,2.2c-0.7-0.2-1.3-1-1.8-1.6c-0.5-0.7,0.2-1.7,1.4-2c0.8-0.2,1.5-0.3,2.3-0.5
			c0.5-0.2,1.1-0.6,1.5-1c0.5-0.5,0.6-1.1-0.1-1.7c-0.8-0.6-1.6-1.3-2.4-2c-0.1-0.1-0.1-0.3-0.2-0.4c1.3-0.4,3.4,0.7,3.6,2
			c0.3,1.7,1.6,2.3,2.9,3.4c0.1-1.8-0.5-3.2-1.3-4.3c-0.8-1.1-1.9-2-3-3.1c0.2,0,0.4-0.1,0.6-0.1c1.8,0.7,3.5,0.2,5.3,0.1
			c0.5,0,1.2,0.1,1.3,0.4c0.2,0.3,0,1-0.2,1.4c-0.3,0.7-0.7,1.3-1.1,2.1c2.6,0,4-1.3,4.9-3.1c-0.4-0.7-0.7-1.4-1.1-1.9
			c-0.7-0.7-1.4-1.3-2.2-1.7c-0.7-0.4-1.5-0.6-2.2-0.9c-0.8-0.3-1.5-0.7-1.2-1.8c-1.1,0-1.4-0.5-1.4-1.5c0-0.8-0.2-1.7-0.4-2.5
			c-0.2-1,0.1-1.6,1.2-1.8c0.6-0.1,1.1-0.4,1.8-0.6c-0.9-0.5-1.6-0.8-2.3-1.3c-0.3-0.2-0.5-0.9-0.4-1.2c0.1-0.2,0.7-0.5,1.1-0.4
			c0.7,0.1,1.3,0.3,2,0.5c1.5,0.4,2.9,0.9,4.4,1.3c1.2,0.3,2-0.4,1.6-1.6c-0.4-1.4-0.4-3-1.9-3.9c-0.2-0.1-0.2-0.6-0.3-0.9
			c0.3,0.1,0.7,0.1,1,0.2c0.6,0.1,1.2,0.4,1.8,0.4c0.3,0,0.6-0.7,0.7-1c0-0.2-0.3-0.7-0.6-0.9c-0.8-0.4-1.7-0.7-2.6-1.1
			c-0.3-0.1-0.4-0.6-0.6-1c0.3-0.1,0.6-0.3,1-0.4c0.8-0.2,1.6-0.3,2.4-0.5c1.1-0.3,1.8-2.4,1-3.2c-0.4-0.3-1.2-0.3-2-0.6
			c0.4-0.3,0.8-0.6,1.2-0.8c0.6-0.2,1.2-0.2,1.7-0.5c0.4-0.2,0.8-0.6,0.9-0.9c0-0.4-0.3-0.9-0.6-1.2c-0.4-0.5-0.9-0.8-1.3-1.3
			c-0.4-0.7-1.2-1.5-0.4-2.2c0.6-0.6,1.6-0.9,2.5-1c0.9-0.1,1.5,0.4,1.3,1.5c-0.1,0.4-0.1,0.9-0.3,1.3c-0.3,1-0.7,1.8,0.4,2.7
			c0.6,0.5,0.1,1-0.6,1.3c-0.4,0.2-0.7,0.5-1.1,0.8c0.4,0.3,0.8,0.5,1.1,0.8c0.8,0.7,1.6,1.3,2.3,2.1c0.1,0.1-0.2,0.8-0.3,0.8
			c-1-0.1-2-0.2-3-0.3c0.7-0.2,1.4-0.3,2.1-0.5c0.1-0.1-1.9-1.7-3-2.4c-0.7,2.3-0.5,2.7,1,2.9c-0.2,0.2-0.3,0.3-0.5,0.5
			c-0.3,0.3-0.5,0.5-0.8,0.8c0.3,0.1,0.7,0.2,1,0.1c0.8,0,1.5-0.2,2.3-0.1c0.9,0.1,1.6,0.7,1.5,1.6c-0.1,0.4-0.9,0.9-1.4,1
			c-0.8,0.2-1.6,0.2-2.6,0.3c0.5,0.9,0.9,1.4,1.9,1.1c0.9-0.3,2.1,0.9,2,1.8c0,0.2-0.5,0.5-0.8,0.5c-0.4,0-0.8-0.2-1.1-0.4
			c-0.3-0.1-0.6-0.3-1-0.5c-0.3,0.8-1.4,1.4-0.4,2.4c0.8,0.8,2.5,1.1,3.4,0.7c1.1-0.6,2.3-1.2,3.5-0.5c0.3,0.1,0.5,0.5,0.5,0.8
			c0,0.2-0.4,0.6-0.6,0.6c-0.8,0.1-1.7,0.1-2.5,0.2c-0.5,0.1-1.4,0.3-1.4,0.5c0,0.7,0.1,1.6,0.5,2.1c1.2,1.3,2.9,1.6,4.5,1.7
			c0.6,0,1.2-0.1,1.7,0c0.3,0.1,0.5,0.5,0.8,0.7c-0.3,0.1-0.6,0.3-0.8,0.3c-1.3-0.3-2.1,0-2.5,1.4c-0.5,1.5-0.8,3-0.3,4.5
			c0.7-0.3,1.4-0.6,2.1-0.8c1.9-0.6,3.1,0.4,3.1,2.4c0,0.2,0,0.5,0,0.7c-0.1,1.4,0.5,1.8,1.9,1.2c0.5-0.2,1-0.5,1.5-0.4
			c0.4,0,0.7,0.5,1.1,0.7c-0.4,0.3-0.7,0.7-1.1,0.8c-1.2,0.3-2.5,0.3-3.7,0.6c-0.3,0.1-0.8,0.6-0.9,0.9c-0.6,3-1.1,3.5-4.1,3.3
			c-1.2,0-2.5-0.1-3.2-1.4c-0.1-0.2-0.5-0.1-0.7-0.2c-0.6-0.3-1.5-0.5-1.6-1C21.2,121.6,20.4,121.3,19.1,121.5
			c0.4-0.3,0.8-0.6,1.3-1c0-0.9,0.1-2-1.5-2.2C18.9,119.4,19,120.5,19.1,121.5z M19,104.7c0.4-0.2,0.8-0.5,1.2-0.7
			c-0.9-1.4-0.9-1.4-0.1-3c0.4-0.8,0.5-1.4-0.3-1.8c-1.2,0.5-2.1,1.1-1.7,2.5C18.2,102.7,17.6,104,19,104.7
			c-0.7,0.1-0.9,0.5-0.7,1.2c0.2,0.7,0.4,1.3,0.5,2c0,0.5-0.1,1.1-0.2,1.6c-0.2,0-0.4,0-0.6,0c0-0.4-0.1-0.8,0-1.2
			c0.4-1.5,0.1-2.8-1.1-3.4c0.1,0.5,0.1,1,0.3,1.3c0.9,1.3,0.7,1.7-0.8,2.1c-0.7,0.2-1.4,0.2-2.2,0.2c-0.2,0-0.7-0.3-0.7-0.5
			c0-1.3-1-1.3-1.7-1.2c-1.2,0.2-2.3,0.6-3.5,1.1c-0.3,0.1-0.6,0.7-0.7,1c0,0.7,0.1,1.5,0.2,2.2c0.3,1.4,1.1,1.6,2.3,0.8
			c0.5-0.4,1.1-0.9,1.7-1.2c2.8-1.6,5.7-1,8.6-0.1c0.3,0.1,0.8,0,0.9-0.2c0.4-0.8,0.8-1.6,1.1-2.5c0.5-1.9-0.3-3-2.2-3.1
			C19.9,104.6,19.4,104.6,19,104.7z M22.8,112.3c-0.1-0.1-0.1-0.1-0.2-0.2c-0.3,0.2-0.7,0.3-0.9,0.6c-0.7,1.1-1.4,2.2-1.9,3.3
			c-0.7,1.5-0.2,2.2,1.4,2.6c0.7,0.2,1.3,0.7,1.9,1.2c0.2,0.1,0.4,0.4,0.6,0.5c1.4,0.4,1.8,1.1,1.4,2.6c-0.4,1.5,0,2,1.5,2.1
			c0.6,0,1.1,0,1.7,0c2-0.1,2.4-0.8,2.3-2.8c-1.5,0.6-1.7,0.7-2.2-0.9c-0.6-1.9-1.8-2.5-3.6-2.6c-0.8-0.1-1.7-0.3-2.5-0.5
			c-1.4-0.3-1.9-1.2-1.3-2.5C21.6,114.4,22.2,113.4,22.8,112.3z M6.9,119.4c1.7,1.9,2.6,3.9,3.1,6.2c0,0.2,0.3,0.5,0.5,0.5
			c2-0.1,4-0.3,6-0.5c0.2,0,0.4-0.5,0.4-0.8c-0.2-0.6-0.5-1.2-0.8-2.1c-1.1,0.2-2.5,0.4-3.8,0.7c-1,0.3-1.5-0.1-1.6-0.9
			c0-0.8,0.3-1.7,0.7-2.5c0.3-0.8,0.2-1.2-0.7-1.1C9.5,119.1,8.4,119.2,6.9,119.4z M6.8,124.4c-1,0.7-1.8,1.3-2.8,1.8
			c-0.7,0.3-1.6,0.4-2.3,0.6c-1,0.3-1.1,0.8-0.4,1.6c1,1.2,2.4,1,3.7,0.9c2-0.2,3.6-1.5,4-3.1C8.2,125.6,7.4,124.9,6.8,124.4z
			 M20.7,113.3c-2.5,1.8-4.6,1.4-6.6-1c0.4,2.3,0.8,4.2,2.5,5.7c1.3,1.1,1.1,2.8,0,4.2c0.7-0.4,1.9-1,2-1.5c0.1-1.6-0.3-3.3-0.5-5
			c0-0.1,0-0.2-0.1-0.4c0.3,0.2,0.5,0.4,0.7,0.6C19.4,115.1,20,114.2,20.7,113.3z M26.3,117.3c0.2-2.3,0.4-4.4,0.7-6.6
			c-1.5,0.7-3.1,1.1-3.9,2.8c-0.5,1.1-0.3,1.9,0.7,2.5C24.6,116.5,25.4,116.9,26.3,117.3z M14.3,115.9c-0.3-1.2-0.6-2.2-0.9-3.4
			c-1.3,0.1-2.5,0.2-3.7,0.4c0,0.2-0.1,0.4-0.1,0.6C11.1,114.2,12.6,115,14.3,115.9z M28.6,116c0.7,1,1.3,2,2,2.9
			c0.2,0.2,0.6,0.2,1,0.3c0.1-0.8,0.4-1.7,0.3-2.5c-0.1-0.4-0.9-0.9-1.5-1C29.8,115.6,29.2,115.9,28.6,116z M20.7,86.9
			c0.2-0.7,0.5-1.4,0.5-2.1c0-0.4-0.3-1.2-0.5-1.2c-0.6-0.1-1.2,0.1-1.8,0.3c-0.2,0.1-0.4,0.7-0.3,0.9
			C19.1,85.6,20.6,86.9,20.7,86.9z M15.4,111.1c-0.4,1.5,0.4,2,1.3,2.4c1,0.5,1.8,0.1,2.7-0.4C18.4,111.4,16.5,112.3,15.4,111.1z
			 M26,109.7c-1-0.6-2-1.1-3-1.7c-0.5,1.1-0.9,2.2-1.5,3.4C23.2,110.8,24.6,110.3,26,109.7z M26.4,118.3c0-0.1,0.1-0.2,0.1-0.4
			c-1.7-0.7-3.6-1.2-4.3-3.3c-0.3,0.6-0.6,1-0.6,1.3c0,0.5,0.1,1.3,0.4,1.4C23.4,117.7,24.9,118,26.4,118.3z M23.2,96.8
			c-1-1.2-2.8-1.4-3.9-0.5C20.7,97.5,21.3,97.6,23.2,96.8z M19.7,125c0,0.9,0,1.7,0,2.7c1-0.5,1.9-0.9,2.7-1.3
			c0-0.1-0.1-0.3-0.1-0.4C21.5,125.6,20.7,125.3,19.7,125z M14.1,105.6c-1.9-0.5-3.8-1.1-6-1.7C9.2,105.3,12.4,106.2,14.1,105.6z
			 M17.6,104.5c0-1.5-0.9-4.3-1.2-4.2C16.8,101.8,17.2,103.1,17.6,104.5z M16.4,130.2c1.8,0.6,2.8-0.3,2.5-2
			C18.1,128.9,17.3,129.5,16.4,130.2z M30,118.9c-0.6-0.8-0.8-2-2.3-2.1C27.8,118.3,28.9,118.6,30,118.9z M14.7,107.4
			c0.1,0.2,1.6,0.1,2.3-0.1c-0.2-0.3-0.3-0.7-0.5-0.8C15.6,106.2,15.1,106.7,14.7,107.4z M16.7,119.5c-0.8,0.8-1.5,1.5-2.2,2.3
			C16.2,122,16.9,121.3,16.7,119.5z M28.7,119.6c-0.1,0.1-0.1,0.2-0.2,0.3c0.3,0.4,0.5,1,1,1.3c0.2,0.2,0.7-0.1,1.1-0.2
			c-0.1-0.3-0.1-0.8-0.3-1C29.8,119.8,29.2,119.8,28.7,119.6z M17.8,111.5c-0.6-1.3-1.5-1.6-3.1-1.1C16,110.9,16.9,111.2,17.8,111.5
			z M10.7,111.9c2.1,0.4,2.5,0.1,2.5-1.3C12.5,111,11.8,111.4,10.7,111.9z M18.5,132.8c0.1,0,0.2-0.1,0.3-0.1c0-0.7,0-1.3,0-2.2
			c-0.5,0.3-1.1,0.7-1.1,0.8C17.9,131.8,18.2,132.3,18.5,132.8z M22.6,146.1c0.1,0,0.3,0,0.4,0c-0.1-1.3-0.2-2.5-0.3-3.8
			c-0.1,0-0.3,0-0.4,0C22.4,143.6,22.5,144.9,22.6,146.1z M23.5,121.4c-1.2,0.2-1.4,0.8-1,1.5c0.1,0.2,0.5,0.2,0.8,0.2
			C23.4,122.5,23.4,122,23.5,121.4z M19,111.9c0.5-0.3,0.9-0.5,1.5-0.8c-0.8-0.3-1.3-0.5-2-0.7c-0.1,0.1-0.1,0.1-0.2,0.2
			C18.6,111.1,18.8,111.6,19,111.9z M18.8,124.3c0-0.8,0-1.6,0-2.6C18,122.4,18,122.4,18.8,124.3z"/>
		<g>
			<path class="st0" d="M74.3,104.1c0.9-0.7,2.2-0.6,2.8,0.2c0.6,0.7,0.5,2.2-0.2,3c-0.8,0.9-1.7,1.6-2.5,2.5
				c-0.2,0.2-0.3,0.7-0.3,1c0.1,4.4,0.1,8.9,0.4,13.3c0.3,4.8,0.7,9.6,1.4,14.3c0.5,3.7,2.5,5,6.6,5c0.4,0,3.6,0.3,4,0.5
				c-0.4,0.3-7.3,1.1-8.7-0.1c0,0-2.2-2.6-3.2-3.9c-0.1-0.1,0-0.4,0.1-0.6c0.2-0.9,0.3-1.9,0.5-2.8c-0.1,0-0.3,0-0.4,0
				c0,0.5,0,1.1,0,1.6c-0.1,0-0.1,0-0.2,0c-0.1-1.1-0.2-2.3-0.3-3.4c0,0,0.1,0,0.1,0c0.1,0.2,0.1,0.4,0.2,0.6c0.1,0,0.1,0,0.2,0
				c-0.1-2.3-0.3-4.7-0.4-7c-0.1-3.2-0.1-6.3-0.2-9.5c0-1.3-0.1-2.6-0.1-3.9c-0.1-1.8-0.2-3.7-0.3-5.5c-0.1,0-0.3,0-0.4-0.1
				c-0.3,0.8-0.5,1.5-0.7,1.9c-0.3-1-0.6-2.4-1-3.8c-0.5,0.1-0.8,0.1-1.3,0.2c0.1,5.4,0.2,10.8,0.3,16.1c-0.1,0-0.2,0-0.4,0
				c-0.1-0.3-0.2-0.7-0.2-1.1c0-3.9,0-7.9,0-11.8c0-0.7,0-1.5,0-2.2c0-0.9-0.4-1.3-1.1-1.1c-0.1,3.2-0.2,6.3-0.2,9.4
				c0.1,0,0.1,0,0.2,0c-0.1-0.6-0.2-1.2-0.3-1.7c-0.1,0-0.1,0-0.2,0c0,1.6-0.1,3.2-0.1,5.1c0.4-0.5,0.5-0.7,0.7-0.9
				c0.1,0,0.2,0,0.3,0c0,0.9,0,1.9,0.1,2.8c0.5,6.3-0.5,12.4-2.5,18.4c-0.1,0-0.2,0-0.3,0c0-0.3,0-0.7-0.1-1.1c-0.1,0-0.3-0.1-0.4,0
				c-0.4,0.5,0.1,1.3,0.2,2.1c-2.8,2.8-11.1,3.2-11.4,3c0.3-0.2,0.6-0.6,0.9-0.7c2.4-0.5,5-0.4,7.2-1.8c1-0.6,1.7-1.3,2-2.5
				c0.6-2.8,1.2-5.5,1.8-8.3c0.2-0.8,0.5-1.6,0.7-2.4c0.1-0.8,0.1-1.7,0.1-2.7c-0.1,0.1-0.2,0.3-0.4,0.4c0.1-2.2,0.1-4.4,0.2-6.8
				c0.1,0.3,0.2,0.4,0.4,0.7c0.1-0.2,0.2-0.3,0.2-0.4c-1.1-2.8-0.5-5.7-0.5-8.6c0-1.3-0.2-2.6-0.3-3.9c0-0.4,0-0.8,0-1.5
				c-0.6-2-2-1.7-3.8-0.9c-1.6,0.8-2.9-0.1-2.6-1.5c0.1-0.3,0.2-0.5,0.3-0.8c0.2-0.4,0.4-0.9,0.7-1.5c-0.6,0.1-1,0.1-1.5,0.2
				c-0.8,0.1-1.6-0.3-1.6-1.1c0-0.4,0.9-0.8,1.4-1.1c0.1-0.1,0.4,0,0.7-0.1c0.1-0.9,0.1-1.8,0.2-2.7c-0.8,0.9-1.4,2-2.3,2.3
				c-0.7,0.3-1.8-0.1-2.7-0.4s-1.6-0.9-0.4-2.2C54,97,53,97.1,52.1,97.3c-1.2,0.3-2-0.2-2.8-0.8c-0.8-0.6-0.5-1.6,0.4-1.9
				c0.4-0.1,0.8-0.3,1-0.3c0.6,0.8,1.2,1.6,1.7,2.3c0.1-0.1,0.3-0.1,0.4-0.2c0-0.5,0-1-0.1-1.5c0.3-0.1,0.8-0.3,1.3-0.3
				c0.6,0,1.1,0.1,1.7,0.1c-0.1,0.5-0.2,1-0.3,1.4c0.7,0.1,0.7,0.1,3.2-2.4c-0.4-0.2-0.8-0.4-1.1-0.8c-0.2-0.4-0.2-0.9-0.3-1.3
				c0.4,0,0.8,0.1,1.1,0.1c0.2,0,0.5,0.1,0.7,0.1c2.3-0.5,3.4,0.4,3.5,3.1c1-0.7,1.8-0.5,2.8,0.1c0.4,0.2,1.2-0.4,1.8-0.6
				c0-0.1-0.1-0.3-0.1-0.4c-0.8-0.2-1.6-0.4-2.4-0.6c-0.4-0.1-1-0.4-1.2-0.7c-0.6-0.9-0.8-2.1-1.8-2.8c-0.2-0.1-0.1-0.7,0-1
				c0.4-1.6,1.4-2.7,3-3.4c0.8-0.4,1.2,0.2,1.5,0.8c0.5,0.8,1.1,1.5,1.7,2.4c-0.2-2.6-0.4-4.9-0.6-7.2c0.1,0,0.2-0.1,0.4-0.1
				c0.1,0.3,0.3,0.6,0.3,0.9c0.2,1.5,0.3,2.9,0.4,4.4c0.1,0.9,0.3,1.5,1.6,1.6c-0.2-2.3-0.4-4.7-0.5-7c0.1,0,0.3,0,0.4,0
				c0.1,2.6,0.2,5.1,0.3,7.8c-1.3-0.5-2.2-0.2-2.5,0.8c-0.3-0.1-0.6-0.2-1-0.4c-0.1,0.1-0.2,0.1-0.3,0.2c0.6,0.8,1.1,1.6,1.7,2.5
				c-0.9-0.3-1.7-0.6-2.5-0.8c-0.8-0.2-1.6-0.3-2.4-0.5c0.1,1.6,2.9,2.9,4.7,2.2c-0.1,0.7-0.3,1.3-0.4,1.9c-0.1,0-0.1,0-0.2,0
				c0.2,0.4,0.3,0.7,0.5,1.1c-1.7,0.3-2.1,2.1-0.9,4.1c-0.2,0.3-0.5,0.6-0.9,1.1c0.9-0.1,1.5-0.2,2.2-0.3c-0.2-0.4-0.5-0.8-0.6-1.1
				c-0.1-0.4,0-0.9,0-1.3c0-0.8,0.1-1.6,0.2-2.4c0.1,0.3,0.2,0.5,0.3,0.8c0.2,1,0.4,2,0.7,3.3c0.9-1.4,0-2.8,0.8-4.1
				c0.1,1,0.2,2,0.3,3c0.1,1,0,2.1,0.2,3.1c0,0.3,0.5,0.5,0.8,0.8c0.1-0.3,0.2-0.7,0.1-1c-0.2-1.9-0.5-3.7-0.8-5.6
				c-0.1-0.4-0.3-0.8-0.4-1.2c0-0.2,0.1-0.5,0.4-0.7c0.3,2.2,0.7,4.3,1,6.5c0.1,1.3,0.9,1.9,2,2.3c0.1-0.3,0.3-0.5,0.4-0.8
				C73.9,103,74.1,103.6,74.3,104.1c0,0.1,0,0.3,0.1,0.3c1.2,0.2,2,0.9,2.3,2.3c0.6-1.6,0.2-2.5-1.1-2.7
				C75.2,104,74.7,104.1,74.3,104.1z M68.2,106.7c-0.2,0.1-0.6,0.2-0.6,0.3c0.1,1.5,0.3,3,0.5,4.5c0.2-0.7,0.3-1.3,0.3-2
				C68.4,108.6,68.3,107.6,68.2,106.7c0.9,0.3,1.8,0.7,2.7-0.2C70,106.8,69,105.1,68.2,106.7z M66.7,88.3c0-1.2-1-2.3-2.1-2.1
				c-1,0.2-2.4,1.7-2.5,2.8c0,0.3,0.3,0.7,0.5,1c0.2,0.1,0.6,0.1,0.9,0C64.5,89.4,65.4,88.9,66.7,88.3z M66.2,105.4
				c0.1-0.1,0.3-0.1,0.4-0.2c0.4,0,0.8,0.1,1.2,0c0.5-0.1,1.1-0.2,1.5-0.5c0.3-0.4,0.4-1,0.7-1.8c-0.4-0.3-0.9-0.9-1.6-1.2
				c-0.5-0.3-1.1-0.2-1.4,0.6c-0.2,0.5-0.4,1-0.5,1.6C66.3,104.3,66.3,104.8,66.2,105.4z M58.1,95.5c-0.6,0.5-1.1,1-1.6,1.4
				c-0.3,0.3-0.7,0.5-1,0.7c0.4,0.3,0.8,0.7,1.2,1c0.3,0.2,0.7,0.3,1,0.4c0.8,0.2,1.6,0,2-0.8c0.3-0.7,0.4-1.4-0.6-1.8
				C58.7,96.3,58.5,95.9,58.1,95.5z M61.7,97.3c-0.1,0.1-0.3,0.2-0.4,0.4c-0.2,0.7,0.5,2.8,1.1,2.8c1.1-0.1,2.1-0.7,3.2-1
				c0-0.2,0-0.3,0-0.5c-0.8-0.4-1.5-0.8-2-1c-0.4,0.3-0.7,0.5-1.2,0.9C62.2,98.2,62,97.8,61.7,97.3z M60.2,94.5c0-0.1,0-0.1,0-0.2
				c-0.5,0.1-0.9,0.3-1.4,0.4c0.3,0.4,0.5,0.7,0.8,1.1c0,0,0.1,0.1,0.1,0.1c1.3,1.2,1.6,0.8,2.3-0.4c0.2-0.3,0.1-0.7,0-1
				c0-0.1-0.5,0-0.8,0C60.9,94.4,60.5,94.5,60.2,94.5z M69.6,105.7c1.8,0.7,2.8,0.1,2.8-1.5c0-0.3-0.3-0.7-0.4-1
				c-0.4,0.2-1,0.3-1.3,0.7C70.2,104.4,69.9,105,69.6,105.7z M75.4,107.5c0.1-0.2,0.7-0.5,0.7-0.9c0.1-0.8-0.9-1.7-1.8-1.6
				c-0.3,0-0.8,0.5-0.9,0.8C73.3,106.7,74.1,107.4,75.4,107.5z M61.9,94.1c0.1-1.2-0.5-1.8-1.3-2c-0.4-0.1-0.9,0.3-1.4,0.5
				c0.3,0.4,0.5,1,0.9,1.2C60.6,94.1,61.3,94,61.9,94.1z M64.3,101.9c-0.4,1.1-0.6,2-0.9,2.7c1.8,0.2,2.4-0.8,1.6-3
				C64.6,101.7,64.3,101.8,64.3,101.9z M63.6,102.6c-1.7,0.5-2.8,1.5-2.5,2.4C62.7,104.7,63.5,103.8,63.6,102.6z M67.4,131.9
				c-0.3,1.9-0.6,3.8-1,5.7c0.1,0,0.2,0,0.3,0.1C67.4,135.8,68.2,134,67.4,131.9z M64.9,95.4c0-0.1,0-0.2-0.1-0.4
				c-0.5,0-1.1-0.1-1.5,0c-0.3,0.1-0.5,0.5-0.6,0.9c-0.1,0.2,0.2,0.7,0.2,0.7c0.4,0,0.8-0.1,1.1-0.3C64.3,96.1,64.6,95.7,64.9,95.4z
				 M63.8,90c0,0.2,0.1,0.3,0.1,0.5c0.8,0.1,1.6,0.3,2.9,0.4c-0.5-0.7-0.8-1.5-1.1-1.5C65,89.4,64.4,89.8,63.8,90z M59.1,100.3
				c0.8,1.3,1.6,1.3,2.8,0.2C60.8,100.5,60,100.4,59.1,100.3z M51.1,96.7c0.1-0.1,0.1-0.1,0.2-0.2c-0.3-0.5-0.5-1-0.9-1.4
				c-0.2-0.2-0.7,0-1.1,0c0.1,0.3,0.1,0.8,0.3,0.9C50.1,96.3,50.6,96.4,51.1,96.7z M72.4,108.8c0.1,0,0.2,0,0.4,0
				c0.1-0.7,0.3-1.3,0.5-2.2c-0.6,0.3-1.2,0.4-1.2,0.5C72.1,107.6,72.3,108.2,72.4,108.8z M67.4,125.3c0.1,0,0.1,0,0.2,0
				c0-1.2,0.1-2.5,0.1-3.7c-0.1,0-0.1,0-0.2,0C67.5,122.8,67.4,124.1,67.4,125.3z"/>
			<path class="st0" d="M72,57.5c-0.3,0.6-0.5,1.1,0.4,1.2c0.2,0,0.4,0.2,0.5,0.3c2.2,1.2,2.3,2.4,0.3,4c0.8,0.5,1.5,1,2.3,1.6
				c0.2-0.2,0.3-0.2,0.3-0.3c0.3-0.5,0.6-1.5,0.9-1.5c1-0.1,2.1,0,2.9,0.5c1,0.5,0.3,2.9-0.9,3.4c-1.3,0.6-2.8,0.2-3.6-1
				c-0.5-0.8-2-1.4-3.3-1.3c0.5,0.8,0.8,1.5,1.3,2.1c1.2,1.6,1.2,2,0,3.7c-0.2,0.3-0.2,0.7-0.2,1.1c0,0.9,0,1.7,0,2.6
				c0,0.2-0.1,0.3-0.2,0.5c0-0.5,0-1-0.1-1.5c0-0.5-0.1-1-0.2-1.4c-0.1,2.2-0.1,4.3-0.2,6.4c0.1,0,0.2,0,0.3,0c0-0.6,0-1.2,0.1-2
				c0.4,0.6,0.8,1.4,0.7,1.3c-0.2,1.3-0.4,2.6-0.6,4.1c-0.2-1.1-0.3-2-0.5-2.9c-1.6,0.1-1.8,0.3-1.6,1.6c0,0.3,0.1,0.6,0.1,0.9
				c0,0.3,0,0.6-0.1,1.2c-0.2-1.1-0.4-2-0.6-2.9c-0.8,0.4-1.4,0.8-2.2,1.2c0-0.6,0-1.1-0.1-1.8c-0.2,0.2-0.3,0.4-0.3,0.4
				c0.4,1.4-0.6,2.3-1.5,2.9c-1,0.8-2.2,1.4-3.5,1.7c-1.8,0.4-2.5-0.5-2.7-2.6c-2.3-0.2-4.5-0.3-6.7-0.6c-0.6-0.1-1.1-0.5-1.6-0.7
				c2.5,0.7,4.9,1.1,7.5,0.7c0.5-0.1,0.9-0.3,1.6-0.6c-1.1-0.5-1.9-1-2.6-1.3c-0.3-0.1-0.7-0.2-0.9-0.1c-1.5,0.8-3,0.8-4.6,0.7
				c-0.2,0-1.2-0.3-0.9,0.6c-0.8-0.5-2.2-0.4-2.2-2c2.5,1.5,5.8,1.3,7.9,0.1c-1.2-0.7-2.4-1.1-3.4-1.8c-0.6-0.4-1.2-1.2-1.3-1.8
				c0-0.5,0.8-1.1,1.3-1.6c0.1-0.1,0.4-0.2,0.6-0.1c1.6,0.7,2.5-0.3,3.4-1.6c-0.6-0.3-1.3-0.6-1.9-1c-0.7-0.4-1.4-0.9-2-1.5
				c-0.2-0.2,0-1,0.2-1.1c0.7-0.3,1.4-0.5,2.2-0.7c0.9-0.2,1.8-0.2,2.8-0.3c0.2,0,0.4,0,0.6,0.1c2,0.8,3.6-0.1,5.3-0.9
				c0-0.1,0-0.3,0-0.4c-0.7-0.1-1.3-0.2-2-0.3c-1.3-0.3-2.6-0.6-3.9-1c-0.3-0.1-0.5-0.5-0.8-0.8c0.1-0.1,0.1-0.3,0.2-0.4
				c2-0.2,4.1-0.5,6.2-0.7c-0.1-0.2-0.3-0.5-0.3-0.8c-0.1-0.7-0.8-1.4,0.5-2.1c1.1-0.5,1.9-1.6,2.8-2.6c0.2-0.3,0.2-1,0-1.3
				c-0.6-0.8-1.3-1.5-2-2.2c-1.3-1.4-1.3-2.6-0.1-4c0.6-0.7,1.6-0.7,1.9,0.1c0.3,0.8,0.4,1.6,0.5,2.5c0,0.5-0.1,1.1-0.3,1.7
				c0-0.8,0-1.6-0.1-2.4c-0.1-0.5-0.4-1.1-0.8-1.4c-0.2-0.2-1,0.1-1.1,0.3c-0.2,0.5-0.5,1.3-0.2,1.8c0.5,0.9,1.3,1.7,2,2.5
				c0.2,0.2,0.4,0.4,0.6,0.6c0.8-0.6,1.6-1.3,2.4-1.9c-0.3,0.9-1.7,1.3-1,2.6c0.9-0.7,1.6-1.4,2.2-2.3c0.1-0.1,0.6-1.3,0.7-1.3
				c-0.1,0.7-0.2,1.4-0.4,2.2C73.8,55.1,73.8,56.2,72,57.5c0.2-0.6,0.5-1.2,0.7-1.8c0.1-0.3,0-0.8-0.2-1.1c0-0.1-0.4-0.2-0.5-0.1
				c-0.4,0.6-1.1,1.1-1.2,1.8C70.8,56.5,71.6,57,72,57.5z M65.7,66.3c0.6,0.8,1.2,0.2,1.7-0.1c0.4-0.3,1-0.9,0.2-1.5
				c-0.2-1.2-1-1.9-2-2c-0.4,0-0.9-0.2-1.2-0.4c-1.4-0.7-3.5-0.5-4.6,0.6c0.5,0.2,1,0.5,1.5,0.6c1.2,0.2,2.4,0.1,3.5,0.4
				c0.7,0.1,1.2,0.6,1.9,1c0,0.1-0.1,0.2-0.1,0.3c0.4-0.2,0.7-0.3,1.1-0.5c-0.6,0.4-1.1,0.9-1.7,1.3c-0.2-0.1-0.3-0.3-0.5-0.3
				c-1,0.2-2.1,0.5-3.1,0.8c-0.2,0.1-0.3,0.3-0.7,0.6c0.9,0.2,1.6,0.5,2.3,0.5c0.3,0,0.6-0.6,1-0.9C65.2,66.5,65.5,66.5,65.7,66.3z
				 M55,72.1c-0.8,0.7-1.5,1.1-1.7,1.6c-0.1,0.3,0.5,1.1,0.9,1.4c0.8,0.6,1.8,0.9,2.7,1.4c1.3,0.7,2.2,0.7,3.1-0.4
				c0.3-0.3,0.5-1,0.3-1.2c-0.2-0.3-0.8-0.4-1.3-0.5c-0.5-0.1-1,0.2-1.5,0.1c-0.6-0.2-1.1-0.6-1.5-1C55.7,73.2,55.5,72.8,55,72.1z
				 M66.5,79.8c-1.6,0.1-3.2,0.2-4.7,0.4c-0.6,0.1-1.3,0-1.3,0.9c0,0.8,0.3,1.3,1.1,1.5C63.2,83.2,66,81.6,66.5,79.8z M61.6,74.2
				c-0.5,1.1,0.5,3,1.5,3.2c0.2,0,0.6-0.1,0.7-0.2c0.2-0.4,0.4-1,0.2-1.2c-0.7-0.7-0.3-0.9,0.2-1.3c0.3-0.3,0.7-0.9,0.6-1.2
				c-0.4-0.9-1.4-1.1-2-0.7c-0.4,0.3-0.7,0.7-1,1.1c0.4,0.6,0.7,1,1.1,1.5c-0.1,0-0.1,0.1-0.2,0.1C62.3,75.1,62,74.7,61.6,74.2z
				 M67.4,68.8c1.4,0.9,1.7,1.6,1.3,3.2c-0.1,0.4-0.3,0.8-0.3,1.2c0,0.3,0,0.9,0.2,1c0.3,0.1,0.8,0,1.1-0.2c1.4-1,1.6-1.6,0.8-3.2
				c-0.1-0.3-0.3-0.6-0.4-0.9C69.2,68.2,69.2,68.2,67.4,68.8z M67.9,73.5c0.2-0.7,0.4-1.3,0.5-2c0.2-1.6-0.5-2.1-2-1.5
				c-0.4,0.2-0.9,0.3-1.5,0.5C65.9,71.4,65.8,73.4,67.9,73.5z M72.1,60.7c-0.4,0.6-0.6,0.9-0.9,1.3c0.5,0.1,1.1,0.4,1.4,0.3
				c0.6-0.2,1.2-0.8,1.4-1.3c0.1-0.3-0.5-1.1-1-1.3c-0.6-0.3-1.3-0.3-2-0.1c-0.3,0.1-0.5,0.8-0.8,1.2C71.1,60.7,71.6,60.7,72.1,60.7
				z M69.3,75.2c-0.2,1.3-0.4,2.4-0.5,3.7c1-0.4,2-0.8,2.9-1.3C71.1,75.6,70.5,75.1,69.3,75.2z M57.3,73.1c0-0.1,0-0.1,0-0.2
				c0.8,0.3,1.7,0.6,2.5,0.9c0.1-0.1,0.2-0.2,0.2-0.3c-0.3-0.7-0.4-1.5-0.8-2.1c-0.1-0.2-0.9-0.5-1.1-0.3c-0.7,0.7-1.3,1.5-2.1,2.5
				c0.9,0.2,1.5,0.4,2.1,0.6c0-0.1,0.1-0.2,0.1-0.4C58,73.5,57.7,73.3,57.3,73.1z M78.3,65.8c0.2,0,0.3,0,0.5,0
				c0.3-0.7,1-1.6,0.8-1.9c-0.4-0.6-1.3-0.9-2.1-1c-0.4,0-0.9,0.6-1.3,1c0,0.1,0.1,0.3,0.1,0.4C77.2,64.5,78.3,64.5,78.3,65.8z
				 M56,68.4c1,0.9,2.1,0.6,3,0.6c0.1,0,0.3-0.3,0.3-0.3c-0.2-0.5-0.3-1.1-0.7-1.5c-0.3-0.2-1-0.2-1.3-0.1
				C56.8,67.3,56.5,67.9,56,68.4z M69.3,55.9c-0.1,0.1-0.3,0.1-0.4,0.2c-0.2,0.1-0.4,0.1-0.6,0.3c-0.5,0.5-1,1-1.5,1.4
				c0.4,0.3,0.8,0.8,1.3,0.9c0.6,0.2,1.2,0.1,1.2-0.8C69.3,57.3,69.3,56.6,69.3,55.9z M70.9,62.6c0.6,2.5,1.1,5,1.7,7.4
				c0.1,0,0.2,0,0.4-0.1c-0.4-2.4-0.9-4.7-1.3-7.3C71.4,62.7,71,62.7,70.9,62.6z M69.7,68.3c0.6,1.1,1.1,2.1,1.7,3
				c0.1,0,0.2-0.1,0.3-0.1C71.4,70,72,68.7,71,67.5C70.5,67.8,70.1,68.1,69.7,68.3z M66.2,74.6c-0.1-0.1-0.3-0.1-0.4-0.2
				c-0.3,0.4-0.9,0.9-0.8,1.3c0.2,0.7,0.7,1.3,1.1,2.1C67.4,76.5,66.5,75.5,66.2,74.6z M71,63.8c-0.1-0.1-0.2-0.2-0.4-0.3
				c-1.1,0.6-2.6,1-2.1,3.2C69.5,65.6,70.2,64.7,71,63.8z M59.9,71.3c0.5,0.8,0.9,1.3,1.4,2c0.6-0.8,1-1.3,1.5-1.9
				C61.7,71.4,61,71.3,59.9,71.3z M61.1,75.9c-0.1,0-0.2,0.1-0.4,0.1c-0.1,0.8-0.3,1.6-0.4,2.3c0.1,0.1,0.2,0.1,0.3,0.2
				c0.4-0.3,1.2-0.7,1.3-1C62,77,61.4,76.4,61.1,75.9z M65.1,76.8c-0.2,0-0.3,0-0.5,0.1c-0.1,0.8-0.3,1.5-0.4,2.3
				c0.1,0.1,0.2,0.1,0.3,0.2c0.4-0.3,1-0.5,1-0.8C65.5,78.1,65.3,77.4,65.1,76.8z M68.6,61.1c0.1,0.9,0.2,1.6,0.3,2.3
				c0.2,0,0.3,0,0.5,0.1c0.2-0.8,0.4-1.5,0.6-2.4C69.5,61.1,69.1,61.1,68.6,61.1z M54.4,67.2c1,1.6,1.2,0.9,2.4-0.7
				C55.9,66.8,55.2,67,54.4,67.2z M58.4,77.8c0.6,0.3,0.9,0.5,1.4,0.8c0.1-0.6,0.2-1.1,0.4-1.9C59.5,77,59.1,77.3,58.4,77.8z
				 M67,68.1c0.6,0,1.2-0.1,1.9-0.1C68,66.7,68,66.7,67,68.1z M59.9,67.7c-0.1,0.2-0.2,0.3-0.2,0.5c0.8,0.4,1.5,0.7,2.3,1.1
				c-0.1-0.4-0.2-0.6-0.5-0.7C61,68.2,60.5,67.9,59.9,67.7z"/>
			<path class="st0" d="M73.6,91.9c0.3,0.5,0.6,1,0.9,1.5c0.6-1.9,0.3-2.5-0.9-2.7c-0.1-0.4-0.2-0.8-0.3-1.4
				c-0.4,1.5-0.7,2.7-0.9,3.6c0-3-0.1-6.3-0.1-9.6c-0.2,2.1,1.5,2.7,2.9,3.4c0.2,0.1,0.9-0.2,1.1-0.5c0.5-0.9,1.1-0.8,1.7-0.3
				c1.1,0.8,2.1,1.6,3.1,2.1c0.9,0.1,1.9,0.2,2.7,0.5c0.2,0.1,0.2,0.8,0.4,1.5c1.1,0,2.5,0.1,4,0.1c-0.7,0.4-1.3,0.7-2.1,1.1
				c1.3,0.9,0.5,1.4-0.3,2c-0.4,0.3-0.8,0.4-1.1,0.7c-0.3,0.3-0.5,0.7-0.6,1.1c-0.1,0.6,0,1.2,0,1.8c-0.1,1-0.5,1.8-1.4,2.1
				c-2.1,0.5-4.2,0.9-6.3-0.1c-0.3-0.1-0.7-0.4-0.7-0.6c0.1-1.2-0.9-1.8-1.2-2.7C74,94.3,73.9,93.1,73.6,91.9z M76.7,97.3
				c0.1,0.3,0.1,0.4,0.1,0.4c1.5,1.5,5.7,0.4,6.3-1.6c0.1-0.3,0-0.7-0.1-0.9c-0.6-0.8-2.5-0.5-3.1,0.3c-0.4,0.6-0.9,1.2-1.5,1.6
				C77.9,97.4,77.3,97.3,76.7,97.3z M83.7,89.1c-0.1-0.1-0.1-0.3-0.2-0.4c-0.3,0.2-0.8,0.3-0.9,0.5c-0.4,0.8-0.8,1.6-1.2,2.5
				c0.3,0.2,0.7,0.5,1.1,0.9c1.2,1.1,2.2,0.9,3.2-0.4c-0.9-0.4-1.8-0.7-2.7-1.2c0.3-0.5,0.5-0.8,0.7-1c-0.3-0.2-0.5-0.4-0.7-0.6
				C83.3,89.3,83.5,89.2,83.7,89.1z M73.5,87.3c-0.2-0.1-0.4-0.3-0.7-0.5c-0.1,0.3-0.2,0.7-0.2,1c0,0.4,0.2,0.7,0.2,1.1
				c0.1-0.1,0.1-0.2,0.2-0.3c0.2,0.2,0.4,0.3,0.6,0.5c0.3,0.3,0.5,0.9,0.9,0.9c0.4,0,0.8-0.4,1-0.5c-0.3-0.9-0.5-1.5-0.8-2.3
				C74.5,87.3,74,87.3,73.5,87.3z M79.3,89.2c-1.7-0.4-2.9,0.3-3.8,2c0.7,0.1,1.4,0.2,2.3,0.3c-0.2-0.6-0.4-1-0.5-1.5
				C78,89.7,78.6,89.5,79.3,89.2z M80.3,88.5c0.1-0.1,0.1-0.2,0.2-0.3c-0.7-0.5-1.5-1.1-2.2-1.6c-0.9-0.6-1.2-0.4-1.7,0.8
				C77.8,87.7,79,88.1,80.3,88.5z M75.4,93.3c0.2,0.6,0.2,0.8,0.3,0.9c-0.4,0.2-0.7,0.4-1.1,0.6c0.3,0.5,0.6,0.9,1,1.5
				c0.5-0.9,0.9-1.5,1.3-2.2C76.5,93.9,76.1,93.7,75.4,93.3z M76.6,96.5c1.4,0.6,1.6-0.8,2.4-1.2C77.8,94.6,77.2,94.9,76.6,96.5z
				 M75.6,92.8c1,0.4,1.6,0.7,2.3,1.1c-0.2-0.8-0.3-1.3-0.5-2.1C77,92,76.5,92.3,75.6,92.8z M79.2,91.5c-0.5-1.3,1.2-1.3,1.2-2.3
				c-0.8,0.5-1.5,0.9-2.3,1.3C78.5,90.9,78.8,91.2,79.2,91.5z"/>
			<path class="st0" d="M79.8,72.8c1,1.3-0.7,1.3-0.9,2.1c1.3,0.3,2.4,0.7,3.8,0.2c0.8-0.3,1.9-0.3,2.8-0.3c1.9,0.1,3,1.9,2.4,3.6
				c0,0.1,0.1,0.3,0.1,0.5c0.4,1.2,0.8,2.3,1.3,3.4c-3.9,1.5-5.2,1.4-7.2-0.9c-2.2,1.2-4.3,1.6-6.4-0.1C75,81,74.5,81.3,74,81.8
				c-0.3,0.3-0.6,0.8-1,1.3c-0.1-0.7-0.2-1.2-0.2-1.8c2.7-0.7,2.7-3.6,4.4-5c0-0.2,0-0.3-0.1-0.3c-0.3-0.6-1-1.3-0.9-1.9
				c0.2-0.9,1.1-1,2-0.9C78.7,73.2,79.2,73,79.8,72.8z M76.2,81c1.2,0.9,2.1,0.7,2.9-0.5c0.6-0.9-2.8-2.3-3.3-1.6
				c0.4,0.5,0.7,0.8,1.1,1.2C76.6,80.5,76.4,80.7,76.2,81z M82.7,81.4c1.2,2.1,2.2,2.1,5.9,0.4c-0.3-0.9-0.7-1.7-1.1-2.8
				c-0.4,1-0.7,1.7-1.1,2.5C85.2,81.5,84,81.4,82.7,81.4z M81.4,78.1c2.3,1.2,2.3,1.2,3.2,0.4c-0.1-0.9-0.6-1.7-0.3-2.3
				c0.2-0.4,1.2-0.6,1.8-0.8c-1-0.5-2-0.2-3.1,0.1C81.6,75.9,82.4,77.4,81.4,78.1z M78.1,75.7c0.6,1.3,2.7,0.9,2.6,2.8
				c0.3-0.8,0.7-1.7,0.4-2.1C80.4,75.6,79.3,75.5,78.1,75.7z M76.7,74.9c0.1,0.1,0.2,0.2,0.2,0.4c0.6-0.3,1.2-0.6,1.8-0.9
				c-0.1-0.1-0.1-0.3-0.2-0.4C77.8,73.9,77,73.8,76.7,74.9z M79,81.6c0.1,0.1,0.1,0.2,0.2,0.3c0.6-0.2,1.2-0.3,2.1-0.5
				C80.6,81,79.3,81.3,79,81.6z M84,79.9c0.8,0.1,1.2,0.2,2.1,0.4C85.7,79.6,84.5,79.4,84,79.9z"/>
			<path class="st0" d="M72,128.9c-1.1,4.8-2.3,14.5-2.4,14.5c0.2-1,0.4-1.9,0.6-2.8c0.1-0.4,0.5-0.9,0.5-1.3
				c0.3-3.6,0.7-7.1,0.8-10.7c0.1-3.8-0.1-7.6-0.2-11.4c-0.1-2.7-0.4-5.3-0.6-8c0-0.3,0-0.5,0.1-0.9c0.8,0.8,1,1.6,1,2.7
				c0,3.5,0,7.1,0.3,10.6c0.3,4.5,0.9,9,1.2,13.6c0.1,1.8-0.2,3.6-0.2,5.4c0,0.8,0.1,1.6-0.1,2.4C72.3,138.2,73.2,133.5,72,128.9z"
				/>
			<path class="st0" d="M73.7,131.6c-0.3-7-0.5-14.1-0.8-21.1c0.1,0,0.3,0,0.4,0c0.2,7,0.4,14.1,0.7,21.1
				C73.9,131.6,73.8,131.6,73.7,131.6z"/>
			<path class="st0" d="M68.5,138.7c0.9-1.5,0.3-3.2,1-4.6c0.1,0,0.2,0,0.3,0c-0.5,3.1-1,6.2-1.4,9.2
				C68.3,143.4,67.7,140,68.5,138.7z"/>
			<path class="st0" d="M73.9,95.6c0.1,2,0.1,4.1,0.2,6.1c-0.1,0-0.3,0-0.4,0c-0.7-2,0.1-4.1-0.3-6.1C73.5,95.6,73.7,95.6,73.9,95.6
				z"/>
			<path class="st0" d="M72.6,102.3c-0.3-2.9-0.6-5.8-0.8-8.7c0,0,0.1,0,0.1,0c0.1,1,0.2,1.9,0.3,2.9c0.1,0.9,0.4,1.8,0.6,2.8
				c0.1,1,0.1,2,0.2,3C72.9,102.3,72.7,102.3,72.6,102.3z"/>
			<path class="st0" d="M68.6,90c0.5,2.2,1,4.5-0.2,6.8C68.5,94.5,68.6,92.3,68.6,90z"/>
			<path class="st0" d="M71.1,92.5c0.1,0.7,0.1,1.3,0.2,2.2c-1.9-2.1-2-2.3-1.5-3.9c0.3,1,0.5,1.6,0.8,2.4c0.1-0.3,0.2-0.5,0.3-0.7
				C70.9,92.5,71,92.5,71.1,92.5z"/>
			<path class="st0" d="M74,140.2c0.7,1.3,1.4,2.6,2.1,3.9C76,144.2,74.3,141.7,74,140.2z"/>
			
				<ellipse transform="matrix(2.499969e-02 -0.9997 0.9997 2.499969e-02 -60.5518 195.6701)" class="st0" cx="70" cy="128.9" rx="4.4" ry="0.1"/>
		</g>
	</g>
	<g>
		<g>
			<path d="M117,71.1h-5.6v-2H125v2h-5.6v16.3H117V71.1z"/>
			<path d="M130.1,69.1v7.7h8.9v-7.7h2.4v18.4h-2.4v-8.6h-8.9v8.6h-2.4V69.1H130.1z"/>
			<path d="M155.6,78.8h-7.1v6.6h8v2h-10.3V69.1h9.9v2h-7.5v5.8h7.1L155.6,78.8L155.6,78.8z"/>
			<path d="M180.5,86.6c-1.1,0.4-3.2,1-5.6,1c-2.8,0-5.1-0.7-6.9-2.4c-1.6-1.5-2.6-4-2.6-6.8c0-5.5,3.8-9.5,9.9-9.5
				c2.1,0,3.8,0.5,4.6,0.8l-0.6,1.9c-1-0.4-2.2-0.8-4.1-0.8c-4.5,0-7.4,2.8-7.4,7.4c0,4.7,2.8,7.4,7.1,7.4c1.5,0,2.6-0.2,3.2-0.5
				v-5.5h-3.7v-1.9h6L180.5,86.6L180.5,86.6z"/>
			<path d="M184.7,69.3c1.2-0.2,2.9-0.4,4.6-0.4c2.5,0,4.2,0.5,5.3,1.5c0.9,0.8,1.4,2.1,1.4,3.5c0,2.4-1.5,4-3.5,4.7v0.1
				c1.4,0.5,2.3,1.8,2.7,3.7c0.6,2.6,1,4.3,1.4,5h-2.5c-0.3-0.5-0.7-2.1-1.2-4.4c-0.5-2.5-1.5-3.5-3.7-3.6h-2.2v8h-2.4L184.7,69.3
				L184.7,69.3z M187.1,77.7h2.4c2.5,0,4.1-1.4,4.1-3.5c0-2.4-1.7-3.4-4.2-3.4c-1.1,0-2,0.1-2.3,0.2L187.1,77.7L187.1,77.7z"/>
			<path d="M209.5,78.8h-7.1v6.6h8v2H200V69.1h9.9v2h-7.5v5.8h7.1L209.5,78.8L209.5,78.8z"/>
			<path d="M223.5,78.8h-7.1v6.6h8v2H214V69.1h9.9v2h-7.5v5.8h7.1L223.5,78.8L223.5,78.8z"/>
			<path d="M228.1,87.4V69.1h2.6l5.9,9.3c1.4,2.2,2.4,4.1,3.3,6l0.1,0c-0.2-2.5-0.3-4.7-0.3-7.5v-7.7h2.2v18.4h-2.4l-5.8-9.3
				c-1.3-2-2.5-4.1-3.4-6.1l-0.1,0c0.1,2.3,0.2,4.5,0.2,7.6v7.8L228.1,87.4L228.1,87.4z"/>
			<path d="M255.4,69.1v18.4H253V69.1H255.4z"/>
			<path d="M260.1,87.4V69.1h2.6l5.9,9.3c1.4,2.2,2.4,4.1,3.3,6l0.1,0c-0.2-2.5-0.3-4.7-0.3-7.5v-7.7h2.2v18.4h-2.4l-5.8-9.3
				c-1.3-2-2.5-4.1-3.4-6.1l-0.1,0c0.1,2.3,0.2,4.5,0.2,7.6v7.8L260.1,87.4L260.1,87.4z"/>
			<path d="M281,69.1v18.4h-2.4V69.1H281z"/>
			<path d="M289.3,71.1h-5.6v-2h13.6v2h-5.6v16.3h-2.4L289.3,71.1L289.3,71.1z"/>
			<path d="M302.3,69.1v18.4H300V69.1H302.3z"/>
			<path d="M310.1,81.7l-1.9,5.8h-2.5l6.2-18.4h2.9l6.3,18.4h-2.5l-2-5.8H310.1z M316.1,79.8l-1.8-5.3c-0.4-1.2-0.7-2.3-1-3.4h-0.1
				c-0.3,1.1-0.6,2.2-0.9,3.3l-1.8,5.3H316.1z"/>
			<path d="M325.8,71.1h-5.6v-2h13.6v2h-5.6v16.3h-2.4L325.8,71.1L325.8,71.1z"/>
			<path d="M338.8,69.1v18.4h-2.4V69.1H338.8z"/>
			<path d="M347.6,87.4l-6-18.4h2.6l2.9,9c0.8,2.5,1.5,4.7,2,6.9h0.1c0.5-2.1,1.3-4.4,2.1-6.8l3.1-9.1h2.5l-6.6,18.4H347.6z"/>
			<path d="M368.9,78.8h-7.1v6.6h8v2h-10.3V69.1h9.9v2h-7.5v5.8h7.1L368.9,78.8L368.9,78.8z"/>
		</g>
	</g>
	<g>
		<path d="M136.4,128.1c0,2-0.4,3.7-1.1,5.2c-0.7,1.5-1.7,2.8-3,3.9c-1.3,1.1-2.8,1.9-4.5,2.4c-1.7,0.5-3.6,0.8-5.6,0.8
			c-1.4,0-2.7-0.1-3.9-0.4c-1.2-0.2-2.3-0.5-3.2-0.9c-0.9-0.3-1.7-0.7-2.3-1.1c-0.6-0.4-1.1-0.7-1.3-0.9c-0.2-0.3-0.4-0.6-0.5-1
			s-0.2-0.9-0.2-1.6c0-0.5,0-0.9,0.1-1.2c0-0.3,0.1-0.6,0.2-0.8c0.1-0.2,0.2-0.3,0.3-0.4c0.1-0.1,0.3-0.1,0.4-0.1
			c0.3,0,0.7,0.2,1.3,0.5c0.5,0.4,1.2,0.8,2.1,1.2c0.9,0.4,1.9,0.8,3.1,1.2c1.2,0.4,2.6,0.6,4.2,0.6c1.2,0,2.3-0.2,3.3-0.5
			c1-0.3,1.9-0.8,2.6-1.4c0.7-0.6,1.3-1.3,1.7-2.2c0.4-0.9,0.6-1.8,0.6-2.9c0-1.2-0.3-2.2-0.8-3s-1.2-1.6-2.1-2.2
			c-0.9-0.6-1.9-1.2-3-1.7s-2.3-1.1-3.5-1.6c-1.2-0.5-2.3-1.2-3.4-1.8c-1.1-0.7-2.1-1.4-3-2.3c-0.9-0.9-1.6-2-2.1-3.2
			c-0.5-1.2-0.8-2.7-0.8-4.4c0-1.7,0.3-3.3,1-4.6c0.6-1.4,1.5-2.5,2.6-3.4c1.1-0.9,2.5-1.6,4-2.1c1.5-0.5,3.2-0.7,5-0.7
			c0.9,0,1.9,0.1,2.8,0.2c0.9,0.2,1.8,0.4,2.6,0.6c0.8,0.3,1.6,0.6,2.2,0.9c0.6,0.3,1.1,0.6,1.3,0.8c0.2,0.2,0.3,0.4,0.4,0.5
			c0.1,0.1,0.1,0.3,0.2,0.4c0,0.2,0.1,0.4,0.1,0.7c0,0.3,0,0.6,0,1c0,0.4,0,0.7,0,1c0,0.3-0.1,0.5-0.1,0.8c-0.1,0.2-0.2,0.3-0.3,0.4
			c-0.1,0.1-0.2,0.1-0.4,0.1c-0.2,0-0.6-0.1-1.1-0.4c-0.5-0.3-1.1-0.6-1.9-1c-0.7-0.4-1.6-0.7-2.6-1c-1-0.3-2.1-0.5-3.4-0.5
			c-1.2,0-2.2,0.2-3,0.5c-0.9,0.3-1.6,0.7-2.1,1.2c-0.6,0.5-1,1.1-1.3,1.8c-0.3,0.7-0.4,1.5-0.4,2.3c0,1.2,0.3,2.2,0.8,3
			c0.5,0.8,1.2,1.6,2.1,2.2c0.9,0.6,1.9,1.2,3,1.8c1.1,0.5,2.3,1.1,3.5,1.6c1.2,0.5,2.3,1.1,3.5,1.8c1.1,0.7,2.2,1.4,3,2.3
			c0.9,0.9,1.6,1.9,2.2,3.2C136.2,125,136.4,126.4,136.4,128.1z"/>
		<path d="M170.2,137.5c0,0.4,0,0.7-0.1,1c0,0.3-0.1,0.5-0.2,0.7c-0.1,0.2-0.2,0.3-0.4,0.4c-0.1,0.1-0.3,0.1-0.5,0.1h-19.9
			c-0.5,0-1-0.2-1.4-0.5c-0.4-0.3-0.7-0.9-0.7-1.7v-37.1c0-0.8,0.2-1.4,0.7-1.7c0.4-0.3,0.9-0.5,1.4-0.5h19.7c0.2,0,0.3,0,0.5,0.1
			s0.2,0.2,0.3,0.4c0.1,0.2,0.2,0.4,0.2,0.7c0.1,0.3,0.1,0.7,0.1,1.1c0,0.4,0,0.7-0.1,1c-0.1,0.3-0.1,0.5-0.2,0.7
			c-0.1,0.2-0.2,0.3-0.3,0.4s-0.3,0.1-0.5,0.1h-16.3v13h14c0.2,0,0.3,0,0.5,0.1c0.1,0.1,0.3,0.2,0.3,0.4c0.1,0.2,0.2,0.4,0.2,0.7
			c0,0.3,0.1,0.7,0.1,1.1c0,0.4,0,0.7-0.1,1s-0.1,0.5-0.2,0.7s-0.2,0.3-0.3,0.4s-0.3,0.1-0.5,0.1h-14v14.9h16.5c0.2,0,0.3,0,0.5,0.1
			c0.1,0.1,0.3,0.2,0.4,0.4c0.1,0.2,0.2,0.4,0.2,0.7C170.2,136.7,170.2,137.1,170.2,137.5z"/>
		<path d="M220.9,143.4c0,0.5,0,0.9-0.1,1.2c-0.1,0.3-0.1,0.6-0.2,0.8s-0.2,0.3-0.4,0.4c-0.1,0.1-0.3,0.1-0.4,0.1
			c-0.4,0-1.1-0.2-2.1-0.5c-1-0.3-2.1-0.9-3.3-1.5c-1.2-0.7-2.6-1.5-4-2.5c-1.4-1-2.8-2.1-4.1-3.4c-1.1,0.6-2.4,1.2-4,1.7
			c-1.6,0.5-3.5,0.7-5.6,0.7c-3.1,0-5.8-0.5-8.1-1.4c-2.3-0.9-4.2-2.3-5.7-4c-1.5-1.8-2.6-4-3.3-6.6c-0.7-2.6-1.1-5.7-1.1-9.1
			c0-3.3,0.4-6.3,1.2-8.9c0.8-2.7,2-4.9,3.6-6.8c1.6-1.9,3.6-3.3,5.9-4.3c2.4-1,5.1-1.5,8.3-1.5c3,0,5.6,0.5,7.9,1.4
			c2.3,0.9,4.2,2.3,5.7,4c1.5,1.8,2.7,3.9,3.5,6.5c0.8,2.6,1.2,5.6,1.2,8.9c0,1.7-0.1,3.4-0.3,5c-0.2,1.6-0.5,3.1-1,4.5
			c-0.4,1.4-1,2.7-1.7,3.9c-0.7,1.2-1.4,2.3-2.3,3.2c1.6,1.3,2.9,2.3,4.1,3s2.2,1.3,2.9,1.6c0.8,0.4,1.4,0.6,1.8,0.8
			c0.4,0.2,0.8,0.3,1,0.5c0.2,0.2,0.4,0.5,0.4,0.9C220.9,142.3,220.9,142.8,220.9,143.4z M210,118.8c0-2.4-0.2-4.5-0.6-6.6
			c-0.4-2-1.1-3.8-2.1-5.3c-1-1.5-2.3-2.6-3.9-3.5s-3.6-1.3-6-1.3s-4.4,0.4-6,1.3c-1.6,0.9-2.9,2.1-4,3.6c-1,1.5-1.7,3.3-2.2,5.3
			s-0.7,4.1-0.7,6.3c0,2.4,0.2,4.7,0.6,6.7c0.4,2.1,1.1,3.8,2.1,5.3s2.3,2.7,3.9,3.5c1.6,0.8,3.6,1.2,6.1,1.2c2.4,0,4.5-0.4,6.1-1.3
			s3-2.1,4-3.6c1-1.5,1.7-3.3,2.2-5.3C209.8,123.2,210,121.1,210,118.8z"/>
		<path d="M259.3,124.4c0,2.5-0.4,4.8-1.1,6.8c-0.7,2-1.8,3.7-3.2,5s-3,2.4-5,3.1c-2,0.7-4.2,1.1-6.7,1.1c-2.3,0-4.4-0.3-6.3-1
			c-1.9-0.7-3.5-1.6-4.9-2.9c-1.3-1.3-2.4-2.9-3.1-4.9c-0.7-2-1.1-4.2-1.1-6.8V99c0-0.2,0-0.3,0.1-0.4c0.1-0.1,0.2-0.2,0.4-0.3
			c0.2-0.1,0.5-0.1,0.8-0.2c0.3-0.1,0.8-0.1,1.3-0.1c0.5,0,1,0,1.3,0.1c0.4,0.1,0.7,0.1,0.9,0.2c0.2,0.1,0.3,0.2,0.4,0.3
			c0.1,0.1,0.1,0.3,0.1,0.4v25.1c0,1.9,0.2,3.6,0.7,5c0.5,1.4,1.2,2.6,2,3.6c0.9,1,2,1.7,3.2,2.2s2.7,0.7,4.2,0.7
			c1.6,0,3-0.2,4.3-0.7c1.3-0.5,2.3-1.2,3.2-2.1c0.9-0.9,1.5-2.1,2-3.5c0.5-1.4,0.7-3,0.7-4.9V99c0-0.2,0-0.3,0.1-0.4
			c0.1-0.1,0.2-0.2,0.4-0.3c0.2-0.1,0.5-0.1,0.9-0.2c0.3-0.1,0.8-0.1,1.3-0.1c0.5,0,1,0,1.3,0.1c0.4,0.1,0.6,0.1,0.8,0.2
			c0.2,0.1,0.4,0.2,0.4,0.3c0.1,0.1,0.1,0.3,0.1,0.4L259.3,124.4L259.3,124.4z"/>
		<path d="M307.8,118.5c0,3.4-0.4,6.4-1.2,9.1c-0.8,2.7-2,5-3.6,6.9c-1.6,1.9-3.6,3.4-5.9,4.4c-2.4,1-5.1,1.5-8.3,1.5
			c-3.1,0-5.8-0.5-8.1-1.4c-2.3-0.9-4.2-2.3-5.7-4.1c-1.5-1.8-2.6-4-3.3-6.6c-0.7-2.6-1.1-5.7-1.1-9.1c0-3.3,0.4-6.3,1.2-8.9
			s2-5,3.6-6.8s3.6-3.3,5.9-4.3s5.1-1.5,8.3-1.5c3.1,0,5.7,0.5,8,1.4c2.3,0.9,4.2,2.3,5.7,4c1.5,1.8,2.6,3.9,3.4,6.6
			C307.5,112.2,307.8,115.1,307.8,118.5z M302,118.9c0-2.4-0.2-4.6-0.6-6.6c-0.4-2-1.1-3.8-2.1-5.3c-1-1.5-2.3-2.6-3.9-3.5
			c-1.6-0.8-3.6-1.3-6-1.3s-4.4,0.4-6,1.3c-1.6,0.9-2.9,2.1-4,3.6s-1.7,3.3-2.2,5.3c-0.4,2-0.7,4.1-0.7,6.3c0,2.4,0.2,4.7,0.6,6.8
			c0.4,2.1,1.1,3.8,2.1,5.3c1,1.5,2.3,2.6,3.9,3.5c1.6,0.8,3.6,1.2,6.1,1.2c2.4,0,4.5-0.4,6.1-1.3s3-2.1,4-3.6
			c1-1.5,1.7-3.3,2.2-5.3C301.8,123.3,302,121.1,302,118.9z"/>
		<path d="M324.9,138.9c0,0.2,0,0.3-0.1,0.4c-0.1,0.1-0.2,0.2-0.4,0.3c-0.2,0.1-0.5,0.1-0.9,0.2c-0.3,0.1-0.8,0.1-1.3,0.1
			c-0.5,0-1,0-1.3-0.1c-0.4-0.1-0.7-0.1-0.9-0.2c-0.2-0.1-0.4-0.2-0.4-0.3c-0.1-0.1-0.1-0.3-0.1-0.4V99c0-0.2,0-0.3,0.1-0.4
			c0.1-0.1,0.3-0.2,0.5-0.3c0.2-0.1,0.5-0.1,0.9-0.2c0.3-0.1,0.8-0.1,1.3-0.1c0.5,0,1,0,1.3,0.1c0.4,0.1,0.6,0.1,0.9,0.2
			c0.2,0.1,0.4,0.2,0.4,0.3c0.1,0.1,0.1,0.3,0.1,0.4L324.9,138.9L324.9,138.9z"/>
		<path d="M369.8,137.8c0.2,0.5,0.3,0.9,0.3,1.1c0,0.3-0.1,0.5-0.2,0.7c-0.2,0.1-0.5,0.2-0.9,0.3s-0.9,0.1-1.6,0.1
			c-0.7,0-1.2,0-1.6,0c-0.4,0-0.7-0.1-0.9-0.2c-0.2-0.1-0.3-0.2-0.4-0.3c-0.1-0.1-0.2-0.3-0.3-0.5l-3.6-10.1h-17.3l-3.4,10
			c-0.1,0.2-0.1,0.4-0.3,0.5s-0.3,0.3-0.5,0.4c-0.2,0.1-0.5,0.2-0.9,0.2c-0.4,0-0.9,0.1-1.5,0.1c-0.6,0-1.1,0-1.5-0.1
			c-0.4-0.1-0.7-0.2-0.8-0.3c-0.2-0.1-0.2-0.4-0.2-0.7c0-0.3,0.1-0.7,0.3-1.1l14-38.6c0.1-0.2,0.2-0.4,0.3-0.6
			c0.1-0.1,0.3-0.3,0.6-0.3c0.3-0.1,0.6-0.1,1-0.2c0.4,0,1,0,1.6,0c0.7,0,1.3,0,1.7,0c0.4,0,0.8,0.1,1.1,0.2
			c0.3,0.1,0.5,0.2,0.6,0.4c0.1,0.2,0.3,0.4,0.4,0.6L369.8,137.8z M351.9,103.7L351.9,103.7l-7.2,20.7h14.5L351.9,103.7z"/>
	</g>
	<g>
		<path d="M139.1,55.7c0.8,0.5,2.2,1.1,3.6,1.1c2,0,2.9-1,2.9-2.2c0-1.3-0.8-2-2.8-2.8c-2.7-1-4-2.5-4-4.3c0-2.4,2-4.4,5.2-4.4
			c1.5,0,2.9,0.4,3.7,0.9l-0.7,2c-0.6-0.4-1.7-0.9-3.1-0.9c-1.6,0-2.5,0.9-2.5,2.1c0,1.2,0.9,1.8,2.9,2.6c2.6,1,3.9,2.3,3.9,4.6
			c0,2.7-2.1,4.5-5.6,4.5c-1.6,0-3.2-0.4-4.2-1L139.1,55.7z"/>
		<path d="M153.3,51.4c0.1,3.7,2.4,5.2,5.2,5.2c2,0,3.1-0.3,4.2-0.8l0.5,2c-1,0.4-2.6,0.9-5,0.9c-4.6,0-7.4-3.1-7.4-7.6
			s2.7-8.1,7.1-8.1c4.9,0,6.2,4.3,6.2,7.1c0,0.6-0.1,1-0.1,1.3H153.3z M161.3,49.5c0-1.7-0.7-4.5-3.8-4.5c-2.8,0-4,2.6-4.2,4.5
			H161.3z"/>
		<path d="M177.5,56.2L177.5,56.2c-0.9,1.5-2.6,2.7-5,2.7c-3.5,0-6.4-3.1-6.4-7.6c0-5.7,3.6-8.1,6.8-8.1c2.3,0,3.9,1.2,4.6,2.6h0.1
			l0.1-2.3h2.6c-0.1,1.3-0.1,2.6-0.1,4.1v17.1h-2.7L177.5,56.2L177.5,56.2z M177.5,49.5c0-0.4,0-0.8-0.1-1.2
			c-0.4-1.7-1.9-3.1-3.9-3.1c-2.8,0-4.5,2.4-4.5,5.8c0,3,1.4,5.6,4.4,5.6c1.8,0,3.3-1.1,3.9-3c0.1-0.4,0.2-0.9,0.2-1.3L177.5,49.5
			L177.5,49.5z"/>
		<path d="M197.3,54.4c0,1.6,0,2.9,0.1,4.1h-2.4l-0.2-2.5h-0.1c-0.7,1.2-2.3,2.8-5,2.8c-2.4,0-5.2-1.3-5.2-6.6v-8.8h2.7v8.4
			c0,2.9,0.9,4.8,3.4,4.8c1.8,0,3.1-1.3,3.6-2.5c0.2-0.4,0.2-0.9,0.2-1.4v-9.3h2.7L197.3,54.4L197.3,54.4z"/>
		<path d="M215.5,50.8c0,5.6-3.8,8-7.5,8c-4.1,0-7.2-3-7.2-7.8c0-5.1,3.3-8,7.5-8C212.6,43,215.5,46.2,215.5,50.8z M203.6,51
			c0,3.3,1.9,5.8,4.6,5.8c2.6,0,4.6-2.5,4.6-5.9c0-2.6-1.3-5.8-4.5-5.8S203.6,48.1,203.6,51z"/>
		<path d="M222,39.1c0,0.9-0.7,1.7-1.7,1.7c-1,0-1.6-0.8-1.6-1.7c0-1,0.7-1.7,1.7-1.7C221.3,37.4,222,38.2,222,39.1z M218.9,58.5
			V43.4h2.7v15.1H218.9z"/>
		<path d="M234.5,58.5l-0.2-1.9h-0.1c-0.8,1.2-2.5,2.2-4.6,2.2c-3,0-4.6-2.2-4.6-4.3c0-3.7,3.2-5.7,9-5.6v-0.3
			c0-1.2-0.3-3.5-3.4-3.5c-1.4,0-2.9,0.4-3.9,1.1l-0.6-1.8c1.2-0.8,3-1.3,4.9-1.3c4.6,0,5.7,3.2,5.7,6.2v5.7c0,1.3,0.1,2.6,0.2,3.6
			L234.5,58.5L234.5,58.5z M234.1,50.8c-3-0.1-6.4,0.5-6.4,3.4c0,1.8,1.2,2.6,2.6,2.6c2,0,3.2-1.2,3.6-2.5c0.1-0.3,0.2-0.6,0.2-0.9
			L234.1,50.8L234.1,50.8z"/>
		<path d="M240.5,56.9c0-1.2,0.8-2,1.9-2s1.8,0.8,1.8,2c0,1.1-0.7,2-1.9,2C241.3,58.8,240.5,58,240.5,56.9z"/>
		<path class="st0" d="M249.1,51.4c0.1,3.7,2.4,5.2,5.2,5.2c2,0,3.1-0.3,4.2-0.8l0.5,2c-1,0.4-2.6,0.9-5,0.9c-4.6,0-7.4-3.1-7.4-7.6
			s2.7-8.1,7.1-8.1c4.9,0,6.2,4.3,6.2,7.1c0,0.6-0.1,1-0.1,1.3H249.1z M257.1,49.5c0-1.7-0.7-4.5-3.8-4.5c-2.8,0-4,2.6-4.2,4.5
			H257.1z"/>
		<path class="st0" d="M264.3,43.4l2.1,3.2c0.6,0.8,1,1.6,1.5,2.5h0.1c0.5-0.9,1-1.7,1.5-2.5l2.1-3.2h2.9l-5.1,7.3l5.3,7.8h-3.1
			l-2.2-3.4c-0.6-0.9-1.1-1.7-1.6-2.6h-0.1c-0.5,0.9-1,1.7-1.6,2.6l-2.2,3.4h-3l5.3-7.7l-5.1-7.4L264.3,43.4L264.3,43.4z"/>
		<path class="st0" d="M287.7,57.9c-0.7,0.4-2.3,0.9-4.3,0.9c-4.5,0-7.5-3.1-7.5-7.7c0-4.7,3.2-8,8.1-8c1.6,0,3,0.4,3.8,0.8
			l-0.6,2.1c-0.7-0.4-1.7-0.7-3.2-0.7c-3.4,0-5.3,2.6-5.3,5.7c0,3.5,2.2,5.7,5.2,5.7c1.5,0,2.6-0.4,3.4-0.8L287.7,57.9z"/>
		<path class="st0" d="M290.9,36.3h2.7v9.4h0.1c0.4-0.8,1.1-1.5,2-1.9c0.8-0.5,1.8-0.8,2.8-0.8c2,0,5.2,1.2,5.2,6.5v9h-2.7v-8.7
			c0-2.4-0.9-4.5-3.5-4.5c-1.8,0-3.2,1.2-3.7,2.7c-0.2,0.4-0.2,0.8-0.2,1.3v9.1h-2.7L290.9,36.3L290.9,36.3z"/>
		<path class="st0" d="M316.4,58.5l-0.2-1.9h-0.1c-0.8,1.2-2.5,2.2-4.6,2.2c-3,0-4.6-2.2-4.6-4.3c0-3.7,3.2-5.7,9-5.6v-0.3
			c0-1.2-0.3-3.5-3.4-3.5c-1.4,0-2.9,0.4-3.9,1.1l-0.6-1.8c1.2-0.8,3-1.3,4.9-1.3c4.6,0,5.7,3.2,5.7,6.2v5.7c0,1.3,0.1,2.6,0.2,3.6
			L316.4,58.5L316.4,58.5z M316,50.8c-3-0.1-6.4,0.5-6.4,3.4c0,1.8,1.2,2.6,2.6,2.6c2,0,3.2-1.2,3.6-2.5c0.1-0.3,0.2-0.6,0.2-0.9
			V50.8z"/>
		<path class="st0" d="M323.1,47.5c0-1.6,0-2.8-0.1-4.1h2.4l0.2,2.5h0.1c0.7-1.4,2.5-2.8,5-2.8c2.1,0,5.3,1.2,5.3,6.4v9h-2.7v-8.7
			c0-2.4-0.9-4.5-3.5-4.5c-1.8,0-3.2,1.3-3.7,2.8c-0.1,0.3-0.2,0.8-0.2,1.3v9.1h-2.7V47.5z"/>
		<path class="st0" d="M353.3,43.4c-0.1,1.1-0.1,2.3-0.1,4.1v8.8c0,3.5-0.7,5.6-2.1,6.9c-1.5,1.4-3.6,1.8-5.5,1.8
			c-1.8,0-3.8-0.4-5-1.2l0.7-2.1c1,0.6,2.5,1.2,4.4,1.2c2.8,0,4.8-1.5,4.8-5.3v-1.7h-0.1c-0.8,1.4-2.5,2.5-4.8,2.5
			c-3.7,0-6.4-3.2-6.4-7.4c0-5.1,3.3-8,6.8-8c2.6,0,4,1.4,4.7,2.6h0.1l0.1-2.3L353.3,43.4L353.3,43.4z M350.4,49.3
			c0-0.5,0-0.9-0.2-1.2c-0.5-1.6-1.8-2.9-3.8-2.9c-2.6,0-4.5,2.2-4.5,5.7c0,3,1.5,5.4,4.4,5.4c1.7,0,3.2-1.1,3.8-2.8
			c0.2-0.5,0.2-1,0.2-1.5L350.4,49.3L350.4,49.3z"/>
		<path class="st0" d="M359.2,51.4c0.1,3.7,2.4,5.2,5.2,5.2c2,0,3.1-0.3,4.2-0.8l0.5,2c-1,0.4-2.6,0.9-5,0.9c-4.6,0-7.4-3.1-7.4-7.6
			s2.7-8.1,7.1-8.1c4.9,0,6.2,4.3,6.2,7.1c0,0.6-0.1,1-0.1,1.3H359.2z M367.2,49.5c0-1.7-0.7-4.5-3.8-4.5c-2.8,0-4,2.6-4.2,4.5
			H367.2z"/>
	</g>
	<g>
		<polygon class="st0" points="121.5,50.1 121.5,43.4 119.8,43.4 119.8,50.1 119.8,50.6 118.2,52.3 118.2,43.4 116.5,43.4 
			116.5,53.5 116.5,53.9 114.8,55.6 114.8,43.4 113.1,43.4 113.1,57.3 111.4,59 111.4,60.2 112.6,60.2 114.3,58.5 128.3,58.5 
			128.3,56.9 116,56.9 117.6,55.2 118.2,55.2 128.3,55.2 128.3,53.5 119.3,53.5 121,51.8 121.5,51.8 128.3,51.8 128.3,50.1 
			121.5,50.1 		"/>
		<rect x="123.2" y="43.4" class="st0" width="5" height="5"/>
	</g>
</g>
</svg>
