<?xml version="1.0" encoding="utf-8"?>
<!-- Generator: Adobe Illustrator 26.0.1, SVG Export Plug-In . SVG Version: 6.00 Build 0)  -->
<svg version="1.1" id="Слой_1" xmlns="http://www.w3.org/2000/svg" xmlns:xlink="http://www.w3.org/1999/xlink" x="0px" y="0px"
	 viewBox="0 0 1376.4 142.9" style="enable-background:new 0 0 1376.4 142.9;" xml:space="preserve">
<style type="text/css">
	.st0{fill:#5B5B5B;}
</style>
<g>
	<path class="st0" d="M4.5,96.4c3.8,2.5,10.7,5.2,17.2,5.2c9.5,0,14-4.8,14-10.8c0-6.3-3.7-9.7-13.4-13.3C9.4,72.9,3.3,65.7,3.3,57
		c0-11.7,9.4-21.2,24.9-21.2c7.3,0,13.7,2.1,17.7,4.5l-3.3,9.6c-2.8-1.8-8-4.2-14.7-4.2c-7.7,0-12.1,4.5-12.1,9.9
		c0,6,4.3,8.7,13.7,12.3c12.5,4.7,18.9,11,18.9,21.8c0,12.7-9.8,21.7-27,21.7c-7.9,0-15.2-1.9-20.2-4.9L4.5,96.4z"/>
	<path class="st0" d="M72.5,76c0.3,17.8,11.6,25.2,24.7,25.2c9.4,0,15-1.7,19.9-3.7l2.2,9.4c-4.6,2.1-12.5,4.5-24,4.5
		c-22.2,0-35.4-14.7-35.4-36.5s12.8-39.1,33.8-39.1c23.5,0,29.8,20.8,29.8,34.1c0,2.7-0.3,4.8-0.4,6.1H72.5L72.5,76z M110.9,66.6
		c0.1-8.4-3.4-21.4-18.2-21.4c-13.2,0-19.1,12.3-20.1,21.4H110.9z"/>
	<path class="st0" d="M189,98.6h-0.3c-3.9,7.2-11.9,12.9-23.5,12.9c-16.8,0-30.5-14.7-30.5-36.7c0-27.1,17.4-39.1,32.6-39.1
		c11.2,0,18.6,5.5,22.2,12.6h0.3l0.4-10.9h12.4c-0.3,6.1-0.4,12.4-0.4,19.9v82.2h-13.1L189,98.6L189,98.6z M189,66.8
		c0-1.8-0.1-3.9-0.6-5.5c-1.9-8.1-8.9-15-18.8-15c-13.6,0-21.7,11.5-21.7,27.8c0,14.4,6.9,26.9,21.3,26.9c8.5,0,15.8-5.2,18.8-14.4
		c0.6-1.8,1-4.3,1-6.3V66.8L189,66.8z"/>
	<path class="st0" d="M283.9,90.1c0,7.5,0.1,14.1,0.6,19.8h-11.6l-0.7-11.8h-0.3c-3.4,5.8-11,13.5-23.8,13.5
		c-11.3,0-24.9-6.3-24.9-31.7V37.4h13.1v40.1c0,13.8,4.2,23.1,16.1,23.1c8.8,0,14.9-6.1,17.3-12c0.7-1.9,1.2-4.3,1.2-6.7V37.4H284
		v52.7H283.9z"/>
	<path class="st0" d="M370.9,73c0,26.8-18.5,38.5-35.9,38.5c-19.5,0-34.5-14.4-34.5-37.3c0-24.2,15.8-38.5,35.7-38.5
		C356.9,35.8,370.9,50.9,370.9,73z M313.7,73.8c0,15.9,9.1,27.8,21.9,27.8c12.5,0,21.9-11.8,21.9-28.1c0-12.3-6.1-27.8-21.6-27.8
		C320.4,45.7,313.7,60,313.7,73.8z"/>
	<path class="st0" d="M402,17.1c0.1,4.5-3.1,8.1-8.3,8.1c-4.6,0-7.9-3.6-7.9-8.1c0-4.6,3.4-8.2,8.2-8.2C398.9,8.8,402,12.4,402,17.1
		z M387.4,109.9V37.4h13.1v72.4C400.5,109.9,387.4,109.9,387.4,109.9z"/>
	<path class="st0" d="M462.2,109.9l-1-9.1h-0.5c-4,5.7-11.8,10.8-22,10.8c-14.6,0-22-10.3-22-20.8c0-17.5,15.5-27.1,43.3-26.9v-1.5
		c0-6-1.6-16.8-16.4-16.8c-6.7,0-13.7,2.1-18.8,5.4l-3-8.7c6-3.9,14.6-6.4,23.7-6.4c22,0,27.4,15.1,27.4,29.6v27.1
		c0,6.3,0.3,12.4,1.2,17.4L462.2,109.9L462.2,109.9z M460.2,72.9c-14.3-0.3-30.5,2.2-30.5,16.3c0,8.5,5.7,12.6,12.4,12.6
		c9.4,0,15.3-6,17.4-12.1c0.5-1.3,0.8-2.8,0.8-4.2L460.2,72.9L460.2,72.9z"/>
	<path class="st0" d="M501.3,76c0.3,17.8,11.6,25.1,24.7,25.1c9.4,0,15-1.7,20-3.7l2.2,9.4c-4.6,2.1-12.5,4.5-24,4.5
		c-22.2,0-35.4-14.7-35.4-36.5s12.8-39.1,33.8-39.1c23.5,0,29.8,20.8,29.8,34.1c0,2.7-0.3,4.8-0.5,6.1L501.3,76L501.3,76z
		 M539.7,66.6c0.2-8.4-3.4-21.4-18.2-21.4c-13.2,0-19.1,12.3-20.1,21.4H539.7z"/>
	<path class="st0" d="M574.3,37.4L584.6,53c2.7,4,4.9,7.8,7.3,11.8h0.5c2.4-4.3,4.8-8.1,7.2-12l10.1-15.4h14.1l-24.6,35l25.3,37.4
		h-14.9L599,93.6c-2.8-4.2-5.2-8.2-7.7-12.6H591c-2.4,4.3-4.9,8.2-7.6,12.6L573,109.9h-14.4l25.6-37l-24.4-35.5
		C559.8,37.4,574.3,37.4,574.3,37.4z"/>
	<path class="st0" d="M686.3,107.2c-3.4,1.8-11,4.2-20.7,4.2c-21.7,0-35.9-14.8-35.9-37c0-22.3,15.2-38.5,38.7-38.5
		c7.7,0,14.6,2,18.2,3.7l-3,10.2c-3.1-1.8-8-3.4-15.2-3.4c-16.5,0-25.5,12.3-25.5,27.4c0,16.8,10.7,27.1,25,27.1
		c7.5,0,12.4-1.9,16.1-3.6L686.3,107.2z"/>
	<path class="st0" d="M701.6,3.6h13.1v45.2h0.3c2.1-3.7,5.4-7,9.4-9.3c3.9-2.2,8.5-3.7,13.4-3.7c9.7,0,25.2,6,25.2,31v43.1h-13.1
		V68.3c0-11.7-4.3-21.5-16.7-21.5c-8.5,0-15.2,6-17.6,13.2c-0.7,1.8-0.9,3.7-0.9,6.3V110h-13.1L701.6,3.6L701.6,3.6z"/>
	<path class="st0" d="M824.1,109.9l-1-9.1h-0.5c-4,5.7-11.8,10.8-22,10.8c-14.6,0-22-10.3-22-20.8c0-17.5,15.5-27.1,43.3-26.9v-1.5
		c0-6-1.6-16.8-16.4-16.8c-6.7,0-13.7,2.1-18.8,5.4l-3-8.7c6-3.9,14.6-6.4,23.7-6.4c22,0,27.4,15.1,27.4,29.6v27.1
		c0,6.3,0.3,12.4,1.2,17.4L824.1,109.9L824.1,109.9z M822.2,72.9c-14.3-0.3-30.5,2.2-30.5,16.3c0,8.5,5.7,12.6,12.4,12.6
		c9.4,0,15.3-6,17.4-12.1c0.5-1.3,0.8-2.8,0.8-4.2L822.2,72.9L822.2,72.9z"/>
	<path class="st0" d="M856,57c0-7.5-0.2-13.6-0.6-19.6H867l0.7,12h0.3c3.6-6.9,11.9-13.6,23.8-13.6c10,0,25.5,6,25.5,30.8v43.3
		h-13.1V68.1c0-11.7-4.3-21.4-16.7-21.4c-8.6,0-15.3,6.1-17.6,13.5c-0.6,1.7-0.9,3.9-0.9,6.1v43.6h-13.1L856,57L856,57z"/>
	<path class="st0" d="M1000.7,37.4c-0.3,5.2-0.6,11.1-0.6,19.9v42.1c0,16.6-3.3,26.8-10.3,33.1c-7,6.6-17.1,8.7-26.2,8.7
		c-8.6,0-18.2-2.1-24-6l3.3-10c4.8,3,12.2,5.7,21.1,5.7c13.4,0,23.2-7,23.2-25.3v-8.1h-0.3c-4,6.7-11.8,12.1-22.9,12.1
		c-17.9,0-30.7-15.3-30.7-35.3c0-24.5,15.9-38.5,32.5-38.5c12.5,0,19.4,6.6,22.5,12.6h0.3l0.6-10.9
		C989.3,37.4,1000.7,37.4,1000.7,37.4z M987.2,66c0-2.2-0.2-4.2-0.7-6c-2.4-7.6-8.8-13.9-18.3-13.9c-12.5,0-21.4,10.6-21.4,27.4
		c0,14.2,7.2,26,21.3,26c8,0,15.3-5.1,18.2-13.5c0.7-2.2,1-4.8,1-7L987.2,66L987.2,66z"/>
	<path class="st0" d="M1029.2,76c0.3,17.8,11.6,25.1,24.7,25.1c9.4,0,15-1.7,19.9-3.7l2.2,9.4c-4.6,2.1-12.5,4.5-24,4.5
		c-22.2,0-35.4-14.7-35.4-36.5s12.8-39.1,33.8-39.1c23.5,0,29.8,20.8,29.8,34.1c0,2.7-0.3,4.8-0.4,6.1L1029.2,76L1029.2,76z
		 M1067.6,66.6c0.2-8.4-3.4-21.4-18.2-21.4c-13.2,0-19.1,12.3-20.1,21.4H1067.6z"/>
	<path class="st0" d="M1091.6,102.1c0-5.5,3.7-9.4,8.9-9.4c5.2,0,8.8,3.9,8.8,9.4c0,5.4-3.4,9.4-8.9,9.4
		C1095.1,111.5,1091.6,107.5,1091.6,102.1z"/>
	<path class="st0" d="M1176.9,107.2c-3.4,1.8-11,4.2-20.7,4.2c-21.7,0-35.9-14.8-35.9-37c0-22.3,15.2-38.5,38.7-38.5
		c7.7,0,14.6,2,18.2,3.7l-3,10.2c-3.1-1.8-8-3.4-15.2-3.4c-16.5,0-25.5,12.3-25.5,27.4c0,16.8,10.7,27.1,25,27.1
		c7.4,0,12.4-1.9,16.1-3.6L1176.9,107.2z"/>
	<path class="st0" d="M1256.5,73c0,26.8-18.5,38.5-35.9,38.5c-19.5,0-34.5-14.4-34.5-37.3c0-24.2,15.8-38.5,35.7-38.5
		C1242.5,35.8,1256.5,50.9,1256.5,73z M1199.4,73.8c0,15.9,9.1,27.8,21.9,27.8c12.5,0,21.9-11.8,21.9-28.1
		c0-12.3-6.1-27.8-21.6-27.8C1206.1,45.7,1199.4,60,1199.4,73.8z"/>
	<path class="st0" d="M1273.1,57c0-7.5-0.2-13.6-0.6-19.6h11.5l0.6,11.7h0.4c4-6.9,10.7-13.3,22.6-13.3c9.8,0,17.3,6,20.4,14.5h0.3
		c2.2-4,5.1-7.2,8-9.4c4.3-3.3,9.1-5.1,15.9-5.1c9.5,0,23.7,6.3,23.7,31.4v42.7h-12.8v-41c0-13.9-5.1-22.3-15.6-22.3
		c-7.4,0-13.2,5.5-15.5,12c-0.6,1.8-1,4.2-1,6.6V110h-12.8V66.5c0-11.5-5.1-19.9-15-19.9c-8.2,0-14.2,6.6-16.2,13.2
		c-0.8,2-1,4.2-1,6.4v43.7h-12.8L1273.1,57L1273.1,57z"/>
</g>
</svg>
