<?xml version="1.0" encoding="utf-8"?>
<!-- Generator: Adobe Illustrator 26.0.1, SVG Export Plug-In . SVG Version: 6.00 Build 0)  -->
<svg version="1.1" id="Слой_1" xmlns="http://www.w3.org/2000/svg" xmlns:xlink="http://www.w3.org/1999/xlink" x="0px" y="0px"
	 viewBox="0 0 1244.87 145" style="enable-background:new 0 0 1244.87 145;" xml:space="preserve">
<g>
	<g>
		<path d="M135.72,97.77c3.87,2.54,10.72,5.24,17.27,5.24c9.53,0,14-4.79,14-10.78c0-6.29-3.72-9.73-13.4-13.32
			c-12.95-4.64-19.06-11.82-19.06-20.51c0-11.67,9.38-21.25,24.87-21.25c7.3,0,13.7,2.1,17.72,4.49l-3.28,9.58
			c-2.83-1.8-8.04-4.19-14.74-4.19c-7.74,0-12.06,4.49-12.06,9.88c0,5.99,4.32,8.68,13.7,12.27c12.51,4.79,18.91,11.08,18.91,21.85
			c0,12.72-9.83,21.7-26.95,21.7c-7.89,0-15.19-1.95-20.25-4.94L135.72,97.77z"/>
		<path d="M203.77,77.41c0.3,17.81,11.61,25.14,24.72,25.14c9.38,0,15.04-1.65,19.95-3.74l2.23,9.43
			c-4.62,2.1-12.51,4.49-23.97,4.49c-22.18,0-35.44-14.67-35.44-36.52c0-21.85,12.8-39.06,33.8-39.06
			c23.53,0,29.78,20.8,29.78,34.13c0,2.69-0.3,4.79-0.45,6.14H203.77z M242.18,67.98c0.15-8.38-3.42-21.4-18.17-21.4
			c-13.25,0-19.06,12.27-20.1,21.4H242.18z"/>
		<path d="M320.21,100.01h-0.3c-3.87,7.18-11.91,12.87-23.53,12.87c-16.83,0-30.52-14.67-30.52-36.67
			c0-27.09,17.42-39.06,32.61-39.06c11.17,0,18.61,5.54,22.19,12.57h0.3l0.45-10.93h12.36c-0.3,6.14-0.45,12.42-0.45,19.91v82.17
			h-13.1V100.01z M320.21,68.13c0-1.8-0.15-3.89-0.6-5.54c-1.94-8.08-8.93-14.97-18.76-14.97c-13.55,0-21.74,11.52-21.74,27.84
			c0,14.37,6.85,26.94,21.29,26.94c8.49,0,15.78-5.24,18.76-14.37c0.59-1.8,1.04-4.34,1.04-6.29V68.13z"/>
		<path d="M415.2,91.48c0,7.48,0.15,14.07,0.6,19.76h-11.61l-0.74-11.82h-0.3c-3.42,5.84-11.02,13.47-23.82,13.47
			c-11.32,0-24.87-6.29-24.87-31.73V38.8h13.1v40.11c0,13.77,4.17,23.05,16.08,23.05c8.78,0,14.89-6.14,17.27-11.97
			c0.74-1.95,1.19-4.34,1.19-6.74V38.8h13.1V91.48z"/>
		<path d="M502.16,74.42c0,26.79-18.46,38.47-35.88,38.47c-19.51,0-34.54-14.37-34.54-37.27c0-24.25,15.78-38.47,35.73-38.47
			C488.16,37.15,502.16,52.27,502.16,74.42z M444.98,75.17c0,15.87,9.08,27.84,21.89,27.84c12.51,0,21.89-11.82,21.89-28.14
			c0-12.27-6.1-27.84-21.59-27.84C451.68,47.03,444.98,61.4,444.98,75.17z"/>
		<path d="M533.28,18.44c0.15,4.49-3.13,8.08-8.34,8.08c-4.62,0-7.89-3.59-7.89-8.08c0-4.64,3.42-8.23,8.19-8.23
			C530.15,10.21,533.28,13.8,533.28,18.44z M518.68,111.24V38.8h13.1v72.44H518.68z"/>
		<path d="M593.43,111.24l-1.04-9.13h-0.45c-4.02,5.69-11.76,10.78-22.04,10.78c-14.59,0-22.04-10.33-22.04-20.8
			c0-17.51,15.49-27.09,43.33-26.94v-1.5c0-5.99-1.64-16.76-16.38-16.76c-6.7,0-13.7,2.1-18.76,5.39l-2.98-8.68
			c5.96-3.89,14.59-6.44,23.67-6.44c22.04,0,27.4,15.12,27.4,29.64v27.09c0,6.29,0.3,12.42,1.19,17.36H593.43z M591.49,74.27
			c-14.29-0.3-30.52,2.25-30.52,16.31c0,8.53,5.66,12.57,12.36,12.57c9.38,0,15.34-5.99,17.42-12.12c0.45-1.35,0.75-2.84,0.75-4.19
			V74.27z"/>
		<path d="M622.16,103.45c0-5.54,3.72-9.43,8.93-9.43c5.21,0,8.78,3.89,8.78,9.43c0,5.39-3.42,9.43-8.93,9.43
			C625.74,112.88,622.16,108.84,622.16,103.45z"/>
		<path d="M663.41,77.41c0.3,17.81,11.61,25.14,24.72,25.14c9.38,0,15.04-1.65,19.95-3.74l2.23,9.43
			c-4.62,2.1-12.51,4.49-23.97,4.49c-22.18,0-35.44-14.67-35.44-36.52c0-21.85,12.8-39.06,33.8-39.06
			c23.53,0,29.78,20.8,29.78,34.13c0,2.69-0.3,4.79-0.45,6.14H663.41z M701.82,67.98c0.15-8.38-3.42-21.4-18.17-21.4
			c-13.25,0-19.06,12.27-20.1,21.4H701.82z"/>
		<path d="M736.37,38.8l10.27,15.57c2.68,4.04,4.91,7.78,7.3,11.82h0.45c2.38-4.34,4.76-8.08,7.15-11.97l10.12-15.42h14.14
			l-24.57,35.02l25.31,37.42h-14.89l-10.57-16.31c-2.83-4.19-5.21-8.23-7.74-12.57h-0.3c-2.38,4.34-4.91,8.23-7.59,12.57
			l-10.42,16.31h-14.44l25.61-36.97L721.78,38.8H736.37z"/>
		<path d="M848.34,108.54c-3.42,1.8-11.02,4.19-20.7,4.19c-21.74,0-35.88-14.82-35.88-36.97c0-22.3,15.19-38.47,38.71-38.47
			c7.74,0,14.59,1.95,18.17,3.74l-2.98,10.18c-3.13-1.8-8.04-3.44-15.19-3.44c-16.53,0-25.46,12.27-25.46,27.39
			c0,16.76,10.72,27.09,25.01,27.09c7.45,0,12.36-1.95,16.08-3.59L848.34,108.54z"/>
		<path d="M863.67,4.97h13.1v45.2h0.3c2.08-3.74,5.36-7.03,9.38-9.28c3.87-2.25,8.49-3.74,13.4-3.74c9.68,0,25.16,5.99,25.16,30.98
			v43.11h-13.1V69.63c0-11.67-4.32-21.55-16.68-21.55c-8.49,0-15.19,5.99-17.57,13.17c-0.74,1.8-0.89,3.74-0.89,6.29v43.7h-13.1
			V4.97z"/>
		<path d="M986.22,111.24l-1.04-9.13h-0.45c-4.02,5.69-11.76,10.78-22.04,10.78c-14.59,0-22.04-10.33-22.04-20.8
			c0-17.51,15.49-27.09,43.33-26.94v-1.5c0-5.99-1.64-16.76-16.38-16.76c-6.7,0-13.7,2.1-18.76,5.39l-2.98-8.68
			c5.96-3.89,14.59-6.44,23.67-6.44c22.04,0,27.4,15.12,27.4,29.64v27.09c0,6.29,0.3,12.42,1.19,17.36H986.22z M984.28,74.27
			c-14.29-0.3-30.52,2.25-30.52,16.31c0,8.53,5.66,12.57,12.36,12.57c9.38,0,15.34-5.99,17.42-12.12c0.45-1.35,0.75-2.84,0.75-4.19
			V74.27z"/>
		<path d="M1018.08,58.4c0-7.48-0.15-13.62-0.6-19.61h11.61l0.74,11.97h0.3c3.57-6.88,11.91-13.62,23.82-13.62
			c9.98,0,25.46,5.99,25.46,30.83v43.26h-13.1V69.48c0-11.67-4.32-21.4-16.68-21.4c-8.64,0-15.34,6.14-17.57,13.47
			c-0.6,1.65-0.89,3.89-0.89,6.14v43.56h-13.1V58.4z"/>
		<path d="M1162.81,38.8c-0.3,5.24-0.6,11.08-0.6,19.91v42.06c0,16.61-3.28,26.79-10.27,33.08c-7,6.59-17.12,8.68-26.21,8.68
			c-8.64,0-18.17-2.09-23.97-5.99l3.28-10.03c4.76,2.99,12.21,5.69,21.14,5.69c13.4,0,23.23-7.04,23.23-25.29v-8.08h-0.3
			c-4.02,6.74-11.76,12.12-22.93,12.12c-17.87,0-30.67-15.27-30.67-35.32c0-24.55,15.93-38.47,32.46-38.47
			c12.51,0,19.36,6.59,22.48,12.57h0.3l0.6-10.93H1162.81z M1149.26,67.38c0-2.25-0.15-4.19-0.74-5.99
			c-2.38-7.63-8.79-13.92-18.31-13.92c-12.51,0-21.44,10.63-21.44,27.39c0,14.22,7.15,26.04,21.29,26.04
			c8.04,0,15.34-5.09,18.17-13.47c0.74-2.25,1.04-4.79,1.04-7.03V67.38z"/>
		<path d="M1191.24,77.41c0.3,17.81,11.61,25.14,24.72,25.14c9.38,0,15.04-1.65,19.95-3.74l2.23,9.43
			c-4.62,2.1-12.51,4.49-23.97,4.49c-22.18,0-35.44-14.67-35.44-36.52c0-21.85,12.8-39.06,33.8-39.06
			c23.53,0,29.78,20.8,29.78,34.13c0,2.69-0.3,4.79-0.45,6.14H1191.24z M1229.66,67.98c0.15-8.38-3.42-21.4-18.17-21.4
			c-13.25,0-19.06,12.27-20.1,21.4H1229.66z"/>
	</g>
	<g>
		<polygon points="51.68,71.07 51.68,38.79 43.61,38.79 43.61,71.09 43.61,73.28 35.53,81.35 35.53,38.79 27.46,38.79 27.46,87.24 
			27.46,89.43 19.38,97.5 19.38,38.79 11.31,38.79 11.31,105.58 3.21,113.67 3.21,119.54 8.76,119.54 16.84,111.46 83.98,111.46 
			83.98,103.39 24.92,103.39 32.99,95.31 35.53,95.31 83.98,95.31 83.98,87.24 41.06,87.24 49.14,79.16 51.68,79.16 83.98,79.16 
			83.98,71.09 51.7,71.09 		"/>
		<rect x="59.78" y="38.79" width="24.19" height="24.22"/>
	</g>
</g>
</svg>
