<?xml version="1.0" encoding="utf-8"?>
<!-- Generator: Adobe Illustrator 26.0.1, SVG Export Plug-In . SVG Version: 6.00 Build 0)  -->
<svg version="1.1" id="Слой_1" xmlns="http://www.w3.org/2000/svg" xmlns:xlink="http://www.w3.org/1999/xlink" x="0px" y="0px"
	 viewBox="0 0 128 128" style="enable-background:new 0 0 128 128;" xml:space="preserve">
<style type="text/css">
	.st0{fill:#3C3B6F;}
</style>
<g>
	<path class="st0" d="M62.32,21.4c-3.7,0-6.96,2.5-7.94,6.03c-0.18-0.01-0.36-0.01-0.53-0.01c-6.55,0-11.88,5.33-11.88,11.88
		c0,0.7,0.06,1.4,0.19,2.1c-3.83,2.05-6.29,6.12-6.29,10.49c0,0.89,0.1,1.77,0.3,2.64c-3.44,1.77-5.64,5.33-5.64,9.22
		c0,3.05,1.3,5.87,3.59,7.84c-1.78,2.21-2.75,4.95-2.75,7.8c0,5.52,3.61,10.34,8.84,11.91c-0.03,0.32-0.05,0.64-0.05,0.96
		c0,4.89,3.87,8.9,8.71,9.13c1.46,4.52,5.71,7.64,10.49,7.64c6.08,0,11.03-4.95,11.03-11.03l0.17-68.36
		C70.56,25.1,66.87,21.4,62.32,21.4z M69.16,98.01c0,5.4-4.39,9.8-9.8,9.8c-4.39,0-8.27-2.95-9.44-7.17l-0.13-0.46l-0.49,0.01
		c-4.36,0-7.91-3.55-7.91-7.91c0-0.43,0.04-0.87,0.11-1.31l0.09-0.56l-0.55-0.14c-4.97-1.26-8.45-5.73-8.45-10.87
		c0-2.76,1.01-5.41,2.85-7.47l0.44-0.5l-0.53-0.4c-2.3-1.74-3.61-4.39-3.61-7.27c0-3.58,2.11-6.85,5.38-8.32l0.48-0.22l-0.14-0.51
		c-0.25-0.92-0.38-1.87-0.38-2.82c0-4.06,2.36-7.83,6.02-9.59l0.44-0.21l-0.1-0.47c-0.17-0.76-0.25-1.53-0.25-2.3
		c0-5.87,4.78-10.65,10.65-10.65c0.3,0,0.61,0.01,0.95,0.04l0.55,0.05l0.11-0.54c0.67-3.23,3.56-5.57,6.86-5.57
		c3.86,0,7.01,3.14,7.01,7.01L69.16,98.01z"/>
	<path class="st0" d="M71.72,46.55v1.23h18.73c0.27,0.99,1.18,1.73,2.26,1.73c1.29,0,2.35-1.05,2.35-2.35S94,44.81,92.7,44.81
		c-1.08,0-1.98,0.74-2.26,1.73H71.72z M92.7,46.05c0.62,0,1.12,0.5,1.12,1.12s-0.5,1.12-1.12,1.12s-1.12-0.5-1.12-1.12
		S92.09,46.05,92.7,46.05z"/>
	<path class="st0" d="M84.35,34.49c0.39,0.28,0.86,0.45,1.37,0.45c1.29,0,2.35-1.05,2.35-2.35s-1.05-2.35-2.35-2.35
		s-2.35,1.05-2.35,2.35c0,0.33,0.07,0.65,0.2,0.94l-7.31,5.22H71.6v1.23h5.06L84.35,34.49z M85.72,31.47c0.62,0,1.12,0.5,1.12,1.12
		s-0.5,1.12-1.12,1.12c-0.62,0-1.12-0.5-1.12-1.12S85.1,31.47,85.72,31.47z"/>
	<path class="st0" d="M101.58,76.57c-0.3,0-0.58,0.06-0.84,0.16l-8.87-10.27l7.71-5.82c0.35,0.21,0.77,0.35,1.21,0.35
		c1.29,0,2.35-1.05,2.35-2.35s-1.05-2.35-2.35-2.35s-2.35,1.05-2.35,2.35c0,0.4,0.11,0.77,0.29,1.1l-7.67,5.79l-3.7-4.29H71.72v1.23
		h15.07l12.95,15.01c-0.32,0.4-0.51,0.9-0.51,1.45c0,1.29,1.05,2.35,2.35,2.35c1.29,0,2.35-1.05,2.35-2.35
		S102.88,76.57,101.58,76.57z M100.79,57.52c0.62,0,1.12,0.5,1.12,1.12s-0.5,1.12-1.12,1.12c-0.62,0-1.12-0.5-1.12-1.12
		S100.17,57.52,100.79,57.52z M101.58,80.03c-0.62,0-1.12-0.5-1.12-1.12c0-0.62,0.5-1.12,1.12-1.12c0.62,0,1.12,0.5,1.12,1.12
		C102.7,79.53,102.2,80.03,101.58,80.03z"/>
	<path class="st0" d="M85.42,76.85c1.29,0,2.35-1.05,2.35-2.35s-1.05-2.35-2.35-2.35c-1.08,0-1.98,0.74-2.26,1.73H71.72v1.23h11.44
		C83.44,76.11,84.34,76.85,85.42,76.85z M85.42,73.38c0.62,0,1.12,0.5,1.12,1.12c0,0.62-0.5,1.12-1.12,1.12
		c-0.62,0-1.12-0.5-1.12-1.12C84.3,73.88,84.8,73.38,85.42,73.38z"/>
	<path class="st0" d="M94.75,79.39c-1.29,0-2.35,1.05-2.35,2.35c0,0.33,0.07,0.65,0.2,0.94l-10.4,5.9H71.72v1.23h7.28l5.46,6.48
		c-0.38,0.42-0.62,0.97-0.62,1.58c0,1.29,1.05,2.35,2.35,2.35s2.35-1.05,2.35-2.35s-1.05-2.35-2.35-2.35
		c-0.23,0-0.46,0.04-0.67,0.11l-4.9-5.82h1.92l10.86-6.16c0.38,0.28,0.85,0.44,1.36,0.44c1.29,0,2.35-1.05,2.35-2.35
		S96.04,79.39,94.75,79.39z M87.29,97.86c0,0.62-0.5,1.12-1.12,1.12c-0.62,0-1.12-0.5-1.12-1.12s0.5-1.12,1.12-1.12
		C86.79,96.74,87.29,97.24,87.29,97.86z M94.75,82.85c-0.62,0-1.12-0.5-1.12-1.12c0-0.62,0.5-1.12,1.12-1.12s1.12,0.5,1.12,1.12
		C95.86,82.35,95.36,82.85,94.75,82.85z"/>
	<path class="st0" d="M52.21,51.43c-0.93-1.33-1.48-2.95-1.48-4.69c0-4.51,3.66-8.17,8.16-8.19c-0.08-0.4-0.14-0.81-0.18-1.23
		c-5.1,0.12-9.21,4.3-9.21,9.42c0,2,0.63,3.86,1.7,5.38C51.52,51.87,51.86,51.64,52.21,51.43z"/>
	<path class="st0" d="M56.13,56.45c-2,0-3.86,0.63-5.38,1.7c0.25,0.32,0.48,0.66,0.69,1.01c1.33-0.93,2.95-1.48,4.69-1.48
		c4.51,0,8.17,3.66,8.19,8.16c0.4-0.08,0.81-0.14,1.23-0.18C65.44,60.56,61.26,56.45,56.13,56.45z"/>
	<path class="st0" d="M61.63,79.26c2.56,3.7,1.66,8.8-2.03,11.38c-1.43,1-3.07,1.48-4.69,1.48c0.03,0.41,0.03,0.82,0.01,1.23
		c1.86,0,3.74-0.55,5.38-1.7c4.2-2.94,5.26-8.71,2.43-12.95C62.37,78.91,62,79.09,61.63,79.26z"/>
	<path class="st0" d="M45.43,70.18c0.25-1.73,1.02-3.25,2.13-4.43c-0.32-0.26-0.62-0.54-0.9-0.83c-1.27,1.36-2.16,3.11-2.45,5.09
		c-0.73,5.07,2.75,9.79,7.77,10.64c0.1-0.41,0.22-0.8,0.35-1.19C47.89,78.78,44.79,74.63,45.43,70.18z"/>
</g>
</svg>
