<?xml version="1.0" encoding="utf-8"?>
<!-- Generator: Adobe Illustrator 26.0.1, SVG Export Plug-In . SVG Version: 6.00 Build 0)  -->
<svg version="1.1" id="Слой_1" xmlns="http://www.w3.org/2000/svg" xmlns:xlink="http://www.w3.org/1999/xlink" x="0px" y="0px"
	 viewBox="0 0 128 128" style="enable-background:new 0 0 128 128;" xml:space="preserve">
<style type="text/css">
	.st0{fill:#3C3B6F;}
</style>
<g>
	<path class="st0" d="M35.4,55.87c-0.01,0-0.01,0-0.02,0c-5.73,0-11.08,2.17-15.06,6.11c-3.99,3.95-6.19,9.25-6.2,14.94
		c0,5.6,2.18,10.87,6.16,14.84c3.97,3.97,9.25,6.16,14.85,6.16c0,0,0,0,0,0c11.61,0,21.05-9.42,21.05-21
		C56.18,65.32,46.86,55.88,35.4,55.87z M35.12,96.64c-5.26,0-10.22-2.05-13.95-5.78c-3.73-3.73-5.78-8.68-5.78-13.94
		c0-5.34,2.07-10.32,5.82-14.03c3.75-3.7,8.78-5.74,14.17-5.74c0.01,0,0.01,0,0.02,0c10.76,0.01,19.51,8.88,19.5,19.77
		C54.9,87.79,46.02,96.64,35.12,96.64z"/>
	<path class="st0" d="M65.71,71.38c-0.91-0.28-1.82-0.57-2.73-0.85c-1.02-0.33-2.05-0.65-3.08-0.96c-0.28-0.08-0.41-0.19-0.56-0.61
		c-0.53-1.44-1.01-2.6-1.51-3.63c-0.14-0.3-0.14-0.45,0.01-0.74c0.93-1.75,1.83-3.51,2.77-5.33c0.1-0.2,0.19-0.41,0.29-0.64
		l0.28-0.65l-0.19-0.29c-0.06-0.09-0.12-0.19-0.17-0.28c-0.14-0.25-0.31-0.52-0.54-0.76c-0.78-0.79-1.57-1.58-2.36-2.37
		c-0.82-0.81-1.63-1.63-2.44-2.45c-0.79-0.8-1.66-0.93-2.66-0.39c-1,0.54-2.02,1.06-3.03,1.58c-0.79,0.4-1.58,0.81-2.37,1.22
		c-0.26,0.14-0.41,0.14-0.69,0.01c-1.2-0.55-2.44-1.06-3.69-1.53c-0.34-0.13-0.46-0.25-0.55-0.53c-0.35-1.16-0.72-2.31-1.08-3.46
		l-0.65-2.04c-0.49-1.56-0.91-1.87-2.49-1.88c-2.14-0.01-4.27-0.01-6.4,0c-1.4,0-1.85,0.34-2.28,1.72l-0.54,1.71
		c-0.41,1.29-0.82,2.58-1.22,3.88c-0.1,0.34-0.24,0.49-0.57,0.61c-1.18,0.43-2.38,0.93-3.69,1.53c-0.32,0.15-0.46,0.13-0.69,0.01
		c-0.86-0.46-1.72-0.91-2.58-1.36c-0.96-0.5-1.92-1-2.87-1.51c-1.15-0.62-1.98-0.17-2.47,0.31c-1.54,1.53-3.07,3.06-4.6,4.59
		L9.92,56.7c-0.69,0.69-0.8,1.52-0.34,2.39c1.18,2.22,2.06,3.92,2.84,5.53c0.07,0.14,0.08,0.47-0.01,0.73
		c-0.43,1.18-0.94,2.42-1.52,3.67c-0.1,0.22-0.32,0.43-0.45,0.48c-1.51,0.52-3.04,0.99-4.57,1.47l-1.13,0.35
		c-1.35,0.42-1.72,0.91-1.73,2.28c0,0.82,0,1.63,0,2.45c0,1.39,0.01,2.79-0.02,4.18c-0.02,1.16,0.52,1.89,1.64,2.22
		c0.94,0.28,1.88,0.58,2.82,0.88c0.92,0.29,1.83,0.59,2.76,0.86c0.43,0.13,0.61,0.3,0.75,0.72c0.45,1.3,1,2.53,1.48,3.55
		c0.13,0.29,0.13,0.44,0,0.69c-0.41,0.76-0.8,1.53-1.2,2.3c-0.53,1.03-1.06,2.07-1.62,3.09C9.08,95.56,9.2,96.43,10,97.22
		c1.61,1.58,3.21,3.18,4.79,4.8c0.8,0.83,1.7,0.95,2.73,0.39c1.55-0.85,3.29-1.74,5.45-2.81c0.1-0.05,0.35-0.06,0.5-0.01
		c1.3,0.5,2.59,1.04,3.82,1.6c0.2,0.09,0.39,0.29,0.43,0.4c0.65,1.92,1.28,3.88,1.86,5.85c0.32,1.09,1.01,1.58,2.16,1.6
		c2.29-0.03,4.58-0.03,6.86,0c0.01,0,0.03,0,0.04,0c1.07,0,1.74-0.51,2.06-1.56c0.69-2.3,1.28-4.16,1.86-5.85
		c0.04-0.13,0.26-0.36,0.47-0.46c0.6-0.28,1.21-0.53,1.82-0.78c0.63-0.26,1.26-0.51,1.88-0.8c0.28-0.13,0.41-0.12,0.68,0.02
		c1.41,0.75,2.83,1.48,4.25,2.21l0.95,0.49c1.41,0.73,1.96,0.64,3.08-0.48c0.67-0.67,1.33-1.34,1.99-2.01
		c0.85-0.87,1.7-1.73,2.57-2.59c0.81-0.79,0.94-1.66,0.41-2.65c-0.97-1.79-1.91-3.62-2.81-5.46c-0.06-0.11-0.06-0.42,0.03-0.65
		c0.22-0.6,0.47-1.2,0.72-1.79c0.26-0.62,0.52-1.24,0.75-1.87c0.13-0.35,0.26-0.48,0.59-0.58c0.89-0.27,1.78-0.55,2.66-0.83
		c1.02-0.33,2.04-0.65,3.07-0.95c1.07-0.32,1.59-1,1.58-2.09c-0.02-2.31-0.02-4.63,0-6.94C67.26,72.38,66.74,71.69,65.71,71.38z
		 M65.32,81.22c-1.03,0.31-2.06,0.63-3.09,0.96c-0.88,0.28-1.76,0.56-2.64,0.83c-0.72,0.22-1.15,0.64-1.42,1.37
		c-0.22,0.61-0.48,1.21-0.73,1.81c-0.26,0.61-0.51,1.22-0.74,1.84c-0.17,0.45-0.23,1.14,0.02,1.65c0.9,1.85,1.85,3.7,2.83,5.51
		c0.27,0.49,0.23,0.73-0.18,1.13c-0.87,0.86-1.73,1.73-2.59,2.6c-0.66,0.67-1.32,1.34-1.98,2c-0.71,0.71-0.71,0.71-1.6,0.25
		l-0.95-0.49c-1.41-0.73-2.83-1.45-4.23-2.2c-0.62-0.33-1.17-0.34-1.81-0.05c-0.6,0.28-1.21,0.53-1.82,0.78
		c-0.63,0.26-1.26,0.51-1.88,0.8c-0.43,0.2-0.95,0.65-1.14,1.2c-0.59,1.71-1.18,3.58-1.88,5.9c-0.15,0.51-0.31,0.66-0.87,0.65
		c-1.15-0.01-2.3-0.02-3.45-0.02c-1.15,0-2.3,0.01-3.44,0.02c-0.01,0-0.02,0-0.03,0c-0.53,0-0.74-0.16-0.89-0.69
		c-0.59-1.98-1.22-3.96-1.88-5.9c-0.18-0.52-0.68-0.95-1.1-1.14c-1.26-0.58-2.56-1.13-3.89-1.64c-0.47-0.18-1.09-0.15-1.52,0.06
		c-2.18,1.08-3.93,1.98-5.5,2.84c-0.53,0.29-0.8,0.25-1.2-0.16c-1.58-1.63-3.19-3.23-4.81-4.82c-0.39-0.38-0.42-0.64-0.15-1.15
		c0.56-1.03,1.1-2.07,1.63-3.11c0.39-0.76,0.79-1.53,1.19-2.29c0.32-0.61,0.33-1.17,0.03-1.82c-0.46-1-1-2.19-1.43-3.44
		c-0.28-0.8-0.77-1.27-1.59-1.52c-0.92-0.27-1.83-0.57-2.74-0.86c-0.95-0.3-1.89-0.6-2.84-0.89c-0.57-0.17-0.74-0.4-0.73-0.98
		c0.02-1.4,0.02-2.8,0.02-4.2c0-0.81,0-1.63,0-2.44c0-0.81,0-0.81,0.83-1.07l1.13-0.35c1.54-0.48,3.08-0.96,4.61-1.48
		c0.54-0.19,0.99-0.71,1.19-1.15c0.59-1.28,1.11-2.55,1.55-3.77c0.17-0.47,0.23-1.18-0.03-1.72c-0.79-1.62-1.67-3.34-2.86-5.58
		c-0.21-0.39-0.18-0.6,0.11-0.89l0.44-0.44c1.53-1.53,3.06-3.06,4.59-4.59c0.26-0.26,0.49-0.35,0.97-0.09
		c0.96,0.52,1.92,1.02,2.89,1.52c0.86,0.45,1.72,0.89,2.57,1.35c0.6,0.32,1.16,0.33,1.82,0.03c1.28-0.58,2.45-1.07,3.6-1.49
		c0.71-0.26,1.13-0.7,1.35-1.43c0.39-1.29,0.8-2.58,1.21-3.86l0.54-1.71c0.26-0.82,0.26-0.82,1.07-0.83c2.13-0.01,4.27-0.01,6.4,0
		c0.97,0,0.97,0,1.28,0.98l0.65,2.05c0.36,1.15,0.73,2.3,1.08,3.45c0.2,0.67,0.61,1.09,1.32,1.36c1.22,0.45,2.43,0.96,3.6,1.49
		c0.65,0.3,1.21,0.28,1.82-0.04c0.78-0.41,1.57-0.81,2.35-1.22c1.02-0.52,2.04-1.05,3.05-1.59c0.5-0.27,0.76-0.24,1.15,0.16
		c0.81,0.83,1.63,1.64,2.45,2.46c0.78,0.78,1.57,1.57,2.35,2.36c0.13,0.13,0.24,0.32,0.35,0.52c0.01,0.01,0.02,0.03,0.02,0.04
		l-0.02,0.04c-0.08,0.2-0.16,0.38-0.28,0.61c-0.9,1.75-1.81,3.51-2.73,5.25c-0.34,0.65-0.35,1.23-0.03,1.89
		c0.48,0.99,0.94,2.11,1.46,3.51c0.2,0.54,0.52,1.13,1.39,1.39c1.02,0.31,2.04,0.63,3.06,0.95c0.91,0.29,1.83,0.58,2.75,0.86
		c0.5,0.15,0.64,0.33,0.64,0.8c-0.02,2.32-0.02,4.64,0.01,6.97C65.99,80.88,65.84,81.07,65.32,81.22z"/>
	<path class="st0" d="M40.52,73.63c-1-0.41-2.65-0.88-4.92-1.4c-1.29-0.3-1.53-0.51-1.55-0.53c-0.12-0.12-0.18-0.26-0.18-0.44
		c0-0.25,0-0.78,1.41-0.78c1.31,0,2.14,0.56,2.56,1.71l0.17,0.47l5.73-1.86l0.12-0.04l-0.18-0.5c-1.05-2.97-3.25-4.74-6.54-5.25
		v-2.77h-4.02v2.85c-1.97,0.38-3.48,1.21-4.49,2.46c-1.08,1.33-1.62,2.88-1.62,4.6c0,1.57,0.5,2.98,1.49,4.19
		c1,1.23,3.23,2.19,6.8,2.95c0.99,0.21,1.43,0.42,1.62,0.56c0.21,0.15,0.3,0.34,0.3,0.62c0,0.18,0,0.74-1.69,0.74
		c-1.64,0-2.63-0.69-3.03-2.11l-0.13-0.46l-6.46,1.25l0.14,0.54c0.98,3.7,3.36,5.88,7.06,6.48v2.87h4.02v-2.86
		c2.1-0.32,3.8-1.11,5.05-2.34c1.36-1.34,2.04-3.02,2.04-5c0-1.41-0.36-2.66-1.06-3.71C42.48,74.83,41.58,74.08,40.52,73.63z
		 M36.11,86.01v2.74h-1.95v-2.74l-0.45-0.06c-3.37-0.42-5.5-2.13-6.49-5.25l4.44-0.86c0.62,1.6,1.92,2.42,3.88,2.42
		c2.25,0,2.73-0.97,2.73-1.78c0-0.61-0.25-1.11-0.73-1.46c-0.4-0.29-1.06-0.53-2.02-0.73c-3.29-0.7-5.38-1.57-6.22-2.59
		c-0.84-1.02-1.26-2.21-1.26-3.54c0-1.48,0.47-2.81,1.39-3.95c0.92-1.14,2.36-1.87,4.28-2.17l0.44-0.07v-2.69h1.95v2.65l0.46,0.05
		c2.97,0.34,4.92,1.7,5.95,4.13l-3.9,1.27c-0.63-1.28-1.75-1.93-3.34-1.93c-2.13,0-2.45,1.13-2.45,1.81c0,0.45,0.16,0.84,0.48,1.17
		c0.21,0.22,0.62,0.48,2.06,0.82c2.21,0.5,3.81,0.96,4.76,1.35c0.88,0.36,1.62,0.99,2.2,1.86c0.59,0.87,0.88,1.93,0.88,3.13
		c0,1.71-0.57,3.11-1.74,4.26c-1.17,1.16-2.82,1.87-4.9,2.11L36.11,86.01z"/>
	<path class="st0" d="M118.84,53.12c0-0.33,0.06-0.47,0.32-0.67c1.58-1.19,3.15-2.4,4.78-3.65c0.18-0.14,0.35-0.29,0.53-0.46
		l0.53-0.47l-0.05-0.34c-0.02-0.11-0.03-0.22-0.04-0.33c-0.03-0.28-0.06-0.6-0.17-0.92c-0.37-1.05-0.75-2.1-1.13-3.14
		c-0.39-1.08-0.79-2.17-1.17-3.25c-0.37-1.06-1.11-1.54-2.24-1.48c-1.14,0.06-2.27,0.1-3.41,0.14c-0.89,0.03-1.78,0.06-2.66,0.1
		c-0.29,0.01-0.43-0.05-0.63-0.29c-0.85-1.01-1.76-2-2.69-2.95c-0.25-0.26-0.31-0.42-0.27-0.72c0.17-1.2,0.33-2.4,0.49-3.6
		l0.28-2.12c0.22-1.62-0.03-2.08-1.46-2.76c-1.93-0.91-3.86-1.82-5.8-2.72c-1.27-0.59-1.82-0.48-2.8,0.58l-1.21,1.31
		c-0.92,0.99-1.84,1.99-2.75,2.99c-0.24,0.27-0.42,0.34-0.78,0.31c-1.25-0.11-2.55-0.17-3.99-0.19c-0.35,0-0.47-0.08-0.63-0.28
		c-0.58-0.78-1.17-1.55-1.76-2.33c-0.66-0.86-1.31-1.72-1.95-2.59c-0.78-1.06-1.72-1-2.37-0.77c-2.04,0.73-4.08,1.47-6.11,2.2
		l-0.58,0.21c-0.91,0.33-1.37,1.03-1.32,2.02c0.13,2.51,0.2,4.43,0.22,6.21c0,0.16-0.13,0.46-0.32,0.65
		c-0.89,0.89-1.88,1.79-2.93,2.68c-0.18,0.16-0.47,0.26-0.61,0.24c-1.59-0.17-3.18-0.39-4.76-0.61l-1.18-0.16
		c-1.4-0.19-1.95,0.1-2.53,1.33c-0.35,0.74-0.69,1.48-1.04,2.22c-0.59,1.26-1.18,2.53-1.79,3.78c-0.51,1.04-0.33,1.93,0.54,2.71
		c0.73,0.66,1.46,1.33,2.18,2c0.71,0.66,1.41,1.31,2.13,1.95c0.34,0.3,0.42,0.53,0.38,0.97c-0.14,1.37-0.17,2.71-0.17,3.85
		c0,0.32-0.06,0.45-0.29,0.62c-0.69,0.52-1.38,1.05-2.06,1.57c-0.92,0.71-1.84,1.42-2.78,2.11c-0.93,0.68-1.19,1.52-0.8,2.57
		c0.79,2.12,1.56,4.25,2.3,6.38c0.38,1.09,1.13,1.58,2.3,1.51c1.77-0.11,3.71-0.18,6.13-0.23c0.11,0,0.35,0.09,0.46,0.2
		c0.97,1,1.9,2.04,2.77,3.07c0.14,0.17,0.23,0.43,0.22,0.54c-0.22,2.01-0.49,4.06-0.8,6.08c-0.17,1.12,0.24,1.86,1.28,2.37
		c2.08,0.95,4.15,1.92,6.21,2.92c0.01,0.01,0.03,0.01,0.04,0.02c0.97,0.45,1.8,0.28,2.52-0.54c1.6-1.79,2.93-3.22,4.17-4.5
		c0.1-0.1,0.39-0.22,0.62-0.21c0.66,0,1.32,0.04,1.98,0.07c0.68,0.03,1.36,0.07,2.04,0.07c0.31,0,0.42,0.06,0.6,0.3
		c0.96,1.28,1.93,2.55,2.91,3.81l0.65,0.84c0.97,1.25,1.5,1.41,3,0.87c0.89-0.32,1.77-0.65,2.66-0.97c1.14-0.42,2.28-0.85,3.42-1.25
		c1.07-0.38,1.56-1.1,1.49-2.23c-0.12-2.03-0.2-4.09-0.22-6.13c0-0.13,0.13-0.41,0.3-0.57c0.46-0.45,0.94-0.88,1.42-1.32
		c0.5-0.45,1-0.9,1.48-1.37c0.27-0.26,0.44-0.33,0.78-0.28c0.92,0.14,1.84,0.26,2.76,0.38c1.06,0.14,2.12,0.28,3.18,0.44
		c1.11,0.17,1.86-0.23,2.32-1.22c0.96-2.1,1.95-4.2,2.94-6.29c0.45-0.93,0.27-1.77-0.53-2.49c-0.71-0.64-1.41-1.28-2.11-1.93
		c-0.79-0.73-1.58-1.46-2.38-2.18c-0.22-0.2-0.29-0.34-0.25-0.79C118.8,55.51,118.85,54.26,118.84,53.12z M118.07,58.78
		c0.8,0.71,1.58,1.44,2.36,2.16c0.7,0.65,1.41,1.3,2.12,1.95c0.39,0.35,0.44,0.57,0.23,1c-1,2.09-1.99,4.2-2.95,6.31
		c-0.21,0.46-0.43,0.57-0.97,0.49c-1.07-0.16-2.14-0.3-3.21-0.44c-0.92-0.12-1.83-0.24-2.74-0.37c-0.74-0.11-1.32,0.09-1.87,0.63
		c-0.46,0.46-0.95,0.9-1.43,1.33c-0.49,0.44-0.98,0.89-1.46,1.35c-0.34,0.34-0.69,0.93-0.68,1.5c0.03,2.06,0.11,4.14,0.23,6.19
		c0.03,0.56-0.11,0.76-0.64,0.95c-1.15,0.41-2.3,0.83-3.45,1.26c-0.88,0.33-1.76,0.65-2.64,0.97c-0.94,0.34-0.95,0.34-1.56-0.45
		l-0.65-0.84c-0.97-1.26-1.94-2.52-2.9-3.79c-0.42-0.56-0.92-0.81-1.62-0.81c-0.66,0-1.32-0.04-1.98-0.07
		c-0.68-0.03-1.36-0.07-2.04-0.07c-0.48,0-1.14,0.18-1.54,0.6c-1.26,1.3-2.59,2.74-4.2,4.54c-0.36,0.4-0.56,0.47-1.06,0.22
		c-1.03-0.5-2.07-1-3.11-1.48c-1.04-0.49-2.08-0.97-3.13-1.45c-0.01,0-0.02-0.01-0.03-0.01c-0.48-0.23-0.6-0.46-0.52-1
		c0.31-2.04,0.58-4.1,0.8-6.14c0.06-0.54-0.22-1.15-0.51-1.5c-0.89-1.05-1.84-2.11-2.83-3.13c-0.35-0.36-0.92-0.6-1.4-0.59
		c-2.44,0.05-4.4,0.12-6.19,0.23c-0.6,0.04-0.83-0.11-1.02-0.66c-0.74-2.15-1.52-4.28-2.31-6.41c-0.19-0.51-0.11-0.76,0.36-1.1
		c0.94-0.69,1.87-1.41,2.8-2.12c0.68-0.52,1.36-1.05,2.05-1.56c0.55-0.41,0.8-0.92,0.8-1.64c0.01-1.1,0.03-2.4,0.17-3.72
		c0.09-0.85-0.16-1.48-0.8-2.05c-0.71-0.64-1.41-1.29-2.11-1.94c-0.73-0.68-1.46-1.35-2.2-2.01c-0.44-0.4-0.5-0.68-0.24-1.2
		c0.61-1.26,1.21-2.53,1.8-3.8c0.34-0.74,0.69-1.48,1.04-2.21c0.35-0.73,0.35-0.73,1.21-0.62l1.17,0.16c1.6,0.22,3.2,0.44,4.8,0.62
		c0.57,0.06,1.2-0.22,1.57-0.53c1.08-0.91,2.09-1.84,3.01-2.75c0.35-0.35,0.71-0.97,0.7-1.57c-0.02-1.8-0.09-3.74-0.22-6.26
		c-0.02-0.44,0.09-0.62,0.48-0.76l0.58-0.21c2.04-0.74,4.07-1.47,6.11-2.2c0.35-0.12,0.59-0.11,0.92,0.33
		c0.65,0.87,1.31,1.74,1.97,2.6c0.59,0.77,1.17,1.54,1.75,2.31c0.41,0.54,0.91,0.79,1.64,0.8c1.4,0.01,2.68,0.07,3.89,0.18
		c0.76,0.07,1.32-0.16,1.83-0.72c0.9-1,1.82-1.99,2.74-2.98l1.22-1.32c0.59-0.64,0.59-0.64,1.32-0.29c1.93,0.9,3.86,1.81,5.79,2.72
		c0.88,0.42,0.88,0.42,0.74,1.43l-0.28,2.13c-0.16,1.19-0.32,2.39-0.49,3.58c-0.1,0.7,0.09,1.25,0.62,1.79
		c0.91,0.93,1.79,1.9,2.63,2.88c0.46,0.54,0.97,0.77,1.66,0.74c0.88-0.04,1.76-0.07,2.64-0.1c1.15-0.04,2.29-0.08,3.44-0.14
		c0.57-0.03,0.79,0.11,0.97,0.63c0.38,1.09,0.78,2.18,1.17,3.27c0.38,1.04,0.76,2.09,1.13,3.13c0.06,0.17,0.08,0.39,0.1,0.62
		c0,0.02,0,0.03,0,0.05l-0.03,0.03c-0.16,0.14-0.3,0.27-0.51,0.44c-1.56,1.2-3.13,2.41-4.7,3.6c-0.59,0.44-0.84,0.96-0.83,1.7
		c0.01,1.1-0.04,2.31-0.17,3.8C117.35,57.51,117.39,58.17,118.07,58.78z"/>
	<path class="st0" d="M102.55,35.02c-0.01,0-0.01-0.01-0.02-0.01c-5.19-2.43-10.95-2.74-16.23-0.87
		c-5.29,1.88-9.54,5.75-11.95,10.89c-2.38,5.07-2.64,10.77-0.73,16.05c1.91,5.28,5.75,9.5,10.83,11.88c0,0,0,0,0,0
		c10.51,4.93,23.06,0.41,27.98-10.07C117.35,52.41,112.92,39.9,102.55,35.02z M111.27,62.36c-4.62,9.85-16.42,14.09-26.29,9.46
		c-4.77-2.24-8.38-6.2-10.17-11.16c-1.79-4.96-1.55-10.32,0.69-15.08c2.27-4.83,6.26-8.47,11.23-10.23
		c4.97-1.76,10.39-1.47,15.27,0.82c0.01,0,0.01,0.01,0.02,0.01C111.75,40.75,115.9,52.5,111.27,62.36z"/>
	<path class="st0" d="M96.9,60.33c0.2-0.06,0.39-0.13,0.58-0.2c1.37-0.54,2.03-1.53,1.93-2.87c-0.08-0.97-0.59-1.72-1.53-2.22
		c-0.49-0.26-1.04-0.44-1.74-0.56c-1.2-0.21-2.41-0.19-3.6-0.17l-0.28,0c-0.33,0.01-0.67,0.2-0.67,0.72l0,2.3
		c0,0.86,0,1.72-0.01,2.59c0,0.1,0,0.39,0.22,0.6c0.15,0.14,0.35,0.2,0.58,0.18c0.06,0,0.12,0,0.17,0l0.21,0.01
		c0.18,0,0.35,0,0.53,0c1.04,0,2.16-0.03,3.29-0.29L96.9,60.33z M98.38,57.34c0.07,0.88-0.34,1.46-1.27,1.83
		c-0.17,0.07-0.34,0.12-0.54,0.18l-0.23,0.08c-1.13,0.25-2.27,0.27-3.55,0.25l-0.14,0c-0.01,0-0.02,0-0.03,0
		c0.01-0.78,0.01-1.55,0.01-2.33l0-1.99c1.1-0.02,2.24-0.04,3.33,0.15c0.59,0.1,1.05,0.25,1.43,0.45
		C98.01,56.28,98.33,56.74,98.38,57.34z"/>
	<path class="st0" d="M102.1,53.18c-0.24-0.13-0.49-0.24-0.72-0.33c0.35-0.28,0.62-0.59,0.83-0.95c0.81-1.38,0.89-2.9,0.23-4.52
		c-0.41-1.02-1.22-1.78-2.48-2.32c-0.85-0.36-1.78-0.59-3.02-0.73c0-0.54,0.01-1.08,0.01-1.62c0-0.55,0-1.1,0.01-1.66
		c0-0.09,0-0.36-0.21-0.56c-0.21-0.21-0.46-0.21-0.57-0.2c-0.7,0.01-1.31,0.01-1.89,0c-0.17,0-0.4,0.02-0.59,0.2
		c-0.22,0.21-0.21,0.5-0.21,0.59c0.01,0.84,0,1.68,0,2.52l0,0.57l-0.19,0c-0.23,0-0.47,0-0.72,0.01c0-0.46,0.01-0.92,0.01-1.38
		l0-0.25c0-0.5,0-1,0.01-1.5c0-0.09,0-0.36-0.21-0.57c-0.2-0.2-0.46-0.2-0.57-0.2c-0.62,0.01-1.26,0.01-1.91,0
		c-0.15,0.01-0.38,0.02-0.56,0.2c-0.22,0.21-0.22,0.5-0.21,0.59c0,0.79,0,1.59,0,2.38l0,0.81l-4.09-0.01c-0.57,0-0.8,0.23-0.8,0.79
		v0.7c0,0.45,0,0.91-0.01,1.36c-0.01,0.24,0.06,0.43,0.2,0.56c0.18,0.18,0.43,0.2,0.53,0.2l0.04,0l0.27,0
		c0.45,0,0.95-0.01,1.43,0.02c0.46,0.03,0.69,0.28,0.69,0.77l-0.02,10.47c0,0.4-0.08,0.49-0.48,0.5c-0.5,0.02-1,0-1.42-0.01
		c-0.46,0.02-0.76,0.26-0.82,0.68c-0.09,0.57-0.19,1.14-0.28,1.71l-0.12,0.68c-0.01,0.05-0.01,0.11-0.02,0.17l-0.06,0.63l0.64,0.03
		c0.07,0,0.12,0.01,0.18,0.01l1.06,0.01c1,0.01,2.01,0.01,3.04,0.02c0,0.41,0,0.81-0.01,1.22l0,0.34c0,0.57,0,1.15-0.01,1.72
		c0,0.15,0.02,0.38,0.21,0.56c0.21,0.2,0.48,0.2,0.56,0.2c0.33,0,0.66-0.01,0.99,0l0.9,0c0.56,0,0.79-0.23,0.8-0.8l0-1.31
		c0-0.61,0-1.23,0-1.87c0.25,0.01,0.5,0.01,0.75,0.01l0.16,0l0,0.86c0,0.78,0,1.57-0.01,2.35c0,0.24,0.07,0.43,0.21,0.57
		c0.18,0.18,0.39,0.2,0.57,0.2c0.43-0.01,0.86,0,1.28,0l0.59,0c0.57,0,0.8-0.24,0.8-0.81l0.01-3.24c1.21-0.09,2.5-0.25,3.78-0.74
		c1.65-0.63,2.74-1.74,3.22-3.3c0.35-1.14,0.43-2.29,0.23-3.43C103.91,54.78,103.22,53.8,102.1,53.18z M93.7,62.61l-0.44,0
		c-0.32,0-0.63,0-0.98-0.02c-0.11,0-0.36,0-0.56,0.19c-0.14,0.14-0.21,0.33-0.21,0.58c0.01,0.87,0,1.75,0,2.62l0,0.59l-0.58,0
		c-0.26,0-0.53,0-0.8,0c0-0.48,0-0.96,0-1.44l0-0.45c0-0.45,0-0.91,0.01-1.36c0-0.09,0-0.37-0.2-0.58
		c-0.21-0.21-0.48-0.21-0.58-0.21c-1.16,0-2.35-0.01-3.52-0.02l-0.5,0L85.43,62c0.07-0.44,0.15-0.88,0.22-1.33
		c0.49,0.01,0.9,0.01,1.28,0c0.94-0.03,1.48-0.58,1.48-1.53l0.02-10.47c0-1.04-0.63-1.74-1.65-1.81c-0.49-0.03-0.97-0.03-1.5-0.03
		c0-0.36,0-0.71,0-1.07V45.3l4.11,0.01l0.04,0c0.17,0,0.39-0.01,0.57-0.2c0.18-0.18,0.18-0.4,0.18-0.6l0-0.78
		c0-0.79,0.01-1.58,0-2.4c0.42,0.01,0.86,0.01,1.38,0c0,0.41,0,0.82,0,1.23l0,0.24c0,0.55,0,1.1-0.01,1.65c0,0.09,0,0.38,0.21,0.59
		c0.2,0.19,0.45,0.19,0.57,0.19l0.03,0c0.32-0.01,0.63-0.01,0.95-0.02l0.44,0c0.55-0.01,0.78-0.24,0.78-0.8l0-1.32
		c0-0.58,0-1.16,0-1.76c0.41,0.01,0.85,0.01,1.39,0c0,0.46,0,0.92,0,1.38l0,0.26c0,0.52,0,1.04-0.01,1.56
		c0,0.48,0.25,0.77,0.73,0.82c1.22,0.12,2.12,0.32,2.91,0.67c1.01,0.43,1.62,0.99,1.92,1.75c0.53,1.33,0.48,2.51-0.17,3.61
		c-0.23,0.4-0.59,0.73-1.13,1.04c-0.04,0.02-0.08,0.05-0.13,0.09l-0.92,0.63l1.09,0.38c0.04,0.01,0.08,0.03,0.11,0.04
		c0.14,0.06,0.28,0.11,0.42,0.16c0.3,0.12,0.59,0.23,0.85,0.37c0.83,0.46,1.34,1.2,1.52,2.19c0.17,0.97,0.11,1.96-0.2,2.94
		c-0.39,1.25-1.24,2.12-2.6,2.64c-1.21,0.46-2.49,0.6-3.68,0.69c-0.55,0.04-0.76,0.26-0.76,0.82l-0.01,3.21l-1.07,0l-0.31,0
		c0.01-0.78,0.01-1.56,0.01-2.34l0-0.82C94.49,62.86,94.26,62.62,93.7,62.61z"/>
	<path class="st0" d="M92.26,52.92c0.32,0.01,0.63,0.01,0.94,0.01c1.05,0,1.81-0.06,2.55-0.22l0.31-0.11
		c0.2-0.07,0.42-0.14,0.63-0.23c1.06-0.48,1.62-1.3,1.62-2.38c0-1.14-0.56-1.98-1.63-2.45c-0.33-0.14-0.7-0.26-1.09-0.34
		c-1.03-0.22-2.05-0.2-3.04-0.17l-0.27,0.01c-0.41,0.01-0.68,0.29-0.67,0.71c0,0.24,0,0.48,0,0.72l-0.01,3.73
		c0,0.09-0.01,0.34,0.18,0.53C91.86,52.81,92.01,52.92,92.26,52.92z M92.63,51.89l0.01-3.83c0.95-0.02,1.84-0.04,2.73,0.15
		c0.33,0.07,0.63,0.16,0.9,0.28c0.69,0.3,1.01,0.78,1.01,1.5c0,0.68-0.32,1.12-1.01,1.44c-0.17,0.08-0.35,0.14-0.53,0.2l-0.23,0.08
		C94.63,51.89,93.78,51.91,92.63,51.89z"/>
</g>
</svg>
