<?xml version="1.0" encoding="utf-8"?>
<!-- Generator: Adobe Illustrator 26.0.1, SVG Export Plug-In . SVG Version: 6.00 Build 0)  -->
<svg version="1.1" id="Слой_1" xmlns="http://www.w3.org/2000/svg" xmlns:xlink="http://www.w3.org/1999/xlink" x="0px" y="0px"
	 viewBox="0 0 299.06 128" style="enable-background:new 0 0 299.06 128;" xml:space="preserve">
<style type="text/css">
	.st0{fill:#C51D26;}
</style>
<path class="st0" d="M82.5,37.12c58.84-7.59,116.72-5.49,173.03,7.38c9.78,2.23,19.22,6.03,26.85,10.34c13.11,7.4,13,18.2,0.34,25.9
	c-6.07,3.69-13.51,7.06-21.39,9.12c-66.04,17.27-134.68,22.31-205.6,14.05c-9.3-1.08-18.62-3.52-26.75-6.49
	C10.28,90.58,4.92,78.23,14.5,66.4c8.83-10.89,24.04-17.21,43.31-19.56c13.44-1.64,27.33-1.98,41.05-2.69
	c1.74-0.09-26.31,3.59-39.11,5.2c-17.59,2.22-33.77,8.73-41.46,19.03c-7.17,9.6-2.89,19.34,11.58,25.34
	c11.67,4.84,27.26,6.59,41,7.69c61.33,4.91,120.95,0.86,178.51-12.85c8.32-1.98,16.55-4.59,23.64-7.82
	c17.05-7.78,17.12-19-0.25-26.52c-8.75-3.79-18.97-6.75-29.25-8.82c-62.15-12.47-124.87-12.93-187.89-2.27
	c-2.14,0.36-4.29,0.73-6.43,1.09C48.98,43.68,71.06,38.6,82.5,37.12z"/>
</svg>
