<?xml version="1.0" encoding="utf-8"?>
<!-- Generator: Adobe Illustrator 26.0.1, SVG Export Plug-In . SVG Version: 6.00 Build 0)  -->
<svg version="1.1" id="Слой_1" xmlns="http://www.w3.org/2000/svg" xmlns:xlink="http://www.w3.org/1999/xlink" x="0px" y="0px"
	 viewBox="0 0 299.06 128" style="enable-background:new 0 0 299.06 128;" xml:space="preserve">
<style type="text/css">
	.st0{fill:#C51D26;}
</style>
<path class="st0" d="M38.66,32.95c75.24-12.65,148.85-6.36,220.73,17.61c8.43,2.81,16.8,6.34,23.65,10.59
	c12.71,7.87,12.09,17.93-1.01,24.47c-5.66,2.82-12.34,5.08-19.15,6.67c-62.36,14.52-127.27,18.01-194.66,10.05
	c-13.56-1.6-26.65-4.43-38.15-9.99C13.35,84.26,5.99,71.66,11.81,61.05c3.29-5.99,9.95-10.09,18.12-13.25
	c15.08-5.82,32.22-8.06,49.61-9.69c40.96-3.84,81.92-3.02,122.72,5.93c1.79,0.39,4.96,2.24,4.83,2.59
	c-3.14-0.23-29.56-8.28-85.68-8.14c-24.2,0.06-52.1,3.62-74.78,8.27c-38.49,7.9-36.46,25.81-24.01,36.31
	C33,91.83,48.52,95.99,64.12,98.07c57.66,7.68,114.05,6.1,169.14-3.41c11.64-2.01,23.12-4.5,34.2-7.43
	c9.7-2.57,19.88-5.62,20.02-13.66c0.13-7.82-9.63-12.64-18.89-16.33c-24.88-9.92-51.63-16.67-79.43-21.28
	c-50.94-8.45-101.32-8.91-151.01-1.27c-1.66,0.25-3.39,0.35-5.09,0.51C32.91,34.88,36.6,33.29,38.66,32.95z"/>
</svg>
