<?xml version="1.0" encoding="utf-8"?>
<!-- Generator: Adobe Illustrator 26.0.1, SVG Export Plug-In . SVG Version: 6.00 Build 0)  -->
<svg version="1.1" id="Слой_1" xmlns="http://www.w3.org/2000/svg" xmlns:xlink="http://www.w3.org/1999/xlink" x="0px" y="0px"
	 viewBox="0 0 299.06 128" style="enable-background:new 0 0 299.06 128;" xml:space="preserve">
<style type="text/css">
	.st0{fill:#C51D26;}
</style>
<path class="st0" d="M178.2,25.36c-40.39-2.35-78.32,1.58-115.76,14.07c-23.33,7.3-30.72,15.02-33.58,18.86
	c-5.42,7.27-1.3,17.48,7.88,21.64c27.99,13.26,135.01,13.61,191.73,6.32c33.51-3.68,42.73-24.23,36.47-34.27
	c-4.72-7.57-16.31-15.06-46.24-18.48c-22.77-2.6-56.92-1.25-58.31-1.87c1.26-0.98,54.36-3.2,68.97-0.76
	c12.38,2.07,29.21,6.7,36.45,15.52c12.24,14.92,0.5,31.54-19.03,39.15c-12.58,4.9-26.34,5.67-39.93,6.77
	c-47.76,3.86-95.57,3.59-143.3-1.75c-9.22-1.03-18.74-2.89-27.12-6.16c-16.26-6.33-19.94-20.74-8.36-31.85
	c4.67-4.48,11.08-8.32,17.64-10.79c42.42-15.92,87.03-22.35,133.87-18.04c3.14,0.29,17.99,1.39,21.11,1.89
	C200.66,26.08,181.45,25.55,178.2,25.36z"/>
</svg>
