<?xml version="1.0" encoding="utf-8"?>
<!-- Generator: Adobe Illustrator 26.0.1, SVG Export Plug-In . SVG Version: 6.00 Build 0)  -->
<svg version="1.1" id="Слой_1" xmlns="http://www.w3.org/2000/svg" xmlns:xlink="http://www.w3.org/1999/xlink" x="0px" y="0px"
	 viewBox="0 0 299.06 128" style="enable-background:new 0 0 299.06 128;" xml:space="preserve">
<style type="text/css">
	.st0{fill:#C51D26;}
</style>
<path class="st0" d="M287.73,62.66c-1.77-3.47-5.97-6.46-13.24-9.4c-11.63-4.72-25.52-8.58-42.44-11.81
	c-18.71-3.57-39.51-5.52-65.47-6.13c-34.37-0.81-64.61,1-92.43,5.56c-7.76,1.27-20.82,4.38-27.9,6.12
	c-11.71,2.88-18.06,5.67-18.06,5.67l0.73-0.13c0.28-0.05,2.5-0.52,5.85-1.24c6.43-1.37,16.14-3.45,21.72-4.57
	c22.78-4.58,45.88-7.44,68.65-8.48c16.57-0.76,34.2-0.73,53.9,0.09c22.13,0.92,41.24,3.2,58.42,6.96
	c11.67,2.55,26.62,6.23,38.74,12.01c5.71,2.72,8.78,6.02,8.64,9.28c-0.15,3.63-4.14,7.1-11.23,9.78c-9.52,3.59-20.91,6.3-36.92,8.8
	c-24.62,3.84-52.45,5.67-85.1,5.57c-22.16-0.06-44.69-0.99-66.51-1.9c-19.22-0.8-35.99-2.29-51.27-4.57
	C25.41,83,17.99,81.76,11.92,79.2c-2.71-1.15-4.29-2.43-4.7-3.81c-0.26-0.89-0.04-1.84,0.68-2.89c2.76-4.02,7.85-7.43,15.13-10.12
	c11.43-4.23,24.3-7.1,40.1-10.1c24.85-4.72,52.2-7.56,81.28-8.45c23.12-0.7,43.45-0.31,62.12,1.2c4.18,0.34,8.4,0.79,12.48,1.22
	c1.9,0.2,3.79,0.4,5.69,0.6l0.86,0.09c0,0-12.55-2.71-18.14-3.29c-9.33-0.97-23.35-2.14-37.15-2.27
	c-30.93-0.28-58.55,1.31-84.46,4.85c-22.95,3.14-42.12,7.07-58.6,12.02c-11.72,3.52-19.15,7.88-22.7,13.31
	c-1.05,1.6-1.32,3.15-0.83,4.59c0.75,2.2,3.29,4.06,7.54,5.52c3.11,1.07,6.73,2.04,10.76,2.88c12.63,2.63,26.01,3.93,36.25,4.77
	c24.18,1.98,49.46,3.17,77.29,3.63c4.91,0.08,9.73,0.12,14.48,0.12c26.4,0,50.52-1.25,73.35-3.8c21.61-2.41,38.18-5.89,52.13-10.96
	c7.23-2.62,11.42-5.6,12.8-9.1C289.1,67.18,288.91,64.97,287.73,62.66z"/>
</svg>
