<?xml version="1.0" encoding="utf-8"?>
<!-- Generator: Adobe Illustrator 26.0.1, SVG Export Plug-In . SVG Version: 6.00 Build 0)  -->
<svg version="1.1" id="Слой_1" xmlns="http://www.w3.org/2000/svg" xmlns:xlink="http://www.w3.org/1999/xlink" x="0px" y="0px"
	 viewBox="0 0 128 128" style="enable-background:new 0 0 128 128;" xml:space="preserve">
<style type="text/css">
	.st0{fill:#3C3B6F;}
</style>
<rect x="-491.94" y="536.39" class="st0" width="595.28" height="222.88"/>
<g>
	<path class="st0" d="M45.28,56.62h11.26v-5.46h-1.15v4.31h-10.1l0.02,0.24c0.02,0.22,0.02,0.44-0.01,0.66L45.28,56.62z"/>
	<path class="st0" d="M75.92,79.43l-0.27-0.05v10.76H59.56c0.01-0.09,0.03-0.17,0.03-0.26c0-1.68-1.37-3.05-3.04-3.05V75.74h-14.4
		V65.43l-0.37,0.04c-0.13,0.02-0.28,0.03-0.41,0.01c-0.04-0.01-0.08-0.01-0.12-0.01L41,65.45v11.44h14.4v10.17
		c-1.11,0.45-1.9,1.54-1.9,2.82c0,1.68,1.37,3.04,3.04,3.04c1.17,0,2.17-0.67,2.68-1.63H76.8V79.49l-0.22,0
		C76.35,79.49,76.13,79.47,75.92,79.43z M56.54,91.91c-1.13,0-2.04-0.92-2.04-2.04s0.92-2.05,2.04-2.05s2.04,0.92,2.04,2.05
		S57.67,91.91,56.54,91.91z"/>
	<path class="st0" d="M108.72,50.23L69.19,21.52c-1.73-1.26-4.05-1.26-5.78,0L23.89,50.23c-1.73,1.26-2.45,3.47-1.79,5.5l15.1,46.46
		c0.66,2.03,2.54,3.4,4.68,3.4h48.85c2.14,0,4.02-1.37,4.68-3.4l15.1-46.46C111.16,53.7,110.45,51.49,108.72,50.23z M109.08,55.27
		l-15.1,46.46c-0.46,1.41-1.77,2.36-3.25,2.36H41.87c-1.49,0-2.79-0.95-3.25-2.36l-15.1-46.46c-0.46-1.41,0.04-2.95,1.24-3.82
		l39.52-28.72c1.2-0.87,2.82-0.87,4.02,0l39.52,28.72C109.04,52.32,109.54,53.85,109.08,55.27z"/>
	<path class="st0" d="M91.2,62.44v-6.96H76.8v-14.4H63.48c-0.22-1.46-1.48-2.59-3-2.59c-1.68,0-3.04,1.37-3.04,3.04
		s1.37,3.05,3.04,3.05c1.44,0,2.64-1.01,2.96-2.35h12.21v14.4h14.4v5.82c-1.39,0.28-2.44,1.51-2.44,2.98c0,1.68,1.37,3.04,3.04,3.04
		s3.04-1.37,3.04-3.04C93.7,63.93,92.62,62.69,91.2,62.44z M60.48,43.58c-1.13,0-2.04-0.92-2.04-2.05c0-1.13,0.92-2.04,2.04-2.04
		s2.04,0.92,2.04,2.04C62.53,42.66,61.61,43.58,60.48,43.58z M90.66,67.47c-1.13,0-2.04-0.92-2.04-2.04s0.92-2.05,2.04-2.05
		s2.04,0.92,2.04,2.05S91.78,67.47,90.66,67.47z"/>
</g>
<g>
</g>
<g>
</g>
<g>
</g>
<g>
</g>
<g>
</g>
<g>
</g>
</svg>
