<?xml version="1.0" encoding="utf-8"?>
<!-- Generator: Adobe Illustrator 26.0.1, SVG Export Plug-In . SVG Version: 6.00 Build 0)  -->
<svg version="1.1" id="Слой_1" xmlns="http://www.w3.org/2000/svg" xmlns:xlink="http://www.w3.org/1999/xlink" x="0px" y="0px"
	 viewBox="0 0 128 128" style="enable-background:new 0 0 128 128;" xml:space="preserve">
<style type="text/css">
	.st0{fill:#3C3B6F;}
</style>
<g>
	<path class="st0" d="M120.3,79.59h-15.32c-1.26,0-2.28,1.02-2.28,2.28v12.09H66.58V81.81h20.04c2,0,3.62-1.62,3.62-3.62v-6.62
		h15.94v-3.65c6.58-0.39,11.82-5.85,11.82-12.53c0-6.93-5.64-12.57-12.57-12.57s-12.57,5.64-12.57,12.57
		c0,6.68,5.24,12.14,11.82,12.53v2.15H90.25V53.24c0-2-1.62-3.62-3.62-3.62h-3.97v-9.64h11.51c1.33,0,2.42-1.08,2.42-2.42v-9.54
		c0-1.33-1.08-2.42-2.42-2.42H60.73c-1.33,0-2.42,1.08-2.42,2.42v9.54c0,1.33,1.08,2.42,2.42,2.42h20.43v9.64H54.75v-6.4H33.27
		v-2.65h4.58c0.84,0,1.53-0.69,1.53-1.53v-6.95c0-0.84-0.69-1.53-1.53-1.53H27.19c-0.84,0-1.53,0.69-1.53,1.53v6.95
		c0,0.84,0.69,1.53,1.53,1.53h4.58v4.15h21.48v4.9h-6.79c-2,0-3.62,1.63-3.62,3.62v18.01H26.35v-4.1h8.13
		c1.09,0,1.98-0.89,1.98-1.98V54.23c0-1.09-0.89-1.98-1.98-1.98H17.71c-1.09,0-1.98,0.89-1.98,1.98v10.94
		c0,1.09,0.89,1.98,1.98,1.98h7.13v5.6h17.99v5.44c0,2,1.62,3.62,3.62,3.62h4.39v9.37H33.27c0-0.02,0-0.04,0-0.06
		c0-6.93-5.64-12.57-12.57-12.57S8.14,84.19,8.14,91.12s5.64,12.57,12.57,12.57c6.4,0,11.69-4.81,12.46-11h19.19V81.81h12.73v13.66
		h37.62v5.12c0,1.26,1.02,2.28,2.28,2.28h15.32c1.26,0,2.28-1.02,2.28-2.28V81.88C122.58,80.62,121.56,79.59,120.3,79.59z
		 M94.37,55.39c0-6.1,4.96-11.07,11.07-11.07s11.07,4.96,11.07,11.07c0,6.1-4.96,11.07-11.07,11.07S94.37,61.49,94.37,55.39z
		 M59.81,37.56v-9.54c0-0.5,0.41-0.92,0.92-0.92h33.43c0.5,0,0.92,0.41,0.92,0.92v9.54c0,0.5-0.41,0.92-0.92,0.92H60.73
		C60.22,38.48,59.81,38.07,59.81,37.56z M27.16,39.04l0.03-6.98l10.69,0.03v6.95c0,0.02-0.01,0.03-0.03,0.03L27.16,39.04z
		 M17.24,65.17V54.23c0-0.26,0.21-0.48,0.48-0.48h16.77c0.26,0,0.48,0.21,0.48,0.48v10.94c0,0.26-0.21,0.48-0.48,0.48H17.71
		C17.45,65.65,17.24,65.43,17.24,65.17z M20.7,102.19c-6.1,0-11.07-4.96-11.07-11.07S14.6,80.05,20.7,80.05s11.07,4.96,11.07,11.07
		S26.8,102.19,20.7,102.19z M44.34,78.19V53.24c0-1.17,0.95-2.12,2.12-2.12h40.17c1.17,0,2.12,0.95,2.12,2.12v24.95
		c0,1.17-0.95,2.12-2.12,2.12H46.46C45.29,80.31,44.34,79.36,44.34,78.19z M121.08,100.59c0,0.43-0.35,0.78-0.78,0.78h-15.32
		c-0.43,0-0.78-0.35-0.78-0.78V81.88c0-0.43,0.35-0.78,0.78-0.78h15.32c0.43,0,0.78,0.35,0.78,0.78V100.59z"/>
	<path class="st0" d="M20.7,83.68c-4.1,0-7.44,3.34-7.44,7.44s3.34,7.44,7.44,7.44s7.44-3.34,7.44-7.44S24.8,83.68,20.7,83.68z
		 M20.7,97.06c-3.27,0-5.94-2.66-5.94-5.94s2.66-5.94,5.94-5.94c3.27,0,5.94,2.66,5.94,5.94S23.98,97.06,20.7,97.06z"/>
	<path class="st0" d="M114.54,55.39c0-5.02-4.08-9.11-9.11-9.11s-9.11,4.08-9.11,9.11s4.08,9.11,9.11,9.11
		S114.54,60.41,114.54,55.39z M97.83,55.39c0-4.19,3.41-7.61,7.61-7.61s7.61,3.41,7.61,7.61S109.63,63,105.43,63
		S97.83,59.59,97.83,55.39z"/>
	<path class="st0" d="M66.54,58.14c-4.88,0-9.59,1.67-13.37,4.72L54.15,64c0,0,0.01-0.01,0.01-0.01c3.5-2.81,7.86-4.35,12.38-4.35
		c4.62,0,9.07,1.6,12.61,4.54l0.99-1.1C76.32,59.9,71.53,58.14,66.54,58.14z"/>
	<path class="st0" d="M77.03,66.02c-0.24-0.19-0.49-0.37-0.74-0.55c-0.16-0.11-0.33-0.22-0.5-0.33c-0.28-0.18-0.57-0.35-0.86-0.52
		c-0.16-0.09-0.32-0.18-0.49-0.27c-0.3-0.16-0.61-0.31-0.91-0.44c-0.17-0.08-0.33-0.15-0.5-0.22c-0.31-0.13-0.63-0.25-0.96-0.36
		c-0.1-0.03-0.19-0.08-0.29-0.11c-0.15-0.05-0.3-0.09-0.46-0.14c-0.06-0.02-0.12-0.04-0.17-0.05C71.1,63.02,71.05,63,71,62.99
		c-0.13-0.04-0.27-0.07-0.41-0.11c-0.22-0.06-0.44-0.1-0.66-0.14c-0.1-0.02-0.19-0.05-0.29-0.06c-0.05-0.01-0.11-0.02-0.17-0.03
		c-0.17-0.03-0.34-0.06-0.51-0.09c-0.2-0.03-0.39-0.04-0.59-0.06c-0.14-0.02-0.28-0.03-0.42-0.04c-0.46-0.04-0.91-0.06-1.37-0.06
		c-0.01,0-0.02,0-0.04,0c-0.01,0-0.02,0-0.03,0c-0.43,0-0.85,0.02-1.28,0.06c-0.17,0.01-0.34,0.03-0.51,0.05
		c-0.11,0.01-0.22,0.02-0.33,0.03c-0.23,0.03-0.47,0.06-0.7,0.1c-0.04,0.01-0.07,0.02-0.11,0.02c-0.11,0.02-0.22,0.05-0.34,0.07
		c-0.08,0.02-0.16,0.03-0.24,0.05c-0.31,0.06-0.62,0.13-0.93,0.22c-0.06,0.02-0.13,0.04-0.19,0.06c-0.2,0.06-0.41,0.11-0.6,0.18
		c-0.23,0.07-0.46,0.15-0.69,0.24c0,0,0,0,0,0c-0.06,0.02-0.12,0.05-0.17,0.07c-0.18,0.07-0.36,0.14-0.54,0.21
		c-0.21,0.09-0.41,0.18-0.62,0.28c-0.02,0.01-0.05,0.02-0.07,0.03c-0.02,0.01-0.04,0.02-0.06,0.03c-0.2,0.1-0.41,0.2-0.61,0.31
		c-0.09,0.05-0.18,0.11-0.27,0.16c-0.27,0.15-0.54,0.31-0.81,0.48c-0.08,0.05-0.16,0.09-0.23,0.14c-0.17,0.11-0.34,0.23-0.51,0.35
		c-0.04,0.03-0.08,0.05-0.12,0.08c-0.03,0.02-0.07,0.05-0.1,0.08c-0.38,0.28-0.74,0.56-1.1,0.87l-0.57,0.49l0.98,1.13l0.57-0.49
		c0.19-0.16,0.38-0.32,0.58-0.48c0.31-0.24,0.64-0.47,0.96-0.69c0.15-0.1,0.31-0.19,0.46-0.29c0.24-0.15,0.48-0.3,0.72-0.43
		c0.01,0,0.01-0.01,0.02-0.01c0.31-0.17,0.62-0.32,0.94-0.46c0.22-0.1,0.45-0.2,0.68-0.29c0.22-0.09,0.44-0.18,0.66-0.26
		c0.05-0.02,0.1-0.04,0.16-0.05c0.33-0.11,0.67-0.21,1.01-0.31c0.1-0.03,0.2-0.05,0.3-0.08c0.34-0.08,0.68-0.16,1.02-0.22
		c0.07-0.01,0.14-0.02,0.21-0.03c0.77-0.12,1.56-0.19,2.35-0.2c0.04,0,0.07,0,0.11,0c0.37,0,0.72,0.02,1.08,0.05
		c0.19,0.01,0.38,0.03,0.57,0.05c0.28,0.03,0.56,0.06,0.83,0.11c0.16,0.03,0.33,0.06,0.49,0.09c0.26,0.05,0.52,0.1,0.77,0.17
		c0.16,0.04,0.32,0.08,0.47,0.13c0.3,0.08,0.59,0.17,0.88,0.27c0.07,0.02,0.13,0.05,0.2,0.07c0.34,0.12,0.67,0.26,0.99,0.4
		c0.08,0.03,0.16,0.07,0.23,0.11c0.32,0.15,0.63,0.31,0.94,0.48c0.33,0.18,0.64,0.37,0.95,0.57c0.08,0.05,0.16,0.1,0.24,0.15
		c0.38,0.26,0.75,0.53,1.12,0.82c0,0,0,0,0,0c0.2,0.16,0.39,0.32,0.58,0.49l0.55,0.5l1-1.12l0,0l-0.56-0.5
		C77.61,66.47,77.32,66.25,77.03,66.02z"/>
	<path class="st0" d="M73.38,70.42c-0.11-0.08-0.22-0.16-0.34-0.24c-0.16-0.11-0.32-0.22-0.48-0.32c-0.12-0.07-0.24-0.14-0.36-0.21
		c-0.17-0.1-0.33-0.19-0.5-0.28c-0.12-0.06-0.25-0.12-0.37-0.18c-0.17-0.08-0.35-0.16-0.52-0.23c-0.13-0.05-0.26-0.1-0.39-0.15
		c-0.18-0.07-0.37-0.13-0.55-0.18c-0.13-0.04-0.26-0.08-0.39-0.12c-0.19-0.05-0.39-0.09-0.59-0.14c-0.13-0.03-0.25-0.06-0.38-0.08
		c-0.22-0.04-0.44-0.07-0.66-0.09c-0.11-0.01-0.21-0.03-0.32-0.04c-0.33-0.03-0.66-0.05-1-0.05c-0.33,0-0.65,0.02-0.97,0.04
		c-0.11,0.01-0.21,0.03-0.32,0.04c-0.22,0.02-0.43,0.05-0.65,0.09c-0.12,0.02-0.25,0.05-0.37,0.08c-0.19,0.04-0.38,0.08-0.57,0.13
		c-0.13,0.03-0.26,0.07-0.39,0.11c-0.18,0.05-0.36,0.11-0.54,0.17c-0.13,0.05-0.26,0.1-0.38,0.15c-0.17,0.07-0.34,0.14-0.51,0.22
		c-0.13,0.06-0.25,0.12-0.38,0.18c-0.16,0.08-0.33,0.17-0.49,0.26c-0.12,0.07-0.24,0.14-0.36,0.21c-0.16,0.1-0.31,0.2-0.47,0.31
		c-0.11,0.08-0.23,0.15-0.34,0.23c-0.24,0.18-0.47,0.36-0.7,0.55l-0.56,0.49l0.84,0.97l0.14,0.17l0.57-0.49
		c0.19-0.16,0.39-0.32,0.59-0.47c0.02-0.01,0.04-0.03,0.06-0.05c0.08-0.06,0.16-0.11,0.24-0.17c0.15-0.1,0.3-0.2,0.45-0.3
		c0.09-0.06,0.19-0.11,0.28-0.16c0.15-0.08,0.3-0.16,0.45-0.24c0.1-0.05,0.2-0.1,0.31-0.14c0.15-0.07,0.3-0.13,0.46-0.19
		c0.11-0.04,0.21-0.08,0.32-0.12c0.16-0.06,0.31-0.11,0.47-0.15c0.11-0.03,0.22-0.06,0.32-0.09c0.17-0.04,0.33-0.08,0.5-0.11
		c0.1-0.02,0.21-0.05,0.31-0.06c0.18-0.03,0.37-0.05,0.56-0.08c0.09-0.01,0.18-0.03,0.27-0.03c0.28-0.02,0.56-0.04,0.84-0.04
		c0.29,0,0.58,0.01,0.86,0.04c0.09,0.01,0.19,0.02,0.28,0.03c0.19,0.02,0.38,0.05,0.57,0.08c0.11,0.02,0.22,0.04,0.32,0.07
		c0.17,0.04,0.34,0.07,0.51,0.12c0.11,0.03,0.22,0.06,0.33,0.1c0.16,0.05,0.32,0.1,0.48,0.16c0.11,0.04,0.22,0.08,0.33,0.13
		c0.15,0.06,0.31,0.13,0.46,0.2c0.11,0.05,0.21,0.1,0.31,0.15c0.15,0.08,0.3,0.16,0.45,0.25c0.1,0.06,0.19,0.11,0.29,0.17
		c0.16,0.1,0.31,0.2,0.46,0.31c0.08,0.06,0.16,0.11,0.24,0.17c0.02,0.02,0.04,0.04,0.07,0.06c0.2,0.15,0.39,0.31,0.58,0.47l0.56,0.5
		l1-1.12l-0.55-0.5C73.86,70.79,73.62,70.6,73.38,70.42z"/>
</g>
</svg>
