<?xml version="1.0" encoding="utf-8"?>
<!-- Generator: Adobe Illustrator 26.0.1, SVG Export Plug-In . SVG Version: 6.00 Build 0)  -->
<svg version="1.1" id="Слой_1" xmlns="http://www.w3.org/2000/svg" xmlns:xlink="http://www.w3.org/1999/xlink" x="0px" y="0px"
	 viewBox="0 0 128 90" style="enable-background:new 0 0 128 90;" xml:space="preserve">
<style type="text/css">
	.st0{clip-path:url(#SVGID_00000035497662093383278890000015679583255868706697_);fill:#180087;}
	.st1{clip-path:url(#SVGID_00000035497662093383278890000015679583255868706697_);fill:#FFFFFF;}
	.st2{clip-path:url(#SVGID_00000035497662093383278890000015679583255868706697_);fill:#EA0020;}
	.st3{fill:#FFFFFF;}
</style>
<g>
	<g id="AUSTRALIA_00000085946339624982725720000007034669658247975083_">
		<g>
			<g>
				<defs>
					<rect id="SVGID_1_" x="8.79" y="12.8" width="110.42" height="64.41"/>
				</defs>
				<clipPath id="SVGID_00000096020256279620860360000001704098661809303967_">
					<use xlink:href="#SVGID_1_"  style="overflow:visible;"/>
				</clipPath>
				
					<rect x="8.79" y="12.8" style="clip-path:url(#SVGID_00000096020256279620860360000001704098661809303967_);fill:#180087;" width="110.42" height="64.41"/>
				<polygon style="clip-path:url(#SVGID_00000096020256279620860360000001704098661809303967_);fill:#FFFFFF;" points="
					37.83,52.26 39.52,57.49 44.65,55.54 41.63,60.11 46.34,62.92 40.87,63.39 41.63,68.82 37.83,64.85 34.06,68.82 34.81,63.39 
					29.34,62.92 34.06,60.11 31.02,55.54 36.16,57.49 				"/>
				<polygon style="clip-path:url(#SVGID_00000096020256279620860360000001704098661809303967_);fill:#FFFFFF;" points="
					95.92,61.66 96.74,64.15 99.18,63.23 97.74,65.41 99.98,66.74 97.37,66.97 97.74,69.55 95.92,67.66 94.14,69.55 94.5,66.97 
					91.89,66.74 94.14,65.41 92.7,63.23 95.14,64.15 				"/>
				<polygon style="clip-path:url(#SVGID_00000096020256279620860360000001704098661809303967_);fill:#FFFFFF;" points="
					81.41,38.67 82.21,41.16 84.65,40.23 83.21,42.41 85.46,43.75 82.85,43.96 83.21,46.56 81.41,44.66 79.61,46.56 79.97,43.96 
					77.37,43.75 79.61,42.41 78.17,40.23 80.61,41.16 				"/>
				<polygon style="clip-path:url(#SVGID_00000096020256279620860360000001704098661809303967_);fill:#FFFFFF;" points="
					95.92,22.93 96.74,25.42 99.18,24.5 97.74,26.67 99.98,28.01 97.37,28.24 97.74,30.82 95.92,28.93 94.14,30.82 94.5,28.24 
					91.89,28.01 94.14,26.67 92.7,24.5 95.14,25.42 				"/>
				<polygon style="clip-path:url(#SVGID_00000096020256279620860360000001704098661809303967_);fill:#FFFFFF;" points="
					108.85,34.8 109.64,37.29 112.1,36.36 110.65,38.54 112.9,39.86 110.29,40.1 110.66,42.69 108.85,40.79 107.05,42.69 
					107.41,40.1 104.8,39.86 107.05,38.54 105.61,36.36 108.06,37.29 				"/>
				<polygon style="clip-path:url(#SVGID_00000096020256279620860360000001704098661809303967_);fill:#FFFFFF;" points="
					101.75,46.45 102.38,48 104.05,48.12 102.77,49.2 103.17,50.83 101.75,49.94 100.33,50.83 100.72,49.2 99.45,48.12 101.12,48 
									"/>
				<polygon style="clip-path:url(#SVGID_00000096020256279620860360000001704098661809303967_);fill:#FFFFFF;" points="33,12.8 
					33,22.48 8.79,22.48 8.79,32.16 33,32.16 33,41.85 42.67,41.85 42.67,32.16 66.9,32.16 66.9,22.48 42.67,22.48 42.67,12.8 				
					"/>
				<polygon style="clip-path:url(#SVGID_00000096020256279620860360000001704098661809303967_);fill:#FFFFFF;" points="8.79,12.8 
					8.79,16.04 60.39,41.85 66.89,41.85 66.89,38.6 15.29,12.8 				"/>
				<polygon style="clip-path:url(#SVGID_00000096020256279620860360000001704098661809303967_);fill:#FFFFFF;" points="60.39,12.8 
					8.79,38.6 8.79,41.85 15.29,41.85 66.89,16.04 66.89,12.8 				"/>
				<polygon style="clip-path:url(#SVGID_00000096020256279620860360000001704098661809303967_);fill:#EA0020;" points="34.93,12.8 
					34.93,24.42 8.79,24.42 8.79,30.23 34.93,30.23 34.93,41.85 40.74,41.85 40.74,30.23 66.89,30.23 66.89,24.42 40.74,24.42 
					40.74,12.8 				"/>
				<path style="clip-path:url(#SVGID_00000096020256279620860360000001704098661809303967_);fill:#EA0020;" d="M8.79,12.8v2.17
					l15.02,7.52h4.34L8.79,12.8z M62.55,12.8l-19.36,9.69h4.33l19.36-9.69H62.55z"/>
				<path style="clip-path:url(#SVGID_00000096020256279620860360000001704098661809303967_);fill:#EA0020;" d="M28.16,32.16
					L8.79,41.85h4.33l19.37-9.68H28.16z M47.52,32.16l19.37,9.68v-2.17l-15.04-7.52H47.52z"/>
			</g>
		</g>
	</g>
	<path class="st3" d="M124.43,82.23H3.57V7.77h120.87V82.23z M3.82,81.98h120.37V8.02H3.82V81.98z"/>
</g>
</svg>
