<?xml version="1.0" encoding="utf-8"?>
<!-- Generator: Adobe Illustrator 26.0.1, SVG Export Plug-In . SVG Version: 6.00 Build 0)  -->
<svg version="1.1" id="Слой_1" xmlns="http://www.w3.org/2000/svg" xmlns:xlink="http://www.w3.org/1999/xlink" x="0px" y="0px"
	 viewBox="0 0 128 90" style="enable-background:new 0 0 128 90;" xml:space="preserve">
<style type="text/css">
	.st0{clip-path:url(#SVGID_00000013898593765243386780000016873454497806741404_);fill:#FFFFFF;}
	.st1{clip-path:url(#SVGID_00000013898593765243386780000016873454497806741404_);fill:#BD0034;}
	.st2{clip-path:url(#SVGID_00000013898593765243386780000016873454497806741404_);fill:#1A237B;}
	.st3{fill:#FFFFFF;}
</style>
<g>
	<g id="UNITED_KINGDOM_00000030479615331941779530000008971466527804327839_">
		<g>
			<g>
				<defs>
					<rect id="SVGID_1_" x="8.79" y="12.8" width="110.42" height="64.41"/>
				</defs>
				<clipPath id="SVGID_00000146458042291134838160000013616121330763188904_">
					<use xlink:href="#SVGID_1_"  style="overflow:visible;"/>
				</clipPath>
				
					<rect x="8.79" y="12.8" style="clip-path:url(#SVGID_00000146458042291134838160000013616121330763188904_);fill:#FFFFFF;" width="110.42" height="64.41"/>
				<polygon style="clip-path:url(#SVGID_00000146458042291134838160000013616121330763188904_);fill:#BD0034;" points="
					82.72,36.08 119.21,15.66 119.21,12.8 116.7,12.8 75.09,36.08 				"/>
				<polygon style="clip-path:url(#SVGID_00000146458042291134838160000013616121330763188904_);fill:#BD0034;" points="81,55.21 
					119.21,76.59 119.21,72.32 88.64,55.21 				"/>
				<polygon style="clip-path:url(#SVGID_00000146458042291134838160000013616121330763188904_);fill:#BD0034;" points="8.79,17.7 
					41.47,36.08 49.11,36.08 8.79,13.42 				"/>
				<polygon style="clip-path:url(#SVGID_00000146458042291134838160000013616121330763188904_);fill:#BD0034;" points="
					47.38,55.21 8.79,76.83 8.79,77.2 15.76,77.2 55.02,55.21 				"/>
				<polygon style="clip-path:url(#SVGID_00000146458042291134838160000013616121330763188904_);fill:#1A237B;" points="
					111.65,12.8 72.99,12.8 72.99,34.45 				"/>
				<polygon style="clip-path:url(#SVGID_00000146458042291134838160000013616121330763188904_);fill:#1A237B;" points="55.92,12.8 
					17.42,12.8 55.92,34.45 				"/>
				<polygon style="clip-path:url(#SVGID_00000146458042291134838160000013616121330763188904_);fill:#1A237B;" points="
					119.21,36.08 119.21,21.31 92.98,36.08 				"/>
				<polygon style="clip-path:url(#SVGID_00000146458042291134838160000013616121330763188904_);fill:#1A237B;" points="
					119.21,69.83 119.21,55.21 92.98,55.21 				"/>
				<polygon style="clip-path:url(#SVGID_00000146458042291134838160000013616121330763188904_);fill:#1A237B;" points="19.6,77.2 
					55.92,77.2 55.92,56.85 				"/>
				<polygon style="clip-path:url(#SVGID_00000146458042291134838160000013616121330763188904_);fill:#1A237B;" points="72.99,77.2 
					109.43,77.2 72.99,56.85 				"/>
				<polygon style="clip-path:url(#SVGID_00000146458042291134838160000013616121330763188904_);fill:#1A237B;" points="8.79,55.21 
					8.79,70.49 35.93,55.21 				"/>
				<polygon style="clip-path:url(#SVGID_00000146458042291134838160000013616121330763188904_);fill:#1A237B;" points="8.79,36.08 
					35.93,36.08 8.79,20.78 				"/>
				<polygon style="clip-path:url(#SVGID_00000146458042291134838160000013616121330763188904_);fill:#BD0034;" points="59.34,12.8 
					59.34,39.91 8.79,39.91 8.79,51.39 59.34,51.39 59.34,77.2 69.58,77.2 69.58,51.39 119.21,51.39 119.21,39.91 69.58,39.91 
					69.58,12.8 				"/>
			</g>
		</g>
	</g>
	<path class="st3" d="M124.43,82.23H3.57V7.77h120.87V82.23z M3.82,81.98h120.37V8.02H3.82V81.98z"/>
</g>
</svg>
