<?xml version="1.0" encoding="utf-8"?>
<!-- Generator: Adobe Illustrator 26.0.1, SVG Export Plug-In . SVG Version: 6.00 Build 0)  -->
<svg version="1.1" id="Слой_1" xmlns="http://www.w3.org/2000/svg" xmlns:xlink="http://www.w3.org/1999/xlink" x="0px" y="0px"
	 viewBox="0 0 128 90" style="enable-background:new 0 0 128 90;" xml:space="preserve">
<style type="text/css">
	.st0{clip-path:url(#SVGID_00000122715743636670687070000005066815015076456857_);fill:#CB001C;}
	.st1{clip-path:url(#SVGID_00000122715743636670687070000005066815015076456857_);fill:#FFFFFF;}
	.st2{clip-path:url(#SVGID_00000122715743636670687070000005066815015076456857_);fill:#2A3560;}
	.st3{fill:#FFFFFF;}
</style>
<g>
	<g id="USA_00000069377066385585569680000014458942849930983345_">
		<g>
			<g>
				<defs>
					<rect id="SVGID_1_" x="8.79" y="12.8" width="110.42" height="64.41"/>
				</defs>
				<clipPath id="SVGID_00000125584435583564537460000011872238560968651942_">
					<use xlink:href="#SVGID_1_"  style="overflow:visible;"/>
				</clipPath>
				
					<rect x="8.79" y="72.25" style="clip-path:url(#SVGID_00000125584435583564537460000011872238560968651942_);fill:#CB001C;" width="110.42" height="4.95"/>
				
					<rect x="8.79" y="67.3" style="clip-path:url(#SVGID_00000125584435583564537460000011872238560968651942_);fill:#FFFFFF;" width="110.42" height="4.95"/>
				
					<rect x="8.79" y="62.35" style="clip-path:url(#SVGID_00000125584435583564537460000011872238560968651942_);fill:#CB001C;" width="110.42" height="4.95"/>
				
					<rect x="8.79" y="57.39" style="clip-path:url(#SVGID_00000125584435583564537460000011872238560968651942_);fill:#FFFFFF;" width="110.42" height="4.95"/>
				
					<rect x="8.79" y="52.43" style="clip-path:url(#SVGID_00000125584435583564537460000011872238560968651942_);fill:#CB001C;" width="110.42" height="4.96"/>
				
					<rect x="8.79" y="47.48" style="clip-path:url(#SVGID_00000125584435583564537460000011872238560968651942_);fill:#FFFFFF;" width="110.42" height="4.95"/>
				
					<rect x="8.79" y="42.52" style="clip-path:url(#SVGID_00000125584435583564537460000011872238560968651942_);fill:#CB001C;" width="110.42" height="4.96"/>
				
					<rect x="8.79" y="37.57" style="clip-path:url(#SVGID_00000125584435583564537460000011872238560968651942_);fill:#FFFFFF;" width="110.42" height="4.95"/>
				
					<rect x="8.79" y="32.62" style="clip-path:url(#SVGID_00000125584435583564537460000011872238560968651942_);fill:#CB001C;" width="110.42" height="4.95"/>
				
					<rect x="8.79" y="27.66" style="clip-path:url(#SVGID_00000125584435583564537460000011872238560968651942_);fill:#FFFFFF;" width="110.42" height="4.96"/>
				
					<rect x="8.79" y="22.71" style="clip-path:url(#SVGID_00000125584435583564537460000011872238560968651942_);fill:#CB001C;" width="110.42" height="4.95"/>
				
					<rect x="8.79" y="17.75" style="clip-path:url(#SVGID_00000125584435583564537460000011872238560968651942_);fill:#FFFFFF;" width="110.42" height="4.95"/>
				
					<rect x="8.79" y="12.8" style="clip-path:url(#SVGID_00000125584435583564537460000011872238560968651942_);fill:#CB001C;" width="110.42" height="4.96"/>
				
					<rect x="8.79" y="12.8" style="clip-path:url(#SVGID_00000125584435583564537460000011872238560968651942_);fill:#2A3560;" width="50.43" height="34.69"/>
				<polygon style="clip-path:url(#SVGID_00000125584435583564537460000011872238560968651942_);fill:#FFFFFF;" points="
					13.34,16.62 13.78,17.93 15.16,17.93 14.04,18.74 14.46,20.05 13.34,19.24 12.23,20.05 12.66,18.74 11.55,17.93 12.91,17.93 
									"/>
				<polygon style="clip-path:url(#SVGID_00000125584435583564537460000011872238560968651942_);fill:#FFFFFF;" points="
					13.34,22.41 13.78,23.72 15.16,23.72 14.04,24.53 14.46,25.84 13.34,25.03 12.23,25.84 12.66,24.53 11.55,23.72 12.91,23.72 
									"/>
				<polygon style="clip-path:url(#SVGID_00000125584435583564537460000011872238560968651942_);fill:#FFFFFF;" points="13.34,28.2 
					13.78,29.51 15.16,29.51 14.04,30.32 14.46,31.63 13.34,30.82 12.23,31.63 12.66,30.32 11.55,29.51 12.91,29.51 				"/>
				<polygon style="clip-path:url(#SVGID_00000125584435583564537460000011872238560968651942_);fill:#FFFFFF;" points="
					13.34,33.99 13.78,35.3 15.16,35.3 14.04,36.11 14.46,37.42 13.34,36.61 12.23,37.42 12.66,36.11 11.55,35.3 12.91,35.3 				"/>
				<polygon style="clip-path:url(#SVGID_00000125584435583564537460000011872238560968651942_);fill:#FFFFFF;" points="
					13.34,39.78 13.78,41.09 15.16,41.09 14.04,41.9 14.46,43.21 13.34,42.4 12.23,43.21 12.66,41.9 11.55,41.09 12.91,41.09 				
					"/>
				<polygon style="clip-path:url(#SVGID_00000125584435583564537460000011872238560968651942_);fill:#FFFFFF;" points="
					17.38,19.67 17.79,20.98 19.18,20.98 18.07,21.79 18.48,23.1 17.38,22.3 16.27,23.1 16.69,21.79 15.57,20.98 16.96,20.98 				
					"/>
				<polygon style="clip-path:url(#SVGID_00000125584435583564537460000011872238560968651942_);fill:#FFFFFF;" points="
					17.38,25.46 17.79,26.77 19.18,26.77 18.07,27.58 18.48,28.89 17.38,28.09 16.27,28.89 16.69,27.58 15.57,26.77 16.96,26.77 
									"/>
				<polygon style="clip-path:url(#SVGID_00000125584435583564537460000011872238560968651942_);fill:#FFFFFF;" points="
					17.38,31.25 17.79,32.56 19.18,32.56 18.07,33.37 18.48,34.68 17.38,33.87 16.27,34.68 16.69,33.37 15.57,32.56 16.96,32.56 
									"/>
				<polygon style="clip-path:url(#SVGID_00000125584435583564537460000011872238560968651942_);fill:#FFFFFF;" points="
					17.38,37.04 17.79,38.35 19.18,38.35 18.07,39.16 18.48,40.47 17.38,39.65 16.27,40.47 16.69,39.16 15.57,38.35 16.96,38.35 
									"/>
				<polygon style="clip-path:url(#SVGID_00000125584435583564537460000011872238560968651942_);fill:#FFFFFF;" points="
					21.45,16.62 21.88,17.93 23.27,17.93 22.15,18.74 22.58,20.05 21.45,19.24 20.35,20.05 20.77,18.74 19.65,17.93 21.03,17.93 
									"/>
				<polygon style="clip-path:url(#SVGID_00000125584435583564537460000011872238560968651942_);fill:#FFFFFF;" points="
					21.45,22.41 21.88,23.72 23.27,23.72 22.15,24.53 22.58,25.84 21.45,25.03 20.35,25.84 20.77,24.53 19.65,23.72 21.03,23.72 
									"/>
				<polygon style="clip-path:url(#SVGID_00000125584435583564537460000011872238560968651942_);fill:#FFFFFF;" points="21.45,28.2 
					21.88,29.51 23.27,29.51 22.15,30.32 22.58,31.63 21.45,30.82 20.35,31.63 20.77,30.32 19.65,29.51 21.03,29.51 				"/>
				<polygon style="clip-path:url(#SVGID_00000125584435583564537460000011872238560968651942_);fill:#FFFFFF;" points="
					21.45,33.99 21.88,35.3 23.27,35.3 22.15,36.11 22.58,37.42 21.45,36.61 20.35,37.42 20.77,36.11 19.65,35.3 21.03,35.3 				"/>
				<polygon style="clip-path:url(#SVGID_00000125584435583564537460000011872238560968651942_);fill:#FFFFFF;" points="
					21.45,39.78 21.88,41.09 23.27,41.09 22.15,41.9 22.58,43.21 21.45,42.4 20.35,43.21 20.77,41.9 19.65,41.09 21.03,41.09 				
					"/>
				<polygon style="clip-path:url(#SVGID_00000125584435583564537460000011872238560968651942_);fill:#FFFFFF;" points="
					25.49,19.67 25.91,20.98 27.3,20.98 26.18,21.79 26.61,23.1 25.49,22.3 24.38,23.1 24.81,21.79 23.68,20.98 25.06,20.98 				"/>
				<polygon style="clip-path:url(#SVGID_00000125584435583564537460000011872238560968651942_);fill:#FFFFFF;" points="
					25.49,25.46 25.91,26.77 27.3,26.77 26.18,27.58 26.61,28.89 25.49,28.09 24.38,28.89 24.81,27.58 23.68,26.77 25.06,26.77 				
					"/>
				<polygon style="clip-path:url(#SVGID_00000125584435583564537460000011872238560968651942_);fill:#FFFFFF;" points="
					25.49,31.25 25.91,32.56 27.3,32.56 26.18,33.37 26.61,34.68 25.49,33.87 24.38,34.68 24.81,33.37 23.68,32.56 25.06,32.56 				
					"/>
				<polygon style="clip-path:url(#SVGID_00000125584435583564537460000011872238560968651942_);fill:#FFFFFF;" points="
					25.49,37.04 25.91,38.35 27.3,38.35 26.18,39.16 26.61,40.47 25.49,39.65 24.38,40.47 24.81,39.16 23.68,38.35 25.06,38.35 				
					"/>
				<polygon style="clip-path:url(#SVGID_00000125584435583564537460000011872238560968651942_);fill:#FFFFFF;" points="
					29.58,16.62 30.01,17.93 31.37,17.93 30.26,18.74 30.7,20.05 29.58,19.24 28.46,20.05 28.88,18.74 27.78,17.93 29.15,17.93 				
					"/>
				<polygon style="clip-path:url(#SVGID_00000125584435583564537460000011872238560968651942_);fill:#FFFFFF;" points="
					29.58,22.41 30.01,23.72 31.37,23.72 30.26,24.53 30.7,25.84 29.58,25.03 28.46,25.84 28.88,24.53 27.78,23.72 29.15,23.72 				
					"/>
				<polygon style="clip-path:url(#SVGID_00000125584435583564537460000011872238560968651942_);fill:#FFFFFF;" points="29.58,28.2 
					30.01,29.51 31.37,29.51 30.26,30.32 30.7,31.63 29.58,30.82 28.46,31.63 28.88,30.32 27.78,29.51 29.15,29.51 				"/>
				<polygon style="clip-path:url(#SVGID_00000125584435583564537460000011872238560968651942_);fill:#FFFFFF;" points="
					29.58,33.99 30.01,35.3 31.37,35.3 30.26,36.11 30.7,37.42 29.58,36.61 28.46,37.42 28.88,36.11 27.78,35.3 29.15,35.3 				"/>
				<polygon style="clip-path:url(#SVGID_00000125584435583564537460000011872238560968651942_);fill:#FFFFFF;" points="
					29.58,39.78 30.01,41.09 31.37,41.09 30.26,41.9 30.7,43.21 29.58,42.4 28.46,43.21 28.88,41.9 27.78,41.09 29.15,41.09 				"/>
				<polygon style="clip-path:url(#SVGID_00000125584435583564537460000011872238560968651942_);fill:#FFFFFF;" points="
					33.61,19.67 34.03,20.98 35.41,20.98 34.3,21.79 34.72,23.1 33.61,22.3 32.5,23.1 32.92,21.79 31.8,20.98 33.18,20.98 				"/>
				<polygon style="clip-path:url(#SVGID_00000125584435583564537460000011872238560968651942_);fill:#FFFFFF;" points="
					33.61,25.46 34.03,26.77 35.41,26.77 34.3,27.58 34.72,28.89 33.61,28.09 32.5,28.89 32.92,27.58 31.8,26.77 33.18,26.77 				
					"/>
				<polygon style="clip-path:url(#SVGID_00000125584435583564537460000011872238560968651942_);fill:#FFFFFF;" points="
					33.61,31.25 34.03,32.56 35.41,32.56 34.3,33.37 34.72,34.68 33.61,33.87 32.5,34.68 32.92,33.37 31.8,32.56 33.18,32.56 				
					"/>
				<polygon style="clip-path:url(#SVGID_00000125584435583564537460000011872238560968651942_);fill:#FFFFFF;" points="
					33.61,37.04 34.03,38.35 35.41,38.35 34.3,39.16 34.72,40.47 33.61,39.65 32.5,40.47 32.92,39.16 31.8,38.35 33.18,38.35 				
					"/>
				<polygon style="clip-path:url(#SVGID_00000125584435583564537460000011872238560968651942_);fill:#FFFFFF;" points="
					37.68,16.62 38.11,17.93 39.49,17.93 38.38,18.74 38.81,20.05 37.68,19.24 36.58,20.05 37,18.74 35.89,17.93 37.26,17.93 				
					"/>
				<polygon style="clip-path:url(#SVGID_00000125584435583564537460000011872238560968651942_);fill:#FFFFFF;" points="
					37.68,22.41 38.11,23.72 39.49,23.72 38.38,24.53 38.81,25.84 37.68,25.03 36.58,25.84 37,24.53 35.89,23.72 37.26,23.72 				
					"/>
				<polygon style="clip-path:url(#SVGID_00000125584435583564537460000011872238560968651942_);fill:#FFFFFF;" points="37.68,28.2 
					38.11,29.51 39.49,29.51 38.38,30.32 38.81,31.63 37.68,30.82 36.58,31.63 37,30.32 35.89,29.51 37.26,29.51 				"/>
				<polygon style="clip-path:url(#SVGID_00000125584435583564537460000011872238560968651942_);fill:#FFFFFF;" points="
					37.68,33.99 38.11,35.3 39.49,35.3 38.38,36.11 38.81,37.42 37.68,36.61 36.58,37.42 37,36.11 35.89,35.3 37.26,35.3 				"/>
				<polygon style="clip-path:url(#SVGID_00000125584435583564537460000011872238560968651942_);fill:#FFFFFF;" points="
					37.68,39.78 38.11,41.09 39.49,41.09 38.38,41.9 38.81,43.21 37.68,42.4 36.58,43.21 37,41.9 35.89,41.09 37.26,41.09 				"/>
				<polygon style="clip-path:url(#SVGID_00000125584435583564537460000011872238560968651942_);fill:#FFFFFF;" points="
					41.72,19.67 42.14,20.98 43.53,20.98 42.41,21.79 42.84,23.1 41.72,22.3 40.61,23.1 41.04,21.79 39.92,20.98 41.3,20.98 				"/>
				<polygon style="clip-path:url(#SVGID_00000125584435583564537460000011872238560968651942_);fill:#FFFFFF;" points="
					41.72,25.46 42.14,26.77 43.53,26.77 42.41,27.58 42.84,28.89 41.72,28.09 40.61,28.89 41.04,27.58 39.92,26.77 41.3,26.77 				
					"/>
				<polygon style="clip-path:url(#SVGID_00000125584435583564537460000011872238560968651942_);fill:#FFFFFF;" points="
					41.72,31.25 42.14,32.56 43.53,32.56 42.41,33.37 42.84,34.68 41.72,33.87 40.61,34.68 41.04,33.37 39.92,32.56 41.3,32.56 				
					"/>
				<polygon style="clip-path:url(#SVGID_00000125584435583564537460000011872238560968651942_);fill:#FFFFFF;" points="
					41.72,37.04 42.14,38.35 43.53,38.35 42.41,39.16 42.84,40.47 41.72,39.65 40.61,40.47 41.04,39.16 39.92,38.35 41.3,38.35 				
					"/>
				<polygon style="clip-path:url(#SVGID_00000125584435583564537460000011872238560968651942_);fill:#FFFFFF;" points="
					45.81,16.62 46.24,17.93 47.61,17.93 46.5,18.74 46.92,20.05 45.81,19.24 44.7,20.05 45.12,18.74 44.01,17.93 45.38,17.93 				
					"/>
				<polygon style="clip-path:url(#SVGID_00000125584435583564537460000011872238560968651942_);fill:#FFFFFF;" points="
					45.81,22.41 46.24,23.72 47.61,23.72 46.5,24.53 46.92,25.84 45.81,25.03 44.7,25.84 45.12,24.53 44.01,23.72 45.38,23.72 				
					"/>
				<polygon style="clip-path:url(#SVGID_00000125584435583564537460000011872238560968651942_);fill:#FFFFFF;" points="45.81,28.2 
					46.24,29.51 47.61,29.51 46.5,30.32 46.92,31.63 45.81,30.82 44.7,31.63 45.12,30.32 44.01,29.51 45.38,29.51 				"/>
				<polygon style="clip-path:url(#SVGID_00000125584435583564537460000011872238560968651942_);fill:#FFFFFF;" points="
					45.81,33.99 46.24,35.3 47.61,35.3 46.5,36.11 46.92,37.42 45.81,36.61 44.7,37.42 45.12,36.11 44.01,35.3 45.38,35.3 				"/>
				<polygon style="clip-path:url(#SVGID_00000125584435583564537460000011872238560968651942_);fill:#FFFFFF;" points="
					45.81,39.78 46.24,41.09 47.61,41.09 46.5,41.9 46.92,43.21 45.81,42.4 44.7,43.21 45.12,41.9 44.01,41.09 45.38,41.09 				"/>
				<polygon style="clip-path:url(#SVGID_00000125584435583564537460000011872238560968651942_);fill:#FFFFFF;" points="
					49.84,19.67 50.26,20.98 51.64,20.98 50.54,21.79 50.95,23.1 49.84,22.3 48.72,23.1 49.15,21.79 48.04,20.98 49.41,20.98 				
					"/>
				<polygon style="clip-path:url(#SVGID_00000125584435583564537460000011872238560968651942_);fill:#FFFFFF;" points="
					49.84,25.46 50.26,26.77 51.64,26.77 50.54,27.58 50.95,28.89 49.84,28.09 48.72,28.89 49.15,27.58 48.04,26.77 49.41,26.77 
									"/>
				<polygon style="clip-path:url(#SVGID_00000125584435583564537460000011872238560968651942_);fill:#FFFFFF;" points="
					49.84,31.25 50.26,32.56 51.64,32.56 50.54,33.37 50.95,34.68 49.84,33.87 48.72,34.68 49.15,33.37 48.04,32.56 49.41,32.56 
									"/>
				<polygon style="clip-path:url(#SVGID_00000125584435583564537460000011872238560968651942_);fill:#FFFFFF;" points="
					49.84,37.04 50.26,38.35 51.64,38.35 50.54,39.16 50.95,40.47 49.84,39.65 48.72,40.47 49.15,39.16 48.04,38.35 49.41,38.35 
									"/>
				<polygon style="clip-path:url(#SVGID_00000125584435583564537460000011872238560968651942_);fill:#FFFFFF;" points="
					53.92,16.62 54.35,17.93 55.72,17.93 54.61,18.74 55.04,20.05 53.92,19.24 52.81,20.05 53.23,18.74 52.12,17.93 53.49,17.93 
									"/>
				<polygon style="clip-path:url(#SVGID_00000125584435583564537460000011872238560968651942_);fill:#FFFFFF;" points="
					53.92,22.41 54.35,23.72 55.72,23.72 54.61,24.53 55.04,25.84 53.92,25.03 52.81,25.84 53.23,24.53 52.12,23.72 53.49,23.72 
									"/>
				<polygon style="clip-path:url(#SVGID_00000125584435583564537460000011872238560968651942_);fill:#FFFFFF;" points="53.92,28.2 
					54.35,29.51 55.72,29.51 54.61,30.32 55.04,31.63 53.92,30.82 52.81,31.63 53.23,30.32 52.12,29.51 53.49,29.51 				"/>
				<polygon style="clip-path:url(#SVGID_00000125584435583564537460000011872238560968651942_);fill:#FFFFFF;" points="
					53.92,33.99 54.35,35.3 55.72,35.3 54.61,36.11 55.04,37.42 53.92,36.61 52.81,37.42 53.23,36.11 52.12,35.3 53.49,35.3 				"/>
				<polygon style="clip-path:url(#SVGID_00000125584435583564537460000011872238560968651942_);fill:#FFFFFF;" points="
					53.92,39.78 54.35,41.09 55.72,41.09 54.61,41.9 55.04,43.21 53.92,42.4 52.81,43.21 53.23,41.9 52.12,41.09 53.49,41.09 				
					"/>
			</g>
		</g>
	</g>
	<path class="st3" d="M124.43,82.23H3.57V7.77h120.87V82.23z M3.82,81.98h120.37V8.02H3.82V81.98z"/>
</g>
</svg>
