<?xml version="1.0" encoding="utf-8"?>
<!-- Generator: Adobe Illustrator 26.0.1, SVG Export Plug-In . SVG Version: 6.00 Build 0)  -->
<svg version="1.1" id="Слой_1" xmlns="http://www.w3.org/2000/svg" xmlns:xlink="http://www.w3.org/1999/xlink" x="0px" y="0px"
	 viewBox="0 0 90 88.6" style="enable-background:new 0 0 90 88.6;" xml:space="preserve">
<style type="text/css">
	.st0{fill:#FFFFFF;}
	.st1{fill:#C51D26;}
</style>
<g>
	<path class="st0" d="M19.4,29.4H3.9c0.4-9,3.2-16.1,8.5-21.3s12-7.7,20.2-7.7c5.1,0,9.6,1.1,13.4,3.2s7,5.2,9.3,9.3
		c2.3,4,3.5,8.1,3.5,12.3c0,5-1.4,10.3-4.2,16c-2.8,5.7-8,12.5-15.5,20.3l-9.4,9.9h29.8V86H1.6v-7.6l25.8-26.3
		c6.2-6.3,10.4-11.4,12.5-15.2S43,29.5,43,26.4c0-3.2-1.1-5.9-3.2-8s-4.9-3.1-8.3-3.1c-3.4,0-6.2,1.3-8.5,3.8
		C20.7,21.6,19.5,25.1,19.4,29.4z"/>
	<path class="st1" d="M80.5,69.9c2.5,0,4.6,0.9,6.3,2.6s2.6,3.8,2.6,6.3s-0.9,4.6-2.6,6.3s-3.8,2.6-6.3,2.6s-4.6-0.9-6.3-2.6
		s-2.6-3.8-2.6-6.3s0.9-4.6,2.6-6.3S78,69.9,80.5,69.9z"/>
</g>
</svg>
