<?xml version="1.0" encoding="utf-8"?>
<!-- Generator: Adobe Illustrator 26.0.1, SVG Export Plug-In . SVG Version: 6.00 Build 0)  -->
<svg version="1.1" id="Слой_1" xmlns="http://www.w3.org/2000/svg" xmlns:xlink="http://www.w3.org/1999/xlink" x="0px" y="0px"
	 viewBox="0 0 128 128" style="enable-background:new 0 0 128 128;" xml:space="preserve">
<style type="text/css">
	.st0{fill:#3C3B6F;}
	.st1{fill:#FFFFFF;}
	.st2{fill:#C51D26;}
</style>
<g>
	<path class="st1" d="M44.09,41.31h-15.5c0.42-9.01,3.25-16.1,8.49-21.26s11.97-7.75,20.18-7.75c5.07,0,9.55,1.07,13.43,3.21
		s6.98,5.22,9.31,9.25c2.33,4.03,3.49,8.13,3.49,12.29c0,4.96-1.41,10.3-4.23,16.01c-2.82,5.72-7.98,12.47-15.48,20.27l-9.37,9.88
		h29.77v14.71H26.32v-7.61l25.83-26.34c6.25-6.32,10.4-11.4,12.46-15.24c2.06-3.84,3.09-7.31,3.09-10.42c0-3.22-1.07-5.88-3.21-7.98
		s-4.89-3.15-8.26-3.15c-3.41,0-6.25,1.27-8.52,3.8C45.46,33.52,44.25,36.96,44.09,41.31z"/>
	<path class="st2" d="M105.24,81.74c2.46,0,4.56,0.86,6.3,2.58s2.61,3.81,2.61,6.27s-0.87,4.56-2.61,6.3s-3.84,2.61-6.3,2.61
		s-4.56-0.87-6.3-2.61s-2.61-3.84-2.61-6.3s0.87-4.55,2.61-6.27S102.78,81.74,105.24,81.74z"/>
</g>
</svg>
