<?xml version="1.0" encoding="utf-8"?>
<!-- Generator: Adobe Illustrator 26.0.1, SVG Export Plug-In . SVG Version: 6.00 Build 0)  -->
<svg version="1.1" id="Слой_1" xmlns="http://www.w3.org/2000/svg" xmlns:xlink="http://www.w3.org/1999/xlink" x="0px" y="0px"
	 viewBox="0 0 128 128" style="enable-background:new 0 0 128 128;" xml:space="preserve">
<style type="text/css">
	.st0{fill:#3C3B6F;}
	.st1{fill:#FFFFFF;}
	.st2{fill:#C51D26;}
</style>
<g>
	<path class="st1" d="M53.07,33.96H37.8c0.79-6.17,3.01-11.13,6.64-14.88c5.07-5.22,11.45-7.84,19.13-7.84
		c6.85,0,12.6,2.18,17.23,6.53c4.64,4.35,6.96,9.52,6.96,15.5c0,3.71-1.01,7.1-3.04,10.16s-4.97,5.55-8.83,7.44
		c5.07,1.51,9.04,4.15,11.89,7.92c2.86,3.77,4.29,8.2,4.29,13.31c0,7.49-2.76,13.84-8.29,19.05c-5.53,5.2-12.57,7.81-21.12,7.81
		c-8.1,0-14.71-2.45-19.82-7.35s-7.91-11.57-8.4-20.01h15.73c0.68,4.32,2.19,7.52,4.51,9.62c2.33,2.1,5.27,3.15,8.83,3.15
		c3.71,0,6.78-1.19,9.23-3.58c2.44-2.38,3.66-5.3,3.66-8.74c0-3.79-1.65-6.98-4.94-9.6c-3.29-2.61-8.04-3.96-14.25-4.03V44.81
		c3.82-0.3,6.67-0.9,8.55-1.79c1.87-0.89,3.33-2.11,4.37-3.66c1.04-1.55,1.56-3.2,1.56-4.94c0-2.27-0.79-4.15-2.38-5.65
		s-3.67-2.24-6.25-2.24c-2.27,0-4.33,0.69-6.19,2.07C55.02,29.98,53.75,31.77,53.07,33.96z"/>
	<path class="st2" d="M112.4,80.69c2.46,0,4.56,0.86,6.3,2.58c1.74,1.72,2.61,3.81,2.61,6.27s-0.87,4.56-2.61,6.3
		c-1.74,1.74-3.84,2.61-6.3,2.61s-4.56-0.87-6.3-2.61c-1.74-1.74-2.61-3.84-2.61-6.3s0.87-4.55,2.61-6.27
		C107.84,81.55,109.94,80.69,112.4,80.69z"/>
</g>
</svg>
