<?xml version="1.0" encoding="utf-8"?>
<!-- Generator: Adobe Illustrator 26.0.1, SVG Export Plug-In . SVG Version: 6.00 Build 0)  -->
<svg version="1.1" id="Слой_1" xmlns="http://www.w3.org/2000/svg" xmlns:xlink="http://www.w3.org/1999/xlink" x="0px" y="0px"
	 viewBox="0 0 88.1 88.6" style="enable-background:new 0 0 88.1 88.6;" xml:space="preserve">
<style type="text/css">
	.st0{fill:#FFFFFF;}
	.st1{fill:#C51D26;}
</style>
<g>
	<path class="st0" d="M19.3,23.2H4C4.8,17,7,12,10.7,8.3c5.1-5.2,11.4-7.8,19.1-7.8C36.6,0.4,42.4,2.6,47,7c4.6,4.4,7,9.5,7,15.5
		c0,3.7-1,7.1-3,10.2s-5,5.5-8.8,7.4c5.1,1.5,9,4.2,11.9,7.9c2.9,3.8,4.3,8.2,4.3,13.3c0,7.5-2.8,13.8-8.3,19.1
		c-5.5,5.2-12.6,7.8-21.1,7.8c-8.1,0-14.7-2.4-19.8-7.3s-7.9-11.6-8.4-20h15.7c0.7,4.3,2.2,7.5,4.5,9.6c2.3,2.1,5.3,3.2,8.8,3.2
		c3.7,0,6.8-1.2,9.2-3.6c2.4-2.4,3.7-5.3,3.7-8.7c0-3.8-1.7-7-4.9-9.6c-3.3-2.6-8-4-14.3-4V34c3.8-0.3,6.7-0.9,8.6-1.8
		c1.9-0.9,3.3-2.1,4.4-3.7s1.6-3.2,1.6-4.9c0-2.3-0.8-4.1-2.4-5.6s-3.7-2.2-6.3-2.2c-2.3,0-4.3,0.7-6.2,2.1
		C21.2,19.2,20,21,19.3,23.2z"/>
	<path class="st1" d="M78.6,69.9c2.5,0,4.6,0.9,6.3,2.6c1.7,1.7,2.6,3.8,2.6,6.3s-0.9,4.6-2.6,6.3c-1.7,1.7-3.8,2.6-6.3,2.6
		s-4.6-0.9-6.3-2.6c-1.7-1.7-2.6-3.8-2.6-6.3s0.9-4.6,2.6-6.3C74.1,70.8,76.2,69.9,78.6,69.9z"/>
</g>
</svg>
