<?xml version="1.0" encoding="utf-8"?>
<!-- Generator: Adobe Illustrator 26.0.1, SVG Export Plug-In . SVG Version: 6.00 Build 0)  -->
<svg version="1.1" id="Слой_1" xmlns="http://www.w3.org/2000/svg" xmlns:xlink="http://www.w3.org/1999/xlink" x="0px" y="0px"
	 viewBox="0 0 128 128" style="enable-background:new 0 0 128 128;" xml:space="preserve">
<style type="text/css">
	.st0{fill:#3C3B6F;}
	.st1{fill:#FFFFFF;}
	.st2{fill:#C51D26;}
</style>
<g>
	<path class="st1" d="M56.19,13.09h15.85v53.77h7.44v14.71h-7.44v17.15H56.48V81.57H20.03V66.86L56.19,13.09z M56.48,66.86V38.87
		L37.4,66.86H56.48z"/>
	<path class="st2" d="M99.06,82.53c2.46,0,4.56,0.86,6.3,2.58c1.74,1.72,2.61,3.81,2.61,6.27s-0.87,4.56-2.61,6.3
		c-1.74,1.74-3.84,2.61-6.3,2.61s-4.56-0.87-6.3-2.61c-1.74-1.74-2.61-3.84-2.61-6.3s0.87-4.55,2.61-6.27
		C94.5,83.39,96.6,82.53,99.06,82.53z"/>
</g>
</svg>
