<?xml version="1.0" encoding="utf-8"?>
<!-- Generator: Adobe Illustrator 26.0.1, SVG Export Plug-In . SVG Version: 6.00 Build 0)  -->
<svg version="1.1" id="Слой_1" xmlns="http://www.w3.org/2000/svg" xmlns:xlink="http://www.w3.org/1999/xlink" x="0px" y="0px"
	 viewBox="0 0 89.3 88.6" style="enable-background:new 0 0 89.3 88.6;" xml:space="preserve">
<style type="text/css">
	.st0{fill:#FFFFFF;}
	.st1{fill:#C51D26;}
</style>
<g>
	<path class="st0" d="M36.9,0.4h15.9v53.8h7.4v14.7h-7.4V86H37.1V68.9H0.7V54.2L36.9,0.4z M37.1,54.2v-28l-19.1,28H37.1z"/>
	<path class="st1" d="M79.7,69.9c2.5,0,4.6,0.9,6.3,2.6c1.7,1.7,2.6,3.8,2.6,6.3S87.8,83.3,86,85c-1.7,1.7-3.8,2.6-6.3,2.6
		s-4.6-0.9-6.3-2.6c-1.7-1.7-2.6-3.8-2.6-6.3s0.9-4.6,2.6-6.3C75.2,70.7,77.3,69.9,79.7,69.9z"/>
</g>
</svg>
