<?xml version="1.0" encoding="utf-8"?>
<!-- Generator: Adobe Illustrator 26.0.1, SVG Export Plug-In . SVG Version: 6.00 Build 0)  -->
<svg version="1.1" id="Слой_1" xmlns="http://www.w3.org/2000/svg" xmlns:xlink="http://www.w3.org/1999/xlink" x="0px" y="0px"
	 viewBox="0 0 128 128" style="enable-background:new 0 0 128 128;" xml:space="preserve">
<style type="text/css">
	.st0{fill:#3C3B6F;}
	.st1{fill:#FFFFFF;}
	.st2{fill:#C51D26;}
</style>
<g>
	<path class="st1" d="M49.28,13.89H88.4V28.6H61.14l-3.41,15.16c0.95-0.26,1.87-0.46,2.78-0.6c0.91-0.13,1.78-0.2,2.61-0.2
		c7.57,0,13.86,2.58,18.88,7.75c5.02,5.17,7.52,11.78,7.52,19.84c0,8.14-2.77,15-8.32,20.58c-5.55,5.58-12.29,8.37-20.24,8.37
		c-7.12,0-13.23-2.03-18.34-6.08s-8.46-9.6-10.05-16.64h16.69c1.29,2.61,2.98,4.59,5.08,5.93c2.1,1.34,4.42,2.02,6.96,2.02
		c3.52,0,6.51-1.27,8.97-3.8c2.46-2.54,3.69-5.79,3.69-9.77c0-3.86-1.15-7.03-3.44-9.51c-2.29-2.48-5.06-3.72-8.32-3.72
		c-1.74,0-3.45,0.44-5.14,1.31s-3.34,2.18-4.97,3.92l-12.95-2.9L49.28,13.89z"/>
	<path class="st2" d="M111.28,81.23c2.46,0,4.56,0.86,6.3,2.58c1.74,1.72,2.61,3.81,2.61,6.27c0,2.46-0.87,4.56-2.61,6.3
		c-1.74,1.74-3.84,2.61-6.3,2.61s-4.56-0.87-6.3-2.61c-1.74-1.74-2.61-3.84-2.61-6.3c0-2.46,0.87-4.55,2.61-6.27
		C106.72,82.09,108.82,81.23,111.28,81.23z"/>
</g>
</svg>
