<?xml version="1.0" encoding="utf-8"?>
<!-- Generator: Adobe Illustrator 26.0.1, SVG Export Plug-In . SVG Version: 6.00 Build 0)  -->
<svg version="1.1" id="Слой_1" xmlns="http://www.w3.org/2000/svg" xmlns:xlink="http://www.w3.org/1999/xlink" x="0px" y="0px"
	 viewBox="0 0 89.3 88.6" style="enable-background:new 0 0 89.3 88.6;" xml:space="preserve">
<style type="text/css">
	.st0{fill:#FFFFFF;}
	.st1{fill:#C51D26;}
</style>
<g>
	<path class="st0" d="M17.5,2.3h39.1V17H29.4L26,32.2c1-0.3,1.9-0.5,2.8-0.6c0.9-0.1,1.8-0.2,2.6-0.2c7.6,0,13.9,2.6,18.9,7.7
		c5,5.2,7.5,11.8,7.5,19.8c0,8.1-2.8,15-8.3,20.6s-12.3,8.4-20.2,8.4c-7.1,0-13.2-2-18.3-6.1s-8.5-9.6-10-16.6h16.7
		c1.3,2.6,3,4.6,5.1,5.9c2.1,1.3,4.4,2,7,2c3.5,0,6.5-1.3,9-3.8c2.5-2.5,3.7-5.8,3.7-9.8c0-3.9-1.2-7-3.4-9.5
		c-2.3-2.5-5.1-3.7-8.3-3.7c-1.7,0-3.5,0.4-5.1,1.3s-3.3,2.2-5,3.9l-13-2.9L17.5,2.3z"/>
	<path class="st1" d="M79.5,69.7c2.5,0,4.6,0.9,6.3,2.6c1.7,1.7,2.6,3.8,2.6,6.3s-0.9,4.6-2.6,6.3c-1.7,1.7-3.8,2.6-6.3,2.6
		s-4.6-0.9-6.3-2.6c-1.7-1.7-2.6-3.8-2.6-6.3c0-2.5,0.9-4.6,2.6-6.3C75,70.5,77.1,69.7,79.5,69.7z"/>
</g>
</svg>
