<?xml version="1.0" encoding="utf-8"?>
<!-- Generator: Adobe Illustrator 26.0.1, SVG Export Plug-In . SVG Version: 6.00 Build 0)  -->
<svg version="1.1" id="Слой_1" xmlns="http://www.w3.org/2000/svg" xmlns:xlink="http://www.w3.org/1999/xlink" x="0px" y="0px"
	 viewBox="0 0 128 128" style="enable-background:new 0 0 128 128;" xml:space="preserve">
<style type="text/css">
	.st0{fill:#3C3B6F;}
</style>
<path class="st0" d="M113.37,99.21c-19.48,26.96-57.27,33.04-84.23,13.55S-3.9,55.5,15.58,28.54C35.07,1.58,72.85-4.51,99.81,14.98
	S132.85,72.25,113.37,99.21z M64.47,6.43C32.8,6.43,7.03,32.2,7.03,63.87s25.77,57.44,57.44,57.44s57.44-25.77,57.44-57.44
	S96.15,6.43,64.47,6.43z"/>
<rect x="50.28" y="50.28" transform="matrix(4.486373e-11 -1 1 4.486373e-11 12.1956 115.8044)" class="st0" width="27.45" height="3.06"/>
<rect x="62.47" y="62.47" class="st0" width="41.83" height="3.06"/>
</svg>
