<?xml version="1.0" encoding="utf-8"?>
<!-- Generator: Adobe Illustrator 26.0.1, SVG Export Plug-In . SVG Version: 6.00 Build 0)  -->
<svg version="1.1" id="Слой_1" xmlns="http://www.w3.org/2000/svg" xmlns:xlink="http://www.w3.org/1999/xlink" x="0px" y="0px"
	 viewBox="0 0 128 128" style="enable-background:new 0 0 128 128;" xml:space="preserve">
<style type="text/css">
	.st0{fill:#3C3B6F;}
	.st1{fill:#FFFFFF;}
	.st2{fill:#C51D26;}
</style>
<path class="st1" d="M17.38,37.52v0.19h-0.07l0.07,0.05v58.45h93.31V37.52H17.38z M108.28,39.93v52.14L74.22,65.44l33.28-25.51
	H108.28z M70.13,65.54c-3.58,2.57-8.38,2.56-11.94,0.02L24.51,40.12h78.77L70.13,65.54z M56.76,67.5c2.2,1.58,4.78,2.37,7.37,2.37
	c2.6,0,5.2-0.8,7.43-2.4l0.67-0.52l34.33,26.83H21.76l34.62-26.59L56.76,67.5z M54.38,65.7L19.79,92.26V39.93h0.46L54.38,65.7z"/>
</svg>
