<?xml version="1.0" encoding="utf-8"?>
<!-- Generator: Adobe Illustrator 26.0.1, SVG Export Plug-In . SVG Version: 6.00 Build 0)  -->
<svg version="1.1" id="Слой_1" xmlns="http://www.w3.org/2000/svg" xmlns:xlink="http://www.w3.org/1999/xlink" x="0px" y="0px"
	 viewBox="0 0 16 16" style="enable-background:new 0 0 16 16;" xml:space="preserve">
<style type="text/css">
	.st0{fill:none;}
	.st1{fill:#3C3B6F;}
	.st2{fill:#C51D26;}
</style>
<g>
	<g>
		<path class="st0" d="M5.87,14.86c-0.02-0.03-0.05-0.05-0.08-0.06c-0.03-0.01-0.07-0.02-0.1-0.02c-0.04,0-0.07,0.01-0.1,0.02
			c-0.03,0.01-0.06,0.03-0.08,0.06c-0.02,0.03-0.04,0.06-0.05,0.1c-0.01,0.04-0.02,0.08-0.02,0.14c0,0.05,0.01,0.1,0.02,0.14
			c0.01,0.04,0.03,0.07,0.05,0.1c0.02,0.03,0.05,0.05,0.08,0.06c0.03,0.01,0.07,0.02,0.1,0.02c0.04,0,0.07-0.01,0.1-0.02
			c0.03-0.01,0.06-0.03,0.08-0.06c0.02-0.03,0.04-0.06,0.05-0.1c0.01-0.04,0.02-0.08,0.02-0.14c0-0.05-0.01-0.1-0.02-0.14
			C5.91,14.92,5.89,14.88,5.87,14.86z"/>
		<path class="st0" d="M12.44,14.99c0.01-0.02,0.02-0.04,0.02-0.07c0-0.02,0-0.04-0.01-0.06c-0.01-0.02-0.03-0.03-0.05-0.04
			c-0.01-0.01-0.03-0.01-0.06-0.02c-0.02,0-0.05,0-0.08,0h-0.11v0.26h0.08c0.04,0,0.07,0,0.09,0c0.02,0,0.05-0.01,0.06-0.01
			C12.41,15.03,12.43,15.01,12.44,14.99z"/>
		<path class="st0" d="M3.94,14.86c-0.02-0.03-0.05-0.05-0.08-0.06c-0.03-0.01-0.07-0.02-0.1-0.02c-0.04,0-0.07,0.01-0.1,0.02
			c-0.03,0.01-0.06,0.03-0.08,0.06c-0.02,0.03-0.04,0.06-0.05,0.1c-0.01,0.04-0.02,0.08-0.02,0.14c0,0.05,0.01,0.1,0.02,0.14
			c0.01,0.04,0.03,0.07,0.05,0.1c0.02,0.03,0.05,0.05,0.08,0.06c0.03,0.01,0.07,0.02,0.1,0.02c0.04,0,0.07-0.01,0.1-0.02
			c0.03-0.01,0.06-0.03,0.08-0.06c0.02-0.03,0.04-0.06,0.05-0.1c0.01-0.04,0.02-0.08,0.02-0.14c0-0.05-0.01-0.1-0.02-0.14
			C3.98,14.92,3.96,14.88,3.94,14.86z"/>
		<path class="st0" d="M7.13,14.86c-0.02-0.03-0.05-0.05-0.08-0.06c-0.03-0.01-0.07-0.02-0.1-0.02c-0.04,0-0.07,0.01-0.1,0.02
			c-0.03,0.01-0.06,0.03-0.08,0.06c-0.02,0.03-0.04,0.06-0.05,0.1c-0.01,0.04-0.02,0.08-0.02,0.14c0,0.05,0.01,0.1,0.02,0.14
			c0.01,0.04,0.03,0.07,0.05,0.1c0.02,0.03,0.05,0.05,0.08,0.06c0.03,0.01,0.07,0.02,0.1,0.02c0.04,0,0.07-0.01,0.1-0.02
			c0.03-0.01,0.06-0.03,0.08-0.06c0.02-0.03,0.04-0.06,0.05-0.1c0.01-0.04,0.02-0.08,0.02-0.14c0-0.05-0.01-0.1-0.02-0.14
			C7.17,14.91,7.15,14.88,7.13,14.86z"/>
		<path class="st1" d="M2.38,15.09c-0.03-0.02-0.05-0.03-0.09-0.04c-0.03-0.01-0.07-0.02-0.1-0.03c-0.02,0-0.04-0.01-0.07-0.02
			C2.11,15,2.09,14.99,2.07,14.98c-0.02-0.01-0.03-0.02-0.04-0.03c-0.01-0.01-0.01-0.03-0.01-0.05c0-0.04,0.01-0.07,0.04-0.08
			c0.03-0.02,0.07-0.03,0.12-0.03c0.04,0,0.07,0,0.12,0.01c0.04,0.01,0.08,0.02,0.13,0.04V14.7c-0.03-0.01-0.07-0.03-0.12-0.03
			c-0.05-0.01-0.09-0.01-0.14-0.01c-0.05,0-0.09,0.01-0.12,0.02c-0.04,0.01-0.07,0.03-0.1,0.05c-0.03,0.02-0.05,0.05-0.06,0.08
			c-0.02,0.03-0.02,0.07-0.02,0.12c0,0.04,0.01,0.08,0.02,0.1c0.01,0.03,0.03,0.05,0.06,0.07c0.02,0.02,0.05,0.03,0.08,0.04
			c0.03,0.01,0.06,0.02,0.1,0.03c0.03,0.01,0.05,0.01,0.07,0.02c0.02,0.01,0.04,0.01,0.06,0.02c0.02,0.01,0.03,0.02,0.04,0.03
			c0.01,0.01,0.02,0.03,0.02,0.05c0,0.02-0.01,0.05-0.02,0.06c-0.01,0.02-0.03,0.03-0.05,0.04c-0.02,0.01-0.04,0.02-0.06,0.02
			c-0.02,0-0.05,0.01-0.07,0.01c-0.04,0-0.08,0-0.12-0.01c-0.04-0.01-0.08-0.02-0.12-0.04v0.13c0.03,0.02,0.07,0.03,0.11,0.04
			c0.05,0.01,0.09,0.01,0.14,0.01c0.05,0,0.1-0.01,0.15-0.02c0.04-0.01,0.08-0.03,0.11-0.05c0.03-0.02,0.06-0.05,0.07-0.08
			c0.02-0.03,0.03-0.07,0.03-0.12c0-0.04-0.01-0.08-0.02-0.11C2.43,15.13,2.41,15.11,2.38,15.09z"/>
		<polygon class="st1" points="2.8,15.15 3.14,15.15 3.14,15.02 2.8,15.02 2.8,14.79 3.2,14.79 3.2,14.66 2.64,14.66 2.64,15.52 
			3.22,15.52 3.22,15.39 2.8,15.39 		"/>
		<path class="st1" d="M4.94,15.15c0,0.06-0.01,0.11-0.02,0.14c-0.02,0.04-0.04,0.07-0.07,0.08C4.82,15.4,4.78,15.4,4.74,15.4
			c-0.04,0-0.08-0.01-0.11-0.03c-0.03-0.02-0.05-0.04-0.07-0.08c-0.01-0.03-0.02-0.08-0.02-0.14v-0.49H4.38v0.51
			c0,0.04,0,0.07,0.01,0.1c0,0.03,0.01,0.06,0.02,0.08c0.01,0.03,0.03,0.06,0.05,0.08c0.02,0.02,0.04,0.04,0.07,0.06
			c0.03,0.02,0.06,0.03,0.09,0.04c0.04,0.01,0.08,0.01,0.12,0.01c0.04,0,0.09,0,0.12-0.01c0.04-0.01,0.07-0.02,0.1-0.04
			c0.03-0.02,0.05-0.04,0.07-0.06c0.02-0.02,0.03-0.05,0.05-0.08c0.01-0.02,0.02-0.05,0.02-0.08c0-0.03,0.01-0.06,0.01-0.1v-0.51
			H4.94V15.15z"/>
		<path class="st1" d="M5.99,14.77c-0.04-0.04-0.08-0.07-0.13-0.09c-0.05-0.02-0.11-0.03-0.18-0.03c-0.07,0-0.13,0.01-0.18,0.03
			c-0.05,0.02-0.1,0.05-0.13,0.09c-0.04,0.04-0.06,0.09-0.08,0.14c-0.02,0.05-0.03,0.11-0.03,0.18c0,0.07,0.01,0.13,0.03,0.18
			c0.02,0.05,0.05,0.1,0.08,0.14c0.04,0.04,0.08,0.07,0.13,0.09c0.05,0.02,0.11,0.03,0.18,0.03c0.07,0,0.13-0.01,0.18-0.03
			c0.05-0.02,0.1-0.05,0.13-0.09c0.04-0.04,0.06-0.09,0.08-0.14c0.02-0.05,0.03-0.11,0.03-0.18c0-0.07-0.01-0.13-0.03-0.18
			C6.05,14.86,6.03,14.81,5.99,14.77z M5.92,15.23c-0.01,0.04-0.03,0.07-0.05,0.1c-0.02,0.03-0.05,0.05-0.08,0.06
			c-0.03,0.01-0.07,0.02-0.1,0.02c-0.04,0-0.07-0.01-0.1-0.02c-0.03-0.01-0.06-0.03-0.08-0.06c-0.02-0.03-0.04-0.06-0.05-0.1
			c-0.01-0.04-0.02-0.08-0.02-0.14c0-0.05,0.01-0.1,0.02-0.14c0.01-0.04,0.03-0.07,0.05-0.1c0.02-0.03,0.05-0.05,0.08-0.06
			c0.03-0.01,0.07-0.02,0.1-0.02c0.04,0,0.07,0.01,0.1,0.02c0.03,0.01,0.06,0.03,0.08,0.06c0.02,0.03,0.04,0.06,0.05,0.1
			c0.01,0.04,0.02,0.08,0.02,0.14C5.94,15.14,5.93,15.19,5.92,15.23z"/>
		<path class="st1" d="M4.15,15.27c0.02-0.05,0.03-0.11,0.03-0.18c0-0.07-0.01-0.13-0.03-0.18c-0.02-0.05-0.05-0.1-0.08-0.14
			c-0.04-0.04-0.08-0.07-0.13-0.09c-0.05-0.02-0.11-0.03-0.18-0.03c-0.07,0-0.13,0.01-0.18,0.03c-0.05,0.02-0.1,0.05-0.13,0.09
			c-0.04,0.04-0.06,0.09-0.08,0.14c-0.02,0.05-0.03,0.11-0.03,0.18c0,0.07,0.01,0.13,0.03,0.18c0.02,0.05,0.05,0.1,0.08,0.14
			c0.04,0.04,0.08,0.07,0.13,0.09c0.05,0.02,0.11,0.03,0.18,0.03l0.53,0L4.1,15.36C4.12,15.34,4.14,15.31,4.15,15.27z M3.99,15.23
			c-0.01,0.04-0.03,0.07-0.05,0.1c-0.02,0.03-0.05,0.05-0.08,0.06c-0.03,0.01-0.07,0.02-0.1,0.02c-0.04,0-0.07-0.01-0.1-0.02
			c-0.03-0.01-0.06-0.03-0.08-0.06c-0.02-0.03-0.04-0.06-0.05-0.1c-0.01-0.04-0.02-0.08-0.02-0.14c0-0.05,0.01-0.1,0.02-0.14
			c0.01-0.04,0.03-0.07,0.05-0.1c0.02-0.03,0.05-0.05,0.08-0.06c0.03-0.01,0.07-0.02,0.1-0.02c0.04,0,0.07,0.01,0.1,0.02
			c0.03,0.01,0.06,0.03,0.08,0.06c0.02,0.03,0.04,0.06,0.05,0.1c0.01,0.04,0.02,0.08,0.02,0.14C4.01,15.14,4.01,15.19,3.99,15.23z"
			/>
		<rect x="6.24" y="14.66" class="st1" width="0.16" height="0.86"/>
		<rect x="7.5" y="15.35" class="st1" width="0.17" height="0.17"/>
		<path class="st1" d="M8.18,15.09c-0.02,0.06-0.04,0.1-0.04,0.12c-0.01,0.02-0.02,0.05-0.03,0.1h0c-0.02-0.05-0.03-0.08-0.03-0.1
			c-0.01-0.02-0.02-0.06-0.04-0.12l-0.16-0.43H7.7l0.34,0.86h0.14l0.34-0.86H8.34L8.18,15.09z"/>
		<polygon class="st1" points="8.78,15.15 9.12,15.15 9.12,15.02 8.78,15.02 8.78,14.79 9.18,14.79 9.18,14.66 8.62,14.66 
			8.62,15.52 9.2,15.52 9.2,15.39 8.78,15.39 		"/>
		<path class="st1" d="M9.96,15.05c0,0.05,0,0.13,0.01,0.24h0c-0.04-0.07-0.09-0.15-0.15-0.23l-0.28-0.4H9.37v0.86h0.16v-0.39
			c0-0.06,0-0.14-0.01-0.24h0c0.05,0.09,0.1,0.17,0.15,0.24l0.28,0.39h0.16v-0.86H9.96V15.05z"/>
		<polygon class="st1" points="10.24,14.79 10.52,14.79 10.52,15.52 10.67,15.52 10.67,14.79 10.95,14.79 10.95,14.66 10.24,14.66 
					"/>
		<path class="st1" d="M11.63,15.15c0,0.06-0.01,0.11-0.02,0.14c-0.02,0.04-0.04,0.07-0.07,0.08s-0.07,0.03-0.11,0.03
			c-0.04,0-0.08-0.01-0.11-0.03s-0.05-0.04-0.07-0.08c-0.01-0.03-0.02-0.08-0.02-0.14v-0.49h-0.16v0.51c0,0.04,0,0.07,0.01,0.1
			c0,0.03,0.01,0.06,0.02,0.08c0.01,0.03,0.03,0.06,0.05,0.08c0.02,0.02,0.04,0.04,0.07,0.06c0.03,0.02,0.06,0.03,0.09,0.04
			c0.04,0.01,0.08,0.01,0.12,0.01c0.04,0,0.09,0,0.12-0.01c0.04-0.01,0.07-0.02,0.1-0.04c0.03-0.02,0.05-0.04,0.07-0.06
			c0.02-0.02,0.03-0.05,0.05-0.08c0.01-0.02,0.02-0.05,0.02-0.08c0-0.03,0.01-0.06,0.01-0.1v-0.51h-0.16V15.15z"/>
		<path class="st1" d="M12.42,15.17c0.07-0.02,0.12-0.05,0.15-0.09c0.03-0.04,0.05-0.09,0.05-0.15c0-0.06-0.01-0.1-0.04-0.14
			c-0.03-0.04-0.07-0.07-0.12-0.09c-0.03-0.01-0.06-0.02-0.1-0.02c-0.04,0-0.08-0.01-0.12-0.01h-0.26v0.86h0.16v-0.33h0.11
			l0.23,0.33h0.19L12.42,15.17L12.42,15.17z M12.32,15.05c-0.02,0-0.06,0-0.09,0h-0.08v-0.26h0.11c0.03,0,0.06,0,0.08,0
			c0.02,0,0.04,0.01,0.06,0.02c0.02,0.01,0.04,0.02,0.05,0.04c0.01,0.02,0.01,0.04,0.01,0.06c0,0.03-0.01,0.05-0.02,0.07
			c-0.01,0.02-0.03,0.04-0.07,0.05C12.36,15.04,12.34,15.05,12.32,15.05z"/>
		<polygon class="st1" points="12.97,15.15 13.31,15.15 13.31,15.02 12.97,15.02 12.97,14.79 13.37,14.79 13.37,14.66 12.81,14.66 
			12.81,15.52 13.39,15.52 13.39,15.39 12.97,15.39 		"/>
		<path class="st1" d="M14.12,15.16c-0.01-0.03-0.04-0.05-0.06-0.07c-0.03-0.02-0.05-0.03-0.09-0.04c-0.03-0.01-0.07-0.02-0.1-0.03
			c-0.02,0-0.04-0.01-0.07-0.02c-0.02-0.01-0.04-0.01-0.05-0.02c-0.02-0.01-0.03-0.02-0.04-0.03c-0.01-0.01-0.01-0.03-0.01-0.05
			c0-0.04,0.01-0.07,0.04-0.08c0.03-0.02,0.07-0.03,0.12-0.03c0.04,0,0.07,0,0.12,0.01c0.04,0.01,0.08,0.02,0.13,0.04V14.7
			c-0.03-0.01-0.07-0.03-0.12-0.03c-0.05-0.01-0.09-0.01-0.14-0.01c-0.05,0-0.09,0.01-0.12,0.02c-0.04,0.01-0.07,0.03-0.1,0.05
			c-0.03,0.02-0.05,0.05-0.06,0.08c-0.02,0.03-0.02,0.07-0.02,0.12c0,0.04,0.01,0.08,0.02,0.1c0.01,0.03,0.03,0.05,0.06,0.07
			c0.02,0.02,0.05,0.03,0.08,0.04c0.03,0.01,0.06,0.02,0.1,0.03c0.03,0.01,0.05,0.01,0.07,0.02c0.02,0.01,0.04,0.01,0.06,0.02
			c0.02,0.01,0.03,0.02,0.04,0.03c0.01,0.01,0.02,0.03,0.02,0.05c0,0.02-0.01,0.05-0.02,0.06c-0.01,0.02-0.03,0.03-0.05,0.04
			c-0.02,0.01-0.04,0.02-0.06,0.02c-0.02,0-0.05,0.01-0.07,0.01c-0.04,0-0.08,0-0.12-0.01c-0.04-0.01-0.08-0.02-0.12-0.04v0.13
			c0.03,0.02,0.07,0.03,0.11,0.04c0.05,0.01,0.09,0.01,0.14,0.01c0.05,0,0.1-0.01,0.15-0.02c0.04-0.01,0.08-0.03,0.11-0.05
			c0.03-0.02,0.06-0.05,0.07-0.08c0.02-0.03,0.03-0.07,0.03-0.12C14.14,15.22,14.13,15.19,14.12,15.16z"/>
		<path class="st1" d="M7.21,14.73c-0.03-0.02-0.05-0.04-0.08-0.05c-0.05-0.02-0.11-0.03-0.18-0.03c-0.07,0-0.13,0.01-0.18,0.03
			c-0.05,0.02-0.1,0.05-0.13,0.09c-0.04,0.04-0.06,0.09-0.08,0.14c-0.02,0.05-0.03,0.11-0.03,0.18c0,0.07,0.01,0.13,0.03,0.18
			c0.02,0.05,0.05,0.1,0.08,0.14c0.04,0.04,0.08,0.07,0.13,0.09c0.05,0.02,0.11,0.03,0.18,0.03c0.07,0,0.13-0.01,0.18-0.03
			c0.03-0.01,0.06-0.03,0.08-0.05v0.07h0.16v-0.86H7.21V14.73z M7.18,15.23c-0.01,0.04-0.03,0.07-0.05,0.1
			c-0.02,0.03-0.05,0.05-0.08,0.06c-0.03,0.01-0.07,0.02-0.1,0.02c-0.04,0-0.07-0.01-0.1-0.02c-0.03-0.01-0.06-0.03-0.08-0.06
			c-0.02-0.03-0.04-0.06-0.05-0.1c-0.01-0.04-0.02-0.08-0.02-0.14c0-0.05,0.01-0.1,0.02-0.14c0.01-0.04,0.03-0.07,0.05-0.1
			c0.02-0.03,0.05-0.05,0.08-0.06c0.03-0.01,0.07-0.02,0.1-0.02c0.04,0,0.07,0.01,0.1,0.02c0.03,0.01,0.06,0.03,0.08,0.06
			c0.02,0.03,0.04,0.06,0.05,0.1c0.01,0.04,0.02,0.08,0.02,0.14C7.2,15.14,7.2,15.19,7.18,15.23z"/>
	</g>
	<polygon class="st1" points="10.96,1.9 11.06,2.2 11.37,2.2 11.12,2.38 11.22,2.68 10.96,2.5 10.71,2.68 10.81,2.38 10.55,2.2 
		10.87,2.2 	"/>
	<polygon class="st1" points="9.52,1.9 9.62,2.2 9.93,2.2 9.68,2.38 9.78,2.68 9.52,2.5 9.27,2.68 9.36,2.38 9.11,2.2 9.42,2.2 	"/>
	<polygon class="st1" points="9.52,0.46 9.62,0.76 9.93,0.76 9.68,0.95 9.78,1.25 9.52,1.06 9.27,1.25 9.36,0.95 9.11,0.76 
		9.42,0.76 	"/>
	<polygon class="st1" points="10.96,0.47 11.06,0.76 11.37,0.76 11.12,0.95 11.22,1.25 10.96,1.06 10.71,1.25 10.81,0.95 
		10.55,0.76 10.87,0.76 	"/>
	<polygon class="st1" points="8.08,3.33 8.18,3.63 8.49,3.63 8.24,3.81 8.34,4.11 8.08,3.93 7.83,4.11 7.93,3.81 7.67,3.63 
		7.99,3.63 	"/>
	<polygon class="st1" points="8.08,1.9 8.18,2.2 8.49,2.2 8.24,2.38 8.34,2.68 8.08,2.5 7.83,2.68 7.93,2.38 7.67,2.2 7.99,2.2 	"/>
	<polygon class="st1" points="8.08,0.46 8.18,0.76 8.49,0.76 8.24,0.95 8.34,1.25 8.08,1.06 7.83,1.25 7.93,0.95 7.67,0.76 
		7.99,0.76 	"/>
	<polygon class="st1" points="6.64,4.76 6.74,5.06 7.05,5.06 6.8,5.25 6.9,5.54 6.64,5.36 6.39,5.54 6.48,5.25 6.23,5.06 6.54,5.06 
			"/>
	<polygon class="st1" points="6.64,3.33 6.74,3.63 7.05,3.63 6.8,3.82 6.9,4.11 6.64,3.93 6.39,4.11 6.48,3.82 6.23,3.63 6.54,3.63 
			"/>
	<polygon class="st1" points="6.64,1.9 6.74,2.2 7.06,2.2 6.8,2.39 6.9,2.68 6.64,2.5 6.39,2.68 6.49,2.39 6.23,2.2 6.55,2.2 	"/>
	<polygon class="st1" points="6.64,0.46 6.74,0.76 7.05,0.76 6.8,0.95 6.9,1.25 6.64,1.06 6.39,1.25 6.49,0.95 6.23,0.76 6.55,0.76 
			"/>
	<polygon class="st1" points="5.2,1.9 5.3,2.2 5.61,2.2 5.36,2.38 5.46,2.68 5.2,2.5 4.95,2.68 5.05,2.38 4.79,2.2 5.11,2.2 	"/>
	<polygon class="st1" points="5.2,0.46 5.3,0.76 5.61,0.76 5.36,0.95 5.46,1.25 5.2,1.06 4.95,1.25 5.05,0.95 4.79,0.76 5.11,0.76 	
		"/>
	<polygon class="st1" points="5.2,6.2 5.3,6.5 5.61,6.5 5.36,6.69 5.46,6.99 5.2,6.8 4.95,6.99 5.05,6.69 4.79,6.5 5.11,6.5 	"/>
	<polygon class="st1" points="5.2,4.76 5.3,5.06 5.61,5.06 5.36,5.25 5.46,5.54 5.2,5.36 4.95,5.54 5.05,5.25 4.79,5.06 5.11,5.06 	
		"/>
	<polygon class="st1" points="5.2,3.33 5.3,3.63 5.61,3.63 5.36,3.82 5.46,4.12 5.2,3.93 4.95,4.12 5.05,3.82 4.79,3.63 5.11,3.63 	
		"/>
	<polygon class="st1" points="9.52,3.33 9.62,3.63 9.93,3.63 9.68,3.81 9.78,4.11 9.52,3.93 9.27,4.11 9.36,3.81 9.11,3.63 
		9.42,3.63 	"/>
	<polygon class="st1" points="8.08,4.76 8.18,5.06 8.49,5.06 8.24,5.25 8.34,5.54 8.08,5.36 7.83,5.54 7.92,5.25 7.67,5.06 
		7.98,5.06 	"/>
	<polygon class="st1" points="6.64,6.2 6.74,6.5 7.05,6.5 6.8,6.69 6.9,6.99 6.64,6.8 6.39,6.99 6.49,6.69 6.23,6.5 6.55,6.5 	"/>
	<polygon class="st1" points="5.2,7.64 5.3,7.94 5.61,7.94 5.36,8.12 5.46,8.42 5.2,8.24 4.95,8.42 5.05,8.12 4.79,7.94 5.11,7.94 	
		"/>
	<polygon class="st2" points="6.9,9.12 6.69,9.12 6.91,8.76 6.68,8.76 7.02,8.21 7.1,8.08 6.98,7.89 6.64,7.34 6.3,7.89 5.97,8.43 
		6.19,8.43 6.19,9.54 6.26,9.64 6.6,10.19 6.37,10.19 6.59,10.55 6.38,10.55 6.59,10.89 6.19,10.89 6.19,11.26 4.53,14.11 
		4.53,14.44 6.18,14.44 6.18,14.11 7.09,11.26 7.09,9.46 6.69,9.46 	"/>
	<polygon class="st2" points="5.45,10.55 5.24,10.55 5.47,10.19 5.25,10.19 5.58,9.64 5.66,9.52 5.54,9.32 5.2,8.77 4.86,9.32 
		4.53,9.87 4.75,9.87 4.75,11.26 1.88,14.11 1.88,14.44 3.53,14.44 3.53,14.11 5.65,11.26 5.65,10.89 5.24,10.89 	"/>
	<polygon class="st2" points="8.34,7.67 8.12,7.67 8.35,7.31 8.12,7.31 8.46,6.76 8.54,6.64 8.42,6.45 8.08,5.9 7.74,6.45 7.41,7 
		7.63,7 7.63,8.11 7.69,8.21 8.03,8.76 7.81,8.76 8.04,9.12 7.82,9.12 8.04,9.46 7.63,9.46 7.63,11.26 7.18,14.11 7.18,14.44 
		8.83,14.44 8.83,14.11 8.53,11.26 8.53,8.01 8.12,8.01 	"/>
	<polygon class="st2" points="9.78,6.25 9.57,6.25 9.79,5.89 9.57,5.89 9.9,5.34 9.98,5.21 9.86,5.01 9.52,4.46 9.18,5.01 
		8.85,5.56 9.07,5.56 9.07,6.66 9.14,6.76 9.47,7.31 9.25,7.31 9.47,7.67 9.26,7.67 9.47,8.01 9.07,8.01 9.07,11.26 9.83,14.11 
		9.83,14.44 11.48,14.44 11.48,14.11 9.97,11.26 9.97,6.59 9.57,6.59 	"/>
	<polygon class="st2" points="11.41,11.26 11.41,4.13 11.64,4.13 11.3,3.58 10.96,3.03 10.62,3.58 10.29,4.13 10.51,4.13 
		10.51,5.24 10.58,5.34 10.92,5.89 10.69,5.89 10.92,6.25 10.7,6.25 10.92,6.59 10.51,6.59 10.51,11.26 12.48,14.11 12.48,14.44 
		14.13,14.44 14.13,14.11 	"/>
</g>
<g>
</g>
<g>
</g>
<g>
</g>
<g>
</g>
<g>
</g>
<g>
</g>
</svg>
