<?xml version="1.0" encoding="utf-8"?>
<!-- Generator: Adobe Illustrator 26.0.1, SVG Export Plug-In . SVG Version: 6.00 Build 0)  -->
<svg version="1.1" id="Слой_1" xmlns="http://www.w3.org/2000/svg" xmlns:xlink="http://www.w3.org/1999/xlink" x="0px" y="0px"
	 viewBox="0 0 285.8 58.4" style="enable-background:new 0 0 285.8 58.4;" xml:space="preserve">
<style type="text/css">
	.st0{fill:#C51D26;}
</style>
<path class="st0" d="M284.6,27.8c-1.8-3.5-6-6.5-13.2-9.4c-11.6-4.7-25.5-8.6-42.4-11.8c-18.7-3.6-39.5-5.5-65.5-6.1
	c-34.4-0.8-64.6,1-92.4,5.6c-7.8,1.3-20.8,4.4-27.9,6.1c-11.7,2.9-18.1,5.7-18.1,5.7l0.7-0.1c0.3,0,2.5-0.5,5.9-1.2
	c6.4-1.4,16.1-3.4,21.7-4.6c22.8-4.6,45.9-7.4,68.7-8.5c16.6-0.8,34.2-0.7,53.9,0.1c22.1,0.9,41.2,3.2,58.4,7
	c11.7,2.5,26.6,6.2,38.7,12c5.7,2.7,8.8,6,8.6,9.3c-0.1,3.6-4.1,7.1-11.2,9.8c-9.5,3.6-20.9,6.3-36.9,8.8
	c-24.6,3.8-52.4,5.7-85.1,5.6c-22.2-0.1-44.7-1-66.5-1.9c-19.2-0.8-36-2.3-51.3-4.6c-8.4-1.3-15.8-2.5-21.9-5.1
	c-2.7-1.2-4.3-2.4-4.7-3.8c-0.3-0.9,0-1.8,0.7-2.9c2.8-4,7.8-7.4,15.1-10.1c11.4-4.2,24.3-7.1,40.1-10.1c24.8-4.7,52.2-7.6,81.3-8.4
	c23.1-0.7,43.4-0.3,62.1,1.2c4.2,0.3,8.4,0.8,12.5,1.2c1.9,0.2,3.8,0.4,5.7,0.6l0.9,0.1c0,0-12.6-2.7-18.1-3.3
	c-9.3-1-23.4-2.1-37.2-2.3c-30.9-0.3-58.5,1.3-84.5,4.8c-23,3.1-42.1,7.1-58.6,12C12.4,26.9,4.9,31.2,1.4,36.7
	c-1,1.6-1.3,3.2-0.8,4.6c0.8,2.2,3.3,4.1,7.5,5.5c3.1,1.1,6.7,2,10.8,2.9c12.6,2.6,26,3.9,36.2,4.8c24.2,2,49.5,3.2,77.3,3.6
	c4.9,0.1,9.7,0.1,14.5,0.1c26.4,0,50.5-1.2,73.3-3.8c21.6-2.4,38.2-5.9,52.1-11c7.2-2.6,11.4-5.6,12.8-9.1
	C286,32.3,285.8,30.1,284.6,27.8z"/>
</svg>
