<?xml version="1.0" encoding="utf-8"?>
<!-- Generator: Adobe Illustrator 26.0.1, SVG Export Plug-In . SVG Version: 6.00 Build 0)  -->
<svg version="1.1" id="Слой_1" xmlns="http://www.w3.org/2000/svg" xmlns:xlink="http://www.w3.org/1999/xlink" x="0px" y="0px"
	 viewBox="0 0 282.5 75.3" style="enable-background:new 0 0 282.5 75.3;" xml:space="preserve">
<style type="text/css">
	.st0{fill:#C51D26;}
</style>
<path class="st0" d="M72.8,4.6c58.8-7.6,116.7-5.5,173,7.4c9.8,2.2,19.2,6,26.8,10.3c13.1,7.4,13,18.2,0.3,25.9
	c-6.1,3.7-13.5,7.1-21.4,9.1c-66,17.3-134.7,22.3-205.6,14.1c-9.3-1.1-18.6-3.5-26.8-6.5C0.5,58.1-4.8,45.7,4.8,33.9
	c8.8-10.9,24-17.2,43.3-19.6c13.4-1.6,27.3-2,41-2.7c1.7-0.1-26.3,3.6-39.1,5.2c-17.6,2.2-33.8,8.7-41.5,19
	c-7.1,9.7-2.8,19.4,11.6,25.4c11.7,4.8,27.3,6.6,41,7.7c61.3,4.9,121,0.9,178.5-12.9c8.3-2,16.5-4.6,23.6-7.8
	c17-7.8,17.1-19-0.2-26.5c-8.7-3.8-19-6.8-29.2-8.8c-62.2-12.5-124.9-13-187.9-2.3c-2.1,0.4-4.3,0.7-6.4,1.1
	C39.2,11.2,61.3,6.1,72.8,4.6z"/>
</svg>
