<?xml version="1.0" encoding="utf-8"?>
<!-- Generator: Adobe Illustrator 26.0.1, SVG Export Plug-In . SVG Version: 6.00 Build 0)  -->
<svg version="1.1" id="Слой_1" xmlns="http://www.w3.org/2000/svg" xmlns:xlink="http://www.w3.org/1999/xlink" x="0px" y="0px"
	 viewBox="0 0 282.9 80.6" style="enable-background:new 0 0 282.9 80.6;" xml:space="preserve">
<style type="text/css">
	.st0{fill:#C51D26;}
</style>
<path class="st0" d="M29.1,6.8C104.3-5.8,178,0.4,249.8,24.4c8.4,2.8,16.8,6.3,23.6,10.6c12.7,7.9,12.1,17.9-1,24.5
	c-5.7,2.8-12.3,5.1-19.1,6.7C190.9,80.7,126,84.2,58.6,76.3c-13.6-1.6-26.7-4.4-38.2-10C3.8,58.1-3.6,45.5,2.2,34.9
	c3.3-6,9.9-10.1,18.1-13.2c15.1-5.8,32.2-8.1,49.6-9.7c41-3.8,81.9-3,122.7,5.9c1.8,0.4,5,2.2,4.8,2.6c-3.1-0.2-29.6-8.3-85.7-8.1
	c-24.2,0.1-52.1,3.6-74.8,8.3C-1.6,28.6,0.4,46.5,12.9,57c10.4,8.8,25.9,12.9,41.5,15c57.7,7.7,114.1,6.1,169.1-3.4
	c11.6-2,23.1-4.5,34.2-7.4c9.7-2.6,19.9-5.6,20-13.7c0.1-7.8-9.6-12.6-18.9-16.3c-24.9-9.9-51.6-16.7-79.4-21.3
	c-50.8-8.6-101.2-9-150.8-1.4c-1.7,0.2-3.4,0.3-5.1,0.5C23.3,8.7,27,7.1,29.1,6.8z"/>
</svg>
