<?xml version="1.0" encoding="utf-8"?>
<!-- Generator: Adobe Illustrator 26.0.1, SVG Export Plug-In . SVG Version: 6.00 Build 0)  -->
<svg version="1.1" id="Слой_1" xmlns="http://www.w3.org/2000/svg" xmlns:xlink="http://www.w3.org/1999/xlink" x="0px" y="0px"
	 viewBox="0 0 277.9 57.9" style="enable-background:new 0 0 277.9 57.9;" xml:space="preserve">
<style type="text/css">
	.st0{fill:#C51D26;}
</style>
<path class="st0" d="M266.7,17c-3.4-1.8-7.2-3.4-11.2-4.8c-17.3-5.9-37-8.5-52.2-10.2c-41.3-4.6-86.5,1.4-86.5,1.4
	s19.4-0.6,23.2-0.7c56.7-1.8,105,5.4,126.1,18.7c4.2,2.7,6.2,5.7,6.1,8.8c-0.2,3.7-3.6,7.3-9.9,10.6c-6.6,3.4-15.3,5.8-26.5,7.2
	c-28.3,3.8-57.8,5.8-90.2,6.4c-39.1,0.6-77.1-1.3-112.8-5.7c-9.2-1.1-17.3-3.3-22.4-6c-4-2.1-6-4.4-6-6.7c0.1-2.5,2.7-5,7.6-7.3
	c5.2-2.4,11.7-4.6,19.3-6.5C76.5,10.7,126.4,6.7,178.2,7.5c4.1,0.1,8.5,0.1,8.5,0.1c-0.1-0.1-3.7-1-5.1-1
	C127.4,3.3,74.3,8.1,23.8,21.1c-5.8,1.5-11.6,3.7-16.6,6.3c-4.4,2.3-6.8,5-7,8c-0.2,2.8,1.7,5.7,5.5,8.3c7.1,4.8,17.4,6.6,27.4,8
	c19.5,2.7,38,3.7,57.7,4.7c14.2,0.7,28.3,1.1,42.4,1.1c34,0,67.8-2.1,100.9-6.2c12.9-1.6,22.5-4,30.2-7.5
	c8.6-3.9,13.2-8.6,13.4-13.6C277.9,25.5,274.1,20.9,266.7,17z"/>
</svg>
