<?xml version="1.0" encoding="utf-8"?>
<!-- Generator: Adobe Illustrator 26.0.1, SVG Export Plug-In . SVG Version: 6.00 Build 0)  -->
<svg version="1.1" id="Слой_1" xmlns="http://www.w3.org/2000/svg" xmlns:xlink="http://www.w3.org/1999/xlink" x="0px" y="0px"
	 viewBox="0 0 250.2 73.3" style="enable-background:new 0 0 250.2 73.3;" xml:space="preserve">
<style type="text/css">
	.st0{fill:#C51D26;}
</style>
<path class="st0" d="M157.3,3.4C116.9,1.1,79,5,41.6,17.5C18.2,24.8,10.8,32.5,8,36.4C2.6,43.7,6.7,53.9,15.9,58
	c28,13.3,135,13.6,191.7,6.3c33.5-3.7,42.7-24.2,36.5-34.3c-4.7-7.6-16.3-15.1-46.2-18.5c-22.8-2.6-56.9-1.2-58.3-1.9
	c1.3-1,54.4-3.2,69-0.8c12.4,2.1,29.2,6.7,36.4,15.5c12.2,14.9,0.5,31.5-19,39.2c-12.6,4.9-26.3,5.7-39.9,6.8
	c-47.8,3.9-95.6,3.6-143.3-1.8c-9.2-1-18.7-2.9-27.1-6.2C-0.7,56.1-4.4,41.7,7.2,30.6c4.7-4.5,11.1-8.3,17.6-10.8
	c42.4-15.9,87-22.4,133.9-18c3.1,0.3,18,1.4,21.1,1.9C179.8,4.2,160.6,3.6,157.3,3.4z"/>
</svg>
